<svg xmlns="http://www.w3.org/2000/svg" xmlns:xlink="http://www.w3.org/1999/xlink" width="1920" height="868" viewBox="0 0 1920 868"><defs><clipPath id="a"><rect width="1920" height="868" fill="#eb3e2f"/></clipPath><clipPath id="b"><rect width="2516" height="2516" transform="translate(0.425 0.425)" fill="#eb3e2f"/></clipPath><clipPath id="q"><rect width="3060" height="2516" transform="translate(-0.222 0.425)" fill="#eb3e2f"/></clipPath><clipPath id="r"><path d="M400,651.679c0,139,112.682,251.679,251.679,251.679S903.358,790.676,903.358,651.679,790.679,400,651.679,400,400,512.679,400,651.679" transform="translate(-400 -400)" fill="#eb3e2f"/></clipPath><clipPath id="s"><path d="M400,732.824c0,183.812,149.012,332.824,332.824,332.824s332.824-149.012,332.824-332.824S916.64,400,732.824,400,400,549.009,400,732.824" transform="translate(-400 -400)" fill="#eb3e2f"/></clipPath></defs><g opacity="0.9" clip-path="url(#a)"><g transform="translate(254.098 -809.542)"><g transform="translate(6.478 0.117)"><g transform="translate(0)" clip-path="url(#b)"><path d="M500,500" transform="translate(758.268 758.276)" fill="#eb3e2f"/><path d="M500,500" transform="translate(758.268 758.276)" fill="#eb3e2f"/><path d="M500,500" transform="translate(758.268 758.276)" fill="#eb3e2f"/></g></g><path d="M500,500l0,0v0Z" transform="translate(764.746 758.394)" fill="#eb3e2f"/><path d="M500,500l0,0Z" transform="translate(764.744 758.393)" fill="#eb3e2f"/><g transform="translate(6.478 0.117)"><g transform="translate(0)" clip-path="url(#b)"><path d="M500,500" transform="translate(758.268 758.276)" fill="#eb3e2f"/><path d="M500,500" transform="translate(758.268 758.276)" fill="#eb3e2f"/><path d="M500,500" transform="translate(758.268 758.276)" fill="#eb3e2f"/><path d="M500,500" transform="translate(758.27 758.278)" fill="#eb3e2f"/></g></g><path d="M500,500l0,0Z" transform="translate(764.746 758.393)" fill="#eb3e2f"/><path d="M500,500h0l0,0Z" transform="translate(764.746 758.394)" fill="#eb3e2f"/><path d="M500,500v0Z" transform="translate(764.746 758.395)" fill="#eb3e2f"/><path d="M500,500h0Z" transform="translate(764.746 758.393)" fill="#eb3e2f"/><path d="M500,500v0l0,0Z" transform="translate(764.746 758.396)" fill="#eb3e2f"/><g transform="translate(6.478 0.117)"><g transform="translate(0)" clip-path="url(#b)"><path d="M500,500" transform="translate(758.27 758.276)" fill="#eb3e2f"/></g></g><path d="M500,500v0Z" transform="translate(764.747 758.393)" fill="#eb3e2f"/><rect transform="translate(1263.902 1257.542)" fill="#eb3e2f"/><g transform="translate(6.478 0.117)"><g transform="translate(0)" clip-path="url(#b)"><path d="M500,500" transform="translate(758.27 758.278)" fill="#eb3e2f"/><path d="M500,500" transform="translate(758.267 758.276)" fill="#eb3e2f"/><path d="M500,500" transform="translate(758.265 758.278)" fill="#eb3e2f"/><path d="M500,500" transform="translate(758.265 758.278)" fill="#eb3e2f"/></g></g><path d="M500,500h0l0,0Z" transform="translate(764.743 758.394)" fill="#eb3e2f"/><g transform="translate(6.478 0.117)"><g transform="translate(0)" clip-path="url(#b)"><path d="M500,500" transform="translate(758.265 758.278)" fill="#eb3e2f"/></g></g><path d="M500,500l0,0,0,0h0l0,0Z" transform="translate(764.743 758.394)" fill="#eb3e2f"/><path d="M500,500v0Z" transform="translate(764.746 758.397)" fill="#eb3e2f"/><path d="M500,500v0h0v0Z" transform="translate(764.745 758.395)" fill="#eb3e2f"/><path d="M500,500.006v0l0,0Z" transform="translate(764.743 758.395)" fill="#eb3e2f"/><g transform="translate(6.478 0.117)"><g transform="translate(0)" clip-path="url(#b)"><path d="M500,500" transform="translate(758.267 758.276)" fill="#eb3e2f"/><path d="M500,500" transform="translate(758.267 758.276)" fill="#eb3e2f"/></g></g><path d="M500,500h0Z" transform="translate(764.743 758.393)" fill="#eb3e2f"/><path d="M500,500h0Z" transform="translate(764.743 758.393)" fill="#eb3e2f"/><g transform="translate(6.478 0.117)"><g transform="translate(0)" clip-path="url(#b)"><path d="M500,500" transform="translate(758.267 758.278)" fill="#eb3e2f"/></g></g><path d="M500,500h0Z" transform="translate(764.743 758.395)" fill="#eb3e2f"/><path d="M500,500l0,0v0Z" transform="translate(764.743 758.394)" fill="#eb3e2f"/><path d="M500,500v0Z" transform="translate(764.748 758.391)" fill="#eb3e2f"/><g transform="translate(6.478 0.117)"><g transform="translate(0)" clip-path="url(#b)"><path d="M500,500" transform="translate(758.27 758.276)" fill="#eb3e2f"/></g></g><path d="M500,500v0Z" transform="translate(764.746 758.393)" fill="#eb3e2f"/><path d="M500,500l.005,0Z" transform="translate(764.743 758.393)" fill="#eb3e2f"/><g transform="translate(6.478 0.117)"><g transform="translate(0)" clip-path="url(#b)"><path d="M500,500" transform="translate(758.27 758.278)" fill="#eb3e2f"/><path d="M500,500" transform="translate(758.268 758.276)" fill="#eb3e2f"/><path d="M500,500" transform="translate(758.268 758.276)" fill="#eb3e2f"/><path d="M500,500" transform="translate(758.268 758.276)" fill="#eb3e2f"/><path d="M500,500" transform="translate(758.268 758.276)" fill="#eb3e2f"/></g></g><path d="M500,500h0Z" transform="translate(764.744 758.398)" fill="#eb3e2f"/><g transform="translate(6.478 0.117)"><g transform="translate(0)" clip-path="url(#b)"><path d="M500,500" transform="translate(758.268 758.279)" fill="#eb3e2f"/></g></g><path d="M500,500h0Z" transform="translate(764.74 758.392)" fill="#eb3e2f"/><g transform="translate(6.478 0.117)"><g transform="translate(0)" clip-path="url(#b)"><path d="M500,500" transform="translate(758.271 758.276)" fill="#eb3e2f"/></g></g><rect transform="translate(1263.902 1257.542)" fill="#eb3e2f"/><path d="M500,500v0Z" transform="translate(764.747 758.393)" fill="#eb3e2f"/><path d="M500,500l0,0Z" transform="translate(764.746 758.393)" fill="#eb3e2f"/><g transform="translate(6.478 0.117)"><g transform="translate(0)" clip-path="url(#b)"><path d="M500,500" transform="translate(758.27 758.276)" fill="#eb3e2f"/></g></g><path d="M500,500h0Z" transform="translate(764.743 758.395)" fill="#eb3e2f"/><path d="M500,500h0Z" transform="translate(764.744 758.395)" fill="#eb3e2f"/><path d="M500,500l0,0Z" transform="translate(764.746 758.393)" fill="#eb3e2f"/><g transform="translate(6.478 0.117)"><g transform="translate(0)" clip-path="url(#b)"><path d="M500,500" transform="translate(758.267 758.278)" fill="#eb3e2f"/></g></g><path d="M500,500l0,0Z" transform="translate(764.744 758.393)" fill="#eb3e2f"/><path d="M500,500v0Z" transform="translate(764.744 758.393)" fill="#eb3e2f"/><path d="M500,500h0v0Z" transform="translate(764.745 758.394)" fill="#eb3e2f"/><g transform="translate(6.478 0.117)"><g transform="translate(0)" clip-path="url(#b)"><path d="M500,500" transform="translate(758.268 758.276)" fill="#eb3e2f"/></g></g><path d="M500,500l0,0Z" transform="translate(764.744 758.393)" fill="#eb3e2f"/><g transform="translate(6.478 0.117)"><g transform="translate(0)" clip-path="url(#b)"><path d="M500,500" transform="translate(758.267 758.278)" fill="#eb3e2f"/><path d="M500,500" transform="translate(758.268 758.276)" fill="#eb3e2f"/><path d="M500,500" transform="translate(758.267 758.278)" fill="#eb3e2f"/><path d="M500,500" transform="translate(758.268 758.276)" fill="#eb3e2f"/><path d="M500,500" transform="translate(758.268 758.276)" fill="#eb3e2f"/></g></g><path d="M500,500l0,0Z" transform="translate(764.744 758.393)" fill="#eb3e2f"/><path d="M500,500l0,0Z" transform="translate(764.744 758.393)" fill="#eb3e2f"/><g transform="translate(-536.876 0.117)"><g clip-path="url(#q)"><path d="M500,500" transform="translate(1301.622 758.276)" fill="#eb3e2f"/><path d="M1086.254,500,113.49,1298.33a1265.88,1265.88,0,0,0,174.434,174.439L1086.254,500Z" transform="translate(715.364 758.279)" fill="#eb3e2f"/><path d="M574.34,1258.395h0v0L697.7,5.995Q636.818.06,574.338,0,511.908,0,450.99,5.99Z" transform="translate(1227.281 -0.119)" fill="#eb3e2f"/><path d="M500,1225.914h0l593.308-1110a1250.461,1250.461,0,0,0-227.926-94.5L500,1225.912Z" transform="translate(1301.623 32.362)" fill="#eb3e2f"/><path d="M857.565,1225.913,492.188,21.413a1250.508,1250.508,0,0,0-227.928,94.5l593.3,1110Z" transform="translate(944.051 32.36)" fill="#eb3e2f"/><path d="M1100.351,1114.215h0L290.452,113.488A1293.263,1293.263,0,0,0,113.488,292.941l986.863,821.277Z" transform="translate(662.427 172.167)" fill="#eb3e2f"/><path d="M500,500h0l0,0Z" transform="translate(1301.622 758.279)" fill="#eb3e2f"/><path d="M500,574.337,1752.4,697.693q5.924-60.882,6-123.355-.008-62.434-5.993-123.345Z" transform="translate(1301.623 683.941)" fill="#eb3e2f"/><path d="M500,500" transform="translate(1301.623 758.278)" fill="#eb3e2f"/><path d="M500,500" transform="translate(1301.623 758.278)" fill="#eb3e2f"/><path d="M1472.768,287.928a1265.9,1265.9,0,0,0-174.436-174.439L500,1086.253Z" transform="translate(1301.625 172.02)" fill="#eb3e2f"/><path d="M1536.545,935.393,140.281,264.26A1339.5,1339.5,0,0,0,21.413,522.086Z" transform="matrix(0.995, 0.105, -0.105, 0.995, 262.274, 185.004)" fill="#eb3e2f"/><path d="M500,857.563l1204.5-365.375A1249.961,1249.961,0,0,0,1610,264.263L500.006,857.563Z" transform="translate(1301.623 400.713)" fill="#eb3e2f"/><path d="M857.568,500,264.262,1610a1250.518,1250.518,0,0,0,227.926,94.5l365.38-1204.49Z" transform="translate(944.054 758.282)" fill="#eb3e2f"/><path d="M500,500.013,865.374,1704.5a1250.279,1250.279,0,0,0,227.93-94.5L500,500.005Z" transform="translate(1301.622 758.284)" fill="#eb3e2f"/><path d="M500,500l798.326,972.759a1265.847,1265.847,0,0,0,174.434-174.434L500,500Z" transform="translate(1301.623 758.279)" fill="#eb3e2f"/><path d="M450.991,1752.386q60.875,5.92,123.345,5.987,62.434,0,123.353-5.992L574.341,500.014Z" transform="translate(1227.282 758.298)" fill="#eb3e2f"/><path d="M500,500l1110,593.3a1250.854,1250.854,0,0,0,94.5-227.928L500,500Z" transform="translate(1301.622 758.278)" fill="#eb3e2f"/><path d="M1720.209,500,21.414,1009.1A1730.5,1730.5,0,0,0,154.7,1326.691L1720.209,500.008Z" transform="translate(81.409 758.278)" fill="#eb3e2f"/><path d="M1622.141,574.339,7.725,450.989a988.739,988.739,0,0,0,0,246.7Z" transform="translate(179.477 683.937)" fill="#eb3e2f"/><path d="M500,500l0,0Z" transform="translate(1301.622 758.278)" fill="#eb3e2f"/><path d="M500,500" transform="translate(1301.622 758.276)" fill="#eb3e2f"/><rect transform="translate(1800.779 1257.425)" fill="#eb3e2f"/><path d="M500,500h0Z" transform="translate(1301.622 758.276)" fill="#eb3e2f"/><path d="M500,500h0v0Z" transform="translate(1301.623 758.276)" fill="#eb3e2f"/><rect transform="translate(1800.779 1257.425)" fill="#eb3e2f"/><rect transform="translate(1800.778 1257.425)" fill="#eb3e2f"/><path d="M500,500Z" transform="translate(1301.62 758.278)" fill="#eb3e2f"/><path d="M500,500" transform="translate(1301.62 758.276)" fill="#eb3e2f"/><path d="M500,500" transform="translate(1301.623 758.276)" fill="#eb3e2f"/><path d="M500,500" transform="translate(1301.623 758.278)" fill="#eb3e2f"/><path d="M500,500" transform="translate(1301.623 758.278)" fill="#eb3e2f"/><path d="M500,500" transform="translate(1301.623 758.278)" fill="#eb3e2f"/><path d="M500,500h0v0Z" transform="translate(1301.623 758.276)" fill="#eb3e2f"/><path d="M500,500Z" transform="translate(1301.623 758.277)" fill="#eb3e2f"/><path d="M500,500v0l0,0Z" transform="translate(1301.617 758.274)" fill="#eb3e2f"/><path d="M500,500v0Z" transform="translate(1301.623 758.276)" fill="#eb3e2f"/><rect transform="translate(1800.778 1257.425)" fill="#eb3e2f"/><path d="M500,500" transform="translate(1301.62 758.282)" fill="#eb3e2f"/><path d="M500,500h0v0Z" transform="translate(1301.62 758.283)" fill="#eb3e2f"/><path d="M500,500l0,0v0Z" transform="translate(1301.62 758.281)" fill="#eb3e2f"/><rect transform="translate(1800.778 1257.425)" fill="#eb3e2f"/><path d="M500,500.005l0,.023v-.015Z" transform="translate(1301.62 758.285)" fill="#eb3e2f"/><rect transform="translate(1800.779 1257.425) rotate(-17.913)" fill="#eb3e2f"/><path d="M500,500l0,0v0Z" transform="translate(1301.622 758.28)" fill="#eb3e2f"/><path d="M500,500h0l0,.005V500l0,0Z" transform="translate(1301.622 758.28)" fill="#eb3e2f"/><path d="M500,500h0l0,0Z" transform="translate(1301.619 758.277)" fill="#eb3e2f"/><path d="M500,500h0Z" transform="translate(1301.617 758.276)" fill="#eb3e2f"/><path d="M500,500h0Z" transform="translate(1301.619 758.278)" fill="#eb3e2f"/><path d="M500,500" transform="translate(1301.619 758.276)" fill="#eb3e2f"/><rect transform="translate(1800.778 1257.425)" fill="#eb3e2f"/><path d="M500,500v0Z" transform="translate(1301.619 758.278)" fill="#eb3e2f"/><rect transform="translate(1800.778 1257.425)" fill="#eb3e2f"/><rect transform="translate(1800.778 1257.425) rotate(-45.881)" fill="#eb3e2f"/></g></g><g transform="translate(1013.064 1006.714)"><g clip-path="url(#r)"><path d="M903.358,651.679c0,139-112.679,251.679-251.679,251.679S400,790.676,400,651.679,512.679,400,651.679,400,903.358,512.679,903.358,651.679" transform="translate(-400 -400)" fill="#eb3e2f"/></g></g><g transform="translate(931.36 925.578)"><g clip-path="url(#s)"><path d="M1065.648,732.824c0,183.812-149.009,332.824-332.824,332.824S400,916.637,400,732.824,549.009,400,732.824,400s332.824,149.009,332.824,332.824" transform="translate(-400 -400)" fill="#eb3e2f"/></g></g></g></g></svg>