<svg xmlns="http://www.w3.org/2000/svg" xmlns:xlink="http://www.w3.org/1999/xlink" width="593" height="212" viewBox="0 0 593 212"><defs><clipPath id="a"><rect width="593" height="212" transform="translate(1327 662)" fill="#fff" stroke="#707070" stroke-width="1"/></clipPath></defs><g transform="translate(-1327 -662)" clip-path="url(#a)"><g transform="translate(1376.34 661.284)"><path d="M411.731,138.459H53.562C24.1,138.459,0,162.742,0,192.422s24.1,53.962,53.562,53.962H411.731c29.46,0,53.562-24.283,53.562-53.962s-24.1-53.963-53.562-53.963" transform="translate(-12.86 -97.271)" fill="#f5e16e"/><path d="M450.095,117.414H169.571c-.593,0-1.181-.017-1.767-.048a44.929,44.929,0,0,1-42.922-44.745h0a44.925,44.925,0,0,1,44.793-44.792h110.9v.1h-.016a11.249,11.249,0,0,0-11.249,11.249v0A11.249,11.249,0,0,0,280.56,50.424h.016v.041H450.095a33.474,33.474,0,1,1,0,66.949" transform="translate(186.661 95.473)" fill="#f5e16e"/><path d="M216.912,166.6a13.779,13.779,0,0,1,13.779,13.779v0a13.78,13.78,0,0,1-13.779,13.779H184.166a13.779,13.779,0,0,0-13.779,13.779h0a13.779,13.779,0,0,0,13.779,13.779H286.552A13.78,13.78,0,0,1,300.332,235.5v0a13.78,13.78,0,0,1-13.779,13.779H119.8A13.779,13.779,0,0,1,106.024,235.5v0A13.78,13.78,0,0,1,119.8,221.722h13a13.779,13.779,0,0,0,13.779-13.779h0a13.779,13.779,0,0,0-13.779-13.779H57.982A13.781,13.781,0,0,1,44.2,180.383v0A13.78,13.78,0,0,1,57.982,166.6Z" transform="translate(-93.725 -77.372)" fill="#fffabe"/><path d="M304.368,120.416h52.807a15.051,15.051,0,0,1,15.051,15.051v0a15.051,15.051,0,0,1-15.051,15.051H213.8a15.051,15.051,0,0,1-15.051-15.051v0A15.051,15.051,0,0,1,213.8,120.416h34.475a15.051,15.051,0,0,0,15.051-15.051v0a15.051,15.051,0,0,0-15.051-15.051h-61.3A15.051,15.051,0,0,1,171.92,75.261v0a15.051,15.051,0,0,1,15.051-15.05H340a15.052,15.052,0,0,0,15.051-15.052h0A15.051,15.051,0,0,0,340,30.1H283.056A15.051,15.051,0,0,1,268,15.053v0A15.051,15.051,0,0,1,283.056,0H421.307a15.051,15.051,0,0,1,15.051,15.051v0A15.051,15.051,0,0,1,421.307,30.1H402.739a15.051,15.051,0,0,0-15.051,15.051h0a15.052,15.052,0,0,0,15.051,15.052h79.844a15.05,15.05,0,0,1,15.051,15.05v0a15.051,15.051,0,0,1-15.051,15.051H304.368a15.051,15.051,0,0,0-15.051,15.051v0a15.051,15.051,0,0,0,15.051,15.051" transform="translate(172.596 0.97)" fill="#fffabe"/></g></g></svg>