<svg xmlns="http://www.w3.org/2000/svg" width="423.104" height="35.376" viewBox="0 0 423.104 35.376"><path d="M-203.676-.7a19.151,19.151,0,0,0,7.92-1.452,6.946,6.946,0,0,0,4.268-6.468c0-2.684-1.672-4.752-3.388-6.556-1.188-1.232-2.332-2.332-3.124-3.3a2.905,2.905,0,0,1-.748-1.76,2.645,2.645,0,0,1,1.144-2.068c.44-.352.792-.484.792-.924,0-.352-.308-.572-.748-.968a15.984,15.984,0,0,0-1.5-1.188c-.308-.22-.528-.44-.792-.44a2.348,2.348,0,0,0-1.1.616,6.129,6.129,0,0,0-2.288,4.928,6.32,6.32,0,0,0,1.012,3.3c1.232,2.024,3.3,3.828,4.664,5.544A5.118,5.118,0,0,1-196.2-8.492,2.455,2.455,0,0,1-198-6.116a11.537,11.537,0,0,1-4.268.616c-.528,0-1.012,0-1.5-.044-.616,0-1.232-.176-1.848-.176-.308,0-.44.088-.44.44a5.725,5.725,0,0,0,.264,1.012c.308.968.7,2.156.88,2.6.132.308.308.748.66.88A1.3,1.3,0,0,0-203.676-.7ZM-213.444-2.6a4.307,4.307,0,0,0,.968-.484c2.464-1.408,8.624-5.544,9.372-6.072.352-.264,1.012-.484,1.012-1.012a2.611,2.611,0,0,0-.352-.968c-.308-.66-.7-1.364-.924-1.76-.176-.308-.484-1.012-.924-1.012-.308,0-.616.484-.88.66a48.815,48.815,0,0,1-6.82,4.62c-.352.176-1.8.836-2.772,1.232-.308.132-1.012.264-1.012.7a2.57,2.57,0,0,0,.264.88c.352.836.924,1.936,1.144,2.332C-214.148-3.124-213.972-2.6-213.444-2.6Zm30.976-.616c.308,0,.44-.22.748-.44a17.918,17.918,0,0,0,1.892-1.76c.352-.352.66-.66.66-1.1,0-.484-.264-.572-.484-1.012-.264-.4-.616-.792-.88-1.188A35.291,35.291,0,0,0-187-14.784c-.176-.132-.528-.4-.88-.616a2.875,2.875,0,0,0-.88-.4,1.972,1.972,0,0,0-.836.4,10.6,10.6,0,0,0-1.848,1.364c-.308.308-.528.572-.528.7,0,.308.572.572.748.7A42.922,42.922,0,0,1-184.1-5.1c.308.44.572.88.88,1.276A1.28,1.28,0,0,0-182.468-3.212ZM-193.512-23.98a1.255,1.255,0,0,0,.968-.572c.308-.308,1.056-1.188,1.76-1.892a1.847,1.847,0,0,0,.528-1.012c0-.484-.66-.616-1.012-.748a29.092,29.092,0,0,1-4.136-2.288,17.289,17.289,0,0,1-3.432-2.992c-.176-.22-.484-.66-.792-.66a2.8,2.8,0,0,0-.792.7c-.572.616-1.232,1.408-1.408,1.584-.264.4-.616.572-.616,1.1a1.682,1.682,0,0,0,.484.836,33.832,33.832,0,0,0,7.392,5.544A2.883,2.883,0,0,0-193.512-23.98ZM-159.06.66a18.185,18.185,0,0,0,2.2-.572c5.676-1.936,10.692-4.972,12.98-10.824a11.368,11.368,0,0,0,.7-4.224,10.36,10.36,0,0,0-1.76-6.512,8.194,8.194,0,0,0-6.732-3.168c-4.708,0-8.1,1.716-12.408,2.728a7.344,7.344,0,0,0-.792.22c-.264.044-.528.22-.528.44a3.163,3.163,0,0,0,.176.836c.352.924,1.012,2.288,1.276,2.816.132.264.264.616.616.616a6.332,6.332,0,0,0,1.628-.66,24.954,24.954,0,0,1,3.916-1.54,23.22,23.22,0,0,1,5.984-1.144c3.3,0,3.916,2.112,3.916,4.972A8.948,8.948,0,0,1-151.1-8.4a22.356,22.356,0,0,1-9.02,4.356c-.22.044-.924.176-1.5.308-.44.088-.748.176-.748.484-.044.22.176.484.528.88.66.792,1.056,1.364,1.76,2.156C-159.72.176-159.456.66-159.06.66Zm11.924-26.8c.308,0,.44-.572.572-1.1.176-.7.572-1.76.836-2.64a4.079,4.079,0,0,0,.308-.836c-.044-.352-.44-.352-.748-.4-.484-.044-1.144-.132-1.364-.132a29.582,29.582,0,0,1-5.9-1.056,18.1,18.1,0,0,1-3.916-1.672A3.4,3.4,0,0,0-158.4-34.5c-.352,0-.572.528-.7.792-.132.352-.748,1.5-1.1,2.288a1.887,1.887,0,0,0-.264.748c.044.308.484.484.748.616a32.6,32.6,0,0,0,4.752,2.112,44.978,44.978,0,0,0,5.852,1.5,11.793,11.793,0,0,0,1.32.22A4.576,4.576,0,0,0-147.136-26.136Zm37.62,24.772c1.188,0,7.392-.22,9.636-.968.528-.176.836-.264.836-.748,0-.22-.132-1.012-.264-1.76-.088-.66-.22-1.452-.352-1.98-.088-.308-.132-.7-.484-.7a2.447,2.447,0,0,0-.924.264A33.3,33.3,0,0,1-110.4-5.808a16.869,16.869,0,0,1-4.708-.616,3.223,3.223,0,0,1-2.244-3.168,5.345,5.345,0,0,1,2.508-4.092,22.311,22.311,0,0,1,6.732-3.124c1.232-.352,2.508-.572,3.784-.836a41.107,41.107,0,0,1,4.576-.7c.484-.044,1.144-.088,1.144-.7a4.848,4.848,0,0,0-.352-1.188c-.352-.88-.88-2.024-1.012-2.288-.22-.352-.352-.792-.792-.792a3.107,3.107,0,0,0-1.056.264c-1.276.44-2.6.792-3.916,1.144L-110.4-20.46c-.132-1.716-.264-3.432-.264-5.1a47.063,47.063,0,0,1,.308-6.116,15.657,15.657,0,0,0,.22-2.068c0-.572-.4-.572-.88-.572-1.232,0-2.464.088-3.7.132-.572.044-.924.088-.968.616,0,.66.264,1.8.308,2.728.132,1.584.22,3.388.264,5.148.044,2.332.132,4.664.352,6.952-3.344,1.848-7,5.06-7,9.2,0,2.9,1.056,4.84,2.728,6.028C-116.556-1.76-112.948-1.364-109.516-1.364ZM-71.94.66a18.185,18.185,0,0,0,2.2-.572c5.676-1.936,10.692-4.972,12.98-10.824a11.368,11.368,0,0,0,.7-4.224,10.36,10.36,0,0,0-1.76-6.512,8.194,8.194,0,0,0-6.732-3.168c-4.708,0-8.1,1.716-12.408,2.728a7.344,7.344,0,0,0-.792.22c-.264.044-.528.22-.528.44a3.163,3.163,0,0,0,.176.836c.352.924,1.012,2.288,1.276,2.816.132.264.264.616.616.616a6.332,6.332,0,0,0,1.628-.66,24.954,24.954,0,0,1,3.916-1.54,23.22,23.22,0,0,1,5.984-1.144c3.3,0,3.916,2.112,3.916,4.972A8.948,8.948,0,0,1-63.976-8.4,22.356,22.356,0,0,1-73-4.048c-.22.044-.924.176-1.5.308-.44.088-.748.176-.748.484-.044.22.176.484.528.88.66.792,1.056,1.364,1.76,2.156C-72.6.176-72.336.66-71.94.66Zm11.924-26.8c.308,0,.44-.572.572-1.1.176-.7.572-1.76.836-2.64a4.079,4.079,0,0,0,.308-.836c-.044-.352-.44-.352-.748-.4-.484-.044-1.144-.132-1.364-.132a29.582,29.582,0,0,1-5.9-1.056,18.1,18.1,0,0,1-3.916-1.672A3.4,3.4,0,0,0-71.28-34.5c-.352,0-.572.528-.7.792-.132.352-.748,1.5-1.1,2.288a1.887,1.887,0,0,0-.264.748c.044.308.484.484.748.616a32.6,32.6,0,0,0,4.752,2.112A44.978,44.978,0,0,0-62-26.444a11.794,11.794,0,0,0,1.32.22A4.576,4.576,0,0,0-60.016-26.136ZM-21.78-2.2A92.273,92.273,0,0,0-11.132-3.344c.66-.132,1.012-.352,1.012-1.056,0-1.276-.088-2.552-.176-3.784-.044-.264-.088-.968-.44-.968a2.777,2.777,0,0,0-1.012.352,31.9,31.9,0,0,1-6.028,1.54,36.332,36.332,0,0,1-5.368.484,29.42,29.42,0,0,1-6.028-.66c-1.408-.352-2.464-.968-2.464-1.98A4.98,4.98,0,0,1-29.92-12.8c.264-.264.792-.572.792-.968,0-.176-.308-.4-.7-.7-.616-.4-1.32-.7-1.98-1.056a1.389,1.389,0,0,0-.66-.22c-.352,0-.572.308-.792.528a9.04,9.04,0,0,0-2.684,6.336,5.4,5.4,0,0,0,3.52,5.148,22.183,22.183,0,0,0,7.216,1.452C-24.068-2.2-22.924-2.2-21.78-2.2Zm8.668-20.284c.484-.044.528-.572.528-.968a25.885,25.885,0,0,0,.264-2.992c0-.7-.132-.836-.836-.968a48.981,48.981,0,0,0-5.1-.22c-1.54-.044-3.08-.044-4.62-.044a79.986,79.986,0,0,0-8.976.484c-.44.088-.792.176-.792.66,0,.44.22,2.2.308,3.256.044.44.176.66.616.66a10.9,10.9,0,0,0,1.188-.132,79.93,79.93,0,0,1,8.58-.352c1.452,0,2.9.132,4.312.22,1.144.088,2.2.132,3.388.264A11.428,11.428,0,0,0-13.112-22.484Zm5.236-3.476c.132,0,.308-.176.484-.352.308-.4.616-.748.88-1.056a.877.877,0,0,0,.308-.484c0-.308-.4-.616-.66-.924-.484-.484-1.012-.924-1.672-1.5a19.329,19.329,0,0,0-1.584-1.32c-.308-.22-.572-.44-.748-.44a1.259,1.259,0,0,0-.528.4l-.836.792c-.132.132-.264.264-.22.4,0,.176.308.264.66.572a19.661,19.661,0,0,1,1.54,1.408c.484.484,1.232,1.32,1.76,1.936C-8.228-26.224-8.052-25.96-7.876-25.96Zm3.828-2.728c.132,0,.308-.176.44-.352.352-.4.66-.748.924-1.012a1.131,1.131,0,0,0,.308-.528c0-.264-.4-.572-.616-.836A20.847,20.847,0,0,0-4.708-33c-.528-.484-1.1-.924-1.584-1.32-.308-.22-.484-.4-.748-.4-.176,0-.308.176-.528.352l-.836.792c-.176.132-.264.264-.22.4,0,.22.308.264.66.572A19.661,19.661,0,0,1-6.424-31.2c.484.484,1.232,1.32,1.76,1.936C-4.4-28.952-4.224-28.688-4.048-28.688Zm34.76,26.62c.792,0,.792-.132.968-.792.264-.968.484-2.2.748-3.168a6.271,6.271,0,0,0,.22-.88c0-.132-.088-.44-.22-.484-.4-.044-.572,0-1.188-.044-.792-.044-1.716-.088-1.98-.132-2.64-.264-5.984-.968-8.228-2.464a4.928,4.928,0,0,1-2.464-4.4,7.357,7.357,0,0,1,2.992-5.852A21.657,21.657,0,0,1,31.9-25.168a19.19,19.19,0,0,1,2.244-.132c.308-.044,1.012-.044,1.584-.044.616.044,1.1-.132,1.1-.572a4.636,4.636,0,0,0-.22-1.144c-.308-.968-.572-2.112-.748-2.772-.176-.528-.308-1.056-.748-1.056a8.655,8.655,0,0,0-1.056.132,27.364,27.364,0,0,1-3.168.44c-3.564.308-7.084.528-10.6.748-3.388.22-6.732.528-10.12.528-.7,0-1.364-.044-2.024-.044-.484-.044-.968-.132-1.452-.132-.616,0-.66.528-.66,1.056v3.432c0,.44.132.748.616.748a6.316,6.316,0,0,0,1.584-.308A38.7,38.7,0,0,1,12.76-24.9c3.432-.308,6.864-.66,10.3-.924-.88.484-1.76,1.012-2.6,1.584-3.432,2.376-6.2,5.764-6.2,9.724C14.256-7,20.592-4.048,26.884-2.728A24.062,24.062,0,0,0,30.712-2.068ZM52.624.132c.44,0,.484-.88.616-1.32A61.176,61.176,0,0,1,55.4-7.436a19.259,19.259,0,0,1,4.884-6.82,12.843,12.843,0,0,1,2.288-1.628,3.427,3.427,0,0,1,1.32-.4c.7,0,.7.528.7,1.056,0,.352-.044.748-.044,1.1A45.562,45.562,0,0,0,64.2-9.24a9.408,9.408,0,0,0,.968,4.8,6.579,6.579,0,0,0,6.028,3.08c4.928,0,9.064-4.092,11.528-8.008a4.066,4.066,0,0,0,.66-1.584c0-.264-.264-.528-.616-.924l-1.98-1.98c-.4-.4-.528-.572-.836-.572-.44-.044-.7,1.144-.836,1.5a12.311,12.311,0,0,1-4.8,6.116,6.178,6.178,0,0,1-3.168.924c-1.056,0-1.672-.132-2.112-1.144a7.478,7.478,0,0,1-.4-2.9c0-1.98.44-3.916.44-5.9,0-2.816-1.584-4.576-4.444-4.576a7.9,7.9,0,0,0-4.8,2.156c1.628-3.256,3.08-6.6,4.972-9.768.22-.308.616-1.012.924-1.584.132-.352.4-.484.4-.836.044-.308-.4-.572-.748-.7-.968-.44-1.936-.792-2.948-1.144a5.092,5.092,0,0,0-1.144-.264c-.352,0-.44.572-.572.924-.22.836-.528,2.2-.7,2.64-1.5,3.256-2.816,6.556-4.268,9.812-1.188,2.684-2.464,5.324-3.74,7.92-1.1,2.244-2.024,4.532-2.992,6.776l-.4,1.056a3,3,0,0,0-.4.968c0,.176.264.528.748.792.836.484,1.716,1.056,2.508,1.408A3.232,3.232,0,0,0,52.624.132Zm56.98-1.5c1.188,0,7.392-.22,9.636-.968.528-.176.836-.264.836-.748,0-.22-.132-1.012-.264-1.76-.088-.66-.22-1.452-.352-1.98-.088-.308-.132-.7-.484-.7a2.447,2.447,0,0,0-.924.264,33.3,33.3,0,0,1-9.328,1.452,16.869,16.869,0,0,1-4.708-.616,3.223,3.223,0,0,1-2.244-3.168,5.345,5.345,0,0,1,2.508-4.092,22.311,22.311,0,0,1,6.732-3.124c1.232-.352,2.508-.572,3.784-.836a41.107,41.107,0,0,1,4.576-.7c.484-.044,1.144-.088,1.144-.7a4.848,4.848,0,0,0-.352-1.188c-.352-.88-.88-2.024-1.012-2.288-.22-.352-.352-.792-.792-.792a3.107,3.107,0,0,0-1.056.264c-1.276.44-2.6.792-3.916,1.144l-4.664,1.452c-.132-1.716-.264-3.432-.264-5.1a47.063,47.063,0,0,1,.308-6.116,15.657,15.657,0,0,0,.22-2.068c0-.572-.4-.572-.88-.572-1.232,0-2.464.088-3.7.132-.572.044-.924.088-.968.616,0,.66.264,1.8.308,2.728.132,1.584.22,3.388.264,5.148.044,2.332.132,4.664.352,6.952-3.344,1.848-7,5.06-7,9.2,0,2.9,1.056,4.84,2.728,6.028C102.564-1.76,106.172-1.364,109.6-1.364Zm45.672.22c3.432,0,6.116-1.54,6.6-5.1a33.4,33.4,0,0,1,5.808,3.08c.264.176.484.44.836.44.264,0,.528-.352.66-.572.4-.66.924-1.54,1.32-2.288a1.676,1.676,0,0,0,.308-.968c0-.352-.7-.7-.924-.88a29.682,29.682,0,0,0-8.1-3.344,62.36,62.36,0,0,1-.4-8.1v-2.068c1.012-.044,5.72-.132,7.788-.484a2.332,2.332,0,0,0,.924-.264,1.307,1.307,0,0,0,.22-.792c0-.968.088-2.508.088-3.476,0-.308-.088-.528-.4-.572a5.4,5.4,0,0,0-.924.22,9.3,9.3,0,0,1-1.672.4,52.589,52.589,0,0,1-5.9.7c.044-1.8.132-3.608.264-5.368.044-.572.22-1.364.22-1.98,0-.4-.176-.528-.924-.528-.528,0-2.42,0-3.388.044-.528.044-.836.088-.836.572a10.01,10.01,0,0,0,.088,1.144,33.821,33.821,0,0,1,.176,3.652c0,.88-.044,1.76-.044,2.684h-1.452a49.346,49.346,0,0,1-6.2-.352c-.528-.044-1.1-.308-1.584-.308-.44,0-.484.484-.484.836,0,.748-.088,2.2-.088,2.948,0,.528,0,.792.7.88a54.455,54.455,0,0,0,5.984.264c1.012,0,2.024-.044,3.036-.044-.044,3.036.132,6.116.352,9.2a12.388,12.388,0,0,0-1.8-.088c-.484,0-.968,0-1.452.044-3.124.088-6.424,1.452-6.424,5.1A4.607,4.607,0,0,0,150.3-2.2,12.161,12.161,0,0,0,155.276-1.144ZM139-.572a18.3,18.3,0,0,0,3.388-.616c.352-.088.924-.264,1.056-.616a.749.749,0,0,0,.044-.308,23.868,23.868,0,0,0-.352-2.376c-.176-1.1-.352-2.244-.44-3.344q-.132-2.178-.132-4.356a74,74,0,0,1,.968-12.848,29.58,29.58,0,0,1,1.364-5.148,6.482,6.482,0,0,0,.352-1.232c0-.4-.748-.484-1.056-.572-.792-.22-1.5-.4-2.42-.572a3.25,3.25,0,0,0-.836-.132c-.352,0-.528.22-.66.528a5.669,5.669,0,0,0-.264,1.1,100.834,100.834,0,0,0-1.936,19.58c0,3.168.176,6.336.4,9.5C138.512-1.54,138.336-.572,139-.572Zm15.972-4.752c-.792,0-3.124-.176-3.124-1.364,0-1.276,1.76-1.408,2.728-1.408a11.32,11.32,0,0,1,2.948.4C157.52-5.852,156.728-5.324,154.968-5.324ZM196.2-10.78h2.552c.616,0,.572-.176.616-.792,0-.44-.044-1.364,0-2.156,0-.66-.044-1.056.616-1.32.836-.352,1.892-.836,2.464-1.144a10.1,10.1,0,0,0,3.3-2.552,7.906,7.906,0,0,0,1.584-4.972,8,8,0,0,0-2.068-5.236,9.332,9.332,0,0,0-7.436-3.124c-4.356,0-8.184,1.892-9.592,6.2-.088.308-.22.792-.308,1.232a7.775,7.775,0,0,0-.132.924c0,.264.352.308.748.352a20.306,20.306,0,0,0,2.244.44c.308.044.748.132.924.132.22,0,.176-.4.308-.792a6.7,6.7,0,0,1,1.408-2.992,5.4,5.4,0,0,1,4.092-1.76c2.728,0,4.928,1.76,4.928,4.576,0,2.6-1.848,3.784-3.784,4.972-.4.264-1.276.528-1.892.836-.7.264-1.1.308-1.1,1.144-.044,1.452-.044,2.9-.044,4.268a9.944,9.944,0,0,0,.044,1.144C195.712-10.956,195.668-10.78,196.2-10.78Zm-.484,7.436h3.3c.616,0,.748-.264.748-.748V-7.964c0-.484-.176-.66-.748-.66h-3.168c-.7,0-.836.088-.836.748V-4C195.008-3.432,195.1-3.344,195.712-3.344Z" transform="translate(215.776 34.716)" fill="#fff"/></svg>