<svg xmlns="http://www.w3.org/2000/svg" xmlns:xlink="http://www.w3.org/1999/xlink" width="259" height="784" viewBox="0 0 259 784"><defs><clipPath id="a"><rect width="259" height="784" transform="translate(1661 868)" fill="#fff" stroke="#707070" stroke-width="1"/></clipPath><clipPath id="b"><rect width="274" height="760.539" fill="none"/></clipPath><clipPath id="c"><rect width="354.202" height="678.806" fill="none"/></clipPath></defs><g transform="translate(-1661 -868)" clip-path="url(#a)"><g transform="translate(1.469)"><g transform="translate(1666.43 868)"><rect width="353" height="784" transform="translate(13.57)" fill="#fff"/><path d="M14,14V770H339V14H14M0,0H353V784H0Z" transform="translate(13.57)" fill="#413e37"/><g transform="translate(16.57 13.267)" clip-path="url(#b)"><g transform="translate(-259.253 -910.267)"><path d="M-8531.747-4445.733v976.539" transform="translate(8793 5356)" fill="none" stroke="#413e37" stroke-width="4"/></g><g transform="translate(-175.253 -910.267)"><path d="M-8531.747-4445.733v976.539" transform="translate(8793 5356)" fill="none" stroke="#413e37" stroke-width="4"/></g><g transform="translate(-91.253 -910.267)"><path d="M-8531.747-4445.733v976.539" transform="translate(8793 5356)" fill="none" stroke="#413e37" stroke-width="4"/></g><g transform="translate(-7.253 -910.267)"><path d="M-8531.747-4445.733v976.539" transform="translate(8793 5356)" fill="none" stroke="#413e37" stroke-width="4"/></g></g><g transform="translate(23 95)" clip-path="url(#c)"><g transform="translate(32.57 -978.667)"><path d="M-8474.368-4375.333h-354.2" transform="translate(8796 5356)" fill="none" stroke="#413e37" stroke-width="4"/></g><g transform="translate(32.57 -894.667)"><path d="M-8474.368-4375.333h-354.2" transform="translate(8796 5356)" fill="none" stroke="#413e37" stroke-width="4"/></g><g transform="translate(32.57 -810.667)"><path d="M-8474.368-4375.333h-354.2" transform="translate(8796 5356)" fill="none" stroke="#413e37" stroke-width="4"/></g><g transform="translate(32.57 -726.667)"><path d="M-8474.368-4375.333h-354.2" transform="translate(8796 5356)" fill="none" stroke="#413e37" stroke-width="4"/></g><g transform="translate(32.57 -642.667)"><path d="M-8474.368-4375.333h-354.2" transform="translate(8796 5356)" fill="none" stroke="#413e37" stroke-width="4"/></g><g transform="translate(32.57 -558.667)"><path d="M-8474.368-4375.333h-354.2" transform="translate(8796 5356)" fill="none" stroke="#413e37" stroke-width="4"/></g><g transform="translate(32.57 -474.667)"><path d="M-8474.368-4375.333h-354.2" transform="translate(8796 5356)" fill="none" stroke="#413e37" stroke-width="4"/></g><g transform="translate(32.57 -390.667)"><path d="M-8474.368-4375.333h-354.2" transform="translate(8796 5356)" fill="none" stroke="#413e37" stroke-width="4"/></g><g transform="translate(32.57 -306.667)"><path d="M-8474.368-4375.333h-354.2" transform="translate(8796 5356)" fill="none" stroke="#413e37" stroke-width="4"/></g></g></g><rect width="20" height="784" transform="translate(1660 868)" fill="#413e37"/></g></g></svg>