<svg xmlns="http://www.w3.org/2000/svg" xmlns:xlink="http://www.w3.org/1999/xlink" width="149.693" height="191.765" viewBox="0 0 149.693 191.765"><defs><clipPath id="a"><rect width="149.693" height="191.765" fill="none"/></clipPath></defs><g clip-path="url(#a)"><path d="M38.734,78.469s1.8,7.825,5.506,12.873a27.85,27.85,0,0,0,8.283,6.9l11.321,4.694a17.709,17.709,0,0,0,9.75,3.233c12.869,0,20.069-15.935,21.658-25.57,1.07-6.494.771-12.918,1.058-19.392.341-7.7.427-15.222-2.143-22.62-2.7-7.769-9.664-17.769-18.618-18.231-7.748-.4-15.21,4.991-20.816,9.687C44.516,38.605,43.694,46.921,41.2,55.172a68.112,68.112,0,0,0-2.469,23.3" transform="translate(23.013 -4.417)" fill="#fff"/><path d="M97.554,1.778c-2.143,7.763,3.751,15.148,6.818,22.595a33.824,33.824,0,0,1-.487,26.554,51.823,51.823,0,0,0-3.1-15.8c-1.267-3.466-3.391-7.2-7.01-7.917-2.094-.417-4.223.291-6.3.777a30.853,30.853,0,0,1-8.827.759,8.441,8.441,0,0,0-2.745.1c-2.464.682-3.509,3.547-5.4,5.269C66.87,37.425,60.941,35.97,56.514,38.1,52.625,39.975,50.563,44.27,49.3,48.4c-.927,3.028-.762,12.518-3.014,14.326,1.6-1.285-3.238-7.035-4.554-7.351-2.661-.639-5.888,2.727-4.357,5.366-3.109-4.246-2.608-10.043-1.966-15.267C36.843,33.779,37.7,21.58,48.069,14,56.6,7.767,69.616,9.66,79.4,9.457c6.617-.139,14.358-1.613,18.158-7.679" transform="translate(15.502 -0.386)" fill="#ffdebe"/><path d="M148.792,223.056s-3.041-32.225-9.128-44.78c-4.418-9.112-23.746-15.738-23.746-15.738l-62.676-12.7-6.352,2.209s-22.2,2.078-27.917,9.387c-9.94,12.7-17.38,61.623-17.38,61.623Z" transform="translate(-0.346 -32.54)" fill="#ffdebe"/><path d="M98.378,120.577s-1.933,22.4-1.1,24.328a10.048,10.048,0,0,0,2.485,3.313l7.731,4.418-7.455,6.35-50.8-18.5,10.657-4.454c2.456-4.458,3.7-15.687,3.7-29.247Z" transform="translate(3.664 -23.191)" fill="#fff"/><path d="M63.37,93.044a1.5,1.5,0,1,0,1.5-1.5,1.5,1.5,0,0,0-1.5,1.5" transform="translate(33.719 -19.881)" fill="#1a1311"/><path d="M105.309,138.553a1.595,1.595,0,0,1-1.4-2.364c.981-1.781,1.9-5.853,2.585-11.467a124.793,124.793,0,0,0,.917-13.683,1.595,1.595,0,0,1,3.189,0c0,6.625-1.177,21.749-3.9,26.688A1.594,1.594,0,0,1,105.309,138.553Z" transform="translate(-41.757 -24.114)" fill="#1a1311"/><path d="M48.52,118.917a27.65,27.65,0,0,1-10.4-2.043,1.595,1.595,0,0,1,1.307-2.909,24.862,24.862,0,0,0,9.1,1.763c6.487,0,11.057-4.616,13.75-8.487A41.169,41.169,0,0,0,68.6,91.494,95.842,95.842,0,0,0,69.5,71.8a1.594,1.594,0,0,1,3.18-.234,97.467,97.467,0,0,1-.93,20.448,43.262,43.262,0,0,1-2.33,8.375,41.137,41.137,0,0,1-4.533,8.674C60.405,115.509,54.745,118.917,48.52,118.917Z" transform="translate(48.087 -15.567)" fill="#1a1311"/><path transform="translate(32.944 -22.235)" fill="#1a1311"/><path d="M85.212,72.184a1.93,1.93,0,1,0,1.93-1.931,1.931,1.931,0,0,0-1.93,1.931" transform="translate(-6.086 -15.257)" fill="#1a1311"/><path d="M52.387,72.184a1.93,1.93,0,1,0,1.93-1.931,1.931,1.931,0,0,0-1.93,1.931" transform="translate(52.435 -15.257)" fill="#1a1311"/><path d="M108.516,116.631a1.587,1.587,0,0,1-.87-.26,38.379,38.379,0,0,1-8.7-7.96c-3.852-5.252-5.7-13.125-5.774-13.458a1.594,1.594,0,1,1,3.108-.716c.017.075,1.779,7.572,5.238,12.288a35.58,35.58,0,0,0,7.869,7.176,1.595,1.595,0,0,1-.873,2.93Z" transform="translate(-32.982 -20.543)" fill="#1a1311"/><path d="M60.777,155.116a11.706,11.706,0,0,1-2.929-3.91c-.221-.516-.411-1.39-.3-4.264.058-1.574.2-3.616.424-6.069.378-4.153.863-8.121.868-8.161A1.595,1.595,0,0,1,62,133.1c0,.038-.466,3.807-.835,7.818-.671,7.293-.439,8.8-.372,9.063a8.527,8.527,0,0,0,2.03,2.687l0,0Z" transform="translate(41.624 -28.863)" fill="#1a1311"/><path d="M105.866,169.931a1.593,1.593,0,0,1-.545-.1l-50.8-18.5a1.595,1.595,0,0,1,1.091-3l49.932,18.182,2.182-1.86a1.595,1.595,0,0,1,2.068,2.427L106.9,169.55A1.594,1.594,0,0,1,105.866,169.931Z" transform="translate(-2.167 -32.54)" fill="#1a1311"/><path d="M131.765,225.264a1.6,1.6,0,0,1-1.578-1.834c.019-.123,1.9-12.444,4.982-26.158,4.169-18.57,8.448-30.752,12.717-36.207,2.6-3.327,8.324-6.021,17-8.006a102.848,102.848,0,0,1,12.021-1.986,1.594,1.594,0,0,1,.3,3.175,101.583,101.583,0,0,0-11.64,1.927,54.973,54.973,0,0,0-9.044,2.8c-2.931,1.244-4.993,2.609-6.127,4.059-3.918,5.006-8.107,17.082-12.113,34.923-3.056,13.607-4.927,25.835-4.945,25.957A1.6,1.6,0,0,1,131.765,225.264Z" transform="translate(-130.514 -33.153)" fill="#1a1311"/><path d="M34.466,228.174a1.6,1.6,0,0,1-1.586-1.445c-.008-.08-.775-8.132-2.271-17.6-1.965-12.432-4.283-21.642-6.7-26.634-4.077-8.407-22.641-14.861-22.828-14.925a1.594,1.594,0,0,1,1.035-3.016A84.807,84.807,0,0,1,12.545,169.1C20,172.97,24.789,177.009,26.774,181.1c2.593,5.349,4.944,14.616,6.987,27.545,1.511,9.564,2.286,17.7,2.294,17.781a1.594,1.594,0,0,1-1.438,1.737Q34.541,228.174,34.466,228.174Z" transform="translate(113.978 -36.063)" fill="#1a1311"/><path d="M0,21.8a1.6,1.6,0,0,1-.259-.021,1.594,1.594,0,0,1-1.317-1.83L1.724-.257a1.594,1.594,0,0,1,1.83-1.317A1.594,1.594,0,0,1,4.871.257l-3.3,20.206A1.6,1.6,0,0,1,0,21.8Z" transform="translate(47.665 170.31)" fill="#1a1311"/><path d="M3.88,29.809A1.6,1.6,0,0,1,2.3,28.431L-1.58.217A1.594,1.594,0,0,1-.217-1.58,1.594,1.594,0,0,1,1.58-.217L5.462,28A1.6,1.6,0,0,1,3.88,29.809Z" transform="translate(134.899 162.303)" fill="#1a1311"/><path d="M48.166,63.76a1.595,1.595,0,0,1-.83-2.957,9.522,9.522,0,0,1,9.29-.251,1.594,1.594,0,1,1-1.508,2.81,6.363,6.363,0,0,0-6.125.165A1.587,1.587,0,0,1,48.166,63.76Z" transform="translate(56.117 -13.26)" fill="#1a1311"/><path d="M90.412,63.76a1.587,1.587,0,0,1-.827-.233,6.363,6.363,0,0,0-6.125-.165,1.594,1.594,0,1,1-1.508-2.81,9.522,9.522,0,0,1,9.29.251,1.595,1.595,0,0,1-.83,2.957Z" transform="translate(-5.465 -13.26)" fill="#1a1311"/><path d="M41.456,63.577q-.078,0-.158-.008a1.594,1.594,0,0,1-1.431-1.743,37.636,37.636,0,0,0-3.223-16.769A1.594,1.594,0,1,1,39.5,43.631a36.622,36.622,0,0,1,3.061,10.145,36.132,36.132,0,0,1,.484,8.363A1.6,1.6,0,0,1,41.456,63.577Z" transform="translate(78.364 -9.63)" fill="#1a1311"/><path d="M117.629,70.677a3.265,3.265,0,0,0-5.48-.659c-1.168,1.5-1.477,7.792-1.03,9.377.89,3.161,6.109,8.2,9.067,9.6L121.3,75.56Z" transform="translate(-58.438 -14.942)" fill="#fff"/><path d="M121.6,90.59a1.588,1.588,0,0,1-.68-.153,22.594,22.594,0,0,1-5.768-4.467c-1.271-1.3-3.5-3.834-4.152-6.143a18.841,18.841,0,0,1-.144-5.29c.232-2.712.721-4.563,1.453-5.5a4.646,4.646,0,0,1,4.163-1.8,5.006,5.006,0,0,1,3.99,2.715,1.594,1.594,0,1,1-2.834,1.462,1.855,1.855,0,0,0-1.453-1,1.5,1.5,0,0,0-1.353.593,10.667,10.667,0,0,0-.792,3.842,16.552,16.552,0,0,0,.039,4.121c.724,2.571,5.514,7.315,8.214,8.592a1.595,1.595,0,0,1-.683,3.036Z" transform="translate(-59.858 -14.942)" fill="#1a1311"/><path d="M108.876,76.408a1.6,1.6,0,0,1-1.579-1.391,17.663,17.663,0,0,1,1.872-10.395,1.595,1.595,0,1,1,2.822,1.485,14.446,14.446,0,0,0-1.531,8.5,1.6,1.6,0,0,1-1.378,1.785A1.611,1.611,0,0,1,108.876,76.408Z" transform="translate(-46.02 -14.195)" fill="#1a1311"/><path d="M102.24,224a1.6,1.6,0,0,1-1.493-1.035,236.029,236.029,0,0,0-11.694-25.012c-7.091-13.3-18.9-32.77-34.876-50.025a1.595,1.595,0,1,1,2.34-2.167,220.223,220.223,0,0,1,20.633,26.2,274.28,274.28,0,0,1,14.744,24.539,239.07,239.07,0,0,1,11.839,25.342A1.6,1.6,0,0,1,102.24,224Z" transform="translate(4.126 -31.89)" fill="#1a1311"/><path d="M51.237,227.231q-.05,0-.1,0a1.6,1.6,0,0,1-1.492-1.69,252.036,252.036,0,0,0-.01-25.881c-.975-17.987-3.992-30.772-8.724-36.972a1.595,1.595,0,0,1,2.535-1.935c2.9,3.794,5.181,9.612,6.795,17.292a144.155,144.155,0,0,1,2.58,21.474,255.449,255.449,0,0,1,.007,26.221A1.6,1.6,0,0,1,51.237,227.231Z" transform="translate(65.109 -35.12)" fill="#1a1311"/><path d="M45.887,19.141a1.6,1.6,0,0,1-1.4-2.36,15.677,15.677,0,0,1,7.188-6.531A27.366,27.366,0,0,1,61.045,7.8c2.622-.234,5.267-.218,7.825-.2a57.335,57.335,0,0,0,10.082-.52A28.33,28.33,0,0,0,92.819.4a1.594,1.594,0,0,1,2.12,2.382,31.155,31.155,0,0,1-7.206,4.793,31.14,31.14,0,0,1-8.242,2.64,60.6,60.6,0,0,1-10.64.566c-2.483-.015-5.051-.031-7.521.19-3.171.284-10.888,1.567-14.042,7.336A1.594,1.594,0,0,1,45.887,19.141Z" transform="translate(19.892 -0.346)" fill="#1a1311"/><path d="M91.811,45.337q-.626,0-1.255-.039a15.935,15.935,0,0,1-7.319-2.314,11.386,11.386,0,0,1-4.905-5.959A1.594,1.594,0,1,1,81.352,36c1.31,3.871,5.794,5.882,9.406,6.113,4.335.276,8.637-1.2,12.8-2.622a1.595,1.595,0,0,1,1.033,3.017C100.7,43.843,96.334,45.337,91.811,45.337Z" transform="translate(-16.882 -7.93)" fill="#1a1311"/><path d="M59.9,28.083a24.8,24.8,0,0,1-6.086-.748,1.595,1.595,0,0,1,.782-3.092C65.008,26.879,77.171,21.1,81.705,11.36A1.594,1.594,0,1,1,84.6,12.706a26.693,26.693,0,0,1-12.858,12.65A27.671,27.671,0,0,1,59.9,28.083Z" transform="translate(24.112 -2.613)" fill="#1a1311"/><path d="M51.582,34.92a8.593,8.593,0,0,1-2.343-.321,1.595,1.595,0,0,1,.869-3.068,6.708,6.708,0,0,0,8.028-5.3,1.595,1.595,0,1,1,3.163.406,9.461,9.461,0,0,1-4.3,6.6A9.872,9.872,0,0,1,51.582,34.92Z" transform="translate(51.091 -5.74)" fill="#1a1311"/><path d="M40.584,46.09a1.6,1.6,0,0,1-1.579-1.83,29.013,29.013,0,0,0-5.2-21.188A1.594,1.594,0,0,1,36.389,21.2a32.337,32.337,0,0,1,5.771,23.535A1.6,1.6,0,0,1,40.584,46.09Z" transform="translate(81.312 -4.807)" fill="#1a1311"/><path d="M121.915,57.887a1.593,1.593,0,0,1-1.342-.731c-2.524-3.92-5.135-7.973-6.452-12.673a20.338,20.338,0,0,1-.695-7.472,14.555,14.555,0,0,1,2.594-7.127,1.595,1.595,0,0,1,2.589,1.862c-2.139,2.973-2.669,7.412-1.418,11.875,1.188,4.238,3.666,8.086,6.062,11.807a1.595,1.595,0,0,1-1.339,2.458Z" transform="translate(-62.189 -6.692)" fill="#1a1311"/><path d="M126.67,69.093a1.6,1.6,0,0,1-1.525-1.131,30.693,30.693,0,0,1-.006-17.723,1.595,1.595,0,0,1,3.052.926,27.59,27.59,0,0,0,.005,15.87,1.6,1.6,0,0,1-1.526,2.059Z" transform="translate(-75.168 -11.011)" fill="#1a1311"/></g></svg>