<svg xmlns="http://www.w3.org/2000/svg" xmlns:xlink="http://www.w3.org/1999/xlink" width="146.712" height="189.765" viewBox="0 0 146.712 189.765"><defs><clipPath id="a"><rect width="146.712" height="189.765" fill="none"/></clipPath></defs><g clip-path="url(#a)"><path d="M115.015,73.009a3.2,3.2,0,0,0-5.371-.646c-1.145,1.465-1.448,7.636-1.01,9.19.872,3.1,5.988,8.039,8.886,9.409l2.992-17.581Z" transform="translate(-57.004 -16.566)" fill="#fff"/><path d="M37.532,79.775s1.768,7.669,5.4,12.617a27.3,27.3,0,0,0,8.118,6.766l11.1,4.6a17.356,17.356,0,0,0,9.556,3.169c12.613,0,19.67-15.617,21.227-25.064a150.831,150.831,0,0,0,1.842-33.62c-.434-5.915-2.02-11.872-5.474-16.693-10.029-14-25.227-8.326-36.08.767C43.2,40.705,42.393,48.855,39.952,56.942a66.756,66.756,0,0,0-2.42,22.833" transform="translate(22.984 -5.379)" fill="#fff"/><path d="M86.206,3.794c2.727.421,4.095,3.6,6.555,4.855A30.248,30.248,0,0,0,96.3,9.77a7.862,7.862,0,0,1,5.034,7.59c-.121,2.293-1.267,4.47-1.179,6.764.126,3.258,2.678,5.939,3.328,9.136.444,2.187-.035,4.448.02,6.679.074,3.038,1.138,5.988,1.192,9.026s-1.356,6.5-4.291,7.28c.263-7.378-.181-15.045-4.4-21.3-1.342-1.989-13.947-11.882-13.733-12.965-.517,2.618,1.359,7.537-.888,9.558a4.837,4.837,0,0,1-3.2.952,16.588,16.588,0,0,1-9.459-2.78c2.24,1.377.923,5.261-1.57,6.1s-5.176-.285-7.563-1.386a4.621,4.621,0,1,1-8.023,4.534c.252.536-.281,2.137-.394,2.718-.176.9-.394,1.791-.646,2.672-.483,1.7-1.089,3.352-1.724,4.995a54.47,54.47,0,0,0-3.167,9.563,19.792,19.792,0,0,0-.337,4.376,18.734,18.734,0,0,0,.247,2.388c.061.362.675,2.152-.272,1.6a6.47,6.47,0,0,1-2.587-3.537c-.635-2.352.133-5.856-2.013-7.561-3.291-2.615-5.9-1.5-6.979-6.776-1.607-7.823-.2-13.373,2.525-20.912,1.708-4.719,3.654-9.795,7.147-13.513C47.6,10.468,52.5,11.045,57.789,8.831c3.818-1.6,6.71-4.636,10.651-6.072a12.97,12.97,0,0,1,8.866-.5c1.6.518,2.719,1.676,4.439,1.963,1.461.242,2.957-.661,4.461-.429" transform="translate(16.684 -0.394)" fill="#474645"/><path d="M18.627,158.791c5.289-6.759,15.642-7.028,23.134-9.664a37.229,37.229,0,0,0,19.483-15.8,3.228,3.228,0,0,1,1.539-1.6c1.577-.52,4.808,2.58,6.017,3.513,2.091,1.612,3.973,3.485,6.13,5.014,3.409,2.418,6.922,4.687,10.541,6.777,2.386,1.379,5.122,4.038,8.01,4.178,3.408.164,5.512-3.473,7.646-5.6a.782.782,0,0,1,.47-.279c.307-.018.516.295.661.565,4.613,8.569,14.5,14.192,22.7,18.981,4.755,2.776,9.406,5.176,11.951,10.426,5.966,12.306,8.946,43.889,8.946,43.889H1.594s7.291-47.948,17.033-60.4" transform="translate(-0.371 -30.646)" fill="#ffdebe"/><path d="M60.782,127.565a146.313,146.313,0,0,0,1.008-18.408l34.1,13.516c.316.125-.558,7.073-.6,7.595-.288,3.973.964,8.419-.548,12.219a8.878,8.878,0,0,1-1.792,2.807c-2.654,2.808-4.12.846-6.6-.578-3.055-1.752-6.18-3.344-9.172-5.212q-4.3-2.687-8.4-5.689c-.987-.721-8.126-5.226-7.992-6.251" transform="translate(4.123 -25.407)" fill="#fff"/><path d="M63.37,95.384a1.468,1.468,0,1,0,1.468-1.468,1.468,1.468,0,0,0-1.468,1.468" transform="translate(31.785 -21.859)" fill="#1a1311"/><path d="M105.312,127.66a1.612,1.612,0,0,1-.182-.01,1.6,1.6,0,0,1-1.4-1.765,120.458,120.458,0,0,0,.789-12.476,1.595,1.595,0,0,1,3.189,0,123.862,123.862,0,0,1-.81,12.837A1.6,1.6,0,0,1,105.312,127.66Z" transform="translate(-40.196 -26.397)" fill="#1a1311"/><path d="M61.141,143.528a1.594,1.594,0,0,1,1.342.732l3.887,6.046a1.6,1.6,0,0,1,.226.568,36.214,36.214,0,0,1-.018,14.06,1.595,1.595,0,0,1-2.649.775l-9.775-9.326a1.589,1.589,0,0,1,.553-2.651,10.07,10.07,0,0,0,3.106-2.022,6.2,6.2,0,0,0,1.777-6.222,1.595,1.595,0,0,1,1.551-1.96Zm2.376,8.238-1.01-1.571a9.749,9.749,0,0,1-2.561,3.889,12.8,12.8,0,0,1-1.976,1.534l5.94,5.666A35.647,35.647,0,0,0,63.517,151.766Z" transform="translate(38.658 -33.778)" fill="#1a1311"/><path d="M74.738,130.006a1.594,1.594,0,0,1,1.161.5c5.232,5.563,25.267,17.723,30.618,20.12A1.594,1.594,0,0,1,107,153.2L94.731,165.6a1.594,1.594,0,0,1-2.207.057c-.057-.052-5.757-5.251-11.641-11.064-3.467-3.424-6.323-6.392-8.488-8.822-3.794-4.256-4.708-5.995-5.065-6.932a1.594,1.594,0,0,1,.3-1.626l5.919-6.673a1.6,1.6,0,0,1,1.17-.536Zm28.437,22.529c-3.359-1.752-8.63-4.848-13.644-8.037-4.024-2.56-10.882-7.094-14.71-10.589l-4.093,4.614a37.728,37.728,0,0,0,4.044,5.125c2.12,2.378,4.927,5.3,8.345,8.671,4.291,4.238,8.484,8.15,10.429,9.947Z" transform="translate(-11.955 -30.631)" fill="#1a1311"/><path d="M48.326,120.378a27.135,27.135,0,0,1-10.21-2,1.594,1.594,0,0,1,1.306-2.909h0a24.327,24.327,0,0,0,8.9,1.725c6.344,0,10.816-4.516,13.45-8.3a40.316,40.316,0,0,0,6.2-15.42,93.9,93.9,0,0,0,.878-19.295,1.594,1.594,0,0,1,3.18-.234,95.561,95.561,0,0,1-.912,20.048A42.433,42.433,0,0,1,68.84,102.2a40.35,40.35,0,0,1-4.446,8.508C59.994,117.033,54.438,120.378,48.326,120.378Z" transform="translate(46.356 -17.236)" fill="#1a1311"/><path transform="translate(31.157 -24.383)" fill="#1a1311"/><path d="M85.212,74.516A1.892,1.892,0,1,0,87.1,72.623a1.893,1.893,0,0,0-1.892,1.893" transform="translate(-7.663 -16.903)" fill="#1a1311"/><path d="M52.387,74.516a1.892,1.892,0,1,0,1.892-1.893,1.893,1.893,0,0,0-1.892,1.893" transform="translate(50.347 -16.903)" fill="#1a1311"/><path d="M108.242,118.594a1.587,1.587,0,0,1-.87-.26,37.651,37.651,0,0,1-8.532-7.81c-3.779-5.153-5.589-12.875-5.664-13.2a1.594,1.594,0,0,1,3.108-.716c.017.073,1.742,7.415,5.128,12.032a34.836,34.836,0,0,0,7.7,7.026,1.595,1.595,0,0,1-.873,2.93Z" transform="translate(-34.212 -22.569)" fill="#1a1311"/><path d="M60.872,140.486a1.611,1.611,0,0,1-.173-.009,1.594,1.594,0,0,1-1.415-1.756c.227-2.106.413-3.624.415-3.639a1.595,1.595,0,0,1,3.165.39c0,.015-.185,1.51-.409,3.59A1.6,1.6,0,0,1,60.872,140.486Z" transform="translate(38.728 -31.486)" fill="#1a1311"/><path d="M121.964,224.038a1.6,1.6,0,0,1-1.578-1.834c.018-.12,1.866-12.2,4.884-25.64,4.087-18.206,8.283-30.149,12.47-35.5,4.455-5.69,11.488-7.392,18.29-9.037,6.12-1.48,12.447-3.011,16.692-7.472a1.594,1.594,0,1,1,2.31,2.2c-4.892,5.141-11.684,6.784-18.252,8.373s-12.757,3.086-16.528,7.9c-3.838,4.9-7.943,16.742-11.869,34.232-2.994,13.334-4.825,25.3-4.843,25.421A1.6,1.6,0,0,1,121.964,224.038Z" transform="translate(-120.739 -33.902)" fill="#1a1311"/><path d="M39.94,227.189a1.6,1.6,0,0,1-1.586-1.445c-.007-.079-.759-7.969-2.226-17.248-1.926-12.181-4.2-21.2-6.568-26.094-1.084-2.237-3.431-4.677-7.174-7.462-3.391-2.523-7.485-4.986-11.1-7.16C6.572,164.94,2.5,162.489.432,160.285A1.595,1.595,0,0,1,2.758,158.1c1.764,1.881,5.85,4.34,10.176,6.943,7.781,4.682,16.6,9.989,19.5,15.963,2.543,5.245,4.848,14.331,6.851,27.006,1.481,9.375,2.24,17.349,2.248,17.429a1.594,1.594,0,0,1-1.438,1.737C40.041,227.187,39.99,227.189,39.94,227.189Z" transform="translate(105.546 -37.053)" fill="#1a1311"/><path d="M0,21.4a1.6,1.6,0,0,1-.259-.021,1.594,1.594,0,0,1-1.317-1.83L1.658-.257a1.594,1.594,0,0,1,1.83-1.317A1.594,1.594,0,0,1,4.805.257l-3.232,19.8A1.6,1.6,0,0,1,0,21.4Z" transform="translate(46.715 168.737)" fill="#1a1311"/><path d="M3.8,29.247A1.6,1.6,0,0,1,2.225,27.87L-1.58.217A1.594,1.594,0,0,1-.217-1.58,1.6,1.6,0,0,1,1.58-.217l3.8,27.652A1.6,1.6,0,0,1,3.8,29.247Z" transform="translate(132.212 160.889)" fill="#1a1311"/><path d="M48.166,66.108a1.595,1.595,0,0,1-.83-2.957,9.364,9.364,0,0,1,9.137-.247,1.594,1.594,0,1,1-1.508,2.81,6.2,6.2,0,0,0-5.972.161A1.588,1.588,0,0,1,48.166,66.108Z" transform="translate(54.04 -14.763)" fill="#1a1311"/><path d="M90.259,66.108a1.587,1.587,0,0,1-.827-.233,6.2,6.2,0,0,0-5.972-.161,1.594,1.594,0,0,1-1.508-2.81,9.364,9.364,0,0,1,9.137.247,1.595,1.595,0,0,1-.83,2.957Z" transform="translate(-7.004 -14.763)" fill="#1a1311"/><path d="M123.295,62.861a1.6,1.6,0,0,1-1.447-.923c-1.669-3.593-3.747-8.064-3.136-12.761a23.321,23.321,0,0,1,3.111-8.008,24.24,24.24,0,0,0,2.622-6.078,1.594,1.594,0,1,1,3.113.692,26.983,26.983,0,0,1-2.929,6.9,20.64,20.64,0,0,0-2.754,6.9c-.492,3.78,1.37,7.786,2.866,11.005a1.6,1.6,0,0,1-1.445,2.267Z" transform="translate(-71.51 -8.248)" fill="#1a1311"/><path d="M39.253,67.745q-.078,0-.158-.008a1.6,1.6,0,0,1-1.431-1.743,22.239,22.239,0,0,0-1.151-9.515,1.594,1.594,0,1,1,3.007-1.061,25.449,25.449,0,0,1,1.318,10.888A1.6,1.6,0,0,1,39.253,67.745Z" transform="translate(78.179 -13.022)" fill="#1a1311"/><path d="M121.42,92.558a1.588,1.588,0,0,1-.68-.153,22.177,22.177,0,0,1-5.663-4.385c-1.248-1.279-3.438-3.765-4.077-6.034a18.493,18.493,0,0,1-.143-5.2c.228-2.665.709-4.484,1.431-5.408A4.584,4.584,0,0,1,116.4,69.6a4.938,4.938,0,0,1,3.937,2.678A1.594,1.594,0,1,1,117.5,73.74a1.787,1.787,0,0,0-1.4-.964,1.414,1.414,0,0,0-1.3.568,10.52,10.52,0,0,0-.77,3.758,16.181,16.181,0,0,0,.038,4.018c.708,2.513,5.392,7.152,8.033,8.4a1.595,1.595,0,0,1-.683,3.036Z" transform="translate(-60.904 -16.566)" fill="#1a1311"/><path d="M108.874,78.59a1.6,1.6,0,0,1-1.579-1.391,17.343,17.343,0,0,1,1.838-10.206,1.595,1.595,0,1,1,2.822,1.485,14.126,14.126,0,0,0-1.5,8.313,1.6,1.6,0,0,1-1.378,1.785A1.611,1.611,0,0,1,108.874,78.59Z" transform="translate(-47.27 -15.766)" fill="#1a1311"/><path d="M2.659-1.595A4.254,4.254,0,1,1-1.595,2.659,4.259,4.259,0,0,1,2.659-1.595Zm0,5.319A1.065,1.065,0,1,0,1.594,2.659,1.066,1.066,0,0,0,2.659,3.724Z" transform="translate(93.467 137.062)" fill="#1a1311"/><path d="M56.622,206.022a4.254,4.254,0,1,1-4.255,4.254A4.259,4.259,0,0,1,56.622,206.022Zm0,5.319a1.065,1.065,0,1,0-1.066-1.065A1.066,1.066,0,0,0,56.622,211.34Z" transform="translate(46.028 -48.324)" fill="#1a1311"/><path d="M57.19,230.228a1.6,1.6,0,0,1-1.578-1.378c-.017-.121-1.7-12.312-4.548-26.566a173.845,173.845,0,0,0-8.7-29.421,1.595,1.595,0,0,1,2.942-1.231c.057.135,1.408,3.377,3.189,8.718a181.566,181.566,0,0,1,5.7,21.309c2.871,14.354,4.564,26.636,4.581,26.759a1.594,1.594,0,0,1-1.363,1.8A1.611,1.611,0,0,1,57.19,230.228Z" transform="translate(55.89 -40.091)" fill="#1a1311"/><path d="M73.108,230.228a1.6,1.6,0,0,1-1.578-1.378c-.017-.121-1.7-12.312-4.548-26.566a174.116,174.116,0,0,0-8.7-29.421,1.594,1.594,0,0,1,2.942-1.231c.057.135,1.408,3.377,3.189,8.718a181.566,181.566,0,0,1,5.7,21.309c2.871,14.354,4.564,26.636,4.581,26.759a1.6,1.6,0,0,1-1.363,1.8A1.611,1.611,0,0,1,73.108,230.228Z" transform="translate(27.759 -40.091)" fill="#1a1311"/><path d="M39.778,29.905a9.242,9.242,0,0,1-2.625-.376,1.595,1.595,0,1,1,.905-3.058A6.966,6.966,0,0,0,46.114,22.7a6.966,6.966,0,0,0-2.791-8.447,1.594,1.594,0,0,1,1.6-2.758,9.844,9.844,0,0,1,4.339,5.48,9.843,9.843,0,0,1-.22,6.986,9.843,9.843,0,0,1-4.926,4.959A10.241,10.241,0,0,1,39.778,29.905Z" transform="translate(69.661 -2.996)" fill="#1a1311"/><path d="M49.994,24.284a9.65,9.65,0,0,1-1.788-.165,1.595,1.595,0,0,1,.59-3.134A7.606,7.606,0,0,0,54.64,19.5a7.606,7.606,0,0,0,3.16-5.135,7.606,7.606,0,0,0-1.894-5.725,7.606,7.606,0,0,0-5.344-2.793,1.594,1.594,0,0,1,.147-3.186,10.8,10.8,0,0,1,7.627,3.913,10.8,10.8,0,0,1,2.632,8.159,10.8,10.8,0,0,1-4.438,7.335A11.11,11.11,0,0,1,49.994,24.284Z" transform="translate(50.061 -0.989)" fill="#1a1311"/><path d="M73.065,17.8a1.595,1.595,0,0,1-1-2.835A6.689,6.689,0,0,0,74.387,10.4a6.69,6.69,0,0,0-1.393-4.932,7.03,7.03,0,0,0-9.512-.782A1.594,1.594,0,0,1,61.4,2.269,10.21,10.21,0,0,1,75.442,3.423,9.893,9.893,0,0,1,77.56,10.71a9.891,9.891,0,0,1-3.494,6.735A1.588,1.588,0,0,1,73.065,17.8Z" transform="translate(22.787 -0.371)" fill="#1a1311"/><path d="M75.755,39.081q-.194,0-.387-.005A14.291,14.291,0,0,1,61.519,24.088a1.595,1.595,0,0,1,3.184.179,11.048,11.048,0,0,0,16.4,10.273,1.595,1.595,0,0,1,1.551,2.787A14.19,14.19,0,0,1,75.755,39.081Z" transform="translate(16.422 -5.627)" fill="#1a1311"/><path d="M91.008,44.731a7.36,7.36,0,0,1-3.113-.708,9.451,9.451,0,0,1-5.212-7.085,7.153,7.153,0,0,1,.878-4.6,1.595,1.595,0,0,1,2.754,1.608c-1.053,1.8-.3,3.979.669,5.293s2.817,2.682,4.853,2.214a1.595,1.595,0,0,1,.715,3.108A6.878,6.878,0,0,1,91.008,44.731Z" transform="translate(-10.089 -7.713)" fill="#1a1311"/><path d="M100.513,52.17a7.7,7.7,0,0,1-5.4-2.381A7.268,7.268,0,0,1,93.1,42.337a1.595,1.595,0,1,1,3.015,1.04,4.622,4.622,0,0,0,5.415,5.439,1.595,1.595,0,0,1,1.026,3.019A6.345,6.345,0,0,1,100.513,52.17Z" transform="translate(-27.725 -9.975)" fill="#1a1311"/><path d="M36.861,60.663a1.595,1.595,0,0,1-1.254-2.578c.642-.82.172-2.392-.06-3.03-.115-.316-.243-.635-.379-.972a10.369,10.369,0,0,1-1.012-4.17,10.338,10.338,0,0,1,.389-2.3c.055-.219.108-.426.153-.63a11.475,11.475,0,0,0-3.07-10.456,1.594,1.594,0,1,1,2.241-2.269,14.673,14.673,0,0,1,3.941,13.423c-.055.245-.115.483-.173.712a7.7,7.7,0,0,0-.293,1.6,7.765,7.765,0,0,0,.782,2.9c.14.348.285.707.419,1.075a8.827,8.827,0,0,1,.575,2.9,4.943,4.943,0,0,1-1,3.188A1.592,1.592,0,0,1,36.861,60.663Z" transform="translate(84.061 -8.239)" fill="#1a1311"/><path d="M90.47,26.647q-.069,0-.138-.006a1.594,1.594,0,0,1-1.452-1.725A14.313,14.313,0,0,1,95.76,13.983a26.254,26.254,0,0,1,5.146-2.147l10.949-3.667a1.595,1.595,0,1,1,1.013,3.024L101.919,14.86a23.862,23.862,0,0,0-4.537,1.869,11.075,11.075,0,0,0-5.325,8.459A1.6,1.6,0,0,1,90.47,26.647Z" transform="translate(-35.061 -2.253)" fill="#1a1311"/><path d="M115.111,59.241q-.058,0-.117,0a9.695,9.695,0,0,1-8.7-8.431,1.594,1.594,0,1,1,3.172-.332,6.489,6.489,0,0,0,5.764,5.583,1.595,1.595,0,0,1-.114,3.185Z" transform="translate(-51.164 -11.787)" fill="#1a1311"/></g></svg>