<svg xmlns="http://www.w3.org/2000/svg" xmlns:xlink="http://www.w3.org/1999/xlink" width="146.712" height="188.543" viewBox="0 0 146.712 188.543"><defs><clipPath id="a"><rect width="146.712" height="188.543" fill="none"/></clipPath></defs><g clip-path="url(#a)"><path d="M127.92,143.1c-5.867-7.5-21.806-9.629-21.806-9.629L99.6,131.2l-10.931-4.567c-2.519-4.573-3.795-16.091-3.795-30L49.189,110.782s1.982,22.971,1.133,24.953a10.3,10.3,0,0,1-2.549,3.4l-7.929,4.531-4.532.567s-19.824,6.8-24.355,16.143C4.713,173.252,1.594,206.3,1.594,206.3h144.15s-7.63-50.179-17.825-63.207" transform="translate(-0.314 -19.042)" fill="#fff"/><path d="M127.92,148.632c-5.867-7.5-21.806-9.629-21.806-9.629L99.6,136.737l-7.472-3.062c-.79-1.435-.488-6.292-1.033-8.954-19.724,8.531-33.655,14.622-39.019,13.256-2.937-.748-5.9-2.689-6.093-2.236-.85,1.982-.076,8.93-.076,8.93L39.843,149.2l-4.532.567s-19.824,6.8-24.355,16.143c-6.243,12.878-9.362,45.931-9.362,45.931h144.15s-7.63-50.179-17.825-63.207" transform="translate(-0.314 -24.576)" fill="#ffdebe"/><path d="M130.987,49.279c2-1.18,4.75-.17,6.147,1.691a11.037,11.037,0,0,1,1.734,6.637,12.475,12.475,0,0,1-.824,5.061,5.774,5.774,0,0,1-3.657,3.393c-.829.213-1.7.185-2.54.359a24.583,24.583,0,0,0-4.084,1.752c-1.375.56-3.11.731-4.211-.266,2.019-3.439-.337-7.723-.411-11.71-.027-1.493.67-11.367,1.483-12.194,2.585-2.627,6.635,2.709,6.364,5.277" transform="translate(-24.265 -8.531)" fill="#ffdebe"/><path d="M97.846,69.257S96,77.283,92.2,82.461a28.566,28.566,0,0,1-8.5,7.08L72.092,94.356a31.352,31.352,0,0,1-10.229,1.773c-13.2,0-20.357-14.8-21.986-24.683a99.38,99.38,0,0,1-.936-20.586l2.848-17.675C43.95,24.962,48.06,14.362,56.77,10.461c0,0,13.977-9.413,30.71,4.606,10.478,8.779,7.639,21.045,10.2,29.508,3.657,12.112.172,24.682.172,24.682" transform="translate(-7.64 -1.452)" fill="#fff"/><path d="M53.994,7.82C60.4,3.115,68.751,2.18,76.68,1.59a27.323,27.323,0,0,1,7.861.2A19.839,19.839,0,0,1,91.815,5.3c13.251,9.6,17.756,27.991,14.923,44.108-1.608-5.06-6.308.483-8.5.349-3.315-.2-4.973-4.421-6.187-7.172a53.75,53.75,0,0,1-2.114-6.027,14.155,14.155,0,0,0-.744-2.436c-.452-.866-.915-1.726-1.355-2.6a30.609,30.609,0,0,0-4.065-6.2,20.56,20.56,0,0,0-4.2-3.758,9.474,9.474,0,0,0-5.076-1.449A15.148,15.148,0,0,0,69,20.856c-.427.143-4.977,2.307-4.683,2.7-2.806-3.731-8.592-4.016-12.74-1.874-9.365,4.835-14.339,18.58-13.966,28.62-.08-2.16-1.057-4.176-1.516-6.288-1.405-6.463,2.209-14,4.43-19.917C42.934,17.685,48.571,11.8,53.994,7.82" transform="translate(-7.051 -0.277)" fill="#ffdebe"/><path d="M66.443,82.933A1.536,1.536,0,1,1,64.906,81.4a1.537,1.537,0,0,1,1.537,1.537" transform="translate(-12.487 -16.039)" fill="#1a1311"/><path d="M107.034,121.906a1.6,1.6,0,0,1-1.567-1.31,127.064,127.064,0,0,1-1.751-19.706,1.594,1.594,0,1,1,3.189,0,123.4,123.4,0,0,0,1.7,19.137,1.6,1.6,0,0,1-1.571,1.879Z" transform="translate(-20.751 -19.88)" fill="#1a1311"/><path d="M114.2,60.575a3.349,3.349,0,0,1,5.621-.676c1.2,1.534,1.515,7.992,1.057,9.618-.913,3.242-6.266,8.413-9.3,9.847l-3.132-18.4Z" transform="translate(-21.369 -11.558)" fill="#fff"/><path d="M112.344,80.959a1.595,1.595,0,0,1-.683-3.036c2.776-1.312,7.7-6.193,8.446-8.838a17.026,17.026,0,0,0,.041-4.254,10.852,10.852,0,0,0-.82-3.95,1.572,1.572,0,0,0-1.423-.623,1.945,1.945,0,0,0-1.524,1.049,1.594,1.594,0,1,1-2.834-1.462,5.094,5.094,0,0,1,4.061-2.762,4.725,4.725,0,0,1,4.234,1.836c.746.955,1.244,2.845,1.481,5.619a19.286,19.286,0,0,1-.147,5.412c-.664,2.359-2.947,4.949-4.248,6.283a23.134,23.134,0,0,1-5.9,4.574A1.588,1.588,0,0,1,112.344,80.959Z" transform="translate(-22.137 -11.558)" fill="#1a1311"/><path d="M61.862,108.4c-6.387,0-12.132-3.21-16.615-9.283a37.392,37.392,0,0,1-4.586-8.379A41.007,41.007,0,0,1,38.3,82.377a99.918,99.918,0,0,1-.954-20.962,1.595,1.595,0,1,1,3.18.234,98.545,98.545,0,0,0,.92,20.21,37.253,37.253,0,0,0,6.363,15.36c2.69,3.644,7.31,7.988,14.049,7.988a29.817,29.817,0,0,0,9.652-1.665,1.595,1.595,0,0,1,1.155,2.973A32.774,32.774,0,0,1,61.862,108.4Z" transform="translate(-7.64 -12.125)" fill="#1a1311"/><path transform="translate(-11.185 -18.175)" fill="#1a1311"/><path d="M48.938,49.252a1.595,1.595,0,0,1-1.072-2.776,8.375,8.375,0,0,1,8.214-1.7,1.595,1.595,0,0,1-1.028,3.019,5.212,5.212,0,0,0-5.044,1.045A1.589,1.589,0,0,1,48.938,49.252Z" transform="translate(-9.643 -9.053)" fill="#1a1311"/><path d="M93.455,51.391a1.589,1.589,0,0,1-1.071-.414,5.211,5.211,0,0,0-5.044-1.044,1.595,1.595,0,0,1-1.028-3.019,8.374,8.374,0,0,1,8.215,1.7,1.595,1.595,0,0,1-1.072,2.775Z" transform="translate(-17.109 -9.475)" fill="#1a1311"/><path d="M89.172,62.084a1.98,1.98,0,1,1-1.98-1.981,1.981,1.981,0,0,1,1.98,1.981" transform="translate(-16.791 -11.843)" fill="#1a1311"/><path d="M56.347,62.084a1.98,1.98,0,1,1-1.98-1.981,1.981,1.981,0,0,1,1.98,1.981" transform="translate(-10.323 -11.843)" fill="#1a1311"/><path d="M94.73,106.324a1.595,1.595,0,0,1-.745-3.005h0a27.121,27.121,0,0,0,7.954-6.613c3.553-4.844,5.361-12.542,5.379-12.62a1.594,1.594,0,0,1,3.107.717c-.079.341-1.969,8.408-5.915,13.789a29.956,29.956,0,0,1-9.039,7.548A1.588,1.588,0,0,1,94.73,106.324Z" transform="translate(-18.666 -16.64)" fill="#1a1311"/><path d="M62.066,136.586a1.6,1.6,0,0,1-1.59-1.49c-.342-5.224-1.18-12.076-1.189-12.144a1.595,1.595,0,0,1,3.165-.389c.009.069.857,7.009,1.206,12.325a1.594,1.594,0,0,1-1.487,1.7C62.136,136.585,62.1,136.586,62.066,136.586Z" transform="translate(-11.995 -24.189)" fill="#1a1311"/><path d="M168.975,216.139a1.6,1.6,0,0,1-1.574-1.355c-.019-.125-1.938-12.668-5.073-26.626-4.111-18.305-8.409-30.7-12.432-35.837-1.186-1.516-3.493-3.1-6.857-4.723a81.4,81.4,0,0,0-10.4-4c-7.023-2.235-13.409-3.58-13.473-3.593a1.594,1.594,0,1,1,.653-3.121c.065.014,6.611,1.392,13.787,3.676a84.529,84.529,0,0,1,10.816,4.162c3.863,1.858,6.475,3.7,7.986,5.631,4.375,5.59,8.761,18.08,13.036,37.122,3.158,14.065,5.091,26.7,5.11,26.828a1.6,1.6,0,0,1-1.578,1.834Z" transform="translate(-23.546 -27.281)" fill="#1a1311"/><path d="M1.6,219.441q-.075,0-.152-.007A1.594,1.594,0,0,1,.007,217.7c.008-.083.8-8.427,2.352-18.235C4.454,186.2,6.864,176.7,9.522,171.22c2.046-4.221,7.739-8.466,16.92-12.617a117.383,117.383,0,0,1,12.94-4.923,1.595,1.595,0,0,1,.923,3.053h0a116.407,116.407,0,0,0-12.58,4.79c-8.346,3.777-13.648,7.611-15.334,11.088-2.484,5.124-4.863,14.574-6.88,27.33C3.976,209.654,3.189,217.914,3.181,218A1.6,1.6,0,0,1,1.6,219.441Z" transform="translate(-0.314 -30.584)" fill="#1a1311"/><path d="M3.38,22.32a1.6,1.6,0,0,1-1.572-1.338L-1.574.257A1.594,1.594,0,0,1-.257-1.574,1.594,1.594,0,0,1,1.574-.257L4.956,20.469A1.6,1.6,0,0,1,3.38,22.32Z" transform="translate(101.268 166.536)" fill="#1a1311"/><path d="M0,30.534a1.608,1.608,0,0,1-.219-.015,1.594,1.594,0,0,1-1.362-1.8L2.4-.217A1.6,1.6,0,0,1,4.2-1.58,1.594,1.594,0,0,1,5.561.217L1.58,29.156A1.6,1.6,0,0,1,0,30.534Z" transform="translate(11.192 158.324)" fill="#1a1311"/><path d="M35.5,45.946a1.594,1.594,0,0,1-1.594-1.57A47.651,47.651,0,0,1,46.316,12.135a34.827,34.827,0,0,1,14.668-9.9A46.7,46.7,0,0,1,78.555.067a35.715,35.715,0,0,1,11.6,2.256A17.228,17.228,0,0,1,99.2,9.779a1.595,1.595,0,0,1-2.782,1.558c-3.461-6.18-11.7-7.807-18-8.085C65.26,2.675,56.09,6.073,48.683,14.273a44.43,44.43,0,0,0-11.59,30.053,1.594,1.594,0,0,1-1.569,1.619Z" transform="translate(-6.994 -0.314)" fill="#1a1311"/><path d="M123.858,51.572A1.6,1.6,0,0,1,122.3,49.61a34.4,34.4,0,0,0-3.7-24.97,1.594,1.594,0,1,1,2.757-1.6,37.616,37.616,0,0,1,4.052,27.307A1.6,1.6,0,0,1,123.858,51.572Z" transform="translate(-23.642 -4.698)" fill="#1a1311"/><path d="M123.886,119.812a5.784,5.784,0,0,1-2.616-.651,7.564,7.564,0,0,1-3.835-4.847c-.8-3.317.415-6.684,1.3-9.142.842-2.333,1.8-4.977,1.276-7.338-.531-2.409-2.629-4.483-4.315-6.149a1.594,1.594,0,1,1,2.242-2.268c1.984,1.961,4.453,4.4,5.187,7.73.719,3.262-.451,6.5-1.391,9.107-.973,2.694-1.734,5.1-1.2,7.311a4.414,4.414,0,0,0,2.177,2.75,2.28,2.28,0,0,0,1.912.16,1.594,1.594,0,0,1,1.23,2.942A5.082,5.082,0,0,1,123.886,119.812Z" transform="translate(-23.019 -17.843)" fill="#1a1311"/><path d="M125.277,70.268a1.595,1.595,0,0,1-.012-3.189c3.027-.023,5.369-3.011,6.035-5.81.793-3.335,0-7.05-.694-10.327a11.4,11.4,0,0,0-1.465-3.832c-.924-1.381-1.722-1.315-2.022-1.291a1.594,1.594,0,0,1-.263-3.178,5.25,5.25,0,0,1,4.936,2.7,14.671,14.671,0,0,1,1.934,4.941c.767,3.606,1.637,7.694.677,11.728a11.846,11.846,0,0,1-3.148,5.629,8.647,8.647,0,0,1-5.965,2.632Z" transform="translate(-24.686 -8.713)" fill="#1a1311"/><path d="M137.78,68a1.595,1.595,0,0,1-1.461-2.232c1.093-2.509,2.223-5.1,2.335-7.75.091-2.174-.733-4.874-2.777-6.005a3.777,3.777,0,0,0-3.248-.062,2.522,2.522,0,0,0-1.506,1.632,1.595,1.595,0,1,1-3.1-.728,5.646,5.646,0,0,1,3.317-3.819,6.97,6.97,0,0,1,6.085.187,8.241,8.241,0,0,1,3.482,3.913,11.159,11.159,0,0,1,.937,5.016,18.657,18.657,0,0,1-1.273,5.684,1.593,1.593,0,0,1-.147,1.523L139.1,67.3A1.594,1.594,0,0,1,137.78,68Z" transform="translate(-25.532 -9.857)" fill="#1a1311"/><path d="M105.494,55.926a1.6,1.6,0,0,1-.378-.045,7.64,7.64,0,0,1-4.536-3.4,24.565,24.565,0,0,1-2.327-4.706A81.848,81.848,0,0,0,93.3,37.588c-2.082-3.614-5.028-8.06-9.37-10.382-3.559-1.9-8.98-2.177-12.019,1.067a1.595,1.595,0,0,1-2.327-2.18,10.556,10.556,0,0,1,3.532-2.467,12.62,12.62,0,0,1,4.109-.986,15.258,15.258,0,0,1,8.209,1.755c5.055,2.7,8.336,7.621,10.63,11.6a85.048,85.048,0,0,1,5.152,10.583,22.016,22.016,0,0,0,2,4.1,4.565,4.565,0,0,0,2.654,2.1,1.595,1.595,0,0,1-.375,3.144Z" transform="translate(-13.94 -4.768)" fill="#1a1311"/><path d="M38.375,53.367a1.594,1.594,0,0,1-1.594-1.572,35.671,35.671,0,0,1,7.157-21.841,20.038,20.038,0,0,1,7.4-6.4,11.528,11.528,0,0,1,10.2-.047,1.595,1.595,0,0,1-1.5,2.814,8.455,8.455,0,0,0-7.359.125,16.982,16.982,0,0,0-6.2,5.431A32.34,32.34,0,0,0,39.97,51.75,1.594,1.594,0,0,1,38.4,53.367Z" transform="translate(-7.561 -4.717)" fill="#1a1311"/><path d="M117.674,47.349a1.606,1.606,0,0,1-.25-.02c-2.167-.342-4.04-1.855-5.728-4.625a57.82,57.82,0,0,1-4.095-8.785c-.523-1.309-1.063-2.663-1.634-3.96-2.2-5-4.613-8.227-7.58-10.148a1.594,1.594,0,1,1,1.733-2.677c4.616,2.988,7.213,8.017,8.765,11.539.594,1.348,1.144,2.728,1.677,4.063a54.591,54.591,0,0,0,3.856,8.307c1.171,1.922,2.316,2.948,3.5,3.135a1.595,1.595,0,0,1-.247,3.17Z" transform="translate(-19.558 -3.64)" fill="#1a1311"/><path d="M52.929,70.3a14.119,14.119,0,0,1-5.963-1.231,8.733,8.733,0,0,1-3.941-3.418A1.595,1.595,0,0,1,45.8,64.073c.923,1.626,3.667,3.191,7.716,3.022,2.892-.12,5.1-3.088,5.146-5.661C58.7,59,56.923,57.517,53.65,57.267c-2.827-.215-6.608.248-8.228,1.775a2.089,2.089,0,0,0-.717,1.647,1.595,1.595,0,0,1-3.189.054,5.282,5.282,0,0,1,1.718-4.022A10.218,10.218,0,0,1,48.356,54.4a21.2,21.2,0,0,1,5.536-.308,9.18,9.18,0,0,1,6.037,2.446,6.713,6.713,0,0,1,1.918,4.955,9.331,9.331,0,0,1-2.332,5.852,8.249,8.249,0,0,1-5.87,2.94Q53.285,70.3,52.929,70.3Z" transform="translate(-8.495 -10.961)" fill="#1a1311"/><path d="M87.5,70.3a14.119,14.119,0,0,1-5.963-1.231A8.733,8.733,0,0,1,77.6,65.647a1.595,1.595,0,1,1,2.773-1.574C81.3,65.7,84.04,67.264,88.089,67.1c2.892-.12,5.1-3.088,5.146-5.661.042-2.437-1.737-3.917-5.009-4.167-2.827-.215-6.608.248-8.228,1.775a2.089,2.089,0,0,0-.717,1.647,1.595,1.595,0,0,1-3.189.054,5.282,5.282,0,0,1,1.718-4.022A10.218,10.218,0,0,1,82.932,54.4a21.2,21.2,0,0,1,5.536-.308,9.18,9.18,0,0,1,6.037,2.446,6.713,6.713,0,0,1,1.918,4.955,9.331,9.331,0,0,1-2.332,5.852,8.249,8.249,0,0,1-5.87,2.94Q87.861,70.3,87.5,70.3Z" transform="translate(-15.308 -10.961)" fill="#1a1311"/><path d="M64.749,64.892a1.595,1.595,0,0,1-1.011-2.828,7.54,7.54,0,0,1,4.658-1.7A8.285,8.285,0,0,1,73.054,61.7a1.594,1.594,0,1,1-1.741,2.672,4.753,4.753,0,0,0-5.555.163A1.588,1.588,0,0,1,64.749,64.892Z" transform="translate(-12.759 -12.208)" fill="#1a1311"/><path d="M108.717,82.546a3.111,3.111,0,1,1,3.111,3.111,3.112,3.112,0,0,1-3.111-3.111" transform="translate(-21.423 -15.653)" fill="#fff"/><path d="M3.111-1.595A4.706,4.706,0,1,1-1.595,3.111,4.711,4.711,0,0,1,3.111-1.595Zm0,6.223A1.517,1.517,0,1,0,1.594,3.111,1.519,1.519,0,0,0,3.111,4.628Z" transform="translate(87.294 63.783)" fill="#1a1311"/><path d="M1.708-1.594a3.3,3.3,0,1,1-3.3,3.3A3.306,3.306,0,0,1,1.708-1.594Z" transform="translate(54.497 116.468)" fill="#1a1311"/><path d="M1.708-1.594a3.3,3.3,0,1,1-3.3,3.3A3.306,3.306,0,0,1,1.708-1.594Z" transform="translate(44.403 157.728)" fill="#1a1311"/><path d="M48.085,219.041A1.6,1.6,0,0,1,46.5,217.23c.018-.128,1.789-12.979,4.793-28,3.467-17.338,9.335-36.338,9.394-36.528a1.594,1.594,0,0,1,3.046.944c-.058.188-5.879,19.036-9.313,36.209-2.984,14.92-4.743,27.68-4.761,27.807A1.6,1.6,0,0,1,48.085,219.041Z" transform="translate(-9.475 -30.183)" fill="#1a1311"/><path d="M55.5,218.784a1.6,1.6,0,0,1-1.582-1.811c.018-.128,1.789-12.979,4.792-28,3.472-17.362,10.338-37.416,10.407-37.617a1.594,1.594,0,0,1,3.016,1.037c-.068.2-6.867,20.057-10.3,37.205-2.985,14.926-4.742,27.68-4.76,27.807A1.6,1.6,0,0,1,55.5,218.784Z" transform="translate(-10.936 -29.927)" fill="#1a1311"/><path d="M63.361,148.2a1.606,1.606,0,0,1-.246-.019c-5.035-.779-7.157-3.129-7.382-3.395a1.594,1.594,0,0,1-.379-1.018l-.073-8.015a1.606,1.606,0,0,1,.976-1.517,1.552,1.552,0,0,1,1.721.35c.171.144,2.228,1.771,7.44,2.034.691.035,2.619-.165,7.778-1.895,3.267-1.1,7.376-2.649,12.21-4.618,8.256-3.362,15.845-6.806,15.921-6.84a1.595,1.595,0,0,1,2.244,1.269l1.033,8.954a1.594,1.594,0,0,1-.937,1.64c-.852.378-20.985,9.3-31.775,12.46a1.595,1.595,0,1,1-.9-3.061c9.191-2.689,25.923-9.924,30.3-11.842l-.649-5.623c-2.818,1.254-8.27,3.645-14.043,6-4.9,1.994-9.068,3.572-12.4,4.688-5.827,1.954-7.9,2.109-8.952,2.056a21.043,21.043,0,0,1-6.763-1.33l.042,4.579a10.651,10.651,0,0,0,5.066,1.975,1.595,1.595,0,0,1-.242,3.17Z" transform="translate(-11.207 -24.576)" fill="#1a1311"/><path d="M0,10.979A1.594,1.594,0,0,1-1.594,9.385V0A1.594,1.594,0,0,1,0-1.594,1.594,1.594,0,0,1,1.594,0V9.385A1.594,1.594,0,0,1,0,10.979Z" transform="translate(59.691 112.563)" fill="#1a1311"/><path d="M0,10.946A1.594,1.594,0,0,1-1.594,9.352V0A1.594,1.594,0,0,1,0-1.594,1.594,1.594,0,0,1,1.594,0V9.352A1.594,1.594,0,0,1,0,10.946Z" transform="translate(52.739 113.639)" fill="#1a1311"/></g></svg>