<svg xmlns="http://www.w3.org/2000/svg" width="593.354" height="169.328" viewBox="0 0 593.354 169.328"><g transform="translate(0 1.994)"><g transform="translate(-282.612 -912.494)"><g transform="translate(834.117 983.529)"><path d="M345.139,73.029a48.169,48.169,0,0,0,1.272,5.86,56.3,56.3,0,0,0,1.968,5.692c.751,1.868,1.613,3.7,2.533,5.509s1.916,3.589,2.954,5.353c2.072,3.531,4.339,6.983,6.628,10.455a106.715,106.715,0,0,1,6.469,10.985,46.3,46.3,0,0,1,4.242,12.371,37.645,37.645,0,0,1-.027,13.205,39.546,39.546,0,0,1-1.649,6.4,32.008,32.008,0,0,1-2.862,6.045,36.249,36.249,0,0,1-3.97,5.325c-.949,1.064-1.945,2.071-2.971,3.034a2.2,2.2,0,0,1-3.165-.158v0a2.194,2.194,0,0,1,.146-3.035,35.534,35.534,0,0,0,6.129-7.473,29.241,29.241,0,0,0,2.45-5.236,34.8,34.8,0,0,0,1.454-5.678,33.614,33.614,0,0,0,.033-11.649,41.875,41.875,0,0,0-3.794-11.194,102.637,102.637,0,0,0-6.155-10.556c-2.251-3.507-4.516-7.047-6.615-10.725a81.4,81.4,0,0,1-5.546-11.524c-.387-1-.734-2.023-1.068-3.047-.316-1.031-.623-2.066-.88-3.116a47.678,47.678,0,0,1-1.16-6.382Z" transform="translate(-329.927 -73.029)" fill="#1a1311"/><path d="M345.147,73.416a48.172,48.172,0,0,0,.027,6.47c.079,1.079.188,2.155.334,3.231s.309,2.146.514,3.215c.4,2.139.919,4.264,1.516,6.375s1.26,4.216,1.98,6.309,1.49,4.179,2.282,6.268l1.2,3.134c.4,1.05.808,2.128,1.19,3.2a80.944,80.944,0,0,1,3.654,13.349c.2,1.15.366,2.311.487,3.481s.2,2.349.241,3.534a36.664,36.664,0,0,1-.464,7.147,34.107,34.107,0,0,1-.807,3.537,32.106,32.106,0,0,1-1.234,3.431,35.318,35.318,0,0,1-3.563,6.248,50.123,50.123,0,0,1-4.483,5.448,58.666,58.666,0,0,1-14.859,11.276,2.2,2.2,0,0,1-2.087-3.866,53.406,53.406,0,0,0,8.968-6.073,50.2,50.2,0,0,0,8.78-9.378,30.942,30.942,0,0,0,3.1-5.438,27.615,27.615,0,0,0,1.043-2.907,29.739,29.739,0,0,0,.688-3.03,38.235,38.235,0,0,0-.21-12.661,76.708,76.708,0,0,0-3.4-12.631c-.364-1.044-.747-2.069-1.139-3.12l-1.172-3.172c-.776-2.122-1.535-4.26-2.251-6.423a88.006,88.006,0,0,1-3.418-13.342,51.8,51.8,0,0,1-.525-13.926Z" transform="translate(-329.927 -73.029)" fill="#1a1311"/></g><g transform="translate(282.612 925.135)"><path d="M559.874,142.646H3.8c-2.1,0-3.8-1.039-3.8-2.32V16.955c0-1.282,1.7-2.32,3.8-2.32h556.07c4.683,0,8.478,2.315,8.478,5.172V137.473c0,2.857-3.8,5.173-8.478,5.173" transform="translate(0 -14.635)" fill="#004a83"/><rect width="537.667" height="109.813" transform="translate(13.388 8.865)" fill="#fff"/></g><path d="M16.555,155.286H9.481a1.821,1.821,0,0,1-1.822-1.821V3.816A1.823,1.823,0,0,1,9.481,1.994h7.074a1.823,1.823,0,0,1,1.822,1.822V153.465a1.821,1.821,0,0,1-1.822,1.821" transform="translate(282.612 910.5)" fill="#fff"/><path d="M1.821,0H8.9a1.821,1.821,0,0,1,1.821,1.821V151.47A1.822,1.822,0,0,1,8.9,153.292H1.822A1.822,1.822,0,0,1,0,151.47V1.821A1.821,1.821,0,0,1,1.821,0Z" transform="translate(290.271 912.495)" fill="none" stroke="#1a1311" stroke-miterlimit="10" stroke-width="3.989"/><path d="M23.877,11.942c1.332.3,2.148.962,2.148,2.148v129.1c0,1.186-.928,1.769-2.148,2.148a41.8,41.8,0,0,1-21.729,0C.863,144.91,0,144.376,0,143.19V14.09c0-1.186.895-1.811,2.148-2.148a46.4,46.4,0,0,1,21.729,0" transform="translate(282.612 910.5)" fill="#004a83"/></g><path d="M-57.481,1.786c.47,0,.987,0,.987-.611a4.139,4.139,0,0,0-.094-.8c-.094-.94-.094-1.833-.141-2.726-.188-4.089-.235-8.178-.329-12.22-.047-4.418,0-8.789,0-13.207,1.269-1.41,2.35-2.726,3.055-3.572v2.068c0,.47-.188,1.222.517,1.222a9.411,9.411,0,0,0,1.128-.188c1.833-.188,3.666-.282,5.5-.329l.094,6.815h-2.3c-1.175-.047-2.35-.141-3.478-.141-.47,0-.705,0-.705.517,0,.329.047.658.047.987.141,1.457.329,2.914.423,4.371.329,4.324.376,8.6.423,12.972v1.88c0,.47-.188,1.128.517,1.128a7.064,7.064,0,0,0,.94-.094c.658-.047,1.316-.094,1.974-.094q3.807-.141,7.614-.141c3.384,0,6.674.047,10.058.235.282,0,.94.094,1.175.094.658.047.611-.47.658-1.269.047-1.222.047-2.4.094-3.572.141-2.679.329-5.405.47-8.084.047-1.5.141-3.008.329-4.465.141-1.222.141-1.786.282-3.008a6.369,6.369,0,0,0,.094-.94c0-.517-.329-.564-.8-.564-.893,0-1.833.188-2.773.188h-3.384l.141-6.815c1.739.094,3.478.141,5.217.235.658.047,1.6.141,2.068.141.423,0,.517-.188.564-.658.141-.8.188-1.41.329-2.209.141-.846.329-1.786.329-1.974,0-.423-.235-.376-.611-.376-.47,0-.987.094-1.457.141-1.034.047-2.068.094-3.1.094-2.538.047-5.123.094-7.708.047-2.914-.047-6.157,0-10.387,0-.94,0-1.88-.094-2.82-.141a7.077,7.077,0,0,0,.47-.8,1.035,1.035,0,0,0,.235-.752c-.047-.376-.423-.658-.94-.987-.658-.47-1.551-1.081-2.444-1.645-.329-.235-.329-.282-.658-.282-.423,0-.564.47-.658.752a21.643,21.643,0,0,1-3.431,5.029,55.4,55.4,0,0,1-7.1,7.379c-.611.517-1.269,1.034-1.927,1.551-.188.141-.7.47-.7.752,0,.235.423.47.564.611.987.705,1.927,1.41,2.867,2.162a1.076,1.076,0,0,0,.8.376c.188,0,.47-.188.846-.517.752-.658,1.833-1.739,3.055-3.055,0,3.619-.047,7.238-.047,10.857,0,3.2-.188,6.439-.329,9.635-.047.8-.094,1.6-.188,2.4a7.13,7.13,0,0,0-.141.987c0,.376.188.564.517.564Zm9.071-6.2c-.141-4.465-.094-8.977-.376-13.489h2.538l.188,13.442C-46.859-4.418-47.611-4.418-48.41-4.418Zm6.063-.047-.094-13.442h2.867l-.235,13.442Zm8.648.094-2.35-.047.282-13.442h2.914C-33.182-13.3-33.276-8.883-33.7-4.371Zm-8.742-17.39-.047-6.909h3.1l-.141,6.909Zm29.375,23.5c1.269,0,2.585-.047,3.9-.047.47,0,.987.094.987-.517,0-.47-.094-.94-.094-1.41V-17.343l2.3,1.457-.329.094C-6.58-15.7-7-15.6-7-15.322s.329.611.47.8c.7.893,1.363,1.6,1.974,2.4.188.235.564.846.987.846a2.978,2.978,0,0,0,1.316-.47c.094,1.269.235,2.585.329,3.854.188,1.88.282,3.76.329,5.64,0,.235.094,1.316.094,1.974.047.705.141.893.7.893C-.094.611.611.47,1.316.423,3.008.329,5.405.376,7.05.376c2.632,0,5.217.235,7.8.376,1.128,0,1.081-.188,1.128-1.128.094-.846.188-1.739.235-2.632.188-2.3.376-4.653.658-6.956.094-.7.235-1.5.376-2.3.235.141.47.282.658.423.329.188.517.376.893.329s.517-.47.752-.752a22.009,22.009,0,0,1,2.3-2.726c.282-.329.658-.564.658-1.034,0-.329-.47-.47-1.222-.8a35.727,35.727,0,0,1-3.713-1.692c-2.256-1.269-4.324-2.632-6.345-4.042,1.41-1.645,2.632-3.337,3.948-5.076.329-.423,1.5-1.692,1.5-2.162,0-.517-1.128-1.175-1.692-1.551a69.021,69.021,0,0,1-5.687-4.277,23.909,23.909,0,0,1-2.162-1.927c-.564-.564-.893-.893-1.316-.893-.376,0-.611.752-.752,1.034a34.659,34.659,0,0,1-5.217,7.05,22.487,22.487,0,0,1-3.948,3.337c.141-1.034.329-2.444.329-2.961,0-.329-.141-.423-.423-.423-.423,0-.846.094-1.269.094l-2.773.141c.047-2.021.188-4,.282-6.016a3.174,3.174,0,0,0,.094-.658c0-.658-.517-.658-1.034-.658h-3.478c-.47,0-.752,0-.752.564,0,.329.094.752.094,1.081,0,1.974.047,2.021.047,3.995l.047,1.739-4.418.047c-.611,0-1.269-.094-1.88-.094-.7,0-.517.611-.517,1.175v3.29c0,.423.094.658.517.658.282,0,.564-.094.846-.094.846-.094,1.645-.141,2.444-.188.846-.047,1.6-.094,2.4-.094l-3.243,5.358c-1.175,2.021-2.585,3.948-3.807,5.969-.188.282-.893,1.175-1.363,1.927a3.191,3.191,0,0,0-.611.94c.047.423.423.705.7.94l2.4,2.068c.235.235.517.564.893.564.282,0,.47-.611.611-.8,1.6-3.243,3.431-6.345,5.17-9.494-.047,1.551-.141,3.149-.188,4.747,0,1.88-.094,3.807-.188,5.687-.094,2.773-.188,4.7-.376,7.473,0,.235-.141,1.175-.141,1.41C-13.677,1.739-13.395,1.739-13.066,1.739ZM12.079-3.807c-1.6-.094-3.337-.141-4.935-.141s-3.1.047-4.653.094c-.141-1.974-.235-3.9-.376-5.828,1.222-.047,3.948-.047,5.123-.047,2.256,0,3.055-.047,5.264.047ZM-4.371-16.45c.235-.517.705-1.457,1.034-2.209a10.946,10.946,0,0,0,.423-1.081c0-.376-.7-.517-.987-.658-1.128-.47-1.551-.658-2.679-1.222l-1.692-.893v-2.914H-7.05c.752.047,1.551.141,2.3.141a.728.728,0,0,0,.376-.094C-3.995-25-3.2-24.111-2.538-23.5c.423.376.564.7.94.7.282,0,.846-.564,1.081-.752l1.786-1.692c1.175,1.034,2.35,2.068,3.525,3.055A33.532,33.532,0,0,1-2.35-17.249C-2.632-17.108-3.478-16.779-4.371-16.45ZM9.964-13.818c-1.88,0-3.619-.047-5.64-.047-.893,0-1.786-.047-2.679-.094A29.928,29.928,0,0,0,8.272-19.27l5.781,4.653c.282.235.611.47.94.7C13.3-13.865,11.656-13.818,9.964-13.818Zm-2.3-11.374C6.439-26.132,5.217-27.119,4-28.106a35.691,35.691,0,0,0,2.679-3.431C7.9-30.5,8.883-29.8,10.2-28.858A33.815,33.815,0,0,1,7.661-25.192ZM41.125-.376c.376,0,1.645-1.41,1.974-1.786A54.487,54.487,0,0,0,48.41-9.729a60.311,60.311,0,0,0,3.1-6.58c.752-1.927,1.081-3.1,1.739-5.029.047-.141.188-.564.376-.987a25.6,25.6,0,0,0,1.786,4.418c.282.564.7,1.692,1.316,1.645.517,0,.8-.7,1.081-1.739a27.613,27.613,0,0,0,.94-5.64c.047-.517.094-1.457.094-1.974,0-.611-.094-1.128-.611-1.128a7.265,7.265,0,0,0-1.457.188,19.3,19.3,0,0,0-2.491.611,4.965,4.965,0,0,0-.893.282c-1.739-.8-3.384-1.786-5.076-2.726.188-.7.376-1.457.517-2.162h3.055c.752,0,1.5.188,2.256.188s.611-.94.658-1.5c.047-.846.141-1.645.235-2.444,0-.235.094-.47.094-.752,0-.329-.188-.376-.423-.376a11.642,11.642,0,0,0-1.269.141c-.94.047-1.88.094-2.773.094-3.1.094-6.11.047-9.306.047-.517,0-1.128-.047-1.645-.047-.47,0-.517.188-.517.893v3.525c0,.47.141.658.517.658a5.3,5.3,0,0,0,.846-.141c.8-.047,1.88-.141,2.679-.141l1.128-.047A28.853,28.853,0,0,1,43.1-25.662,33.124,33.124,0,0,1,38.4-17.3c-.188.235-.8.8-.8,1.034.047.282.376.47.893.752a19.689,19.689,0,0,1,1.974,1.269c.282.235.611.564.893.517.329,0,.846-.94,1.081-1.269l1.034-1.833c.94.611,1.833,1.316,2.726,2.021a27.678,27.678,0,0,1-7.708,9.87c-.282.235-1.222.705-1.222,1.034,0,.423.705.8.94,1.034a18.129,18.129,0,0,1,1.88,1.6C40.561-.8,40.984-.376,41.125-.376ZM31.349,1.739c1.457,0,2.914-.047,4.371-.047.517.047.94.047.94-.329a6.4,6.4,0,0,0-.094-.987c0-.893-.141-1.833-.188-2.726-.188-4.089-.47-8.178-.564-12.22-.047-3.9-.047-9.259-.094-13.63a44.044,44.044,0,0,0,2.115-3.948,11.834,11.834,0,0,0,.658-1.551,3.142,3.142,0,0,0,.235-.893c0-.235-.423-.47-.752-.658-1.034-.611-2.209-1.269-3.243-1.786-.47-.282-.517-.282-.846-.282-.376.047-.376.47-.47.752A34.952,34.952,0,0,1,31.4-31.3a43.92,43.92,0,0,1-4.888,7.943c-.517.564-.846,1.081-1.41,1.692-.141.188-.564.564-.564.846.047.282.658.517.846.611,1.128.611,1.833.94,2.914,1.645a1.811,1.811,0,0,0,1.034.423c.235,0,.47-.376.846-.846l1.081-1.6v8.742c0,3.2.047,6.439-.094,9.635-.047.8-.094,1.6-.188,2.4a9.245,9.245,0,0,0-.141,1.128C30.832,1.692,31.02,1.739,31.349,1.739Zm16.5-20.445c-.8-.658-1.645-1.269-2.491-1.88.564-1.222,1.128-2.444,1.551-3.572a22.006,22.006,0,0,0,2.35,1.316C48.833-21.432,48.363-20.069,47.846-18.706Zm11,20.727a1.759,1.759,0,0,0,.846-.235,5.368,5.368,0,0,0,1.034-.564,10.23,10.23,0,0,0,3.76-3.807c.987-2.021.987-4.136.987-7.614,0-3.9-.282-7.708-.282-11.609V-24.44c0-2.35-.094-3.149-.094-5.311,0-1.128.047-2.162.141-3.29a10.93,10.93,0,0,0,.188-1.739c0-.611-.611-.517-1.128-.517H60.677c-.423,0-1.222.047-1.222.47a3.144,3.144,0,0,0,.235,1.222c.094.517.188,1.034.235,1.551a47.468,47.468,0,0,1,.329,5.029c0,5.828.282,11.656.282,17.531,0,2.3-.329,3.619-1.128,4.559-.8.893-2.115,1.41-3.995,2.209-.564.235-1.034.282-1.081.658s.47.564,1.034,1.034c.752.705,1.6,1.457,2.3,2.162C57.9,1.41,58.468,2.021,58.844,2.021Z" transform="translate(281.888 92.006)"/></g></svg>