<svg xmlns="http://www.w3.org/2000/svg" width="593.354" height="169.328" viewBox="0 0 593.354 169.328"><g transform="translate(0 1.994)"><g transform="translate(-282.612 -912.494)"><g transform="translate(834.117 983.529)"><path d="M345.139,73.029a48.169,48.169,0,0,0,1.272,5.86,56.3,56.3,0,0,0,1.968,5.692c.751,1.868,1.613,3.7,2.533,5.509s1.916,3.589,2.954,5.353c2.072,3.531,4.339,6.983,6.628,10.455a106.715,106.715,0,0,1,6.469,10.985,46.3,46.3,0,0,1,4.242,12.371,37.645,37.645,0,0,1-.027,13.205,39.546,39.546,0,0,1-1.649,6.4,32.008,32.008,0,0,1-2.862,6.045,36.249,36.249,0,0,1-3.97,5.325c-.949,1.064-1.945,2.071-2.971,3.034a2.2,2.2,0,0,1-3.165-.158v0a2.194,2.194,0,0,1,.146-3.035,35.534,35.534,0,0,0,6.129-7.473,29.241,29.241,0,0,0,2.45-5.236,34.8,34.8,0,0,0,1.454-5.678,33.614,33.614,0,0,0,.033-11.649,41.875,41.875,0,0,0-3.794-11.194,102.637,102.637,0,0,0-6.155-10.556c-2.251-3.507-4.516-7.047-6.615-10.725a81.4,81.4,0,0,1-5.546-11.524c-.387-1-.734-2.023-1.068-3.047-.316-1.031-.623-2.066-.88-3.116a47.678,47.678,0,0,1-1.16-6.382Z" transform="translate(-329.927 -73.029)" fill="#1a1311"/><path d="M345.147,73.416a48.172,48.172,0,0,0,.027,6.47c.079,1.079.188,2.155.334,3.231s.309,2.146.514,3.215c.4,2.139.919,4.264,1.516,6.375s1.26,4.216,1.98,6.309,1.49,4.179,2.282,6.268l1.2,3.134c.4,1.05.808,2.128,1.19,3.2a80.944,80.944,0,0,1,3.654,13.349c.2,1.15.366,2.311.487,3.481s.2,2.349.241,3.534a36.664,36.664,0,0,1-.464,7.147,34.107,34.107,0,0,1-.807,3.537,32.106,32.106,0,0,1-1.234,3.431,35.318,35.318,0,0,1-3.563,6.248,50.123,50.123,0,0,1-4.483,5.448,58.666,58.666,0,0,1-14.859,11.276,2.2,2.2,0,0,1-2.087-3.866,53.406,53.406,0,0,0,8.968-6.073,50.2,50.2,0,0,0,8.78-9.378,30.942,30.942,0,0,0,3.1-5.438,27.615,27.615,0,0,0,1.043-2.907,29.739,29.739,0,0,0,.688-3.03,38.235,38.235,0,0,0-.21-12.661,76.708,76.708,0,0,0-3.4-12.631c-.364-1.044-.747-2.069-1.139-3.12l-1.172-3.172c-.776-2.122-1.535-4.26-2.251-6.423a88.006,88.006,0,0,1-3.418-13.342,51.8,51.8,0,0,1-.525-13.926Z" transform="translate(-329.927 -73.029)" fill="#1a1311"/></g><g transform="translate(282.612 925.135)"><path d="M559.874,142.646H3.8c-2.1,0-3.8-1.039-3.8-2.32V16.955c0-1.282,1.7-2.32,3.8-2.32h556.07c4.683,0,8.478,2.315,8.478,5.172V137.473c0,2.857-3.8,5.173-8.478,5.173" transform="translate(0 -14.635)" fill="#004a83"/><rect width="537.667" height="109.813" transform="translate(13.388 8.865)" fill="#fff"/></g><path d="M16.555,155.286H9.481a1.821,1.821,0,0,1-1.822-1.821V3.816A1.823,1.823,0,0,1,9.481,1.994h7.074a1.823,1.823,0,0,1,1.822,1.822V153.465a1.821,1.821,0,0,1-1.822,1.821" transform="translate(282.612 910.5)" fill="#fff"/><path d="M1.821,0H8.9a1.821,1.821,0,0,1,1.821,1.821V151.47A1.822,1.822,0,0,1,8.9,153.292H1.822A1.822,1.822,0,0,1,0,151.47V1.821A1.821,1.821,0,0,1,1.821,0Z" transform="translate(290.271 912.495)" fill="none" stroke="#1a1311" stroke-miterlimit="10" stroke-width="3.989"/><path d="M23.877,11.942c1.332.3,2.148.962,2.148,2.148v129.1c0,1.186-.928,1.769-2.148,2.148a41.8,41.8,0,0,1-21.729,0C.863,144.91,0,144.376,0,143.19V14.09c0-1.186.895-1.811,2.148-2.148a46.4,46.4,0,0,1,21.729,0" transform="translate(282.612 910.5)" fill="#004a83"/></g><path d="M-223.3-11.374v-4.183h7.191v2.867C-218.5-12.267-220.9-11.8-223.3-11.374Zm0-8.272v-3.9h7.144l.047,3.9Zm0-8.225v-3.384c1.175,0,2.35-.047,3.619-.047h3.525v3.431Zm29.845,29.7c.564-.047.846-.47,1.269-.846.752-.611,1.363-1.222,2.115-1.786.8-.611,1.645-.846,1.645-1.41,0-.47-.94-.658-1.786-1.222a24.054,24.054,0,0,1-5.029-4.183,27.523,27.523,0,0,1-2.115-2.444,77.466,77.466,0,0,0,5.17-14.241,16.613,16.613,0,0,0,.705-4.277,1.11,1.11,0,0,0-1.175-1.175c-1.081-.047-1.081.094-3.008.141h-10.528c-.705,0-1.363-.188-2.068-.188-.564,0-.564.658-.564,1.034v3.008c0,.517.188.8.752.8.658,0,1.363-.047,2.021-.047h9.071a56.729,56.729,0,0,1-3.29,10.34,48.455,48.455,0,0,1-3.2-7c-.094-.235-.235-.846-.376-1.363-.188-.47-.329-.893-.658-.846a3.719,3.719,0,0,0-1.128.564c-.846.47-1.5.846-2.115,1.128-.423.235-.8.47-.8.94a3.769,3.769,0,0,0,.329.94l.611,1.363c.752,1.833,1.5,3.666,2.35,5.452.658,1.316,1.363,2.585,2.115,3.854A34.905,34.905,0,0,1-209.9-2.726c-.329.235-.752.423-.752.658,0,.47.423.705.893,1.128.517.47,1.222,1.222,1.833,1.833.47.47.658.893,1.034.893a2.268,2.268,0,0,0,1.034-.564,27.872,27.872,0,0,0,2.679-2.773,33.906,33.906,0,0,0,2.914-3.807,42.337,42.337,0,0,0,5.734,6.58C-194.157,1.6-193.734,1.88-193.452,1.833Zm-22.184.846h3.525c.47,0,.987,0,1.034-.517A12.133,12.133,0,0,0-211.218.8a14.608,14.608,0,0,1-.141-2.021c-.094-2.4-.141-4.324-.141-6.721V-31.208h.564c.705.047,1.786.188,2.491.188.47,0,.47-.376.564-.846.094-.8.329-2.209.376-2.491a8.22,8.22,0,0,0,.235-1.551c0-.47.047-.611-.423-.611-1.081,0-2.115.282-3.431.376-.846.047-1.692.141-2.538.141-4.183,0-8.366.047-12.5.047-1.6-.047-3.384-.282-4.935-.282-.752,0-.564.235-.564.893v3.666c0,.47,0,.8.658.8.752,0,1.5-.282,2.256-.282l.987-.047v20.727c-1.034.188-2.068.376-3.1.517-.376.047-1.175-.047-1.363.329a.355.355,0,0,0-.047.188,4.083,4.083,0,0,0,.188,1.034c.188.8.423,1.739.47,2.068.094.423.188,1.5.8,1.5a16.39,16.39,0,0,0,2.3-.752c3.2-.752,6.063-1.41,9.118-1.974,1.128-.188,2.115-.376,3.29-.611v2.914c0,1.6-.094,2.491-.141,4.136-.047,1.128-.141,1.692-.141,2.209,0,.376-.047.8-.047,1.175C-216.435,2.679-216.059,2.679-215.636,2.679Zm48.363-.94c.329,0,.846-.893,1.128-1.5a74.908,74.908,0,0,0,3.854-9.165c.611-1.786,1.081-3.478,1.5-5.17l.658.658q1.9,1.9,3.666,3.807a26.146,26.146,0,0,1-5.64,5.922c-.188.141-.658.376-1.034.658-.329.235-.705.376-.705.611,0,.282.376.517.705.94.47.564.987.987,1.316,1.41.188.235.8,1.175,1.128,1.222.282,0,.611-.376,1.034-.611A29.47,29.47,0,0,0-155.1-3.9q.987-1.128,1.833-2.256c1.927,2.068,3.76,4.042,5.5,6.3.329.423,1.081,1.41,1.6,1.457.376,0,1.034-.7,1.41-1.034.846-.658,1.645-1.128,2.444-1.692.517-.282,1.6-.658,1.6-1.175,0-.376-.564-.517-1.175-.94-.987-.7-2.021-1.457-2.961-2.209A31.338,31.338,0,0,1-148.285-8.6c-.7-.752-1.41-1.41-2.115-2.068a44.4,44.4,0,0,0,1.974-4.559c.47-1.269,2.444-7,2.444-7.943,0-.423-.376-.47-.8-.47h-4.089c.893-3.008,1.739-5.922,2.632-8.883a4.233,4.233,0,0,0,.376-1.316c0-.517-.423-.564-.893-.564-.564,0-1.128.094-1.645.141-4.841.141-9.682.141-14.523.141-.846,0-1.645-.141-2.491-.141-.611,0-.47.658-.47,1.128,0,1.128-.094,2.209,0,3.337-.47,0-.94.094-1.457.094-.987,0-1.927.047-2.914.047,0-1.316,0-2.679.094-4.042a15.987,15.987,0,0,1,.141-2.115,8.506,8.506,0,0,0,.141-1.081c0-.47-.47-.564-.987-.564l-3.478.047c-.282,0-.846-.047-.846.235a4.576,4.576,0,0,0,.094,1.128c.047.517.047,1.034.094,1.551.141,1.645.141,3.243.141,4.888l-3.055-.047h-1.974a7.685,7.685,0,0,1-1.034-.094c-.423,0-.376.329-.376.7l-.047,3.478c0,.47-.047.658.423.658.282,0,.658-.047.987-.047,1.5,0,3.431-.094,5.076-.141v7.379c-1.034.47-2.068.846-3.2,1.363-1.081.47-2.162.893-3.29,1.269l-1.363.47c-.376.094-.752.094-.752.423a8.815,8.815,0,0,0,.235.94c.282.846.658,1.833.893,2.491.094.329.329,1.081.752,1.081a9.665,9.665,0,0,0,1.974-.8c1.551-.7,3.1-1.363,4.7-2.021,0,1.692-.047,3.384-.047,5.076,0,.611.141,1.88-.235,2.35a2.542,2.542,0,0,1-1.222.846,31.062,31.062,0,0,1-3.807,1.316c-.423.094-1.175.188-1.222.658-.094.517.423.846.8,1.128.47.376,1.551,1.5,2.021,1.88.329.282.47.893,1.034.893a4.342,4.342,0,0,0,1.269-.376A12.687,12.687,0,0,0-175.827.235a10.9,10.9,0,0,0,2.961-1.88,4.619,4.619,0,0,0,.8-3.149c0-3.243-.141-6.533-.188-9.823,1.41-.658,2.632-1.269,4.042-1.974.282-.141.846-.517.846-.846a7.488,7.488,0,0,0-.376-1.081l-.564-1.88c-.235-.8-.329-1.457-.7-1.457-.423,0-.893.47-1.269.752-.47.282-1.222.7-2.021,1.128l.047-5.123c.846.047,1.739.047,2.632.141a8.936,8.936,0,0,0,1.175.141c.141,0,.376.047.47-.094a2.262,2.262,0,0,0,.188-1.034c.047-.658.188-1.316.235-1.974.047-.376.188-1.034.235-1.363l.94-.141c.611-.047,1.034-.141,1.551-.141h1.974A82.475,82.475,0,0,1-164.5-18.377a50.421,50.421,0,0,1-1.88,7,34.926,34.926,0,0,1-4.935,9.682c-.188.282-.94.94-.94,1.363.047.235.658.423,1.034.564.752.282,1.551.658,2.491,1.034A6.168,6.168,0,0,0-167.273,1.739Zm13.442-15.745c-1.363-1.269-2.82-2.491-4.23-3.807l-1.6-1.457c.658-3.29,1.128-6.627,1.6-10.293,1.457,0,2.914.047,4.371.047-.752,2.632-1.457,4.935-2.256,7.52-.376,1.222-.8,1.6-.8,2.209,0,.47.517.517.94.517,1.363,0,2.679,0,4.089.047A31.976,31.976,0,0,1-153.831-14.006ZM-103.4,1.786l3.76-.047c.47,0,.94-.094.94-.705,0-.658-.188-1.316-.235-1.974-.094-1.645-.188-3.337-.235-4.982-.141-3.2-.235-5.922-.235-9.165,0-1.786,0-3.619.047-5.4.047-.658.141-1.316.141-1.974,0-.611-.141-.8-.752-.8-1.222,0-2.491.235-3.713.235-2.115.047-4.183.047-6.3.094a18.606,18.606,0,0,0,1.034-1.739c.423-.7.658-.94.658-1.269,0-.235-.47-.376-.893-.47-.846-.235-1.457-.423-2.444-.658a8.186,8.186,0,0,0-1.034-.235c-.282,0-.329.564-.611,1.128-.611,1.316-.987,2.162-1.6,3.29h-4.371c-.282-.987-.564-1.739-.893-2.773-.094-.235-.235-.658-.423-1.081-.141-.329-.235-.564-.423-.564a8.7,8.7,0,0,0-1.081.188l-2.444.564c-.282.094-.752.188-.752.47,0,.329.282.611.517,1.175l.846,1.974h-5.123c-1.739,0-3.431-.235-5.123-.235-.611,0-.893.047-.893.752a11.29,11.29,0,0,0,.141,1.316l.141,2.961c.094,2.115.094,4.183.094,6.251,0,3.008-.047,5.546-.282,8.554-.047.94-.188,1.927-.235,2.867-.047.517-.188,1.081-.188,1.6,0,.658.517.564,1.081.611h3.666c.611,0,.987-.141.987-.752a5.775,5.775,0,0,0-.094-1.269c-.047-1.222-.094-2.444-.094-3.666-.094-5.123.047-9.729-.094-14.852,2.021,0,4.747-.047,7.473-.047A3.923,3.923,0,0,1-123-18.1a23.5,23.5,0,0,1-3.243,3.243,15.408,15.408,0,0,1-2.068,1.5c-.188.141-1.034.564-1.034.8,0,.329.47.564.705.752l1.692,1.363c.47.329.893.7,1.128.7a.355.355,0,0,0,.188-.047,5.876,5.876,0,0,0,.141.893c.235,2.632.282,5.264.423,7.9,0,.517-.094,1.081.611,1.081.235,0,.517-.094.8-.094,2.021-.188,3.76-.282,5.593-.282,1.551,0,3.149.094,4.7.141,1.175.047,2.35.141,3.478.094.517,0,.658-.329.705-1.175.094-1.974.282-3.9.517-5.875a25.16,25.16,0,0,0,.329-2.632c0-.423-.235-.517-.611-.517-.658,0-3.149.188-3.807.188-3.008,0-4.183-.094-7.191-.094-1.645,0-3.29-.141-4.935-.141a65.872,65.872,0,0,0,5.64-5.405c.141-.141.94-.752.94-1.081,0-.376-.376-.423-.846-.8l-2.068-1.269h4.183v4.7a7.675,7.675,0,0,0-.047,1.457c.047.141.376.282.8.329.564.094,1.41.235,1.645.235,2.021.235,3.807.47,5.828.611l1.927.141a6.24,6.24,0,0,0,.94,0c.282-.094.329-.423.423-.752.141-.517.235-1.128.329-1.457.188-.564.282-.987.47-1.6a1.666,1.666,0,0,0,.141-.517.215.215,0,0,0-.235-.188,5.179,5.179,0,0,0-.846.094c-.658,0-1.316.047-1.974.047-.376,0-2.726-.094-4.042-.188-.282,0-.94,0-.94-.423v-2.491c2.867,0,4.841-.047,8.413,0,0,2.679.047,5.452.047,8.178,0,3.243-.141,5.922-.141,9.165,0,.846-.141,1.927-.141,2.726C-104.434,1.786-104.2,1.786-103.4,1.786Zm-17.86-5.828-.047-2.35h8.366c-.047.752-.047,1.551-.094,2.35C-115.9-4-118.534-4.042-121.26-4.042Zm-12.267-22.842a4.841,4.841,0,0,0,1.645-.282c.658-.094,1.316-.141,1.974-.235,1.128-.141,2.3-.188,3.431-.235,3.055-.047,6.157-.141,9.212-.141,2.35,0,4.747,0,7.1.047,2.021.047,3.995.094,5.969.235.893.094,2.35.376,2.773.376.564-.094.517-.235.611-.752l.564-3.008a11.2,11.2,0,0,0,.282-1.551c0-.282-.141-.376-.47-.376-.987,0-2.068.329-3.055.423-1.645.188-3.29.235-4.935.282-2.961.094-5.922.047-8.836.047h-12.126a27.63,27.63,0,0,1-2.82-.141,9.128,9.128,0,0,0-1.128-.094c-.564,0-.7.188-.7.7,0,1.222-.094,2.491-.047,3.713C-134.044-27.354-134.091-26.884-133.527-26.884Zm13.3-6.956a14.452,14.452,0,0,0,6.862-1.457c.376-.188,1.034-.47,1.034-.987,0-.611-.611-.752-1.081-.893-1.5-.423-3.008-.893-4.418-1.41-.423-.188-.846-.329-1.222-.517a2.987,2.987,0,0,0-.846-.282c-.423,0-.658.564-.8.893a13.315,13.315,0,0,0-.893,3.713C-121.589-33.934-120.884-33.84-120.226-33.84Zm62.745,13.254c.8,0,.752-1.081.8-1.786.047-1.034.282-3.1.47-5.452.188-2.209.235-3.29.47-5.5a12.148,12.148,0,0,0,.188-1.786c0-.846-.611-.8-1.363-.8-.658,0-1.316.047-1.974.094-3.9.141-7.332.047-11,.047-2.538,0-5.029-.047-7.52-.047-1.5-.047-3.008,0-4.512-.094-.517,0-1.034-.094-1.551-.094s-.94,0-.94.611c0,.564.235,1.128.282,1.739.188,1.739.47,4.465.611,6.2l.376,4.935c.094.705.094,1.6.329,1.786a1.6,1.6,0,0,0,.47.047c.705,0,1.41-.094,2.162-.141,1.457-.047,2.961-.188,4.465-.188,2.3-.047,4.606-.047,6.909-.047,2.021,0,4,.047,5.969.141,1.269.047,2.538.094,3.76.188C-58.609-20.68-58-20.586-57.481-20.586ZM-87.044-.094c.329,0,.846-.094,1.128-.094,2.256-.141,4.512-.235,6.768-.235,1.363,0,3.337.141,4.7.235.752.047,1.316.047,1.6.047.705,0,.8-.423.8-1.128,0-.752.141-2.162.188-2.867.188-3.2.141-5.076.423-8.272a32.364,32.364,0,0,0,.329-4.277c0-.611-.094-.94-.658-.987a9.759,9.759,0,0,0-1.645.047c-2.585.141-3.666.188-6.3.188-1.316,0-4.183-.094-5.5-.094-.893,0-1.786-.141-2.679-.141-.235,0-.376.376-.376.658,0,.846.141,1.88.188,2.726.188,2.679.423,4.042.517,6.674.047,1.739.188,3.525.188,5.217a8.544,8.544,0,0,0,0,1.551C-87.326-.423-87.373-.094-87.044-.094Zm4.089-5.029-.376-7.849c2.4-.047,4.794-.094,7.238,0-.141,2.867-.188,4.982-.329,7.849C-78.678-5.17-80.746-5.17-82.955-5.123ZM-67.586-.141c.329,0,.611-.094.94-.094,2.021-.141,4.042-.141,6.016-.141,1.927,0,3.807,0,5.734.141.423,0,.94.094,1.363.094.658,0,.705-.235.752-.893.047-.893.094-2.726.094-3.149.188-3.2.188-5.123.47-8.272.094-1.363.282-2.914.376-4.277,0-.658-.094-1.034-.564-1.128-.47-.047-1.175.141-1.692.141-2.538.141-3.619.235-6.251.235-1.316,0-4.277-.094-5.64-.141-.893-.047-1.786-.141-2.679-.141-.235,0-.329.47-.329.752,0,.846.188,1.786.235,2.679.141,2.632.376,3.995.423,6.674.094,1.739.188,3.478.188,5.217,0,.376-.047.987,0,1.551C-68.15-.423-67.962-.141-67.586-.141Zm3.9-5.076-.376-7.755c2.444,0,4.935-.141,7.332,0-.141,2.867-.282,4.888-.376,7.755C-59.314-5.311-61.476-5.264-63.685-5.217Zm2.35-20.163c-2.773,0-5.922-.047-8.7-.047h-8.46c-.094-1.457-.188-4.089-.329-5.64,4.888-.047,6.439-.094,8.789-.094,3.055,0,7.99,0,9.118.047C-61.1-29.281-61.288-26.837-61.335-25.38ZM-31.161.047a7.371,7.371,0,0,0,1.175-.188,20.967,20.967,0,0,0,2.3-.658,32.4,32.4,0,0,0,7.708-4.23A30.041,30.041,0,0,0-11.7-14.288c.846-1.41,1.645-3.055,2.632-4.418.188-.188.47-.517.8-.8.423-.376.846-.564.846-.987,0-.376-.188-.611-.611-1.034a23.477,23.477,0,0,0-2.4-2.068,2.32,2.32,0,0,0-1.081-.564c-.235,0-.564.376-.94.658a3.285,3.285,0,0,1-1.222.47,18.191,18.191,0,0,1-2.3.235c-2.632,0-5.311.047-7.99.141-2.961.094-5.922.235-8.93.235-.705,0-1.41-.047-2.068-.094-.987-.047-1.457-.235-1.927-.235-.423,0-.423.564-.423,1.081V-18c0,.517,0,.846.658.893A8.258,8.258,0,0,0-35.2-17.3c2.162-.235,4.136-.423,6.2-.517,2.679-.141,5.358-.282,8.084-.329,1.927-.047,3.854-.141,5.828-.141-2.35,4.324-4.888,7.52-9.259,10.011A36.864,36.864,0,0,1-34.733-4.653c-.282.047-1.222.188-1.222.611s.423.658.752.893c.752.658,1.927,1.645,2.773,2.4C-32.1-.47-31.678.047-31.161.047ZM-32.43-27.119c.423,0,1.269-.047,1.692-.094.8-.094,1.645-.047,2.444-.094,2.115-.141,4.23-.235,6.345-.235,2.3,0,4.653,0,7,.094.893,0,1.88.141,2.773.141.611,0,.564-.329.752-.846.047-.282.235-1.363.47-2.3.141-.846.376-1.645.376-1.833,0-.376-.188-.47-.564-.47s-.752.141-1.128.141c-.8.094-1.692.188-2.538.235-2.82,0-5.64.188-8.46.188-1.457,0-2.914,0-4.371-.094-.94-.047-1.88,0-2.82-.047-.564,0-1.41-.141-1.974-.141-.517,0-.564.282-.564.893,0,1.034.047,3.008,0,3.431C-33.041-27.354-32.9-27.119-32.43-27.119ZM23.97-1.175c1.128,0,3.008-.047,4.136,0,.564,0,.846-.235.846-.846,0-.987-.094-1.927-.094-2.867v-9.964c0-2.35-.047-4.747.094-7.1.047-.517.235-.94.235-1.457,0-.47-.517-.329-.893-.423.94-.752,1.88-1.457,2.773-2.209,1.5-1.222,2.961-2.491,4.465-3.666.47-.329,1.5-.94,1.5-1.6a1.758,1.758,0,0,0-.658-1.081c-.329-.282-1.833-1.457-2.914-2.162a2.589,2.589,0,0,0-1.175-.564c-.329,0-.376.282-.564.611a10.775,10.775,0,0,1-.8,1.269,25.709,25.709,0,0,1-2.914,3.29A54.349,54.349,0,0,1,20.4-24.3a50.625,50.625,0,0,1-8.7,4.465L8.7-18.847c-.235.047-1.175.188-1.175.517,0,.188.47.611.846,1.034l2.115,2.35c.329.376.564.752,1.034.752a5.876,5.876,0,0,0,1.316-.376,83.207,83.207,0,0,0,11.327-6.251,15.179,15.179,0,0,0,0,2.068c0,3.337-.141,6.674-.329,9.964-.094,1.551-.282,3.149-.423,4.7a20.97,20.97,0,0,0-.329,2.4C23.077-1.175,23.547-1.175,23.97-1.175Zm35.814-.564a3.84,3.84,0,0,0,1.034-.235c.846-.282,1.88-.705,2.35-.893a65.268,65.268,0,0,0,7.238-3.666A58.605,58.605,0,0,0,85.963-18.988c.329-.376.893-.987.893-1.551a4.523,4.523,0,0,0-.329-.987c-.47-.94-.893-1.88-1.269-2.679-.141-.282-.376-.893-.752-.94-.329,0-.47.329-.752.658-.376.423-.8.987-.94,1.175A50.5,50.5,0,0,1,69.56-11.7a38.607,38.607,0,0,1-9.917,4.277l-1.5.329c-.423.094-.611.188-.658.47a3.183,3.183,0,0,0,.376,1.222c.329.94.752,1.88,1.081,2.585C59.079-2.444,59.314-1.739,59.784-1.739Zm8.789-20.4c.329,0,.423-.423.611-.8.282-.658.658-1.927.987-2.867.188-.564.376-1.034.376-1.128a.5.5,0,0,0-.376-.517l-1.222-.517c-1.551-.517-6.862-2.491-9.212-3.055a3.194,3.194,0,0,0-.893-.141c-.282.047-.564.564-.705.846-.235.517-.8,1.6-1.128,2.538a3.414,3.414,0,0,0-.282,1.034c0,.376,1.081.564,1.316.658a42.514,42.514,0,0,1,5.828,1.974c1.175.517,2.773,1.175,3.9,1.645A2.877,2.877,0,0,0,68.573-22.137ZM105.186-2.068a12.4,12.4,0,0,0,3.2-.611c4.747-1.41,9.306-4.418,11.468-8.977,1.128-2.444,1.316-6.016,1.41-8.648,3.29.141,6.58.188,9.87.282l3.713.188c.705,0,.611-.329.658-1.081.094-.752.188-1.786.329-2.632a17.686,17.686,0,0,0,.282-1.786c-.047-.423-.094-.47-.517-.47-.987,0-2.021.329-3.008.423-3.008.282-6.063.329-9.071.329h-2.209l.141-3.666c.094-1.363.329-3.337.329-4.418,0-.611-.282-.7-.987-.7-.8,0-3.008,0-4.042.047-.47.047-.705.188-.705.564,0,.47.141,1.081.188,1.551.094.94.141,1.88.188,2.867v3.76h-7c-1.645,0-3.243-.047-4.888-.047-.752,0-1.5-.094-2.209-.141-.564-.047-1.081-.235-1.6-.235-.611,0-.658.564-.658,1.034v3.807c0,.8.047.94.8.94,1.363.047,2.867-.188,4.23-.282,3.76-.282,7.52-.423,11.28-.47-.094,5.17-.423,8.6-5.358,11.233a27.355,27.355,0,0,1-7.379,2.256c-.188.047-.611.094-.987.141-.423.094-.8.094-.846.423-.047.376.235.564.658,1.222l1.692,2.444C104.434-2.35,104.669-2.068,105.186-2.068Zm55.319-.282a2.853,2.853,0,0,0,1.034-.282,13.961,13.961,0,0,0,2.162-.987c6.721-3.572,10.434-8.272,13.113-15.416.141-.376.611-1.786.846-2.679a3.258,3.258,0,0,0,.141-.752c0-.517-.423-.658-.8-.8-.329-.141-1.692-.705-2.4-.94a2.963,2.963,0,0,0-.94-.282c-.47,0-.47.8-.517,1.175a20.493,20.493,0,0,1-.94,3.807,22.835,22.835,0,0,1-3.948,7.191c-2.773,3.243-6.157,4.747-10.105,6.063-.282.094-.893.235-.893.611a2.36,2.36,0,0,0,.611.846c.564.611,1.175,1.222,1.833,1.88A1.98,1.98,0,0,0,160.505-2.35Zm-5.452-11.139a1.931,1.931,0,0,0,1.081-.329c.564-.329,1.5-.846,2.021-1.175.282-.188.658-.376.658-.752a4.54,4.54,0,0,0-.329-.94,25.479,25.479,0,0,0-3.384-6.2c-.282-.282-.423-.611-.846-.611a6.018,6.018,0,0,0-.8.235,14.6,14.6,0,0,0-2.115,1.034c-.329.141-.517.329-.517.517,0,.282.329.658.47.846a24.941,24.941,0,0,1,3.008,6.157C154.489-14.241,154.677-13.536,155.053-13.489Zm8.789-1.692a1.654,1.654,0,0,0,.846-.235c.658-.423,1.5-.8,2.209-1.269.329-.235.658-.423.658-.658a5.808,5.808,0,0,0-.47-1.363,42.36,42.36,0,0,0-3.243-5.969c-.235-.329-.376-.564-.8-.564a2.311,2.311,0,0,0-.8.188,18.322,18.322,0,0,0-2.256.987c-.329.188-.47.376-.47.564a3.537,3.537,0,0,0,.8,1.41,31.276,31.276,0,0,1,2.867,5.922C163.372-15.792,163.466-15.228,163.842-15.181ZM201.113-2.162a5.737,5.737,0,0,0,1.41-.329c1.034-.329,2.3-.846,2.82-1.081,9.259-4.183,14.476-10.763,18.1-20.022a9.734,9.734,0,0,1,1.833-2.961c.329-.376.94-.8.94-1.316,0-.235-.235-.47-.611-.893a27.117,27.117,0,0,0-2.021-1.927c-.517-.423-.846-.658-1.081-.658-.423,0-.846.423-1.316.658a5.5,5.5,0,0,1-1.175.329,12.038,12.038,0,0,1-1.833.141c-2.82,0-5.687.047-8.507.047-2.538,0-5.123.047-7.661-.047-1.316-.047-3.2-.329-4.089-.329-.7.047-.7.423-.7.987v4.183c0,.47,0,.611.423.658.47,0,2.068-.282,2.961-.329,2.632-.141,5.217-.47,7.9-.47,3.478,0,7-.047,10.481-.047-2.4,7.191-6.768,13.066-13.818,16.168a41.144,41.144,0,0,1-6.3,2.068c-.188.047-.8.141-1.41.329-.658.141-1.269.235-1.269.517,0,.564.47.846,1.128,1.363.423.376,1.269,1.128,2.162,1.833C200.267-2.632,200.737-2.162,201.113-2.162Zm28.341-28.67a4.194,4.194,0,0,0,4.23-4.277,4.574,4.574,0,0,0-4.606-4.559,4.183,4.183,0,0,0-4.23,4.23A4.613,4.613,0,0,0,229.454-30.832Zm-.047-2.162a2.388,2.388,0,0,1-2.35-2.35,2.067,2.067,0,0,1,2.068-2.115,2.288,2.288,0,0,1,2.35,2.3A2.107,2.107,0,0,1,229.407-32.994Z" transform="translate(281.888 92.006)"/></g></svg>