<svg xmlns="http://www.w3.org/2000/svg" width="85" height="85" viewBox="0 0 85 85"><g transform="translate(8340 -1929)"><path d="M42.5,0A42.5,42.5,0,1,1,0,42.5,42.5,42.5,0,0,1,42.5,0Z" transform="translate(-8340 1929)" fill="#eb3e2f"/><path d="M-1.182-11.422a11.237,11.237,0,0,1-.7,4.469A10.663,10.663,0,0,1-6.6-.187,7.165,7.165,0,0,1-10.4.969,7.747,7.747,0,0,1-15.464-.937a11.659,11.659,0,0,1-3.266-4.422,14.687,14.687,0,0,1-1.25-6.062A15.994,15.994,0,0,1-18.9-17.312a11.062,11.062,0,0,1,3.461-4.836,7.791,7.791,0,0,1,4.883-1.758q4.063,0,6.828,3.891A12.029,12.029,0,0,1-1.886-16,11.455,11.455,0,0,1-1.182-11.422Zm-5.2,0a21.176,21.176,0,0,0-1.141-7.422q-.984-2.609-2.938-2.609h-.062q-1.938,0-3,2.547a19.691,19.691,0,0,0-1.219,7.484q0,6.484,2.078,8.984A2.854,2.854,0,0,0-10.4-1.312q1.891,0,2.875-2.656A21.607,21.607,0,0,0-6.386-11.422ZM19.12-6.25v.813a5.46,5.46,0,0,1-1.141,2.719A7.3,7.3,0,0,1,15.573-.656,11.074,11.074,0,0,1,12.62.563,14.054,14.054,0,0,1,9.229.969a13.674,13.674,0,0,1-4.469-.7,5.309,5.309,0,0,1-3.406-2.7q-.094-.281-.187-.672A2.5,2.5,0,0,1,1-3.875l.422-1.219a2.274,2.274,0,0,1,.7-1.016,2.149,2.149,0,0,1,1.672-.547,3.061,3.061,0,0,1,2.039.7,2.343,2.343,0,0,1,.836,1.891V-3.3q-.094.438-.125.609a1.432,1.432,0,0,0,.672.828A2.843,2.843,0,0,0,9.1-1.312a3.956,3.956,0,0,0,3.344-1.562A5.791,5.791,0,0,0,13.526-6.5a4.528,4.528,0,0,0-1.516-3.8,3.061,3.061,0,0,0-1.922-.625l-1.141.141-1.312.094q-2.187.156-2.187-1.578,0-1.5,2.344-1.5l1.281.125.922.125q1.422,0,2.25-2.062a6.307,6.307,0,0,0,.375-2.281,4.16,4.16,0,0,0-.953-2.609,2.557,2.557,0,0,0-2.141-.984q-2.281,0-2.656,1.547L7-18.625a2.36,2.36,0,0,1-.742,1.734,2.415,2.415,0,0,1-1.758.734,3.494,3.494,0,0,1-2.234-.7,2.551,2.551,0,0,1-.969-2.094.671.671,0,0,0,.094-.437q.625-2.719,4.906-3.937a14.466,14.466,0,0,1,3.969-.516,9.9,9.9,0,0,1,3.7.8,7.415,7.415,0,0,1,2.8,1.906A4.8,4.8,0,0,1,18.1-18.078a4.52,4.52,0,0,1-1.25,3.266A7.939,7.939,0,0,1,14.089-12.7l-.609.281A9.86,9.86,0,0,1,16.9-10.656,5.3,5.3,0,0,1,19.12-6.25Z" transform="translate(-8297 1983)" fill="#fff"/></g></svg>