<svg xmlns="http://www.w3.org/2000/svg" width="85" height="85" viewBox="0 0 85 85"><g transform="translate(8340 -1772)"><path d="M42.5,0A42.5,42.5,0,1,1,0,42.5,42.5,42.5,0,0,1,42.5,0Z" transform="translate(-8340 1772)" fill="#eb3e2f"/><path d="M-1.362-11.422a11.237,11.237,0,0,1-.7,4.469A10.663,10.663,0,0,1-6.784-.187a7.165,7.165,0,0,1-3.8,1.156A7.747,7.747,0,0,1-15.643-.937a11.659,11.659,0,0,1-3.266-4.422,14.687,14.687,0,0,1-1.25-6.062,15.994,15.994,0,0,1,1.078-5.891,11.062,11.062,0,0,1,3.461-4.836,7.791,7.791,0,0,1,4.883-1.758q4.063,0,6.828,3.891A12.029,12.029,0,0,1-2.065-16,11.455,11.455,0,0,1-1.362-11.422Zm-5.2,0a21.176,21.176,0,0,0-1.141-7.422q-.984-2.609-2.938-2.609h-.062q-1.938,0-3,2.547a19.691,19.691,0,0,0-1.219,7.484q0,6.484,2.078,8.984a2.854,2.854,0,0,0,2.266,1.125q1.891,0,2.875-2.656A21.607,21.607,0,0,0-6.565-11.422ZM19.1-6.5,17.018.641H1.112L.737-1.7q.969-1.406,1.75-2.391.578-.719,1.641-1.8,1.984-2,3.891-3.781,1.125-.984,3.719-3.516a6.049,6.049,0,0,0,1.75-4.328,4.053,4.053,0,0,0-.531-2.141,4.924,4.924,0,0,0-.609-.8,4.293,4.293,0,0,0-3-1.078,3.5,3.5,0,0,0-2.016.594,2.407,2.407,0,0,0-.937,1.375,6.1,6.1,0,0,0,.422.938,3.127,3.127,0,0,1,.578,1.688q0,1.734-2.766,2.313a3.151,3.151,0,0,1-1.945-.641,2.823,2.823,0,0,1-1.086-1.7,2.916,2.916,0,0,1-.094-.859,4.715,4.715,0,0,1,1.469-3.234,9.218,9.218,0,0,1,7.047-2.844,11.236,11.236,0,0,1,4.156.828,9.353,9.353,0,0,1,1.922,1,9.557,9.557,0,0,1,1.5,1.469,5.453,5.453,0,0,1,1.344,3.672,5.5,5.5,0,0,1-.8,2.625,8.361,8.361,0,0,1-1.656,2.078,17.938,17.938,0,0,1-2.437,1.953q-.391.25-1.375.906l-1.219.844A25.73,25.73,0,0,0,5.722-3.141H8.19a25.171,25.171,0,0,0,4.922-.281,4.428,4.428,0,0,0,1.766-.969,5.269,5.269,0,0,0,.984-1.25q.156-.266.766-1.344Z" transform="translate(-8297 1826)" fill="#fff"/></g></svg>