<svg xmlns="http://www.w3.org/2000/svg" width="85" height="85" viewBox="0 0 85 85"><g transform="translate(8340 -2086)"><path d="M42.5,0A42.5,42.5,0,1,1,0,42.5,42.5,42.5,0,0,1,42.5,0Z" transform="translate(-8340 2086)" fill="#eb3e2f"/><path d="M-1.456-11.422a11.237,11.237,0,0,1-.7,4.469A10.663,10.663,0,0,1-6.878-.187a7.165,7.165,0,0,1-3.8,1.156A7.747,7.747,0,0,1-15.737-.937,11.659,11.659,0,0,1-19-5.359a14.687,14.687,0,0,1-1.25-6.062,15.994,15.994,0,0,1,1.078-5.891,11.062,11.062,0,0,1,3.461-4.836,7.791,7.791,0,0,1,4.883-1.758q4.063,0,6.828,3.891A12.029,12.029,0,0,1-2.159-16,11.455,11.455,0,0,1-1.456-11.422Zm-5.2,0A21.176,21.176,0,0,0-7.8-18.844q-.984-2.609-2.938-2.609H-10.8q-1.938,0-3,2.547a19.691,19.691,0,0,0-1.219,7.484q0,6.484,2.078,8.984a2.854,2.854,0,0,0,2.266,1.125q1.891,0,2.875-2.656A21.607,21.607,0,0,0-6.659-11.422ZM19.456-5.047H15.237v.953l.188,1.688q.234.594,1.187.672.391.047,1.563.047V.641H6.94V-1.687q2.828,0,3.2-.706A10.231,10.231,0,0,0,10.237-4V-5.047H.581V-7.359L12.316-23.906h2.922V-7.844h4.219Zm-9.219-2.8v-8.135L4.583-7.844Z" transform="translate(-8296 2140)" fill="#fff"/></g></svg>