<svg xmlns="http://www.w3.org/2000/svg" width="60" height="60" viewBox="0 0 60 60"><g transform="translate(-0.362)"><circle cx="30" cy="30" r="30" transform="translate(0.362)" fill="#eb3e2f"/><path d="M12.114.6H.059L.044-1.582A14.91,14.91,0,0,0,3.076-1.76q.454-.134.454-.46a4.715,4.715,0,0,0-.162-.935L1.677-7.368h-8.17L-7.942-3.839l-.32,1.165a1.19,1.19,0,0,0,.542.8,9.106,9.106,0,0,0,2.9.3V.6H-15.469V-1.582a4.55,4.55,0,0,0,2.856-.689A6.564,6.564,0,0,0-10.84-4.983l7.017-17.488,4.409-1L7.94-4.98a6.991,6.991,0,0,0,1.479,2.52,3.745,3.745,0,0,0,2.7.923ZM.721-9.932l-3.11-7.579L-5.448-9.932Z" transform="translate(32.04 40)" fill="#fff"/></g></svg>