<svg xmlns="http://www.w3.org/2000/svg" width="60" height="60" viewBox="0 0 60 60"><g transform="translate(-0.362)"><circle cx="30" cy="30" r="30" transform="translate(0.362)" fill="#004a83"/><path d="M12.847,2.051A8.183,8.183,0,0,1,7.266,4.233q-3.442,0-5.156-3.574A17.114,17.114,0,0,1-.762.908,11.9,11.9,0,0,1-9.683-2.769a11.455,11.455,0,0,1-3.325-8.276,11.588,11.588,0,0,1,1.714-5.9A11.682,11.682,0,0,1-6.973-21.24,12.543,12.543,0,0,1-.557-22.925a13.332,13.332,0,0,1,5.039.952,12.3,12.3,0,0,1,3.926,2.622,11.161,11.161,0,0,1,3.428,8.335,12.35,12.35,0,0,1-1.348,5.757A10.3,10.3,0,0,1,6.46-.967,3.446,3.446,0,0,0,9.434,1.172,6.932,6.932,0,0,0,11.689.6ZM6.24-11.022q0-5.806-3.047-8.4a5.476,5.476,0,0,0-3.662-1.32A6.031,6.031,0,0,0-4.541-19.32,7.4,7.4,0,0,0-6.8-15.581a16.686,16.686,0,0,0-.63,4.56A13.7,13.7,0,0,0-6.4-5.405a2.992,2.992,0,0,1,.894-.718,5.649,5.649,0,0,1,2.856-.688,8.761,8.761,0,0,1,2.93.571,8.46,8.46,0,0,1,1.3.549A13.4,13.4,0,0,1,2.8-4.863q.264.19.718.571.161.132.7.63A8.534,8.534,0,0,0,5.654-6.389a15.515,15.515,0,0,0,.41-2.2A18.3,18.3,0,0,0,6.24-11.022ZM1.157-1.509q-1.143-2.9-3.4-3.12a3.242,3.242,0,0,0-1.743.454.93.93,0,0,0-.469.835,1.708,1.708,0,0,0,.6,1.025A4.684,4.684,0,0,0-.615-1.23,7.046,7.046,0,0,0,1.157-1.509Z" transform="translate(30.443 40)" fill="#fff"/></g></svg>