<svg xmlns="http://www.w3.org/2000/svg" xmlns:xlink="http://www.w3.org/1999/xlink" width="549" height="229" viewBox="0 0 549 229"><defs><clipPath id="a"><rect width="549" height="229" transform="translate(1371 1489)" fill="#fff" stroke="#707070" stroke-width="1"/></clipPath></defs><g transform="translate(-1371 -1489)" clip-path="url(#a)"><g transform="translate(43.416 -42.989)"><rect width="56" height="7" rx="3.5" transform="translate(1534.054 1554.989)" fill="#f5e16e"/><path d="M48.048,215.363H369.341c26.427,0,48.048-17.3,48.048-38.452s-21.621-38.452-48.048-38.452H48.048C21.621,138.459,0,155.762,0,176.911s21.621,38.452,48.048,38.452" transform="translate(1531.324 1519.958)" fill="#f5e16e"/><path d="M162.946,27.828H481.927c.674,0,1.343.019,2.009.054a51.088,51.088,0,0,1,48.807,50.879h0A51.084,51.084,0,0,1,481.809,129.7H355.7v-.11h.018a12.791,12.791,0,0,0,12.791-12.791v0A12.791,12.791,0,0,0,355.722,104H355.7v-.047H162.946a38.064,38.064,0,0,1,0-76.127" transform="translate(1202.512 1529.143)" fill="#f5e16e"/><path d="M121.316,243.033A12.737,12.737,0,0,1,108.578,230.3v0a12.738,12.738,0,0,1,12.738-12.738h30.27a12.737,12.737,0,0,0,12.738-12.738h0a12.737,12.737,0,0,0-12.738-12.738H56.94A12.739,12.739,0,0,1,44.2,179.342v0A12.738,12.738,0,0,1,56.94,166.6H211.083a12.737,12.737,0,0,1,12.738,12.738v0a12.738,12.738,0,0,1-12.738,12.738H199.062a12.737,12.737,0,0,0-12.738,12.738h0a12.737,12.737,0,0,0,12.738,12.738h69.169a12.739,12.739,0,0,1,12.739,12.738v0a12.738,12.738,0,0,1-12.739,12.738Z" transform="translate(1528.267 1517.621)" fill="#fffabe"/><path d="M338.055,28.511H292.661a12.938,12.938,0,0,1-12.938-12.938v0A12.938,12.938,0,0,1,292.661,2.633H415.913a12.938,12.938,0,0,1,12.938,12.938v0a12.938,12.938,0,0,1-12.938,12.938H386.277c-7.146,0-12.938,3.16-12.938,10.306v0a12.939,12.939,0,0,0,12.938,12.938h52.694A12.938,12.938,0,0,1,451.91,64.695v0a12.938,12.938,0,0,1-12.938,12.937H307.424a12.939,12.939,0,0,0-12.938,12.939h0a12.938,12.938,0,0,0,12.938,12.938h48.952a12.938,12.938,0,0,1,12.938,12.938v0a12.938,12.938,0,0,1-12.938,12.938H237.532a12.938,12.938,0,0,1-12.938-12.938v0a12.939,12.939,0,0,1,12.938-12.938h15.962a12.938,12.938,0,0,0,12.938-12.938h0a12.939,12.939,0,0,0-12.938-12.939H184.858A12.938,12.938,0,0,1,171.92,64.7v0a12.938,12.938,0,0,1,12.938-12.938h153.2a12.939,12.939,0,0,0,12.938-12.938v0c0-7.146-5.792-10.306-12.938-10.306" transform="translate(1240.212 1529.449)" fill="#fffabe"/></g></g></svg>