<svg xmlns="http://www.w3.org/2000/svg" xmlns:xlink="http://www.w3.org/1999/xlink" width="149.693" height="191.765" viewBox="0 0 149.693 191.765"><defs><clipPath id="a"><rect width="149.693" height="191.765" fill="none"/></clipPath></defs><g clip-path="url(#a)"><path d="M38.734,78.469s1.8,7.825,5.506,12.873a27.85,27.85,0,0,0,8.283,6.9l11.321,4.694a17.709,17.709,0,0,0,9.75,3.233c12.869,0,20.069-15.935,21.658-25.57,1.07-6.494.771-12.918,1.058-19.392.341-7.7.427-15.222-2.143-22.62-2.7-7.769-9.664-17.769-18.618-18.231-7.748-.4-15.21,4.991-20.816,9.687C44.516,38.605,43.694,46.921,41.2,55.172a68.112,68.112,0,0,0-2.469,23.3" transform="translate(23.013 -4.417)" fill="#fff"/><path d="M97.554,1.778c-2.143,7.763,3.751,15.148,6.818,22.595a33.824,33.824,0,0,1-.487,26.554,51.823,51.823,0,0,0-3.1-15.8c-1.267-3.466-3.391-7.2-7.01-7.917-2.094-.417-4.223.291-6.3.777a30.853,30.853,0,0,1-8.827.759,8.441,8.441,0,0,0-2.745.1c-2.464.682-3.509,3.547-5.4,5.269C66.87,37.425,60.941,35.97,56.514,38.1,52.625,39.975,50.563,44.27,49.3,48.4c-.927,3.028-.762,12.518-3.014,14.326,1.6-1.285-3.238-7.035-4.554-7.351-2.661-.639-5.888,2.727-4.357,5.366-3.109-4.246-2.608-10.043-1.966-15.267C36.843,33.779,37.7,21.58,48.069,14,56.6,7.767,69.616,9.66,79.4,9.457c6.617-.139,14.358-1.613,18.158-7.679" transform="translate(15.502 -0.386)" fill="#ffdebe"/><path d="M148.792,223.056s-3.041-32.225-9.128-44.78c-4.418-9.112-23.746-15.738-23.746-15.738l-62.676-12.7-6.352,2.209s-22.2,2.078-27.917,9.387c-9.94,12.7-17.38,61.623-17.38,61.623Z" transform="translate(-0.346 -32.54)" fill="#ffdebe"/><path d="M98.378,120.577s-1.933,22.4-1.1,24.328a10.048,10.048,0,0,0,2.485,3.313l7.731,4.418-7.455,6.35-50.8-18.5,10.657-4.454c2.456-4.458,3.7-15.687,3.7-29.247Z" transform="translate(3.664 -23.191)" fill="#fff"/><path d="M63.37,93.044a1.5,1.5,0,1,0,1.5-1.5,1.5,1.5,0,0,0-1.5,1.5" transform="translate(33.719 -19.881)" fill="#1a1311"/><path d="M109.01,111.039c0,6.9-1.244,21.461-3.7,25.919" transform="translate(-41.757 -24.114)" fill="none" stroke="#1a1311" stroke-linecap="round" stroke-linejoin="round" stroke-width="3.189"/><path d="M38.77,115.42a26.172,26.172,0,0,0,9.75,1.9c12.868,0,20.069-15.935,21.657-25.57a96.866,96.866,0,0,0,.914-20.071" transform="translate(48.087 -15.567)" fill="none" stroke="#1a1311" stroke-linecap="round" stroke-linejoin="round" stroke-width="3.189"/><path d="M56.762,102.386s1.739,4.447,7.776,4.447,7.776-4.447,7.776-4.447" transform="translate(32.944 -22.235)" fill="none" stroke="#1a1311" stroke-linecap="round" stroke-linejoin="round" stroke-width="3.189"/><path d="M85.212,72.184a1.93,1.93,0,1,0,1.93-1.931,1.931,1.931,0,0,0-1.93,1.931" transform="translate(-6.086 -15.257)" fill="#1a1311"/><path d="M52.387,72.184a1.93,1.93,0,1,0,1.93-1.931,1.931,1.931,0,0,0-1.93,1.931" transform="translate(52.435 -15.257)" fill="#1a1311"/><path d="M108.518,115.036a37.116,37.116,0,0,1-8.283-7.568c-3.7-5.048-5.506-12.873-5.506-12.873" transform="translate(-32.982 -20.543)" fill="none" stroke="#1a1311" stroke-linecap="round" stroke-linejoin="round" stroke-width="3.189"/><path d="M60.418,132.907s-1.933,15.738-1.1,17.671a10.055,10.055,0,0,0,2.485,3.314" transform="translate(41.624 -28.863)" fill="none" stroke="#1a1311" stroke-linecap="round" stroke-linejoin="round" stroke-width="3.189"/><path d="M108.756,165.874l-2.889,2.462-32.3-11.76-12.716-4.63-5.791-2.109" transform="translate(-2.167 -32.54)" fill="none" stroke="#1a1311" stroke-linecap="round" stroke-linejoin="round" stroke-width="3.189"/><path d="M177.059,152.659s-22.2,2.078-27.917,9.388c-9.94,12.7-17.379,61.622-17.379,61.622" transform="translate(-130.514 -33.153)" fill="none" stroke="#1a1311" stroke-linecap="round" stroke-linejoin="round" stroke-width="3.189"/><path d="M1.594,166.061S20.921,172.688,25.34,181.8c6.087,12.556,9.128,44.78,9.128,44.78" transform="translate(113.978 -36.063)" fill="none" stroke="#1a1311" stroke-linecap="round" stroke-linejoin="round" stroke-width="3.189"/><line x1="3.297" y2="20.206" transform="translate(47.665 170.31)" fill="none" stroke="#1a1311" stroke-linecap="round" stroke-linejoin="round" stroke-width="3.189"/><line x2="3.882" y2="28.214" transform="translate(134.899 162.303)" fill="none" stroke="#1a1311" stroke-linecap="round" stroke-linejoin="round" stroke-width="3.189"/><path d="M55.872,61.957a7.922,7.922,0,0,0-7.708.208" transform="translate(56.117 -13.26)" fill="none" stroke="#1a1311" stroke-linecap="round" stroke-linejoin="round" stroke-width="3.189"/><path d="M82.706,61.957a7.922,7.922,0,0,1,7.708.208" transform="translate(-5.465 -13.26)" fill="none" stroke="#1a1311" stroke-linecap="round" stroke-linejoin="round" stroke-width="3.189"/><path d="M41.454,61.983a38.906,38.906,0,0,0-3.384-17.639" transform="translate(78.364 -9.63)" fill="none" stroke="#1a1311" stroke-linecap="round" stroke-linejoin="round" stroke-width="3.189"/><path d="M117.629,70.677a3.265,3.265,0,0,0-5.48-.659c-1.168,1.5-1.477,7.792-1.03,9.377.89,3.161,6.109,8.2,9.067,9.6L121.3,75.56Z" transform="translate(-58.438 -14.942)" fill="#fff"/><path d="M119.049,70.677a3.265,3.265,0,0,0-5.48-.659c-1.168,1.5-1.477,7.792-1.03,9.377.89,3.161,6.109,8.2,9.067,9.6" transform="translate(-59.858 -14.942)" fill="none" stroke="#1a1311" stroke-linecap="round" stroke-linejoin="round" stroke-width="3.189"/><path d="M110.58,65.365a16.034,16.034,0,0,0-1.7,9.448" transform="translate(-46.02 -14.195)" fill="none" stroke="#1a1311" stroke-linecap="round" stroke-linejoin="round" stroke-width="3.189"/><path d="M55.347,146.846c31.183,33.677,46.892,75.561,46.892,75.561" transform="translate(4.126 -31.89)" fill="none" stroke="#1a1311" stroke-linecap="round" stroke-linejoin="round" stroke-width="3.189"/><path d="M42.177,161.717c12.057,15.8,9.058,63.92,9.058,63.92" transform="translate(65.109 -35.12)" fill="none" stroke="#1a1311" stroke-linecap="round" stroke-linejoin="round" stroke-width="3.189"/><path d="M45.888,17.546c2.889-5.285,9.3-7.622,15.3-8.159s12.1.278,18.034-.739A29.748,29.748,0,0,0,93.879,1.6" transform="translate(19.892 -0.346)" fill="none" stroke="#1a1311" stroke-linecap="round" stroke-linejoin="round" stroke-width="3.189"/><path d="M79.842,36.514c1.473,4.351,6.231,6.9,10.815,7.193s9.07-1.217,13.415-2.7" transform="translate(-16.882 -7.93)" fill="none" stroke="#1a1311" stroke-linecap="round" stroke-linejoin="round" stroke-width="3.189"/><path d="M54.2,25.789c11.231,2.842,24.06-3.253,28.95-13.756" transform="translate(24.112 -2.613)" fill="none" stroke="#1a1311" stroke-linecap="round" stroke-linejoin="round" stroke-width="3.189"/><path d="M59.717,26.431a8.3,8.3,0,0,1-10.044,6.633" transform="translate(51.091 -5.74)" fill="none" stroke="#1a1311" stroke-linecap="round" stroke-linejoin="round" stroke-width="3.189"/><path d="M40.582,44.5A30.743,30.743,0,0,0,35.1,22.134" transform="translate(81.312 -4.807)" fill="none" stroke="#1a1311" stroke-linecap="round" stroke-linejoin="round" stroke-width="3.189"/><path d="M117.315,30.815c-2.687,3.735-2.9,8.807-1.659,13.237s3.766,8.372,6.257,12.24" transform="translate(-62.189 -6.692)" fill="none" stroke="#1a1311" stroke-linecap="round" stroke-linejoin="round" stroke-width="3.189"/><path d="M126.666,50.7a29.1,29.1,0,0,0,.005,16.8" transform="translate(-75.168 -11.011)" fill="none" stroke="#1a1311" stroke-linecap="round" stroke-linejoin="round" stroke-width="3.189"/></g></svg>