<svg xmlns="http://www.w3.org/2000/svg" xmlns:xlink="http://www.w3.org/1999/xlink" width="146.712" height="188.543" viewBox="0 0 146.712 188.543"><defs><clipPath id="a"><rect width="146.712" height="188.543" fill="none"/></clipPath></defs><g clip-path="url(#a)"><path d="M127.92,143.1c-5.867-7.5-21.806-9.629-21.806-9.629L99.6,131.2l-10.931-4.567c-2.519-4.573-3.795-16.091-3.795-30L49.189,110.782s1.982,22.971,1.133,24.953a10.3,10.3,0,0,1-2.549,3.4l-7.929,4.531-4.532.567s-19.824,6.8-24.355,16.143C4.713,173.252,1.594,206.3,1.594,206.3h144.15s-7.63-50.179-17.825-63.207" transform="translate(-0.314 -19.042)" fill="#fff"/><path d="M127.92,148.632c-5.867-7.5-21.806-9.629-21.806-9.629L99.6,136.737l-7.472-3.062c-.79-1.435-.488-6.292-1.033-8.954-19.724,8.531-33.655,14.622-39.019,13.256-2.937-.748-5.9-2.689-6.093-2.236-.85,1.982-.076,8.93-.076,8.93L39.843,149.2l-4.532.567s-19.824,6.8-24.355,16.143c-6.243,12.878-9.362,45.931-9.362,45.931h144.15s-7.63-50.179-17.825-63.207" transform="translate(-0.314 -24.576)" fill="#ffdebe"/><path d="M130.987,49.279c2-1.18,4.75-.17,6.147,1.691a11.037,11.037,0,0,1,1.734,6.637,12.475,12.475,0,0,1-.824,5.061,5.774,5.774,0,0,1-3.657,3.393c-.829.213-1.7.185-2.54.359a24.583,24.583,0,0,0-4.084,1.752c-1.375.56-3.11.731-4.211-.266,2.019-3.439-.337-7.723-.411-11.71-.027-1.493.67-11.367,1.483-12.194,2.585-2.627,6.635,2.709,6.364,5.277" transform="translate(-24.265 -8.531)" fill="#ffdebe"/><path d="M97.846,69.257S96,77.283,92.2,82.461a28.566,28.566,0,0,1-8.5,7.08L72.092,94.356a31.352,31.352,0,0,1-10.229,1.773c-13.2,0-20.357-14.8-21.986-24.683a99.38,99.38,0,0,1-.936-20.586l2.848-17.675C43.95,24.962,48.06,14.362,56.77,10.461c0,0,13.977-9.413,30.71,4.606,10.478,8.779,7.639,21.045,10.2,29.508,3.657,12.112.172,24.682.172,24.682" transform="translate(-7.64 -1.452)" fill="#fff"/><path d="M53.994,7.82C60.4,3.115,68.751,2.18,76.68,1.59a27.323,27.323,0,0,1,7.861.2A19.839,19.839,0,0,1,91.815,5.3c13.251,9.6,17.756,27.991,14.923,44.108-1.608-5.06-6.308.483-8.5.349-3.315-.2-4.973-4.421-6.187-7.172a53.75,53.75,0,0,1-2.114-6.027,14.155,14.155,0,0,0-.744-2.436c-.452-.866-.915-1.726-1.355-2.6a30.609,30.609,0,0,0-4.065-6.2,20.56,20.56,0,0,0-4.2-3.758,9.474,9.474,0,0,0-5.076-1.449A15.148,15.148,0,0,0,69,20.856c-.427.143-4.977,2.307-4.683,2.7-2.806-3.731-8.592-4.016-12.74-1.874-9.365,4.835-14.339,18.58-13.966,28.62-.08-2.16-1.057-4.176-1.516-6.288-1.405-6.463,2.209-14,4.43-19.917C42.934,17.685,48.571,11.8,53.994,7.82" transform="translate(-7.051 -0.277)" fill="#ffdebe"/><path d="M66.443,82.933A1.536,1.536,0,1,1,64.906,81.4a1.537,1.537,0,0,1,1.537,1.537" transform="translate(-12.487 -16.039)" fill="#1a1311"/><path d="M105.31,100.889a125.9,125.9,0,0,0,1.726,19.422" transform="translate(-20.751 -19.88)" fill="none" stroke="#1a1311" stroke-linecap="round" stroke-linejoin="round" stroke-width="3.189"/><path d="M114.2,60.575a3.349,3.349,0,0,1,5.621-.676c1.2,1.534,1.515,7.992,1.057,9.618-.913,3.242-6.266,8.413-9.3,9.847l-3.132-18.4Z" transform="translate(-21.369 -11.558)" fill="#fff"/><path d="M114.965,60.575a3.349,3.349,0,0,1,5.621-.676c1.2,1.534,1.515,7.992,1.057,9.618-.913,3.242-6.266,8.413-9.3,9.847" transform="translate(-22.137 -11.558)" fill="none" stroke="#1a1311" stroke-linecap="round" stroke-linejoin="round" stroke-width="3.189"/><path d="M72.091,105.029A31.352,31.352,0,0,1,61.862,106.8c-13.2,0-20.357-14.8-21.986-24.683a99.348,99.348,0,0,1-.937-20.586" transform="translate(-7.64 -12.125)" fill="none" stroke="#1a1311" stroke-linecap="round" stroke-linejoin="round" stroke-width="3.189"/><path d="M72.713,92.236S70.929,96.8,64.738,96.8s-7.976-4.562-7.976-4.562" transform="translate(-11.185 -18.175)" fill="none" stroke="#1a1311" stroke-linecap="round" stroke-linejoin="round" stroke-width="3.189"/><path d="M48.938,47.658a6.809,6.809,0,0,1,6.629-1.373" transform="translate(-9.643 -9.053)" fill="none" stroke="#1a1311" stroke-linecap="round" stroke-linejoin="round" stroke-width="3.189"/><path d="M93.455,49.8a6.807,6.807,0,0,0-6.629-1.373" transform="translate(-17.109 -9.475)" fill="none" stroke="#1a1311" stroke-linecap="round" stroke-linejoin="round" stroke-width="3.189"/><path d="M89.172,62.084a1.98,1.98,0,1,1-1.98-1.981,1.981,1.981,0,0,1,1.98,1.981" transform="translate(-16.791 -11.843)" fill="#1a1311"/><path d="M56.347,62.084a1.98,1.98,0,1,1-1.98-1.981,1.981,1.981,0,0,1,1.98,1.981" transform="translate(-10.323 -11.843)" fill="#1a1311"/><path d="M94.729,104.729a28.566,28.566,0,0,0,8.5-7.08c3.8-5.177,5.647-13.2,5.647-13.2" transform="translate(-18.666 -16.64)" fill="none" stroke="#1a1311" stroke-linecap="round" stroke-linejoin="round" stroke-width="3.189"/><path d="M60.87,122.757s.848,6.9,1.2,12.235" transform="translate(-11.995 -24.189)" fill="none" stroke="#1a1311" stroke-linecap="round" stroke-linejoin="round" stroke-width="3.189"/><path d="M119.492,138.446s25.793,5.394,31.659,12.891c10.2,13.027,17.825,63.207,17.825,63.207" transform="translate(-23.546 -27.281)" fill="none" stroke="#1a1311" stroke-linecap="round" stroke-linejoin="round" stroke-width="3.189"/><path d="M39.843,155.206s-24.356,7.363-28.887,16.709c-6.244,12.878-9.362,45.931-9.362,45.931" transform="translate(-0.314 -30.584)" fill="none" stroke="#1a1311" stroke-linecap="round" stroke-linejoin="round" stroke-width="3.189"/><line x2="3.382" y2="20.726" transform="translate(101.268 166.536)" fill="none" stroke="#1a1311" stroke-linecap="round" stroke-linejoin="round" stroke-width="3.189"/><line x1="3.982" y2="28.939" transform="translate(11.192 158.324)" fill="none" stroke="#1a1311" stroke-linecap="round" stroke-linejoin="round" stroke-width="3.189"/><path d="M97.811,10.558C94.186,4.087,85.9,1.986,78.485,1.66,66.123,1.116,55.9,3.9,47.5,13.2a46.051,46.051,0,0,0-12,31.147" transform="translate(-6.994 -0.314)" fill="none" stroke="#1a1311" stroke-linecap="round" stroke-linejoin="round" stroke-width="3.189"/><path d="M119.978,23.839a36.068,36.068,0,0,1,3.878,26.138" transform="translate(-23.642 -4.698)" fill="none" stroke="#1a1311" stroke-linecap="round" stroke-linejoin="round" stroke-width="3.189"/><path d="M116.819,90.552c2.023,2,4.138,4.162,4.751,6.94.606,2.75-.377,5.573-1.334,8.222s-1.913,5.49-1.252,8.227,3.656,5.093,6.254,4.007" transform="translate(-23.019 -17.843)" fill="none" stroke="#1a1311" stroke-linecap="round" stroke-linejoin="round" stroke-width="3.189"/><path d="M126.987,44.231c3-.248,4.553,3.437,5.178,6.379.773,3.634,1.546,7.413.686,11.028s-3.859,7.007-7.574,7.035" transform="translate(-24.686 -8.713)" fill="none" stroke="#1a1311" stroke-linecap="round" stroke-linejoin="round" stroke-width="3.189"/><path d="M129.571,53.217c.665-2.834,4.532-4.01,7.078-2.6s3.719,4.559,3.6,7.467-1.3,5.652-2.466,8.32l1.32-1.943" transform="translate(-25.532 -9.857)" fill="none" stroke="#1a1311" stroke-linecap="round" stroke-linejoin="round" stroke-width="3.189"/><path d="M70.743,27.183c3.433-3.664,9.508-3.751,13.934-1.383s7.495,6.643,10,10.992a83.19,83.19,0,0,1,5.055,10.384c1.193,2.958,2.661,6.4,5.76,7.155" transform="translate(-13.94 -4.768)" fill="none" stroke="#1a1311" stroke-linecap="round" stroke-linejoin="round" stroke-width="3.189"/><path d="M38.375,51.772A34.077,34.077,0,0,1,45.21,30.916,18.744,18.744,0,0,1,52.009,25a10,10,0,0,1,8.782-.086" transform="translate(-7.561 -4.717)" fill="none" stroke="#1a1311" stroke-linecap="round" stroke-linejoin="round" stroke-width="3.189"/><path d="M99.254,18.473c3.855,2.5,6.321,6.641,8.172,10.844s3.242,8.636,5.631,12.557c1.08,1.773,2.564,3.556,4.615,3.88" transform="translate(-19.558 -3.64)" fill="none" stroke="#1a1311" stroke-linecap="round" stroke-linejoin="round" stroke-width="3.189"/><path d="M44.411,64.86c1.169,2.06,4.389,4.028,9.169,3.828,6.9-.287,10.622-12.215.192-13.011-4.256-.324-10.734.723-10.661,5.039" transform="translate(-8.495 -10.961)" fill="none" stroke="#1a1311" stroke-linecap="round" stroke-linejoin="round" stroke-width="3.189"/><path d="M78.987,64.86c1.169,2.06,4.389,4.028,9.169,3.828,6.9-.287,10.622-12.215.192-13.011-4.256-.324-10.734.723-10.661,5.039" transform="translate(-15.308 -10.961)" fill="none" stroke="#1a1311" stroke-linecap="round" stroke-linejoin="round" stroke-width="3.189"/><path d="M64.748,63.3a6.322,6.322,0,0,1,7.435-.266" transform="translate(-12.759 -12.208)" fill="none" stroke="#1a1311" stroke-linecap="round" stroke-linejoin="round" stroke-width="3.189"/><path d="M108.717,82.546a3.111,3.111,0,1,1,3.111,3.111,3.112,3.112,0,0,1-3.111-3.111" transform="translate(-21.423 -15.653)" fill="#fff"/><circle cx="3.111" cy="3.111" r="3.111" transform="translate(87.294 63.783)" fill="none" stroke="#1a1311" stroke-linecap="round" stroke-linejoin="round" stroke-width="3.189"/><circle cx="1.708" cy="1.708" r="1.708" transform="translate(54.497 116.468)" fill="none" stroke="#1a1311" stroke-linecap="round" stroke-linejoin="round" stroke-width="3.189"/><circle cx="1.708" cy="1.708" r="1.708" transform="translate(44.403 157.728)" fill="none" stroke="#1a1311" stroke-linecap="round" stroke-linejoin="round" stroke-width="3.189"/><path d="M62.213,153.174s-5.862,18.911-9.354,36.369c-3.03,15.146-4.777,27.9-4.777,27.9" transform="translate(-9.475 -30.183)" fill="none" stroke="#1a1311" stroke-linecap="round" stroke-linejoin="round" stroke-width="3.189"/><path d="M70.627,151.875s-6.86,19.953-10.352,37.411c-3.029,15.147-4.776,27.9-4.776,27.9" transform="translate(-10.936 -29.927)" fill="none" stroke="#1a1311" stroke-linecap="round" stroke-linejoin="round" stroke-width="3.189"/><path d="M63.359,146.608c-4.593-.711-6.411-2.851-6.411-2.851l-.073-8.015s2.209,2.159,8.463,2.474,36.649-13.494,36.649-13.494l1.033,8.954S82.257,142.9,71.445,146.062" transform="translate(-11.207 -24.576)" fill="none" stroke="#1a1311" stroke-linecap="round" stroke-linejoin="round" stroke-width="3.189"/><line y1="9.385" transform="translate(59.691 112.563)" fill="none" stroke="#1a1311" stroke-linecap="round" stroke-linejoin="round" stroke-width="3.189"/><line y1="9.352" transform="translate(52.739 113.639)" fill="none" stroke="#1a1311" stroke-linecap="round" stroke-linejoin="round" stroke-width="3.189"/></g></svg>