<svg xmlns="http://www.w3.org/2000/svg" xmlns:xlink="http://www.w3.org/1999/xlink" width="146.712" height="189.765" viewBox="0 0 146.712 189.765"><defs><clipPath id="a"><rect width="146.712" height="189.765" fill="none"/></clipPath></defs><g clip-path="url(#a)"><path d="M115.015,73.009a3.2,3.2,0,0,0-5.371-.646c-1.145,1.465-1.448,7.636-1.01,9.19.872,3.1,5.988,8.039,8.886,9.409l2.992-17.581Z" transform="translate(-57.004 -16.566)" fill="#fff"/><path d="M37.532,79.775s1.768,7.669,5.4,12.617a27.3,27.3,0,0,0,8.118,6.766l11.1,4.6a17.356,17.356,0,0,0,9.556,3.169c12.613,0,19.67-15.617,21.227-25.064a150.831,150.831,0,0,0,1.842-33.62c-.434-5.915-2.02-11.872-5.474-16.693-10.029-14-25.227-8.326-36.08.767C43.2,40.705,42.393,48.855,39.952,56.942a66.756,66.756,0,0,0-2.42,22.833" transform="translate(22.984 -5.379)" fill="#fff"/><path d="M86.206,3.794c2.727.421,4.095,3.6,6.555,4.855A30.248,30.248,0,0,0,96.3,9.77a7.862,7.862,0,0,1,5.034,7.59c-.121,2.293-1.267,4.47-1.179,6.764.126,3.258,2.678,5.939,3.328,9.136.444,2.187-.035,4.448.02,6.679.074,3.038,1.138,5.988,1.192,9.026s-1.356,6.5-4.291,7.28c.263-7.378-.181-15.045-4.4-21.3-1.342-1.989-13.947-11.882-13.733-12.965-.517,2.618,1.359,7.537-.888,9.558a4.837,4.837,0,0,1-3.2.952,16.588,16.588,0,0,1-9.459-2.78c2.24,1.377.923,5.261-1.57,6.1s-5.176-.285-7.563-1.386a4.621,4.621,0,1,1-8.023,4.534c.252.536-.281,2.137-.394,2.718-.176.9-.394,1.791-.646,2.672-.483,1.7-1.089,3.352-1.724,4.995a54.47,54.47,0,0,0-3.167,9.563,19.792,19.792,0,0,0-.337,4.376,18.734,18.734,0,0,0,.247,2.388c.061.362.675,2.152-.272,1.6a6.47,6.47,0,0,1-2.587-3.537c-.635-2.352.133-5.856-2.013-7.561-3.291-2.615-5.9-1.5-6.979-6.776-1.607-7.823-.2-13.373,2.525-20.912,1.708-4.719,3.654-9.795,7.147-13.513C47.6,10.468,52.5,11.045,57.789,8.831c3.818-1.6,6.71-4.636,10.651-6.072a12.97,12.97,0,0,1,8.866-.5c1.6.518,2.719,1.676,4.439,1.963,1.461.242,2.957-.661,4.461-.429" transform="translate(16.684 -0.394)" fill="#474645"/><path d="M18.627,158.791c5.289-6.759,15.642-7.028,23.134-9.664a37.229,37.229,0,0,0,19.483-15.8,3.228,3.228,0,0,1,1.539-1.6c1.577-.52,4.808,2.58,6.017,3.513,2.091,1.612,3.973,3.485,6.13,5.014,3.409,2.418,6.922,4.687,10.541,6.777,2.386,1.379,5.122,4.038,8.01,4.178,3.408.164,5.512-3.473,7.646-5.6a.782.782,0,0,1,.47-.279c.307-.018.516.295.661.565,4.613,8.569,14.5,14.192,22.7,18.981,4.755,2.776,9.406,5.176,11.951,10.426,5.966,12.306,8.946,43.889,8.946,43.889H1.594s7.291-47.948,17.033-60.4" transform="translate(-0.371 -30.646)" fill="#ffdebe"/><path d="M60.782,127.565a146.313,146.313,0,0,0,1.008-18.408l34.1,13.516c.316.125-.558,7.073-.6,7.595-.288,3.973.964,8.419-.548,12.219a8.878,8.878,0,0,1-1.792,2.807c-2.654,2.808-4.12.846-6.6-.578-3.055-1.752-6.18-3.344-9.172-5.212q-4.3-2.687-8.4-5.689c-.987-.721-8.126-5.226-7.992-6.251" transform="translate(4.123 -25.407)" fill="#fff"/><path d="M63.37,95.384a1.468,1.468,0,1,0,1.468-1.468,1.468,1.468,0,0,0-1.468,1.468" transform="translate(31.785 -21.859)" fill="#1a1311"/><path d="M106.109,113.409a122.068,122.068,0,0,1-.8,12.656" transform="translate(-40.196 -26.397)" fill="none" stroke="#1a1311" stroke-linecap="round" stroke-linejoin="round" stroke-width="3.189"/><path d="M61.142,145.123c1.727,7.341-5.889,10.107-5.889,10.107l9.775,9.326a34.826,34.826,0,0,0,0-13.387Z" transform="translate(38.658 -33.778)" fill="none" stroke="#1a1311" stroke-linecap="round" stroke-linejoin="round" stroke-width="3.189"/><path d="M74.738,131.6c5.517,5.866,25.837,18.112,31.127,20.482L93.6,164.48s-22.66-20.65-24.779-26.208Z" transform="translate(-11.955 -30.631)" fill="none" stroke="#1a1311" stroke-linecap="round" stroke-linejoin="round" stroke-width="3.189"/><path d="M38.77,116.919a25.65,25.65,0,0,0,9.556,1.864c12.612,0,19.67-15.617,21.226-25.061a94.937,94.937,0,0,0,.9-19.671" transform="translate(46.356 -17.236)" fill="none" stroke="#1a1311" stroke-linecap="round" stroke-linejoin="round" stroke-width="3.189"/><path d="M56.762,104.756s1.7,4.359,7.621,4.359S72,104.756,72,104.756" transform="translate(31.157 -24.383)" fill="none" stroke="#1a1311" stroke-linecap="round" stroke-linejoin="round" stroke-width="3.189"/><path d="M85.212,74.516A1.892,1.892,0,1,0,87.1,72.623a1.893,1.893,0,0,0-1.892,1.893" transform="translate(-7.663 -16.903)" fill="#1a1311"/><path d="M52.387,74.516a1.892,1.892,0,1,0,1.892-1.893,1.893,1.893,0,0,0-1.892,1.893" transform="translate(50.347 -16.903)" fill="#1a1311"/><path d="M108.243,117a36.377,36.377,0,0,1-8.118-7.418c-3.628-4.947-5.4-12.617-5.4-12.617" transform="translate(-34.212 -22.569)" fill="none" stroke="#1a1311" stroke-linecap="round" stroke-linejoin="round" stroke-width="3.189"/><path d="M61.282,135.277s-.184,1.5-.412,3.615" transform="translate(38.728 -31.486)" fill="none" stroke="#1a1311" stroke-linecap="round" stroke-linejoin="round" stroke-width="3.189"/><path d="M173.876,145.655c-9.357,9.835-26.845,6.127-34.881,16.392-9.742,12.448-17.033,60.4-17.033,60.4" transform="translate(-120.739 -33.902)" fill="none" stroke="#1a1311" stroke-linecap="round" stroke-linejoin="round" stroke-width="3.189"/><path d="M1.595,159.194c5.056,5.393,25.071,13.582,29.4,22.512,5.967,12.306,8.946,43.889,8.946,43.889" transform="translate(105.546 -37.053)" fill="none" stroke="#1a1311" stroke-linecap="round" stroke-linejoin="round" stroke-width="3.189"/><line x1="3.232" y2="19.804" transform="translate(46.715 168.737)" fill="none" stroke="#1a1311" stroke-linecap="round" stroke-linejoin="round" stroke-width="3.189"/><line x2="3.805" y2="27.652" transform="translate(132.212 160.889)" fill="none" stroke="#1a1311" stroke-linecap="round" stroke-linejoin="round" stroke-width="3.189"/><path d="M55.718,64.309a7.764,7.764,0,0,0-7.554.2" transform="translate(54.04 -14.763)" fill="none" stroke="#1a1311" stroke-linecap="round" stroke-linejoin="round" stroke-width="3.189"/><path d="M82.706,64.309a7.764,7.764,0,0,1,7.554.2" transform="translate(-7.004 -14.763)" fill="none" stroke="#1a1311" stroke-linecap="round" stroke-linejoin="round" stroke-width="3.189"/><path d="M126,35.437c-1.095,4.927-5.055,8.941-5.708,13.946-.535,4.109,1.254,8.125,3,11.883" transform="translate(-71.51 -8.248)" fill="none" stroke="#1a1311" stroke-linecap="round" stroke-linejoin="round" stroke-width="3.189"/><path d="M39.251,66.15a23.781,23.781,0,0,0-1.234-10.2" transform="translate(78.179 -13.022)" fill="none" stroke="#1a1311" stroke-linecap="round" stroke-linejoin="round" stroke-width="3.189"/><path d="M118.915,73.009a3.2,3.2,0,0,0-5.371-.646c-1.145,1.465-1.448,7.636-1.01,9.19.872,3.1,5.988,8.039,8.886,9.409" transform="translate(-60.904 -16.566)" fill="none" stroke="#1a1311" stroke-linecap="round" stroke-linejoin="round" stroke-width="3.189"/><path d="M110.544,67.735a15.715,15.715,0,0,0-1.668,9.26" transform="translate(-47.27 -15.766)" fill="none" stroke="#1a1311" stroke-linecap="round" stroke-linejoin="round" stroke-width="3.189"/><ellipse cx="2.659" cy="2.659" rx="2.659" ry="2.659" transform="translate(93.467 137.062)" fill="none" stroke="#1a1311" stroke-linecap="round" stroke-linejoin="round" stroke-width="3.189"/><path d="M59.281,210.275a2.66,2.66,0,1,0-2.659,2.659A2.659,2.659,0,0,0,59.281,210.275Z" transform="translate(46.028 -48.324)" fill="none" stroke="#1a1311" stroke-linecap="round" stroke-linejoin="round" stroke-width="3.189"/><path d="M43.832,172.247a174.054,174.054,0,0,1,8.8,29.724c2.895,14.473,4.564,26.662,4.564,26.662" transform="translate(55.89 -40.091)" fill="none" stroke="#1a1311" stroke-linecap="round" stroke-linejoin="round" stroke-width="3.189"/><path d="M59.75,172.247a174.053,174.053,0,0,1,8.8,29.724c2.895,14.473,4.564,26.662,4.564,26.662" transform="translate(27.759 -40.091)" fill="none" stroke="#1a1311" stroke-linecap="round" stroke-linejoin="round" stroke-width="3.189"/><path d="M37.605,28a8.585,8.585,0,0,0,9.973-4.672,8.585,8.585,0,0,0-3.456-10.457" transform="translate(69.661 -2.996)" fill="none" stroke="#1a1311" stroke-linecap="round" stroke-linejoin="round" stroke-width="3.189"/><path d="M48.5,22.551a9.619,9.619,0,0,0,10.883-8.005A9.62,9.62,0,0,0,50.636,4.251" transform="translate(50.061 -0.989)" fill="none" stroke="#1a1311" stroke-linecap="round" stroke-linejoin="round" stroke-width="3.189"/><path d="M73.064,16.205a8.619,8.619,0,0,0,1.153-11.76A8.619,8.619,0,0,0,62.44,3.477" transform="translate(22.787 -0.371)" fill="none" stroke="#1a1311" stroke-linecap="round" stroke-linejoin="round" stroke-width="3.189"/><path d="M63.111,24.177A12.643,12.643,0,0,0,81.882,35.933" transform="translate(16.422 -5.627)" fill="none" stroke="#1a1311" stroke-linecap="round" stroke-linejoin="round" stroke-width="3.189"/><path d="M84.938,33.138C82.331,37.6,87.155,44.161,92.193,43" transform="translate(-10.089 -7.713)" fill="none" stroke="#1a1311" stroke-linecap="round" stroke-linejoin="round" stroke-width="3.189"/><path d="M94.61,42.857c-1.422,4.124,3.3,8.872,7.435,7.468" transform="translate(-27.725 -9.975)" fill="none" stroke="#1a1311" stroke-linecap="round" stroke-linejoin="round" stroke-width="3.189"/><path d="M32.748,35.4a13.079,13.079,0,0,1,3.506,11.939,13.692,13.692,0,0,0-.5,2.618c-.041,1.59.753,3.061,1.3,4.555s.8,3.306-.183,4.557" transform="translate(84.061 -8.239)" fill="none" stroke="#1a1311" stroke-linecap="round" stroke-linejoin="round" stroke-width="3.189"/><path d="M112.361,9.681l-10.949,3.667a25.006,25.006,0,0,0-4.841,2.008,12.717,12.717,0,0,0-6.1,9.7" transform="translate(-35.061 -2.253)" fill="none" stroke="#1a1311" stroke-linecap="round" stroke-linejoin="round" stroke-width="3.189"/><path d="M107.875,50.639a8.1,8.1,0,0,0,7.234,7.007" transform="translate(-51.164 -11.787)" fill="none" stroke="#1a1311" stroke-linecap="round" stroke-linejoin="round" stroke-width="3.189"/></g></svg>