<svg xmlns="http://www.w3.org/2000/svg" width="386.208" height="29.632" viewBox="0 0 386.208 29.632"><path d="M28.128-21.376l2.592-.96A21.9,21.9,0,0,0,28.9-27.2l-2.4,1.088A21.8,21.8,0,0,1,28.128-21.376ZM6.816-18.4c6.272-.064,10.208-.128,17.632-.224l-.064-2.08,2.368-.96a26.188,26.188,0,0,0-1.76-4.8l-2.4,1.024a15.61,15.61,0,0,1,.96,2.4c-6.176.128-10.752.192-16.8.192Zm3.9,20.64c5.12-2.976,7.968-6.688,8.64-13.088l10.24-.1-.1-4.48c-8.992.224-17.312.32-26.944.288l.064,4.48c4.192-.064,8.192-.1,12.192-.128C14.24-6.08,11.68-3.36,6.624-.736ZM36.224-9.7l26.816-.16-.064-4.8L36.16-14.5ZM77.76,2.08a27.958,27.958,0,0,0,9.888-7.84c.832.768,1.7,1.632,2.624,2.592l2.976-3.616C92.16-7.84,91.136-8.736,90.176-9.536a38.55,38.55,0,0,0,3.936-10.336L91.68-21.92c-3.52.1-6.24.192-8.672.224.416-.96.832-2.016,1.184-3.072L79.68-25.952A28.985,28.985,0,0,1,70.272-11.68l4.064,2.5a34.5,34.5,0,0,0,6.592-8.192c2.208-.064,4.992-.1,7.776-.16a23.072,23.072,0,0,1-2.208,5.28c-1.76-1.12-3.488-2.048-5.44-3.1l-2.112,3.552a51.742,51.742,0,0,1,5.12,3.136A25.625,25.625,0,0,1,73.792-1.12Zm52.032-22.752,2.368-1.408a19.109,19.109,0,0,0-2.656-4.608l-2.176,1.44A17.552,17.552,0,0,1,129.792-20.672ZM107.328.96A104.091,104.091,0,0,0,113.344-15.1c.96-.1,1.632-.16,2.112-.16,1.28,0,1.888.832,1.888,2.752a33.9,33.9,0,0,1-.576,6.4c-.384,1.888-.992,2.368-2.048,2.368a10.01,10.01,0,0,1-3.68-.96L111.392.16A15.659,15.659,0,0,0,115.68.8c3.04,0,4.48-1.6,5.216-4.672a42.743,42.743,0,0,0,.96-9.28c0-4-2.144-6.368-5.76-6.368-.576,0-1.216.032-1.952.1.48-1.984.9-3.872,1.248-5.7l-4.544-.8c-.352,2.464-.8,4.832-1.28,7.072-2.3.32-4.64.544-6.144.64l.8,4.384c1.248-.192,2.848-.416,4.544-.64A69.4,69.4,0,0,1,103.04-1.216Zm19.264-7.936,4.192-2.24a32.519,32.519,0,0,0-4.512-10.752l1.92-1.216a16.32,16.32,0,0,0-2.72-4.512l-2.176,1.44a14.508,14.508,0,0,1,1.888,3.04L121.7-19.008C123.872-16.416,125.408-12.576,126.592-6.976Zm14.528,2.5a72.551,72.551,0,0,0,6.3-13.28c2.72-.288,5.312-.672,6.976-1.024l-.768-4.32a44.979,44.979,0,0,1-4.736.9l1.088-3.52-4.544-.992c-.416,1.728-.832,3.392-1.344,5.056-2.464.224-4.96.352-7.072.384l.512,4.32c1.344-.032,3.136-.128,5.088-.32A49.877,49.877,0,0,1,136.96-6.848Zm21.12-7.68,2.5-3.456a23.186,23.186,0,0,0-8.128-5.024l-1.952,3.488A25.706,25.706,0,0,1,162.24-12.16Zm-11.9,13.92c3.616,0,5.984-1.984,6.144-5.12a26.541,26.541,0,0,1,4.608,2.976l2.176-3.936a33.685,33.685,0,0,0-6.976-3.456c-.032-.736-.064-1.664-.064-2.272a5.977,5.977,0,0,1,.9-3.3l-3.9-2.208a8.621,8.621,0,0,0-1.5,4.832c0,.576.032,1.344.1,2.112a16.883,16.883,0,0,0-1.76-.128c-3.648,0-6.336,2.112-6.336,5.024C143.712-.448,146.432,1.76,150.336,1.76Zm-2.144-5.376c0-.7.832-1.28,2.24-1.28a8,8,0,0,1,1.728.224v.864c0,.928-.7,1.568-1.888,1.568C148.992-2.24,148.192-2.848,148.192-3.616Zm41.792,5.792,3.744-3.68A63.288,63.288,0,0,0,183.04-9.536c-2.336-1.44-2.912-1.856-2.912-2.5,0-.544.448-1.056,2.112-2.3a69.327,69.327,0,0,0,9.92-8.736l-4.192-3.136a45.354,45.354,0,0,1-9.568,9.44c-2.848,2.24-3.744,3.2-3.744,4.672,0,1.792.992,2.816,3.808,4.7A58.875,58.875,0,0,1,189.984,2.176Zm34.4-.9,2.144-4.48c-6.048-.7-9.056-2.4-9.056-5.856,0-2.208,1.536-4.512,4.064-6.656,2.08-1.76,4.512-2.944,9.312-3.36l-.768-4.576c-7.808,1.344-18.944,1.952-25.664,2.208l.576,4.64c4.1-.288,8.064-.608,13.216-1.12-3.392,2.752-5.408,5.984-5.408,8.992C212.8-3.232,217.088.384,224.384,1.28Zm29.248,0c5.952-.032,9.984-3.52,9.984-10.016a15.6,15.6,0,0,0-1.728-6.752l-4.8.128a12.617,12.617,0,0,1,1.952,6.5c0,4-2.368,5.664-5.536,5.664-2.528,0-4.064-1.312-4.064-3.712,0-.384.032-1.024.128-1.952a55.508,55.508,0,0,0,7.68-1.12l-.992-4.224a34.587,34.587,0,0,1-6.24,1.312c.064-.544.128-1.12.224-1.76.1-.8.224-1.7.384-2.624a51.339,51.339,0,0,0,6.464-.64l-.256-4.32a49.435,49.435,0,0,1-5.536.7c.288-1.888.608-3.552.8-4.512l-4.608-.544c-.128,1.248-.352,3.136-.64,5.184a45.671,45.671,0,0,1-6.976-.608l.192,4.32a46.584,46.584,0,0,0,6.208.48c-.128.832-.224,1.664-.352,2.432-.1.768-.224,1.5-.32,2.208-2.24,0-2.72-.384-2.72-.8,0-.448.416-1.088,1.472-1.952L241.344-16.8c-1.76,1.472-2.784,3.232-2.784,4.736,0,2.016,2.24,3.36,6.592,3.36a17.93,17.93,0,0,0-.128,2.08C245.024-1.5,248.064,1.28,253.632,1.28Zm19.744.576a19.922,19.922,0,0,0,11.68-11.9c1.44,4,6.016,8.576,11.36,11.392l3.072-4.512c-6.336-2.56-10.336-6.592-11.744-11.84h11.008V-19.52h-11.68v-6.528H282.3v6.528H270.816v4.512h11.168C280.736-8.7,277.216-4.9,270.3-2.368Zm33.28.576c5.088-1.216,9.088-3.136,11.552-5.6a39.3,39.3,0,0,0,12.352,4.96l2.464-4.608c-5.312-.9-9.408-2.208-12.256-3.872,1.12-2.56,1.5-5.088,1.5-9.952h9.952v-4.384h-9.952V-26.4h-4.736v5.376H304.672v4.384h12.864c0,3.9-.16,5.728-.64,7.1a24.1,24.1,0,0,1-4.768-5.952L308.64-13.28a31.841,31.841,0,0,0,5.824,7.232c-2.368,1.984-5.536,3.264-10.272,4.192Zm33.7-.128C346.4.48,350.24-2.624,352.384-7.488c2.432,4.352,5.568,7.072,10.912,9.376l3.008-4.48c-5.76-2.08-8.64-4.128-10.752-7.552H365.7v-4.288H354.24V-17.7H363.9v-4.192H354.24v-4.576h-4.7v4.576h-9.472V-17.7h9.472v3.264H338.272v4.288h10.464c-1.472,3.9-5.088,6.624-10.912,8.16Zm43.04-10.432h4.416l.352-15.392h-5.12ZM385.6.192a3.1,3.1,0,0,0,3.168-3.2,3.122,3.122,0,0,0-3.168-3.2,3.1,3.1,0,0,0-3.168,3.2A3.084,3.084,0,0,0,385.6.192Z" transform="translate(-2.56 27.2)" fill="#fff"/></svg>