<svg xmlns="http://www.w3.org/2000/svg" width="1031.48" height="241.791" viewBox="0 0 1031.48 241.791"><g transform="translate(-471 5062.291)"><path d="M41.832-33.366A87.518,87.518,0,0,1,48.14-14.94a90.573,90.573,0,0,1,10.873-4.648v9.794c0,2.49-.913,2.822-2.241,2.822-2.241,0-7.055-.5-8.8-.664A43.246,43.246,0,0,1,53.2,6.557c1.079.083,2.075.166,3.486.166C70.135,6.723,73.04,3.4,73.04-6.889V-40.421H79.6V-52.954H73.04V-66.483c1-.332,1.992-.664,1.992-1.66,0-1.079-.747-1.245-1.66-1.245l-14.359-.581v17.015H43.99v12.533H59.013v17.679A126.575,126.575,0,0,0,53.12-38.18ZM16.6-46.148H3.32v11.537H16.6v5.81H4.565v11.62H16.6V-9.3A136.159,136.159,0,0,1,2.988-8.134L5.229,5.146c.166.913.5,1.494,1.411,1.494,1.079,0,1.245-.581,1.743-2.241,5.4-.664,21.331-2.739,34.611-5.644a58.494,58.494,0,0,1,.664-12.45c-2.822.664-4.98,1.079-13.114,2.407v-5.893H41.417V-28.8H30.544v-2.988c1.162-.415,2.241-.913,2.241-1.992a.962.962,0,0,0-.332-.83H42.579V-46.148H30.544v-5.146H40.753v-11.62H30.544v-3.32c1.079-.415,2.241-.913,2.241-1.992,0-.913-.664-1.245-1.743-1.245L16.6-69.886v6.972H5.4v11.62H16.6ZM144.669-55.61a39.925,39.925,0,0,1,2.075,6.308,73.774,73.774,0,0,1,13.529-2.158,39.9,39.9,0,0,0-1.743-4.15h10.458V-65.4h-21c.249-.5.332-.747.5-1.079,1.328,0,2.49-.166,2.49-1.162,0-.83-.83-1.079-1.577-1.162L136.037-70.8a54.265,54.265,0,0,1-4.482,9.628V-65.4H116.366l.415-.83c1.079-.083,2.407-.249,2.407-1.411,0-.83-.664-1.079-1.162-1.162l-13.944-1.909c-2.656,5.893-7.47,13.2-13.031,17.845a41.33,41.33,0,0,1,8.964,4.067H95.782V6.64h13.695V-38.18h43.409V-9.13c0,2.49-.332,2.822-3.735,2.49V-25.4H113.295V1.411h11.62v-4.4h20.418A34.4,34.4,0,0,1,148.4,6.557c15.355,1,18.177-2.9,18.177-10.292V-48.8H138.61a72.3,72.3,0,0,0,4.316-6.806ZM104.912-48.8a51.672,51.672,0,0,0,5.229-6.723,44.959,44.959,0,0,1,1.909,6.64c5.561-1.411,8.134-2.075,12.7-2.324a50.769,50.769,0,0,0-1.826-4.814h5.229a34.15,34.15,0,0,1-3.32,3.818,49.449,49.449,0,0,1,8.134,3.4ZM137.2-16.683v4.233H124.915v-4.233ZM111.552-35.939v8.383h39.259v-8.383Zm100.6-9.794v-3.486h14.11V-61.005h-14.11v-5.561c1-.5,1.992-.913,1.992-1.826,0-1.079-.913-1.162-1.826-1.162L199.7-69.886v9.96H195.88c.249-.913.332-1.328.747-3.237,1.66-.332,2.407-.664,2.407-1.577,0-.581-.166-1.079-.664-1.162l-12.035-2.49c-.5,5.478-3.071,13.612-6.142,18.26a43.409,43.409,0,0,1,10.375,4.4h-7.885V-33.7H199.7v2.988H184.592v32.7h11.869V-18.675H199.7v25.4h12.45V-8.466A23.144,23.144,0,0,1,214.721,1.66c6.308.332,11.786-1.245,11.786-7.8V-30.71H212.148V-33.7h14.691V-45.733Zm-20.584,0c.249-.581.5-1.245,1.245-3.486H199.7v3.486Zm20.584,27.058h3.4V-12.7c0,1.992-.664,2.158-3.4,1.909Zm17.264-42.164v50.215h12.035V-57.1c1.494-.913,1.909-1.245,1.909-1.992,0-1-.747-1.079-1.909-1.162Zm15.272-9.13V-8.8c0,1.992-.083,2.822-3.154,2.822a71.976,71.976,0,0,1-7.387-.5,26.627,26.627,0,0,1,5.063,13.446c15.106.664,18.426-2.407,18.426-13.114V-66.234c1.411-.83,1.909-1.162,1.909-1.909,0-1.162-1.162-1.328-1.909-1.328Zm65.238-.581c-.415,2.241-4.067,14.608-14.608,28.054v-4.9c1.577-.249,2.324-1,2.324-1.826,0-.5-.664-.913-1.245-1.245l-1.162-.664a100.929,100.929,0,0,0,5.81-12.948c1.494-.083,2.656-.332,2.656-1.328,0-.664-.5-1.079-1.494-1.328l-14.608-3.735C284.69-58.681,276.058-44.156,269.5-37.6c4.9,3.154,8.715,8.964,9.545,10.209a19.939,19.939,0,0,0,2.158-2.49V6.474h14.11V-36.935a39.384,39.384,0,0,1,9.13,6.391c1.328-1.577,4.233-4.98,9.628-14.94V6.474H328.6V-8.383h19.09V-21.165H328.6v-6.308H346.11V-39.757H328.6v-5.976h20.086V-58.681H320.795c.332-.83,1.992-4.814,2.324-5.727,1.992-.083,2.656-.664,2.656-1.411s-.5-1.079-1.162-1.245Z" transform="translate(471 -4844.5)"/><g transform="translate(471 -5090.195)"><path d="M56.855-18.592H74.036v-34.2H53.7c.332-.83.415-1.162,1.328-3.9H79.1v-11.62H8.632v23.074C8.632-27.39,8.217-13.944.581.332,2.49.5,9.96,2.407,12.865,4.814c8.632-13.861,9.213-34.528,9.213-48.8v-12.7H41.5c-.415,1.494-.747,2.573-1.245,3.9H25.315v34.2H43.326V-7.8c0,2.075-.664,2.324-2.324,2.324a23.379,23.379,0,0,1-3.569-.332c2.075-2.905,2.241-3.237,3.154-4.482,1.245-.083,2.324-.332,2.324-1.328a1.385,1.385,0,0,0-.747-1.245l-11.786-5.4C27.141-11.122,21.746-5.727,17.264-1.909a34.237,34.237,0,0,1,10.541,7.47c1.494-1.245,3.818-3.4,8.217-9.462a35.841,35.841,0,0,1,3.486,10.79c10.375-.083,17.347-.083,17.347-9.047ZM38.014-43.243H61.088v3.154H38.014ZM61.088-28.386H38.014v-3.32H61.088ZM57.436-11.205C63.661-5.312,69.222,3.652,70.716,6.059a66.048,66.048,0,0,1,9.96-8.3c-2.988-5.4-9.877-12.782-13.363-15.853Zm90.138-3.569A91.227,91.227,0,0,0,158.945-3.569a41.353,41.353,0,0,1,9.877-10.873c-5.81-3.237-19.007-14.94-26.892-30.129h24.734V-57.1H135.788v-9.047c.747-.415,1.743-.913,1.743-1.909,0-1.162-1.328-1.328-2.075-1.328l-13.944-.5V-57.1H90.47v12.533h24.319c-8.715,18.758-22.078,27.888-26.975,30.71A25.414,25.414,0,0,1,98.6-3.735a85.973,85.973,0,0,0,11.371-11.288v9.545h11.537V6.64h14.276V-5.478h11.786Zm-11.786-2.905v-14.11a78.219,78.219,0,0,0,9.379,14.11Zm-14.276,0h-9.379a84.557,84.557,0,0,0,9.379-14.442Z" transform="translate(0 100.695)"/><path d="M42-42.924a10.988,10.988,0,0,0-11,11,10.988,10.988,0,0,0,11,11,11.042,11.042,0,0,0,11-11A10.988,10.988,0,0,0,42-42.924Z" transform="translate(163 101.695)"/><path d="M49.3-52.705a52.393,52.393,0,0,1,6.391-10.209A123.121,123.121,0,0,0,33.034-71.3l-6.972,10.79c8.632,1.992,19.256,7.387,20.086,7.8H13.861v13.446H43.99c-7.8,7.553-21.58,15.936-39.757,20.916a77.088,77.088,0,0,1,7.8,13.114,101.885,101.885,0,0,0,21.414-9.96V6.142H48.887V-25.481c5.478-4.565,6.308-5.4,17.679-17.347a26.579,26.579,0,0,1,3.818-3.486L62.748-53.95a11.513,11.513,0,0,1-5.81,1.245ZM49.634-20c5.478,3.071,16.1,10.458,20.916,15.355a92.4,92.4,0,0,1,8.466-11.205C74.451-20.086,63.5-27.307,58.432-30.129ZM117.86-68.558a116.469,116.469,0,0,1,.581,14.359h-24.9v14.442h23.572c-2.656,16.1-8.217,23.323-27.224,33.532A82.476,82.476,0,0,1,102.007,5.312c18.758-10.043,28.967-26.477,31.208-45.069H146.08c-.249,6.557-.415,14.857-1.577,21.248-.913,5.4-2.573,7.885-8.3,7.885a43.689,43.689,0,0,1-7.47-.83A59.478,59.478,0,0,1,132.3,4.4a23.725,23.725,0,0,0,3.818.249c15.438,0,19.505-6.889,21.165-10.209,3.652-7.221,4.15-21.5,4.648-48.638H134.128c0-1,.332-8.549.332-10.458,1.162-.5,2.075-1,2.075-1.826,0-1.079-1.079-1.079-2.075-1.162Zm24.983,2.324a95.89,95.89,0,0,1,8.217,10.375c2.158-1.743,4.316-3.32,6.972-5.146a86.14,86.14,0,0,0-8.383-9.711Zm12.035-1.909a86.341,86.341,0,0,1,7.636,9.96,86.58,86.58,0,0,1,7.221-4.98,66.013,66.013,0,0,0-7.8-9.628Zm99.683,3.735a8.147,8.147,0,0,0-8.134-8.134,8.147,8.147,0,0,0-8.134,8.134,8.165,8.165,0,0,0,8.134,8.217A8.165,8.165,0,0,0,254.561-64.408Zm-4.316,0a3.808,3.808,0,0,1-3.818,3.818,3.808,3.808,0,0,1-3.818-3.818,3.791,3.791,0,0,1,3.818-3.735A3.791,3.791,0,0,1,250.245-64.408Zm-42,12.035H181.023v13.944h27.224v25.066c0,2.075,0,4.067-2.988,4.067a41.547,41.547,0,0,1-7.221-.83,45.224,45.224,0,0,1,4.482,14.94c1.328.083,2.739.249,4.814.249,12.284,0,16.268-3.154,16.268-13.2v-30.3h27.141V-52.373H223.6v-12.45c1.079-.581,1.743-.913,1.743-1.743,0-.664-.415-1.079-1.577-1.162l-15.521-.664ZM192.726-35.026a67.626,67.626,0,0,1-16.849,22,71.881,71.881,0,0,1,12.2,9.3,104.884,104.884,0,0,0,15.936-21.58c1.162-.166,2.324-.332,2.324-1.328,0-.747-.5-1-1.079-1.328Zm34.694,7.8c4.648,4.9,12.118,15.023,15.521,22.244,4.731-4.316,6.64-5.81,11.7-9.794-3.652-6.308-11.205-15.355-16.434-20.833ZM277.386-58.93c7.968,2.739,16.932,7.968,21.165,10.707a118.226,118.226,0,0,1,7.885-12.45,122.167,122.167,0,0,0-21.5-9.628Zm39.425-1.411a65.289,65.289,0,0,1,8.8,9.3c2.573-2.324,3.569-3.237,6.557-5.561a74.317,74.317,0,0,0-8.715-8.881ZM268.173-39.01a96.335,96.335,0,0,1,20.086,11.371,121.584,121.584,0,0,1,8.3-12.533,118.959,118.959,0,0,0-20.584-11.122ZM325.36-66.9a59.665,59.665,0,0,1,8.632,9.13A77.774,77.774,0,0,1,340.3-63a73.817,73.817,0,0,0-8.715-8.881ZM278.8,5.312c.5,1,.747,1.494,1.411,1.494,1,0,1.328-1.245,1.494-1.909,34.279-12.616,53.535-33.532,60.009-43.077-4.482-4.565-8.217-11.869-8.964-13.363C320.961-33.781,295.812-14.774,271.825-9.3Zm78.6-70.384v14.359h49.219c-4.316,12.45-12.7,32.287-41.915,43.492A80.162,80.162,0,0,1,376.239,5.146c31.872-16.683,39.093-34.943,47.725-58.1a17.157,17.157,0,0,1,2.656-5.395L416-65.819a14.306,14.306,0,0,1-5.727.747ZM486.131-33.2A116.141,116.141,0,0,0,500.49-46.48c1.411.083,2.49.166,2.49-.83,0-.415-.166-.664-.664-1.079l-10.873-8.134a88.619,88.619,0,0,1-45.484,29.631A56.264,56.264,0,0,1,455.006-15.6c2.407-.83,6.806-2.573,17.513-8.8V4.98h13.612ZM540-64.408v21.414c0,2.241-.166,12.284-3.569,19.09A44.038,44.038,0,0,1,523.979-9.3c5.727,3.569,8.8,6.059,12.2,10.043C547.634-9.379,555.6-23.489,555.6-42.413V-60.839c.913-.332,1.826-.747,1.826-1.743s-.83-1.079-2.075-1.162Zm21.829-.913v54.863a43.646,43.646,0,0,1-.415,5.229l10.375,6.64a58.644,58.644,0,0,1,4.482-4.15c7.3-5.644,20.584-15.853,28.469-27.971a51.476,51.476,0,0,1-7.719-13.529c-4.98,7.387-12.45,16.268-19.837,21.58V-61.586c1.494-1,1.826-1.245,1.826-1.909,0-1-.913-1-1.826-1.079Zm94.122,31.789c2.573,2.905,4.316,5.229,9.628,13.7-2.739.249-16.185,1.826-19.173,2.158-1.328.166-1.743.166-6.142.581,3.32-7.221,6.391-15.023,11.454-29.8.747-2.075,3.818-12.284,4.565-14.525,1.245-.415,2.49-.83,2.49-1.992,0-.664-.5-1-1.577-1.245l-16.517-3.818c-2.988,17.1-11.454,41.5-17.1,53.037-1.245.083-8.881.83-9.711.83L617.437-.083c.166.747.332,1.577,1.245,1.577.747,0,1-.581,1.577-1.577,12.035-1.743,19.754-2.822,51.958-7.47A104.691,104.691,0,0,1,676.533,2.9c1.826-1.494,11.122-7.8,13.2-9.3-2.158-5.81-11.786-23.323-20.75-34.528Z" transform="translate(232 100.695)"/></g><path d="M16.11-37.8a68.888,68.888,0,0,1-1.395,9.855c-1.665.27-9.675,1.935-11.52,2.3L5.67-18.405a47.98,47.98,0,0,1,7.155-2.3A53.836,53.836,0,0,1,2.115-1.845,31.831,31.831,0,0,1,8.73,1.71c3.645-4.725,7.875-11.565,11.43-23.76,1.935-.135,5.175-.4,5.175,4.23,0,5.58-1.44,10.62-2.97,11.97A3.4,3.4,0,0,1,19.71-5a7.493,7.493,0,0,1-3.915-.99A34.147,34.147,0,0,1,16.47.045a13.766,13.766,0,0,1-.135,1.665,24.169,24.169,0,0,0,4.77.5,7.717,7.717,0,0,0,6.66-3.15c2.16-2.88,4.5-9.225,4.5-16.65,0-10.89-6.435-11.025-10.3-11.025.315-1.17.585-2.34,1.26-5.4.27,0,1.215-.09,1.215-.72,0-.4-.4-.54-.9-.675Zm14.085,8.235a33.028,33.028,0,0,1,3.825,5c1.215,2.07,2.34,5.04,2.34,6.165,0,1.44-1.665,1.8-2.88,2.07a36.171,36.171,0,0,1,2.61,6.03,17.5,17.5,0,0,0,4.5-1.4c2.43-1.17,3.195-2.43,3.195-4.77,0-3.555-3.15-11.07-8.1-16.6Zm31.14-2.565A40.188,40.188,0,0,1,74.745-26.6a56.636,56.636,0,0,1,4.05-6.57,44.92,44.92,0,0,0-15.12-5ZM58.68-30.015a106.881,106.881,0,0,0-4.725,18.63l6.435,2.34c3.24-3.24,7.92-7.38,14.355-7.38,4.635,0,5.265,3.285,5.265,4.59,0,3.78-4.05,7.605-14.265,7.605a25.373,25.373,0,0,1-6.66-.675C60.57-1.035,60.93.18,61.2,2.655c.855.045,1.98.09,3.285.09,14.9,0,23-5.9,23-14.49,0-5.355-3.78-11.07-11.52-11.07A24.919,24.919,0,0,0,62.82-18.63a30.278,30.278,0,0,1,2.97-7.785c.5-.045,1.035-.09,1.035-.63,0-.405-.36-.5-.675-.585Z" transform="translate(1415 -4989.5)"/><path d="M40.95-37.125c-4.23,1.35-11.52,2.565-18.045,3.285A145.822,145.822,0,0,1,2.88-32.805l1.035,8.46a122.688,122.688,0,0,1,18.63-2.835c-1.845,1.17-8.28,7.155-8.28,15.48,0,10.755,12.915,14.355,16.56,15.345A60.688,60.688,0,0,1,34.2-4.545c-6.12-.135-12.735-2.7-12.735-7.92,0-7.29,9.63-17.28,20.745-17.1ZM36.18-23.94a33.317,33.317,0,0,1,4.005,5.085c1.4-1.26,2.16-1.935,3.285-2.79a28.553,28.553,0,0,0-4.005-4.725Zm-4.725,3.195A36.36,36.36,0,0,1,35.46-15.66c1.575-1.3,2.2-1.8,3.465-2.7a27.928,27.928,0,0,0-4.185-4.815ZM63.585-36.5c.5,1.485.81,2.565,1.845,5.265a54.154,54.154,0,0,1-10.305.72l1.44,6.3a86.216,86.216,0,0,0,11.25-1.08c.495,1.08.63,1.485.855,1.98a54.555,54.555,0,0,1-10.35,1.035c-.99,0-2.745-.045-5.49-.18L53.6-15.8a27.322,27.322,0,0,0,2.88.135,80.377,80.377,0,0,0,15.03-1.575,22.931,22.931,0,0,0,1.575,2.7,47.8,47.8,0,0,0-6.255-.495c-7.56,0-11.97,3.735-11.97,8.55,0,4.32,3.735,9.855,15.3,9.855A38.165,38.165,0,0,0,81.45,1.935,10.077,10.077,0,0,1,81.315,0a20.433,20.433,0,0,1,.495-4.815c-4.275,1.8-9.72,1.845-11.79,1.845-5.4,0-7.83-1.53-7.83-3.69,0-2.61,4-3.24,5.895-3.24A24.431,24.431,0,0,1,80.91-6.12L85.1-10.575a43.584,43.584,0,0,1-6.795-8.6,40.456,40.456,0,0,0,9.855-4.995c-.495-.81-3.015-4.815-3.51-5.805a38.028,38.028,0,0,1-9.45,4.9c-.18-.4-.27-.54-.855-1.935,5.265-1.755,6.93-2.79,8.37-3.69a54.831,54.831,0,0,1-2.475-5.49,32.376,32.376,0,0,1-7.83,3.33,26.158,26.158,0,0,1-.765-4.86Zm47.34-1.755a60.218,60.218,0,0,1-1.71,7.965c-5.4,0-7.965-.27-10.89-.99l.09,7.38c1.71.135,4.815.315,8.73.27A63.1,63.1,0,0,1,101.16-10.98l6.48,3.24c5.265-5.49,11.61-7.515,15.57-7.515,4.14,0,5.49,2.2,5.49,4.815a4.576,4.576,0,0,1-2.43,4.23c-4.635,2.745-12.33,2.745-13.365,2.745a66.194,66.194,0,0,1-6.705-.4,31.78,31.78,0,0,1,1.665,6.705,41.313,41.313,0,0,0,4.185.225c12.465,0,16.965-2.7,19.35-4.32a11.113,11.113,0,0,0,4.815-9.09c0-2.25-.63-10.71-12.645-10.71A26.625,26.625,0,0,0,111.87-18c.9-2.205,1.26-3.105,2.34-6.075A77.88,77.88,0,0,0,132.615-27.9c-.45-1.8-1.035-5.22-1.26-6.705a68.434,68.434,0,0,1-14.67,3.555c.225-.675.315-.99,1.305-4.05.765-.045.99-.36.99-.63,0-.45-.5-.63-.855-.72ZM158.67-28.035c1.89,2.385,2.115,2.7,2.835,3.69-.54.27-.945.45-2.565,1.26-.675-1.215-1.755-3.24-2.43-4.455a1.317,1.317,0,0,0,.405-.72.485.485,0,0,0-.54-.5,2.5,2.5,0,0,0-.945.27l-6.12,2.52a34.216,34.216,0,0,1,4.05,5.9,58.209,58.209,0,0,1-6.39,3.195l4.05,6.345c3.42-2.925,3.78-3.24,5.085-4.185,1.215,2.88,4.455,10.935,5.265,17.28A59.848,59.848,0,0,1,167.76-.54a88.87,88.87,0,0,0-6.3-17.37c.63-.36,1.62-.9,3.285-1.665a27.373,27.373,0,0,1,1.665,3.465c1.62-.72,4.23-1.8,5.895-2.475-.4-.675-.855-1.53-1.665-2.835.225,0,.585-.045.99-.045,2.655,0,2.88,1.755,2.88,2.52,0,3.96-5.76,3.96-7.29,3.96-.765,0-1.3,0-2.07-.045A30.855,30.855,0,0,1,167.22-9c4.59-.36,13.725-1.125,13.725-9.54,0-5.31-3.96-8.775-8.955-8.775a19.786,19.786,0,0,0-4.95.765c-.45-.54-2.7-3.33-3.24-3.96Zm35.46-7.425a80.325,80.325,0,0,0-2.205,16.83c0,13.905,6.66,19.26,9.18,19.26,2.205,0,6.3-3.06,9.9-11.79a20.471,20.471,0,0,1-4.725-4.77c-1.215,2.835-2.925,6.8-4.365,6.8-1.3,0-3.015-3.825-3.015-9.315A40.269,40.269,0,0,1,201.42-32c.4-.045.945-.135.945-.72,0-.4-.5-.54-.9-.675ZM217.4-29.385a40.981,40.981,0,0,1,7.56,22.275c1.485-.765,4.68-2.3,7.335-3.33a44.877,44.877,0,0,0-9.09-22.635ZM255.42-37.8c.18,2.07.18,3.825.18,5.535-2.025.135-11.88.585-14.085.81v7.11c3.735-.5,8.6-1.125,14.13-1.35,0,.72.045,4.365.045,5.175-5.265.225-5.265-.54-5.265-1.035,0-.315.135-.45.945-1.53l-4.95-1.125c-2.34,2.43-3.15,3.87-3.15,5.445,0,4.455,8.145,4.32,12.6,4.23.045,1.62.045,1.62.045,2.655-7.515-.135-13.95,2.07-13.95,7.2,0,4.1,5.085,7.29,12.06,7.29,9.855,0,9.54-5.31,9.45-7.65a36.275,36.275,0,0,1,9.63,5.67A71.932,71.932,0,0,1,278.1-5c-1.665-1.26-9.4-5.175-15.03-5.94-.09-1.89-.09-2.07-.09-4.005a85.508,85.508,0,0,0,11.25-1.485v-6.7a59.07,59.07,0,0,1-11.43,2.115v-4.95a109.146,109.146,0,0,1,12.645.4v-6.7c-3.375-.405-10.35-.27-12.42-.27.045-.495.045-.9.225-2.655.315-.045.81-.135.81-.63,0-.45-.4-.495-.81-.585Zm.5,31.275c.27,2.475-1.08,3.285-3.285,3.285-.765,0-3.24-.135-3.24-1.62,0-1.845,4.32-1.845,4.545-1.845A9.854,9.854,0,0,1,255.915-6.525Zm47.2-31.545a47.49,47.49,0,0,1,.63,5.715c-15.525.9-17.235.99-18.27.945l.495,7.6a122.05,122.05,0,0,1,17.955-2.34c0,.675,0,1.08-.045,2.52-.945-.135-9.4-.45-9.4,9.45a11.3,11.3,0,0,0,1.935,6.66,6.017,6.017,0,0,0,4.86,2.025,5.035,5.035,0,0,0,3.555-1.08c-1.62,3.69-6.93,5.94-8.28,6.48a30.132,30.132,0,0,1,6.57,4.635c6.255-3.51,10.44-10.98,10.44-17.37,0-.63,0-5.445-2.61-8.64a36.582,36.582,0,0,1-.045-4.995c3.285-.045,6.7-.045,14.85.36-.18-1.845-.09-6.3-.045-7.245-.855.09-2.25.135-14.94.675.09-1.8.135-2.34.225-3.15.36-.09.9-.27.9-.765,0-.36-.4-.4-1.125-.495Zm-.27,20.16c1.8,0,2.025,1.755,2.025,2.79,0,2.25-.81,4.32-2.2,4.32-.81,0-2.3-.81-2.3-3.78C300.375-16.425,301.365-17.91,302.85-17.91Z" transform="translate(838 -4841.5)"/><path d="M22.464,0h9.072V-9.126H22.464ZM22.41-42.552V-29.97l2,15.876h5.184L31.536-29.97V-42.552Z" transform="translate(1156 -4836.5)"/><rect width="932" height="4" transform="translate(471 -4969.5)" fill="#de0026"/><rect width="355" height="4" transform="translate(471 -4824.5)" fill="#de0026"/></g></svg>