<svg xmlns="http://www.w3.org/2000/svg" width="330.542" height="134.861" viewBox="0 0 330.542 134.861"><g transform="translate(-22 -107.772)"><rect width="208.506" height="31.604" rx="15.802" transform="translate(83 107.772)" fill="#de0026"/><path d="M3.132,1.519a1,1,0,0,1,1.736,0L7.145,5.5A1,1,0,0,1,6.277,7H1.723A1,1,0,0,1,.855,5.5Z" transform="translate(192 144) rotate(-180)" fill="#de0026"/><g transform="translate(2)"><g transform="translate(20.186 165.15)"><path d="M18.614-53.449H24.12V-64.407H17.6c.106-.266.133-.372.426-1.25h7.713v-3.724H3.161v7.394c0,5.718-.133,10.027-2.58,14.6a10.364,10.364,0,0,1,3.936,1.436C7.284-50.39,7.47-57.013,7.47-61.588v-4.069h6.224c-.133.479-.239.825-.4,1.25H8.507v10.958h5.772v3.458c0,.665-.213.745-.745.745a7.492,7.492,0,0,1-1.144-.106c.665-.931.718-1.037,1.011-1.436.4-.027.745-.106.745-.426a.444.444,0,0,0-.239-.4L10.13-53.342a15.515,15.515,0,0,1-4.2,5.24,10.971,10.971,0,0,1,3.378,2.394,15.576,15.576,0,0,0,2.633-3.032,11.485,11.485,0,0,1,1.117,3.458c3.325-.027,5.559-.027,5.559-2.9Zm-6.038-7.9h7.394v1.011H12.577Zm7.394,4.761H12.577v-1.064h7.394ZM18.8-51.081a30.121,30.121,0,0,1,4.256,5.532,21.165,21.165,0,0,1,3.192-2.66,24.489,24.489,0,0,0-4.282-5.08Zm28.885-1.144a29.235,29.235,0,0,0,3.644,3.591,13.252,13.252,0,0,1,3.165-3.484,26.6,26.6,0,0,1-8.618-9.655H53.8V-65.79H43.909v-2.9c.239-.133.559-.293.559-.612,0-.372-.426-.426-.665-.426l-4.468-.16v4.1H29.386v4.016h7.793a22.212,22.212,0,0,1-8.644,9.841,8.144,8.144,0,0,1,3.458,3.245A27.55,27.55,0,0,0,35.637-52.3v3.059h3.7v3.883h4.575v-3.883h3.777Zm-3.777-.931v-4.522a25.065,25.065,0,0,0,3.006,4.522Zm-4.575,0H36.328a27.1,27.1,0,0,0,3.006-4.628Z" transform="translate(-0.581 70.817)"/><path d="M34.522-42.924A3.521,3.521,0,0,0,31-39.4a3.521,3.521,0,0,0,3.526,3.526A3.538,3.538,0,0,0,38.049-39.4,3.521,3.521,0,0,0,34.522-42.924Z" transform="translate(30.985 52.815)"/><path d="M18.676-66.354a16.79,16.79,0,0,1,2.048-3.272,39.454,39.454,0,0,0-7.261-2.686l-2.234,3.458a33.972,33.972,0,0,1,6.437,2.5H7.318v4.309h9.655a30.233,30.233,0,0,1-12.74,6.7,24.7,24.7,0,0,1,2.5,4.2A32.649,32.649,0,0,0,13.6-54.332V-47.5h4.947V-57.63a52.678,52.678,0,0,0,5.665-5.559,8.517,8.517,0,0,1,1.223-1.117l-2.447-2.447a3.689,3.689,0,0,1-1.862.4Zm.106,10.479a38.666,38.666,0,0,1,6.7,4.921A29.608,29.608,0,0,1,28.2-54.545a46.523,46.523,0,0,0-6.6-4.575Zm21.863-15.56a37.324,37.324,0,0,1,.186,4.6H32.852v4.628h7.554c-.851,5.16-2.633,7.474-8.724,10.745a26.43,26.43,0,0,1,3.883,3.7,18.494,18.494,0,0,0,10-14.443h4.123a52.6,52.6,0,0,1-.505,6.809c-.293,1.729-.825,2.527-2.66,2.527a14,14,0,0,1-2.394-.266,19.06,19.06,0,0,1,1.144,5.08,7.6,7.6,0,0,0,1.223.08c4.947,0,6.25-2.208,6.782-3.272,1.17-2.314,1.33-6.889,1.489-15.586h-8.91c0-.319.106-2.74.106-3.351.372-.16.665-.319.665-.585,0-.346-.346-.346-.665-.372Zm8.006.745a30.729,30.729,0,0,1,2.633,3.325c.692-.559,1.383-1.064,2.234-1.649a27.6,27.6,0,0,0-2.686-3.112Zm3.857-.612a27.668,27.668,0,0,1,2.447,3.192,27.745,27.745,0,0,1,2.314-1.6,21.154,21.154,0,0,0-2.5-3.085Zm31.944,1.2a2.611,2.611,0,0,0-2.607-2.607A2.611,2.611,0,0,0,79.238-70.1a2.617,2.617,0,0,0,2.607,2.633A2.617,2.617,0,0,0,84.452-70.1Zm-1.383,0a1.22,1.22,0,0,1-1.223,1.223A1.22,1.22,0,0,1,80.622-70.1a1.215,1.215,0,0,1,1.223-1.2A1.215,1.215,0,0,1,83.069-70.1ZM69.61-66.248H60.886v4.468H69.61v8.033c0,.665,0,1.3-.958,1.3a13.314,13.314,0,0,1-2.314-.266,14.492,14.492,0,0,1,1.436,4.788c.426.027.878.08,1.543.08,3.936,0,5.213-1.011,5.213-4.229V-61.78h8.7v-4.468h-8.7v-3.99c.346-.186.559-.293.559-.559,0-.213-.133-.346-.505-.372l-4.974-.213Zm-4.974,5.559a21.671,21.671,0,0,1-5.4,7.048,23.035,23.035,0,0,1,3.91,2.979,33.61,33.61,0,0,0,5.107-6.915c.372-.053.745-.106.745-.426,0-.239-.16-.319-.346-.426Zm11.118,2.5a33.533,33.533,0,0,1,4.974,7.128c1.516-1.383,2.128-1.862,3.75-3.139a43.026,43.026,0,0,0-5.266-6.676Zm16.012-10.16a35.351,35.351,0,0,1,6.782,3.431,37.886,37.886,0,0,1,2.527-3.99,39.149,39.149,0,0,0-6.889-3.085ZM104.4-68.8a20.921,20.921,0,0,1,2.819,2.979c.825-.745,1.144-1.037,2.1-1.782a23.815,23.815,0,0,0-2.793-2.846ZM88.814-61.966a30.871,30.871,0,0,1,6.437,3.644,38.963,38.963,0,0,1,2.66-4.016,38.12,38.12,0,0,0-6.6-3.564ZM107.139-70.9a19.12,19.12,0,0,1,2.766,2.926,24.92,24.92,0,0,1,2.021-1.676,23.656,23.656,0,0,0-2.793-2.846ZM92.218-47.763c.16.319.239.479.452.479.319,0,.426-.4.479-.612,10.985-4.043,17.156-10.745,19.23-13.8a19.049,19.049,0,0,1-2.873-4.282C105.73-60.29,97.671-54.2,89.984-52.444Zm25.188-22.555v4.6h15.772c-1.383,3.99-4.069,10.347-13.432,13.937a25.689,25.689,0,0,1,3.7,3.963c10.214-5.346,12.528-11.2,15.294-18.618a5.5,5.5,0,0,1,.851-1.729l-3.4-2.394a4.584,4.584,0,0,1-1.835.239ZM158.659-60.1a37.218,37.218,0,0,0,4.6-4.256c.452.027.8.053.8-.266,0-.133-.053-.213-.213-.346l-3.484-2.607a28.4,28.4,0,0,1-14.576,9.5,18.03,18.03,0,0,1,2.9,3.617,32.248,32.248,0,0,0,5.612-2.819v9.416h4.362Zm17.262-10v6.862a15.612,15.612,0,0,1-1.144,6.117,14.112,14.112,0,0,1-3.99,4.681,14.872,14.872,0,0,1,3.91,3.218,17.825,17.825,0,0,0,6.224-13.831v-5.9c.293-.106.585-.239.585-.559s-.266-.346-.665-.372Zm7-.293v17.581a13.99,13.99,0,0,1-.133,1.676l3.325,2.128a18.792,18.792,0,0,1,1.436-1.33c2.341-1.809,6.6-5.08,9.123-8.963a16.5,16.5,0,0,1-2.474-4.335,29.085,29.085,0,0,1-6.357,6.915V-69.2c.479-.319.585-.4.585-.612,0-.319-.293-.319-.585-.346ZM213.078-60.21a28.975,28.975,0,0,1,3.085,4.389c-.878.08-5.187.585-6.144.692-.426.053-.559.053-1.968.186a97.3,97.3,0,0,0,3.671-9.549c.239-.665,1.223-3.936,1.463-4.655.4-.133.8-.266.8-.638,0-.213-.16-.319-.505-.4l-5.293-1.223a78.311,78.311,0,0,1-5.479,17c-.4.027-2.846.266-3.112.266l1.144,4.655c.053.239.106.505.4.505.239,0,.319-.186.505-.505,3.857-.559,6.33-.9,16.65-2.394a33.545,33.545,0,0,1,1.383,3.351c.585-.479,3.564-2.5,4.229-2.979a55.638,55.638,0,0,0-6.649-11.065Z" transform="translate(71.283 72.791)"/></g><path d="M6.6-38.045a22.076,22.076,0,0,1-.447,3.158c-.534.087-3.1.62-3.692.735l.793,2.322a15.375,15.375,0,0,1,2.293-.735,17.252,17.252,0,0,1-3.432,6.042,10.2,10.2,0,0,1,2.12,1.139A21.774,21.774,0,0,0,7.9-33c.62-.043,1.658-.13,1.658,1.356,0,1.788-.461,3.4-.952,3.836a1.089,1.089,0,0,1-.851.274A2.4,2.4,0,0,1,6.5-27.849a10.943,10.943,0,0,1,.216,1.932,4.411,4.411,0,0,1-.043.534,7.745,7.745,0,0,0,1.529.159,2.473,2.473,0,0,0,2.134-1.009,9.653,9.653,0,0,0,1.442-5.336c0-3.49-2.062-3.533-3.3-3.533.1-.375.187-.75.4-1.73.087,0,.389-.029.389-.231,0-.13-.13-.173-.288-.216Zm4.514,2.639a10.584,10.584,0,0,1,1.226,1.6,5.722,5.722,0,0,1,.75,1.976c0,.461-.534.577-.923.663A11.591,11.591,0,0,1,13-29.234a5.608,5.608,0,0,0,1.442-.447,1.477,1.477,0,0,0,1.024-1.529,10.147,10.147,0,0,0-2.6-5.321Zm9.979-.822a12.878,12.878,0,0,1,4.3,1.774,18.149,18.149,0,0,1,1.3-2.105,14.4,14.4,0,0,0-4.845-1.6Zm-.851.678a34.251,34.251,0,0,0-1.514,5.97l2.062.75a6.646,6.646,0,0,1,4.6-2.365c1.485,0,1.687,1.053,1.687,1.471,0,1.211-1.3,2.437-4.571,2.437a8.131,8.131,0,0,1-2.134-.216,8.127,8.127,0,0,1,.678,2.423c.274.014.634.029,1.053.029,4.773,0,7.369-1.889,7.369-4.643a3.5,3.5,0,0,0-3.692-3.547A7.985,7.985,0,0,0,21.568-31.9,9.7,9.7,0,0,1,22.52-34.4c.159-.014.332-.029.332-.2,0-.13-.115-.159-.216-.187Z" transform="translate(321.071 214.408)"/><rect width="298.663" height="1.282" transform="translate(20 194.885)" fill="#de0026"/></g><g transform="translate(53)"><path d="M15.436-58.8a28.045,28.045,0,0,1,2.021,5.9,29.024,29.024,0,0,1,3.484-1.489v3.139c0,.8-.293.9-.718.9-.718,0-2.261-.16-2.819-.213A13.858,13.858,0,0,1,19.08-46.01c.346.027.665.053,1.117.053,4.309,0,5.24-1.064,5.24-4.362V-61.064h2.1V-65.08h-2.1v-4.335c.319-.106.638-.213.638-.532,0-.346-.239-.4-.532-.4l-4.6-.186v5.453H16.127v4.016h4.814V-55.4a40.561,40.561,0,0,0-1.888-4.947ZM7.35-62.9H3.094v3.7H7.35v1.862H3.493v3.724H7.35v2.527a43.634,43.634,0,0,1-4.362.372l.718,4.256c.053.293.16.479.452.479.346,0,.4-.186.559-.718,1.729-.213,6.836-.878,11.091-1.809a18.745,18.745,0,0,1,.213-3.99c-.9.213-1.6.346-4.2.771v-1.888H15.3v-3.724H11.818V-58.3c.372-.133.718-.293.718-.638a.308.308,0,0,0-.106-.266h3.245v-3.7H11.818v-1.649H15.09v-3.724H11.818v-1.064c.346-.133.718-.293.718-.638,0-.293-.213-.4-.559-.4L7.35-70.506v2.234H3.759v3.724H7.35Zm41.04-3.032a12.794,12.794,0,0,1,.665,2.021,23.642,23.642,0,0,1,4.335-.692,12.786,12.786,0,0,0-.559-1.33h3.351V-69.07H49.454c.08-.16.106-.239.16-.346.426,0,.8-.053.8-.372,0-.266-.266-.346-.505-.372L45.624-70.8a17.39,17.39,0,0,1-1.436,3.085V-69.07H39.32l.133-.266c.346-.027.771-.08.771-.452,0-.266-.213-.346-.372-.372l-4.468-.612a17.107,17.107,0,0,1-4.176,5.718,13.244,13.244,0,0,1,2.873,1.3H32.724v17.767h4.389V-60.346H51.023v9.309c0,.8-.106.9-1.2.8V-56.25H38.336v8.591H42.06v-1.41H48.6a11.023,11.023,0,0,1,.984,3.059c4.921.319,5.825-.931,5.825-3.3V-63.751H46.449a23.171,23.171,0,0,0,1.383-2.181ZM35.65-63.751a16.559,16.559,0,0,0,1.676-2.154,14.408,14.408,0,0,1,.612,2.128,18.443,18.443,0,0,1,4.069-.745,16.27,16.27,0,0,0-.585-1.543H43.1a10.943,10.943,0,0,1-1.064,1.223,15.846,15.846,0,0,1,2.607,1.091ZM46-53.457V-52.1H42.06v-1.356Zm-8.219-6.171v2.686H50.358v-2.686Zm32.236-3.139v-1.117h4.522V-67.66H70.014v-1.782c.319-.16.638-.293.638-.585,0-.346-.293-.372-.585-.372l-4.043-.106v3.192H64.8c.08-.293.106-.426.239-1.037.532-.106.771-.213.771-.505,0-.186-.053-.346-.213-.372l-3.857-.8a14.828,14.828,0,0,1-1.968,5.851,13.911,13.911,0,0,1,3.325,1.41H60.572v3.857h5.453v.958H61.184v10.479h3.8V-54.1h1.037v8.139h3.99v-4.867a7.416,7.416,0,0,1,.825,3.245c2.021.106,3.777-.4,3.777-2.5v-7.873h-4.6v-.958h4.708v-3.857Zm-6.6,0c.08-.186.16-.4.4-1.117h2.208v1.117Zm6.6,8.671H71.1v1.915c0,.638-.213.692-1.09.612Zm5.532-13.512v16.092H79.4V-66.41c.479-.293.612-.4.612-.638,0-.319-.239-.346-.612-.372Zm4.894-2.926v19.6c0,.638-.027.9-1.011.9a23.065,23.065,0,0,1-2.367-.16,8.533,8.533,0,0,1,1.622,4.309c4.841.213,5.9-.771,5.9-4.2V-69.336c.452-.266.612-.372.612-.612,0-.372-.372-.426-.612-.426Zm20.906-.186a24.994,24.994,0,0,1-4.681,8.99V-63.3c.505-.08.745-.319.745-.585,0-.16-.213-.293-.4-.4l-.372-.213A32.344,32.344,0,0,0,98.5-68.645c.479-.027.851-.106.851-.426,0-.213-.16-.346-.479-.426l-4.681-1.2a26.546,26.546,0,0,1-5.8,10.533,12,12,0,0,1,3.059,3.272,6.389,6.389,0,0,0,.692-.8v11.65h4.522V-59.947A12.621,12.621,0,0,1,99.591-57.9a25.573,25.573,0,0,0,3.085-4.788v16.65h4.655V-50.8h6.117v-4.1h-6.117v-2.021h5.612v-3.936h-5.612v-1.915h6.437v-4.149h-8.937c.106-.266.638-1.543.745-1.835.638-.027.851-.213.851-.452s-.16-.346-.372-.4Z" transform="translate(17.969 283.053)"/><path d="M15.08-37.889A34.654,34.654,0,0,1,9.3-36.837a46.729,46.729,0,0,1-6.417.332l.332,2.711a39.315,39.315,0,0,1,5.97-.908,6.56,6.56,0,0,0-2.653,4.961c0,3.446,4.139,4.6,5.307,4.917a19.448,19.448,0,0,1,1.082-2.625c-1.961-.043-4.081-.865-4.081-2.538,0-2.336,3.086-5.537,6.648-5.48Zm-1.529,4.225a10.676,10.676,0,0,1,1.283,1.63c.447-.4.692-.62,1.053-.894A9.15,9.15,0,0,0,14.6-34.443ZM12.037-32.64a11.651,11.651,0,0,1,1.283,1.63c.5-.418.707-.577,1.11-.865a8.95,8.95,0,0,0-1.341-1.543Zm10.3-5.047c.159.476.26.822.591,1.687a17.354,17.354,0,0,1-3.3.231l.461,2.019a27.628,27.628,0,0,0,3.605-.346c.159.346.2.476.274.634a17.482,17.482,0,0,1-3.317.332c-.317,0-.88-.014-1.759-.058l.245,2.134a8.756,8.756,0,0,0,.923.043,25.757,25.757,0,0,0,4.816-.5,7.348,7.348,0,0,0,.5.865,15.319,15.319,0,0,0-2-.159c-2.423,0-3.836,1.2-3.836,2.74,0,1.384,1.2,3.158,4.9,3.158a12.23,12.23,0,0,0,3.62-.461,3.229,3.229,0,0,1-.043-.62,6.548,6.548,0,0,1,.159-1.543,10.421,10.421,0,0,1-3.778.591c-1.73,0-2.509-.49-2.509-1.182,0-.836,1.283-1.038,1.889-1.038a7.829,7.829,0,0,1,4.11,1.211l1.341-1.428a13.967,13.967,0,0,1-2.177-2.754,12.964,12.964,0,0,0,3.158-1.6c-.159-.26-.966-1.543-1.125-1.86a12.186,12.186,0,0,1-3.028,1.572c-.058-.13-.087-.173-.274-.62a10.638,10.638,0,0,0,2.682-1.182,17.571,17.571,0,0,1-.793-1.759A10.375,10.375,0,0,1,25.16-36.52a8.382,8.382,0,0,1-.245-1.557ZM37.5-38.25a19.3,19.3,0,0,1-.548,2.552,13.264,13.264,0,0,1-3.49-.317l.029,2.365c.548.043,1.543.1,2.8.087a20.22,20.22,0,0,1-1.918,4.052l2.077,1.038a7.4,7.4,0,0,1,4.989-2.408c1.327,0,1.759.707,1.759,1.543a1.466,1.466,0,0,1-.779,1.356,9.743,9.743,0,0,1-4.283.88,21.212,21.212,0,0,1-2.149-.13,10.184,10.184,0,0,1,.534,2.149,13.239,13.239,0,0,0,1.341.072c3.994,0,5.437-.865,6.2-1.384a3.561,3.561,0,0,0,1.543-2.913c0-.721-.2-3.432-4.052-3.432a8.532,8.532,0,0,0-3.749.981c.288-.707.4-1,.75-1.947a24.957,24.957,0,0,0,5.9-1.226c-.144-.577-.332-1.673-.4-2.149a21.93,21.93,0,0,1-4.7,1.139c.072-.216.1-.317.418-1.3.245-.014.317-.115.317-.2,0-.144-.159-.2-.274-.231Zm15.3,3.273c.606.764.678.865.908,1.182-.173.087-.3.144-.822.4-.216-.389-.562-1.038-.779-1.428a.422.422,0,0,0,.13-.231.156.156,0,0,0-.173-.159.8.8,0,0,0-.3.087l-1.961.808a10.965,10.965,0,0,1,1.3,1.889A18.653,18.653,0,0,1,49.054-31.4l1.3,2.033c1.1-.937,1.211-1.038,1.63-1.341a24.593,24.593,0,0,1,1.687,5.537,19.179,19.179,0,0,1,2.048-1A28.478,28.478,0,0,0,53.7-31.732c.2-.115.519-.288,1.053-.534a8.771,8.771,0,0,1,.534,1.11c.519-.231,1.356-.577,1.889-.793-.13-.216-.274-.49-.534-.908.072,0,.187-.014.317-.014.851,0,.923.562.923.808,0,1.269-1.846,1.269-2.336,1.269-.245,0-.418,0-.663-.014a9.888,9.888,0,0,1,.663,1.932c1.471-.115,4.4-.361,4.4-3.057a2.742,2.742,0,0,0-2.87-2.812,6.34,6.34,0,0,0-1.586.245c-.144-.173-.865-1.067-1.038-1.269Zm11.363-2.379a25.741,25.741,0,0,0-.707,5.393c0,4.456,2.134,6.172,2.942,6.172.707,0,2.019-.981,3.172-3.778A6.56,6.56,0,0,1,68.06-31.1c-.389.908-.937,2.177-1.4,2.177-.418,0-.966-1.226-.966-2.985a12.9,12.9,0,0,1,.808-4.341c.13-.014.3-.043.3-.231,0-.13-.159-.173-.288-.216Zm7.455,1.947a13.132,13.132,0,0,1,2.423,7.138c.476-.245,1.5-.735,2.351-1.067a14.381,14.381,0,0,0-2.913-7.253Zm12.185-2.7c.058.663.058,1.226.058,1.774-.649.043-3.807.187-4.514.26v2.278c1.2-.159,2.754-.361,4.528-.433,0,.231.014,1.4.014,1.658-1.687.072-1.687-.173-1.687-.332,0-.1.043-.144.3-.49l-1.586-.361c-.75.779-1.009,1.24-1.009,1.745,0,1.428,2.61,1.384,4.038,1.356.014.519.014.519.014.851-2.408-.043-4.47.663-4.47,2.307,0,1.312,1.63,2.336,3.865,2.336,3.158,0,3.057-1.7,3.028-2.451a11.624,11.624,0,0,1,3.086,1.817,23.056,23.056,0,0,1,1.6-1.8,14.3,14.3,0,0,0-4.816-1.9c-.029-.606-.029-.663-.029-1.283a27.4,27.4,0,0,0,3.605-.476V-33.4a18.929,18.929,0,0,1-3.663.678v-1.586a34.975,34.975,0,0,1,4.052.13v-2.149c-1.082-.13-3.317-.087-3.98-.087.014-.159.014-.288.072-.851.1-.014.26-.043.26-.2s-.13-.159-.26-.187Zm.159,10.022c.087.793-.346,1.053-1.053,1.053-.245,0-1.038-.043-1.038-.519,0-.591,1.384-.591,1.456-.591A3.158,3.158,0,0,1,83.966-28.084ZM99.093-38.192a15.218,15.218,0,0,1,.2,1.831c-4.975.288-5.523.317-5.855.3l.159,2.437a39.112,39.112,0,0,1,5.754-.75c0,.216,0,.346-.014.808a2.707,2.707,0,0,0-3.014,3.028,3.62,3.62,0,0,0,.62,2.134,1.928,1.928,0,0,0,1.557.649,1.614,1.614,0,0,0,1.139-.346,5.128,5.128,0,0,1-2.653,2.077,9.656,9.656,0,0,1,2.105,1.485,6.816,6.816,0,0,0,3.346-5.566,4.722,4.722,0,0,0-.836-2.769,11.723,11.723,0,0,1-.014-1.6c1.053-.014,2.149-.014,4.759.115-.058-.591-.029-2.019-.014-2.322-.274.029-.721.043-4.788.216.029-.577.043-.75.072-1.009.115-.029.288-.087.288-.245,0-.115-.13-.13-.361-.159Zm-.087,6.46c.577,0,.649.562.649.894,0,.721-.26,1.384-.707,1.384-.26,0-.735-.26-.735-1.211C98.213-31.256,98.531-31.732,99.007-31.732Z" transform="translate(135.649 261.896)"/><path d="M22.427-28.916h2.907v-2.924H22.427ZM22.41-42.552v4.032l.64,5.088h1.661l.623-5.088v-4.032Z" transform="translate(224.282 266.421)"/><rect width="113.761" height="1.282" transform="translate(20 241.351)" fill="#de0026"/></g></g></svg>