<svg xmlns="http://www.w3.org/2000/svg" width="248.32" height="65.889" viewBox="0 0 248.32 65.889"><path d="M-6.715-4.844V-6.391l-4.82.008.008-3.437h5.492l.008-1.555h-7.391V0h1.883l.008-4.844Zm8.6,2.227L2.652,0H4.6L.957-11.375H-.707L-4.41,0h1.953l.773-2.617ZM-1.207-4.227l1.328-4.5,1.3,4.5Zm15.289-.562V-6.352a8.7,8.7,0,0,0-.1-1.2,6.138,6.138,0,0,0-.277-1.121,4.978,4.978,0,0,0-.6-1.187,4.026,4.026,0,0,0-.871-.922,3.776,3.776,0,0,0-1.051-.551,3.922,3.922,0,0,0-1.277-.2,3.853,3.853,0,0,0-1.27.2,3.685,3.685,0,0,0-1.035.551,3.68,3.68,0,0,0-.832.883,4.781,4.781,0,0,0-.559,1.133,6.7,6.7,0,0,0-.3,1.16,7.662,7.662,0,0,0-.1,1.254v1.563a6.715,6.715,0,0,0,.1,1.164,5.821,5.821,0,0,0,.3,1.1,5.024,5.024,0,0,0,.563,1.066,3.874,3.874,0,0,0,.8.855,3.749,3.749,0,0,0,1.039.555,3.844,3.844,0,0,0,1.281.2,4.031,4.031,0,0,0,.57-.039,4.7,4.7,0,0,0,.539-.109l2.2,1.961L14.457.844,12.543-.828a3.7,3.7,0,0,0,.641-.75,5.15,5.15,0,0,0,.461-.891,5.973,5.973,0,0,0,.32-1.125A7.1,7.1,0,0,0,14.082-4.789Zm-1.9-1.578v1.578a6.449,6.449,0,0,1-.043.734,6.179,6.179,0,0,1-.129.734,4.16,4.16,0,0,1-.3.777,2.2,2.2,0,0,1-.469.621,2,2,0,0,1-.578.363,1.936,1.936,0,0,1-.75.137,1.9,1.9,0,0,1-.734-.133,1.691,1.691,0,0,1-.555-.367,2.114,2.114,0,0,1-.465-.629,3.707,3.707,0,0,1-.285-.809,5.193,5.193,0,0,1-.125-.711,6.793,6.793,0,0,1-.039-.719V-6.367q0-.383.035-.766a6.13,6.13,0,0,1,.113-.742,3.943,3.943,0,0,1,.277-.879,2.237,2.237,0,0,1,.473-.684A1.782,1.782,0,0,1,9.168-9.8a1.926,1.926,0,0,1,.742-.133,2.017,2.017,0,0,1,.766.137,1.793,1.793,0,0,1,.578.371,2.383,2.383,0,0,1,.441.594,3.267,3.267,0,0,1,.285.75,5.068,5.068,0,0,1,.156.832A8.391,8.391,0,0,1,12.183-6.367Z" transform="translate(121.88 63.92)" fill="#de0026"/><path d="M-93.36-3.84c-.12-.56-.36-.72-.8-1.04-.72-.28-.84-.72-1.24-.84-.72-.2-.92-.6-1.4-.76a7.607,7.607,0,0,1-1.8-.92c-.56-.32-.76-.36-1.6-.8a19.2,19.2,0,0,1-1.92-.84c-.56-.2-1.24-.2-1.64-.56a4.232,4.232,0,0,1-1.4-1.08,3.321,3.321,0,0,1-.56-2.28c-.04-.96,0-1.52,0-1.88,0-.4-.08-1.2-.04-1.68.04-.6-.2-1.16-.04-1.64a1.288,1.288,0,0,1,1.16-1.64c.68-.08,1.64,0,2.32-.12a10.86,10.86,0,0,0,2.32-.24,13.72,13.72,0,0,0,2.28-.4c.76-.04.88-.28,1.48-.4a2.26,2.26,0,0,0,1-.44c.4-.28.6-.12.8-.88a1.84,1.84,0,0,0-.16-.96c-.12-.44-.16-.64-.28-1.16-.2-.96-.6-1.12-1.44-.96-.6.28-.88.16-1.28.4-.72.4-.92.12-1.28.32-.52.32-.88.04-1.48.32a5.271,5.271,0,0,1-1.64.2c-.4-.04-1,.2-1.56.16a2.117,2.117,0,0,1-1.12.04,1.284,1.284,0,0,1-1.2-1.32,5.728,5.728,0,0,1-.04-1.4c-.16-1.04,0-1.36-.08-2.16a1.9,1.9,0,0,1,.16-1.24c.2-.44.64-.4.64-1.04.08-.4-.56-.68-.88-.68-.56,0-.96-.08-1.4-.08h-.2a3.889,3.889,0,0,0-.72-.04h-.88a.975.975,0,0,0-1.08.96c0,.44.12,1.08.08,1.36a3.953,3.953,0,0,0,.04,1.84,15.611,15.611,0,0,1,.04,1.88,2,2,0,0,0,0,1.28c.16.32-.12.44.04.88a3.824,3.824,0,0,0,.12,1.12c.2.56-.24.6-.04,1.08,0,.96-.24,1.36.08,2.2.12.28-.16.36,0,.88a6.427,6.427,0,0,1,.04,1.32,8.326,8.326,0,0,0,.04,2c0,.88.04,1.52.04,2-.08,1.28-.8,1.68-1.76,1.56-.52-.2-1.2,0-1.72-.12l-1.08-.04a8.481,8.481,0,0,0-1.52.08,4.308,4.308,0,0,0-1.48.28c-.6.08-.96.44-1.44.48s-.96.6-1.28.68c-.56.08-.88.68-1.12.88a7.441,7.441,0,0,0-.84,1.12,3.559,3.559,0,0,0-.56,1.4,2.829,2.829,0,0,0-.2,1.08v.72a6.414,6.414,0,0,0,.56,2.4c.24.32.4.72.72,1.16a2.611,2.611,0,0,0,.92.96c.56.28.72.8,1.52.92s1.24.52,1.72.56c.92.08,1.32.36,1.8.28a7.307,7.307,0,0,1,1.4.12,1.107,1.107,0,0,0,.36-.04h.96a2.008,2.008,0,0,0,.48-.08c.52-.16.92-.04,1.52-.2a10.72,10.72,0,0,1,1.4-.4,6.869,6.869,0,0,0,1.28-.68c.24-.24.72-.6.92-.76a3.61,3.61,0,0,0,.76-.8,5.425,5.425,0,0,0,.64-1.52,3.2,3.2,0,0,0,.28-1.24,1.091,1.091,0,0,1,1.56-.92,14.99,14.99,0,0,0,1.48.8c.4.12.68.48,1.24.6.68.16.64.44,1.08.56.76.2,1.24.76,1.88.96.68.24.8.76,1.56.96.32.08.4.32.76.44a1.054,1.054,0,0,0,1.24-.52c.28-.4.44-.6.68-1,.32-.56.8-.88.8-1.32Zm-16.8-1.08a2.462,2.462,0,0,1-.88,1.48c-.4.32-.48.52-1.04.6-.52.08-.32.28-.92.24-.52-.04-.32.28-1,.12-.6-.16-.92-.04-1.52-.16a3.681,3.681,0,0,1-1.6-.44c-.6-.36-.76-.28-1.04-.8a1.589,1.589,0,0,1-.52-1.32,2.1,2.1,0,0,1,.44-1.32c.32-.4.52-.8,1.08-.96a1.921,1.921,0,0,1,1.32-.4c.4,0,1.08-.12,1.44-.12.64.04,1.52.08,2.28.2.96.16,1.8.28,2.08,1.08A2.911,2.911,0,0,1-110.16-4.92ZM-56.68-31a13.4,13.4,0,0,1-1.36-.88c-.52-.16-.72-.52-1.32-.84-.28-.16-.4-.32-.6-.32-.04,0-.08.04-.12.04h-.16c-.8,0-.88.6-1.28,1.16a4.02,4.02,0,0,0-.72.96c-.24.12-.4.68-.72.88a3.676,3.676,0,0,0-.76.92c-.44.32-.48.56-.8.88a14.852,14.852,0,0,0-1.6,1.68c-.44.12-.6.64-.84.84a5.558,5.558,0,0,0-.84.84,14.637,14.637,0,0,1-1.6,1.56c-.52.6-1.28,1.16-1.64,1.56-.44.72-1,.92-1.64,1.52a8.634,8.634,0,0,1-1.64,1.56,5.9,5.9,0,0,1-1.32,1.32,3.185,3.185,0,0,0-.6,1.68v.16a2.63,2.63,0,0,0,.64,1.6,14,14,0,0,0,1.52,1.56c.44.52,1.2.92,1.6,1.4.56.52.68.84,1.28,1.2a6.235,6.235,0,0,0,1.28,1.24l1.24,1.24c.32.44.92.88,1.24,1.24a11.91,11.91,0,0,1,.88.96,2.375,2.375,0,0,1,.92.96c.2.48.68.48.88.96.28.56.68.52.88.96.28.64.64.6.84,1,.24.52.6.48.84,1.04A2.944,2.944,0,0,0-61.36.92a7.837,7.837,0,0,0,.76,1.12,1.723,1.723,0,0,0,1.32.84h.08c.32,0,.44-.28.68-.44.68-.56,1.08-.88,1.72-1.4.28-.24.64-.4.64-.88a.994.994,0,0,0-.04-.32,2.763,2.763,0,0,0-.84-1.36c-.48-.52-.88-.92-1.28-1.44A6.031,6.031,0,0,0-59.6-4.4c-.64-.28-.92-1.04-1.32-1.4-.48-.52-.84-.76-1.32-1.36-.44-.16-.64-.44-.92-.96-.16-.24-.76-.48-.92-.92-.52-.2-.52-.68-.96-.92-.44-.32-.56-.8-.92-.92-.2-.32-.56-.44-.96-.92a3.552,3.552,0,0,1-1-.92,6.394,6.394,0,0,0-.96-.88,15.914,15.914,0,0,1-1.48-1.16c-.68-.6-.6-1.24.08-1.84a7.945,7.945,0,0,1,.96-.84c.64-.48.92-.96,1.48-1.36.44-.44.92-.8,1.48-1.32.36-.48,1.04-.88,1.64-1.52.48-.52,1.2-.84,1.56-1.6A14.276,14.276,0,0,0-61.6-24.8c.68-.64.84-1,1.52-1.6a15.542,15.542,0,0,0,1.32-1.4,7.425,7.425,0,0,1,1.44-1.32c.44-.16.84-.16,1.12-.64a.912.912,0,0,0,.12-.44A.876.876,0,0,0-56.68-31ZM-4.32-8.6a13.49,13.49,0,0,0-.32-2.64c-.16-.6-.48-.92-.72-1.84-.08-.36-.6-.72-.76-1.2-.12-.2-.4-.44-.8-1.08-.24-.36-.64-.48-.8-.84-.48-.44-.6-.44-1.2-.92-.48-.4-.68-.32-1.12-.68a3.584,3.584,0,0,0-1.24-.6c-.48-.2-.76-.16-1.2-.36-.36-.16-.68-.08-1.04-.36a.592.592,0,0,1-.2-.88c.36-.4.52-.24.64-.68.08-.32-.16-.76-.48-.68-.4-.2-1-.16-1.32-.36-.56-.12-.76-.24-1.28-.32-.08-.12-.2-.04-.56-.08-.84,0-.96.52-1.08,1.12a1.551,1.551,0,0,1-.92,1.2,6.5,6.5,0,0,1-1.92.28c-.96.04-1.88.28-2.6.36-.64.08-1.2-.28-1.12-1.2a13.017,13.017,0,0,1,.24-2.36,1.641,1.641,0,0,1,1.36-1.08c.6,0,1.12-.2,1.68-.16.88,0,1.16-.24,1.76-.24a16.31,16.31,0,0,0,2.12-.24,7.573,7.573,0,0,0,2.08-.36c.44-.12,1-.32,1.44-.4a1.222,1.222,0,0,0,.76-1.36A7.751,7.751,0,0,1-13.04-28a.943.943,0,0,0-1.2-1c-.64.16-.56.32-1.08.28s-.64.32-1.44.28c-.76-.04-.76.32-1.44.28a12.778,12.778,0,0,0-2.16.28,7.033,7.033,0,0,1-2,.08c-.68,0-.92-.4-.84-1.28a4.651,4.651,0,0,1,.44-1.24c.16-.36.84-.32.76-.96.04-.52-.32-.56-.6-.68-.52-.24-1.12-.08-1.68-.28a14.789,14.789,0,0,0-1.92-.28h-.12a.9.9,0,0,0-.8.64c-.24.72.04,1.04-.2,1.76-.24.6-.08.96-.32,1.6a1.369,1.369,0,0,1-1.4,1,5.805,5.805,0,0,1-1.6.12c-.64-.2-.8.04-1.56-.04-.64-.16-1.44-.08-1.84-.16-.72-.12-1.08.44-1.04,1.32a5.17,5.17,0,0,1,.04,1.4c.04.96.6,1.36,1.24,1.32a18.782,18.782,0,0,0,2.12.08,15.961,15.961,0,0,1,1.96,0c.64,0,1.32.24,1.32.96-.12.6.04.88-.08,1.28a12.184,12.184,0,0,0-.12,1.64,4.5,4.5,0,0,1-.32,1.72,4.179,4.179,0,0,1-.88.96c-.48.08-.36.4-1.04.56-.44.12-.56.52-1.04.64-.56.16-.4.48-1.04.76a4.712,4.712,0,0,0-1,.76,2.949,2.949,0,0,0-.88.88c-.36.32-.52.64-.84.92a2.387,2.387,0,0,0-.76,1,1.774,1.774,0,0,0-.64,1c-.12.48-.44.64-.6,1.16A10.944,10.944,0,0,0-38.04-8a16.2,16.2,0,0,0-.4,2.12,1.5,1.5,0,0,0,.04.44v.28a5.4,5.4,0,0,0,.44,2.2,4.232,4.232,0,0,0,1.2,1.88A6.2,6.2,0,0,0-34.8.08a7.083,7.083,0,0,0,2.36.44A9.353,9.353,0,0,0-29.8.12a9.564,9.564,0,0,0,1.92-.8c1.12-.6,1.92-.56,2.16-.12.2.28.52.72.92.56a4.719,4.719,0,0,0,1.64-.8c.36-.28,1.44-.44,1.36-1.4a1.328,1.328,0,0,0-.2-.64,1.779,1.779,0,0,1-.32-.8,2.085,2.085,0,0,1,.28-1.2c.4-.48.64-.52.8-.88.32-.4.24-.64.84-1,.56-.36.28-.72.8-1.12.4-.32.16-.6.76-1.16.28-.24.12-.52.56-.96.48-.48.36-.88.88-1.48a5.066,5.066,0,0,1,.6-1.24c.12-.4.52-.72.6-1.24a6.547,6.547,0,0,1,.48-.88c.36-.56,1.04-.48,1.64-.48.6.08.64.32,1.36.52.84.44.96.8,1.48,1.08.4.2.52.64,1.08,1.28a5.748,5.748,0,0,1,.84,1.48,4.589,4.589,0,0,1,.48,2.2,5.61,5.61,0,0,1-.4,2.44,5.255,5.255,0,0,1-1.08,1.84,16.231,16.231,0,0,1-1.56,1.32c-.56.56-1.16.52-1.72.88a4.263,4.263,0,0,1-1.52.52c-.4.04-1,.32-1.76.4-.52.16-.56.52-.64.84-.12.44.76,1.72.88,2.24.16.44.56,1,1.04,1h.24a11.314,11.314,0,0,0,2.24-.56,7.012,7.012,0,0,0,1.88-.76A3.383,3.383,0,0,0-9.72.44c.32-.32.76-.36,1.4-.84a9.938,9.938,0,0,0,1.2-1c.4-.48.8-.88,1-1.16a3.755,3.755,0,0,0,.8-1.28,15.516,15.516,0,0,1,.6-1.44c.08-.56.24-1.08.28-1.64C-4.4-7.4-4.36-7.88-4.32-8.6Zm-15.92-6.44c-.16.44-.4.4-.48,1.04-.08.48-.32.4-.4.68-.12.44-.28.24-.44.72a6.612,6.612,0,0,1-.56,1.04,4.324,4.324,0,0,1-.8,1.2c-.48.44-.52.6-.92.44-.64-.24-.44-.76-.56-1.32,0-.68-.12-1.12-.12-1.64l-.04-.64a3.022,3.022,0,0,1,.36-1.4,2,2,0,0,1,1.12-.84,6.505,6.505,0,0,1,1.88-.44C-20.4-16.28-19.96-15.72-20.24-15.04Zm-7.4,9.32a1.22,1.22,0,0,1-.88,1.16c-.48.16-.56.52-.92.52-.48,0-.56.32-1.48.52a2.681,2.681,0,0,1-1.44.24A1.416,1.416,0,0,1-33.6-3.8a1.942,1.942,0,0,1-.64-1.48A3.138,3.138,0,0,1-34-6.88a2.925,2.925,0,0,1,.48-1.36,3.763,3.763,0,0,1,.68-1.32c.36-.44.4-.76.88-1.08.32-.2.36-.64.8-.92.24-.28.96-.76,1.2-1a1.076,1.076,0,0,1,1.64.64c0,.56.08.92.08,1.6s.32.96.24,1.52c-.12.68.24.72.2,1.4C-27.84-6.8-27.52-6.6-27.64-5.72ZM36.52-11.4A4.042,4.042,0,0,0,36-13.24c-.48-.72-.32-1.28-.84-1.72-.6-.52-.52-.96-1.32-1.48a10.66,10.66,0,0,0-.92-.72c-.32-.28-.8-.36-1-.64-.52-.36-1.6-.6-2.16-.96-.96-.16-1.44-.52-2.32-.6a16.11,16.11,0,0,0-2.36-.2c-.72.04-1.32.08-1.72.12-.72.12-1,.16-1.56.28-.6.08-1.08-.48-.36-1.24a5.554,5.554,0,0,1,.92-.76c.28-.24.2-.4.6-.6.52-.28.44-.6.84-.76.24-.08.32-.56.88-.8.48-.2.32-.44.84-.8.4-.28.52-.68.88-.76.36-.4,1.08-.96,1.52-1.4.36-.48,1.12-.76,1.68-1.32.36-.36,1.08-.24,1.36-.92a.866.866,0,0,0-.32-.96c-.44-.28-.56-.72-.96-1a4.739,4.739,0,0,1-1-1c-.36-.56-.52-.52-1.16-.6H27.4c-.4,0-.52.16-1.48.24a22.5,22.5,0,0,0-2.52.24c-.92.12-1.64.2-2.56.24-.96.04-1.8.28-2.8.28a12.956,12.956,0,0,0-2.24.2c-.6.2-1.24-.16-1.92.04a8.837,8.837,0,0,1-2.4.08c-.84,0-1.44.48-1.24,1.36.2.6,0,1.32.24,1.92.12.76.4,1.12,1.08,1.16a6.4,6.4,0,0,0,1.56-.2c.48-.12.96.04,1.52-.2.44-.2,1,0,1.48-.24.52-.28,1.16.04,1.64-.2.68-.32,1.04-.04,1.64-.24a9.408,9.408,0,0,1,1.68-.24c.64-.12,1.68-.52,1.96.24.16.44-.36.76-.52.96-.36.64-.56.36-.88.92-.2.36-.52.2-.72.72-.36.56-.56.44-.88.72-.2.36-.6.6-.8.84a5.313,5.313,0,0,0-.88.8,9.5,9.5,0,0,0-1,.8,3.679,3.679,0,0,1-.92.8c-.2.12-.24.36-.64.64-.48.24-.52.52-.96.76-.48.28-.6.76-1.12.96-.44.16-.28.6-.88.72-.44.08-.36.52-.96.72-.52.16-.64.64-1.08.72a3.7,3.7,0,0,1-1,.68c-.24.2-.56.4-1.04.72a.971.971,0,0,0-.56.84v.16a1.364,1.364,0,0,0,.28.76c.4.64.64.88,1,1.48a1.145,1.145,0,0,0,1.44.6,2.773,2.773,0,0,0,.68-.4c.32-.36.52-.28,1.12-.8a7.134,7.134,0,0,1,1.64-.88c.44-.12.2-.4,1.16-.6.24-.04.32-.48,1.12-.48.44,0,.4-.52,1.24-.48.72-.04.64-.24,1.76-.48.8-.16,1.04-.2,2.04-.44a16.631,16.631,0,0,1,2.56-.2,14.3,14.3,0,0,0,1.48.08c.6,0,.88.24,1.44.28a1.88,1.88,0,0,1,1.28.44c.52.24.88.2,1.16.68.24.4.52.24.96.84.32.44.68.64.8,1.16.12.6.48.6.44,1.16-.04.64.16.84.16,1.56a4.37,4.37,0,0,1-.24,1.76c-.44.76-.2,1.12-.64,1.6-.52.6-.56.84-1,1.4A9.088,9.088,0,0,1,29.04-3.8a7.638,7.638,0,0,1-1.28.84c-.56.36-2.08.64-2.16-.56a5.548,5.548,0,0,0-.6-2.6c-.24-.24-.32-.84-.64-1-.4-.2-.4-.6-.84-.84-.4-.2-.52-.52-1-.64-.44-.08-.8-.4-1.12-.44a23.713,23.713,0,0,0-2.36-.28A9.191,9.191,0,0,0,16.4-9a4.391,4.391,0,0,0-2.04,1.08,6.469,6.469,0,0,0-1.44,1.76,5.548,5.548,0,0,0-.52,2.4,8.355,8.355,0,0,1,.2,1.68,7.528,7.528,0,0,0,.6,1.36A2.517,2.517,0,0,0,14.08.36a2.87,2.87,0,0,0,1.16.8,3.513,3.513,0,0,0,1.36.56,2.748,2.748,0,0,0,1.44.36c.44.24,1.12.08,1.52.2.32.04,1.04,0,1.48.08A17.925,17.925,0,0,0,23.8,2.2,7.387,7.387,0,0,1,25.16,2a3.048,3.048,0,0,0,1.36-.32c.28-.2,1.04-.08,1.36-.36.4-.2.96-.16,1.28-.48.36,0,.68-.52,1.24-.56A3.3,3.3,0,0,0,31.56-.4c.44-.4.6-.32,1.08-.76.44-.44.84-.56,1-.88.36-.12.52-.6.84-.96.44-.36.48-.84.76-1.08a5.379,5.379,0,0,1,.6-1.16c.2-.56.28-.76.44-1.32a5.14,5.14,0,0,1,.28-1.36c0-.28.12-.76.12-1.32v-.2a5.373,5.373,0,0,1-.04-.76v-.56A5.7,5.7,0,0,0,36.52-11.4ZM19.84-1.36a6.273,6.273,0,0,1-2.04-.36,2.322,2.322,0,0,1-1.2-.68,1.8,1.8,0,0,1-.52-1.44c.04-.28-.04-.6.16-.88a2.292,2.292,0,0,1,.68-.72,2.982,2.982,0,0,1,.8-.4c.36-.16.56.04,1-.08.4-.12.6.16,1.2.16.36,0,.56.48.92.68.4.24.28.52.56.92a2.073,2.073,0,0,1,.2,1.2,1.837,1.837,0,0,1-.32,1.12A1.956,1.956,0,0,1,19.84-1.36Zm47.08-17.8a2.5,2.5,0,0,0,1.12-1c.24-.12.44-.76.88-.96a9.875,9.875,0,0,1,.72-1.08,12.493,12.493,0,0,0,.64-1.4,1.439,1.439,0,0,1,.88-.92c.24.08.84-.08,1.04.04.68,0,.96.44.96,1.44a19.453,19.453,0,0,1,0,2.16c-.04.28.04,1.16,0,1.36-.12.76.64.76,1.36.88a11.249,11.249,0,0,0,1.2.04c.84-.24,1.28-.28,1.28-.92a15.853,15.853,0,0,1,0-2.76,1.58,1.58,0,0,1,.32-1.64,1.486,1.486,0,0,1,1.32-.6h1.28a8.683,8.683,0,0,1,2.04,0c.88-.08,1.28-.44,1.28-1.28v-.8c0-.68-.32-1.12-1.28-1.16a6.968,6.968,0,0,1-2.04,0c-.72-.16-1.52.12-2.28,0a10.858,10.858,0,0,1-2.28,0,12.028,12.028,0,0,0-2.4,0c-1.04,0-2,.12-2.04-.72s1.04-.84,1.64-1a7.29,7.29,0,0,1,1.4-.24c.4-.04,1.16-.24,1.4-.24.88-.08,1.32-.36,2.24-.44a13.131,13.131,0,0,1,1.96-.4c.36-.16.68.08,1.04-.08.4.04.8-.24.4-.92-.4-.64-1-.92-1.56-1.52a1.144,1.144,0,0,0-1-.6h-.12c-.28.04-.52.24-.8.12a6.83,6.83,0,0,1-1.08.36,4.686,4.686,0,0,0-1.32.36,16.508,16.508,0,0,1-2.6.6,4.383,4.383,0,0,0-1.76.28c-.76.2-1.4.24-1.76.32-.08-.24-.36-.12-.64-.24-.2.12-.24-.12-.48-.08-.52.04-.6.44-.72.8a8.126,8.126,0,0,0,.04,1.68c-.12.6.16,1.2.04,1.64a5.736,5.736,0,0,1-.2,1.96,7.438,7.438,0,0,1-.6,1.72c-.36.36-.56.84-1.04,1.44a3.709,3.709,0,0,1-1.68,1.2c-.36.32-.56.4-.6.92-.16.52.48,1.08.64,1.28.44.64.68,1.2,1.56,1.16A8.067,8.067,0,0,0,66.92-19.16ZM48.4-15.68c.24.12,1.08-.4,1.56-.92a4.722,4.722,0,0,0,1.24-1.28,8.793,8.793,0,0,1,.96-1.52,4.5,4.5,0,0,1,.68-1.68,8.842,8.842,0,0,0,.4-1.92c.04-.52.12-1.08.52-1.28.24-.4.8-.36,1.32-.2a.768.768,0,0,1,.56.72c.08,1.08-.04,2.12,0,2.88.04.72-.16,1.24-.04,1.44-.04.44.56.8,1.36.88a10.394,10.394,0,0,1,1.12,0c.72-.04,1.44-.28,1.36-.88a13.658,13.658,0,0,0,.04-2.84c.12-.52-.2-1.08.16-1.68.44-.36.6-.56.96-.56a7.718,7.718,0,0,1,1.36,0c.8-.08,1.16.08,2.04,0,.84-.08,1.4-.52,1.28-1.28a3.831,3.831,0,0,1,0-.68c-.08-.8-.36-1.08-1.28-1.28a8.581,8.581,0,0,1-2.04,0,4.358,4.358,0,0,1-2.16,0c-.6-.08-1.36.08-2.2,0-.56-.04-1.36,0-2.24,0-.68-.08-2,.12-2.04-.6-.04-.56,1.16-.64,2.08-.72.6-.24,1.68-.08,2.6-.36.68.04,1.68-.44,2.28-.4a9.194,9.194,0,0,1,2.36-.44,1.493,1.493,0,0,0,.72-.04c.4-.04.56-.2.64-.44-.2-.12.04-.32-.24-.44a10.247,10.247,0,0,1-1.6-1.64,2.069,2.069,0,0,0-1.12-.6c-.48.08-.64.28-1.12.24a3.332,3.332,0,0,0-1.44.44c-.4.24-.96.12-1.44.32-.44.2-1.08.08-1.48.28-.6.16-.96.08-1.48.24A5.167,5.167,0,0,1,52-31.6c-.52-.08-.96-.44-1.48-.4s-.72.4-.76.88c.12.36-.08.64,0,.84a8.033,8.033,0,0,1,0,1.96c-.04.36.12.88,0,1.12a15.016,15.016,0,0,1-.04,2.36c-.24.96-.12,1.4-.32,2.16a5.941,5.941,0,0,1-.84,1.88c-.32.2-.44.8-.72.92-.16.36-.76.52-.96.88-.12.16-.52.48-.52.76a.147.147,0,0,0,.04.12l.72,1.28C47.56-16.36,47.88-15.68,48.4-15.68ZM68.88-2.92c.64.16,1.96-.16,2.68,0,.68.04,1.12-.16,1.4.36a1.057,1.057,0,0,0,1.08.24c.4.2.76.04,1.2.08.76.08,1.36-.24,1.32-1.16l-.04-3.04a24.772,24.772,0,0,1,0-3,7.014,7.014,0,0,0,0-2.24c.12-.76-.08-1.6.04-2.68a14.926,14.926,0,0,1,0-2.68,1.027,1.027,0,0,0-1.08-.92c-.24,0-.28.2-.56,0a6.773,6.773,0,0,1-1.8,0,8.609,8.609,0,0,1-2.04,0,17.907,17.907,0,0,0-2.08,0,4.9,4.9,0,0,0-2.04,0,17.172,17.172,0,0,0-2.04,0,12.04,12.04,0,0,1-2.08,0,17.34,17.34,0,0,0-2.04,0,17.322,17.322,0,0,0-2.04,0,8.683,8.683,0,0,1-2.04,0,9.178,9.178,0,0,1-1.84,0c-.28.16-.32.16-.56,0-.8.12-1.12.52-1.08.92a19.911,19.911,0,0,0,0,2.68c.12.72-.04,1.84.08,2.68.04.84-.04,1.8,0,2.8a11.058,11.058,0,0,0-.04,2.8v2.84a1.148,1.148,0,0,0,1.28,1.16l1.24.04c.52-.08,1.04-.12,1.2-.48.16-.32,1.04-.36,1.68-.4h2.28a16.667,16.667,0,0,1,2,0,7.942,7.942,0,0,1,1.96,0c.68-.04,1.44.08,2,0A10.691,10.691,0,0,1,68.88-2.92ZM57.16-14.36c.08-.4,1-.4,1.24-.6.56-.04,1.12.2,1.6,0a3.75,3.75,0,0,1,1.64,0,11.188,11.188,0,0,1,1.64,0c.64.16.92-.08,1.64,0a3.776,3.776,0,0,0,1.64,0,5.363,5.363,0,0,1,1.6,0c.6.16,1.24-.16,1.64,0a3.523,3.523,0,0,1,1.6,0c.28.2,1.24.12,1.16.8-.04.44-1.08.36-1.64.4-.68.04-1.36,0-2,0-.64-.16-1.48.16-1.96,0a6.416,6.416,0,0,0-1.96,0,10.631,10.631,0,0,0-1.96,0,16.007,16.007,0,0,0-1.96,0c-.64-.08-1.6.12-2.04,0C58.48-13.92,57-13.6,57.16-14.36Zm-.12,3.8c0-.56,1.08-.32,1.92-.48a9.027,9.027,0,0,1,2.08,0A6.4,6.4,0,0,0,63-11.12a5.381,5.381,0,0,0,1.96,0,15.961,15.961,0,0,0,1.96,0,6.427,6.427,0,0,0,1.96,0c.44.12,1.48-.12,2.04.08.84,0,1.56.16,1.6.52.04.72-.72.64-1.6.64a8.633,8.633,0,0,1-2.04,0c-.52.12-1.24-.16-1.96,0a4.616,4.616,0,0,1-1.96,0,15.988,15.988,0,0,1-1.96,0,8.031,8.031,0,0,1-1.96,0c-.72,0-1.28-.04-2.08,0C57.96-9.84,57.04-9.84,57.04-10.56ZM66.88-6a10.691,10.691,0,0,0-1.96,0c-.6-.12-1.4.12-1.96,0A5.379,5.379,0,0,1,61-6a7.175,7.175,0,0,1-2.08,0c-.88.08-1.8,0-1.8-.6,0-.56.96-.8,1.8-.64a5.136,5.136,0,0,0,2.08,0c.56-.12,1.32.08,1.96,0a6.416,6.416,0,0,0,1.96,0,6.4,6.4,0,0,0,1.96,0,10.572,10.572,0,0,0,1.96,0,5.824,5.824,0,0,0,2.04,0c.76-.08,1.52-.16,1.68.68.12.72-.84.44-1.68.56a17.172,17.172,0,0,0-2.04,0A6.427,6.427,0,0,0,66.88-6ZM62.92-1a17.493,17.493,0,0,1-1.6-1.12,2.25,2.25,0,0,0-1.24-.52A6.248,6.248,0,0,0,59-2.4c-.56.28-.72.12-1.08.32a3.094,3.094,0,0,0-1.28.36,2.291,2.291,0,0,1-1.36.32,1.51,1.51,0,0,1-1.32.28,19.709,19.709,0,0,0-2.68.44c-.88.36-1.88.12-2.76.36-.56.12-1.56.04-1.52.92,0,.4.44,1.12.56,1.72a1.072,1.072,0,0,0,1.16,1.16,1.948,1.948,0,0,0,.48.04,1.523,1.523,0,0,0,.76-.16,2.531,2.531,0,0,1,1.4-.28c.6-.12.88.04,1.36-.24.36.08.72-.16,1.36-.28.48-.24.88-.08,1.32-.32a3.906,3.906,0,0,1,1.32-.32c.56-.16,1.08-.28,1.36-.36.4.08.72-.12,1.32-.36A1.753,1.753,0,0,0,60.64.76,14.614,14.614,0,0,1,62.56.24c.36.12,1,0,.88-.56A1.161,1.161,0,0,0,62.92-1Zm18.36.68c-.8.04-1.64-.32-2.48-.36a15.484,15.484,0,0,1-2.44-.4,6.752,6.752,0,0,1-2.4-.48,7.178,7.178,0,0,1-2.4-.52,15.786,15.786,0,0,1-2.32-.44c-.72.08-.72.4-1,.72a2.388,2.388,0,0,1-.68.88,3.576,3.576,0,0,1-.28.64A1.03,1.03,0,0,0,68.32.76a21.016,21.016,0,0,0,2.4.64c.6.28,1.56.32,2.32.56a7.066,7.066,0,0,0,2.36.48,20,20,0,0,1,2.36.44,3.121,3.121,0,0,0,1.4.28c.44.08,1.08.08,1.44.12a1.443,1.443,0,0,0,1.24-1.12c.08-.48.64-.88.72-1.64C82.6-.24,81.64-.32,81.28-.32Zm44.08-2.56a11.647,11.647,0,0,1-.04-2.92,8.768,8.768,0,0,1-.04-2.92,7.6,7.6,0,0,1,0-2.52c-.08-.68.16-1.76,0-2.52a10.608,10.608,0,0,1,0-2.52,13.533,13.533,0,0,1,0-2.56c-.16-.92.08-1.84,0-2.56.08-.72,0-1.76,0-2.52.04-.72-.08-1.8,0-2.52-.12-.76.04-1.76,0-2.52,0-.92.08-1.4.04-2.4.08-.52-.52-1-1.04-1.2a15.441,15.441,0,0,1-2.72,0h-.28a2.008,2.008,0,0,0-.48-.08c-.36,0-.76.08-1.08.08h-.12a3.142,3.142,0,0,1-1.72,0,7.287,7.287,0,0,1-1.4-.04c-.12,0-.2.04-.32.04-.6.04-1.2,0-1.68,0a6.067,6.067,0,0,1-1.48,0h-.24a3.442,3.442,0,0,1-1.28,0,1.32,1.32,0,0,0-1.44,1.2c-.12.96.12,1.76.04,2.4-.04.48.08,1.16,0,1.72-.08.76.04,1.24,0,1.76a6.392,6.392,0,0,1,0,1.76c.08.64-.04,1.24,0,1.72.12,1.08-.12,2.16-.04,3a1.25,1.25,0,0,0,1.32,1.28c.36.12.68-.04,1.04,0,.68.08,1.16-.08,1.32-.64.12-.48,1.16-.64,1.8-.68a9.027,9.027,0,0,1,2.08,0,10.985,10.985,0,0,0,2,.04,2.351,2.351,0,0,1,1.36.56,2.3,2.3,0,0,1,.44,1.24V-15c-.08.88.12,1.24,0,2.12a7.211,7.211,0,0,0,0,2.08,5.4,5.4,0,0,0,0,2.12,5.177,5.177,0,0,0,0,2.08,19.024,19.024,0,0,0-.04,2.2c-.08.88-.04,1.44-.08,1.96-.08.88.08,1.48-1.48,1.44A6.778,6.778,0,0,1,118-1a.689.689,0,0,0-.84.84,11.522,11.522,0,0,0,.44,2.52c-.04.68.88.84,1.48.96a8.9,8.9,0,0,0,2.04-.04,13.719,13.719,0,0,0,1.96-.36,2.614,2.614,0,0,0,1.88-1.32,5.5,5.5,0,0,0,.48-2.6,5.511,5.511,0,0,1-.08-1.6ZM102.4-18.36c.08.48.92.72,1.32.64a3.253,3.253,0,0,1,1.08,0c1-.04,1.24-.56,1.28-1.28a25.012,25.012,0,0,0,0-3,3.133,3.133,0,0,0,0-1.72,6.416,6.416,0,0,1,0-1.76c-.16-.52.12-1.04,0-1.76a3.537,3.537,0,0,1,0-1.72,23.823,23.823,0,0,0,.04-2.4c0-.48-.52-1.2-.96-1.2h-.08a2.739,2.739,0,0,1-1,0h-.4a11.56,11.56,0,0,1-2.04,0,2.63,2.63,0,0,1-1.68,0,6.177,6.177,0,0,1-1.72,0,2.992,2.992,0,0,1-1.68,0,2.027,2.027,0,0,0-.52-.08c-.32,0-.68.08-1,.08h-.16a3.881,3.881,0,0,0-.68-.04,7.081,7.081,0,0,0-.92.04,1.786,1.786,0,0,1-1.12,0c-.64.04-.96.04-1.28.64a1.676,1.676,0,0,0-.08.72c0,.84.12,1.96.04,2.24a18.751,18.751,0,0,1-.04,2.12,4.348,4.348,0,0,0,.04.72,23.038,23.038,0,0,1,0,2.88v2.88a11.537,11.537,0,0,0-.12,1.56,7.71,7.71,0,0,0,.12,1.32c-.04.64-.04,1.24-.04,1.76a9.758,9.758,0,0,0,.04,1.12c.04.72-.04,1.56-.04,2.2a3.66,3.66,0,0,0,.04.68,20.966,20.966,0,0,1-.08,2.2,3.523,3.523,0,0,0,.08.68,7.769,7.769,0,0,0-.08.96c0,.6.08,1.2.08,1.88a16.676,16.676,0,0,1,0,2c0,.44-.12,1-.12,1.48A2.027,2.027,0,0,0,90.8-2V-.56a3.234,3.234,0,0,1-.04.6,11.886,11.886,0,0,1,.04,2.08c.16.76.28,1.36,1.24,1.36h.08c.36,0,.68.08.96.08a.658.658,0,0,0,.4-.08c1.04,0,1.44-.64,1.32-1.32-.2-.56.16-1.48,0-2.08a11.579,11.579,0,0,1,0-2.04A6.885,6.885,0,0,0,94.76-4c.08-.64-.08-1.48,0-2a10.982,10.982,0,0,1,0-1.64c.12-.44-.08-.92,0-1.64a11.206,11.206,0,0,1,0-1.64,11.593,11.593,0,0,0,0-1.68c.08-.6-.04-1.08,0-1.64-.08-.52.16-1.16,0-1.64-.08-.44.12-1.32,0-1.72-.12-.76.76-1.4,1.72-1.44.6-.12,1.52.08,2.04,0,.76.04,1.6,0,2.08,0C101.16-19.16,102.16-19.04,102.4-18.36Zm18.92-9.8c0,.84-.76.84-1.48.84-.8,0-1.68,0-2.16.04a9.234,9.234,0,0,1-2.12-.08c-.92.16-1.88-.04-1.88-.72A1.124,1.124,0,0,1,115-29.12c.8-.08,1.76-.08,2.52-.08a20.978,20.978,0,0,1,2.68.08C121-29.08,121.2-28.76,121.32-28.16Zm-26.72.12c-.04-.84.52-1.2,1.32-1.08h2.6a14.459,14.459,0,0,1,2.64,0c.88.08,1.08.24,1.08,1,0,.72-.8.8-1.64.76a18.008,18.008,0,0,1-2.08,0,5.814,5.814,0,0,1-2.04,0C95.52-27.32,94.64-27.4,94.6-28.04Zm26.56,4.16a.72.72,0,0,1,.16.88c.04.6-.84.48-1.48.56a21.66,21.66,0,0,1-2.28,0c-.52-.04-1.2-.04-2-.04a2.561,2.561,0,0,1-1.76-.4.857.857,0,0,1-.08-.72c.2-.48,1.12-.64,1.84-.64.56,0,1.4-.04,2.04,0a8.892,8.892,0,0,1,2.08,0A2.7,2.7,0,0,1,121.16-23.88Zm-22.64,1.4a8.7,8.7,0,0,1-2.04,0c-.6,0-1.64-.04-1.72-.4v-.52c0-.48.72-.84,1.72-.84.52-.04,1.56.04,2.04,0a17.983,17.983,0,0,0,2.08,0,2.517,2.517,0,0,1,1.6.28c.28.16.08.56.12.84.04.48-.64.64-1.72.64A17.948,17.948,0,0,1,98.52-22.48ZM115.68-9a7.609,7.609,0,0,1,0-2.52c-.04-.88.08-1.44.04-2.4a1.3,1.3,0,0,0-1.28-1.16c-.8.04-1.28.16-1.64-.04a9.171,9.171,0,0,1-2.36,0,8.034,8.034,0,0,1-2.4,0,23.207,23.207,0,0,0-2.36,0,23.087,23.087,0,0,0-2.36,0c-.6.16-1-.08-1.76,0-.88.04-1.32.6-1.16,1.2.12.72-.16,1.68.04,2.4a21.143,21.143,0,0,1,0,2.76,21.022,21.022,0,0,0,0,2.76c.08,1-.08,1.96-.04,3.12a1.168,1.168,0,0,0,1.32,1.28,2.044,2.044,0,0,1,1.2,0,1.18,1.18,0,0,0,1.32-1.04c.16-.56.8-.92,1.8-.92a11.14,11.14,0,0,1,2,.04,11.791,11.791,0,0,0,2.08,0,1.961,1.961,0,0,1,1.72.68,1.47,1.47,0,0,0,1.32.68,3.217,3.217,0,0,1,1.24,0c.68,0,1.36-.24,1.28-1.28.16-.88-.2-1.96,0-3A18.217,18.217,0,0,0,115.68-9Zm-3.96.6c0,.92-.84,1.12-1.72,1.28a17.351,17.351,0,0,0-2.04,0c-.56-.08-1.44.04-2,0-.72-.04-1.68-.36-1.68-1a7.079,7.079,0,0,1,.08-1.8,1.135,1.135,0,0,1,1.16-1.52,17.622,17.622,0,0,0,2.52,0c.8.04,1.24.04,2.28.08a1.393,1.393,0,0,1,1.36,1.52Z" transform="translate(122.88 33.92)" fill="#292929"/></svg>