<svg xmlns="http://www.w3.org/2000/svg" width="124.08" height="64.004" viewBox="0 0 124.08 64.004"><path d="M-21.464-4.336h1.93a4.81,4.81,0,0,0,1.582-.25A3.683,3.683,0,0,0-16.706-5.3a3.141,3.141,0,0,0,.813-1.09A3.411,3.411,0,0,0-15.6-7.812a3.626,3.626,0,0,0-.289-1.477,3.172,3.172,0,0,0-.813-1.117,3.683,3.683,0,0,0-1.246-.711,4.95,4.95,0,0,0-1.582-.258h-3.8V0h1.875Zm0-1.531V-9.844h1.93a2.441,2.441,0,0,1,.855.156,1.8,1.8,0,0,1,.645.422,1.812,1.812,0,0,1,.4.645A2.369,2.369,0,0,1-17.5-7.8a2.1,2.1,0,0,1-.137.766,1.694,1.694,0,0,1-.4.609,1.868,1.868,0,0,1-.645.4,2.5,2.5,0,0,1-.855.152Zm13.8-2.742a3.2,3.2,0,0,0-1.6.406A3.856,3.856,0,0,0-10.5-7.086l-.008-.2-.078-1.172h-1.75V0h1.867V-5.219a2.8,2.8,0,0,1,.367-.664,1.86,1.86,0,0,1,.531-.477,2.073,2.073,0,0,1,.664-.289,3.485,3.485,0,0,1,.844-.094,7.46,7.46,0,0,1,.832.047,8.333,8.333,0,0,1,.848.141L-6.121-8.4a3.681,3.681,0,0,0-.668-.148A6.046,6.046,0,0,0-7.668-8.609Zm4.507.156V-6.9h2.6v5.352h-2.6V0H3.809V-1.547H1.324V-8.453Zm2.43-2.187a.933.933,0,0,0,.145.52.747.747,0,0,0,.426.309.99.99,0,0,0,.5.039.818.818,0,0,0,.391-.2.834.834,0,0,0,.5-.34.8.8,0,0,0,.117-.6.809.809,0,0,0-.3-.551,1.043,1.043,0,0,0-.684-.215,1.28,1.28,0,0,0-.449.074.993.993,0,0,0-.34.207.943.943,0,0,0-.227.332A1.1,1.1,0,0,0-.73-10.641Zm10.742,9.3a1.87,1.87,0,0,1-.977-.234A1.731,1.731,0,0,1,8.418-2.2a2.561,2.561,0,0,1-.332-.871,5.226,5.226,0,0,1-.1-1.012v-.273a5.126,5.126,0,0,1,.1-1,2.547,2.547,0,0,1,.34-.875,1.794,1.794,0,0,1,.613-.621,1.825,1.825,0,0,1,.973-.238,1.907,1.907,0,0,1,.715.133A1.82,1.82,0,0,1,11.3-6.6a1.6,1.6,0,0,1,.363.531,1.647,1.647,0,0,1,.129.648H13.55A3.04,3.04,0,0,0,13.3-6.711a2.968,2.968,0,0,0-.73-1.008,3.344,3.344,0,0,0-1.121-.656,4.164,4.164,0,0,0-1.418-.234,3.99,3.99,0,0,0-1.7.34,3.544,3.544,0,0,0-1.223.918A3.868,3.868,0,0,0,6.367-6a5.379,5.379,0,0,0-.246,1.641v.273a5.291,5.291,0,0,0,.25,1.645,3.924,3.924,0,0,0,.742,1.348,3.466,3.466,0,0,0,1.215.918,4.01,4.01,0,0,0,1.707.34,3.906,3.906,0,0,0,1.34-.23A3.775,3.775,0,0,0,12.5-.7a2.952,2.952,0,0,0,.77-.934A2.392,2.392,0,0,0,13.55-2.8H11.793a1.206,1.206,0,0,1-.145.586,1.523,1.523,0,0,1-.387.461,1.856,1.856,0,0,1-.574.3A2.171,2.171,0,0,1,10.011-1.344ZM20.2.156A4.273,4.273,0,0,0,22.3-.328,3.746,3.746,0,0,0,23.6-1.422l-1-.969a2.57,2.57,0,0,1-.992.77,3.135,3.135,0,0,1-1.3.27,2.472,2.472,0,0,1-.934-.172,2.191,2.191,0,0,1-.738-.484,2.281,2.281,0,0,1-.492-.672,3.349,3.349,0,0,1-.266-.93v-.039h5.859v-.8A5.519,5.519,0,0,0,23.5-6.125a3.72,3.72,0,0,0-.719-1.32A3.3,3.3,0,0,0,21.6-8.3a3.99,3.99,0,0,0-1.617-.309,3.887,3.887,0,0,0-1.543.309,3.821,3.821,0,0,0-1.27.879,4.109,4.109,0,0,0-.859,1.375A4.928,4.928,0,0,0,16-4.25v.32a4.274,4.274,0,0,0,.3,1.613,3.776,3.776,0,0,0,.855,1.293,3.933,3.933,0,0,0,1.332.867A4.558,4.558,0,0,0,20.2.156Zm-.227-7.25a1.989,1.989,0,0,1,.824.16,1.71,1.71,0,0,1,.59.426,1.969,1.969,0,0,1,.375.637,2.114,2.114,0,0,1,.133.73v.125H17.917a3.455,3.455,0,0,1,.266-.867,2.388,2.388,0,0,1,.445-.656,1.9,1.9,0,0,1,.605-.41A1.867,1.867,0,0,1,19.972-7.094Z" transform="translate(61.68 63.84)" fill="#de0026"/><path d="M-51.44-32a4.282,4.282,0,0,0-.56-.64c-.48-.28-1.08-.24-1.32-.56a9.505,9.505,0,0,1-1.28-.48c-.28,0-.32-.16-.64-.16-1,0-.88,1.2-1.12,1.72a12.766,12.766,0,0,0-.4,1.56A7.2,7.2,0,0,1-57.2-29a4,4,0,0,0-.48,1.52c-.04.52-.44,1.16-.48,1.52L-59-23.52a2.6,2.6,0,0,0-.44,1.2c0,.56-.48.68-.44,1.24-.24.88-.68,1.4-.96,2.24a3.572,3.572,0,0,0-.56,1.2,6.457,6.457,0,0,0-.6,1.16,3.54,3.54,0,0,0-.68,1.6c0,.64.84,1.6,1,2,.44.4.44,1.44,1.24,1.4.4,0,.48-.08.6-.32a2.131,2.131,0,0,0,.48-.8c.44-.64.56-.24.72,0a3.763,3.763,0,0,1,.16,1.92c.04.28-.12.52,0,.76a17.573,17.573,0,0,1,0,2.52,18.165,18.165,0,0,1,0,2.56,8.218,8.218,0,0,0,0,1.72,6.488,6.488,0,0,1-.04,1.76c0,.48-.04,1.28,0,1.76.04.52,0,1.32,0,1.8.16,1.04.56,1.2,1.32,1.28a1.989,1.989,0,0,0,.64.12,6.641,6.641,0,0,0,.88-.12c.76.12,1.28-.48,1.32-1.28A3.083,3.083,0,0,1-54.32.4c.16-.68-.16-1.12-.04-1.76a8.505,8.505,0,0,0,0-1.76,4.153,4.153,0,0,0,0-1.72,7.761,7.761,0,0,1,0-2.36,5.361,5.361,0,0,1,0-2.4V-12a15.484,15.484,0,0,1,0-2.36c-.2-.92.08-1.76-.04-2.76v-1.64a7.707,7.707,0,0,0,0-1.36c.16-.36.08-.6.32-1,.16-.24.48-.32.44-.92-.04-.4-.52-.4-.88-.48-.56-.2-.4-.8-.24-1.36a10.55,10.55,0,0,0,.6-1.8,5.61,5.61,0,0,1,.6-1.8A5.41,5.41,0,0,1-53-29.32c.16-.52.32-1.08.64-1.92C-51.88-31.52-51.28-31.52-51.44-32Zm26.56,2v-.12a1.443,1.443,0,0,0-1.08-1.24c-1,0-1.68-.04-2.72,0a11.848,11.848,0,0,0-2.68.04,12.888,12.888,0,0,1-1.76,0c-.48-.08-1.28.04-1.76,0a4.514,4.514,0,0,0-1.8,0,8.565,8.565,0,0,1-1.76,0c-.44-.08-1.4.2-1.76,0-.6-.08-1.32.2-1.8,0a12.828,12.828,0,0,1-1.76,0c-.52-.16-1.08.12-1.76,0-1,.16-1.64-.16-2.56,0a23.683,23.683,0,0,1-2.48.08c-.68-.04-1.36,0-1.4.88.08.56-.08,1.2-.04,1.48-.08,1.12.52,1.52,1.24,1.32.76-.16,1.68.12,2.64,0,.84.16,1.8-.2,2.6-.04.32.16.64.04,1.04.28a1.408,1.408,0,0,1,.64.92,8.237,8.237,0,0,1,.04,1.96,2.453,2.453,0,0,1-.44,1.36,1.5,1.5,0,0,1-1.2.52h-1.88a4.118,4.118,0,0,1-1.4.04,1.612,1.612,0,0,1-.96-.08c-.8.16-1.16.68-1.08,1.08.08,1.08-.04,1.8,0,2.72.08,1.04-.04,1.96.04,2.64a23.617,23.617,0,0,1,0,2.92c.08.96-.08,2.12,0,2.92-.16,1.16.08,1.8,0,2.96a17.31,17.31,0,0,1,0,2.88,10.806,10.806,0,0,0-.04,3,25.571,25.571,0,0,0,0,3.04,1.246,1.246,0,0,0,1.32,1.12,2.36,2.36,0,0,0,1.4,0c1-.16,1.6-.32,1.44-1.28,0-.64.84-.8,1.76-.84a9.659,9.659,0,0,0,2.16,0c.68-.08,1.4.12,2.04.04.64-.12,1.28.08,2.08,0a17.7,17.7,0,0,0,2.08.04,5.838,5.838,0,0,1,2.04.08A10.807,10.807,0,0,1-32.2.84a1.717,1.717,0,0,1,1.96,1,1.182,1.182,0,0,0,1.16.4,5.467,5.467,0,0,0,1.4,0,1.453,1.453,0,0,0,1.32-1.08c-.16-.88.12-1.96,0-3.08-.12-.96,0-2-.04-3a21.8,21.8,0,0,1,0-2.8c-.12-.88.12-1.76,0-2.8a22.425,22.425,0,0,1,0-2.84,16.362,16.362,0,0,1,0-2.8,8.415,8.415,0,0,1,.04-2.64,8.808,8.808,0,0,1,0-2.72c-.2-.68-.44-1.12-1.08-1.04-.28-.08-.36-.12-.56,0a13.515,13.515,0,0,0-1.8,0,3.734,3.734,0,0,1-1.88,0,1.568,1.568,0,0,1-1.6-1.2,14.98,14.98,0,0,0,.04-2.32,1.488,1.488,0,0,1,1.16-1.44,2.224,2.224,0,0,0,1.16-.12c.72.12,1.36-.08,2.24.08.72.04,1.68-.12,2.72,0,.72-.12,1.08-.4,1.08-1.2v-.32c0-.24-.04-.4-.04-.64A.681.681,0,0,1-24.88-30ZM-39-27.6c.24.2.64-.16.84,0,.56-.08.84.6.96,1.08,0,.36-.24,1.56-.04,1.88-.08.4.12,1.28-.28,1.6-.28.6-.56.8-1,.6-.28-.24-.52.04-.76-.12-.4-.16-.44-.76-.56-1.2a5.78,5.78,0,0,1,0-1.44C-39.96-26.24-40.04-27.84-39-27.6Zm1.68,22.56c.08.84,0,1.68-.56,1.72a1.614,1.614,0,0,1-1.08.08c-.64.12-.8-.92-.88-1.8a5.825,5.825,0,0,0,0-2.04,10.671,10.671,0,0,0,0-1.96,10.691,10.691,0,0,1,0-1.96,10.684,10.684,0,0,0,0-1.96,6.168,6.168,0,0,0,0-1.92c0-.44-.04-1.48,0-2.04s.12-1.52.56-1.72c.12-.32.44.12.76,0,.64-.2,1.28,1,1.2,1.72a17.172,17.172,0,0,0,0,2.04,15.135,15.135,0,0,0,0,1.92V-11a15.989,15.989,0,0,1,0,1.96,6.387,6.387,0,0,1,0,1.96C-37.44-6.28-37.24-5.8-37.32-5.04Zm4.76-13.6c.24.16.56-.16.92,0a1.219,1.219,0,0,1,1.2,1.16,3.74,3.74,0,0,1,0,1.76,5.424,5.424,0,0,0,0,1.8,5.432,5.432,0,0,1,0,1.8,12.907,12.907,0,0,0,0,1.76,5.436,5.436,0,0,0,0,1.8c-.08.76.04,1.24,0,1.8.04.48-.04,1.2,0,1.84.04.68.08,1.6-.68,1.68a4.047,4.047,0,0,1-1.4,0c-.52-.04-.92-1.08-.76-1.8a3.54,3.54,0,0,1,0-2.04c-.08-.48.12-1.4,0-1.96a3.6,3.6,0,0,1,0-1.96,8.017,8.017,0,0,1,0-1.96,5.164,5.164,0,0,1,0-1.92,17.321,17.321,0,0,1,0-2.04C-33.32-17.48-32.88-18.56-32.56-18.64ZM-43.84-7.08c0,.48-.04,1.48,0,2.04.04,1-.16,1.48-.64,1.72-.28.16-.92,0-1.12.08-.72.12-1-.6-1.04-1.68a9.425,9.425,0,0,0,0-1.84,5.438,5.438,0,0,1,0-1.8,6.778,6.778,0,0,0,0-1.8c-.08-.44.04-1.08,0-1.76-.12-.72.08-1.32,0-1.8a13.381,13.381,0,0,0,0-1.8,8.617,8.617,0,0,1,0-1.76c.16-.88.44-1.24,1.16-1.16a2.352,2.352,0,0,1,.92,0c.32.12.68,1.08.72,1.72a17.34,17.34,0,0,0,0,2.04,15.342,15.342,0,0,0,0,1.92c-.04.6,0,1.32,0,1.96a15.961,15.961,0,0,0,0,1.96A16.018,16.018,0,0,1-43.84-7.08Zm61.96-6A4.1,4.1,0,0,1,17-13.64a5.71,5.71,0,0,1-1.12-.56c-.48-.2-.84-.12-1.08-.52a6.827,6.827,0,0,0-1.08-.56,1.638,1.638,0,0,1-1.2-.76,5.524,5.524,0,0,1-1.16-.8,3.186,3.186,0,0,1-1.16-.88,1.414,1.414,0,0,1,.12-2.04c.12-.32.64-.64.8-1.2.24-.2.56-.96.84-1.16a4.663,4.663,0,0,1,.8-1.32,9.954,9.954,0,0,1,.68-1.24,3.591,3.591,0,0,1,1.16-1.48c.56-.32.8-.64.32-1.24-.36-.24-.6-.6-.92-.8a1.91,1.91,0,0,1-.88-.8,1.31,1.31,0,0,0-.92-.48c-.2,0-.48.32-.96.36-.56-.08-1.04.12-1.64,0s-1.2.08-1.6,0a1.882,1.882,0,0,1-1.24,0c-1-.08-1.76-.36-1.4-.92a1.965,1.965,0,0,1,.56-1.2c.24-.2.96-.08.96-.84a.628.628,0,0,0-.52-.68c-.36-.16-.96-.16-1.28-.48-.6.04-.76-.44-1.24-.4a3,3,0,0,1-.64-.16.984.984,0,0,0-1,.76c-.08.36-.52,1-.48,1.24a8.631,8.631,0,0,0-.56,1.32c-.28.52-.6.8-.64,1.36a14.844,14.844,0,0,1-.84,1.48c-.44.32-.52,1.16-.84,1.4-.4.36-.52,1.12-1,1.44a3.229,3.229,0,0,1-1,1.32,3.73,3.73,0,0,0-.96,1.2,8.424,8.424,0,0,1-1,1.04c-.16.28-.72.56-.68,1.16-.08.76.84,1.12,1.04,1.52.44.44.48,1.04,1.24,1,.48.08.72-.4,1.24-.84a7.575,7.575,0,0,1,.96-1.04c.24-.32.76-.52.88-1.08.08-.24.56-.6.64-.8.24-.6,1.4-.48,1.6-.04.24.16.16.56.44.84.28.32.4,1.04.76,1.4a1.523,1.523,0,0,1-.24,1.32c-.4.48-.84.56-1.24,1a2.219,2.219,0,0,1-1,.76,11.092,11.092,0,0,1-1,.76c-.52.16-.76.6-1.08.68a2.994,2.994,0,0,1-1.08.68c-.44.4-.6.32-1.08.6-.56.32-.92.44-1.12.56a19.389,19.389,0,0,1-2.04,1c-.32.24-.28.4-.36.76-.04.44.6,1.12.68,1.4.44.52.36,1.36,1.28,1.36.2-.16.72-.04,1.32-.44.4-.12.64-.44,1.08-.6.44-.04.52.04.64.28.16.28.04.96.16,1.4.04.48-.08,1.28,0,1.68.16.4-.16,1.04,0,1.68a4.5,4.5,0,0,0,0,1.64,2.992,2.992,0,0,0,0,1.68A2.426,2.426,0,0,1-2.12.6a6.773,6.773,0,0,0,0,1.56c0,.84.6,1.12,1.32,1.28.36,0,.64.04.92.04a1.233,1.233,0,0,0,.4-.04c1-.04,1.32-.36,1.28-1.12-.04-.48.84-.88,1.32-.88a28.307,28.307,0,0,1,3.2,0,8.6,8.6,0,0,1,2.48.08c.36.08.72-.12,1.24.08.56.28.8.6.84.88.08.48.8.52,1.24.48.32,0,.88-.04,1.32,0a1.488,1.488,0,0,0,1.32-1.28,25.532,25.532,0,0,1-.04-3c.04-1.12,0-1.96,0-3.12a27.638,27.638,0,0,0,0-3.16c-.2-.32.24-.56,0-.76a.808.808,0,0,1,.32-1.08c.4-.32,1.08.24,1.44.16.68-.12.8-.32,1.2-.96a4.51,4.51,0,0,0,.96-1.96C18.64-12.56,18.52-12.68,18.12-13.08Zm-24.68.12c.44.16.48-.12.8-.56.32-.2.6-.88.96-1.28a.932.932,0,0,0,.36-.84c0-.44,0-.56-.24-.76a4.7,4.7,0,0,0-1.44-1.28c-.64-.6-1.2-.84-1.6-1.2a10.082,10.082,0,0,1-1.2-.88c-.2-.04-.4-.4-.48-.6a1.3,1.3,0,0,1,0-.8c.08-.28.12-.36.56-.48.4,0,.56.16.76,0,.6.12,1.36-.08,2,0,.56.08,1.2-.24,1.28-1.36a11.977,11.977,0,0,1,0-1.2c.04-1.08-.64-1.28-1.24-1.32-.72-.12-1.36.16-2.04,0a1.374,1.374,0,0,1-.92-.2.936.936,0,0,1-.4-1.08,1.561,1.561,0,0,0,0-.96,8.991,8.991,0,0,1,0-1.04,10.654,10.654,0,0,1,0-1.96,1.459,1.459,0,0,1,.52-1.72c.44-.24.24-.88-.36-.92-.44-.12-.96,0-1.6-.12-.72.12-1-.2-1.68-.08-.4-.08-1.2.44-1.04,1a22.1,22.1,0,0,1,.04,2.88,3.513,3.513,0,0,1,.08,1.56,5.9,5.9,0,0,1,0,1.68c-.04.24-.16.28-.24.52a1.035,1.035,0,0,1-.56.44,2.106,2.106,0,0,1-1,0c-.68.16-1.56-.12-2.04,0a1.049,1.049,0,0,0-1.24,1.32,6.011,6.011,0,0,1,0,1.2c.04,1.08.32,1.44,1.28,1.36a3.751,3.751,0,0,0,2,0c.24,0,.24.24.68,0,.44.2.48,1.2.16,1.96a8.857,8.857,0,0,0-.52,1.64c-.2.64-.6,1.64-.76,2.16a16.913,16.913,0,0,0-1,2.16,10.1,10.1,0,0,1-1.04,2.08,1.9,1.9,0,0,1-.6,1.04c-.36.28-.36.88-.6,1a1.113,1.113,0,0,0-.4.92v.12c0,.04-.04.12-.04.16a4.655,4.655,0,0,0,1.04,1.96c.16.52.48,1.12,1.08,1.16.32.08.56-.16.76-.52.32-.56.6-.88,1-1.6a13.494,13.494,0,0,0,1.36-2.64c.36-.88.8-.52.68.64a3.374,3.374,0,0,0,.04,1.12c0,.8-.04,1.64,0,2.2a13.7,13.7,0,0,1-.04,2.24V-1.6A8.223,8.223,0,0,0-13.48.64a5.29,5.29,0,0,1-.04,1.8c-.16.76.68.92,1.32,1.08a3.6,3.6,0,0,1,1.6,0h.16c.48,0,1.24-.44,1.16-1.08C-9.12,2-9.48,1.6-9.32,1a14.908,14.908,0,0,0-.04-2.36A6.428,6.428,0,0,1-9.4-3.68c.12-.64-.2-1.68,0-2.32a7.264,7.264,0,0,1,0-2.28,4.934,4.934,0,0,1,0-1.88A14.118,14.118,0,0,0-9.4-12c.32-.4-.04-.76,0-1,.12-1.08-.04-2.12.6-1.72a6.042,6.042,0,0,1,1.04.96C-7.52-13.32-6.92-12.84-6.56-12.96ZM4.76-25.52a6.342,6.342,0,0,1,1.56-.08c.88-.04,1.32-.12,1.84.24a.693.693,0,0,1,.4,1.12c-.28.4-.32.72-.56.84-.44.12-.48.88-.72.96-.4.48-1.32.52-1.56.12-.28-.2-.36-.8-.68-.96,0-.32-.28-.52-.52-.8A.847.847,0,0,1,4.76-25.52Zm6.6,14.4c-.8-.04-1.44-.04-2.28-.04a21.143,21.143,0,0,1-2.76,0,10.624,10.624,0,0,1-2.76,0c-1.04-.12-2.04.04-1.96-.44.12-.56.72-.6,1.28-1.12.32.16.48-.24.6-.44a6.468,6.468,0,0,0,1.76-1.32,1.2,1.2,0,0,1,1.28-.56c.32-.12.84.2,1.32.56a17.245,17.245,0,0,0,1.72,1.36c.24.12.32.28.64.44.68.48,1.04.64,1.36.88C12-11.48,11.68-11.08,11.36-11.12Zm-.64,7a1.9,1.9,0,0,1-.48,1.64c-.44.44-1.2.08-1.52.2a5.4,5.4,0,0,1-2.4,0c-.88-.16-1.8.12-2.36,0A2.032,2.032,0,0,1,2.4-2.6C1.92-3,2-3.52,1.92-4.12a9.386,9.386,0,0,1,0-2.12,1.2,1.2,0,0,1,1.2-1.2,3.6,3.6,0,0,1,1.6,0c.48,0,1,.04,1.6,0,.68-.08,1.2.04,1.6,0a7.431,7.431,0,0,1,1.64,0c.76.16,1.2.44,1.16,1.2C10.72-5.48,10.68-4.6,10.72-4.12ZM31.84-22.4c-.32,0-.48-.4-.36-.8A11.106,11.106,0,0,1,32-24.6c.32-.76.44-1.44.76-2.28.24-.72.36-1.32.56-2.16.12-.56.36-1.2.44-1.68a1,1,0,0,1,.32-.68c.32-.28.88-.12.92-.84a.8.8,0,0,0-.6-.64,4.63,4.63,0,0,0-1.4-.44,7.854,7.854,0,0,1-1.4-.4c-.28-.08-.44-.04-.56-.08h-.08c-.68,0-1.04.92-1.12,1.72a9.31,9.31,0,0,1-.32,1.52l-.4,1.52a6.309,6.309,0,0,1-.44,1.48,8,8,0,0,0-.44,1.48l-.8,2.36A3.454,3.454,0,0,1,27-22.56c-.32.4-.2.76-.48,1.16a12.988,12.988,0,0,0-1,2.24c-.16.36-.36.76-.52,1.08a11.724,11.724,0,0,0-.6,1.12c-.16.64-.6.96-.68,1.6v.12c0,.76.8,1.44,1.08,2.04.24.48.68,1.84,1.4,1.08,1.48-1.56,1.52-.88,1.56,1.36a18.78,18.78,0,0,1,0,3.36c-.16.68.2,1.84,0,2.56a12.352,12.352,0,0,0-.04,1.72c-.08.72.12,1,0,1.76-.12.6.04,1.28-.04,1.76a13.374,13.374,0,0,0,.04,1.8q-.06,1.32,1.2,1.32h.12a1.107,1.107,0,0,1,.36-.04c.24,0,.48.04.68.04h.08a.435.435,0,0,1,.2-.04h.12c.88,0,1.24-.36,1.28-1.16.04-.64-.16-1.08-.08-1.76.08-.76,0-1.32.04-1.8.04-.6,0-.96,0-1.76,0-.44.04-1.36.04-1.76,0-.68-.12-1.8-.04-2.48a14.964,14.964,0,0,0,0-2.32,23.921,23.921,0,0,1,0-2.4,15.491,15.491,0,0,0,0-2.36,3.4,3.4,0,0,0,0-1.44,17.115,17.115,0,0,1,0-2.04c-.08-1.08.08-2.64.08-3.08,0-.24.52-.36.76-.92C32.68-22.12,32.36-22.4,31.84-22.4ZM60.88-32.52a5.068,5.068,0,0,0-1.72-.2,7.765,7.765,0,0,0-1.68-.08,1.111,1.111,0,0,0-1.04.96,3.928,3.928,0,0,0,.04,1.56c.08.72,0,1.6.04,2.32a14.607,14.607,0,0,0,.04,2.32,22.307,22.307,0,0,0,0,2.32,14.423,14.423,0,0,1,0,2.28,14.951,14.951,0,0,1,0,2.32,22.139,22.139,0,0,0,0,2.32v4.64c0,.6-.04,1.52,0,2.32.04.68-.04,1.76,0,2.32-.16.92.12,1.76,0,2.32,0,.92.04,1.68,0,2.32-.08,1.44-.24,1.56-1.64,1.52H53.2a.908.908,0,0,0-.84.84,13.653,13.653,0,0,0,.4,2.4c.2.88.8,1.04,1.56,1.04a9.3,9.3,0,0,0,2.6-.16,16.584,16.584,0,0,0,2.44-.68,2.789,2.789,0,0,0,1.12-1.36A2.546,2.546,0,0,0,60.72-.8c-.16-.52.08-.96,0-1.56a9.979,9.979,0,0,1-.04-1.6c.04-.8-.08-1.32,0-2.2a19.452,19.452,0,0,0,0-2.16c0-1.04-.08-1.96-.04-2.8a12.842,12.842,0,0,0,0-2.48,12.841,12.841,0,0,1,0-2.48c.16-.96-.08-1.68,0-2.48s-.2-1.48-.12-2.32c.04-.6-.04-.96.04-1.76.08-.68-.08-1.2.04-2.08.08-.72-.08-1.16-.04-2a10.837,10.837,0,0,1,.04-1.96c.08-.32-.08-.84.04-1.24.2-.72.04-1.08.32-1.36.24-.24.44-.32.44-.68v-.2C61.36-32.4,61.2-32.4,60.88-32.52ZM49.48-21.48a3.352,3.352,0,0,0-.84-.84,5.564,5.564,0,0,1-.84-.8c-.2-.24-.4-.44-.72-.4-.44.08-.32.28-.8.24a4.222,4.222,0,0,0-1,.08,8.23,8.23,0,0,1-1.72,0c-1,.08-1.44-.24-1.52-.6a3.931,3.931,0,0,1,.08-1.8,5.082,5.082,0,0,1,.32-1.44c.32-.72,1.12-.92,2.08-1A20.077,20.077,0,0,0,47.2-28a25.533,25.533,0,0,1,3,.04c.76-.04.96-.52.96-1.48a6.061,6.061,0,0,1,.08-1.16,1.228,1.228,0,0,0-1.08-1.32,20.607,20.607,0,0,0-3.08.12c-.88.04-1.24-.24-1.96-.12a4.8,4.8,0,0,1-2,0c-.52-.08-1.4.28-2.08.08-.8-.24-1.64.12-2.12,0-.8-.2-2,.16-2.84.04-.72-.12-1.12.56-1.12,1.28a9.458,9.458,0,0,1,0,1.08c0,.6.16,1.32,1.12,1.36a12.352,12.352,0,0,1,1.72.04c.48.04.6.28.28,2.52a7.572,7.572,0,0,1-.48,1.88,13.288,13.288,0,0,0-.52,1.8c-.12.56-.6,1.36-.64,1.76-.04.68-.6,1.08-.72,1.76-.12.76-.56,1-.76,1.68-.16.56-.56.96-.84,1.72a5.266,5.266,0,0,1-1,1.52,1.8,1.8,0,0,0-.52,1.16c-.12.48.64,1.16.92,1.52.36.44.64,1.12,1.4,1.2.72.08.64-.36.96-.6.4-.32.56-.96,1-1.56.48-.64,1.28-1.36,1.84-.76a6.83,6.83,0,0,1,1.12.88,3.973,3.973,0,0,1,1.08,1.36,1.472,1.472,0,0,1-.2,1.44c-.16.32-.64.92-.72,1.16a2.365,2.365,0,0,1-.76,1.16c-.52.76-.72,1.28-1.28,1.64s-.92,1.4-1.36,1.6c-.68.32-.88,1.08-1.64,1.48a5.6,5.6,0,0,0-1.48,1.4c-.36.32-.36.48-.28.8.12.56.72,1.08.96,1.4.48.64.72,1.04,1.36,1.04a3.934,3.934,0,0,0,1.36-.68A4.115,4.115,0,0,0,38,1.2,4.877,4.877,0,0,1,39.36-.16,5.183,5.183,0,0,0,40.64-1.6l1.2-1.48a8.832,8.832,0,0,0,1.12-1.56,7.792,7.792,0,0,1,1-1.6c.52-.6.44-1.04.92-1.72a5.091,5.091,0,0,0,.84-1.68c.2-.6.52-1,.72-1.76a10.668,10.668,0,0,0,.64-1.8,5.017,5.017,0,0,1,.4-1.24c.16-.32.08-.88.44-1.28.48-.52.2-1.16.48-1.72.32-.64.16-1.12.36-1.56.24-.52.12-.8.36-.96.44-.28.72-.56.68-.92C49.76-21.12,49.68-21.16,49.48-21.48ZM52.96-4.4c.76,0,1.32-.28,1.32-1.08a27,27,0,0,1-.08-3c.12-.92-.2-2.04,0-3.04a11.913,11.913,0,0,0,.04-2.04,11.111,11.111,0,0,0,0-2c-.08-.84.08-1.36,0-2.04a11.124,11.124,0,0,1,0-2c.08-.68-.12-1.88,0-2.56a12.107,12.107,0,0,0,.04-2.72c.08-.32.6-.4.76-1.08.12-.52-.52-.6-.72-.6a9.232,9.232,0,0,0-1.48-.12c-.36.04-1.24-.08-1.6-.08a.931.931,0,0,0-1.04,1c0,.6.04.92,0,1.56a5.083,5.083,0,0,0,0,1.56c.16,1.16-.12,1.88.04,3.04a16.678,16.678,0,0,1,0,2,17.355,17.355,0,0,0,0,2.04,11.133,11.133,0,0,1,0,2,11.012,11.012,0,0,0,0,2c0,1.16,0,2.2-.04,3-.04.88.04,2.04,0,3.08-.04,1.64.52,1,1.32,1.08C51.8-4.36,52.28-4.4,52.96-4.4Zm-8.6-13.72a15.346,15.346,0,0,0-.64,2.08c-.2.92-1.16,1.52-1.84,1.08-.36-.24-.64-.68-1-.8a1.741,1.741,0,0,1-1.12-1.72c.6-1.64,1.32-2.08,2.2-2.04a5.427,5.427,0,0,0,1.4,0C44.12-19.48,44.48-18.44,44.36-18.12Z" transform="translate(62.68 33.84)" fill="#292929"/></svg>