<svg xmlns="http://www.w3.org/2000/svg" width="208.04" height="64.004" viewBox="0 0 208.04 64.004"><path d="M-70.369-3.5h-1.883a3.325,3.325,0,0,1-.2.914,1.974,1.974,0,0,1-.414.664,1.723,1.723,0,0,1-.641.414,2.437,2.437,0,0,1-.859.141,2.137,2.137,0,0,1-.723-.113,1.658,1.658,0,0,1-.559-.332,1.975,1.975,0,0,1-.4-.484,2.971,2.971,0,0,1-.277-.625,4.812,4.812,0,0,1-.207-.914,8.141,8.141,0,0,1-.066-1.07v-1.57a7.891,7.891,0,0,1,.051-.9,6.057,6.057,0,0,1,.152-.832,3.848,3.848,0,0,1,.34-.809,1.843,1.843,0,0,1,.52-.59,1.659,1.659,0,0,1,.52-.289,2.008,2.008,0,0,1,.66-.1,2.384,2.384,0,0,1,.9.152,1.683,1.683,0,0,1,.633.441,2.146,2.146,0,0,1,.395.7,3.814,3.814,0,0,1,.191.918h1.875a5.347,5.347,0,0,0-.379-1.547,3.552,3.552,0,0,0-.8-1.187,3.457,3.457,0,0,0-1.207-.75,4.542,4.542,0,0,0-1.605-.266,3.974,3.974,0,0,0-1.223.18,3.83,3.83,0,0,0-1.02.5,4,4,0,0,0-.855.848,4.577,4.577,0,0,0-.605,1.105,5.9,5.9,0,0,0-.328,1.164A7.332,7.332,0,0,0-78.5-6.461v1.555a7.662,7.662,0,0,0,.113,1.336,5.677,5.677,0,0,0,.34,1.188,5,5,0,0,0,.559,1.02,3.513,3.513,0,0,0,.777.793,3.5,3.5,0,0,0,1.051.543,4.169,4.169,0,0,0,1.293.191A4.483,4.483,0,0,0-72.8-.1,3.575,3.575,0,0,0-71.58-.844,3.676,3.676,0,0,0-70.759-2,4.582,4.582,0,0,0-70.369-3.5ZM-62.541,0h1.7V-8.453h-1.875v5.984a2.022,2.022,0,0,1-.266.426,1.741,1.741,0,0,1-.359.332,2.054,2.054,0,0,1-.562.246,2.693,2.693,0,0,1-.727.09,2.052,2.052,0,0,1-.68-.1,1.017,1.017,0,0,1-.477-.344,1.509,1.509,0,0,1-.273-.629,4.706,4.706,0,0,1-.086-.98V-8.453h-1.867v5.008a5.59,5.59,0,0,0,.211,1.637,3.038,3.038,0,0,0,.594,1.121,2.364,2.364,0,0,0,.934.645,3.341,3.341,0,0,0,1.2.207A2.72,2.72,0,0,0-63.7-.191,3.177,3.177,0,0,0-62.65-1.18Zm9.906-2.289a.774.774,0,0,1-.09.371.989.989,0,0,1-.27.309,1.658,1.658,0,0,1-.582.273,3.164,3.164,0,0,1-.848.1,3.433,3.433,0,0,1-.711-.074,1.9,1.9,0,0,1-.625-.246,1.424,1.424,0,0,1-.465-.434,1.287,1.287,0,0,1-.207-.66h-1.812a2.312,2.312,0,0,0,.25,1.031,2.664,2.664,0,0,0,.734.9,3.688,3.688,0,0,0,1.184.641,4.994,4.994,0,0,0,1.621.242,5.545,5.545,0,0,0,1.492-.187,3.809,3.809,0,0,0,1.156-.523,2.433,2.433,0,0,0,.738-.8,2.079,2.079,0,0,0,.262-1.031,1.926,1.926,0,0,0-.25-1,2.35,2.35,0,0,0-.7-.734,4.438,4.438,0,0,0-1.094-.5,11.49,11.49,0,0,0-1.414-.344,6.7,6.7,0,0,1-.918-.211,2.193,2.193,0,0,1-.566-.258.766.766,0,0,1-.3-.309.886.886,0,0,1-.086-.395.847.847,0,0,1,.1-.4.943.943,0,0,1,.3-.332,1.53,1.53,0,0,1,.52-.246,2.715,2.715,0,0,1,.738-.09,2.422,2.422,0,0,1,.8.121,1.591,1.591,0,0,1,.563.324,1.192,1.192,0,0,1,.285.387,1.074,1.074,0,0,1,.1.449h1.867a2.313,2.313,0,0,0-.25-1.062,2.521,2.521,0,0,0-.711-.852A3.6,3.6,0,0,0-52.963-8.4a5.14,5.14,0,0,0-1.516-.207,4.755,4.755,0,0,0-1.434.2,3.478,3.478,0,0,0-1.1.555,2.493,2.493,0,0,0-.707.816,2.067,2.067,0,0,0-.246.98,1.811,1.811,0,0,0,.242.945,2.265,2.265,0,0,0,.672.7,4.3,4.3,0,0,0,1.043.531,9.471,9.471,0,0,0,1.34.367,8.235,8.235,0,0,1,.977.234,3.257,3.257,0,0,1,.633.266,1.042,1.042,0,0,1,.324.328A.777.777,0,0,1-52.635-2.289Zm8.148-8.227h-1.875v2.063h-2.047v1.4h2.047V-2.9a4,4,0,0,0,.215,1.391,2.484,2.484,0,0,0,.6.945,2.33,2.33,0,0,0,.918.551,3.75,3.75,0,0,0,1.176.176q.352,0,.707-.035t.684-.1a5.412,5.412,0,0,0,.613-.152,2.183,2.183,0,0,0,.488-.215l-.2-1.289-.348.074q-.207.043-.441.074t-.5.063q-.258.023-.5.023a2.3,2.3,0,0,1-.617-.078,1.16,1.16,0,0,1-.484-.266,1.175,1.175,0,0,1-.316-.5,2.35,2.35,0,0,1-.113-.785V-7.055h3.18v-1.4h-3.18ZM-38.659-4.3v.164a5.286,5.286,0,0,0,.266,1.711A3.971,3.971,0,0,0-37.62-1.07a3.488,3.488,0,0,0,1.234.906,4.038,4.038,0,0,0,1.664.328,3.991,3.991,0,0,0,1.652-.328,3.5,3.5,0,0,0,1.23-.906,4.041,4.041,0,0,0,.766-1.359,5.286,5.286,0,0,0,.266-1.711V-4.3a5.3,5.3,0,0,0-.266-1.707,4.035,4.035,0,0,0-.766-1.363,3.574,3.574,0,0,0-1.238-.906,4.011,4.011,0,0,0-1.66-.328,3.984,3.984,0,0,0-1.656.328,3.506,3.506,0,0,0-1.227.906,3.965,3.965,0,0,0-.773,1.363A5.3,5.3,0,0,0-38.659-4.3Zm1.867.164V-4.3a4.566,4.566,0,0,1,.121-1.062,2.7,2.7,0,0,1,.379-.891,1.9,1.9,0,0,1,.637-.609,1.784,1.784,0,0,1,.918-.227,1.8,1.8,0,0,1,.926.227,1.972,1.972,0,0,1,.645.609,2.99,2.99,0,0,1,.367.891A4.43,4.43,0,0,1-32.675-4.3v.164A4.636,4.636,0,0,1-32.8-3.062a2.8,2.8,0,0,1-.371.891,1.851,1.851,0,0,1-.641.605,1.814,1.814,0,0,1-.914.223,1.847,1.847,0,0,1-.93-.223,1.851,1.851,0,0,1-.641-.605,2.7,2.7,0,0,1-.379-.891A4.636,4.636,0,0,1-36.792-4.141Zm9.461-4.312h-1.625V0h1.719V-6.492a1.328,1.328,0,0,1,.105-.211A.764.764,0,0,1-27-6.867a.645.645,0,0,1,.246-.152,1,1,0,0,1,.332-.051.948.948,0,0,1,.309.047.614.614,0,0,1,.238.148.631.631,0,0,1,.152.277,1.55,1.55,0,0,1,.051.426V0h1.688V-6.469a.843.843,0,0,1,.094-.238.705.705,0,0,1,.156-.184.741.741,0,0,1,.234-.133.94.94,0,0,1,.313-.047,1.021,1.021,0,0,1,.316.047.607.607,0,0,1,.246.148.731.731,0,0,1,.156.285,1.446,1.446,0,0,1,.055.426V0h1.719V-6.148a4.129,4.129,0,0,0-.137-1.137,2.074,2.074,0,0,0-.387-.77,1.559,1.559,0,0,0-.59-.418,1.981,1.981,0,0,0-.746-.137,2,2,0,0,0-.574.078,1.747,1.747,0,0,0-.473.219,1.616,1.616,0,0,0-.3.266,2.249,2.249,0,0,0-.25.336,1.633,1.633,0,0,0-.187-.348,1.259,1.259,0,0,0-.25-.262,1.157,1.157,0,0,0-.43-.219,2.078,2.078,0,0,0-.562-.07,1.785,1.785,0,0,0-1.027.289,1.956,1.956,0,0,0-.668.8Zm12.8,8.609a4.273,4.273,0,0,0,2.105-.484,3.746,3.746,0,0,0,1.293-1.094l-1-.969a2.57,2.57,0,0,1-.992.77,3.135,3.135,0,0,1-1.3.27,2.472,2.472,0,0,1-.934-.172,2.191,2.191,0,0,1-.738-.484,2.281,2.281,0,0,1-.492-.672,3.349,3.349,0,0,1-.266-.93v-.039h5.859v-.8a5.519,5.519,0,0,0-.242-1.672,3.72,3.72,0,0,0-.719-1.32,3.3,3.3,0,0,0-1.18-.855,3.99,3.99,0,0,0-1.617-.309,3.887,3.887,0,0,0-1.543.309,3.821,3.821,0,0,0-1.27.879,4.109,4.109,0,0,0-.859,1.375,4.928,4.928,0,0,0-.312,1.8v.32a4.274,4.274,0,0,0,.3,1.613,3.776,3.776,0,0,0,.855,1.293,3.933,3.933,0,0,0,1.332.867A4.558,4.558,0,0,0-14.527.156Zm-.227-7.25a1.989,1.989,0,0,1,.824.16,1.71,1.71,0,0,1,.59.426,1.969,1.969,0,0,1,.375.637,2.114,2.114,0,0,1,.133.73v.125h-3.977a3.455,3.455,0,0,1,.266-.867,2.388,2.388,0,0,1,.445-.656,1.9,1.9,0,0,1,.605-.41A1.867,1.867,0,0,1-14.753-7.094ZM-2.707-8.609A3.2,3.2,0,0,0-4.3-8.2,3.856,3.856,0,0,0-5.543-7.086l-.008-.2-.078-1.172h-1.75V0h1.867V-5.219a2.8,2.8,0,0,1,.367-.664,1.86,1.86,0,0,1,.531-.477,2.073,2.073,0,0,1,.664-.289,3.485,3.485,0,0,1,.844-.094,7.46,7.46,0,0,1,.832.047,8.333,8.333,0,0,1,.848.141L-1.16-8.4a3.681,3.681,0,0,0-.668-.148A6.046,6.046,0,0,0-2.707-8.609Zm17.773,4.2L17.246,0h2.008V-.1l-2.43-4.758a4.41,4.41,0,0,0,.852-.5,3.086,3.086,0,0,0,.656-.672,3.081,3.081,0,0,0,.426-.859,3.479,3.479,0,0,0,.152-1.062,3.49,3.49,0,0,0-.3-1.488,2.959,2.959,0,0,0-.828-1.066,3.8,3.8,0,0,0-1.281-.641,5.917,5.917,0,0,0-1.625-.227H11.269V0h1.875V-4.414ZM13.144-5.945v-3.9h1.734a3.121,3.121,0,0,1,.875.129,1.845,1.845,0,0,1,.664.355,1.585,1.585,0,0,1,.449.621,2.261,2.261,0,0,1,.152.863,2.048,2.048,0,0,1-.141.781,1.621,1.621,0,0,1-.391.578A1.875,1.875,0,0,1,15.8-6.1a2.786,2.786,0,0,1-.9.152ZM25.159.156a4.273,4.273,0,0,0,2.105-.484,3.746,3.746,0,0,0,1.293-1.094l-1-.969a2.57,2.57,0,0,1-.992.77,3.135,3.135,0,0,1-1.3.27,2.472,2.472,0,0,1-.934-.172,2.191,2.191,0,0,1-.738-.484A2.281,2.281,0,0,1,23.1-2.68a3.349,3.349,0,0,1-.266-.93v-.039H28.7v-.8a5.519,5.519,0,0,0-.242-1.672,3.72,3.72,0,0,0-.719-1.32,3.3,3.3,0,0,0-1.18-.855,3.99,3.99,0,0,0-1.617-.309A3.887,3.887,0,0,0,23.4-8.3a3.821,3.821,0,0,0-1.27.879,4.109,4.109,0,0,0-.859,1.375,4.928,4.928,0,0,0-.312,1.8v.32a4.274,4.274,0,0,0,.3,1.613,3.776,3.776,0,0,0,.855,1.293,3.933,3.933,0,0,0,1.332.867A4.558,4.558,0,0,0,25.159.156Zm-.227-7.25a1.989,1.989,0,0,1,.824.16,1.71,1.71,0,0,1,.59.426,1.969,1.969,0,0,1,.375.637,2.114,2.114,0,0,1,.133.73v.125H22.878a3.455,3.455,0,0,1,.266-.867,2.388,2.388,0,0,1,.445-.656,1.9,1.9,0,0,1,.605-.41A1.867,1.867,0,0,1,24.933-7.094ZM33.9,0H35.55l3.313-8.453H36.925L34.854-2.32l-.125.563L34.6-2.32,32.511-8.453H30.573Zm7.586-8.453V-6.9h2.6v5.352h-2.6V0h6.969V-1.547H45.971V-8.453Zm2.43-2.187a.933.933,0,0,0,.145.52.747.747,0,0,0,.426.309.99.99,0,0,0,.5.039.818.818,0,0,0,.391-.2.834.834,0,0,0,.5-.34.8.8,0,0,0,.117-.6.809.809,0,0,0-.3-.551,1.043,1.043,0,0,0-.684-.215,1.28,1.28,0,0,0-.449.074.993.993,0,0,0-.34.207.943.943,0,0,0-.227.332A1.1,1.1,0,0,0,43.917-10.641ZM54.924.156A4.273,4.273,0,0,0,57.03-.328a3.746,3.746,0,0,0,1.293-1.094l-1-.969a2.57,2.57,0,0,1-.992.77,3.135,3.135,0,0,1-1.3.27,2.472,2.472,0,0,1-.934-.172,2.191,2.191,0,0,1-.738-.484,2.281,2.281,0,0,1-.492-.672,3.349,3.349,0,0,1-.266-.93v-.039h5.859v-.8a5.519,5.519,0,0,0-.242-1.672,3.72,3.72,0,0,0-.719-1.32,3.3,3.3,0,0,0-1.18-.855,3.99,3.99,0,0,0-1.617-.309,3.887,3.887,0,0,0-1.543.309,3.821,3.821,0,0,0-1.27.879,4.109,4.109,0,0,0-.859,1.375,4.928,4.928,0,0,0-.312,1.8v.32a4.274,4.274,0,0,0,.3,1.613,3.776,3.776,0,0,0,.855,1.293,3.933,3.933,0,0,0,1.332.867A4.558,4.558,0,0,0,54.924.156ZM54.7-7.094a1.989,1.989,0,0,1,.824.16,1.71,1.71,0,0,1,.59.426,1.969,1.969,0,0,1,.375.637,2.114,2.114,0,0,1,.133.73v.125H52.643a3.455,3.455,0,0,1,.266-.867,2.388,2.388,0,0,1,.445-.656,1.9,1.9,0,0,1,.605-.41A1.867,1.867,0,0,1,54.7-7.094ZM61.6,0h1.586l1.07-4.8.188-1.047.2,1.047L65.736,0h1.586l1.633-8.453h-1.7L66.5-3.3l-.148,1.031-.18-1.023-1.1-5.164H63.846l-1.1,5.18-.172.977-.133-.977-.781-5.18H59.971ZM76.345-2.289a.774.774,0,0,1-.09.371.989.989,0,0,1-.27.309,1.659,1.659,0,0,1-.582.273,3.164,3.164,0,0,1-.848.1,3.433,3.433,0,0,1-.711-.074,1.9,1.9,0,0,1-.625-.246,1.424,1.424,0,0,1-.465-.434,1.287,1.287,0,0,1-.207-.66H70.736a2.313,2.313,0,0,0,.25,1.031,2.664,2.664,0,0,0,.734.9A3.688,3.688,0,0,0,72.9-.078a4.994,4.994,0,0,0,1.621.242,5.545,5.545,0,0,0,1.492-.187,3.809,3.809,0,0,0,1.156-.523,2.433,2.433,0,0,0,.738-.8,2.08,2.08,0,0,0,.262-1.031,1.926,1.926,0,0,0-.25-1,2.35,2.35,0,0,0-.7-.734,4.438,4.438,0,0,0-1.094-.5,11.49,11.49,0,0,0-1.414-.344,6.7,6.7,0,0,1-.918-.211,2.193,2.193,0,0,1-.566-.258.766.766,0,0,1-.3-.309.886.886,0,0,1-.086-.395.847.847,0,0,1,.1-.4.943.943,0,0,1,.3-.332,1.53,1.53,0,0,1,.52-.246A2.715,2.715,0,0,1,74.5-7.2a2.422,2.422,0,0,1,.8.121,1.591,1.591,0,0,1,.563.324,1.192,1.192,0,0,1,.285.387,1.074,1.074,0,0,1,.1.449h1.867a2.313,2.313,0,0,0-.25-1.062,2.521,2.521,0,0,0-.711-.852A3.6,3.6,0,0,0,76.017-8.4,5.14,5.14,0,0,0,74.5-8.609a4.755,4.755,0,0,0-1.434.2,3.478,3.478,0,0,0-1.1.555,2.493,2.493,0,0,0-.707.816,2.067,2.067,0,0,0-.246.98,1.811,1.811,0,0,0,.242.945,2.265,2.265,0,0,0,.672.7,4.3,4.3,0,0,0,1.043.531,9.471,9.471,0,0,0,1.34.367,8.234,8.234,0,0,1,.977.234,3.257,3.257,0,0,1,.633.266,1.042,1.042,0,0,1,.324.328A.777.777,0,0,1,76.345-2.289Z" transform="translate(102.04 63.84)" fill="#de0026"/><path d="M-72.84-12.16a3.822,3.822,0,0,0-1.12-1.76,7.874,7.874,0,0,0-1.44-1.36,11.5,11.5,0,0,0-2-1.12,11.354,11.354,0,0,0-2.04-.72,9.027,9.027,0,0,0-2.16-.36,10.2,10.2,0,0,0-2.16-.12c-.52-.16-.92.12-1.48.04-.72-.12-1,.2-1.52.16-.76-.04-.72.16-1.64.2-.68.04-1.36-.2-1.4-.88-.12-.68,0-1-.08-1.32a4.233,4.233,0,0,1-.04-1.28,1.534,1.534,0,0,1,1.36-1.56,9.625,9.625,0,0,0,1.68-.28c.92-.24,1.64-.28,2.2-.4a8.874,8.874,0,0,0,1.64-.44c.44,0,1.16-.32,1.04-1.6a9.931,9.931,0,0,1-.16-1.32c-.08-.48-.16-1.08-.96-1.08a6.459,6.459,0,0,0-2.08.44c-.68.12-1,.28-2,.4-.72.08-1.12.24-1.68.28a1.594,1.594,0,0,1-1.16-1.4c-.04-.24.2-.36,0-.76-.24-.44.08-.6,0-1a1.959,1.959,0,0,1,.16-1.24c.08-.32.52-.48.48-.92-.04-.4-.16-.64-.68-.64h-.12c-.96.04-1.72-.08-2.68-.08h-.36a1.036,1.036,0,0,0-1.12,1,10.973,10.973,0,0,0,.12,1.96c0,.88.08,1.16.08,1.84s-.6,1.88-1.56,1.88a7.718,7.718,0,0,1-1.36,0,9.469,9.469,0,0,0-1.56-.04,8.906,8.906,0,0,0-2-.12c-.68-.12-1.2.76-1.08,1.28-.04.6.04.88,0,1.4a1.356,1.356,0,0,0,.8,1.32,3.939,3.939,0,0,0,1.64.12,7.242,7.242,0,0,0,1.32,0,7.382,7.382,0,0,1,2.08-.04,1.63,1.63,0,0,1,1.8,1.56c.08.76,0,1.36.04,1.96.04.64,0,.76,0,1.44a2.813,2.813,0,0,1-.92,1.44,3.043,3.043,0,0,1-1.2.6c-.4.12-.48.44-1.08.68-.32.12-.44.48-.92.6-.68.16-.72.72-1.28,1a3.722,3.722,0,0,0-1,.88,5.47,5.47,0,0,0-.88,1.2l-.76,1.28a5.807,5.807,0,0,0-.56,1.36,6.87,6.87,0,0,0-.32,1.52c0,.2-.08.48-.08.84a2.753,2.753,0,0,0,.08.52c.16.56-.12.68.12,1.52a5.228,5.228,0,0,0,.4,1.32c.32.52.2.64.64,1.16s.48.68.84.92a7.835,7.835,0,0,0,.88.64,10.766,10.766,0,0,0,1.24.48,9.346,9.346,0,0,0,2.8.48,12.918,12.918,0,0,0,2.64-.24A3.806,3.806,0,0,0-91.32.36a4.093,4.093,0,0,0,.96-1.84,9.74,9.74,0,0,0,.44-2.48c-.04-.96.24-1.36.12-2.2a15.7,15.7,0,0,0,.04-1.96,8.23,8.23,0,0,1-.04-2,4.757,4.757,0,0,1,.08-1.68,2.4,2.4,0,0,1,1.24-1.6c.44-.28.88-.12,1.52-.28a10.369,10.369,0,0,1,2.72-.2,19.04,19.04,0,0,1,2.6.24c.64,0,1,.36,1.48.44.64.12.76.36,1.24.56.72.2.76.56,1.24.92.52.4.28.52.72,1.08s.28.8.44,1.16a3.077,3.077,0,0,1,.2,1.72A5.428,5.428,0,0,1-77-5.56,3.885,3.885,0,0,1-78.72-4.2a5.331,5.331,0,0,1-2.16.96,10.117,10.117,0,0,1-2.6.44c-.56,0-1.12.12-1.2.64-.2.64.2.92.28,1.52A4.336,4.336,0,0,1-83.92.64c.24.68.36.8,1.12.92a3.807,3.807,0,0,0,1-.12A19.4,19.4,0,0,0-79.48.88,3.1,3.1,0,0,0-78.24.44a10.846,10.846,0,0,1,1.2-.52c.44-.2.76-.48,1.16-.64.76-.28.6-.52,1-.76.56-.36.48-.52.88-.88a4.311,4.311,0,0,0,.72-1,4.824,4.824,0,0,0,.96-2.2,6.514,6.514,0,0,0,.36-2.56,11.05,11.05,0,0,0-.24-2.08A11,11,0,0,0-72.84-12.16Zm4.4-9.04a2.6,2.6,0,0,0-.84-1.68l-1.16-1.08c-.64-.6-1.08-1.2-1.56-1.56a9.114,9.114,0,0,0-1.72-1.4,7.171,7.171,0,0,1-1.44-1.2,1.943,1.943,0,0,0-1.2-.4,1.426,1.426,0,0,0-1.04.6c-.36.44-.52.56-.92,1a1.364,1.364,0,0,0-.4.84c-.04.44.36,1.08.68,1.12.88.12.68.72,1.48,1.12.92.44,1.12,1.24,1.76,1.48.72.28.48.8,1.24,1.2.6.32.56.88,1.24,1.36.2.28.44.88,1.12,1,.8.24.92-.2,1.24-.44a8.341,8.341,0,0,0,1-1.04c.16-.2.52-.44.52-.84ZM-93.96-5.32a6.321,6.321,0,0,1-.24,1.88,1.793,1.793,0,0,1-1.92,1.16,2.5,2.5,0,0,1-1.92-.8,3.238,3.238,0,0,1-.6-2.04,6.456,6.456,0,0,1,.48-2.12,7.63,7.63,0,0,1,1.2-2.04,5.331,5.331,0,0,1,1.16-1.2c.52-.52,1.28-1.08,1.64-.6a1.513,1.513,0,0,1,.24,1.44c-.12.4.08.52,0,.96-.08.56.08.88-.04,1.4C-94.12-6.52-93.88-6.36-93.96-5.32Zm68.16-6.12a2.141,2.141,0,0,1-1.44-.28,3.223,3.223,0,0,1-1.44-.24c-.68.04-.76-.28-1.4-.28-.6-.04-1-.24-1.48-.24a5.393,5.393,0,0,0-1.68-.4,6.921,6.921,0,0,1-2.08-.64,10.689,10.689,0,0,1-2.28-.72c-.8-.4-.96-1.12.12-1.92a4.138,4.138,0,0,0,1.2-.92c.44-.4,1.28-.96,1.76-1.44.56-.32.72-.96,1.44-1,.24,0,.96,0,1.04-.6.24-.24-.12-.8-.24-1.08-.36-.12-.6-.84-1.08-1a5.13,5.13,0,0,1-1.04-.92c-.28-.44-.4-.6-.8-.56a.828.828,0,0,0-.84.16c-.4.08-.44.32-.52.08a22.486,22.486,0,0,1-2.36.08,14.911,14.911,0,0,1-2.32,0,4.32,4.32,0,0,1-1.44,0c-1.4.12-2.12.04-2.4-.32-.28-.4.28-.8.56-1.08.4-.24.72,0,.84-.56.16-.2-.08-.24-.24-.44-.48-.6.32-.6,1.72-.56a12.907,12.907,0,0,1,1.76,0c.72.04,1.04-.08,1.8,0a9,9,0,0,1,1.8,0,13.5,13.5,0,0,0,1.8,0c.48.16,1.04-.08,1.8,0a3.731,3.731,0,0,0,1.76,0c.88-.12,1.08.36,1.16,1.08-.2.52.04,1-.04,1.2a6.015,6.015,0,0,0,0,1.2,1.2,1.2,0,0,0,1.32,1.04,5.893,5.893,0,0,1,1.68,0c.8.04,1.28-.16,1.32-1.08s-.12-1.64-.04-2.52a3.4,3.4,0,0,1,0-1.68c.08-.48,0-1.24.04-2.04-.24-.52-.64-1.04-1.08-1.04a3.287,3.287,0,0,1-1.76,0,3.5,3.5,0,0,0-1.72.04c-.64.04-1.24,0-1.72.04a2.743,2.743,0,0,1-1.72,0,13.421,13.421,0,0,0-1.8,0,7.016,7.016,0,0,0-1.84,0,14.607,14.607,0,0,0-1.88,0,1.381,1.381,0,0,1-1.6-.6c-.04-.32-.16-.44,0-.72a1.381,1.381,0,0,1,.48-1.2c.16-.12.4-.04.32-.48,0-.2-.36-.52-.76-.48a14.707,14.707,0,0,0-2.32-.24c-.24,0-.44.04-.68.04-.72.04-1.24.52-1.12,1a2.754,2.754,0,0,1,.12,1.28,1.318,1.318,0,0,1-.2,1.04c-.28.36-.88.28-1.48.36a5.585,5.585,0,0,0-1.84,0,4.534,4.534,0,0,1-1.8,0,12.918,12.918,0,0,0-1.76,0,3.1,3.1,0,0,1-1.72,0,3.535,3.535,0,0,0-1.72-.04,6.078,6.078,0,0,1-1.72-.04,9.02,9.02,0,0,0-1.8,0c-.48-.04-.88.44-1.04,1.04a11.52,11.52,0,0,1,0,2.04,6.693,6.693,0,0,1,0,1.56,6.652,6.652,0,0,0,0,2.52c-.08.76.52,1.16,1.28,1.12a12.158,12.158,0,0,0,1.72,0q1.2-.12,1.32-1.08c-.08-.68.12-1.56-.04-2.4.08-.72.12-.92,1-.96a3.721,3.721,0,0,1,1.64,0,4.015,4.015,0,0,0,1.6.04c.4-.12,1.36.12,1.84-.08.72.04.88.52.2,1.44-.12.44-.84,1.04-1.08,1.32a3.208,3.208,0,0,0-1.12,1.2c-.52.6-1.04.68-1.32,1.2-.52.36-1,.92-1.28,1.08a12.4,12.4,0,0,0-1.36,1.04,4.25,4.25,0,0,1-1.36.92,3.642,3.642,0,0,0-1.4.84c-.56.36-1.24.28-1.04,1.2a4.5,4.5,0,0,0,.72,1.4,1.9,1.9,0,0,0,1.36,1.28c.28.12.92-.32,1.56-.64.36,0,.64-.56,1.04-.68a1.611,1.611,0,0,0,1.16-.8c.32-.16.84-.72,1.08-.84a6.122,6.122,0,0,1,1.08-.84c.56-.4,1.92-.84,2.12-.24a3.889,3.889,0,0,1,.88.92.849.849,0,0,0,.72.68,1.1,1.1,0,0,1-.2,1.6c-.32.08-.52.4-.92.4-.64.12-1.32.64-2.24.88a15.508,15.508,0,0,0-2.32.92,21.72,21.72,0,0,1-2.28.76c-.76.16-1.72.52-2.32.64a5.987,5.987,0,0,1-1.68.48,8.345,8.345,0,0,0-1.72.56c-.4.04-.44.32-.44.6v.16c0,.76.76,1.4.88,2.08a1.068,1.068,0,0,0,1.08.88c.48-.12.92-.12,1.72-.36a6.627,6.627,0,0,1,1.64-.6c.44-.16.64-.04.96-.32.52-.08.68-.32.96-.36.56.04.84.24,1.08.92.08.36-.16.84,0,1a6.434,6.434,0,0,1,0,2.32,5.847,5.847,0,0,0,0,2.36,19.356,19.356,0,0,0-.04,3.08c-.12.72.48,1.2,1.32,1.28a2.371,2.371,0,0,0,.68.16,1.884,1.884,0,0,0,.68-.16c.36.04,1.12.08,1.28-.52.12-.44,1.08-.8,1.52-.72a6.763,6.763,0,0,0,1.8,0,3.254,3.254,0,0,0,1.64,0c.6.08,1-.12,1.68,0a3.245,3.245,0,0,1,1.64,0,11.771,11.771,0,0,1,1.68,0c.52.12,1.4-.08,1.84,0,.68-.16,1.44.12,1.52.52.12.52.72.64,1.2.6a10.935,10.935,0,0,0,1.4-.12c.92.04,1.12-.28,1.28-1.32.08-.84,0-2.04,0-2.96a7.254,7.254,0,0,1,0-2.28,10.481,10.481,0,0,1,0-2.24c0-.76-.04-1.24,0-1.8a.95.95,0,0,1,.64-.76,2,2,0,0,1,1.44.04,4.254,4.254,0,0,1,1.6.36,9.69,9.69,0,0,0,1.6.36.61.61,0,0,0,.76.08c.32.12.8-.16,1.08-.8a14.192,14.192,0,0,0,.88-2.32v-.12C-24.56-11.32-25.2-11.4-25.8-11.44Zm-18.08-8.44a9.608,9.608,0,0,0,1.08,0,3.513,3.513,0,0,0,1.8.08c1.36-.16,1.48.48.92.84-.24.16-.52.4-.8.56a8.285,8.285,0,0,1-1.64,1.08,1.641,1.641,0,0,1-1.84-.44,10.411,10.411,0,0,1-1.08-.96c-.36-.36-.52-.44-.4-.8C-45.64-20.08-45.12-19.68-43.88-19.88Zm7,10.76a4.967,4.967,0,0,0-1.72,0c-.6.2-.96-.2-1.4-.12-1.2.2-2.16-.12-3.12,0-1.12.24-1.84-.08-3,.08a3.12,3.12,0,0,1-1.8-.08c-.68.12-.68-.52-.12-.8a13.3,13.3,0,0,1,1.64-.68,4.3,4.3,0,0,1,1.6-.8A3.24,3.24,0,0,1-43.36-12c.48.04.72-.24,1.24.08.44.04.8.48,1.2.52.4.16.88.56,1.28.52.48.12,1.68.72,2.28.88C-36.68-9.84-36.48-9.28-36.88-9.12Zm.28,6.88c.04.84-.76.92-1.48.8a12.308,12.308,0,0,0-1.72,0,3.964,3.964,0,0,1-1.68,0c-.44-.08-1.28.12-1.64,0-.72.08-1.12-.08-1.68,0a3.721,3.721,0,0,1-1.64,0,12.787,12.787,0,0,1-1.76,0c-.52.16-1.56-.12-1.48-.72-.12-.8.16-1.8.04-2.28-.04-.72.24-1.36,1.2-1.2.96.12,1.76-.08,2.64,0,.92.12,1.68-.12,2.68,0,.76.08,1.8-.08,2.64,0,.84.16,1.96-.16,2.68,0,.88-.04,1,.24,1.16,1.2C-36.64-4.08-36.6-2.64-36.6-2.24ZM8.08-13.76a1.344,1.344,0,0,1,1.28-.52,7.984,7.984,0,0,0,1.68-.04,12.907,12.907,0,0,1,1.76,0,8.238,8.238,0,0,1,1.72,0,15.26,15.26,0,0,0,3.04,0c.88-.08,1.08-.48,1.08-1.32a1.168,1.168,0,0,0,.08-.36c0-.2-.08-.44-.08-.8,0-.6-.32-1.36-1.08-1.28-1,.16-1.84.08-2.92.16a4.955,4.955,0,0,0-1.72,0,8.565,8.565,0,0,0-1.76,0,3.721,3.721,0,0,0-1.64,0c-.76-.16-1.08.04-1.44-.36a.828.828,0,0,1-.12-1.2A1.848,1.848,0,0,1,9.4-19.8a9.393,9.393,0,0,1,2.12,0c.96-.08,1.8,0,3-.04,1.08-.04,1.12-.8,1.08-1.32a4.462,4.462,0,0,1,0-1.04c.04-.52-.48-1.28-1.16-1.12a18.75,18.75,0,0,0-3,0,10.453,10.453,0,0,0-2.24,0c-.92-.08-1.4-.36-1.4-.6,0-.84.68-.92,1.12-.96.68-.08,1.28.2,1.96,0,.64-.04,2,.08,2.68,0a25.013,25.013,0,0,0,3,0c.84.2,1.04-.56,1.08-1.32a11.221,11.221,0,0,1,0-1.16c.04-.84-.44-1.2-1.32-1.2a19.817,19.817,0,0,0-2.2.04c-.52,0-1.16,0-1.4-.24-.4-.44-.52-.56,0-1.4a2.14,2.14,0,0,1,1.16-1.04c.28-.04.44,0,.56-.44.16-.16-.04-.6-.4-.72-.6-.36-1.12-.44-1.4-.68a4.713,4.713,0,0,0-1.24-.48.712.712,0,0,0-.6-.28.772.772,0,0,0-.4.12c-.6.16-.72.6-.92,1.32-.36.84-.64,1.04-.96,1.8a4.077,4.077,0,0,1-.96,1.44,2.437,2.437,0,0,1-1.4.56,3.816,3.816,0,0,1-1.52,0c-.52,0-.64-.52-.32-1,.24-.88-.44-1.16-.72-1.8-.2-.56-.92-.8-.96-1.16-.52-.44-.88-1.28-1.76-1.32a1.989,1.989,0,0,0-.84.36c-.44.32-.44.44-.84.52a1.254,1.254,0,0,0-.64.96c.12.4-.12.52.2.68.16.16.8,1.08,1.2,1.64C.4-29,.12-28.6-.4-28.64a7.512,7.512,0,0,1-1.68.04c-.84.04-1.2-.04-2.16,0-.76.04-.84.48-1.04,1.24a1.638,1.638,0,0,0,0,1.16c-.08.72.12,1.44,1.04,1.32,1.16-.04,1.84.08,3,0a20.738,20.738,0,0,1,2.24,0,5.076,5.076,0,0,0,1.56.04c.64.12.96.36,1,.96.04.36-.64.44-1.36.52a9.582,9.582,0,0,0-1.52,0c-.92-.04-1.52-.12-2.68-.12-1.08,0-1.08.8-1.24,1.28-.08.36.16.68,0,1.04-.08.64.16,1.48.96,1.36.96,0,1.96.08,3.04,0a4.777,4.777,0,0,0,1.52,0,2.164,2.164,0,0,1,1.12.36.776.776,0,0,1,.2.84c.04.24-.44.64-1.32.64H-2.28c-.84-.04-2.04-.12-3-.08-.84.04-1.04.56-1.12,1.24a11.221,11.221,0,0,1,0,1.16,1.254,1.254,0,0,0,1.12,1.32c.92.12,1.8-.04,3,0,1,.04,1.68.04,2.68.04a8.769,8.769,0,0,1,2,.08,1.669,1.669,0,0,1,1.16,1.48,15.056,15.056,0,0,1,.04,1.88A2.86,2.86,0,0,1,3.36-9.4c-.24.56-.96.88-1.08,1.08-.52.36-.84.28-1.12.56A2.909,2.909,0,0,1-.2-7.12a3.179,3.179,0,0,1-1.44.6c-.52.28-.88.64-1.48.64a3.362,3.362,0,0,1-1.52.64l-1.52.56c-.4.04-.4.24-1.12.36-.68.04-1.16.44-1.08,1.04.04.36.16.44.16.68.36.56.36.8.6,1.2A8.4,8.4,0,0,1-7-.2c.12.24.56.72,1.08.44.48-.16.56-.84,1.04-1.16A6.9,6.9,0,0,0-3.8-1.44c.56-.08.84-.56,1.16-.56a2.688,2.688,0,0,0,1.16-.6c.48-.04.6-.48,1.16-.6a3.921,3.921,0,0,1,1.2-.64A4.917,4.917,0,0,0,2.6-4.68c.32-.24.96.04,1.04.92a6.68,6.68,0,0,1-.08,1.32C3.56-1.28,3.32-.8,2-.84,1.6-.84.96-.92.2-.92a.925.925,0,0,0-.88.8c-.08.64.44,1.6.44,2.4.08.76.88.88,1.68.96a9.492,9.492,0,0,0,2.88-.16,6.7,6.7,0,0,1,1.4-.4,1.6,1.6,0,0,0,1.12-.76c.36-.4.84-1.08.76-1.56.24-.52-.04-1.28.12-1.76a13.985,13.985,0,0,1-.04-1.92,5.859,5.859,0,0,0,0-1.48C7.6-5.44,8-6.16,8.76-5.52A15.38,15.38,0,0,1,9.88-4.2c.52.64.88.72,1.36,1.36.4.48,1.12.64,1.48,1.2a5.5,5.5,0,0,1,1.64,1.2c.8.36,1.44.88,1.88.88a2.21,2.21,0,0,0,1.2-.88c.16-.56,1.12-1.2,1.04-1.76,0-.44-.12-.44-.44-.8a7.7,7.7,0,0,1-1.6-.96c-.48-.24-1.16-.72-1.56-.92-.28-.4-.8-.4-1-.76a11.246,11.246,0,0,1-.96-.8c-.24-.16-.76-.44-.88-.92a.729.729,0,0,1,.24-1.24c.44-.44.64-.28.88-.64.56-.48,1.36-.72,2-1.32.4-.16.48-.52,1.28-.44a.723.723,0,0,0,.84-.32c.24-.28,0-.52-.28-.76-.56-.24-.68-.52-1.08-.76-.4-.04-.52-.4-.88-.6s-.4-.32-.84-.36a1.445,1.445,0,0,0-1.2.56c-.64.48-.84.76-1.36,1.16a13.212,13.212,0,0,0-1.2.88c-.6.44-1.52.4-1.72.04-.36-.68-.84-1.2-.84-1.52A1.118,1.118,0,0,1,8.08-13.76ZM-8.04-9.52c.28,0,.4-.12.84-.52.32-.56.76-.72,1-1.2a1.514,1.514,0,0,0,.4-1.12,1.091,1.091,0,0,0-.4-.92,3.071,3.071,0,0,1-.88-.88,4.623,4.623,0,0,0-.96-.76c-.64-.68-1.12-.76-1.44-1.68a6.71,6.71,0,0,1-.24-2.04c.12-1.16.36-1.88,1.04-1.92.68-.16,1.16.04,1.76-.08.8.08,1.24-.44,1.28-1.32a4.294,4.294,0,0,0,0-1.24c.04-.8-.6-1.48-1.24-1.32-.8.08-1,0-1.56.04a1.5,1.5,0,0,1-1.4-1.4,3.59,3.59,0,0,0,0-1.6c-.16-.36.04-1.04.04-1.36-.2-.52.16-1.48-.04-1.96a1.939,1.939,0,0,1,.56-1.36A.952.952,0,0,0-9.04-33c-.12-.28-.28-.36-.64-.44a14.338,14.338,0,0,0-1.6-.12c-.64,0-1-.08-1.68-.08a1.148,1.148,0,0,0-1.04.96,8.48,8.48,0,0,0,.04,2.24c.16.72-.12,1.32.08,2.24a9.027,9.027,0,0,0,0,2.08,1.491,1.491,0,0,1-1.6,1.6,11.58,11.58,0,0,0-2.04,0c-.84.12-1.32.64-1.28,1.32.12.56-.08,1.04,0,1.24-.04.88.32,1.36,1.28,1.32a3.939,3.939,0,0,0,1.8.04c.76.08,1,1.04.96,1.68a6.694,6.694,0,0,1-.6,1.96,6.262,6.262,0,0,1-.6,1.8c0,.72-.56,1.36-.6,1.8-.08.68-.56.92-.6,1.48a5.212,5.212,0,0,1-.6,1.4c-.24.48-.36.76-.68,1.36A5.6,5.6,0,0,1-19.2-7.8a2.467,2.467,0,0,0-.44,1.16v.2c0,.2.04.36.2.44.28.48.48,1.12.88,1.4.4.4.4,1.44,1.12,1.44a.9.9,0,0,0,.96-.6c.28-.6.64-1.16.92-1.72a11.569,11.569,0,0,0,.72-1.76c.44-1.12,1.08-.84,1.08.28,0,.88-.04,2.32-.12,2.92a19.808,19.808,0,0,1,0,2.2A18.714,18.714,0,0,1-13.92.32a5.053,5.053,0,0,0-.04,2.04c-.04.68.64.96,1.32,1.12a3.581,3.581,0,0,1,1.6,0,.593.593,0,0,0,.28.04A1.165,1.165,0,0,0-9.72,2.4,2.94,2.94,0,0,0-9.76.96C-9.6.12-9.96-.72-9.8-1.4l-.04-2.32c-.12-.56.12-1.52,0-2.32-.08-.88.04-1.48,0-2.32-.2-.16,0-.36,0-.72-.08-.76.12-1.84.84-1.08C-8.76-9.76-8.36-9.36-8.04-9.52Zm9.08.96c.32-.08.56-.4.56-1.12,0-.44-.24-.64-.6-1.2-.28-.48-.6-.92-.92-1a2.928,2.928,0,0,0-1.12-.96c-.44-.48-.84-.76-1.24-.72A1.686,1.686,0,0,0-3.32-13a3.025,3.025,0,0,1-.84.6c-.2.28-.52.64-.44.88a.978.978,0,0,0,.56.96c.28.28.44.52.92.96a3.831,3.831,0,0,1,.8,1c.4.48.72.72.84.92.24.24.32.4.68.36A1.838,1.838,0,0,0,.24-7.76,7.511,7.511,0,0,1,1.04-8.56Zm59.84-5.96V-15.6a4.454,4.454,0,0,0-.08-.68,10.277,10.277,0,0,1-.28-1.6,4.841,4.841,0,0,0-.4-1.48c-.32-.64-.36-1.2-.6-1.52-.36-.48-.36-.92-.68-1.24-.44-.56-.56-.88-.84-1.16-.44-.44-.76-.96-1.04-1.16-.44-.4-.88-.52-1.08-.96-.36-.4-.96-.52-1.2-.84A6.95,6.95,0,0,0,53.4-27c-.48-.24-.96-.36-1.36-.6a9.106,9.106,0,0,0-1.4-.44c-.32-.16-1.08-.24-1.48-.4a7.916,7.916,0,0,0-1.6-.28,12.559,12.559,0,0,0-1.72-.2c-.44,0-.88-.04-1.28-.04h-.24A2.281,2.281,0,0,0,43.8-29c-.48,0-.88.08-1.32.08-.64.08-1.36.2-1.96.28-.76.12-1,.24-1.68.36a10.861,10.861,0,0,0-1.72.68,5.053,5.053,0,0,0-1.68.72,11.493,11.493,0,0,0-1.56.92c-.48.48-1,.44-1.48,1.08-.4.56-1,.6-1.36,1.24a3.868,3.868,0,0,0-1.12,1.24c-.36.6-.92.8-1,1.32a12.036,12.036,0,0,1-.88,1.44c-.2.6-.68,1.04-.72,1.48a5.719,5.719,0,0,0-.6,1.56c-.16.36-.2,1.12-.4,1.6a5.879,5.879,0,0,0-.28,1.64c-.08.64-.04,1.12-.08,1.68a3.441,3.441,0,0,1,.04.64v.88a1.605,1.605,0,0,0,.12.6c.28.76.08,1.64.48,2.2.44.6.16,1.2.84,1.96.72.8.76,1.4,1.2,1.76l.52.44a9.647,9.647,0,0,0,1.48,1,9.2,9.2,0,0,0,2.44.52,5.072,5.072,0,0,0,2.36-.6A8.586,8.586,0,0,0,37.28-3.6,21.847,21.847,0,0,0,38.8-5.36c.44-.52.8-1.2,1.24-1.84a6.426,6.426,0,0,0,.8-1.56,10.723,10.723,0,0,0,.76-1.64c.16-.6.48-1.12.64-1.64.12-.48.36-.96.6-1.68.2-.48.4-1.16.6-1.68a17.505,17.505,0,0,1,.44-1.72,10.082,10.082,0,0,0,.48-1.68c.16-.4.16-1.08.44-1.72.04-.32.24-.72.32-1.4.2-.4.04-.56.32-1.04.24-.48.88-.56.88-1.12,0-.4.16-.72,1.16-.64.64,0,1,.32,1.76.4.72.08.8.4,1.68.64a15.092,15.092,0,0,1,1.84,1.04c.6.24.72.72,1,.92.64.44.6.72,1.04,1.2a7.835,7.835,0,0,1,.76,1.44,7.91,7.91,0,0,1,.56,2.12,12.008,12.008,0,0,1,.2,2.36,9.93,9.93,0,0,1-.16,1.8c-.12.8-.24.92-.32,1.36a3.519,3.519,0,0,1-.56,1.4c-.2.68-.52.64-.76,1.2-.28.64-.56.6-.92,1.08-.52.68-.76.48-1.16,1-.48.64-.88.44-1.24.84-.44.52-1.04.4-1.52.76a4.572,4.572,0,0,1-1.56.64c-.44.16-1.04.36-1.64.52s-1,.44-1.08,1c-.12.8.44,1.24.56,1.56.28.72.44,1.8,1.44,1.8a.881.881,0,0,0,.32-.04,8.3,8.3,0,0,0,1.32-.4c.64-.2.8-.36,1.36-.52a11.273,11.273,0,0,0,1.56-.68,6.112,6.112,0,0,0,1.28-.64c.24-.12.2-.32.68-.36.24-.04.44-.36.92-.64.32-.2.28-.44.84-.6a1.726,1.726,0,0,0,.8-.64c.36-.48.88-.68,1.24-1.28.28-.48.68-.56,1-1.36.24-.56.68-.84.92-1.56.24-.76.56-1.32.72-1.92a10.665,10.665,0,0,0,.4-2.08C60.8-12.92,60.84-13.76,60.88-14.52Zm-20.16-7.4c-.12.68-.36.76-.36,1.4,0,.52-.32.76-.36,1.2a13.863,13.863,0,0,1-.6,2.08,15.286,15.286,0,0,1-.68,2.08c-.16,1.04-.6,1.28-.76,2.04-.24,1.12-.76,1.28-.88,2-.16.76-.6.96-.68,1.36a5.248,5.248,0,0,1-.96,1.72,7.966,7.966,0,0,1-1.08,1.32,1.718,1.718,0,0,1-1.24.6A2.308,2.308,0,0,1,31.6-6.8a7.619,7.619,0,0,1-.84-1.4,12.386,12.386,0,0,1-.44-1.84c-.12-.44-.04-1.2-.12-1.6a8.119,8.119,0,0,1,.12-1.64,6.107,6.107,0,0,1,.36-1.6,4.751,4.751,0,0,1,.52-1.56,9.791,9.791,0,0,1,.72-1.52c.2-.28.32-.96.92-1.4.2-.16.2-.36.52-.8a2.986,2.986,0,0,1,1.12-1.16c.4-.24.52-.64,1.12-1.04.4-.28.56-.68,1.28-.88.52-.16.64-.64,1.4-.8.6-.12.76-.4,1.24-.48.52-.08.92-.36,1.28.04C41.32-23.88,41-22.96,40.72-21.92Zm64.24-7.04a.881.881,0,0,0,.04-.32.93.93,0,0,0-1.12-1c-.72.2-1.04-.16-1.8,0-.8-.12-1.04.16-1.76.04a12.206,12.206,0,0,1-1.72.04,6.147,6.147,0,0,1-1.72,0,18.738,18.738,0,0,1-2.12,0,4.92,4.92,0,0,1-2.16,0,21.58,21.58,0,0,1-2.28,0c-.68,0-1.24.08-1.56-.36a.864.864,0,0,1-.2-.88c.12-.4-.08-.56.36-.92.16-.12.32-.16.36-.52.04-.48-.24-.6-.8-.72a6.127,6.127,0,0,1-1.52-.08,6.881,6.881,0,0,1-1.28-.08H85.2c-.64,0-.88.4-.96,1.04,0,.2.12.28.04.52-.04.36.08.4,0,.64-.08.28.12.6,0,.8,0,.52-1.24.68-1.92.56a13.961,13.961,0,0,0-2.24,0c-.72.2-1.32-.16-2.12,0a18.5,18.5,0,0,0-2.12,0c-.72,0-1.2.2-1.76-.04a3.162,3.162,0,0,1-1.72-.04,3.286,3.286,0,0,1-1.76,0c-.6.16-1.36-.12-1.76,0-.76-.12-1.04.84-1.12,1.32v1.44c.12.76.2,1.48,1.12,1.32a6.481,6.481,0,0,0,1.76,0c.68.16,1-.16,1.76-.04.64.2,1.08-.08,1.72-.04a12.907,12.907,0,0,0,1.76,0,7.475,7.475,0,0,0,2.12,0,12.306,12.306,0,0,0,2.12,0,7.014,7.014,0,0,0,2.24,0c.92.08,1.8.16,1.88.48a1.13,1.13,0,0,1-.2,1.24,6.171,6.171,0,0,1-.68.2,4.621,4.621,0,0,1-1.72.08,19.275,19.275,0,0,1-3.04,0,8.014,8.014,0,0,1-3.08-.04c-.48.12-1.12-.16-1.56-.04-.64.08-1-.08-1.56,0A1.3,1.3,0,0,0,71.32-23c-.04.36.04,1.08,0,1.36,0,.68.4,1.52,1.08,1.36a3.42,3.42,0,0,1,1.56,0c.6.12,1.04-.12,1.56-.04,1.08.16,2.16-.2,3.08-.04.6.04,1.4,0,1.96,0,.64-.04,1.12.08,1.92,0,.6.12,1.36-.08,1.96,0,.64.12,1.48-.16,1.96,0a16.021,16.021,0,0,1,1.96,0,3.867,3.867,0,0,0,1.92,0,5.35,5.35,0,0,1,1.96,0,6.168,6.168,0,0,0,1.92,0,3.421,3.421,0,0,0,1.8,0,5.226,5.226,0,0,0,1.76.04,7.513,7.513,0,0,0,2.68.04c.52.08.96-.48,1.08-1.36-.2-.24-.04-1.04,0-1.36-.04-.76-.36-1.32-1.08-1.36a10.117,10.117,0,0,0-2.68.04,6.453,6.453,0,0,1-1.76,0,14.088,14.088,0,0,1-1.8.04c-.92.16-1.96-.08-3.08,0a3.075,3.075,0,0,1-2.44-.44c-.12-.24-.32-.64-.04-.92a2.123,2.123,0,0,1,1.72-.64,8.688,8.688,0,0,1,2.28,0,7.812,7.812,0,0,0,2.16,0,4.683,4.683,0,0,1,2.12,0,3.558,3.558,0,0,0,1.72,0c.6-.12,1,.2,1.72.04a8.177,8.177,0,0,1,1.76.04,6.78,6.78,0,0,0,1.8,0c.8-.08,1.08-.4,1.08-1.04v-.44c0-.28.04-.68.04-1A.681.681,0,0,0,104.96-28.96Zm-3.8,11.28a1.113,1.113,0,0,0-1.04-1.04,4.874,4.874,0,0,0-1.72,0,11.641,11.641,0,0,0-1.68,0,5.173,5.173,0,0,1-2.36,0,11.6,11.6,0,0,1-2.36,0,5.853,5.853,0,0,1-2.36,0,16.023,16.023,0,0,0-2.4,0,15.292,15.292,0,0,1-2.36,0,9.3,9.3,0,0,0-2.36,0,9.314,9.314,0,0,1-2.36,0,7.72,7.72,0,0,0-2.36,0,2.8,2.8,0,0,1-1.72,0,4.415,4.415,0,0,1-1.28,0c-.6,0-1.56.28-1.44,1.04a7.719,7.719,0,0,0,.04,2.56c-.08.32.16.56,0,.72a14.431,14.431,0,0,1-.04,1.88,15.316,15.316,0,0,1-.12,1.88A8.676,8.676,0,0,0,73-8.72a15.586,15.586,0,0,0-.48,1.84c-.12.48-.56,1.24-.68,1.76-.28.68-.8,1.16-.96,1.64a15.037,15.037,0,0,1-1.12,1.56c-.56.6-1,1.12-1.32,1.44A1.2,1.2,0,0,0,67.8.56V.64c0,.68.84,1.12,1.16,1.6.32.32.72.92,1.2.92h.12c.8-.04.88-.52,1.44-.92.48-.64.8-.8,1.12-1.24.08-.2.72-.8.84-1.08a6.589,6.589,0,0,1,.76-1.08c.32-.52.64-.68.68-1.12.28-.36.32-.92.6-1.12a6.843,6.843,0,0,0,.52-1.4,8.377,8.377,0,0,0,.52-1.4c.12-.56.56-.76,1-1.4.28-.4,1.2-.56,1.52-.64a21.392,21.392,0,0,0,2.84-.08,17.66,17.66,0,0,1,2.52,0,6.674,6.674,0,0,0,2.52,0,11.1,11.1,0,0,1,2.56.04l2.52.04c.88.12,1.68-.28,2.6,0a5.614,5.614,0,0,1,1.64.28c.52.2.76.28.88.76.08.28.64.52,1.2.4s.68.12,1.28,0a1.259,1.259,0,0,0,1.32-1.28,15.391,15.391,0,0,1-.04-2.72,12.973,12.973,0,0,1,0-2.16,6.52,6.52,0,0,1,0-2.16A18.5,18.5,0,0,0,101.16-17.68ZM84.84-12.64c-.16.4-.92.72-1.68.72-.84.04-1.4-.12-2-.08a10.071,10.071,0,0,1-2.2.04,1.409,1.409,0,0,1-1.36-1.68A1.4,1.4,0,0,1,78.64-15c.64-.04,1,.08,1.68,0a4.4,4.4,0,0,1,1.64,0,7.234,7.234,0,0,1,2.28.16,1.3,1.3,0,0,1,.64,1.08A3.424,3.424,0,0,1,84.84-12.64Zm12.12.2c-.04.4-.92.4-1.72.52a6.022,6.022,0,0,1-2.24,0,10.1,10.1,0,0,0-2.2,0,1.758,1.758,0,0,1-1.72-.68,1.538,1.538,0,0,1-.12-1.28c.12-.88.8-1.04,1.52-1.12a14.648,14.648,0,0,0,1.88,0,8.983,8.983,0,0,0,1.8,0c.56.04,1-.04,1.76,0,.84.08,1.32.72,1.2,1.16A1.784,1.784,0,0,1,96.96-12.44Z" transform="translate(103.04 33.84)" fill="#292929"/></svg>