<svg xmlns="http://www.w3.org/2000/svg" width="166.44" height="64.044" viewBox="0 0 166.44 64.044"><path d="M-22.8,0h1.773l1.141-6.961L-19.8-7.5l.078.539L-18.566,0h1.773l1.5-11.375h-1.75l-.789,6.984-.055.477-.078-.469L-19.1-11.375h-1.437l-1.094,6.961-.078.469-.055-.445-.781-6.984h-1.742Zm8.945-4.3v.164A5.286,5.286,0,0,0-13.59-2.43a3.971,3.971,0,0,0,.773,1.359,3.488,3.488,0,0,0,1.234.906A4.038,4.038,0,0,0-9.918.164,3.991,3.991,0,0,0-8.265-.164a3.5,3.5,0,0,0,1.23-.906A4.041,4.041,0,0,0-6.269-2.43,5.286,5.286,0,0,0-6-4.141V-4.3a5.3,5.3,0,0,0-.266-1.707,4.035,4.035,0,0,0-.766-1.363,3.574,3.574,0,0,0-1.238-.906,4.011,4.011,0,0,0-1.66-.328,3.984,3.984,0,0,0-1.656.328,3.506,3.506,0,0,0-1.227.906,3.965,3.965,0,0,0-.773,1.363A5.3,5.3,0,0,0-13.855-4.3Zm1.867.164V-4.3a4.566,4.566,0,0,1,.121-1.062,2.7,2.7,0,0,1,.379-.891,1.9,1.9,0,0,1,.637-.609,1.784,1.784,0,0,1,.918-.227,1.8,1.8,0,0,1,.926.227,1.972,1.972,0,0,1,.645.609A2.99,2.99,0,0,1-8-5.367,4.43,4.43,0,0,1-7.871-4.3v.164a4.636,4.636,0,0,1-.121,1.078,2.8,2.8,0,0,1-.371.891A1.851,1.851,0,0,1-9-1.566a1.814,1.814,0,0,1-.914.223,1.847,1.847,0,0,1-.93-.223,1.851,1.851,0,0,1-.641-.605,2.7,2.7,0,0,1-.379-.891A4.636,4.636,0,0,1-11.988-4.141ZM2.254-8.609a3.2,3.2,0,0,0-1.6.406A3.856,3.856,0,0,0-.582-7.086l-.008-.2L-.668-8.453h-1.75V0H-.551V-5.219a2.8,2.8,0,0,1,.367-.664,1.86,1.86,0,0,1,.531-.477,2.073,2.073,0,0,1,.664-.289,3.485,3.485,0,0,1,.844-.094,7.46,7.46,0,0,1,.832.047,8.333,8.333,0,0,1,.848.141L3.8-8.4a3.681,3.681,0,0,0-.668-.148A6.046,6.046,0,0,0,2.254-8.609ZM9.238-3.68,11.933,0h2.313L10.48-4.93l3.289-3.523h-2.25L9-5.8l-.773.859V-12H6.347V0H8.222V-2.719ZM21.777-2.289a.774.774,0,0,1-.09.371.989.989,0,0,1-.27.309,1.659,1.659,0,0,1-.582.273,3.164,3.164,0,0,1-.848.1,3.433,3.433,0,0,1-.711-.074,1.9,1.9,0,0,1-.625-.246,1.424,1.424,0,0,1-.465-.434,1.287,1.287,0,0,1-.207-.66H16.167a2.312,2.312,0,0,0,.25,1.031,2.664,2.664,0,0,0,.734.9,3.688,3.688,0,0,0,1.184.641,4.994,4.994,0,0,0,1.621.242,5.545,5.545,0,0,0,1.492-.187A3.809,3.809,0,0,0,22.6-.547a2.433,2.433,0,0,0,.738-.8A2.079,2.079,0,0,0,23.6-2.383a1.926,1.926,0,0,0-.25-1,2.35,2.35,0,0,0-.7-.734,4.438,4.438,0,0,0-1.094-.5,11.49,11.49,0,0,0-1.414-.344,6.7,6.7,0,0,1-.918-.211,2.193,2.193,0,0,1-.566-.258.766.766,0,0,1-.3-.309.886.886,0,0,1-.086-.395.847.847,0,0,1,.1-.4.943.943,0,0,1,.3-.332,1.53,1.53,0,0,1,.52-.246,2.715,2.715,0,0,1,.738-.09,2.422,2.422,0,0,1,.8.121,1.591,1.591,0,0,1,.563.324,1.192,1.192,0,0,1,.285.387,1.074,1.074,0,0,1,.1.449H23.55a2.313,2.313,0,0,0-.25-1.062,2.521,2.521,0,0,0-.711-.852A3.6,3.6,0,0,0,21.449-8.4a5.14,5.14,0,0,0-1.516-.207,4.755,4.755,0,0,0-1.434.2,3.478,3.478,0,0,0-1.1.555,2.493,2.493,0,0,0-.707.816,2.067,2.067,0,0,0-.246.98,1.811,1.811,0,0,0,.242.945,2.265,2.265,0,0,0,.672.7,4.3,4.3,0,0,0,1.043.531,9.471,9.471,0,0,0,1.34.367,8.234,8.234,0,0,1,.977.234,3.257,3.257,0,0,1,.633.266,1.042,1.042,0,0,1,.324.328A.777.777,0,0,1,21.777-2.289Z" transform="translate(82.44 63.88)" fill="#de0026"/><path d="M-61-19c.08-.6-.56-1.16-1.12-1.24a10.014,10.014,0,0,1-1.92,0c-.48-.08-1.44.08-1.88,0a12.028,12.028,0,0,1-2.4,0,2.17,2.17,0,0,1-2.04-1.48c.12-.48-.08-.92,0-1.44,0-.48.72-1.08,1.28-1.12a10.02,10.02,0,0,0,1.56,0c.44-.16,1.12.16,1.88,0a3.141,3.141,0,0,0,1.92,0A1.134,1.134,0,0,0-62.6-25.6c-.16-.44.04-.96,0-1.28-.04-.64-.4-1.36-1.12-1.24-.32.12-.44-.12-.92,0h-2.88a4.836,4.836,0,0,1-1.52,0c-.6-.08-.64-.24-1-.6-.28-.28.08-.72-.12-1.36a3.424,3.424,0,0,1,.2-1.64c.08-.2-.04-.36.28-.6.16-.12.2-.2.12-.52-.08-.36-.24-.48-.64-.44a3.808,3.808,0,0,1-1.6-.12,5.983,5.983,0,0,1-1.64-.12c-.6,0-.88.56-1.04,1a2.538,2.538,0,0,0,.04,1.56c.12.44-.04.64,0,.88.16.52,0,.64,0,1.04-.04.4-.44,1-.72.96l-.32-.04a1.008,1.008,0,0,1-1.28-1.16,5.351,5.351,0,0,1,.56-1.4c.4-.32.88-.32.92-.72A1.025,1.025,0,0,0-76-32a18.833,18.833,0,0,1-2.2-.64c-.32-.16-.44.04-.56-.08a1.386,1.386,0,0,0-1.12,1.2c-.16.64-.48,1.36-.6,2.04a12.63,12.63,0,0,0-.68,1.92,11.367,11.367,0,0,1-.92,2,12.757,12.757,0,0,0-1.04,1.88,1.144,1.144,0,0,1-.2.68c-.12.72.6.92,1,1.32.4.24.64.32.8.64.36.24.52.36.64.24.52-.04.52-.12.88-.44a11.455,11.455,0,0,0,1.08-2.04,4.594,4.594,0,0,1,1.84-1,8.768,8.768,0,0,1,1.48,0c.4.16,1.16.52,1.24,1.12,0,.28.04,1.12,0,1.44a1.464,1.464,0,0,1-1.92,1.48,4.245,4.245,0,0,1-2.24,0,9.681,9.681,0,0,0-1.88,0,7.71,7.71,0,0,1-1.92,0c-.64,0-.92.56-1.12,1.24a5.663,5.663,0,0,1,.04.76,3.268,3.268,0,0,1-.04.56c.12.76.24,1.44,1.12,1.32a3.474,3.474,0,0,0,1.92,0,7.435,7.435,0,0,1,1.88-.04,13.8,13.8,0,0,0,2.24,0c.64.04,1.76.16,1.8,1,.2.6.08.64,0,.88-.16.72-.64.92-1.28,1.04a11.162,11.162,0,0,0-1.64,0,8.178,8.178,0,0,1-1.72,0,6.827,6.827,0,0,0-1.28,0c-.92-.12-1.52.24-1.44,1.2a16.351,16.351,0,0,0,.04,2.4,7.483,7.483,0,0,0,0,1.64,8.238,8.238,0,0,1,0,1.72,4.728,4.728,0,0,1,0,1.68,11.038,11.038,0,0,0,0,1.64,26.578,26.578,0,0,0-.04,3.12c.04.68.52,1.44,1.32,1.28.28-.16.88.08,1.36,0,.96.04,1.16-.28,1.32-1.32.08-.84,0-2.08,0-3.08a15.443,15.443,0,0,1,0-2.72,10.276,10.276,0,0,1,0-2.72c0-.84.96-1.12,1.16-1.16.24.04.92,0,1.28,0a1.527,1.527,0,0,1,1.04,1.44,8.4,8.4,0,0,0,0,2.24c.04.68-.08,1.68-.04,2.24.16.6-.16,1.4,0,2.24A8.48,8.48,0,0,0-74.44.6c-.12.76.04,1.36-.04,1.8a.9.9,0,0,0,.96,1.12,1.107,1.107,0,0,0,.36-.04,5.467,5.467,0,0,1,1.4,0h.2c.68-.08,1.32-.32,1.32-1.08A2.812,2.812,0,0,0-70.28.96a22.624,22.624,0,0,1-.04-2.36,9,9,0,0,1,0-2.32,11.249,11.249,0,0,0-.04-2.32c0-.84.04-1.4,0-2.32A1.4,1.4,0,0,1-69.2-9.8c.4.16.8-.04,1.4,0a1.284,1.284,0,0,1,1.16,1.16,9.014,9.014,0,0,1,0,2.08,11.493,11.493,0,0,1,0,2.04c.16,1.28-.36,1.68-1.6,1.6-.36.16-.44,0-.72,0-.44.12-.84.52-.68.92-.08.68.36,1.56.28,2.12.16.96.6.92,1.36,1.08.88-.16,1.4-.12,2.16-.2A3.332,3.332,0,0,0-63.88.24,3.231,3.231,0,0,0-62.76-1.4a5.61,5.61,0,0,0,.24-2,.622.622,0,0,0-.04-.64c-.12-.28.08-.4-.04-.8-.08-.64.04-1.64-.04-2.4V-9.88a24,24,0,0,0,0-2.4c-.04-.48-.28-1.28-1.04-1.2a8.23,8.23,0,0,0-1.72,0c-.44,0-1.12-.04-1.68,0a5.177,5.177,0,0,1-1.76,0,1.286,1.286,0,0,1-1.4-.64,2.5,2.5,0,0,1-.12-1.08,1.223,1.223,0,0,1,.84-.96,4.9,4.9,0,0,1,1.2-.24,16.02,16.02,0,0,0,2.4,0,4.234,4.234,0,0,1,1.88.04c.8.04,1.36,0,1.92,0A1.116,1.116,0,0,0-61-17.68C-60.92-17.96-61.2-18.72-61-19Zm14.04-13.2a.51.51,0,0,0-.6-.48,3.573,3.573,0,0,1-1.64-.12,13.3,13.3,0,0,1-1.68-.08.907.907,0,0,0-1.04.96c-.04.36.08.84.04,1.32a20.077,20.077,0,0,0,.04,2.68,9.7,9.7,0,0,0,.04,2.64,11.95,11.95,0,0,1,0,2.08,5.2,5.2,0,0,0,0,2.08c-.08.72.08,1.72,0,2.32a6.24,6.24,0,0,0,0,2.28c.16.64-.16,1.44,0,2.36a7.51,7.51,0,0,0,0,2.32,22.425,22.425,0,0,1,0,2.32,7.509,7.509,0,0,1,0,2.32,22.438,22.438,0,0,0,0,2.32,10.793,10.793,0,0,1,0,2.28c-.04,1.52-.12,1.72-1.64,1.56a5.049,5.049,0,0,1-1.72-.04c-.6.04-.8.24-.84,1.08-.12.32.32,1,.28,1.28a4.852,4.852,0,0,0,.36,1.48c.12.52.48.32,1.36.48.64.12,1.84-.16,2.64-.12a1.677,1.677,0,0,0,1.28-.32c.4.08.68-.28,1.12-.56A3.614,3.614,0,0,0-47.8.44,6.07,6.07,0,0,0-47.6-2c-.12-.6.12-1.8-.04-2.4a5.879,5.879,0,0,0-.04-1.68c-.08-.4.04-1.04,0-1.68a12.541,12.541,0,0,1-.04-1.68,11.641,11.641,0,0,0,0-1.68V-13.6c.04-.64.04-1.76,0-2.52a10.584,10.584,0,0,0,0-2.52,17.067,17.067,0,0,0,0-2.48c-.16-.52.12-1.08,0-1.92a7.914,7.914,0,0,1,0-1.96c-.08-.72.12-1.4,0-1.96-.08-.76.16-1.16.04-1.92a5.725,5.725,0,0,0-.04-1.16c-.2-.4.16-.92.52-1.48.16-.16.32-.24.32-.44A1.573,1.573,0,0,0-46.96-32.2ZM-55.44-5.52a18.038,18.038,0,0,1,0-2.08,5.006,5.006,0,0,0,0-2.04,5.657,5.657,0,0,1-.04-2,6.967,6.967,0,0,0,0-2.04,8.863,8.863,0,0,0,0-1.8,3.163,3.163,0,0,1,0-1.84,4.746,4.746,0,0,1,0-1.84,3.06,3.06,0,0,1,0-1.8,14.256,14.256,0,0,1,0-3.2c.16-1.16-.2-1.92,0-3.16.04-.4-.36-1.04.36-1.64.08-.2.36-.44.36-.8,0-.32-.32-.32-.6-.44-.4-.12-1.16-.04-1.6-.12a10.726,10.726,0,0,0-1.64-.08c-.8-.08-1.24.52-1.04,1.32a3.9,3.9,0,0,0,0,2.04A6.918,6.918,0,0,0-59.6-25a5.6,5.6,0,0,0,0,2,8.614,8.614,0,0,1,.04,2.04,2.749,2.749,0,0,0,0,1.8,7.076,7.076,0,0,0,0,1.84,7.076,7.076,0,0,1,0,1.84,6.778,6.778,0,0,0,0,1.8c.04.6-.12,1.52-.04,2.04a6.7,6.7,0,0,0,0,2,18.159,18.159,0,0,0-.04,2.04c-.08.88.12,1.32,0,2.08A1.359,1.359,0,0,0-58.32-4.2c.44.2.88-.16,1.56,0C-55.84-4-55.56-4.6-55.44-5.52Zm24.16-16.92c-.36-.12-.44-.76-.36-1,.2-.56.36-.88.6-1.64a5.893,5.893,0,0,0,.72-1.84,6.591,6.591,0,0,0,.64-2.12A6.512,6.512,0,0,1-29-30.88c.08-.24,1-.36.96-1.04a.928.928,0,0,0-.56-.76A4.214,4.214,0,0,1-30-33.2c-.48-.04-.8-.4-1.32-.48a.867.867,0,0,0-.56-.2,1.168,1.168,0,0,0-.36.08c-.92.12-.6,1.12-.92,1.72a9.989,9.989,0,0,0-.44,1.6,5.461,5.461,0,0,1-.48,1.6c-.32.72-.24,1.16-.52,1.56-.16.68-.52.92-.56,1.56a7.019,7.019,0,0,1-.48,1.28,4.6,4.6,0,0,0-.48,1.28c-.24.52-.32.76-.56,1.24a3.413,3.413,0,0,1-.56,1.24c-.24.36-.28.84-.56,1.2-.28.56-.52.92-.6,1.16-.16.28-.36.76-.68,1.24-.16.48-.68.88-.72,1.16-.16.44-.8.96-.8,1.52a.361.361,0,0,0,.04.2.361.361,0,0,0-.04.2c0,.24.2.48.52.88.4.36.68.56.76,1,.28.56.36,1.08,1.04,1.2a.651.651,0,0,0,.84-.36,1.416,1.416,0,0,0,.36-.64c.44-.56.56-.52,1-.52.32.08.4.88.44,1.72,0,.44-.04.76,0,1.24a20.165,20.165,0,0,1,0,2.2,13.683,13.683,0,0,0,0,2.56,4.328,4.328,0,0,1,0,1.76c.08.72-.12,1.16-.04,1.72a8.96,8.96,0,0,1,0,1.8,4.544,4.544,0,0,0,0,1.8.955.955,0,0,0,1.04,1.24h.28c.44,0,.76.08,1.08.08a.861.861,0,0,0,.44-.08c1-.08,1.12-.36,1.32-1.28-.04-.64.12-1.04.04-1.8a3.743,3.743,0,0,1-.04-1.76,6.1,6.1,0,0,1,0-1.72,6.488,6.488,0,0,1-.04-1.76,7.7,7.7,0,0,1,0-2.36,6.015,6.015,0,0,1,0-2.4c.12-.72-.08-1.56,0-2.36.04-.8-.04-1.68,0-2.4a3.881,3.881,0,0,0,0-1.36c-.2-.72.08-1.16-.04-2.04a13.419,13.419,0,0,1,.12-3.04c.12-.28.72-.48.8-.88C-30.6-21.96-30.8-22.28-31.28-22.44Zm28.4-2.84c0-.08.04-.16.04-.24,0-.68-.68-1.04-1.28-1.08-.88.12-1.72-.16-2.68,0a9.48,9.48,0,0,1-2.6.04c-.8-.12-1.84.04-2.56,0-1-.12-1.96.04-2.6,0a12.507,12.507,0,0,0-2.12,0c-.64,0-1.56.08-2.08-.44a1.5,1.5,0,0,1,0-1.8c.16-.56.6-2,.76-2.32.4-.36,1.04-.4,1-.96-.04-.4-.64-.48-.84-.76-1-.32-1.64-.44-2.48-.76-.28-.12-.4-.2-.6-.08a.8.8,0,0,0-.92.68,1.52,1.52,0,0,0-.4,1.2c-.08.56-.44,1.16-.48,1.56-.08.72-.56.88-.52,1.56-.16.72-.48.96-.56,1.56-.32.6-.36,1-.6,1.48a4.532,4.532,0,0,1-.56,1.24c-.24.48-.52.64-.56,1.2-.32.56-.44.92-.6,1.2-.28.6-.6.72-.6,1.16-.44.56-.28.68-.68,1.16a6.436,6.436,0,0,0-.68,1.12,4.168,4.168,0,0,1-.72,1.08c-.2.4-.6.6-.8,1.08a1.989,1.989,0,0,0-.8,1.52c-.2.6.6.92,1,1.4.44.24.92,1.24,1.52,1.04.84.08,1.08-.68,1.6-1.4a1.613,1.613,0,0,0,.76-1.08c.04-.36.36-.52.72-1.04a4.441,4.441,0,0,0,.68-1.08,2.468,2.468,0,0,1,.64-1.12c.12-.52.56-.72.64-1.08.08-.24.52-.6.6-1.16a5.407,5.407,0,0,1,.76-1.52,1.026,1.026,0,0,1,.72-.72,1.7,1.7,0,0,1,1,0,1.5,1.5,0,0,1,.96.6,1.6,1.6,0,0,1,.28,1.4c-.04.56,0,1.56,0,2.36.08.6-.12,1.52,0,2.24.12.88-.08,1.72,0,2.24a10.436,10.436,0,0,0,0,2.24,14.46,14.46,0,0,0,0,2.28,5.228,5.228,0,0,0,0,2.24,10.083,10.083,0,0,0,0,2.2,8.617,8.617,0,0,0,0,1.76,4.183,4.183,0,0,0-.04,1.72c.12.56-.12,1.28,0,1.76a13.212,13.212,0,0,1,0,1.8c.04,1,.48,1.24,1.32,1.28a4.827,4.827,0,0,0,1.52,0c.84,0,1.48-.16,1.36-1.2.04-.28-.04-.8,0-1.08A2.022,2.022,0,0,1-14.4-.08c-.08-.36.16-1.16-.04-1.6a16.012,16.012,0,0,0,.04-2.76,1.873,1.873,0,0,1,1.6-1.44,7.347,7.347,0,0,1,1.88,0c.84.04,1.72-.12,2.6,0a15.193,15.193,0,0,0,2.68.04c.68.12,1.32-.36,1.24-1.32-.08-.44.04-.88,0-1.36-.04-.96-.4-1.36-1.24-1.36-1.08.04-1.76,0-2.68.04-1.04-.16-1.76.12-2.6.04-.6.12-1.28-.08-1.88,0-.68.2-1.76-.52-1.64-1.08-.16-.4.08-.72,0-1.32a1.409,1.409,0,0,1,.32-1.48,1.228,1.228,0,0,1,1.32-.64,7.386,7.386,0,0,0,1.88,0,18.5,18.5,0,0,1,2.6.04c.8-.08,1.64.12,2.68,0A1.218,1.218,0,0,0-4.4-15.6c-.04-.52.04-.76,0-1.36.12-1-.32-1.4-1.24-1.32a19.951,19.951,0,0,1-2.68,0l-2.6.04c-.76.2-1.36-.12-1.88,0-.92.12-1.64-.36-1.64-1.04,0-.2-.04-.92,0-1.28a2.255,2.255,0,0,1,.52-1.52,2.645,2.645,0,0,1,1.84-.56c.6.12,2-.04,2.68,0a18.991,18.991,0,0,1,2.6.04c.88-.16,1.64.24,2.68,0,.68-.04,1.24-.32,1.24-1.08v-.24a.507.507,0,0,0,.04-.24A3.374,3.374,0,0,1-2.88-25.28ZM19.44,3.4a3.366,3.366,0,0,0,2-.44c.36-.28.96-.24,1.24-.72A2.652,2.652,0,0,0,23.4,1.2a5.174,5.174,0,0,0,.4-2.6c-.16-.24.04-.44-.12-.96.28-.72,1.08-.32,1.88-.24a6.879,6.879,0,0,1,2.04,0,17.623,17.623,0,0,1,2.12.04c.56.08,1.56.36,1.72.72.32.68.72.68,1.4.64a1.774,1.774,0,0,0,1.28-.04c.72-.12,1.36-.12,1.32-1.08.12-.92-.2-1.8-.04-2.96-.04-.52-.12-1.08.32-1.48.24-.24.56-.64.88-.64.92-.04,1.72,0,2.64.04a1,1,0,0,0,1.08-1.12V-9.56a1.294,1.294,0,0,0-1.08-1.28c-.52-.04-1.08.16-1.44,0a2.245,2.245,0,0,1-1.64-.12,1.589,1.589,0,0,1-.72-1.12,5.522,5.522,0,0,1,0-2.16c0-.72-.32-1.24-1.04-1.28-.16-.16-.44-.08-.8,0a11.882,11.882,0,0,1-2.92,0,16.419,16.419,0,0,0-1.64.12,13.481,13.481,0,0,0-1.8,0,7.049,7.049,0,0,0-1.84-.04c-.88-.04-1.36-.08-1.72-.44a.57.57,0,0,1,.04-.8c.32-.28.68-.32,1.48-.48a5.667,5.667,0,0,0,1.84,0,22.871,22.871,0,0,0,2.32.08c.52,0,1.04.08,1.12.36.08.32,1.04.56,1.36.44a3.983,3.983,0,0,0,1.2,0c.92-.04,1.44-.28,1.28-1.28a25.013,25.013,0,0,0,0-3c.04-.44-.04-.76,0-1.04a9.624,9.624,0,0,0,0-2.4,1.316,1.316,0,0,0-1.08-1.2c-.2.08-.32,0-.68,0-.36-.12-.68.08-1.12,0a4.814,4.814,0,0,0-2,0,7.987,7.987,0,0,1-1.96,0,17.34,17.34,0,0,1-2.04,0c-.8-.08-1.4.08-1.76-.32a1.627,1.627,0,0,1,0-.76c.24-.44.84-.6,1.8-.52a12.5,12.5,0,0,0,2.12,0,8.7,8.7,0,0,0,2.04,0c.48-.04,1.28.08,2,0a5.2,5.2,0,0,0,1.76,0c.48.2,1.28-.04,1.72.04a4.843,4.843,0,0,0,1.76.04c.6-.08,1,.16,1.76-.04.72.16,1.2-.68,1.12-1.32.04-.32-.16-.84,0-1.04-.08-.64-.24-1.24-1.12-1.32a8.565,8.565,0,0,0-1.76,0c-.44-.08-1.16.16-1.76.04-.56-.08-1.28.16-1.72.04-.76-.08-1.2.12-1.76,0a16.589,16.589,0,0,0-2,0c-.8.08-1.4-.08-2.04-.04a9.436,9.436,0,0,1-2.8.04,1,1,0,0,1-1.16-1.16c.04-.52.72-.96.8-1.36.04-.2-.12-.56-.6-.68-.68-.08-1.12.08-1.6-.12a.78.78,0,0,0-.32-.04,3.791,3.791,0,0,1-1.36-.04H20.4a1.006,1.006,0,0,0-1,.76c-.2.72.16,1.16.12,1.84-.12.8-.84.64-1.72.8a9.391,9.391,0,0,1-2.12,0,5.7,5.7,0,0,0-2.04,0,16.621,16.621,0,0,1-2,0,4.153,4.153,0,0,0-1.72,0A3.565,3.565,0,0,0,8.2-30.4c-.64-.04-1.28,0-1.76-.04-.44-.08-1.08.04-1.8,0-.76.16-.92.56-1.08,1.32a1.315,1.315,0,0,0,0,1.04c-.12.72.16,1.44,1.08,1.36.76-.16,1.12.16,1.8,0,.48.16,1.04-.16,1.72-.04.64-.16,1.28.08,1.76-.04a4.153,4.153,0,0,0,1.72,0c.56.08,1.24-.12,2.04,0a11.381,11.381,0,0,1,2.04,0,7.455,7.455,0,0,1,2.12,0c.72.12,1.68.08,1.76.76l-.04.36c-.04.52-1,.64-1.64.48-.52-.04-1.56.08-2.08,0a4.058,4.058,0,0,1-1.96,0,4.729,4.729,0,0,1-2,0c-.4-.08-1.36.08-1.72,0-.68-.04-1,.44-1.2,1.2A16.486,16.486,0,0,1,9-21.6a4.291,4.291,0,0,0,0,1.24,14.537,14.537,0,0,0-.12,2.68A1.234,1.234,0,0,0,10.2-16.2a4.261,4.261,0,0,0,1.6.04c.44-.12,1-.16,1.08-.52.08-.32.88-.48,1.4-.48a16.648,16.648,0,0,1,2,0,13.987,13.987,0,0,0,1.84,0,1.458,1.458,0,0,1,1.28.36.8.8,0,0,1,.16.8c-.16.48-.92.6-1.96.48-.8.12-1.6-.08-2.48,0a9,9,0,0,0-2.32,0c-.84-.12-1.36.12-2.32,0-.48-.08-1.32.04-1.84,0a7.643,7.643,0,0,0-1.92,0c-.92-.12-1.28.4-1.12,1.28a10.113,10.113,0,0,0-.04,1.08c.08.72.24.96,1.16.96a5.121,5.121,0,0,0,1.92,0c.76.04,1.2-.04,1.84-.04a11.241,11.241,0,0,0,2.32,0,14.951,14.951,0,0,0,2.32,0,12.826,12.826,0,0,0,2.48,0c.84.04,2.08-.08,2.04.84-.04.56-.64.84-1.92.76a8.7,8.7,0,0,1-2.28,0,20.122,20.122,0,0,0-2.2,0,12.96,12.96,0,0,1-2.16,0,4.154,4.154,0,0,0-1.72,0c-.68-.08-1.24.16-1.72-.04a9.015,9.015,0,0,0-1.76-.04,6.713,6.713,0,0,1-1.8,0c-.68.12-1.12.48-1.12.92A.507.507,0,0,0,3-9.56c0,.2,0,.76-.04,1.12v.16a.9.9,0,0,0,1.12.92c.68-.16,1.28.12,1.8,0A12.631,12.631,0,0,0,7.64-7.4c.48-.12,1.04.08,1.72,0,.6-.12,1.08.12,1.72-.04a19.455,19.455,0,0,0,2.16,0,13.457,13.457,0,0,0,2.2,0,8.7,8.7,0,0,0,2.28,0c.92,0,2.04.08,1.96.8s-1.24.68-2.08.68c-.84.08-1.8-.04-2.48,0a14.884,14.884,0,0,1-2.32,0,11.213,11.213,0,0,0-2.32,0C10-5.84,9.08-6.12,8.64-6c-.72-.08-1.44,0-1.92-.08-.84.04-1.08.6-1.16,1.36a4.591,4.591,0,0,0,.08,1.16A1.034,1.034,0,0,0,6.88-2.48c.8-.04.96,0,1.68-.04.48-.04,1.16,0,1.92-.08.64-.16,1.6.2,2.32,0a23.023,23.023,0,0,1,2.88,0c.84-.04,1.96,0,2.64,0,1.16,0,1.44.28,1.36,1.2s-1.2.72-1.52.8A7.965,7.965,0,0,1,16.6-.72c-.32-.04-1.28.16-1.12.76a12.935,12.935,0,0,1,.4,2.44c.08.68.72.88,1.52.96a1.183,1.183,0,0,0,.4.08A11.735,11.735,0,0,1,19.44,3.4ZM18.12-20.4a7.755,7.755,0,0,1-1.92.12c-.4-.04-1.04,0-1.68,0-.76-.08-1.8.04-1.8-.76,0-.88.56-1.08,1.36-.92a8.688,8.688,0,0,0,1.96-.12c.56.2,1.04-.04,1.72.08,1-.04,1.92-.08,1.92.88C19.68-20.6,18.68-20.24,18.12-20.4Zm5.56-.32a.664.664,0,0,1-.04-.8c.16-.36.56-.32,1.32-.52.56-.16.84.24,1.28.08.76,0,1.8.04,2.96,0,1.04.04,1.28.44,1.28,1.04,0,.56-1,.8-1.52.64a3.583,3.583,0,0,1-1.84,0c-.56.16-1.44,0-1.84.12C24.72-20.32,24.12-20.2,23.68-20.72Zm-.16,9.32c-.04-.6.76-.84,1.8-.76a4.092,4.092,0,0,0,1.56,0c.68.08,1.08-.12,1.68,0h1.68c.32,0,.96.12,1.04.72.12.8-1.04.88-1.6.84a12,12,0,0,0-2.08,0c-.68-.04-1.52,0-2.36-.04C24.48-10.68,23.56-10.64,23.52-11.4Zm6.56,5.56a21.338,21.338,0,0,0-2.28-.08c-.72.04-1.6,0-2.16,0a3.3,3.3,0,0,1-1.8-.2.6.6,0,0,1,.04-1.04c.48-.32.92-.24,1.84-.28a15.609,15.609,0,0,1,1.88-.04c.44,0,1.56.04,2.08,0,.56-.04,1.64.08,1.64.8C31.44-5.96,30.96-5.84,30.08-5.84ZM53.44-22.4c-.32,0-.48-.4-.36-.8a11.106,11.106,0,0,1,.52-1.4c.32-.76.44-1.44.76-2.28.24-.72.36-1.32.56-2.16.12-.56.36-1.2.44-1.68a1,1,0,0,1,.32-.68c.32-.28.88-.12.92-.84a.8.8,0,0,0-.6-.64,4.63,4.63,0,0,0-1.4-.44,7.854,7.854,0,0,1-1.4-.4c-.28-.08-.44-.04-.56-.08h-.08c-.68,0-1.04.92-1.12,1.72a9.31,9.31,0,0,1-.32,1.52l-.4,1.52a6.309,6.309,0,0,1-.44,1.48,8,8,0,0,0-.44,1.48l-.8,2.36a3.454,3.454,0,0,1-.44,1.16c-.32.4-.2.76-.48,1.16a12.988,12.988,0,0,0-1,2.24c-.16.36-.36.76-.52,1.08a11.723,11.723,0,0,0-.6,1.12c-.16.64-.6.96-.68,1.6v.12c0,.76.8,1.44,1.08,2.04.24.48.68,1.84,1.4,1.08,1.48-1.56,1.52-.88,1.56,1.36a18.78,18.78,0,0,1,0,3.36c-.16.68.2,1.84,0,2.56a12.352,12.352,0,0,0-.04,1.72c-.08.72.12,1,0,1.76-.12.6.04,1.28-.04,1.76a13.374,13.374,0,0,0,.04,1.8q-.06,1.32,1.2,1.32h.12A1.107,1.107,0,0,1,51,3.48c.24,0,.48.04.68.04h.08a.435.435,0,0,1,.2-.04h.12c.88,0,1.24-.36,1.28-1.16.04-.64-.16-1.08-.08-1.76.08-.76,0-1.32.04-1.8.04-.6,0-.96,0-1.76,0-.44.04-1.36.04-1.76,0-.68-.12-1.8-.04-2.48a14.964,14.964,0,0,0,0-2.32,23.921,23.921,0,0,1,0-2.4,15.491,15.491,0,0,0,0-2.36,3.4,3.4,0,0,0,0-1.44,17.116,17.116,0,0,1,0-2.04c-.08-1.08.08-2.64.08-3.08,0-.24.52-.36.76-.92C54.28-22.12,53.96-22.4,53.44-22.4ZM82.48-32.52a5.068,5.068,0,0,0-1.72-.2,7.765,7.765,0,0,0-1.68-.08,1.111,1.111,0,0,0-1.04.96,3.928,3.928,0,0,0,.04,1.56c.08.72,0,1.6.04,2.32a14.607,14.607,0,0,0,.04,2.32,22.308,22.308,0,0,0,0,2.32,14.423,14.423,0,0,1,0,2.28,14.952,14.952,0,0,1,0,2.32,22.14,22.14,0,0,0,0,2.32v4.64c0,.6-.04,1.52,0,2.32.04.68-.04,1.76,0,2.32-.16.92.12,1.76,0,2.32,0,.92.04,1.68,0,2.32-.08,1.44-.24,1.56-1.64,1.52H74.8a.908.908,0,0,0-.84.84,13.653,13.653,0,0,0,.4,2.4c.2.88.8,1.04,1.56,1.04a9.3,9.3,0,0,0,2.6-.16,16.584,16.584,0,0,0,2.44-.68,2.789,2.789,0,0,0,1.12-1.36A2.546,2.546,0,0,0,82.32-.8c-.16-.52.08-.96,0-1.56a9.978,9.978,0,0,1-.04-1.6c.04-.8-.08-1.32,0-2.2a19.453,19.453,0,0,0,0-2.16c0-1.04-.08-1.96-.04-2.8a12.841,12.841,0,0,0,0-2.48,12.841,12.841,0,0,1,0-2.48c.16-.96-.08-1.68,0-2.48s-.2-1.48-.12-2.32c.04-.6-.04-.96.04-1.76.08-.68-.08-1.2.04-2.08.08-.72-.08-1.16-.04-2a10.836,10.836,0,0,1,.04-1.96c.08-.32-.08-.84.04-1.24.2-.72.04-1.08.32-1.36.24-.24.44-.32.44-.68v-.2C82.96-32.4,82.8-32.4,82.48-32.52ZM71.08-21.48a3.352,3.352,0,0,0-.84-.84,5.564,5.564,0,0,1-.84-.8c-.2-.24-.4-.44-.72-.4-.44.08-.32.28-.8.24a4.222,4.222,0,0,0-1,.08,8.23,8.23,0,0,1-1.72,0c-1,.08-1.44-.24-1.52-.6a3.931,3.931,0,0,1,.08-1.8,5.082,5.082,0,0,1,.32-1.44c.32-.72,1.12-.92,2.08-1A20.077,20.077,0,0,0,68.8-28a25.533,25.533,0,0,1,3,.04c.76-.04.96-.52.96-1.48a6.061,6.061,0,0,1,.08-1.16,1.228,1.228,0,0,0-1.08-1.32,20.607,20.607,0,0,0-3.08.12c-.88.04-1.24-.24-1.96-.12a4.8,4.8,0,0,1-2,0c-.52-.08-1.4.28-2.08.08-.8-.24-1.64.12-2.12,0-.8-.2-2,.16-2.84.04-.72-.12-1.12.56-1.12,1.28a9.458,9.458,0,0,1,0,1.08c0,.6.16,1.32,1.12,1.36a12.352,12.352,0,0,1,1.72.04c.48.04.6.28.28,2.52a7.572,7.572,0,0,1-.48,1.88,13.288,13.288,0,0,0-.52,1.8c-.12.56-.6,1.36-.64,1.76-.04.68-.6,1.08-.72,1.76-.12.76-.56,1-.76,1.68-.16.56-.56.96-.84,1.72a5.266,5.266,0,0,1-1,1.52,1.8,1.8,0,0,0-.52,1.16c-.12.48.64,1.16.92,1.52.36.44.64,1.12,1.4,1.2.72.08.64-.36.96-.6.4-.32.56-.96,1-1.56.48-.64,1.28-1.36,1.84-.76a6.83,6.83,0,0,1,1.12.88,3.973,3.973,0,0,1,1.08,1.36,1.472,1.472,0,0,1-.2,1.44c-.16.32-.64.92-.72,1.16a2.365,2.365,0,0,1-.76,1.16c-.52.76-.72,1.28-1.28,1.64s-.92,1.4-1.36,1.6c-.68.32-.88,1.08-1.64,1.48a5.6,5.6,0,0,0-1.48,1.4c-.36.32-.36.48-.28.8.12.56.72,1.08.96,1.4.48.64.72,1.04,1.36,1.04a3.934,3.934,0,0,0,1.36-.68A4.115,4.115,0,0,0,59.6,1.2,4.877,4.877,0,0,1,60.96-.16,5.183,5.183,0,0,0,62.24-1.6l1.2-1.48a8.832,8.832,0,0,0,1.12-1.56,7.792,7.792,0,0,1,1-1.6c.52-.6.44-1.04.92-1.72a5.092,5.092,0,0,0,.84-1.68c.2-.6.52-1,.72-1.76a10.669,10.669,0,0,0,.64-1.8,5.017,5.017,0,0,1,.4-1.24c.16-.32.08-.88.44-1.28.48-.52.2-1.16.48-1.72.32-.64.16-1.12.36-1.56.24-.52.12-.8.36-.96.44-.28.72-.56.68-.92C71.36-21.12,71.28-21.16,71.08-21.48ZM74.56-4.4c.76,0,1.32-.28,1.32-1.08a27,27,0,0,1-.08-3c.12-.92-.2-2.04,0-3.04a11.913,11.913,0,0,0,.04-2.04,11.111,11.111,0,0,0,0-2c-.08-.84.08-1.36,0-2.04a11.124,11.124,0,0,1,0-2c.08-.68-.12-1.88,0-2.56a12.108,12.108,0,0,0,.04-2.72c.08-.32.6-.4.76-1.08.12-.52-.52-.6-.72-.6a9.232,9.232,0,0,0-1.48-.12c-.36.04-1.24-.08-1.6-.08a.931.931,0,0,0-1.04,1c0,.6.04.92,0,1.56a5.083,5.083,0,0,0,0,1.56c.16,1.16-.12,1.88.04,3.04a16.678,16.678,0,0,1,0,2,17.355,17.355,0,0,0,0,2.04,11.133,11.133,0,0,1,0,2,11.011,11.011,0,0,0,0,2c0,1.16,0,2.2-.04,3-.04.88.04,2.04,0,3.08-.04,1.64.52,1,1.32,1.08C73.4-4.36,73.88-4.4,74.56-4.4Zm-8.6-13.72a15.345,15.345,0,0,0-.64,2.08c-.2.92-1.16,1.52-1.84,1.08-.36-.24-.64-.68-1-.8a1.741,1.741,0,0,1-1.12-1.72c.6-1.64,1.32-2.08,2.2-2.04a5.427,5.427,0,0,0,1.4,0C65.72-19.48,66.08-18.44,65.96-18.12Z" transform="translate(83.44 33.88)" fill="#292929"/></svg>