<svg xmlns="http://www.w3.org/2000/svg" xmlns:xlink="http://www.w3.org/1999/xlink" width="320" height="235" viewBox="0 0 320 235"><defs><clipPath id="a"><rect width="320" height="235" transform="translate(0 662)" fill="#fff" stroke="#707070" stroke-width="1"/></clipPath></defs><g transform="translate(0 -662)" clip-path="url(#a)"><g transform="translate(-106.683 -337.595)"><path d="M277.714,210.714H36.128a36.128,36.128,0,1,1,0-72.255H277.714a36.128,36.128,0,1,1,0,72.255" transform="translate(-32.565 1000.425)" fill="#f5e16e"/><path d="M447.8,27.828H169.256c-.589,0-1.173.019-1.754.054-23.609,1.116-42.62,23.36-42.62,50.406h0c0,27.753,20.015,50.459,44.477,50.459H279.478v-.109h-.016c-6.169,0-11.169-5.673-11.169-12.672v0c0-7,5-12.672,11.169-12.672h.016v-.046H447.8c18.281,0,33.238-16.97,33.238-37.709S466.082,27.828,447.8,27.828" transform="translate(-54.025 1010.137)" fill="#f5e16e"/><path d="M194.2,238.413a11.967,11.967,0,0,0,11.968-11.968v0A11.968,11.968,0,0,0,194.2,214.475h-28.44A11.967,11.967,0,0,1,153.8,202.508h0a11.967,11.967,0,0,1,11.968-11.968h88.925a11.969,11.969,0,0,0,11.968-11.968v0A11.968,11.968,0,0,0,254.689,166.6H109.864A11.967,11.967,0,0,0,97.9,178.57v0a11.968,11.968,0,0,0,11.968,11.968h11.295a11.967,11.967,0,0,1,11.968,11.968h0a11.967,11.967,0,0,1-11.968,11.968H56.171A11.969,11.969,0,0,0,44.2,226.443v0a11.968,11.968,0,0,0,11.969,11.968Z" transform="translate(-31.074 996.529)" fill="#fffabe"/><path d="M285.939,25.24H331.4a12.792,12.792,0,0,0,12.957-12.619v0A12.792,12.792,0,0,0,331.4,0H207.969a12.791,12.791,0,0,0-12.957,12.619v0A12.791,12.791,0,0,0,207.969,25.24h29.678A12.791,12.791,0,0,1,250.6,37.859v0A12.792,12.792,0,0,1,237.647,50.48h-52.77A12.791,12.791,0,0,0,171.92,63.1v0a12.791,12.791,0,0,0,12.957,12.618H316.615a12.792,12.792,0,0,1,12.957,12.62h0a12.791,12.791,0,0,1-12.957,12.619H267.592a12.792,12.792,0,0,0-12.957,12.619v0A12.791,12.791,0,0,0,267.592,126.2H386.607a12.791,12.791,0,0,0,12.957-12.619v0a12.792,12.792,0,0,0-12.957-12.619H370.623A12.791,12.791,0,0,1,357.666,88.34h0a12.792,12.792,0,0,1,12.957-12.62h68.734A12.791,12.791,0,0,0,452.314,63.1v0A12.791,12.791,0,0,0,439.357,50.48H285.939a12.792,12.792,0,0,1-12.957-12.619v0A12.791,12.791,0,0,1,285.939,25.24" transform="translate(-50.17 997.822)" fill="#fffabe"/></g></g></svg>