<svg xmlns="http://www.w3.org/2000/svg" width="73" height="73" viewBox="0 0 73 73"><g transform="translate(-1441 -28)"><circle cx="36.5" cy="36.5" r="36.5" transform="translate(1441 28)" fill="#fff"/><path d="M36.5,5A31.51,31.51,0,0,0,24.24,65.527,31.509,31.509,0,0,0,48.76,7.473,31.3,31.3,0,0,0,36.5,5m0-5A36.5,36.5,0,1,1,0,36.5,36.5,36.5,0,0,1,36.5,0Z" transform="translate(1441 28)" fill="#fff"/><path d="M29.868,6H5.985a2.981,2.981,0,0,0-2.97,2.985L3,26.9a2.994,2.994,0,0,0,2.985,2.985H29.868A2.994,2.994,0,0,0,32.854,26.9V8.985A2.994,2.994,0,0,0,29.868,6Zm0,5.971L17.927,19.434,5.985,11.971V8.985l11.941,7.463L29.868,8.985Z" transform="translate(1459.97 45.298)" fill="#00a970"/></g></svg>