<svg xmlns="http://www.w3.org/2000/svg" width="763" height="89.342" viewBox="0 0 763 89.342"><g transform="translate(9691.58 4026.702)"><path d="M-117.36-1.48c.36,0,.84-.76.96-1a27.239,27.239,0,0,0,1.24-2.96,35.032,35.032,0,0,0,1.48-6.04,53.539,53.539,0,0,0,.44-5.64c.16-2.2.16-4.44.16-6.64,4,0,8.04-.04,12.04-.04,2.8,0,5.52-.04,8.28.08.28,0,1,.12,1.28.12s.28-.4.36-.88c.08-.72.16-1.56.28-2.28.08-.56.2-1.2.2-1.52,0-.28-.2-.36-.44-.36-.64,0-1.32.16-1.96.2-1.76.04-3.52.28-5.28.24-3.96-.08-7.92,0-11.88,0h-4.24c-.56,0-1.16-.08-1.72-.12-.32,0-.64-.08-1-.08-.44,0-.52.16-.52.56,0,.32.08.68.08,1.04a15.738,15.738,0,0,1,.08,1.96c0,1.4.04,2.84.04,4.28a38.852,38.852,0,0,1-.52,8.08,23.591,23.591,0,0,1-3.16,7.84c-.2.24-.68.68-.68,1s.6.44.8.56c.44.2,1.64.72,2.56,1.16A4.915,4.915,0,0,0-117.36-1.48Zm3.84.6c.68,0,1.8-.32,2.52-.36,3.48-.32,6.24-.44,9.76-.44,3.28,0,6.52.12,9.76.32a22.692,22.692,0,0,0,2.32.2c.4,0,.52-.08.56-.48.16-1.12.2-2.12.36-3.16a7.184,7.184,0,0,0,.08-.88c0-.28-.04-.44-.32-.44a6.641,6.641,0,0,0-.88.12l-2.08.12c-2.6.04-5.24.08-7.84.08v-6.88h4.52c.48,0,1.16.08,1.64.08.24,0,.4-.04.44-.48.08-.88.12-1.8.28-2.68a6.643,6.643,0,0,0,.12-.88c0-.36-.08-.4-.44-.4-.48,0-1.16.08-1.68.12l-4.88.12.12-3.12c0-.48.12-1,.12-1.48,0-.4-.2-.48-.6-.48h-3.44c-.32,0-.76-.08-.76.28,0,.48.16,1.08.16,1.56.04,1.08.04,2.16.04,3.24h-4.44c-.72,0-1.48-.12-2.2-.12-.52,0-.36.72-.36,1.04v2.56c0,.28-.08.8.36.8.52,0,1.08-.12,1.64-.12,1.36-.08,3.44-.08,5-.08V-5.8c-2.6,0-5.16-.04-7.76-.04-.64,0-1.6-.16-2.24-.16-.36,0-.32.64-.32,1.16.04,1.04,0,2.52,0,2.88C-113.96-1.44-114.04-.88-113.52-.88Zm43.28-.92a3.517,3.517,0,0,0,.8-.12c.44-.04.92-.12,1.28-.16,4.44-.6,8.48-1.24,12.64-2.12.88-.16.96-.16.96-1.12l-.12-2.24c-.04-.48-.04-.88-.24-.88a2.958,2.958,0,0,0-.92.16,19.941,19.941,0,0,1-2.28.6c-1,.24-2.04.44-3.04.6v-2.96h.84c1.04,0,2.16.12,3.2.12.6,0,.52-.4.56-.92.08-.52.12-1.48.16-1.96.04-.44.12-.84.12-.96,0-.52-.2-.52-.56-.52-1.04.12-2.08.24-3.12.28-.4.04-.8.04-1.2.04v-2.68c.68,0,1.36,0,1.88.04.84.04,1.24.04,2.08.04.28,0,.56-.12.56-.76a6.486,6.486,0,0,0-.44-1.88c-.36-1-1.12-3.04-1.8-4.68-.12-.36-.36-1.2-.8-1.2a2.729,2.729,0,0,0-.8.16c-.44.16-1.2.28-1.72.44-.32.12-.6.28-.6.56s.28.44.48.96c.44,1.16.68,1.52,1.04,2.68-1.28.04-2.8.04-4.04.04.96-1.96,1.88-4.04,3.04-6.28,1.52,0,3.04.08,4.52.2.4.04,1,.08,1.4.08.36.04.36-.32.44-.96.04-.88.24-2.4.24-3.08,0-.4-.08-.52-.32-.52a4.042,4.042,0,0,0-.68.12c-.68.08-1.4.2-2.08.24-2.48.08-4.92.08-7.52.08-.96-.04-2.4-.28-3.08-.28-.48,0-.36.68-.36,1.16,0,1.12.04,2.24.04,2.64,0,.56.12.64.44.64.28,0,.6-.08.88-.08l1.72-.12a18.414,18.414,0,0,1-.8,1.84c-1.12,2.4-2.12,4.64-2.88,6.28a3.7,3.7,0,0,0-.24,1.32c0,.48.44.48.6.48.24,0,.56-.04.84-.04.84-.08,1.32-.04,2-.08.6,0,1.28,0,1.92-.04v2.72h-.88q-1.26,0-2.52-.12c-.36,0-.76-.08-1.12-.08-.44,0-.36.48-.36,1v2.32c0,.52-.08.92.28.96.24,0,.64-.08,1.04-.12.52-.04,1.16-.04,1.6-.04.68-.04,1.32-.04,1.96-.04v3.48c-1.24.12-2.24.16-3.68.24-.44.04-1.16,0-1.48,0-.36,0-.6,0-.6.68,0,.48.12,1.84.24,2.96C-70.68-2.12-70.64-1.8-70.24-1.8ZM-76.6,1.48c1.24,0,2.44-.04,3.68-.04.44.04.8.04.8-.28a5.633,5.633,0,0,0-.04-.84c0-.76-.12-1.56-.16-2.32-.16-3.48-.16-6.96-.24-10.4-.04-3.48-.04-8.24-.04-12.04.84-1.56,1.44-2.8,1.56-3.12a12.941,12.941,0,0,0,.52-1.32,5.663,5.663,0,0,0,.16-.8c0-.2-.36-.36-.64-.52-.92-.52-1.56-.96-2.44-1.4-.4-.24-.44-.24-.72-.24-.32.04-.32.4-.4.64a29.747,29.747,0,0,1-1.72,4.48,37.379,37.379,0,0,1-4.16,6.76c-.44.48-.72.92-1.2,1.44-.12.16-.48.48-.48.72.04.24.52.44.68.52.96.52,1.64.8,2.56,1.4a1.431,1.431,0,0,0,.84.36c.2,0,.4-.32.72-.72.28-.36.56-.84.92-1.4,0,2.52-.04,5.04-.04,7.56,0,2.72-.2,5.48-.32,8.2-.04.68-.08,1.36-.16,2.04a7.868,7.868,0,0,0-.12.96C-77.04,1.44-76.88,1.48-76.6,1.48Zm23.68.24a3.54,3.54,0,0,0,1.6-.68c4.04-2.68,4.04-4.72,4.04-9.72,0-3.32-.24-6.04-.24-9.12,0-2.56-.12-5.12-.12-7.68,0-.96.04-1.88.12-2.84.04-.52.2-1,.2-1.52,0-.48-.56-.4-.96-.4h-3.16c-.32,0-1-.04-1,.44a5.126,5.126,0,0,0,.2,1.08l.2,1.28a38.438,38.438,0,0,1,.28,4.28c0,2.12.16,4.24.16,6.32,0,2.96.08,5.6.04,8.76,0,2.72-.28,3.8-3,5.28-.16.08-.84.32-1.36.52-.48.2-.84.16-.84.48,0,.36.4.56.88.96.64.6,1.36,1.2,1.96,1.8C-53.72,1.2-53.24,1.72-52.92,1.72Zm-1.52-16.84c.4,0,.64-.6.88-1.44a28.388,28.388,0,0,0,.76-4.72c.04-.48.08-1.24.08-1.68,0-.52-.08-.96-.52-.96a5.661,5.661,0,0,0-1.16.08c-.72.16-1,.12-1.6.28-.36.08-.92.24-.92.8a41.971,41.971,0,0,0,1.44,6.24C-55.28-16-54.88-15.08-54.44-15.12Zm40.08,16.8a2.823,2.823,0,0,0,1.12-.24A12.876,12.876,0,0,0-11.28.52,10.889,10.889,0,0,0-8.8-1.56,11.36,11.36,0,0,0-6.88-4.52c.72-1.56,1.2-6,1.28-9,.08-1.84.12-8.04.16-9.76,0-.56.04-1.32.04-1.8,0-.44,0-.72-.56-.72-.28,0-.68.04-1,.04-.52,0-1,.04-1.6.08l-3.16.08c-1.48.04-3,0-4.52,0,.12-1,.28-1.92.36-2.68.08-.68.12-1.16.2-1.6.08-.48.2-.84.08-.96-.12-.24-.48-.24-1.04-.36-.76-.12-1.4-.12-2.2-.24a4.16,4.16,0,0,0-.6-.08.5.5,0,0,0-.44.16c-.12.12-.04.48-.04.96,0,.36-.12,1.04-.16,1.6a40.459,40.459,0,0,1-.64,4.32,19.368,19.368,0,0,1-.96,3.56c-.16.44-.48.88-.32,1.2.04.16.48.24.84.32.64.2,1.4.36,2.08.52a3.818,3.818,0,0,0,1.16.16c.2-.12.32-.72.48-1.2.16-.52.28-1.04.44-1.6,2.48-.04,4.96,0,7.48,0,.04,3.2-.08,7.84-.32,10.76-.16,2-.48,4.52-2.32,6a12.567,12.567,0,0,1-2.52,1.48,16.726,16.726,0,0,1-2.84.88c-.48.12-.92.12-1,.48-.04.24.32.6.64,1a16.48,16.48,0,0,0,2.44,2.28A2.369,2.369,0,0,0-14.36,1.68ZM-32.64-7.6c0-.72-.04-2.88-.08-4.6h6.24c-.04,1.88-.08,4-.12,4.6C-28.6-7.72-30.6-7.6-32.64-7.6Zm9.04,3.84c.76,0,.96-.12.92-.92,0-.56-.08-1.28-.08-1.64,0-1.4,0-3.64.04-5.36.04-2.48.08-3.36.12-5.64,0-.96.08-2.96.12-3.6s.24-1.8.24-2.36c0-.64-.24-.8-.96-.8-.64,0-1.44.12-2.16.12H-33.6c-.8,0-1.56-.12-2.28-.12-1,.04-1.08.04-1.08.76,0,.48.12,1.56.16,2.2.08,1.12.16,2.96.16,4.24.04,1.96.12,4.72.2,7.24,0,1.44-.04,1.92,0,3.52,0,.36-.12,1-.12,1.48.08.72.12.84.88.84,1.92,0,4.36-.2,6.56-.16C-27.28-3.92-25.2-3.76-23.6-3.76Zm-9.16-12c-.04-1.72-.04-3.84-.08-4.52,2.16-.04,4.4-.04,6.56,0,0,.52-.08,2.88-.12,4.52Zm15.32,5.2c.44.16,1-.16,1.4-.32a9.446,9.446,0,0,0,1.56-.92,6.661,6.661,0,0,0,1.4-1.16c.44-.52.92-1,.68-1.32-.2-.28-.64-.24-1.44-.44a16.969,16.969,0,0,1-2-.68,9.3,9.3,0,0,1-2.08-1.12c-.48-.28-1.12-.92-1.52-.6-.16.12-.2.44-.2.8a9.178,9.178,0,0,0,.24,1.28c.16.8.4,1.44.6,2.2a9.063,9.063,0,0,0,.68,1.52A1.615,1.615,0,0,0-17.44-10.56ZM-32.8-24.76c.36.2.96-.2,1.16-.28a11.094,11.094,0,0,0,2.48-1.32,24.665,24.665,0,0,0,2.28-1.76c.44-.32.72-.68.68-.84a2.864,2.864,0,0,0-1-.96,12.007,12.007,0,0,0-3.48-1.48,2.008,2.008,0,0,0-.96-.04c-.36.12-.4.6-.44.88-.2,1.12-.56,2.96-.72,4.48C-32.88-25.56-33.08-24.92-32.8-24.76ZM35.84,1.6c.52,0,.64-.12,1.2-.68a34.509,34.509,0,0,1,2.8-2.12c.28-.2.48-.32.48-.68,0-.2-.2-.32-.76-.6a17.824,17.824,0,0,1-2.64-1.76,18.8,18.8,0,0,1-4.44-5.6A28.39,28.39,0,0,1,30.2-16.8c2.32-.2,4.6-.36,6.84-.52.64-.04,1.2-.12,1.16-.76,0-1.04-.12-2.08-.12-3.16,0-.24.08-1-.32-1a6.272,6.272,0,0,0-1.16.32,28.512,28.512,0,0,1-4.08.88c-.96.12-1.96.24-2.96.32-.16-1.6-.24-3.12-.32-4.64,1.76-.32,3.52-.68,5.12-1.08.48-.12.92-.12,1.08-.6.08-.2-.24-1.04-.28-1.24-.24-.56-.64-1.68-.72-2-.12-.6-.28-1.08-.6-1.08a7.853,7.853,0,0,0-1.88.72,40.968,40.968,0,0,1-11.12,2.28l-2.92.12c-.48.04-.8.04-.8.84,0,.48.08.96.12,1.48.32,5.4.24,6.32.24,11.76v3.2c-.88.16-1.76.28-2.68.4-.28.04-.96.08-.96.32a2.948,2.948,0,0,0,.24,1.08c.36,1.08.64,1.6.84,2.28.04.2.16.84.64.84a3.892,3.892,0,0,0,1.32-.24c2.72-.64,5.92-1.36,8.8-2.2.4-.12.96-.12,1.04-.68a8.681,8.681,0,0,0-.28-1.08c-.08-.44-.16-.92-.28-1.44-.16-.68-.2-1.16-.56-1.2-.32-.08-.88.24-1.2.32-1.08.32-1.92.52-2.88.76l.04-4.24L26-16.4a35.182,35.182,0,0,0,2.84,9.2A32.062,32.062,0,0,0,33.76-.12C34.12.32,35.36,1.56,35.84,1.6ZM28.32-.04c.4,0,.32-.4.4-1,.08-.76.32-2.72.32-3.28,0-.36-.16-.48-.36-.48a1.641,1.641,0,0,0-.44.04,6.991,6.991,0,0,1-.96.12,48.127,48.127,0,0,1-5.4.16c-1.52,0-3-.04-4.52-.04-.56,0-1,0-1.6-.04-.24,0-.48-.04-.72-.04-.32,0-.4.28-.4.76V-.68c0,.36.12.6.4.6a10.406,10.406,0,0,0,1.48-.16c.68-.08,1.44-.12,2.08-.16,1.08-.04,3.96.04,5.04.04a28.35,28.35,0,0,1,3.44.2C27.56-.12,27.92-.04,28.32-.04ZM21.56-20v-4.28c1.16-.12,2.32-.24,3.52-.44.08,1.56.2,2.96.4,4.4C24.16-20.2,22.88-20.12,21.56-20ZM8.64,1.48c1.2,0,2.32.04,3.52,0,.36-.04.84-.16.84-.64a3.523,3.523,0,0,0-.08-.68c-.08-.8-.08-1.56-.12-2.32-.16-3.48-.24-6.6-.32-10.24-.04-3.72-.12-7.44-.12-11.12,1.64-1.92,3-3.56,3.28-3.92a8.366,8.366,0,0,0,1.28-2.08c0-.48-.56-.68-.88-.88-.12-.12-1.04-.84-1.64-1.28-.48-.4-.6-.44-.8-.44-.36,0-.48.08-.72.64A18.42,18.42,0,0,1,9.96-27.2a47.152,47.152,0,0,1-6.04,6.28c-.52.44-1.08.88-1.64,1.32-.16.12-.6.4-.6.64,0,.2.36.4.48.52.84.6,1.64,1.2,2.44,1.84a.916.916,0,0,0,.68.32,1.944,1.944,0,0,0,.88-.56c.64-.56,1.48-1.44,2.44-2.48v9.24c0,2.72-.16,5.32-.28,8.04C8.28-1.36,8.24-.68,8.16,0a8.521,8.521,0,0,0-.12,1C8.04,1.32,8.36,1.48,8.64,1.48Zm45.44.04c.4,0,.84,0,.84-.52a3.523,3.523,0,0,0-.08-.68c-.08-.8-.08-1.56-.12-2.32-.16-3.48-.2-6.96-.28-10.4-.04-3.76,0-7.48,0-11.24,1.08-1.2,2-2.32,2.6-3.04v1.76c0,.4-.16,1.04.44,1.04a8.009,8.009,0,0,0,.96-.16c1.56-.16,3.12-.24,4.68-.28l.08,5.8H61.24c-1-.04-2-.12-2.96-.12-.4,0-.6,0-.6.44,0,.28.04.56.04.84.12,1.24.28,2.48.36,3.72.28,3.68.32,7.32.36,11.04V-1c0,.4-.16.96.44.96a6.012,6.012,0,0,0,.8-.08c.56-.04,1.12-.08,1.68-.08q3.24-.12,6.48-.12c2.88,0,5.68.04,8.56.2.24,0,.8.08,1,.08.56.04.52-.4.56-1.08.04-1.04.04-2.04.08-3.04.12-2.28.28-4.6.4-6.88.04-1.28.12-2.56.28-3.8.12-1.04.12-1.52.24-2.56a5.422,5.422,0,0,0,.08-.8c0-.44-.28-.48-.68-.48-.76,0-1.56.16-2.36.16H73.12l.12-5.8c1.48.08,2.96.12,4.44.2.56.04,1.36.12,1.76.12.36,0,.44-.16.48-.56.12-.68.16-1.2.28-1.88.12-.72.28-1.52.28-1.68,0-.36-.2-.32-.52-.32-.4,0-.84.08-1.24.12-.88.04-1.76.08-2.64.08-2.16.04-4.36.08-6.56.04-2.48-.04-5.24,0-8.84,0-.8,0-1.6-.08-2.4-.12a6.021,6.021,0,0,0,.4-.68.881.881,0,0,0,.2-.64c-.04-.32-.36-.56-.8-.84-.56-.4-1.32-.92-2.08-1.4-.28-.2-.28-.24-.56-.24-.36,0-.48.4-.56.64a18.42,18.42,0,0,1-2.92,4.28,47.153,47.153,0,0,1-6.04,6.28c-.52.44-1.08.88-1.64,1.32-.16.12-.6.4-.6.64,0,.2.36.4.48.52.84.6,1.64,1.2,2.44,1.84a.916.916,0,0,0,.68.32c.16,0,.4-.16.72-.44.64-.56,1.56-1.48,2.6-2.6,0,3.08-.04,6.16-.04,9.24,0,2.72-.16,5.48-.28,8.2-.04.68-.08,1.36-.16,2.04A6.069,6.069,0,0,0,50,1c0,.32.16.48.44.48ZM61.8-3.76c-.12-3.8-.08-7.64-.32-11.48h2.16L63.8-3.8C63.12-3.76,62.48-3.76,61.8-3.76Zm5.16-.04-.08-11.44h2.44L69.12-3.8Zm7.36.08-2-.04.24-11.44h2.48C74.76-11.32,74.68-7.56,74.32-3.72Zm-7.44-14.8-.04-5.88h2.64l-.12,5.88Zm27,20c1.08,0,2.2-.04,3.32-.04.4,0,.84.08.84-.44,0-.4-.08-.8-.08-1.2V-14.76l1.96,1.24-.28.08c-.24.08-.6.16-.6.4s.28.52.4.68c.6.76,1.16,1.36,1.68,2.04.16.2.48.72.84.72a2.534,2.534,0,0,0,1.12-.4c.08,1.08.2,2.2.28,3.28.16,1.6.24,3.2.28,4.8,0,.2.08,1.12.08,1.68.04.6.12.76.6.76.6,0,1.2-.12,1.8-.16C107.56.28,109.6.32,111,.32c2.24,0,4.44.2,6.64.32.96,0,.92-.16.96-.96.08-.72.16-1.48.2-2.24.16-1.96.32-3.96.56-5.92.08-.6.2-1.28.32-1.96.2.12.4.24.56.36.28.16.44.32.76.28s.44-.4.64-.64a18.731,18.731,0,0,1,1.96-2.32c.24-.28.56-.48.56-.88,0-.28-.4-.4-1.04-.68a30.407,30.407,0,0,1-3.16-1.44c-1.92-1.08-3.68-2.24-5.4-3.44,1.2-1.4,2.24-2.84,3.36-4.32.28-.36,1.28-1.44,1.28-1.84,0-.44-.96-1-1.44-1.32a58.742,58.742,0,0,1-4.84-3.64,20.348,20.348,0,0,1-1.84-1.64c-.48-.48-.76-.76-1.12-.76-.32,0-.52.64-.64.88a29.5,29.5,0,0,1-4.44,6A19.138,19.138,0,0,1,101.52-23c.12-.88.28-2.08.28-2.52,0-.28-.12-.36-.36-.36-.36,0-.72.08-1.08.08L98-25.68c.04-1.72.16-3.4.24-5.12a2.7,2.7,0,0,0,.08-.56c0-.56-.44-.56-.88-.56H94.48c-.4,0-.64,0-.64.48,0,.28.08.64.08.92,0,1.68.04,1.72.04,3.4L94-25.64l-3.76.04c-.52,0-1.08-.08-1.6-.08-.6,0-.44.52-.44,1v2.8c0,.36.08.56.44.56.24,0,.48-.08.72-.08.72-.08,1.4-.12,2.08-.16.72-.04,1.36-.08,2.04-.08l-2.76,4.56c-1,1.72-2.2,3.36-3.24,5.08-.16.24-.76,1-1.16,1.64a2.716,2.716,0,0,0-.52.8c.04.36.36.6.6.8L88.44-7c.2.2.44.48.76.48.24,0,.4-.52.52-.68,1.36-2.76,2.92-5.4,4.4-8.08-.04,1.32-.12,2.68-.16,4.04,0,1.6-.08,3.24-.16,4.84-.08,2.36-.16,4-.32,6.36,0,.2-.12,1-.12,1.2C93.36,1.48,93.6,1.48,93.88,1.48Zm21.4-4.72c-1.36-.08-2.84-.12-4.2-.12s-2.64.04-3.96.08c-.12-1.68-.2-3.32-.32-4.96,1.04-.04,3.36-.04,4.36-.04,1.92,0,2.6-.04,4.48.04ZM101.28-14c.2-.44.6-1.24.88-1.88a9.317,9.317,0,0,0,.36-.92c0-.32-.6-.44-.84-.56-.96-.4-1.32-.56-2.28-1.04l-1.44-.76v-2.48H99c.64.04,1.32.12,1.96.12a.62.62,0,0,0,.32-.08c.32.32,1,1.08,1.56,1.6.36.32.48.6.8.6.24,0,.72-.48.92-.64l1.52-1.44c1,.88,2,1.76,3,2.6a28.538,28.538,0,0,1-6.08,4.2C102.76-14.56,102.04-14.28,101.28-14Zm12.2,2.24c-1.6,0-3.08-.04-4.8-.04-.76,0-1.52-.04-2.28-.08a25.47,25.47,0,0,0,5.64-4.52l4.92,3.96c.24.2.52.4.8.6C116.32-11.8,114.92-11.76,113.48-11.76Zm-1.96-9.68c-1.04-.8-2.08-1.64-3.12-2.48a30.376,30.376,0,0,0,2.28-2.92c1.04.88,1.88,1.48,3,2.28A28.779,28.779,0,0,1,111.52-21.44Z" transform="translate(-9527.88 -3993.982)" fill="#eb3e2f"/><path d="M-56.32.08c.32,0,.64-.56.8-.8a20.575,20.575,0,0,0,1.28-1.96,26.8,26.8,0,0,0,2.6-5.76l.72.8c.52.56,1,1.16,1.56,1.68.16.2.44.56.72.56a1.6,1.6,0,0,0,.68-.48c.64-.64,1.52-1.6,1.8-1.88.2-.16.52-.4.52-.68,0-.16-.44-.44-.56-.52a50.512,50.512,0,0,1-4.52-3.8c.08-.56.12-1.16.2-1.76.72,0,1.44.04,2,.08.64.08,1.32.08,2,.2a2.361,2.361,0,0,0,.56.08c.36,0,.36-.6.36-.88.08-.8.12-1.64.2-2.44a5.421,5.421,0,0,0,.08-.8c0-.28-.12-.36-.4-.36-.4,0-.96.16-1.72.2-.64,0-1.88.04-2.88.08.08-1.88.08-3.8.12-5.6.72.04,1.44.08,2.12.16a4.924,4.924,0,0,0,.8.08c.36,0,.36-.44.4-.92.08-.8.2-1.6.32-2.4a3.5,3.5,0,0,0,.08-.64c0-.28-.12-.32-.36-.32-.2,0-.4.04-.6.04a26.028,26.028,0,0,1-3.08.16c-1.48,0-2.92,0-4.36.04.08-.96.2-1.72.2-2.04a7.435,7.435,0,0,0,.16-1.32c0-.68-.44-.6-.96-.6-.8-.04-1.6-.16-2.4-.16-.32,0-.6.04-.6.4,0,.44.08.88.08,1.36a31.552,31.552,0,0,1-.52,4.72,15.437,15.437,0,0,1-.8,2.96,5.562,5.562,0,0,0-.48,1.28c0,.36.72.4.96.44a21.19,21.19,0,0,0,2.4.48c.36,0,.52-.32.64-.6a17.716,17.716,0,0,0,.72-3.08h1.24c0,1.84,0,3.68-.08,5.56-.6-.04-1.2-.04-1.84-.04-.88,0-1.8-.04-2.72-.12-.28,0-.72-.08-1-.08-.44,0-.36.88-.36,1.28v2.68c0,.32.12.44.44.44a7.241,7.241,0,0,0,.92-.12c1.52-.16,2.88-.2,4.28-.24-.04.48-.12.92-.16,1.36a17.7,17.7,0,0,1-1.76,5.68,22.133,22.133,0,0,1-2.92,4.4c-.24.28-.96.96-.96,1.28,0,.36.76.52,1,.6C-58.88-1.04-56.64.08-56.32.08Zm7.28.36A10.782,10.782,0,0,0-47.92.28,10.911,10.911,0,0,1-45.96,0c1.12-.12,2.28-.24,3.36-.28,2.52-.08,5.04-.16,7.56-.16,3.08,0,6.28.28,9.28.56l1,.08c.48.04.72.12,1.08.12.28,0,.28-.32.36-.84.08-.68.16-1.48.28-2.2.08-.56.2-1.08.2-1.32,0-.32-.12-.44-.4-.44a3.109,3.109,0,0,0-.64.08,12.432,12.432,0,0,1-1.72.12c-1.8.12-3.64.2-5.44.2l1.84-3.64c.16-.32.48-.88.68-1.2s.28-.44.28-.64c-.04-.2-.68-.36-.84-.4-.76-.2-1.76-.48-2.56-.72a6.068,6.068,0,0,0-.84-.12c-.32,0-.36.08-.52.56-.68,2.08-1.64,4.12-2.44,6.16h-2C-38-6.04-38.48-7.96-39-9.92a2.46,2.46,0,0,1-.12-.44c-.08-.24-.12-.32-.32-.32a3.153,3.153,0,0,0-.92.16l-2.44.72c-.16.04-.72.2-.72.4,0,.24.12.36.24.64.12.24.24.52.4.8.56,1.44.88,2.6,1.32,3.92H-44.8c-.92,0-1.92,0-2.84-.08-.44-.04-.88-.12-1.28-.12-.44,0-.48.2-.48.68V-.44C-49.4-.16-49.48.4-49.04.44ZM-28.4-11.6c.52,0,.56-.32.6-.8l.44-5.2c.08-.88.2-1.72.28-2.56.04-.28.12-.6.2-.92a2.988,2.988,0,0,0,.12-.8c-.04-.28-.36-.32-.6-.32-.44,0-1.28.08-1.72.08h-5.04c-2.92,0-5.84-.04-8.76-.04-.52,0-1.04-.08-1.6-.08-.36,0-.36.04-.36.2,0,.48.16,1.24.2,1.72.12,1,.2,2.04.24,3.04.12,1.4.2,2.24.2,3.64.04.6.04,1.2.04,1.8,0,.24.28.2.52.2.88,0,1.76-.08,2.64-.12,1.36-.08,2.72-.08,4.08-.08,2.04,0,4.12.08,6.12.16C-30.04-11.68-29.16-11.6-28.4-11.6Zm-11.96-3.72c-.08-1.32-.08-1.92-.16-3.24,3.2.04,6.24.04,9.44.04-.16,1.24-.2,1.88-.4,3.16C-34.4-15.4-37.4-15.4-40.36-15.32ZM-45-25.08a8.245,8.245,0,0,0,1.04-.12l2.84-.12c1.56-.08,3.08-.08,4.6-.08,2.56,0,5.12,0,7.64.16.6,0,1.44.12,1.84.12.36-.04.36-.4.4-.88.12-.76.28-1.76.36-2.56a9.951,9.951,0,0,0,.12-1.04c0-.24-.12-.24-.4-.24a12.113,12.113,0,0,0-1.24.08c-.88.08-1.76.08-2.64.12-3.76.16-7.6,0-11.36,0-1.04,0-2.04-.12-3.08-.12-.44,0-.36.36-.36.64-.04.92,0,2.88,0,3.12S-45.32-25.08-45-25.08ZM1.2,1.48c.6,0,.92,0,.92-.6.08-.8.08-2.84.12-4.92.04-2.64,0-5.36,0-5.8.32.44.64,1,.96,1.44.28.32.4.56.68.56.2,0,.44-.24.72-.6a22.194,22.194,0,0,0,2.44-4.12c.28.4,1.6,2.68,2.52,3.92.36.48.52.8.8.8.24,0,.4-.32.72-.64.4-.44.84-1,1-1.16l-.04,4.08c-.04,2.12,0,4.24,0,6.32,0,.56.04.72.68.72.84,0,1.76-.04,2.6-.04.64,0,.84.04.88-.32,0-.32-.04-.88-.08-1.2-.08-.8-.08-1.64-.12-2.44-.12-2.16-.04-4.36-.08-6.52-.08-3.76-.12-7.56-.12-11.36,0-.76,0-1.52.04-2.28.04-.4.08-1,.08-1.4,0-.48.04-.6-.52-.6-.64,0-1.32.04-1.96.08-1.36.08-2.72.04-4.12.04.08-1.56.08-3.16.16-4.72.04-.64.12-1.48.12-2.16,0-.4-.28-.44-.64-.44h-3c-.28,0-.44.24-.44.68,0,1.28.2,2.52.2,3.84,0,.92.04,1.84,0,2.8H3.92c-1.32,0-2.64,0-3.92-.12-.44-.04-.84-.08-1.28-.08-.4,0-.44.2-.44.52,0,.48.12,1.04.12,1.56.16,3.68.16,7.4.16,11.12,0,3.12-.24,6.2-.4,9.36-.08.72-.12,1.48-.2,2.24a8.446,8.446,0,0,0-.08,1.04c0,.32.32.32.6.32C-.6,1.44.88,1.48,1.2,1.48ZM-13.84-2.56c.28,0,.52-.44.72-1.08a26.214,26.214,0,0,0,.76-5.44c0-.16.04-.8-.24-.8-.2,0-.72.48-.92.64a40.683,40.683,0,0,1-3.52,2.28c-.28.12-.88.28-.88.68a2.193,2.193,0,0,0,.56.92,12.458,12.458,0,0,0,2.48,2.32A1.764,1.764,0,0,0-13.84-2.56ZM-5-4a1.418,1.418,0,0,0,.64-.24A12.913,12.913,0,0,0-2-6.24a.546.546,0,0,0,.16-.44A2.129,2.129,0,0,0-2.6-7.72,17.732,17.732,0,0,0-5.36-9.88a2.613,2.613,0,0,0-1.04-.48c-.16,0-.2.2-.2.32a7.792,7.792,0,0,0,.12,1.08,45.032,45.032,0,0,0,1,4.56C-5.4-4.2-5.28-4-5-4Zm-5.48,5.4H-8.4c.72,0,1.12.12,1.12-.76,0-2-.16-4.08-.16-6.08,0-2.04-.04-3.96-.04-6.04,1.08,0,2.12.04,3.16.08h1.56c.4,0,.8-.12.8-.6a7.716,7.716,0,0,0-.32-1.28c-.6-1.88-1.64-5.16-1.84-5.4a.61.61,0,0,0-.48-.28,15.294,15.294,0,0,0-1.76.36c-.24.04-.84.12-.84.44,0,.08.16.4.28.8.28.8.72,1.96.8,2.36H-10.6c2-2.08,3.96-4.24,5.92-6.4.4-.44.84-.8,1.24-1.24.2-.2.64-.56.64-.88,0-.12-.2-.36-.56-.76A15.042,15.042,0,0,0-5-25.8c-.36-.36-.56-.56-.72-.56-.24,0-.52.44-.64.64A17.787,17.787,0,0,1-7.64-23.8Q-8.96-22-10.4-20.2c-.56-.6-1.08-1.2-1.68-1.8,1.76-2,3.88-4.04,5.8-5.96.28-.28.72-.48.72-.92,0-.36-.36-.56-.72-.92-.32-.36-1.04-.88-1.68-1.44-.32-.24-.56-.44-.76-.44-.32,0-.52.64-.64.84-.36.56-.76,1.12-1.16,1.64a41.358,41.358,0,0,1-5.08,5.52c-.36.32-1.04.72-1.04,1.28,0,.32.52.8.72,1.04,1.08,1.28,2.12,2.64,3.16,3.96-.72.84-1.44,1.64-2.2,2.48-.56.64-1.08,1.4-1.68,2.08-.24.32-.68.64-.6,1.2s.56.52,1,.52c.28,0,.56-.04.84-.04,1.36-.12,2.76-.2,4.16-.24v1.8c0,1.36,0,2.76-.04,4.12-.04,1.8-.12,3.64-.2,5.44,0,.32-.08.64-.08.96C-11.48,1.48-10.96,1.4-10.48,1.4ZM2.24-12.28v-8.44c1.16-.04,2.16,0,3.28,0a19.725,19.725,0,0,1-1.8,6.4A11.236,11.236,0,0,1,2.24-12.28Zm9.84.04a51.648,51.648,0,0,1-3.64-4.64,25.643,25.643,0,0,0,.64-3.84h3ZM27.52,1.52c.36,0,.6-.4.84-.6a56.051,56.051,0,0,0,4-4.2,18.3,18.3,0,0,0,1.2-1.6,1.279,1.279,0,0,0,.32-.68c0-.16-.36-.56-.8-.96A14.336,14.336,0,0,0,31.76-7.6c.88-.04,1.76-.04,2.64-.04,1,0,2,0,2.96.04L36.24-6.52c-.36.36-.72.64-.72.88a3.3,3.3,0,0,0,.64,1.08A27.747,27.747,0,0,0,40.48-.4c.44.36.6.56.96.56.28,0,.44-.32.6-.52.32-.44.52-.8.76-1.12l2,.92a7.048,7.048,0,0,0,1.16.52c.48,0,.68-.48.88-.84,1.76-2.76,2.6-7.16,2.84-10.72l4.36-.04C54.04-9,54-6.08,54-3.52c0,1.16-.08,2.36-.16,3.52,0,.32-.12.64-.12.96,0,.48.44.48.84.48a32.124,32.124,0,0,0,3.4,0c.6,0,.84,0,.84-.4,0-.32-.12-1.08-.16-1.4-.12-.92-.2-1.72-.24-2.6-.2-2.36-.36-4.76-.44-7.12-.16-5.16-.28-10.28-.28-15.44,0-1.48.08-2.96.08-4.4,0-.56,0-.8-.6-.8-.36,0-.72.08-1.08.08q-2.16.12-4.32.12c-1.6,0-3.24,0-4.84-.12-.32,0-.64-.04-1-.04-.4,0-.64.08-.64.56a7.868,7.868,0,0,0,.12.96c.08.72.12,1.4.2,2.12.28,4,.36,8.04.36,12.08a20.617,20.617,0,0,1-2.4,10.2c-.24.36-.52.72-.8,1.08a15.936,15.936,0,0,1-2.16-1.6,25.22,25.22,0,0,1-2.32-2.28c1.12,0,2.28.04,3.44.12.6,0,1.4.16,2,.16.24,0,.32-.4.4-.92.16-1,.44-2.56.44-3,0-.28-.12-.44-.4-.44a4.719,4.719,0,0,0-.8.16c-.6.04-1.32.12-2,.16v-5.04c0-2.68,0-5.32-.04-8h1a10.842,10.842,0,0,0,1.6.16c.48-.04.48-.36.52-.88.08-.8.2-1.72.36-2.56.08-.4-.12-.52-.52-.52-.56,0-1.12.16-1.68.16H41.36c.04-.68.12-1.4.16-2.08.04-.4.16-.8.16-1.2,0-.6-.52-.6-1-.6H38.16c-.36,0-.76,0-.76.48,0,.52.08,1.08.12,1.64.04.6.04,1.2.04,1.8H32.68c0-1.08.12-2.16.12-3.24,0-.64-.32-.68-.88-.68H29.48c-.4,0-.76,0-.76.48,0,.56.04,1.16.08,1.72s.08,1.16.08,1.72c-.52,0-1.08,0-1.6-.04-.44,0-.88-.08-1.32-.08-.6,0-.52.32-.52.76V-25c0,.64-.08.84.44.88.76.04,1.96-.12,3.08-.16v13.04c-1.4,0-2.68-.08-4.04-.08-.4,0-.56.08-.56.52,0,.96.04,1.88.04,2.84,0,.36,0,.72.48.72.64,0,1.28-.16,1.88-.2C28.2-7.52,29.6-7.6,31-7.6A17.037,17.037,0,0,1,29.04-5a19.218,19.218,0,0,1-3.36,2.84,4.276,4.276,0,0,1-.76.48c-.32.16-.6.36-.6.52,0,.2.24.4.72.76.52.4,1.2,1,1.6,1.32C26.84,1.08,27.24,1.52,27.52,1.52Zm5.16-12.76-.04-2.24h4.92v2.24Zm-.04-5.4V-18.8h4.92v2.16Zm0-5.52v-2.2l4.92.04v2.16Zm17.08,6.8c0-1.2-.04-2.44-.04-3.64h4.24c.04,1.2.08,2.44.08,3.64Zm-.16-7.44c-.04-1.32-.12-2.64-.16-3.96h4.36c0,1.36.04,2.68.04,3.96Z" transform="translate(-9310.88 -3993.982)" fill="#eb3e2f"/><path d="M.04-11.64a3.394,3.394,0,0,0,3.52-3.48A3.475,3.475,0,0,0,.04-18.64a3.427,3.427,0,0,0-3.52,3.52A3.442,3.442,0,0,0,.04-11.64Z" transform="translate(-9388.88 -3993.982)" fill="#eb3e2f"/><path d="M-117.88-1.88c.72,0,.72-.12.88-.72.24-.88.44-2,.68-2.88a5.7,5.7,0,0,0,.2-.8c0-.12-.08-.4-.2-.44-.36-.04-.52,0-1.08-.04-.72-.04-1.56-.08-1.8-.12a17.5,17.5,0,0,1-7.48-2.24,4.48,4.48,0,0,1-2.24-4,6.688,6.688,0,0,1,2.72-5.32,19.688,19.688,0,0,1,9.4-4.44,17.445,17.445,0,0,1,2.04-.12c.28-.04.92-.04,1.44-.04.56.04,1-.12,1-.52a4.215,4.215,0,0,0-.2-1.04c-.28-.88-.52-1.92-.68-2.52-.16-.48-.28-.96-.68-.96a7.868,7.868,0,0,0-.96.12,24.876,24.876,0,0,1-2.88.4c-3.24.28-6.44.48-9.64.68-3.08.2-6.12.48-9.2.48-.64,0-1.24-.04-1.84-.04-.44-.04-.88-.12-1.32-.12-.56,0-.6.48-.6.96v3.12c0,.4.12.68.56.68a5.742,5.742,0,0,0,1.44-.28,35.184,35.184,0,0,1,4.12-.56c3.12-.28,6.24-.6,9.36-.84-.8.44-1.6.92-2.36,1.44-3.12,2.16-5.64,5.24-5.64,8.84,0,6.84,5.76,9.52,11.48,10.72A21.874,21.874,0,0,0-117.88-1.88Zm.84-12.16c.12,0,.28-.16.44-.32a10.162,10.162,0,0,1,.8-.92,1.028,1.028,0,0,0,.28-.48c0-.24-.36-.56-.6-.8a17.989,17.989,0,0,0-1.52-1.4c-.48-.44-1-.84-1.44-1.2-.28-.2-.52-.4-.64-.36-.2,0-.32.16-.52.32-.16.2-.52.48-.76.72-.12.12-.24.24-.2.36,0,.2.28.24.6.52a18.642,18.642,0,0,1,1.4,1.28c.44.44,1.12,1.2,1.6,1.76C-117.36-14.28-117.2-14.04-117.04-14.04Zm3.48-2.48c.12,0,.28-.12.44-.32.28-.32.56-.68.8-.92.16-.2.28-.32.28-.48,0-.24-.36-.52-.56-.76a18.952,18.952,0,0,0-1.56-1.44c-.48-.44-1-.84-1.44-1.2-.28-.2-.52-.4-.64-.36-.2,0-.32.16-.52.32-.16.2-.52.48-.76.72-.12.12-.24.24-.2.36,0,.2.28.24.6.52a18.644,18.644,0,0,1,1.4,1.28c.44.44,1.12,1.24,1.6,1.76C-113.88-16.76-113.72-16.52-113.56-16.52ZM-90.6-.72c2.44,0,4-1.4,4-3.88,0-1.08,0-2.16-.04-3.24,0-1.16-.12-2.28-.12-3.44a22.7,22.7,0,0,1,8.08-2.04c2.84,0,4.56,1.52,4.56,4.4a3.329,3.329,0,0,1-3.44,3.56c-2.52,0-3.36-2.04-3.44-4.2,0-.32-.08-.64-.36-.64a2.847,2.847,0,0,0-.84.28,17.264,17.264,0,0,0-1.88.88c-.28.16-.8.36-.8.68a4.965,4.965,0,0,0,.12,1.08,8.569,8.569,0,0,0,2.08,4,6.749,6.749,0,0,0,4.96,1.92,7.69,7.69,0,0,0,5.4-2.16A7.087,7.087,0,0,0-70.2-9.04c0-5.08-3.8-7.68-8.56-7.68A24.022,24.022,0,0,0-86.92-15v-5.28a47.315,47.315,0,0,0,5.24-1.08c.36-.12.56-.2.56-.64a2.834,2.834,0,0,0-.04-.56L-81.4-25c-.08-.4-.08-.8-.32-.8a1.758,1.758,0,0,0-.88.28,16.8,16.8,0,0,1-4.16,1.32c.08-.68.04-1.36.12-2.04.08-1.08.12-2.16.24-3.2a2.834,2.834,0,0,0,.04-.56c0-.48-.36-.48-.72-.48h-3.16c-.4,0-.6.08-.6.52a5.522,5.522,0,0,0,.12.8c0,.48.04.96.04,1.4,0,1.36.04,2.68.04,4-.4,0-.8.04-1.2.04a33.294,33.294,0,0,1-4.44-.4c-.24,0-.48-.08-.72-.08-.2,0-.32.04-.36.24a28.087,28.087,0,0,0-.28,3.16c0,.32.08.4.4.48a37.706,37.706,0,0,0,4.56.4c.76,0,1.36-.04,2.08-.08v6.36a18.9,18.9,0,0,0-2.2,1.12,22.47,22.47,0,0,0-3.72,2.84A4.374,4.374,0,0,0-98.04-6.8a4.839,4.839,0,0,0,1.48,3.12A9.238,9.238,0,0,0-90.6-.72ZM-91.2-5a3.277,3.277,0,0,1-1.72-.64,1.675,1.675,0,0,1-.8-1.2A1.946,1.946,0,0,1-93-8.04a9.054,9.054,0,0,1,2.48-1.64c0,1,.04,2,.04,2.92a9.053,9.053,0,0,1-.04,1C-90.56-5.36-90.72-5-91.2-5Zm20.72-12c.16,0,.28-.16.44-.44a14.95,14.95,0,0,0,1.12-2.08,2.754,2.754,0,0,0,.24-.72c0-.12-.2-.32-.56-.52a43.909,43.909,0,0,0-8.48-3.48,2.329,2.329,0,0,0-.56-.12c-.2,0-.32.28-.44.48-.2.36-.72,1.24-1.08,2a2.165,2.165,0,0,0-.24.64c0,.12.2.2.44.28a4.9,4.9,0,0,1,.64.16,26.19,26.19,0,0,1,3.52,1.24c1.64.72,2.68,1.48,4.28,2.28A2.448,2.448,0,0,0-70.48-17ZM-55.96,1.08c.4,0,.96-.88,1.24-1.36a24.785,24.785,0,0,0,3.2-8.48,70.214,70.214,0,0,0,.76-10.84h9.6c3.16,0,6.32-.08,9.48.04.48.04,1.48.12,2,.12a.884.884,0,0,0,.76-.24c.32-.28.36-1.84.4-2.28.16-1.76.48-4.08.68-5.84a19.75,19.75,0,0,0,.4-2.12c0-.56-.48-.56-.92-.56-1.56,0-3.08.08-4.6.12-5.2.12-10.4.04-15.6.04-1.92,0-3.56,0-5.44-.12-.2,0-.4-.04-.6-.04-.32,0-.64.08-.6.44.08.88.24,1.88.24,2.84,0,2.2.16,4,.2,6.68.08,4.72-.04,8.6-1.44,12.96a15.217,15.217,0,0,1-2.96,5.12c-.2.2-1,.88-1,1.16,0,.24.8.56,1,.64.36.2,1.28.72,2.04,1.12C-56.64.76-56.28,1.08-55.96,1.08Zm11.12-3.64-.08-3.04h4.84c0,1-.04,2-.04,3.04Zm-.24-6.24c-.04-1-.08-2-.16-3h5.12c0,1,0,1.96.04,3Zm8.8,6.2-.04-3h4.6l-.12,3ZM-47.64,1c.52,0,1.24-.12,1.88-.12,3,0,6-.08,9-.08,1.96,0,3.88.04,5.8.04.68,0,1.32.12,2,.12.56,0,.44-.36.48-.84.2-2.28.2-4.72.32-7.28.12-2.4.32-4.84.56-7.24,0-.24.04-.48.04-.72,0-.36-.16-.4-.44-.4-1,0-2.04.16-3.04.2-1.88.08-3.48.08-5.2.08a5.633,5.633,0,0,0,.04-.8c.04-.76.2-1.64.2-2.28-.04-.56-.32-.52-.84-.52h-2.6c-.48,0-.96-.12-.96.44,0,.64.12,1.24.16,1.88.04.4.04.84.08,1.28h-4.48q-1.74,0-3.48-.12a3.109,3.109,0,0,0-.64-.08.336.336,0,0,0-.36.36c0,.56.16,1.16.2,1.72.12,1.88.36,3.76.44,5.68.12,2.64.32,6.32.4,7.88C-48.08.64-48.12.96-47.64,1Zm11.36-9.8v-3c1.6-.04,3.2-.04,4.84-.04-.08,1.04-.12,2.04-.16,3.04ZM-50.76-23.08c0-1.12,0-2.24-.04-3.32,2.76-.04,5.56-.04,8.32-.04,3.36,0,6.72-.04,10.08.04a22.767,22.767,0,0,1-.32,3.32c-3.72-.04-7.44-.04-11.16-.04C-46.16-23.12-48.44-23.12-50.76-23.08ZM2.44.8C2.96.8,3.52.24,3.88-.08c4-3.16,5.16-7.52,5.16-12.4,0-1.8-.12-3.6-.16-5.4a56.5,56.5,0,0,0,6.52-.56c.68-.12.8-.36.84-1.04.04-.96.16-1.96.16-2.92,0-.28-.04-.76-.4-.76a1.918,1.918,0,0,0-.68.2,24.454,24.454,0,0,1-6.6,1.04c-.04-2,.08-4.04.2-6.04a19.342,19.342,0,0,0,.24-2c0-.4-.56-.56-.84-.56l-3.16.04c-.44,0-1,0-1,.6s.16,1.2.2,1.8c.16,2.2.16,4.32.2,6.44-1,0-2,.04-3,.04-1.24,0-2.52-.08-3.84-.2-.44-.04-1-.16-1.52-.24-.32-.04-.64-.12-.88-.12-.48,0-.44.6-.48.92a30.234,30.234,0,0,0-.28,3.28c0,.4.16.48.6.48.56,0,1.12-.08,1.72-.08,2.6,0,5.24-.08,7.84-.16.12,1.64.16,3.28.16,4.92,0,2.88-.28,5.6-2.36,7.8A25.587,25.587,0,0,1-.88-2.24c-.2.12-.6.44-.6.68,0,.16.28.48.72.72C.04-.36.72.12,1.56.52A2.522,2.522,0,0,0,2.44.8ZM-9.32-1.6a.9.9,0,0,0,.6-.32,33.793,33.793,0,0,0,4.04-7,3.166,3.166,0,0,0,.24-1,2.287,2.287,0,0,0-.52-.8,9.563,9.563,0,0,0-.88-.92c-.24-.24-.32-.36-.6-.36-.28-.04-.44.44-.64.76-.52.84-1.08,1.8-1.76,2.72-.08-1.6-.12-3.24-.12-4.84a49.987,49.987,0,0,1,1-10.36c.2-.96.36-1.96.56-2.92a5.785,5.785,0,0,0,.2-1.2c0-.56-.6-.56-1.04-.56-.76,0-1.72-.16-2.48-.16-.68,0-.88.08-1,.72-.12.8-.24,2.16-.28,2.64-.36,4.16-.8,8.36-.8,12.56,0,1.36.12,8.44.64,9.2a2.007,2.007,0,0,0,.56.6,12.5,12.5,0,0,0,1.48.92A2.7,2.7,0,0,0-9.32-1.6Zm59.84-.28c.72,0,.72-.12.88-.72.24-.88.44-2,.68-2.88a5.7,5.7,0,0,0,.2-.8c0-.12-.08-.4-.2-.44-.36-.04-.52,0-1.08-.04-.72-.04-1.56-.08-1.8-.12a17.5,17.5,0,0,1-7.48-2.24,4.48,4.48,0,0,1-2.24-4,6.688,6.688,0,0,1,2.72-5.32,19.688,19.688,0,0,1,9.4-4.44A17.445,17.445,0,0,1,53.64-23c.28-.04.92-.04,1.44-.04.56.04,1-.12,1-.52a4.214,4.214,0,0,0-.2-1.04c-.28-.88-.52-1.92-.68-2.52-.16-.48-.28-.96-.68-.96a7.868,7.868,0,0,0-.96.12,24.876,24.876,0,0,1-2.88.4c-3.24.28-6.44.48-9.64.68-3.08.2-6.12.48-9.2.48-.64,0-1.24-.04-1.84-.04-.44-.04-.88-.12-1.32-.12-.56,0-.6.48-.6.96v3.12c0,.4.12.68.56.68a5.742,5.742,0,0,0,1.44-.28,35.184,35.184,0,0,1,4.12-.56c3.12-.28,6.24-.6,9.36-.84-.8.44-1.6.92-2.36,1.44-3.12,2.16-5.64,5.24-5.64,8.84,0,6.84,5.76,9.52,11.48,10.72A21.874,21.874,0,0,0,50.52-1.88Zm.84-12.16c.12,0,.28-.16.44-.32a10.16,10.16,0,0,1,.8-.92,1.028,1.028,0,0,0,.28-.48c0-.24-.36-.56-.6-.8a17.989,17.989,0,0,0-1.52-1.4c-.48-.44-1-.84-1.44-1.2-.28-.2-.52-.4-.64-.36-.2,0-.32.16-.52.32-.16.2-.52.48-.76.72-.12.12-.24.24-.2.36,0,.2.28.24.6.52a18.642,18.642,0,0,1,1.4,1.28c.44.44,1.12,1.2,1.6,1.76C51.04-14.28,51.2-14.04,51.36-14.04Zm3.48-2.48c.12,0,.28-.12.44-.32.28-.32.56-.68.8-.92.16-.2.28-.32.28-.48,0-.24-.36-.52-.56-.76a18.95,18.95,0,0,0-1.56-1.44c-.48-.44-1-.84-1.44-1.2-.28-.2-.52-.4-.64-.36-.2,0-.32.16-.52.32-.16.2-.52.48-.76.72-.12.12-.24.24-.2.36,0,.2.28.24.6.52a18.643,18.643,0,0,1,1.4,1.28c.44.44,1.12,1.24,1.6,1.76C54.52-16.76,54.68-16.52,54.84-16.52ZM86.24.84A29.993,29.993,0,0,0,90.32.52C91.08.36,91.36.24,91.4-.52c.08-1.04.28-2.72.28-3.08s-.04-.52-.44-.52a5.291,5.291,0,0,0-.96.16c-.56.12-1.24.28-1.68.32a31.093,31.093,0,0,1-3.88.24,18.375,18.375,0,0,1-6.04-1c-1.2-.52-2.08-1.24-2.08-2.28a2.127,2.127,0,0,1,.96-1.84,5.649,5.649,0,0,1,3-.72,22.546,22.546,0,0,1,9.24,2.2,9.757,9.757,0,0,1,.92.64,1.331,1.331,0,0,0,.76.36c.2,0,.68-.44.84-.6.48-.44,1.16-1.2,1.6-1.68.28-.32.52-.56.52-.8,0-.2-.4-.48-.72-.72a9.5,9.5,0,0,1-1-.8,18.729,18.729,0,0,1-3.76-5.4c2-.44,6.16-1.44,7.68-2,.44-.16.72-.24.72-.8a7.458,7.458,0,0,0-.16-1.12l-.32-1.6c-.04-.32-.08-.92-.4-.92a1.829,1.829,0,0,0-.84.36,11.67,11.67,0,0,1-1.24.56,37.13,37.13,0,0,1-7,2.04l-.96-2.52c.68-.16,4.56-1.04,6.12-1.64.44-.16.76-.2.76-.6a10,10,0,0,0-.2-1.16l-.32-1.88c-.04-.28-.12-.76-.44-.76a1.576,1.576,0,0,0-.56.2c-.4.2-.84.48-1.04.56a21.726,21.726,0,0,1-5.44,1.8c-.56-1.76-.88-3.52-1.32-5.32-.04-.2-.12-.64-.28-.76a.593.593,0,0,0-.28-.04,32.924,32.924,0,0,0-3.4.88c-.24.08-.48.2-.48.48a12.456,12.456,0,0,0,.48,1.2c.56,1.36,1,2.76,1.48,4.16-.8.04-1.6.12-2.4.12a19.2,19.2,0,0,1-3.4-.32,5.522,5.522,0,0,0-.8-.12c-.36,0-.4.36-.44.72-.04.64-.12,2.08-.12,2.68,0,.4.08.52.48.56a22.607,22.607,0,0,0,3.08.16,38,38,0,0,0,4.76-.28l.96,2.52a51.077,51.077,0,0,1-5.52.32,36.209,36.209,0,0,1-4.16-.2c-.36-.04-.96-.2-1.44-.28a2.954,2.954,0,0,0-.48-.08c-.4,0-.4.6-.4.88-.08.56-.16,1.24-.2,1.88-.04.48-.04.92-.04,1.2.04.48.36.4.76.44,1.04.12,3,.12,3.48.12a59.239,59.239,0,0,0,9.56-.76,23.285,23.285,0,0,0,2.16,3.92,17.478,17.478,0,0,0-6.24-1.2,11.742,11.742,0,0,0-5.96,1.44A4.985,4.985,0,0,0,72.8-6.8,5.72,5.72,0,0,0,74.12-3a11.532,11.532,0,0,0,5.4,2.92A27.2,27.2,0,0,0,86.24.84ZM126.56-.48c5.56,0,12.04-2.12,12.04-8.68,0-5.52-4.84-8-9.76-8a24.144,24.144,0,0,0-4.16.52c2-2.04,3.44-3.64,5.12-5.52a14.82,14.82,0,0,1,1.08-1.16,26.633,26.633,0,0,1,2.24-2c.2-.16.68-.48.68-.8.04-.36-.32-.72-.52-1-.48-.56-1.12-1.2-1.56-1.64-.32-.28-.56-.48-.76-.48a2.7,2.7,0,0,0-.8.32,3.408,3.408,0,0,1-.88.32c-.68.08-1.72.12-2.56.2-1.72.16-3.48.2-5.24.2a20.1,20.1,0,0,1-2.16-.12,7.889,7.889,0,0,0-1.4-.28c-.44,0-.44.72-.44,1.08-.08.88-.12,2.44-.12,3.28,0,.32.12.48.44.48a8.906,8.906,0,0,0,1.44-.2c2.64-.28,5.04-.48,7.68-.64-2.52,3.2-5.28,6.12-8.08,9.04-.96,1-1.92,2-2.92,2.96-.28.24-1.16,1-1.96,1.64-.24.2-.72.4-.72.68a1.645,1.645,0,0,0,.48.84,21.681,21.681,0,0,0,1.68,1.88c.28.24.4.44.76.44.24,0,.6-.44.8-.64A29.906,29.906,0,0,1,120.48-11a13.825,13.825,0,0,1,8-2.68c2.92,0,5.96,1.12,5.96,4.52,0,2.6-2.12,3.92-4.4,4.4-.12-3.16-2.56-5.12-5.64-5.12-2.56,0-5.2,1.64-5.2,4.44C119.2-1.48,123.36-.48,126.56-.48Zm-.96-3.96c-.92,0-2.68-.2-2.68-1.4a1.34,1.34,0,0,1,1.44-1.2c.92,0,2.04.56,2.04,1.64a3.9,3.9,0,0,1-.08.96Z" transform="translate(-9102.88 -3993.982)"/><path d="M-13.64,1.48a4.369,4.369,0,0,0,1.72-.44A13.588,13.588,0,0,0-8.68-.88a3.049,3.049,0,0,0,1.2-2.88c0-.92-.12-1.88-.16-2.8-.08-1.64-.04-3.28-.04-4.96,0-2.52-.04-4.72,0-7,1.12.04,2.24.08,3.36.2.36.04.96.12,1.36.12s.4-.12.48-.72c.04-.4.16-1.24.28-2,.08-.52.2-1.04.2-1.24,0-.28-.04-.52-.32-.48a3.963,3.963,0,0,0-.72.08,14.832,14.832,0,0,1-1.88.12H-7.68c0-1.32.04-2.4.08-3.48l.12-2.8c.04-.52.16-1.08.16-1.6,0-.56-.36-.64-.84-.64h-3.32c-.36,0-.8.04-.8.52a9.431,9.431,0,0,0,.16,1.12,29.865,29.865,0,0,1,.2,3.2c.04,1.24.04,2.48.04,3.72h-3.28c-.64,0-1.24-.12-1.84-.12-.48,0-1.04-.16-1.52-.16-.4,0-.36.48-.36.84-.04.68-.04,1.36-.04,2.04-.04,0-1.68.2-2.48.24-.84,0-1.68.04-2.52.04h-1.56v-3.4c1.04,0,2.12.04,3.16.08.4,0,.84.08,1.28.08.48,0,.52-.2.56-.68.12-.96.36-2.72.36-3.08,0-.28,0-.48-.32-.48-.44,0-1.16.2-1.64.24q-1.68.12-3.36.12v-1.92c.04-.92.24-1.88.24-2.84,0-.48-.48-.52-.88-.52l-2.72.04c-.4,0-1.12-.2-1.12.4a5.522,5.522,0,0,0,.12.8l.12,1.4c.04.88.08,1.76.08,2.68h-2.8a21.765,21.765,0,0,1-2.28-.12,5.967,5.967,0,0,0-.84-.08c-.4,0-.4.32-.4.68,0,1-.04,2-.04,2.96,0,.36.12.56.48.56.16,0,.28-.04.44-.04a13.089,13.089,0,0,1,2.16-.16l3.28-.12v3.44h-6.6l-1-.04c-.48,0-.44.28-.48.72v2.84c0,.32-.04.64.2.64a6.921,6.921,0,0,0,1.08-.16c.6-.08,1.16-.12,1.68-.16,2.44-.2,4.88-.28,7.28-.28,1.8,0,3.6.08,5.4.16.68.04,1.72.16,2.4.16.52,0,.48-.36.52-.76.04-.44.2-1.48.32-2.24a.634.634,0,0,0,.48.2c.44.04,1.28-.08,2-.08.88-.04,2.76-.04,4.44-.04.04,4.2.04,8.16.04,12.6a3.9,3.9,0,0,1-.24,1.68,2.717,2.717,0,0,1-1.44,1,20.038,20.038,0,0,1-2.72.72c-.4.08-1.4.2-1.36.52.04.28.24.44.72.84.76.68,1.08,1.04,2,1.84C-14.28,1.2-14.24,1.48-13.64,1.48Zm-22.6.08a5.757,5.757,0,0,0,1.48-.6A15.975,15.975,0,0,1-30.64-.08,59.435,59.435,0,0,1-22.2-.64,9.307,9.307,0,0,0-19.36-.8c.36-.2.32-.56.4-.92a18.079,18.079,0,0,1,.24-2.12,3.088,3.088,0,0,0,.08-.6c0-.36-.16-.4-.44-.4a5.992,5.992,0,0,0-.88.08c-.88.08-1.76.08-2.64.12-1.04.08-2,.12-2.96.16V-8.24h2.28c.68,0,1.32.08,1.96.08a1.458,1.458,0,0,0,.6-.08c.36-.16.32-.76.36-1.08a23.713,23.713,0,0,0,.28-2.36.465.465,0,0,0-.52-.52c-.48,0-1,.16-1.48.2a31.489,31.489,0,0,1-3.36.16l.12-1.8a5.967,5.967,0,0,0,.08-.84c-.04-.48-.32-.56-1-.56h-2.68c-.6,0-1.04,0-1,.48a6.068,6.068,0,0,0,.12.84,14.162,14.162,0,0,1,.08,1.84c-.6,0-1.2.04-1.88.04h-1.96c-.64-.04-1.28-.16-1.92-.16-.2,0-.36.28-.36.52V-8.6c0,.4-.04.8.52.8a1.76,1.76,0,0,0,.4-.08,18.2,18.2,0,0,1,2.08-.16c1.04-.04,2.12-.08,3.16-.08,0,1.32.04,2.64,0,3.96-1.76.12-3.64.32-5.32.44a27.656,27.656,0,0,0-2.76.36c-.16.04-.44.08-.44.36a2.467,2.467,0,0,0,.28,1.04c.2.4.56,1.68.96,2.6C-36.72,1.16-36.48,1.56-36.24,1.56ZM-16.48-9.52c.48.08,1.24-.76,1.64-1.24a8.7,8.7,0,0,0,2.04-4.96c0-.24-.04-.64-.4-.64a2.559,2.559,0,0,0-1.04.4,26.684,26.684,0,0,1-4.52,2.32c-.32.12-.92.12-.92.52A2.344,2.344,0,0,0-19.04-12a13.5,13.5,0,0,0,1.92,2.12A1.277,1.277,0,0,0-16.48-9.52ZM31.32,1.72c1.04,0,2.08-.04,3.12-.04.24,0,.76,0,.76-.4,0-.48-.24-1.36-.28-1.88a45.73,45.73,0,0,1-.52-4.64c-.16-2.8-.32-5.6-.32-8.4q0-2.7.12-5.4c.04-.48.16-.96.16-1.4,0-.4-.08-.56-.48-.56-.88,0-1.76.16-2.68.16H10.36c-.72,0-1.44-.16-2.16-.16-.2,0-.4.08-.4.32,0,.4.12.8.16,1.2.2,2.76.36,5.52.36,8.28,0,2.84-.24,6.16-1.88,8.56-.12.16-.68.76-1.04,1.2-.28.32-.52.48-.52.68.04.2.4.36.56.44.84.52,1.4.92,2.2,1.48.12.08.44.36.6.36.28,0,.44-.32.56-.48,2.64-3.48,3-8.6,3-12.76,0-1.92-.08-3.84-.12-5.76,3.12.04,6.2,0,9.32,0,3.24,0,6.48,0,9.72.04,0,1.44-.12,2.92-.12,4.4,0,3.52.16,7.04.16,10.56,0,1.04,0,2.12-.04,3.12,0,.24-.08.52-.08.76C30.64,1.68,31.08,1.72,31.32,1.72ZM14.64-.36c.64,0,1.28-.16,1.92-.2,1.32-.08,2.64-.08,3.96-.08,1.6,0,3.2-.04,4.8.08.88.04,1.72.16,2.6.16.36,0,.44-.28.48-.64.04-1.4.2-2.56.36-3.92.12-1.28.2-1.92.4-3.24a8.663,8.663,0,0,0,.16-1c0-.24-.12-.44-.36-.44h-.68c-.52.04-1.04.08-1.6.08-1.76.04-3.56.04-5.36.04-2.08,0-4.16-.04-6.2-.08-.52-.04-.88-.12-1.4-.12a.35.35,0,0,0-.36.32,3.827,3.827,0,0,0,.12,1.08c.28,1.96.44,3.4.64,5.32.04.28.08,1.4.12,2.04C14.24-.64,14.28-.36,14.64-.36Zm2.84-3.6c-.12-.8-.2-1.6-.28-2.4,1.04-.04,2.84,0,3.88,0h4.24c-.08.76-.12,1.6-.2,2.4C22.56-3.96,20.04-4,17.48-3.96Zm-3.8-7.64c.84,0,1.64-.2,2.48-.2h6.12c1.92,0,3.84.04,5.76.04.16,0,.32.08.48.08.28,0,.28-.48.32-.64l.32-1.96c.04-.36.12-.68.12-.92,0-.2-.08-.24-.24-.24-.88,0-1.88.16-2.76.2-3.36.16-6.76.08-10.16.08-.8,0-1.6-.12-2.4-.12-.32,0-.44.08-.44.44v2.8C13.28-11.72,13.36-11.6,13.68-11.6ZM7.96-21.72c.24,0,.64-.48.92-.72a13.529,13.529,0,0,0,2.68-3.2h2.28a15.275,15.275,0,0,1,.44,2.28c0,.16.04.88.16.96.16.16.32.12.6.12s1.6-.08,2.56-.16c.28-.04.84-.08.84-.36a1.709,1.709,0,0,0-.24-.8c-.2-.68-.4-1.32-.68-2.08a11.886,11.886,0,0,0,2.08-.04c-.6.52-1.04.8-1.04,1,0,.24.24.4.48.6.56.44,1.2,1.04,1.68,1.48.32.28.56.56.8.56.2.04.44-.16.72-.4a14.36,14.36,0,0,0,2.48-3.08H27.4c.16.76.28,1.52.4,2.24.08.44,0,.84.12.96.16.12.4.04.64.04.28,0,1.6-.08,2.6-.12.52-.04.8-.08.8-.28a3.322,3.322,0,0,0-.2-.8c-.2-.72-.44-1.36-.64-2.04l3.24.12a4.607,4.607,0,0,0,.8.04c.28,0,.32-.36.36-.76l.12-1.6a9.672,9.672,0,0,0,.12-1c0-.28-.12-.28-.4-.28-.44,0-.88.08-1.32.12-.88.04-2.08.04-3.32.08H26.6l.48-.96c.16-.36.32-.72.48-1a2.157,2.157,0,0,0,.2-.64c0-.36-.44-.52-.96-.6l-2.2-.56a3.852,3.852,0,0,0-.8-.12c-.16,0-.2.2-.24.56-.08.28-.16.68-.32,1.12a12.087,12.087,0,0,1-1.28,2.6,13,13,0,0,1-2,2.44c.08-.28.28-2.4.28-2.68.04-.28-.08-.44-.32-.44-.44,0-.92.08-1.32.12-.84.04-1.96.12-3.08.12h-2.2l.4-.8a7.384,7.384,0,0,0,.72-1.64c0-.36-.48-.52-.96-.6l-2.2-.56a2.574,2.574,0,0,0-.84-.12c-.24.04-.2.68-.56,1.68a14.142,14.142,0,0,1-1.24,2.6,16.184,16.184,0,0,1-2.52,2.96c-.6.52-1.12.8-1.12,1,.04.24.24.36.52.6.52.44,1.16,1.04,1.64,1.48C7.52-22,7.72-21.72,7.96-21.72Z" transform="translate(-9653.38 -3940)" fill="#eb3e2f"/><path d="M-83.68-12.76v-1.72h4.24v1.72ZM-96.36-24.4a16.738,16.738,0,0,0,5-.68c.28-.08.92-.48.92-.8,0-.24-.36-.68-.76-1.08A8.692,8.692,0,0,0-92.6-28a37.4,37.4,0,0,0-3.44-1.96,3.022,3.022,0,0,0-1-.32c-.2,0-.4.32-.6.84a20.523,20.523,0,0,0-.84,3.52,5.376,5.376,0,0,0-.12.88c0,.48.28.52.72.56A11.63,11.63,0,0,0-96.36-24.4Zm12.68,6.72c0-.48-.04-.96-.04-1.48h4.28v1.48Zm8.04,4.96v-1.76h4.16v1.76Zm-3.28,7.56c.84-.04,1.8,0,2.64,0,.28,0,1,.04,1-.4,0-.28-.12-.56-.12-.8-.12-1.32-.16-2.04-.2-3.16h4.12V-7.8l-.08,1.44v.84c0,.28.24.32.88.32h2.4c.44,0,.96-.04.96-.56,0-.68-.16-1.28-.2-1.96-.12-1.28-.24-2.36-.32-3.64-.12-2.8-.04-5.56-.04-8.32,0-.84.04-1.68.04-2.48,0-.24-.04-.4-.4-.4-.52,0-.76.08-1.28.12-1,0-2.4,0-3.4.04h-1.72a3.625,3.625,0,0,0-.64-.44,77.642,77.642,0,0,0,6.24-5.8c.6-.68.56-.76.56-1.32,0-.52-.96-.6-1.48-.6-2.32,0-4.64.08-7,.08-2.2,0-4.44,0-6.64-.04-.88,0-1.56-.2-2.6-.2-.4.04-.4.36-.4.8.04.76.04,2.84.04,3,0,.36,0,.48.4.48.36,0,.68-.12,1.04-.12,1.04-.08,2.04-.16,3.04-.16h6a21.71,21.71,0,0,1-2.12,1.88l-1.84-1.2a2.857,2.857,0,0,0-.6-.32c-.32-.08-.56.08-.92.16-.52.16-1.76.6-2.28.84-.36.16-.56.24-.6.44-.04.12.2.24.56.44a9.321,9.321,0,0,0,1.04.64c.68.52,1.36.96,2.04,1.44-1.6,0-3.56.04-5.08-.04a9.849,9.849,0,0,0-1.04-.08c-.32,0-.52.04-.52.32,0,.32.12,1.28.16,1.72.16,1.88.2,3.64.2,5.48a41.9,41.9,0,0,1-.4,5.88,10.282,10.282,0,0,0-.32,1.76c0,.52.04.4.48.48.6.08,1.04.12,1.68.24s1.28.4,1.48.4c.48-.04.4-.52.44-.92.04-.84.04-1.6.04-2.32l4.2-.04a28.722,28.722,0,0,1-.24,3.16,2.185,2.185,0,0,0-.04.72C-79.76-5.28-79.28-5.16-78.92-5.16Zm3.28-12.52c0-.48.04-.96.04-1.48h4.12v1.48Zm7.96,20.16c.32-.04.44-.56.84-1C-66.2.76-65.68.2-65-.6c.44-.52.92-.72.92-1.28,0-.28-.08-.36-.88-.32l-1.52-.08c-3.08-.16-8.04-1.04-11.04-1.56-2.56-.44-3.2-.56-5.72-1.08-2.4-.52-4.76-.92-7.16-1.44-.04-2.52,0-5.04,0-7.56,0-.96.24-1.92.24-2.8,0-.84-.56-.68-1.16-.68-1.2,0-2.4.08-3.6.08h-1.92c-.52-.04-1-.12-1.52-.12a1.555,1.555,0,0,0-.6.08c-.24.16-.2.52-.2.76,0,1.08-.04,2.16-.04,3.24,0,.4.24.52.6.52a8.009,8.009,0,0,0,.96-.16c.4-.04.8-.04,1.24-.04s1.36-.04,1.84,0c.04,2.04.04,4.12.04,6.2-1.68,1-3.4,1.88-5.12,2.8a8.116,8.116,0,0,1-1.04.44c-.28.12-.84.36-.88.64,0,.16.2.44.52.84.48.68,1.04,1.52,1.64,2.28a1.188,1.188,0,0,0,.8.52A2.36,2.36,0,0,0-97.76.2c1-.68,2.6-2,3.8-2.8a6.571,6.571,0,0,1,1.36-.72,5.781,5.781,0,0,1,1.92.36c.92.2,2.04.6,2.8.8C-82.72-.96-80.68-.48-75.8.72c2.32.56,4.72,1.12,6.56,1.48A6.352,6.352,0,0,0-67.68,2.48ZM-56.6,1.44c.36,0,.64-.4.92-.6a41.054,41.054,0,0,0,4.64-4.92,1.739,1.739,0,0,0,.48-.88c0-.16-.44-.56-.84-.88-.6-.44-.8-.6-1.28-.92.76-.04,1.52-.04,2.32-.04.88,0,1.8,0,2.68.04a9.25,9.25,0,0,0-.96.8c-.36.36-.84.68-.84.92-.04.36.36.68.64,1.08A28.385,28.385,0,0,0-45.56-.32c.44.4.72.6.92.6.12,0,.36-.4.68-.88.48.24.92.44,1.28.6a1.914,1.914,0,0,0,.92.36c.28,0,.6-.72.76-.92A25.49,25.49,0,0,0-39.2-4a30.813,30.813,0,0,0,2.32-8.24c.88,1.64,1.8,3.32,2.84,4.88a19.133,19.133,0,0,1-4.64,5.24c-.28.24-1,.52-1,.92,0,.28.44.48.92.88A11.473,11.473,0,0,1-37.56.72a5.645,5.645,0,0,0,.88.68,1.635,1.635,0,0,0,.8-.4,19.606,19.606,0,0,0,2.04-2,23.878,23.878,0,0,0,2.32-3.08,49.422,49.422,0,0,0,4.8,4.8c.32.28.76.72,1.24.72.2,0,.84-.68.96-.84.52-.48,1.08-.88,1.64-1.32.32-.24.96-.52.96-.92,0-.48-.88-.64-1.48-1.04a34.564,34.564,0,0,1-3.52-2.44,26.183,26.183,0,0,1-2.56-2.6,48.379,48.379,0,0,0,3.2-9.52,8.031,8.031,0,0,0,.32-1.92c0-.72-.36-.84-.92-.84H-36.4c0-1.6-.04-3.12-.04-4.92h3.48c1.76,0,3.56,0,5.32.08.88.04,2.16.16,2.68.16.44,0,.4-.2.48-.68.04-.32.16-1.56.28-2.48.08-.56.16-.96.16-1.16,0-.16-.24-.28-.4-.28a3.138,3.138,0,0,0-.56.08l-1.12.12a71.843,71.843,0,0,1-7.76.24c-1.48,0-2.88.04-4.4,0-.52-.04-1-.12-1.52-.12-.36,0-.68-.04-.68.44,0,.32.08.68.08,1.04.12,1.44.16,2.88.16,4.32,0,3.16.04,8-.56,11a30.5,30.5,0,0,1-1.24,4.64,12.322,12.322,0,0,1-1.84,3.48,17.57,17.57,0,0,1-3-2.72h2.16c.84,0,.92-.2.92-.92,0-.44-.04-.88-.04-1.32.12-2.8.12-5.6.16-8.44.04-2.44.16-4.88.28-7.32.08-1.44.08-2.92.28-4.32a5.967,5.967,0,0,0,.08-.84c0-.4-.4-.36-.76-.36-3.72,0-7.52.12-11.24-.04a6.011,6.011,0,0,0-.8-.08c-.36,0-.52.08-.52.44,0,.64.16,1.36.16,2,.12,2.68.28,5.08.28,7.64V-9.16c0,.48-.08,1-.08,1.48,0,.56-.12,1,.6,1,.28,0,.56-.04.84-.04a11.241,11.241,0,0,1,1.16-.04A12.322,12.322,0,0,1-55.24-4.6,17.924,17.924,0,0,1-58.6-1.92c-.2.16-.56.32-.56.52,0,.28.36.48.56.72.44.52,1.08,1.24,1.4,1.56C-57.04,1.08-56.88,1.44-56.6,1.44Zm4.08-12,.04-3.2h5.28c-.04,1.04-.04,2.12-.08,3.2C-49.08-10.6-50.8-10.6-52.52-10.56Zm.04-6.48V-20.2h5.4c-.04,1.04-.04,2.12-.08,3.16Zm-.04-6.44c0-1.08,0-2.2-.04-3.28,1.92,0,3.8-.08,5.72-.04-.08,1.12-.12,2.24-.16,3.32Zm20.48,12.16a18.512,18.512,0,0,1-1.36-2.84c-.08-.12-.32-.84-.52-.84a2.309,2.309,0,0,0-1.04.36c-.6.32-1.2.6-1.76.88.08-.88.12-1.76.16-2.6h6.04A22.2,22.2,0,0,1-32.04-11.32ZM-.16-.52a2.213,2.213,0,0,0,.88-.4A23.243,23.243,0,0,0,2.88-2.6C7.08-6.48,7.84-10.96,8-16.28c1.32.04,2.68.08,4.04.16.76.04,1.52.16,2.32.2.6.08,1.6.24,2.04.28.28,0,.32-.08.4-.52.08-.4.28-1.44.52-2.36.16-.72.36-1.32.36-1.56,0-.28-.36-.32-.56-.32-.44,0-.88.12-1.32.16-1.28.08-2.56.12-3.8.12H8c0-1.44.04-2.88.08-4.32.04-1.2.28-2.4.28-3.64,0-.52-.4-.56-.8-.56-.88,0-2.12,0-3.16.04-.4,0-.84-.04-.84.44a5.842,5.842,0,0,0,.12.88,33.63,33.63,0,0,1,.36,4.08v3.16c-2.12,0-4.2,0-6.32.04.04-1.12.04-2.24.12-3.4.08-1.12.28-2.56.28-3.68,0-.52-.48-.6-.88-.6-.92,0-2.04,0-3,.04-.4,0-.76.04-.76.4a4.479,4.479,0,0,0,.12.88c.08.36.08.8.12,1.04.04.84.04,1.68.04,2.56,0,.92,0,1.88-.04,2.8-1.6.04-3.2.12-4.8.12-.76,0-1.56-.08-2.32-.12-.48-.04-1.08-.16-1.56-.16-.4.04-.44.28-.44.76v3.16c0,.4,0,.72.48.72a12.137,12.137,0,0,0,1.68-.24c1.04-.12,2.08-.28,3.16-.36,1.24-.08,2.52-.16,3.8-.2,0,2.04-.08,4.04-.24,6.08a7.184,7.184,0,0,0-.08.88c0,.28.28.36.64.36h2.88c.76,0,.96.04.96-.68,0-1.36-.16-2.8-.2-4.32V-16.4c1.64,0,1.84-.04,3.56,0h2.8C3.96-12.32,3.4-7.92-.16-5.32a9.665,9.665,0,0,1-2,1.08c-.16.04-.64.24-.96.36s-.76.28-.76.48c0,.24.6.56.88.76.68.48,1.12.88,1.84,1.4C-.72-.88-.32-.52-.16-.52ZM42.8-1c.96,0,2.56-.04,3.52,0,.48,0,.72-.2.72-.72,0-.84-.08-1.64-.08-2.44v-8.48c0-2-.04-4.04.08-6.04.04-.44.2-.8.2-1.24,0-.4-.44-.28-.76-.36.8-.64,1.6-1.24,2.36-1.88,1.28-1.04,2.52-2.12,3.8-3.12.4-.28,1.28-.8,1.28-1.36a1.5,1.5,0,0,0-.56-.92c-.28-.24-1.56-1.24-2.48-1.84a2.2,2.2,0,0,0-1-.48c-.28,0-.32.24-.48.52a9.169,9.169,0,0,1-.68,1.08,21.88,21.88,0,0,1-2.48,2.8,46.254,46.254,0,0,1-6.48,4.8,43.085,43.085,0,0,1-7.4,3.8l-2.56.84c-.2.04-1,.16-1,.44,0,.16.4.52.72.88l1.8,2c.28.32.48.64.88.64a5,5,0,0,0,1.12-.32,70.814,70.814,0,0,0,9.64-5.32,12.918,12.918,0,0,0,0,1.76c0,2.84-.12,5.68-.28,8.48-.08,1.32-.24,2.68-.36,4a17.847,17.847,0,0,0-.28,2.04C42.04-1,42.44-1,42.8-1ZM78.36.16h3.16c.56,0,.96-.04.96-.64,0-.96-.16-2.12-.2-3.12-.04-1.8-.12-3.6-.12-5.4,0-2.88,0-5.72.04-8.6a50.041,50.041,0,0,1,9.16,5.84c.32.24.52.56.96.56.32,0,.48-.36.68-.6.28-.36.96-1.24,1.4-1.96a2.5,2.5,0,0,0,.36-.92c0-.16-.24-.4-.64-.72a86.507,86.507,0,0,0-9.24-5.56c-.44-.2-.88-.44-1.28-.64a1.078,1.078,0,0,0-.6-.2c-.4,0-.4.4-.72.68a64.6,64.6,0,0,1,.4-6.8c.08-.68.24-1.52.24-2.12.04-.48-.4-.6-.92-.6H78.6c-.28,0-.72.08-.72.48s.12,1,.16,1.44a21.767,21.767,0,0,1,.12,2.28v5.08c0,3.96-.08,7.92-.16,11.84l-.24,5.84c-.08,1.04-.28,2.24-.28,3.28C77.48.16,77.88.16,78.36.16Z" transform="translate(-9130.38 -3940)" fill="#eb3e2f"/><path d="M-167.6,0a55.348,55.348,0,0,0,8.4-.76,8.206,8.206,0,0,0,1.64-.4c.52-.24.52-.52.52-1.2,0-.92.08-2.4.08-2.72s.08-1.08-.4-1.08c-.04,0-.48.16-1,.32-.96.36-2.28.84-2.64.92a31.36,31.36,0,0,1-7.72.92A13.941,13.941,0,0,1-173-4.48c-.56-.24-.92-.52-.92-1.16a2.63,2.63,0,0,1,.96-1.68,15.492,15.492,0,0,1,3.76-2.32v.92c0,.76-.08,1.52-.08,2.28,0,.56.48.6.92.6.6,0,2.52.12,2.88-.32a1.738,1.738,0,0,0,.2-1c0-1.36-.04-2.72-.16-4.08C-162-12.88-158.56-14.6-155-16c.32-.12.84-.28.84-.68a3.532,3.532,0,0,0-.36-1.04c-.36-.76-.84-1.6-1.04-2-.12-.24-.36-.8-.68-.8a2.27,2.27,0,0,0-.76.4c-.48.32-1.04.72-1.24.84-2.48,1.6-5.24,3-7.84,4.36-.52-2.2-1.36-3.88-3.92-3.88a6.512,6.512,0,0,0-1.24.12l1.08-1.92a56.929,56.929,0,0,0,7.24-1c.48-.16.76-.24.76-.8,0-.4-.12-1.8-.16-2.84,0-.28,0-.92-.24-.96a2.644,2.644,0,0,0-1,.28,26.374,26.374,0,0,1-5.24,1.28c.16-.64.84-2.84,1.24-4.24a6.094,6.094,0,0,0,.32-1.32c0-.24-.32-.32-.76-.4-.68-.12-1.76-.32-2.48-.4a6.069,6.069,0,0,0-.84-.12c-.28,0-.32.28-.36.72-.04.48-.16,1.28-.2,1.48a48.656,48.656,0,0,1-1,4.8c-1.56.16-3.44.28-5,.28a12.581,12.581,0,0,1-1.76-.12c-.4-.04-.96-.2-1.36-.2-.36,0-.36.48-.36,1.04-.04.44-.12,1.2-.16,1.88v.88c0,.56.68.48,1.12.48,2,0,4.04-.08,6.04-.28a14.383,14.383,0,0,1-3.68,4.24c-.52.4-1.08.88-1.64,1.28s-.92.56-.92.8c0,.28.24.52.48.84.52.64,1.28,1.44,1.56,1.72.24.2.56.64.88.6.24-.04.64-.52.84-.72a22.737,22.737,0,0,1,3.72-3.08,4.9,4.9,0,0,1,2.44-.8c.92,0,.92,1.28,1.04,1.96a40.561,40.561,0,0,0-5.08,2.92c-1.64,1.24-2.88,2.76-2.88,4.64a4.714,4.714,0,0,0,2.72,4.48A17,17,0,0,0-167.6,0Zm42.4-2a83.884,83.884,0,0,0,9.68-1.04c.6-.12.92-.32.92-.96,0-1.16-.08-2.32-.16-3.44-.04-.24-.08-.88-.4-.88a2.524,2.524,0,0,0-.92.32,29,29,0,0,1-5.48,1.4,33.029,33.029,0,0,1-4.88.44,26.746,26.746,0,0,1-5.48-.6c-1.28-.32-2.24-.88-2.24-1.8a4.527,4.527,0,0,1,1.56-3.08c.24-.24.72-.52.72-.88,0-.16-.28-.36-.64-.64-.56-.36-1.2-.64-1.8-.96a1.263,1.263,0,0,0-.6-.2c-.32,0-.52.28-.72.48a8.218,8.218,0,0,0-2.44,5.76,4.911,4.911,0,0,0,3.2,4.68,20.166,20.166,0,0,0,6.56,1.32C-127.28-2-126.24-2-125.2-2Zm7.88-18.44c.44-.04.48-.52.48-.88a23.532,23.532,0,0,0,.24-2.72c0-.64-.12-.76-.76-.88a44.528,44.528,0,0,0-4.64-.2c-1.4-.04-2.8-.04-4.2-.04a72.714,72.714,0,0,0-8.16.44c-.4.08-.72.16-.72.6,0,.4.2,2,.28,2.96.04.4.16.6.56.6a9.908,9.908,0,0,0,1.08-.12,72.663,72.663,0,0,1,7.8-.32c1.32,0,2.64.12,3.92.2,1.04.08,2,.12,3.08.24A10.389,10.389,0,0,0-117.32-20.44Zm4.76-3.16c.12,0,.28-.16.44-.32.28-.36.56-.68.8-.96a.8.8,0,0,0,.28-.44c0-.28-.36-.56-.6-.84-.44-.44-.92-.84-1.52-1.36a17.569,17.569,0,0,0-1.44-1.2c-.28-.2-.52-.4-.68-.4a1.145,1.145,0,0,0-.48.36l-.76.72c-.12.12-.24.24-.2.36,0,.16.28.24.6.52a17.871,17.871,0,0,1,1.4,1.28c.44.44,1.12,1.2,1.6,1.76C-112.88-23.84-112.72-23.6-112.56-23.6Zm3.48-2.48c.12,0,.28-.16.4-.32.32-.36.6-.68.84-.92a1.028,1.028,0,0,0,.28-.48c0-.24-.36-.52-.56-.76A18.951,18.951,0,0,0-109.68-30c-.48-.44-1-.84-1.44-1.2-.28-.2-.44-.36-.68-.36-.16,0-.28.16-.48.32l-.76.72c-.16.12-.24.24-.2.36,0,.2.28.24.6.52a17.873,17.873,0,0,1,1.4,1.28c.44.44,1.12,1.2,1.6,1.76C-109.4-26.32-109.24-26.08-109.08-26.08Zm18.6,24.84a4.128,4.128,0,0,0,1.04-.12,33.485,33.485,0,0,1,3.84-.36c2.08-.12,7-.2,9.08-.2a59.128,59.128,0,0,1,7.48.32,9.947,9.947,0,0,0,1.88.16c.32,0,.32-.52.44-1.12.16-.92.16-1.72.28-2.64a6.068,6.068,0,0,0,.12-.84c0-.24-.08-.4-.24-.4a2.11,2.11,0,0,0-.48.12c-.56.08-1.12.16-1.72.2a26.029,26.029,0,0,1-3.08.16c-1.68,0-3.4.04-5.08.04v-5.6c1.56.04,3.32.08,4.56.2.6.04,1.16.16,1.72.16.32,0,.4-.12.44-.44.12-.44.56-3.48.56-3.84,0-.16-.08-.2-.2-.2-.48,0-1,.16-1.52.2-2.36.08-3.76.08-5.56.08v-5.12c2.52,0,5.2.04,6.96.16a8.522,8.522,0,0,0,1,.12c.52,0,.44-.28.48-1,.08-.88.28-2.32.28-3,0-.52-.24-.6-.64-.6a7.868,7.868,0,0,0-.96.12c-2.28.24-8.2.24-10.52.24-2.36.04-3.76.04-6.12.04-.6,0-1.12,0-1.72-.04a5.9,5.9,0,0,0-1.04-.12c-.4,0-.36.44-.36.72v2.88c0,.64.04.76.4.76.28,0,.84-.08,1.12-.08a12.745,12.745,0,0,1,1.8-.12c1.72-.08,3.44-.04,5.16-.08v5.12c-1.32,0-2.72-.04-3.76-.04-.84,0-1.24-.08-2.12-.08a7.868,7.868,0,0,0-.96-.12c-.4,0-.44.28-.44.68v3.2c0,.36,0,.56.4.56s.8-.12,1.2-.16c2.28-.2,3.88-.2,5.68-.2v5.64h-4.64c-.88,0-1.56-.04-2.4-.08-.44,0-.84-.04-1.28-.08a9.908,9.908,0,0,0-1.08-.12c-.32,0-.4.28-.4.72,0,.4,0,2.36-.04,3.56C-90.92-1.76-90.72-1.24-90.48-1.24ZM-96.96.48c.12,0,.32-.2.56-.48,1.2-1.4,3.76-5.2,4.16-5.88a6.22,6.22,0,0,0,.88-3.36c0-.48,0-2.2-.6-2.2-.4,0-.96,1-1.24,1.28-.56.56-1.04,1.16-1.56,1.72a37.4,37.4,0,0,1-3.96,3.6c-.32.28-1.24.72-1.24,1.16a2.537,2.537,0,0,0,.4,1A16.514,16.514,0,0,0-97.68.16,1.3,1.3,0,0,0-96.96.48Zm-2.36-14.24c.24,0,.52-.04.88-.08a21.548,21.548,0,0,0,6-2.16c.28-.16.92-.48.92-.84,0-.2-.64-.56-1.52-.96-1.36-.56-3.36-1.2-4.72-1.6a8.879,8.879,0,0,0-1.4-.32c-.32,0-.48.6-.56,1.28-.08.76-.08,1.6-.08,1.84s0,1.28.04,2C-99.72-14.2-99.8-13.76-99.32-13.76Zm8-10.32c.16,0,.88,0,.88-.28a5.271,5.271,0,0,0-.76-1.68,33.083,33.083,0,0,0-2.92-3.8c-.6-.68-1.12-1.12-1.32-1.12-.16,0-.52.36-.92.92a30.076,30.076,0,0,0-1.84,2.76,3.935,3.935,0,0,0-.48,1.08c0,.2.68.48.84.52A15.368,15.368,0,0,0-91.32-24.08Zm15-.88c.4,0,.4-.28.4-.6a4.288,4.288,0,0,0-.24-1.52,20.651,20.651,0,0,0-1.96-4.6c-.32-.56-.48-.88-.88-.92-.36,0-.6.32-1.16.72a27.069,27.069,0,0,0-2.52,2.12c-.4.36-.64.68-.64.84,0,.24.48.6.68.72A15.673,15.673,0,0,0-76.76-25C-76.6-25-76.44-24.96-76.32-24.96ZM-31.4,1.44c.48,0,.8-.32,1.36-.68,1.04-.64,2.2-1.32,3.08-1.88.64-.44,1.12-.68,1.12-1.08,0-.24-.48-.52-1.16-.84-.88-.4-1.92-.88-2.24-1.08-1.12-.72-1.96-1.4-3.4-2.44-2.08-1.48-4-3.16-6-4.72a43.258,43.258,0,0,0,4.24-6.76l1.32-2.72c1.04,0,2.08.04,3.08.12.72.08,1.8.24,2.48.28.44,0,.52-.6.64-1.24.16-.96.32-1.96.56-2.92a6.782,6.782,0,0,0,.16-.88c0-.2-.08-.32-.28-.32a10.14,10.14,0,0,0-1.16.16c-.64.08-1.32.12-2,.16-1.28.08-2.56.2-3.88.2-2.72,0-5.48.12-8.2.12-3.64,0-7.24.04-10.84.04-.84,0-1.64-.04-2.44-.08-.36-.04-.88-.16-1.24-.16-.44,0-.48.44-.48.84v3.4c0,.44.04.84.52.84a10.289,10.289,0,0,0,1.6-.2c1.56-.2,3.12-.28,4.68-.36,2.8-.12,5.6-.08,8.4-.08,1.2,0,2.44-.04,3.68-.04a24.312,24.312,0,0,1-1.76,3.16c-.56.84-1.32,2-2.6,3.72-1.28-.92-3.44-2.4-4.48-3.28a19.7,19.7,0,0,0-2.16-1.56,1.387,1.387,0,0,0-.76-.4c-.2-.04-.44.12-.68.32-.48.4-1.4,1.4-1.92,1.84-.32.28-.48.48-.44.64.08.2.36.28.56.44.68.52,1.8,1.16,2.76,1.88.92.72,2.6,1.92,4.28,3.28-.76.76-1.56,1.56-2.16,2.12a40.449,40.449,0,0,1-3.8,3,51.808,51.808,0,0,1-5.4,3.08c-.52.28-1.36.6-1.36,1s.68.64,1.04.84c1.04.6,1.4.84,2.48,1.52.56.36.64.64,1.28.68.44.04,1-.44,1.48-.76A47.087,47.087,0,0,0-47.56-2.2a41.47,41.47,0,0,0,3.72-3.28c.8-.8,1.56-1.6,2.28-2.36,1.6,1.4,3.2,2.84,4.72,4.36,1.48,1.48,2.04,2,3.48,3.36C-32.76.44-31.76,1.44-31.4,1.44ZM-43.28-27.8a15.522,15.522,0,0,0,5.88-.96c.16-.08.52-.2.52-.44,0-.2-.44-.68-1.2-1.2a43.425,43.425,0,0,0-4.24-2.44,6.4,6.4,0,0,0-1.64-.6c-.16,0-.44.52-.64,1.16-.24.84-.56,1.96-.72,2.8a9.664,9.664,0,0,0-.12,1.12c0,.28.32.44.72.48A6.424,6.424,0,0,0-43.28-27.8ZM-5.72-1.36a5.641,5.641,0,0,0,1.64-.28A17.744,17.744,0,0,0,1.68-5.28a1.548,1.548,0,0,0,.48-.96A4.991,4.991,0,0,0,2-7.28c-.2-.72-.44-1.6-.72-2.36-.2-.52-.4-.84-.56-.84-.44,0-.68.44-.92.76a19.063,19.063,0,0,1-3.52,3.2,3.178,3.178,0,0,1-1.4.56A1.8,1.8,0,0,1-6.6-6.92c-1.44-2.2-1.76-7.6-1.76-9.08a34.547,34.547,0,0,1,.4-4.96,27.292,27.292,0,0,1,.76-3.12,8.1,8.1,0,0,0,.36-1.32c0-.36-.6-.52-.88-.6l-2.76-.72a2.979,2.979,0,0,0-.8-.16c-.32,0-.44.32-.52.68a10.487,10.487,0,0,0-.16,1.24c-.24,2.76-.52,5.56-.52,8.36,0,4.32.36,9.72,3.16,13.24A4.563,4.563,0,0,0-5.72-1.36ZM11.12-7.08a4.89,4.89,0,0,0,1.08-.24c.76-.32,1.84-.76,2.2-.96.52-.32.8-.4.8-.8a3.408,3.408,0,0,0-.16-.92A33.628,33.628,0,0,0,9.32-21.48a17.009,17.009,0,0,0-1.08-1.4c-.24-.28-.36-.44-.76-.44a7.626,7.626,0,0,0-.84.2,19.844,19.844,0,0,0-2.08.64c-.44.16-.68.32-.68.52a1.675,1.675,0,0,0,.52.88,37.155,37.155,0,0,1,3.96,6.32,40.36,40.36,0,0,1,2.2,6.64C10.72-7.64,10.72-7.12,11.12-7.08ZM31.96-.2c.52,0,.6-.32.68-.76.2-.72.4-1.64.44-1.88,1.4-5.92,2.84-11.8,4.48-17.64,1.24-.2,3.2-.44,4.56-.8.48-.16.92-.24.92-1.08,0-.76-.12-2-.16-2.76,0-.36-.08-.68-.4-.72-.24-.04-.72.24-.96.32-.36.12-.72.28-1.08.4a18.724,18.724,0,0,1-1.88.44c.16-.76.84-3.24,1.24-4.64.12-.48.24-.84.24-.96-.04-.4-.4-.44-.88-.56l-2.52-.44a2.873,2.873,0,0,0-.76-.08c-.44,0-.44.56-.44.88l-.16,1c-.36,1.84-.64,3.64-1.04,5.44A38.053,38.053,0,0,1,29-23.6a8.728,8.728,0,0,0-.96-.04c-.32,0-.48.12-.48.68,0,.32,0,2.04.04,2.92,0,.4-.04.72.44.72a4.887,4.887,0,0,0,1.04-.12c1.44-.2,2.88-.32,4.32-.56A160.922,160.922,0,0,1,28.64-3.76c-.08.28-.36.88-.56,1.4-.16.36-.28.56-.24.8,0,.16.24.4.64.48C29.72-.76,31.56-.2,31.96-.2ZM51.92-2.4a26.178,26.178,0,0,0,2.8-.16c.36-.04.56-.28.64-.8.12-.72.16-1.16.24-1.84a13.105,13.105,0,0,0,.16-1.72c0-.24-.04-.44-.36-.44a2.215,2.215,0,0,0-.72.08c-.52.08-1.04.28-1.48.32a19.851,19.851,0,0,1-3.04.24c-1.52,0-3.6-.16-4.8-1.12a2.444,2.444,0,0,1-1-1.8,5.712,5.712,0,0,1-.12-1.16c0-.2.04-.6.04-.96s-.08-.68-.4-.68a1.944,1.944,0,0,0-.68.24c-.76.28-1.84.8-2.24,1-.48.2-.64.28-.64.84a5.332,5.332,0,0,0,.12,1.12,7.07,7.07,0,0,0,2.92,4.8,13.812,13.812,0,0,0,6.72,1.96C50.68-2.44,51.32-2.4,51.92-2.4Zm2.72-14.92c.28,0,.48-.28.6-.52.16-.36.64-1.4.96-2.2a2.607,2.607,0,0,0,.24-.8c0-.4-.36-.6-.68-.72A21.865,21.865,0,0,0,52-22.64c-1.72-.4-3.56-.72-4.8-.88a10.2,10.2,0,0,0-1.24-.12.763.763,0,0,0-.76.48c-.12.28-.72,1.44-.96,2.08a3.6,3.6,0,0,0-.16.64c0,.2.28.28.56.36a51.012,51.012,0,0,1,8,2.04l1.32.52A2.7,2.7,0,0,0,54.64-17.32ZM73.96-.2c.52,0,.6-.32.68-.76.2-.72.4-1.64.44-1.88,1.4-5.92,2.84-11.8,4.48-17.64,1.24-.2,3.2-.44,4.56-.8.48-.16.92-.24.92-1.08,0-.76-.12-2-.16-2.76,0-.36-.08-.68-.4-.72-.24-.04-.72.24-.96.32-.36.12-.72.28-1.08.4a18.724,18.724,0,0,1-1.88.44c.16-.76.84-3.24,1.24-4.64.12-.48.24-.84.24-.96-.04-.4-.4-.44-.88-.56l-2.52-.44a2.873,2.873,0,0,0-.76-.08c-.44,0-.44.56-.44.88l-.16,1c-.36,1.84-.64,3.64-1.04,5.44A38.053,38.053,0,0,1,71-23.6a8.728,8.728,0,0,0-.96-.04c-.32,0-.48.12-.48.68,0,.32,0,2.04.04,2.92,0,.4-.04.72.44.72a4.887,4.887,0,0,0,1.04-.12c1.44-.2,2.88-.32,4.32-.56A160.921,160.921,0,0,1,70.64-3.76c-.08.28-.36.88-.56,1.4-.16.36-.28.56-.24.8,0,.16.24.4.64.48C71.72-.76,73.56-.2,73.96-.2ZM93.92-2.4a26.178,26.178,0,0,0,2.8-.16c.36-.04.56-.28.64-.8.12-.72.16-1.16.24-1.84a13.1,13.1,0,0,0,.16-1.72c0-.24-.04-.44-.36-.44a2.215,2.215,0,0,0-.72.08c-.52.08-1.04.28-1.48.32a19.851,19.851,0,0,1-3.04.24c-1.52,0-3.6-.16-4.8-1.12a2.445,2.445,0,0,1-1-1.8,5.712,5.712,0,0,1-.12-1.16c0-.2.04-.6.04-.96s-.08-.68-.4-.68a1.944,1.944,0,0,0-.68.24c-.76.28-1.84.8-2.24,1-.48.2-.64.28-.64.84a5.332,5.332,0,0,0,.12,1.12,7.071,7.071,0,0,0,2.92,4.8,13.812,13.812,0,0,0,6.72,1.96C92.68-2.44,93.32-2.4,93.92-2.4Zm2.72-14.92c.28,0,.48-.28.6-.52.16-.36.64-1.4.96-2.2a2.607,2.607,0,0,0,.24-.8c0-.4-.36-.6-.68-.72A21.866,21.866,0,0,0,94-22.64c-1.72-.4-3.56-.72-4.8-.88a10.2,10.2,0,0,0-1.24-.12.763.763,0,0,0-.76.48c-.12.28-.72,1.44-.96,2.08a3.6,3.6,0,0,0-.16.64c0,.2.28.28.56.36a51.012,51.012,0,0,1,8,2.04l1.32.52A2.7,2.7,0,0,0,96.64-17.32Zm-1.52-7.56c.12,0,.28-.16.4-.32.28-.36.6-.68.8-.96.16-.16.32-.32.32-.44,0-.24-.36-.56-.6-.84a18,18,0,0,0-1.52-1.36c-.48-.44-1-.84-1.44-1.2-.28-.2-.52-.4-.68-.36-.16,0-.28.16-.48.32l-.76.72a.484.484,0,0,0-.24.36c.04.16.32.24.64.52.48.4.8.72,1.36,1.28.44.44,1.16,1.2,1.64,1.76C94.8-25.12,94.96-24.88,95.12-24.88Zm3.48-2.48c.12,0,.28-.16.4-.32.28-.36.6-.68.8-.92.2-.2.32-.32.32-.48,0-.24-.36-.52-.56-.76-.44-.48-.96-.88-1.56-1.44-.48-.44-1-.84-1.44-1.2-.28-.2-.44-.36-.68-.36-.16,0-.32.16-.48.32-.2.2-.56.48-.76.72a.484.484,0,0,0-.24.36c.04.2.32.24.64.52.48.4.8.76,1.36,1.28.44.44,1.16,1.24,1.64,1.76C98.28-27.6,98.44-27.36,98.6-27.36ZM128.04.8c.52,0,1.08-.56,1.44-.88,4-3.16,5.16-7.52,5.16-12.4,0-1.8-.12-3.6-.16-5.4a56.5,56.5,0,0,0,6.52-.56c.68-.12.8-.36.84-1.04.04-.96.16-1.96.16-2.92,0-.28-.04-.76-.4-.76a1.918,1.918,0,0,0-.68.2,24.454,24.454,0,0,1-6.6,1.04c-.04-2,.08-4.04.2-6.04a19.341,19.341,0,0,0,.24-2c0-.4-.56-.56-.84-.56l-3.16.04c-.44,0-1,0-1,.6s.16,1.2.2,1.8c.16,2.2.16,4.32.2,6.44-1,0-2,.04-3,.04-1.24,0-2.52-.08-3.84-.2-.44-.04-1-.16-1.52-.24-.32-.04-.64-.12-.88-.12-.48,0-.44.6-.48.92a30.235,30.235,0,0,0-.28,3.28c0,.4.16.48.6.48.56,0,1.12-.08,1.72-.08,2.6,0,5.24-.08,7.84-.16.12,1.64.16,3.28.16,4.92,0,2.88-.28,5.6-2.36,7.8a25.587,25.587,0,0,1-3.4,2.76c-.2.12-.6.44-.6.68,0,.16.28.48.72.72.8.48,1.48.96,2.32,1.36A2.522,2.522,0,0,0,128.04.8ZM116.28-1.6a.9.9,0,0,0,.6-.32,33.794,33.794,0,0,0,4.04-7,3.166,3.166,0,0,0,.24-1,2.287,2.287,0,0,0-.52-.8,9.564,9.564,0,0,0-.88-.92c-.24-.24-.32-.36-.6-.36-.28-.04-.44.44-.64.76-.52.84-1.08,1.8-1.76,2.72-.08-1.6-.12-3.24-.12-4.84a49.987,49.987,0,0,1,1-10.36c.2-.96.36-1.96.56-2.92a5.785,5.785,0,0,0,.2-1.2c0-.56-.6-.56-1.04-.56-.76,0-1.72-.16-2.48-.16-.68,0-.88.08-1,.72-.12.8-.24,2.16-.28,2.64-.36,4.16-.8,8.36-.8,12.56,0,1.36.12,8.44.64,9.2a2.007,2.007,0,0,0,.56.6,12.5,12.5,0,0,0,1.48.92A2.7,2.7,0,0,0,116.28-1.6ZM168.16-.48c5.56,0,12.04-2.12,12.04-8.68,0-5.52-4.84-8-9.76-8a24.144,24.144,0,0,0-4.16.52c2-2.04,3.44-3.64,5.12-5.52a14.82,14.82,0,0,1,1.08-1.16,26.633,26.633,0,0,1,2.24-2c.2-.16.68-.48.68-.8.04-.36-.32-.72-.52-1-.48-.56-1.12-1.2-1.56-1.64-.32-.28-.56-.48-.76-.48a2.7,2.7,0,0,0-.8.32,3.408,3.408,0,0,1-.88.32c-.68.08-1.72.12-2.56.2-1.72.16-3.48.2-5.24.2a20.1,20.1,0,0,1-2.16-.12,7.889,7.889,0,0,0-1.4-.28c-.44,0-.44.72-.44,1.08-.08.88-.12,2.44-.12,3.28,0,.32.12.48.44.48a8.906,8.906,0,0,0,1.44-.2c2.64-.28,5.04-.48,7.68-.64-2.52,3.2-5.28,6.12-8.08,9.04-.96,1-1.92,2-2.92,2.96-.28.24-1.16,1-1.96,1.64-.24.2-.72.4-.72.68a1.645,1.645,0,0,0,.48.84A21.68,21.68,0,0,0,157-7.56c.28.24.4.44.76.44.24,0,.6-.44.8-.64A29.908,29.908,0,0,1,162.08-11a13.825,13.825,0,0,1,8-2.68c2.92,0,5.96,1.12,5.96,4.52,0,2.6-2.12,3.92-4.4,4.4-.12-3.16-2.56-5.12-5.64-5.12-2.56,0-5.2,1.64-5.2,4.44C160.8-1.48,164.96-.48,168.16-.48Zm-.96-3.96c-.92,0-2.68-.2-2.68-1.4a1.34,1.34,0,0,1,1.44-1.2c.92,0,2.04.56,2.04,1.64a3.9,3.9,0,0,1-.08.96Z" transform="translate(-9423.38 -3940)"/><path d="M-32.48-1.88c.72,0,.72-.12.88-.72.24-.88.44-2,.68-2.88a5.7,5.7,0,0,0,.2-.8c0-.12-.08-.4-.2-.44-.36-.04-.52,0-1.08-.04-.72-.04-1.56-.08-1.8-.12a17.5,17.5,0,0,1-7.48-2.24,4.48,4.48,0,0,1-2.24-4,6.688,6.688,0,0,1,2.72-5.32,19.688,19.688,0,0,1,9.4-4.44A17.445,17.445,0,0,1-29.36-23c.28-.04.92-.04,1.44-.04.56.04,1-.12,1-.52a4.214,4.214,0,0,0-.2-1.04c-.28-.88-.52-1.92-.68-2.52-.16-.48-.28-.96-.68-.96a7.868,7.868,0,0,0-.96.12,24.876,24.876,0,0,1-2.88.4c-3.24.28-6.44.48-9.64.68-3.08.2-6.12.48-9.2.48-.64,0-1.24-.04-1.84-.04-.44-.04-.88-.12-1.32-.12-.56,0-.6.48-.6.96v3.12c0,.4.12.68.56.68a5.742,5.742,0,0,0,1.44-.28,35.184,35.184,0,0,1,4.12-.56c3.12-.28,6.24-.6,9.36-.84-.8.44-1.6.92-2.36,1.44-3.12,2.16-5.64,5.24-5.64,8.84,0,6.84,5.76,9.52,11.48,10.72A21.874,21.874,0,0,0-32.48-1.88Zm.84-12.16c.12,0,.28-.16.44-.32a10.16,10.16,0,0,1,.8-.92,1.028,1.028,0,0,0,.28-.48c0-.24-.36-.56-.6-.8a17.989,17.989,0,0,0-1.52-1.4c-.48-.44-1-.84-1.44-1.2-.28-.2-.52-.4-.64-.36-.2,0-.32.16-.52.32-.16.2-.52.48-.76.72-.12.12-.24.24-.2.36,0,.2.28.24.6.52a18.643,18.643,0,0,1,1.4,1.28c.44.44,1.12,1.2,1.6,1.76C-31.96-14.28-31.8-14.04-31.64-14.04Zm3.48-2.48c.12,0,.28-.12.44-.32.28-.32.56-.68.8-.92.16-.2.28-.32.28-.48,0-.24-.36-.52-.56-.76a18.95,18.95,0,0,0-1.56-1.44c-.48-.44-1-.84-1.44-1.2-.28-.2-.52-.4-.64-.36-.2,0-.32.16-.52.32-.16.2-.52.48-.76.72-.12.12-.24.24-.2.36,0,.2.28.24.6.52a18.643,18.643,0,0,1,1.4,1.28c.44.44,1.12,1.24,1.6,1.76C-28.48-16.76-28.32-16.52-28.16-16.52ZM.12-11.12a2.267,2.267,0,0,1-2.4-2.2A1.732,1.732,0,0,1-.64-15.2c1.64,0,1.96,1.24,1.96,2.6C1.32-11.84.96-11.12.12-11.12ZM-5.96.72A7.882,7.882,0,0,0-4.8.56,24.894,24.894,0,0,0-.6-.96c4.16-2.2,6.28-5.28,6.28-9.96,0-2-.32-3.96-.4-5.96-.04-1.32-.12-2.64-.12-4,1.84.08,3.68.12,5.52.28,1.04.08,2.04.16,3.08.2a20.431,20.431,0,0,0,2.2.2c.72,0,.68-.28.72-.84.08-.96.16-2.56.16-2.92,0-.52,0-.88-.48-.88-.68,0-1.36.12-2.04.16q-1.2.12-2.4.12c-2.2,0-4.44-.08-6.64-.12a44.964,44.964,0,0,1,.16-4.64,10.328,10.328,0,0,0,.12-1.16c0-.48-.36-.48-.8-.52a8.37,8.37,0,0,0-1.04-.04c-.8,0-1.6.04-1.84.04-.48,0-.92-.04-.92.48a13.685,13.685,0,0,0,.16,1.84c.08,1.32.12,2.68.08,4-1.96,0-3.92.04-5.84.12-1.96.08-4.08.2-6.04.2a9.232,9.232,0,0,1-1.48-.12,7.868,7.868,0,0,0-.96-.12c-.6,0-.52.72-.52,1.16-.08.92-.08,1.8-.08,2.72,0,.44,0,.84.52.84.4,0,.76-.16,1.2-.16,2.68-.24,5.36-.64,8.08-.84C-2.2-21-.48-21,1.24-21l.04,2.6a6.488,6.488,0,0,0-1.96-.32A5.261,5.261,0,0,0-6-13.32C-6-9.64-3.08-7.36.44-7.36a1.761,1.761,0,0,0,.64-.08A6.777,6.777,0,0,1-3-4.28a25.755,25.755,0,0,1-4.64.92c-.32.04-.76.04-.76.4a1.729,1.729,0,0,0,.32.76A20.27,20.27,0,0,0-6.72,0C-6.52.32-6.36.72-5.96.72ZM29.4,2.64a6.275,6.275,0,0,0,6.4-6.2A6.309,6.309,0,0,0,29.4-9.8a6.3,6.3,0,0,0-6.36,6.24A6.292,6.292,0,0,0,29.4,2.64Zm0-3.04a3.254,3.254,0,0,1-3.32-3.16,3.261,3.261,0,0,1,3.32-3.2,3.271,3.271,0,0,1,3.36,3.2A3.264,3.264,0,0,1,29.4-.4Z" transform="translate(-8964.38 -3940)"/></g></svg>