<svg xmlns="http://www.w3.org/2000/svg" xmlns:xlink="http://www.w3.org/1999/xlink" width="1920" height="784" viewBox="0 0 1920 784"><defs><clipPath id="a"><rect width="1920" height="784" transform="translate(0 868)" fill="#fff" stroke="#707070" stroke-width="1"/></clipPath><clipPath id="b"><rect width="274" height="760.539" fill="none"/></clipPath><clipPath id="c"><rect width="354.202" height="678.806" fill="none"/></clipPath></defs><g transform="translate(0 -868)" clip-path="url(#a)"><rect width="1920" height="784" transform="translate(-518.531 2597)" fill="#004a83"/><rect width="1040" height="482" transform="translate(441.469 1055.75)" fill="#fff"/><g transform="translate(1.469)"><g transform="translate(1666.43 868)"><rect width="353" height="784" transform="translate(13.57)" fill="#fff"/><path d="M14,14V770H339V14H14M0,0H353V784H0Z" transform="translate(13.57)" fill="#413e37"/><g transform="translate(16.57 13.267)" clip-path="url(#b)"><g transform="translate(-259.253 -910.267)"><path d="M-8531.747-4445.733v976.539" transform="translate(8793 5356)" fill="none" stroke="#413e37" stroke-width="4"/></g><g transform="translate(-175.253 -910.267)"><path d="M-8531.747-4445.733v976.539" transform="translate(8793 5356)" fill="none" stroke="#413e37" stroke-width="4"/></g><g transform="translate(-91.253 -910.267)"><path d="M-8531.747-4445.733v976.539" transform="translate(8793 5356)" fill="none" stroke="#413e37" stroke-width="4"/></g><g transform="translate(-7.253 -910.267)"><path d="M-8531.747-4445.733v976.539" transform="translate(8793 5356)" fill="none" stroke="#413e37" stroke-width="4"/></g></g><g transform="translate(23 95)" clip-path="url(#c)"><g transform="translate(32.57 -978.667)"><path d="M-8474.368-4375.333h-354.2" transform="translate(8796 5356)" fill="none" stroke="#413e37" stroke-width="4"/></g><g transform="translate(32.57 -894.667)"><path d="M-8474.368-4375.333h-354.2" transform="translate(8796 5356)" fill="none" stroke="#413e37" stroke-width="4"/></g><g transform="translate(32.57 -810.667)"><path d="M-8474.368-4375.333h-354.2" transform="translate(8796 5356)" fill="none" stroke="#413e37" stroke-width="4"/></g><g transform="translate(32.57 -726.667)"><path d="M-8474.368-4375.333h-354.2" transform="translate(8796 5356)" fill="none" stroke="#413e37" stroke-width="4"/></g><g transform="translate(32.57 -642.667)"><path d="M-8474.368-4375.333h-354.2" transform="translate(8796 5356)" fill="none" stroke="#413e37" stroke-width="4"/></g><g transform="translate(32.57 -558.667)"><path d="M-8474.368-4375.333h-354.2" transform="translate(8796 5356)" fill="none" stroke="#413e37" stroke-width="4"/></g><g transform="translate(32.57 -474.667)"><path d="M-8474.368-4375.333h-354.2" transform="translate(8796 5356)" fill="none" stroke="#413e37" stroke-width="4"/></g><g transform="translate(32.57 -390.667)"><path d="M-8474.368-4375.333h-354.2" transform="translate(8796 5356)" fill="none" stroke="#413e37" stroke-width="4"/></g><g transform="translate(32.57 -306.667)"><path d="M-8474.368-4375.333h-354.2" transform="translate(8796 5356)" fill="none" stroke="#413e37" stroke-width="4"/></g></g></g><rect width="20" height="784" transform="translate(1660 868)" fill="#413e37"/></g><g transform="translate(1.469)"><g transform="translate(-94 -29)"><rect width="353" height="784" transform="translate(-19 897)" fill="#fff"/><path d="M14,14V770H339V14H14M0,0H353V784H0Z" transform="translate(-19 897)" fill="#413e37"/><g transform="translate(-16 910.267)" clip-path="url(#b)"><g transform="translate(-259.253 -910.267)"><path d="M-8531.747-4445.733v976.539" transform="translate(8793 5356)" fill="none" stroke="#413e37" stroke-width="4"/></g><g transform="translate(-175.253 -910.267)"><path d="M-8531.747-4445.733v976.539" transform="translate(8793 5356)" fill="none" stroke="#413e37" stroke-width="4"/></g><g transform="translate(-91.253 -910.267)"><path d="M-8531.747-4445.733v976.539" transform="translate(8793 5356)" fill="none" stroke="#413e37" stroke-width="4"/></g><g transform="translate(-7.253 -910.267)"><path d="M-8531.747-4445.733v976.539" transform="translate(8793 5356)" fill="none" stroke="#413e37" stroke-width="4"/></g></g><g transform="translate(-32.57 992)" clip-path="url(#c)"><g transform="translate(32.57 -978.667)"><path d="M-8474.368-4375.333h-354.2" transform="translate(8796 5356)" fill="none" stroke="#413e37" stroke-width="4"/></g><g transform="translate(32.57 -894.667)"><path d="M-8474.368-4375.333h-354.2" transform="translate(8796 5356)" fill="none" stroke="#413e37" stroke-width="4"/></g><g transform="translate(32.57 -810.667)"><path d="M-8474.368-4375.333h-354.2" transform="translate(8796 5356)" fill="none" stroke="#413e37" stroke-width="4"/></g><g transform="translate(32.57 -726.667)"><path d="M-8474.368-4375.333h-354.2" transform="translate(8796 5356)" fill="none" stroke="#413e37" stroke-width="4"/></g><g transform="translate(32.57 -642.667)"><path d="M-8474.368-4375.333h-354.2" transform="translate(8796 5356)" fill="none" stroke="#413e37" stroke-width="4"/></g><g transform="translate(32.57 -558.667)"><path d="M-8474.368-4375.333h-354.2" transform="translate(8796 5356)" fill="none" stroke="#413e37" stroke-width="4"/></g><g transform="translate(32.57 -474.667)"><path d="M-8474.368-4375.333h-354.2" transform="translate(8796 5356)" fill="none" stroke="#413e37" stroke-width="4"/></g><g transform="translate(32.57 -390.667)"><path d="M-8474.368-4375.333h-354.2" transform="translate(8796 5356)" fill="none" stroke="#413e37" stroke-width="4"/></g><g transform="translate(32.57 -306.667)"><path d="M-8474.368-4375.333h-354.2" transform="translate(8796 5356)" fill="none" stroke="#413e37" stroke-width="4"/></g></g></g><rect width="20" height="784" transform="translate(240 868)" fill="#413e37"/></g><g transform="translate(1.469 -28.25)"><path d="M324.136,229.895H42.167C18.975,229.895,0,209.322,0,184.176s18.975-45.717,42.167-45.717H324.136c23.192,0,42.167,20.573,42.167,45.717s-18.975,45.718-42.167,45.718" transform="translate(-32.565 1019.269)" fill="#f5e16e"/><path d="M176.092,229.742a10.522,10.522,0,0,0,10.523-10.523h0a10.523,10.523,0,0,0-10.523-10.523H151.086a10.522,10.522,0,0,1-10.523-10.523h0a10.522,10.522,0,0,1,10.523-10.523h78.188A10.523,10.523,0,0,0,239.8,177.126v0A10.523,10.523,0,0,0,229.274,166.6H101.935a10.522,10.522,0,0,0-10.523,10.523v0a10.523,10.523,0,0,0,10.523,10.523h9.931a10.522,10.522,0,0,1,10.523,10.523h0a10.522,10.522,0,0,1-10.523,10.523H54.725A10.524,10.524,0,0,0,44.2,219.218h0a10.523,10.523,0,0,0,10.523,10.523Z" transform="translate(-16.578 1025.1)" fill="#fffabe"/><rect width="448" height="105" rx="52.5" transform="translate(125 1053.25)" fill="#f5e16e"/><path d="M289.42,26.8h46.847a13.375,13.375,0,0,0,13.352-13.4v0A13.375,13.375,0,0,0,336.267,0h-127.2a13.374,13.374,0,0,0-13.352,13.4v0a13.374,13.374,0,0,0,13.352,13.4h30.584a13.374,13.374,0,0,1,13.352,13.4v0a13.375,13.375,0,0,1-13.352,13.4H185.272a13.374,13.374,0,0,0-13.352,13.4v0a13.374,13.374,0,0,0,13.352,13.4H321.031a13.375,13.375,0,0,1,13.352,13.4h0a13.374,13.374,0,0,1-13.352,13.4H270.512a13.375,13.375,0,0,0-13.352,13.4v0a13.374,13.374,0,0,0,13.352,13.4H393.16a13.374,13.374,0,0,0,13.352-13.4v0a13.375,13.375,0,0,0-13.352-13.4H376.688a13.374,13.374,0,0,1-13.352-13.4h0a13.375,13.375,0,0,1,13.352-13.4H447.52a13.374,13.374,0,0,0,13.352-13.4v0a13.374,13.374,0,0,0-13.352-13.4H289.42a13.375,13.375,0,0,1-13.352-13.4v0A13.374,13.374,0,0,1,289.42,26.8" transform="translate(0.601 1038.763)" fill="#fffabe"/></g><g transform="translate(43.416 -42.989)"><rect width="56" height="7" rx="3.5" transform="translate(1534.054 1554.989)" fill="#f5e16e"/><path d="M48.048,215.363H369.341c26.427,0,48.048-17.3,48.048-38.452s-21.621-38.452-48.048-38.452H48.048C21.621,138.459,0,155.762,0,176.911s21.621,38.452,48.048,38.452" transform="translate(1531.324 1519.958)" fill="#f5e16e"/><path d="M162.946,27.828H481.927c.674,0,1.343.019,2.009.054a51.088,51.088,0,0,1,48.807,50.879h0A51.084,51.084,0,0,1,481.809,129.7H355.7v-.11h.018a12.791,12.791,0,0,0,12.791-12.791v0A12.791,12.791,0,0,0,355.722,104H355.7v-.047H162.946a38.064,38.064,0,0,1,0-76.127" transform="translate(1202.512 1529.143)" fill="#f5e16e"/><path d="M121.316,243.033A12.737,12.737,0,0,1,108.578,230.3v0a12.738,12.738,0,0,1,12.738-12.738h30.27a12.737,12.737,0,0,0,12.738-12.738h0a12.737,12.737,0,0,0-12.738-12.738H56.94A12.739,12.739,0,0,1,44.2,179.342v0A12.738,12.738,0,0,1,56.94,166.6H211.083a12.737,12.737,0,0,1,12.738,12.738v0a12.738,12.738,0,0,1-12.738,12.738H199.062a12.737,12.737,0,0,0-12.738,12.738h0a12.737,12.737,0,0,0,12.738,12.738h69.169a12.739,12.739,0,0,1,12.739,12.738v0a12.738,12.738,0,0,1-12.739,12.738Z" transform="translate(1528.267 1517.621)" fill="#fffabe"/><path d="M338.055,28.511H292.661a12.938,12.938,0,0,1-12.938-12.938v0A12.938,12.938,0,0,1,292.661,2.633H415.913a12.938,12.938,0,0,1,12.938,12.938v0a12.938,12.938,0,0,1-12.938,12.938H386.277c-7.146,0-12.938,3.16-12.938,10.306v0a12.939,12.939,0,0,0,12.938,12.938h52.694A12.938,12.938,0,0,1,451.91,64.695v0a12.938,12.938,0,0,1-12.938,12.937H307.424a12.939,12.939,0,0,0-12.938,12.939h0a12.938,12.938,0,0,0,12.938,12.938h48.952a12.938,12.938,0,0,1,12.938,12.938v0a12.938,12.938,0,0,1-12.938,12.938H237.532a12.938,12.938,0,0,1-12.938-12.938v0a12.939,12.939,0,0,1,12.938-12.938h15.962a12.938,12.938,0,0,0,12.938-12.938h0a12.939,12.939,0,0,0-12.938-12.939H184.858A12.938,12.938,0,0,1,171.92,64.7v0a12.938,12.938,0,0,1,12.938-12.938h153.2a12.939,12.939,0,0,0,12.938-12.938v0c0-7.146-5.792-10.306-12.938-10.306" transform="translate(1240.212 1529.449)" fill="#fffabe"/></g></g></svg>