<svg xmlns="http://www.w3.org/2000/svg" xmlns:xlink="http://www.w3.org/1999/xlink" width="547" height="195" viewBox="0 0 547 195"><defs><clipPath id="a"><rect width="547" height="195" transform="translate(1373 5329)" fill="#fff" stroke="#707070" stroke-width="1"/></clipPath></defs><g transform="translate(-1373 -5329)" clip-path="url(#a)"><g transform="translate(11210.765 5565)"><path d="M1211.406,66.56c-5.529-4.669-7.823-9.844-7.077-14.454h-68.608c.747,4.61-1.544,9.785-7.078,14.454a41.473,41.473,0,0,1-11.465,6.657h105.7a41.441,41.441,0,0,1-11.469-6.657" transform="translate(-10493 -236)" fill="#e8380d"/><path d="M1216.141,69.911c-.331-.2-.664-.4-.987-.608v3.914h.987Z" transform="translate(-10493 -236)" fill="#deb253"/><path d="M1211.479,66.617c-.025-.02-.052-.038-.073-.058-.316-.269-.623-.538-.92-.81v7.468h.993Z" transform="translate(-10493 -236)" fill="#deb253"/><path d="M1206.813,61.552a17.9,17.9,0,0,1-.993-1.642V73.217h.993Z" transform="translate(-10493 -236)" fill="#deb253"/><rect width="0.989" height="21.111" transform="translate(-9291.843 -183.895)" fill="#deb253"/><path d="M1220.808,72.34c-.329-.148-.662-.3-.988-.453v1.33h.988Z" transform="translate(-10493 -236)" fill="#deb253"/><rect width="0.987" height="21.111" transform="translate(-9329.165 -183.894)" fill="#deb253"/><rect width="0.99" height="21.111" transform="translate(-9338.498 -183.894)" fill="#deb253"/><rect width="0.988" height="21.111" transform="translate(-9347.829 -183.894)" fill="#deb253"/><path d="M1126.507,68.21v5.007h.992V67.48c-.321.249-.656.491-.992.73" transform="translate(-10493 -236)" fill="#deb253"/><rect width="0.987" height="21.111" transform="translate(-9296.507 -183.895)" fill="#deb253"/><rect width="0.992" height="21.111" transform="translate(-9301.174 -183.895)" fill="#deb253"/><rect width="0.994" height="21.111" transform="translate(-9310.506 -183.895)" fill="#deb253"/><rect width="0.991" height="21.111" transform="translate(-9319.836 -183.895)" fill="#deb253"/><path d="M1135.84,53.345V54.3c.014-.32.014-.635,0-.951" transform="translate(-10493 -236)" fill="#deb253"/><path d="M1135.84,52.1v1.24c.014.316.014.631,0,.951v18.92h.989V52.1Z" transform="translate(-10493 -236)" fill="#deb253"/><rect width="0.994" height="21.111" transform="translate(-9315.173 -183.895)" fill="#deb253"/><path d="M1117.179,73.217h.991v-.412c-.33.138-.658.279-.991.412" transform="translate(-10493 -236)" fill="#deb253"/><rect width="0.99" height="21.111" transform="translate(-9305.84 -183.895)" fill="#deb253"/><rect width="0.988" height="21.111" transform="translate(-9333.832 -183.894)" fill="#deb253"/><path d="M1121.845,71.08v2.137h.989V70.535c-.327.182-.654.368-.989.545" transform="translate(-10493 -236)" fill="#deb253"/><rect width="0.987" height="21.111" transform="translate(-9324.499 -183.894)" fill="#deb253"/><rect width="0.99" height="21.111" transform="translate(-9343.162 -183.894)" fill="#deb253"/><rect width="0.99" height="21.111" transform="translate(-9352.494 -183.894)" fill="#deb253"/><path d="M1131.174,64.145v9.072h.989V63.01c-.306.38-.641.757-.989,1.135" transform="translate(-10493 -236)" fill="#deb253"/><path d="M1223.607,112.6c-7.16-6.043-10.13-12.744-9.161-18.715H1125.6c.968,5.971-2,12.672-9.161,18.715a53.849,53.849,0,0,1-14.85,8.624h136.866a53.889,53.889,0,0,1-14.852-8.624" transform="translate(-10493 -236)" fill="#e8380d"/><path d="M1237.883,120.983c-.332-.134-.661-.271-.99-.409v.65h.99Z" transform="translate(-10493 -236)" fill="#deb253"/><path d="M1233.217,118.859c-.329-.169-.663-.335-.99-.507v2.872h.99Z" transform="translate(-10493 -236)" fill="#deb253"/><path d="M1228.55,116.218c-.334-.214-.66-.438-.987-.659v5.666h.987Z" transform="translate(-10493 -236)" fill="#deb253"/><path d="M1223.884,112.825c-.088-.075-.186-.145-.276-.225-.245-.205-.477-.417-.711-.627v9.251h.987Z" transform="translate(-10493 -236)" fill="#deb253"/><rect width="0.991" height="27.339" transform="translate(-9293.432 -142.114)" fill="#deb253"/><rect width="0.989" height="27.339" transform="translate(-9298.097 -142.114)" fill="#deb253"/><rect width="0.992" height="27.339" transform="translate(-9302.764 -142.114)" fill="#deb253"/><rect width="0.993" height="27.339" transform="translate(-9307.43 -142.114)" fill="#deb253"/><path d="M1219.219,108.2c-.348-.422-.68-.844-.989-1.268v14.291h.989Z" transform="translate(-10493 -236)" fill="#deb253"/><path d="M1214.556,98.938a14.411,14.411,0,0,1-.109-5.052h-.883v27.339h.992Z" transform="translate(-10493 -236)" fill="#deb253"/><rect width="0.99" height="27.339" transform="translate(-9284.099 -142.114)" fill="#deb253"/><rect width="0.988" height="27.339" transform="translate(-9288.765 -142.114)" fill="#deb253"/><rect width="0.989" height="27.339" transform="translate(-9344.751 -142.114)" fill="#deb253"/><rect width="0.989" height="27.339" transform="translate(-9354.084 -142.114)" fill="#deb253"/><rect width="0.989" height="27.339" transform="translate(-9363.413 -142.114)" fill="#deb253"/><path d="M1110.924,116.57v4.654h.99v-5.285q-.489.321-.99.631" transform="translate(-10493 -236)" fill="#deb253"/><rect width="0.988" height="27.339" transform="translate(-9312.092 -142.114)" fill="#deb253"/><rect width="0.987" height="27.339" transform="translate(-9316.758 -142.114)" fill="#deb253"/><rect width="0.99" height="27.339" transform="translate(-9326.091 -142.114)" fill="#deb253"/><rect width="0.993" height="27.339" transform="translate(-9335.424 -142.114)" fill="#deb253"/><path d="M1120.254,108.878v12.347h.99V107.687c-.314.4-.642.8-.99,1.191" transform="translate(-10493 -236)" fill="#deb253"/><rect width="0.992" height="27.339" transform="translate(-9330.757 -142.114)" fill="#deb253"/><path d="M1101.594,121.225h.991v-.412c-.333.138-.656.279-.991.412" transform="translate(-10493 -236)" fill="#deb253"/><rect width="0.988" height="27.339" transform="translate(-9321.425 -142.114)" fill="#deb253"/><rect width="0.987" height="27.339" transform="translate(-9349.416 -142.114)" fill="#deb253"/><path d="M1106.26,119.148v2.077h.988v-2.574c-.327.168-.657.335-.988.5" transform="translate(-10493 -236)" fill="#deb253"/><rect width="0.99" height="27.339" transform="translate(-9340.086 -142.114)" fill="#deb253"/><rect width="0.992" height="27.339" transform="translate(-9358.749 -142.114)" fill="#deb253"/><path d="M1125.6,93.886a14.97,14.97,0,0,1-.685,7.227v20.112h.991V93.886Z" transform="translate(-10493 -236)" fill="#deb253"/><path d="M1116.44,112.6c-.277.234-.568.458-.853.686v7.938h.99v-8.744c-.047.041-.087.081-.137.12" transform="translate(-10493 -236)" fill="#deb253"/><path d="M1170.026,6.782a7.705,7.705,0,0,1-7.053-4.6,7.7,7.7,0,1,0,14.106,0,7.709,7.709,0,0,1-7.053,4.6" transform="translate(-10493 -236)" fill="#deb253"/><path d="M1185.174,14.191a87.812,87.812,0,0,1-15.125-10.078l-.022.01-.025-.01a87.64,87.64,0,0,1-15.128,10.078,110.976,110.976,0,0,1-29.026,10.655H1214.2a111.061,111.061,0,0,1-29.029-10.655" transform="translate(-10493 -236)" fill="#e8380d"/><path d="M1176.236,13.616a35.885,35.885,0,0,1-6.2-4.13l-.007,0-.01,0a35.885,35.885,0,0,1-6.2,4.13,45.505,45.505,0,0,1-11.892,4.368h36.205a45.485,45.485,0,0,1-11.893-4.368" transform="translate(-10493 -236)" fill="#deb253"/><path d="M1204.727,24.847h-69.4l3.6,4.25h62.2Z" transform="translate(-10493 -236)" fill="#deb253"/><path d="M1171.192,13.734a1.169,1.169,0,1,1-1.166-1.257,1.214,1.214,0,0,1,1.166,1.257" transform="translate(-10493 -236)" fill="#e8380d"/><path d="M1170.026,1.032c-2.3,0-4.171,3.189-4.171,7.118h8.34c0-3.929-1.865-7.118-4.169-7.118" transform="translate(-10493 -236)" fill="#deb253"/><rect width="57.039" height="23.009" transform="translate(-9351.492 -206.904)" fill="#deb253"/><rect width="2.203" height="10.407" transform="translate(-9334.071 -202.857)" fill="#e8380d"/><rect width="2.202" height="10.407" transform="translate(-9344.072 -202.857)" fill="#e8380d"/><rect width="2.204" height="10.407" transform="translate(-9314.078 -202.857)" fill="#e8380d"/><rect width="2.203" height="10.407" transform="translate(-9304.08 -202.857)" fill="#e8380d"/><path d="M1142.883,50.182h5.707V52.1h.939V50.182h5V52.1h1.407V50.182h5.005V52.1h.937V50.182h5.71V52.1H1169v-4.64h-27.519V52.1h1.406Zm13.056-2.188h11.652v1.657h-11.652Zm-13.056,0h11.649v1.657h-11.649Z" transform="translate(-10493 -236)" fill="#e8380d"/><path d="M1172.463,50.182h5.707V52.1h.938V50.182h5.006V52.1h1.405V50.182h5.006V52.1h.937V50.182h5.707V52.1h1.408v-4.64h-27.523V52.1h1.409Zm13.056-2.188h11.65v1.657h-11.65Zm-13.056,0h11.651v1.657h-11.651Z" transform="translate(-10493 -236)" fill="#e8380d"/><rect width="5.673" height="2.565" transform="translate(-9325.813 -234.452)" fill="#deb253"/><rect width="0.916" height="4.113" transform="translate(-9323.432 -236)" fill="#deb253"/><path d="M1170.026,41.634c-1.72,0-3.115,2.379-3.115,5.313h6.228c0-2.934-1.4-5.313-3.113-5.313" transform="translate(-10493 -236)" fill="#deb253"/><path d="M1181.333,51.452a65.21,65.21,0,0,1-11.288-7.52l-.019.008-.018-.008a65.281,65.281,0,0,1-11.287,7.52,82.784,82.784,0,0,1-21.663,7.952h65.933a82.729,82.729,0,0,1-21.658-7.952" transform="translate(-10493 -236)" fill="#deb253"/><path d="M1178.4,53.514a48.328,48.328,0,0,1-8.358-5.574l-.016.008-.012-.008a48.564,48.564,0,0,1-8.365,5.574A61.4,61.4,0,0,1,1145.6,59.4h48.843a61.359,61.359,0,0,1-16.047-5.891" transform="translate(-10493 -236)" fill="#e8380d"/><path d="M1195.92,59.4h-51.786l2.682,3.171h46.421Z" transform="translate(-10493 -236)" fill="#deb253"/><rect width="76.959" height="20.669" transform="translate(-9361.453 -162.783)" fill="#deb253"/><rect width="2.974" height="8.541" transform="translate(-9337.95 -157.378)" fill="#e8380d"/><rect width="2.973" height="8.541" transform="translate(-9351.44 -157.378)" fill="#e8380d"/><rect width="2.972" height="8.541" transform="translate(-9310.971 -157.378)" fill="#e8380d"/><rect width="2.969" height="8.541" transform="translate(-9297.48 -157.378)" fill="#e8380d"/><path d="M1130.874,91.109h8.233v2.777h1.35V91.109h7.221v2.777h2.029V91.109h7.218v2.777h1.353V91.109h8.234v2.777h2.025v-6.7h-39.695v6.7h2.032Zm18.833-3.154h16.8v2.391h-16.8Zm-18.833,0h16.8v2.391h-16.8Z" transform="translate(-10493 -236)" fill="#e8380d"/><path d="M1173.542,91.109h8.23v2.777h1.355V91.109h7.219v2.777h2.028V91.109h7.217v2.777h1.354V91.109h8.234v2.777h2.029v-6.7h-39.694v6.7h2.028Zm18.832-3.154h16.8v2.391h-16.8Zm-18.832,0h16.8v2.391h-16.8Z" transform="translate(-10493 -236)" fill="#e8380d"/><rect width="99.65" height="26.761" transform="translate(-9372.798 -114.776)" fill="#deb253"/><rect width="3.847" height="12.827" transform="translate(-9342.366 -110.783)" fill="#e8380d"/><rect width="3.849" height="12.827" transform="translate(-9359.83 -110.783)" fill="#e8380d"/><rect width="3.847" height="12.827" transform="translate(-9307.431 -110.783)" fill="#e8380d"/><rect width="3.85" height="12.827" transform="translate(-9289.966 -110.783)" fill="#e8380d"/><path d="M1148.945,84.862c-1.2,0-2.17,2.191-2.17,4.888h4.346c0-2.7-.977-4.888-2.176-4.888" transform="translate(-10493 -236)" fill="#deb253"/><path d="M1156.832,93.9a47.189,47.189,0,0,1-7.874-6.923l-.013.008-.009-.008a47.2,47.2,0,0,1-7.874,6.923,49.8,49.8,0,0,1-15.106,7.314h45.984a49.75,49.75,0,0,1-15.108-7.314" transform="translate(-10493 -236)" fill="#deb253"/><path d="M1154.789,95.794a34.99,34.99,0,0,1-5.833-5.126l-.011,0-.007,0a34.947,34.947,0,0,1-5.833,5.126,36.894,36.894,0,0,1-11.192,5.42h34.068a36.83,36.83,0,0,1-11.192-5.42" transform="translate(-10493 -236)" fill="#e8380d"/><path d="M1167.007,101.214h-36.121l1.873,2.917h32.375Z" transform="translate(-10493 -236)" fill="#deb253"/><path d="M1191.1,84.862c-1.2,0-2.174,2.191-2.174,4.888h4.344c0-2.7-.971-4.888-2.17-4.888" transform="translate(-10493 -236)" fill="#deb253"/><path d="M1198.99,93.9a47.19,47.19,0,0,1-7.873-6.923l-.012.008-.016-.008a47.158,47.158,0,0,1-7.87,6.923,49.786,49.786,0,0,1-15.106,7.314H1214.1A49.753,49.753,0,0,1,1198.99,93.9" transform="translate(-10493 -236)" fill="#deb253"/><path d="M1196.946,95.794a35.056,35.056,0,0,1-5.832-5.126l-.009,0-.008,0a35.069,35.069,0,0,1-5.833,5.126,36.923,36.923,0,0,1-11.193,5.42h34.065a36.864,36.864,0,0,1-11.19-5.42" transform="translate(-10493 -236)" fill="#e8380d"/><path d="M1209.167,101.214h-36.123l1.87,2.917h32.38Z" transform="translate(-10493 -236)" fill="#deb253"/><path d="M1230.811,147.985H1109.242c4.5,15.5-.768,33.77-14.429,46.724h150.422c-13.66-12.954-18.924-31.227-14.424-46.724" transform="translate(-10493 -236)" fill="#e8380d"/><path d="M1119.617,155.332c-.313,1.627.7,2.836-.13,2.836h-6.022c-.827,0-1.5-1.346-1.5-3V151.91c0-1.656,2.4-1.918,3.23-1.918l4.292-1.085c.832,0,1.5,1.347,1.5,3a25.379,25.379,0,0,0-1.373,3.422" transform="translate(-10493 -236)" fill="#deb253"/><path d="M1125.725,165.7c0,1.659-2.131,2.253-3.4,2.253l-8.071.751c-1.264,0-.885-1.368-1.161-3a26.414,26.414,0,0,0-1.129-3.254,2.509,2.509,0,0,1,2.632-2.5l8.838-.5c1.264,0,1.84,1.26,1.84,2.92Z" transform="translate(-10493 -236)" fill="#deb253"/><path d="M1115.075,191.473c-.556,1.378,1.239,2.4-.229,2.4h-10.677a2.6,2.6,0,0,1-2.663-2.541v-2.751c0-1.4,4.635.418,6.087.16a56.961,56.961,0,0,0,7.253-2.7,2.6,2.6,0,0,1,2.662,2.542,18.4,18.4,0,0,0-2.433,2.892" transform="translate(-10493 -236)" fill="#deb253"/><path d="M1125.485,173.248a4.544,4.544,0,0,1-4.545,4.544h-6.887a4.543,4.543,0,0,1-4.547-4.544c0-2.515,3.107-2.6,5.622-2.6l5.812-1.949a4.546,4.546,0,0,1,4.545,4.549" transform="translate(-10493 -236)" fill="#deb253"/><path d="M1106.564,180.6c.05-1.217,2.2-1.569,3.462-1.521l8.088-.237c1.263.052.843,1.042,1.071,2.254a16.418,16.418,0,0,0,1.035,2.433c-.047,1.22-1.435,1.785-2.7,1.738l-8.85.02c-1.258-.051-1.8-1-1.752-2.216Z" transform="translate(-10493 -236)" fill="#deb253"/><path d="M1127.371,171.385c-.551-1.563-2.036-2.094-1.319-2.513l5.2-3.042c.714-.419,1.974.4,2.812,1.834l1.643,2.809c.837,1.43-1.1,2.867-1.82,3.288l-3.158,3.1c-.713.417-1.974-.4-2.813-1.835a24.7,24.7,0,0,0-.544-3.646" transform="translate(-10493 -236)" fill="#deb253"/><path d="M1132.834,191.584c0,1.658-2.133,2.249-3.4,2.249l-8.077.752c-1.258,0-.879-1.368-1.156-3a26.539,26.539,0,0,0-1.132-3.25,2.509,2.509,0,0,1,2.633-2.506l8.84-.5c1.265,0,1.84,1.26,1.84,2.92Z" transform="translate(-10493 -236)" fill="#deb253"/><path d="M1143.336,162.545c.712-1.3-.955-2.529.506-2.357l10.607,1.236a2.6,2.6,0,0,1,2.348,2.833l-.318,2.733c-.163,1.392-4.559-.952-6.025-.863a56.559,56.559,0,0,0-7.52,1.841,2.6,2.6,0,0,1-2.348-2.83,18.265,18.265,0,0,0,2.75-2.593" transform="translate(-10493 -236)" fill="#deb253"/><path d="M1141.561,160.865a4.144,4.144,0,0,1-4.144,4.146h-6.275a4.146,4.146,0,0,1-4.145-4.146c0-2.287,2.836-2.367,5.123-2.367l5.3-1.776a4.143,4.143,0,0,1,4.144,4.143" transform="translate(-10493 -236)" fill="#deb253"/><path d="M1135.54,155.511c-.139,1.212-2.309,1.4-3.565,1.257l-8.082-.37c-1.255-.146-.761-1.1-.9-2.328a16.577,16.577,0,0,0-.85-2.5c.138-1.212,1.567-1.672,2.827-1.53l8.818.645c1.257.142,1.724,1.128,1.584,2.34Z" transform="translate(-10493 -236)" fill="#deb253"/><path d="M1158.472,163.485c-.543-2.157-2.3-3.163-1.4-3.557l6.514-2.867c.9-.4,2.351.944,3.251,2.985l1.763,4.007c.9,2.044-1.558,3.507-2.456,3.9l-4.057,3.379c-.893.4-2.352-.94-3.249-2.984a36.445,36.445,0,0,0-.37-4.865" transform="translate(-10493 -236)" fill="#deb253"/><path d="M1134.948,187.559c.189-1.244,2.366-1.365,3.616-1.175l8.068.655c1.251.2.714,1.164.8,2.43a17.665,17.665,0,0,0,.746,2.611c-.189,1.244-1.638,1.671-2.887,1.477l-8.794-.96c-1.25-.194-1.675-1.225-1.485-2.469Z" transform="translate(-10493 -236)" fill="#deb253"/><path d="M1124.634,180.2c.6-.907-1.159-1.687.309-1.613l10.666.519c1.468.074,2.619.9,2.577,1.853l-.093,1.864c-.05.949-4.62-.512-6.073-.406a74.419,74.419,0,0,0-7.339,1.474c-1.465-.07-2.62-.9-2.571-1.851a15.308,15.308,0,0,0,2.524-1.84" transform="translate(-10493 -236)" fill="#deb253"/><path d="M1142.688,168.983a4.552,4.552,0,0,1,4.59,4.506l.065,6.884a4.546,4.546,0,0,1-4.5,4.59c-2.51.022-2.629-3.082-2.651-5.593l-2-5.795a4.545,4.545,0,0,1,4.5-4.592" transform="translate(-10493 -236)" fill="#deb253"/><path d="M1137.215,151.654c.048-1.218,3.192-1.535,5.048-1.459l11.869-.089c1.856.071,1.255,1.055,1.612,2.275a15.14,15.14,0,0,0,1.564,2.453c-.046,1.216-2.076,1.761-3.932,1.689l-12.984-.14c-1.855-.074-2.662-1.034-2.617-2.251Z" transform="translate(-10493 -236)" fill="#deb253"/><path d="M1155.1,172.295c1.577.572,2.915-.64,2.8.45l-.787,7.9c-.107,1.092-1.535,1.839-3.181,1.675l-3.238-.323c-1.649-.166-1.6-3.34-1.49-4.429l-.516-5.739c.1-1.088,1.533-1.837,3.185-1.671a22,22,0,0,0,3.223,2.14" transform="translate(-10493 -236)" fill="#deb253"/><path d="M1189.043,153.325c0,1.413-2.131,1.922-3.4,1.922l-8.073.642c-1.263,0-.885-1.17-1.157-2.566a20.8,20.8,0,0,0-1.132-2.776,2.376,2.376,0,0,1,2.63-2.136l8.839-.426c1.264,0,1.84,1.075,1.84,2.491Z" transform="translate(-10493 -236)" fill="#deb253"/><path d="M1170.879,163.482c-.12-1.48-2.185-1.59-.873-2.247l9.545-4.789a2.6,2.6,0,0,1,3.516,1.075l1.236,2.461c.63,1.253-4.33,1.705-5.509,2.586a56.492,56.492,0,0,0-5.275,5.666,2.6,2.6,0,0,1-3.517-1.076,18.133,18.133,0,0,0,.877-3.676" transform="translate(-10493 -236)" fill="#deb253"/><path d="M1157.914,153.089c.09-1.764,2.2-3.092,4.7-2.962l6.877.353c2.509.127,4.468,1.662,4.38,3.426s-3.2,1.666-5.707,1.538l-5.876,1.075c-2.506-.13-4.468-1.665-4.376-3.43" transform="translate(-10493 -236)" fill="#deb253"/><path d="M1167.046,187.8c.052-1.219,2.2-1.571,3.46-1.521l8.09-.237c1.264.049.841,1.039,1.07,2.251a16.449,16.449,0,0,0,1.035,2.436c-.048,1.217-1.434,1.786-2.7,1.734l-8.845.023c-1.264-.05-1.8-1-1.756-2.214Z" transform="translate(-10493 -236)" fill="#deb253"/><path d="M1184.149,176.119c1.1,2.958,3.028,4.6,2.284,4.968l-5.407,2.647c-.744.366-2.49-1.667-3.9-4.538l-2.757-5.635c-1.4-2.873.533-4.379,1.278-4.743l2.936-3.765c.743-.367,2.487,1.668,3.892,4.539,0,0,1.059,4.885,1.67,6.527" transform="translate(-10493 -236)" fill="#deb253"/><path d="M1174.095,179.061c0,1.659-2.338,2.252-3.723,2.252l-8.851.753c-1.385,0-.964-1.371-1.269-3a24.961,24.961,0,0,0-1.239-3.254,2.658,2.658,0,0,1,2.886-2.5l9.689-.5c1.385,0,2.015,1.26,2.015,2.92Z" transform="translate(-10493 -236)" fill="#deb253"/><path d="M1195.734,189.213c-.559,1.377,1.239,2.4-.229,2.4h-10.681a2.6,2.6,0,0,1-2.659-2.539v-2.754c0-1.4,4.635.42,6.084.16a56.75,56.75,0,0,0,7.256-2.7,2.606,2.606,0,0,1,2.662,2.541,17.953,17.953,0,0,0-2.433,2.9" transform="translate(-10493 -236)" fill="#deb253"/><path d="M1165.3,188.4a4.548,4.548,0,0,1-4.545,4.547h-6.887a4.549,4.549,0,0,1-4.547-4.547c0-2.513,3.11-2.6,5.621-2.6l5.813-1.948a4.546,4.546,0,0,1,4.545,4.547" transform="translate(-10493 -236)" fill="#deb253"/><path d="M1187.492,178.731c.048-1.219,2.2-1.568,3.459-1.52l8.09-.237c1.264.05.841,1.04,1.07,2.253a16.526,16.526,0,0,0,1.035,2.433c-.047,1.218-1.434,1.784-2.7,1.734l-8.845.023c-1.261-.047-1.8-1-1.755-2.214Z" transform="translate(-10493 -236)" fill="#deb253"/><path d="M1200.091,186.6c.478-1.587-.41-2.893.415-2.809l5.993.607c.824.087,1.358,1.49,1.193,3.139l-.33,3.236c-.167,1.652-2.584,1.67-3.409,1.584l-4.381.647c-.824-.086-1.356-1.489-1.191-3.138a25,25,0,0,0,1.71-3.266" transform="translate(-10493 -236)" fill="#deb253"/><path d="M1197.986,173.031c0,1.657-2.135,2.25-3.4,2.25l-8.074.752c-1.264,0-.882-1.367-1.159-3a26.139,26.139,0,0,0-1.128-3.251,2.507,2.507,0,0,1,2.631-2.505l8.837-.5c1.263,0,1.838,1.261,1.838,2.92Z" transform="translate(-10493 -236)" fill="#deb253"/><path d="M1205.637,177.4c1.036-1.167-.265-2.814,1.111-2.3l9.994,3.769a2.675,2.675,0,0,1,1.539,3.454l-1.026,2.725c-.525,1.391-4.183-2.049-5.637-2.3a54.638,54.638,0,0,0-7.793.113,2.672,2.672,0,0,1-1.543-3.454,18.97,18.97,0,0,0,3.355-2.009" transform="translate(-10493 -236)" fill="#deb253"/><path d="M1225.145,189.261a4.549,4.549,0,0,1-4.549,4.548h-6.883a4.549,4.549,0,0,1-4.546-4.548c0-2.513,3.107-2.6,5.619-2.6l5.81-1.947a4.546,4.546,0,0,1,4.549,4.546" transform="translate(-10493 -236)" fill="#deb253"/><path d="M1226.119,187.965c.054-1.361,1.984-1.777,3.115-1.734l7.256-.335c1.132.046.745,1.16.942,2.514a20.836,20.836,0,0,0,.909,2.716,2.183,2.183,0,0,1-2.442,1.971l-7.931.1c-1.132-.045-1.608-1.1-1.554-2.465Z" transform="translate(-10493 -236)" fill="#deb253"/><path d="M1230.336,181.947c-.436,1.629.958,2.835-.179,2.835h-8.249c-1.137,0-2.056-1.345-2.056-3v-3.255c0-1.659,3.291-1.92,4.425-1.92l5.88-1.083c1.137,0,2.056,1.344,2.056,3a21.561,21.561,0,0,0-1.877,3.422" transform="translate(-10493 -236)" fill="#deb253"/><path d="M1223.112,171.759c0,1.659-2.132,2.253-3.4,2.253l-8.076.75c-1.261,0-.88-1.369-1.157-3a26.61,26.61,0,0,0-1.131-3.251,2.509,2.509,0,0,1,2.634-2.5l8.838-.5c1.262,0,1.839,1.26,1.839,2.92Z" transform="translate(-10493 -236)" fill="#deb253"/><path d="M1210.066,151.979c1.483-.056,1.68-2.118,2.281-.774l4.384,9.737a2.6,2.6,0,0,1-1.225,3.469l-2.507,1.13c-1.281.575-1.525-4.4-2.354-5.617a56.848,56.848,0,0,0-5.44-5.5,2.609,2.609,0,0,1,1.223-3.472,18.263,18.263,0,0,0,3.638,1.031" transform="translate(-10493 -236)" fill="#deb253"/><path d="M1201.959,174.178a4.55,4.55,0,0,1-2.508-5.921l2.588-6.381a4.547,4.547,0,0,1,5.924-2.506c2.325.943,1.239,3.854.3,6.182l-.378,6.122a4.546,4.546,0,0,1-5.923,2.5" transform="translate(-10493 -236)" fill="#deb253"/><path d="M1185.569,161.145c.048-1.221,2.193-1.571,3.46-1.521l8.088-.236c1.264.05.842,1.041,1.07,2.253a16.478,16.478,0,0,0,1.035,2.433c-.047,1.219-1.434,1.785-2.7,1.737l-8.85.02c-1.259-.049-1.8-1-1.75-2.214Z" transform="translate(-10493 -236)" fill="#deb253"/><path d="M1228.225,155.166c0,1.656-2.039,2.25-3.244,2.25l-7.713.752c-1.209,0-.845-1.368-1.109-3.005a27.446,27.446,0,0,0-1.076-3.253,2.442,2.442,0,0,1,2.515-2.5l8.438-.5c1.21,0,1.758,1.261,1.758,2.92Z" transform="translate(-10493 -236)" fill="#deb253"/><path d="M1223.407,158.041c1.591-.354,3.321,1.347,3.867,3.8l1.5,6.721c.543,2.453-.3,4.727-1.89,5.08s-2.326-2.667-2.868-5.118l-2.5-5.4c-.545-2.45.3-4.725,1.892-5.079" transform="translate(-10493 -236)" fill="#deb253"/><path d="M1190.166,152.073c.046-1.217,2.2-1.569,3.458-1.521l8.088-.237c1.262.051.843,1.041,1.069,2.253a16.691,16.691,0,0,0,1.035,2.435c-.045,1.218-1.435,1.784-2.7,1.733l-8.845.023c-1.263-.048-1.8-1-1.754-2.215Z" transform="translate(-10493 -236)" fill="#deb253"/><rect width="3.848" height="2.801" transform="translate(-9369.537 -92.181)" fill="#e8380d"/><rect width="3.854" height="2.801" transform="translate(-9362.467 -92.181)" fill="#e8380d"/><rect width="3.85" height="2.801" transform="translate(-9352.858 -92.181)" fill="#e8380d"/><rect width="3.85" height="2.801" transform="translate(-9345.786 -92.181)" fill="#e8380d"/><rect width="3.849" height="2.801" transform="translate(-9302.538 -92.181)" fill="#e8380d"/><rect width="3.848" height="2.801" transform="translate(-9295.467 -92.181)" fill="#e8380d"/><rect width="3.849" height="2.801" transform="translate(-9287.252 -92.181)" fill="#e8380d"/><rect width="3.85" height="2.801" transform="translate(-9280.18 -92.181)" fill="#e8380d"/><rect width="3.85" height="2.801" transform="translate(-9326.949 -92.181)" fill="#e8380d"/><rect width="3.848" height="2.801" transform="translate(-9319.875 -92.181)" fill="#e8380d"/><path d="M1171.192,52.1a1.169,1.169,0,1,1-1.166-1.256,1.213,1.213,0,0,1,1.166,1.256" transform="translate(-10493 -236)" fill="#deb253"/><path d="M1149.568,95.939a.622.622,0,1,1-.623-.67.649.649,0,0,1,.623.67" transform="translate(-10493 -236)" fill="#deb253"/><path d="M1191.726,95.939a.623.623,0,1,1-.621-.67.648.648,0,0,1,.621.67" transform="translate(-10493 -236)" fill="#deb253"/><rect width="39.992" height="1.566" transform="translate(-9342.971 -180.209)" fill="#deb253"/><rect width="30.986" height="1.011" transform="translate(-9359.547 -136.935)" fill="#deb253"/><rect width="30.982" height="1.011" transform="translate(-9317.386 -136.935)" fill="#deb253"/></g><g transform="translate(11133.819 5565)"><path d="M1009.244,131.573v63.136H1070.7V131.573l-30.729-8.614Z" transform="translate(-10493 -236)" fill="#deb253"/><path d="M1039.969,121.873v1.717l33.05,9.269v-1.723Z" transform="translate(-10493 -236)" fill="#deb253"/><path d="M1039.969,121.873v.631l33.05,9.265v-.633Z" transform="translate(-10493 -236)" fill="#e8380d"/><path d="M1039.969,121.873v1.717l-33.043,9.269v-1.723Z" transform="translate(-10493 -236)" fill="#deb253"/><path d="M1039.969,121.873v.631l-33.043,9.265v-.633Z" transform="translate(-10493 -236)" fill="#e8380d"/><rect width="9.485" height="2.283" transform="translate(-9457.773 -107.564)" fill="#e8380d"/><rect width="18.503" height="15.994" transform="translate(-9462.28 -95.541)" fill="#e8380d"/><rect width="0.807" height="15.994" transform="translate(-9460.838 -95.541)" fill="#deb253"/><rect width="0.809" height="15.994" transform="translate(-9457.877 -95.541)" fill="#deb253"/><rect width="0.809" height="15.994" transform="translate(-9454.913 -95.541)" fill="#deb253"/><rect width="0.809" height="15.994" transform="translate(-9451.952 -95.541)" fill="#deb253"/><rect width="0.811" height="15.994" transform="translate(-9448.991 -95.541)" fill="#deb253"/><rect width="0.809" height="15.994" transform="translate(-9446.027 -95.541)" fill="#deb253"/><path d="M1061.2,194.709h2.264l-1.133-1.133Z" transform="translate(-10493 -236)" fill="#e8380d"/><path d="M1066.055,189.852l-4.3,4.3.554.553h1.157l-.554-.553,3.147-3.147,3.148,3.147-.553.553h1.159l.552-.553Z" transform="translate(-10493 -236)" fill="#e8380d"/><path d="M1070.7,192.66l-.916.916-3.147-3.145,3.147-3.148.916.917v-1.157l-.916-.917-4.305,4.3,4.278,4.278h.053l.89-.891Z" transform="translate(-10493 -236)" fill="#e8380d"/><path d="M1070.36,186.705l.338-.34v-1.157l-1.495,1.5,1.495,1.5v-1.157Z" transform="translate(-10493 -236)" fill="#e8380d"/><path d="M1053.746,194.709h2.263l-1.133-1.133Z" transform="translate(-10493 -236)" fill="#e8380d"/><path d="M1058.6,189.852l-4.3,4.3.55.553h1.159l-.553-.553,3.148-3.147,3.147,3.147-.552.553h1.155l.554-.553Z" transform="translate(-10493 -236)" fill="#e8380d"/><path d="M1062.329,186.126l-4.3,4.306,4.281,4.277h.053l4.277-4.277Zm-3.146,4.306,3.146-3.148,3.149,3.148-3.149,3.145Z" transform="translate(-10493 -236)" fill="#e8380d"/><path d="M1061.751,186.706l4.3,4.3,4.306-4.3-4.306-4.306Zm4.3,3.146-3.147-3.146,3.147-3.148,3.148,3.148Z" transform="translate(-10493 -236)" fill="#e8380d"/><path d="M1065.478,182.977l4.3,4.307.916-.918v-1.158l-.916.918-3.148-3.149,3.148-3.146.916.916V179.59l-.916-.919Z" transform="translate(-10493 -236)" fill="#e8380d"/><path d="M1070.36,179.252l.338-.339v-1.156l-1.495,1.495,1.495,1.494v-1.155Z" transform="translate(-10493 -236)" fill="#e8380d"/><path d="M1046.291,194.709h2.266l-1.133-1.133Z" transform="translate(-10493 -236)" fill="#e8380d"/><path d="M1051.151,189.852l-4.306,4.3.554.553h1.157l-.552-.553,3.147-3.147,3.148,3.147-.555.553h1.159l.552-.553Z" transform="translate(-10493 -236)" fill="#e8380d"/><path d="M1054.875,186.126l-4.305,4.306,4.279,4.277h.054l4.279-4.277Zm-3.146,4.306,3.146-3.148,3.148,3.148-3.148,3.145Z" transform="translate(-10493 -236)" fill="#e8380d"/><path d="M1054.3,186.706l4.305,4.3,4.3-4.3-4.3-4.306Zm4.305,3.146-3.149-3.146,3.149-3.148,3.146,3.148Z" transform="translate(-10493 -236)" fill="#e8380d"/><path d="M1058.023,182.977l4.306,4.306,4.306-4.306-4.306-4.306Zm4.306,3.149-3.146-3.149,3.146-3.147,3.148,3.147Z" transform="translate(-10493 -236)" fill="#e8380d"/><path d="M1061.751,179.252l4.3,4.305,4.306-4.305-4.306-4.307Zm4.3,3.147-3.147-3.147,3.147-3.149,3.148,3.149Z" transform="translate(-10493 -236)" fill="#e8380d"/><path d="M1065.478,175.524l4.3,4.306.916-.917v-1.157l-.916.914-3.148-3.146,3.148-3.147.916.918v-1.159l-.916-.917Z" transform="translate(-10493 -236)" fill="#e8380d"/><path d="M1070.36,171.8l.338-.339V170.3l-1.495,1.5,1.495,1.5v-1.159Z" transform="translate(-10493 -236)" fill="#e8380d"/><path d="M1038.839,194.709h2.265l-1.133-1.133Z" transform="translate(-10493 -236)" fill="#e8380d"/><path d="M1043.7,189.852l-4.306,4.3.554.553h1.157l-.551-.553,3.146-3.147,3.147,3.147-.554.553h1.159l.554-.553Z" transform="translate(-10493 -236)" fill="#e8380d"/><path d="M1047.423,186.126l-4.3,4.306,4.275,4.277h.055l4.279-4.277Zm-3.147,4.306,3.147-3.148,3.147,3.148-3.147,3.145Z" transform="translate(-10493 -236)" fill="#e8380d"/><path d="M1046.845,186.706l4.306,4.3,4.3-4.3-4.3-4.306Zm4.306,3.146L1048,186.706l3.147-3.148,3.148,3.148Z" transform="translate(-10493 -236)" fill="#e8380d"/><path d="M1050.57,182.977l4.306,4.306,4.307-4.306-4.307-4.306Zm4.306,3.149-3.146-3.149,3.146-3.147,3.147,3.147Z" transform="translate(-10493 -236)" fill="#e8380d"/><path d="M1054.3,179.252l4.305,4.305,4.3-4.305-4.3-4.307Zm4.305,3.147-3.149-3.147,3.149-3.149,3.146,3.149Z" transform="translate(-10493 -236)" fill="#e8380d"/><path d="M1058.023,175.525l4.306,4.305,4.306-4.305-4.306-4.3Zm4.306,3.146-3.146-3.146,3.146-3.148,3.148,3.148Z" transform="translate(-10493 -236)" fill="#e8380d"/><path d="M1061.751,171.8l4.3,4.3,4.306-4.3-4.306-4.3Zm4.3,3.146-3.147-3.146,3.147-3.148,3.148,3.148Z" transform="translate(-10493 -236)" fill="#e8380d"/><path d="M1069.782,172.377l.916-.917V170.3l-.916.917-3.147-3.148,3.147-3.147.916.919v-1.159l-.89-.893h-.053l-4.278,4.28Z" transform="translate(-10493 -236)" fill="#e8380d"/><path d="M1070.36,164.346l.338-.339v-.215h-.943l-.552.554,1.495,1.5v-1.157Z" transform="translate(-10493 -236)" fill="#e8380d"/><path d="M1031.388,194.709h2.263l-1.13-1.133Z" transform="translate(-10493 -236)" fill="#e8380d"/><path d="M1036.246,189.852l-4.305,4.3.551.553h1.158l-.551-.553,3.147-3.147,3.146,3.147-.553.553H1040l.555-.553Z" transform="translate(-10493 -236)" fill="#e8380d"/><path d="M1039.97,186.126l-4.3,4.306,4.277,4.277H1040l4.279-4.277Zm-3.146,4.306,3.146-3.148,3.15,3.148-3.15,3.145Z" transform="translate(-10493 -236)" fill="#e8380d"/><path d="M1039.392,186.706l4.306,4.3,4.306-4.3L1043.7,182.4Zm4.306,3.146-3.146-3.146,3.146-3.148,3.147,3.148Z" transform="translate(-10493 -236)" fill="#e8380d"/><path d="M1043.12,182.977l4.3,4.306,4.306-4.306-4.306-4.306Zm4.3,3.149-3.147-3.149,3.147-3.147,3.146,3.147Z" transform="translate(-10493 -236)" fill="#e8380d"/><path d="M1046.845,179.252l4.306,4.305,4.3-4.305-4.3-4.307Zm4.306,3.147L1048,179.252l3.147-3.149,3.148,3.149Z" transform="translate(-10493 -236)" fill="#e8380d"/><path d="M1050.57,175.525l4.306,4.305,4.307-4.305-4.307-4.3Zm4.306,3.146-3.146-3.146,3.146-3.148,3.147,3.148Z" transform="translate(-10493 -236)" fill="#e8380d"/><path d="M1054.3,171.8l4.305,4.3,4.3-4.3-4.3-4.3Zm4.305,3.146-3.149-3.146,3.149-3.148,3.146,3.148Z" transform="translate(-10493 -236)" fill="#e8380d"/><path d="M1062.329,172.377l4.306-4.3-4.278-4.28h-.053l-4.281,4.28Zm3.149-4.3-3.149,3.147-3.147-3.147,3.147-3.147Z" transform="translate(-10493 -236)" fill="#e8380d"/><path d="M1066.055,168.651l4.306-4.306-.552-.553h-1.159l.553.553-3.148,3.149-3.147-3.149.554-.553H1062.3l-.554.553Z" transform="translate(-10493 -236)" fill="#e8380d"/><path d="M1070.7,164.007v-.215h-2.047l1.131,1.133Z" transform="translate(-10493 -236)" fill="#e8380d"/><path d="M1023.935,194.709h2.263l-1.133-1.133Z" transform="translate(-10493 -236)" fill="#e8380d"/><path d="M1028.793,189.852l-4.3,4.3.55.553h1.159l-.551-.553,3.146-3.147,3.148,3.147-.555.553h1.159l.554-.553Z" transform="translate(-10493 -236)" fill="#e8380d"/><path d="M1032.52,186.126l-4.307,4.306,4.279,4.277h.055l4.277-4.277Zm-3.149,4.306,3.149-3.148,3.147,3.148-3.147,3.145Z" transform="translate(-10493 -236)" fill="#e8380d"/><path d="M1031.941,186.706l4.3,4.3,4.306-4.3-4.306-4.306Zm4.3,3.146-3.147-3.146,3.147-3.148,3.146,3.148Z" transform="translate(-10493 -236)" fill="#e8380d"/><path d="M1035.667,182.977l4.3,4.306,4.306-4.306-4.306-4.306Zm4.3,3.149-3.146-3.149,3.146-3.147,3.149,3.147Z" transform="translate(-10493 -236)" fill="#e8380d"/><path d="M1039.392,179.252l4.306,4.305,4.306-4.305-4.306-4.307Zm4.306,3.147-3.146-3.147,3.146-3.149,3.147,3.149Z" transform="translate(-10493 -236)" fill="#e8380d"/><path d="M1043.12,175.525l4.3,4.305,4.306-4.305-4.306-4.3Zm4.3,3.146-3.147-3.146,3.147-3.148,3.146,3.148Z" transform="translate(-10493 -236)" fill="#e8380d"/><path d="M1046.845,171.8l4.306,4.3,4.3-4.3-4.3-4.3Zm4.306,3.146L1048,171.8l3.147-3.148,3.148,3.148Z" transform="translate(-10493 -236)" fill="#e8380d"/><path d="M1054.876,172.377l4.306-4.3-4.279-4.28h-.054l-4.279,4.28Zm3.147-4.3-3.147,3.147-3.147-3.147,3.147-3.147Z" transform="translate(-10493 -236)" fill="#e8380d"/><path d="M1058.6,168.651l4.3-4.306-.55-.553H1061.2l.552.553-3.147,3.149-3.148-3.149.553-.553h-1.159l-.55.553Z" transform="translate(-10493 -236)" fill="#e8380d"/><path d="M1063.462,163.792H1061.2l1.131,1.133Z" transform="translate(-10493 -236)" fill="#e8380d"/><path d="M1016.482,194.709h2.263l-1.13-1.133Z" transform="translate(-10493 -236)" fill="#e8380d"/><path d="M1021.34,189.852l-4.306,4.3.555.553h1.156l-.553-.553,3.148-3.147,3.149,3.147-.553.553h1.156l.555-.553Z" transform="translate(-10493 -236)" fill="#e8380d"/><path d="M1025.066,186.126l-4.306,4.306,4.279,4.277h.053l4.279-4.277Zm-3.145,4.306,3.145-3.148,3.147,3.148-3.147,3.145Z" transform="translate(-10493 -236)" fill="#e8380d"/><path d="M1024.489,186.706l4.3,4.3,4.306-4.3-4.306-4.306Zm4.3,3.146-3.146-3.146,3.146-3.148,3.148,3.148Z" transform="translate(-10493 -236)" fill="#e8380d"/><path d="M1028.212,182.977l4.309,4.306,4.3-4.306-4.3-4.306Zm4.309,3.149-3.15-3.149,3.15-3.147,3.146,3.147Z" transform="translate(-10493 -236)" fill="#e8380d"/><path d="M1031.941,179.252l4.3,4.305,4.306-4.305-4.306-4.307Zm4.3,3.147-3.147-3.147,3.147-3.149,3.146,3.149Z" transform="translate(-10493 -236)" fill="#e8380d"/><path d="M1035.667,175.525l4.3,4.305,4.306-4.305-4.306-4.3Zm4.3,3.146-3.146-3.146,3.146-3.148,3.149,3.148Z" transform="translate(-10493 -236)" fill="#e8380d"/><path d="M1039.392,171.8l4.306,4.3,4.306-4.3-4.306-4.3Zm4.306,3.146-3.146-3.146,3.146-3.148,3.147,3.148Z" transform="translate(-10493 -236)" fill="#e8380d"/><path d="M1047.424,172.377l4.305-4.3-4.279-4.28h-.055l-4.275,4.28Zm3.146-4.3-3.146,3.147-3.148-3.147,3.148-3.147Z" transform="translate(-10493 -236)" fill="#e8380d"/><path d="M1051.151,168.651l4.3-4.306-.552-.553h-1.159l.555.553-3.148,3.149L1048,164.345l.552-.553H1047.4l-.554.553Z" transform="translate(-10493 -236)" fill="#e8380d"/><path d="M1056.009,163.792h-2.263l1.13,1.133Z" transform="translate(-10493 -236)" fill="#e8380d"/><path d="M1009.244,194.494v.215h2.051l-1.135-1.133Z" transform="translate(-10493 -236)" fill="#e8380d"/><path d="M1013.888,189.852l-4.306,4.3.552.553h1.161l-.556-.553,3.149-3.147,3.146,3.147-.551.553h1.157l.552-.553Z" transform="translate(-10493 -236)" fill="#e8380d"/><path d="M1017.615,186.126l-4.308,4.306,4.279,4.277h.054l4.281-4.277Zm-3.149,4.306,3.149-3.148,3.145,3.148-3.145,3.145Z" transform="translate(-10493 -236)" fill="#e8380d"/><path d="M1017.034,186.706l4.306,4.3,4.307-4.3-4.307-4.306Zm4.306,3.146-3.148-3.146,3.148-3.148,3.149,3.148Z" transform="translate(-10493 -236)" fill="#e8380d"/><path d="M1020.759,182.977l4.306,4.306,4.306-4.306-4.306-4.306Zm4.306,3.149-3.145-3.149,3.145-3.147,3.147,3.147Z" transform="translate(-10493 -236)" fill="#e8380d"/><path d="M1024.489,179.252l4.3,4.305,4.306-4.305-4.306-4.307Zm4.3,3.147-3.146-3.147,3.146-3.149,3.148,3.149Z" transform="translate(-10493 -236)" fill="#e8380d"/><path d="M1028.212,175.525l4.309,4.305,4.3-4.305-4.3-4.3Zm4.309,3.146-3.15-3.146,3.15-3.148,3.146,3.148Z" transform="translate(-10493 -236)" fill="#e8380d"/><path d="M1031.941,171.8l4.3,4.3,4.306-4.3-4.306-4.3Zm4.3,3.146L1033.1,171.8l3.147-3.148,3.146,3.148Z" transform="translate(-10493 -236)" fill="#e8380d"/><path d="M1039.971,172.377l4.305-4.3-4.279-4.28h-.053l-4.277,4.28Zm3.149-4.3-3.149,3.147-3.147-3.147,3.147-3.147Z" transform="translate(-10493 -236)" fill="#e8380d"/><path d="M1043.7,168.651l4.306-4.306-.554-.553h-1.159l.554.553-3.147,3.149-3.146-3.149.551-.553h-1.157l-.554.553Z" transform="translate(-10493 -236)" fill="#e8380d"/><path d="M1048.557,163.792h-2.266l1.133,1.133Z" transform="translate(-10493 -236)" fill="#e8380d"/><path d="M1009.244,192.66v1.158l.338.337-.338.34v.214h.942l.552-.554Z" transform="translate(-10493 -236)" fill="#e8380d"/><path d="M1010.16,186.126l-.916.917V188.2l.916-.917,3.146,3.149-3.146,3.144-.916-.916v1.158l.89.891h.052l4.28-4.277Z" transform="translate(-10493 -236)" fill="#e8380d"/><path d="M1009.582,186.706l4.306,4.3,4.3-4.3-4.3-4.306Zm4.306,3.146-3.149-3.146,3.149-3.148,3.146,3.148Z" transform="translate(-10493 -236)" fill="#e8380d"/><path d="M1013.307,182.977l4.308,4.306,4.306-4.306-4.306-4.306Zm4.308,3.149-3.149-3.149,3.149-3.147,3.145,3.147Z" transform="translate(-10493 -236)" fill="#e8380d"/><path d="M1017.034,179.252l4.306,4.305,4.307-4.305-4.307-4.307Zm4.306,3.147-3.148-3.147,3.148-3.149,3.149,3.149Z" transform="translate(-10493 -236)" fill="#e8380d"/><path d="M1020.759,175.525l4.306,4.305,4.306-4.305-4.306-4.3Zm4.306,3.146-3.145-3.146,3.145-3.148,3.147,3.148Z" transform="translate(-10493 -236)" fill="#e8380d"/><path d="M1024.489,171.8l4.3,4.3,4.306-4.3-4.306-4.3Zm4.3,3.146-3.146-3.146,3.146-3.148,3.148,3.148Z" transform="translate(-10493 -236)" fill="#e8380d"/><path d="M1032.521,172.377l4.3-4.3-4.277-4.28h-.055l-4.279,4.28Zm3.146-4.3-3.146,3.147-3.15-3.147,3.15-3.147Z" transform="translate(-10493 -236)" fill="#e8380d"/><path d="M1036.246,168.651l4.306-4.306-.555-.553h-1.158l.553.553-3.146,3.149-3.147-3.149.551-.553h-1.158l-.551.553Z" transform="translate(-10493 -236)" fill="#e8380d"/><path d="M1041.1,163.792h-2.265l1.132,1.133Z" transform="translate(-10493 -236)" fill="#e8380d"/><path d="M1009.244,185.208v1.157l.338.34-.338.338V188.2l1.494-1.495Z" transform="translate(-10493 -236)" fill="#e8380d"/><path d="M1014.466,182.977l-4.306-4.306-.916.919v1.157l.916-.916,3.147,3.146-3.147,3.149-.916-.918v1.158l.916.918Z" transform="translate(-10493 -236)" fill="#e8380d"/><path d="M1009.582,179.252l4.306,4.305,4.3-4.305-4.3-4.307Zm4.306,3.147-3.149-3.147,3.149-3.149,3.146,3.149Z" transform="translate(-10493 -236)" fill="#e8380d"/><path d="M1013.307,175.525l4.308,4.305,4.306-4.305-4.306-4.3Zm4.308,3.146-3.149-3.146,3.149-3.148,3.145,3.148Z" transform="translate(-10493 -236)" fill="#e8380d"/><path d="M1017.034,171.8l4.306,4.3,4.307-4.3-4.307-4.3Zm4.306,3.146-3.148-3.146,3.148-3.148,3.149,3.148Z" transform="translate(-10493 -236)" fill="#e8380d"/><path d="M1025.066,172.377l4.3-4.3-4.279-4.28h-.053l-4.279,4.28Zm3.147-4.3-3.147,3.147-3.145-3.147,3.145-3.147Z" transform="translate(-10493 -236)" fill="#e8380d"/><path d="M1028.793,168.651l4.306-4.306-.554-.553h-1.159l.555.553-3.148,3.149-3.146-3.149.551-.553h-1.159l-.55.553Z" transform="translate(-10493 -236)" fill="#e8380d"/><path d="M1033.65,163.792h-2.263l1.133,1.133Z" transform="translate(-10493 -236)" fill="#e8380d"/><path d="M1009.244,177.757v1.156l.338.339-.338.339v1.155l1.494-1.494Z" transform="translate(-10493 -236)" fill="#e8380d"/><path d="M1014.466,175.524l-4.306-4.3-.916.917V173.3l.916-.918,3.147,3.147-3.147,3.146-.916-.914v1.157l.916.917Z" transform="translate(-10493 -236)" fill="#e8380d"/><path d="M1009.582,171.8l4.306,4.3,4.3-4.3-4.3-4.3Zm4.306,3.146-3.149-3.146,3.149-3.148,3.146,3.148Z" transform="translate(-10493 -236)" fill="#e8380d"/><path d="M1017.615,172.377l4.306-4.3-4.281-4.28h-.054l-4.279,4.28Zm3.145-4.3-3.145,3.147-3.149-3.147,3.149-3.147Z" transform="translate(-10493 -236)" fill="#e8380d"/><path d="M1021.34,168.651l4.307-4.306-.553-.553h-1.158l.553.553-3.149,3.149-3.148-3.149.553-.553h-1.156l-.555.553Z" transform="translate(-10493 -236)" fill="#e8380d"/><path d="M1026.2,163.792h-2.263l1.13,1.133Z" transform="translate(-10493 -236)" fill="#e8380d"/><path d="M1009.244,170.3v1.157l.338.339-.338.338V173.3l1.494-1.5Z" transform="translate(-10493 -236)" fill="#e8380d"/><path d="M1014.466,168.072l-4.279-4.28h-.053l-.89.892v1.159l.916-.918,3.147,3.147-3.147,3.147-.916-.917v1.158l.916.917Z" transform="translate(-10493 -236)" fill="#e8380d"/><path d="M1013.888,168.651l4.3-4.306-.552-.553h-1.157l.551.553-3.146,3.149-3.149-3.149.556-.553h-1.161l-.552.553Z" transform="translate(-10493 -236)" fill="#e8380d"/><path d="M1018.745,163.792h-2.263l1.133,1.133Z" transform="translate(-10493 -236)" fill="#e8380d"/><rect width="15.648" height="25.407" transform="translate(-9469.225 -66.698)" fill="#deb253"/><rect width="15.649" height="25.407" transform="translate(-9452.479 -66.698)" fill="#deb253"/></g><g transform="translate(11140.358 5565)"><path d="M909.548,136.514H847.177v58.195h124.74V136.514Z" transform="translate(-10493 -236)" fill="#deb253"/><path d="M909.548,170.054H847.177v24.655h124.74V170.054Z" transform="translate(-10493 -236)" fill="#deb253"/><path d="M878.553,141.98v-2.295l-1.149,1.149Z" transform="translate(-10493 -236)" fill="#e8380d"/><path d="M873.623,137.052l4.366,4.37.564-.562v-1.174l-.564.561-3.191-3.195,3.191-3.2.564.563v-1.177l-.564-.56Z" transform="translate(-10493 -236)" fill="#e8380d"/><path d="M876.472,132.337l.932.933-3.195,3.193-3.193-3.193.931-.933H870.77l-.929.933,4.368,4.37,4.344-4.343v-.055l-.9-.9Z" transform="translate(-10493 -236)" fill="#e8380d"/><path d="M870.429,132.682l-.344-.345h-1.176l1.52,1.519,1.518-1.519h-1.175Z" transform="translate(-10493 -236)" fill="#e8380d"/><path d="M878.553,149.545v-2.3L877.4,148.4Z" transform="translate(-10493 -236)" fill="#e8380d"/><path d="M873.623,144.613l4.366,4.371.564-.562v-1.175l-.564.562-3.191-3.2,3.191-3.191.564.558v-1.174l-.564-.559Z" transform="translate(-10493 -236)" fill="#e8380d"/><path d="M869.841,140.834l4.368,4.368,4.344-4.343v-.053l-4.344-4.343Zm4.368,3.194-3.193-3.194,3.193-3.195,3.194,3.195Z" transform="translate(-10493 -236)" fill="#e8380d"/><path d="M870.429,141.422l4.369-4.37-4.369-4.37-4.372,4.37Zm3.194-4.37-3.194,3.195-3.2-3.195,3.2-3.2Z" transform="translate(-10493 -236)" fill="#e8380d"/><path d="M866.646,137.64l4.37-4.37-.931-.933h-1.176l.932.933-3.195,3.193-3.194-3.193.93-.933h-1.174l-.932.933Z" transform="translate(-10493 -236)" fill="#e8380d"/><path d="M862.864,132.682l-.345-.345h-1.173l1.518,1.519,1.518-1.519h-1.174Z" transform="translate(-10493 -236)" fill="#e8380d"/><path d="M878.553,157.109v-2.3l-1.149,1.15Z" transform="translate(-10493 -236)" fill="#e8380d"/><path d="M873.623,152.179l4.366,4.369.564-.561v-1.175l-.564.561-3.191-3.194,3.191-3.194.564.56V148.37l-.564-.56Z" transform="translate(-10493 -236)" fill="#e8380d"/><path d="M869.841,148.4l4.368,4.37,4.344-4.344v-.053l-4.344-4.341Zm4.368,3.194-3.193-3.194,3.193-3.194L877.4,148.4Z" transform="translate(-10493 -236)" fill="#e8380d"/><path d="M870.429,148.984l4.369-4.371-4.369-4.366-4.372,4.366Zm3.194-4.371-3.194,3.2-3.2-3.2,3.2-3.191Z" transform="translate(-10493 -236)" fill="#e8380d"/><path d="M866.646,145.2l4.37-4.368-4.37-4.371-4.37,4.371Zm3.2-4.368-3.2,3.194-3.2-3.194,3.2-3.194Z" transform="translate(-10493 -236)" fill="#e8380d"/><path d="M862.865,141.422l4.369-4.37-4.369-4.37-4.369,4.37Zm3.193-4.37-3.193,3.195-3.2-3.195,3.2-3.2Z" transform="translate(-10493 -236)" fill="#e8380d"/><path d="M859.082,137.64l4.369-4.37-.931-.933h-1.173l.928.933-3.193,3.193-3.193-3.193.93-.933h-1.175l-.931.933Z" transform="translate(-10493 -236)" fill="#e8380d"/><path d="M855.3,132.682l-.345-.345h-1.175l1.52,1.519,1.518-1.519h-1.174Z" transform="translate(-10493 -236)" fill="#e8380d"/><path d="M878.553,164.672v-2.3l-1.149,1.147Z" transform="translate(-10493 -236)" fill="#e8380d"/><path d="M873.623,159.743l4.366,4.366.564-.559v-1.173l-.564.559-3.191-3.193,3.191-3.195.564.561v-1.175l-.564-.561Z" transform="translate(-10493 -236)" fill="#e8380d"/><path d="M869.841,155.961l4.368,4.37,4.344-4.344v-.053l-4.344-4.344Zm4.368,3.193-3.193-3.193,3.193-3.2,3.194,3.2Z" transform="translate(-10493 -236)" fill="#e8380d"/><path d="M870.429,156.548l4.369-4.369-4.369-4.369-4.372,4.369Zm3.194-4.369-3.194,3.194-3.2-3.194,3.2-3.194Z" transform="translate(-10493 -236)" fill="#e8380d"/><path d="M866.646,152.766l4.37-4.37-4.37-4.367-4.37,4.367Zm3.2-4.37-3.2,3.194-3.2-3.194,3.2-3.193Z" transform="translate(-10493 -236)" fill="#e8380d"/><path d="M862.865,148.984l4.369-4.371-4.369-4.366-4.369,4.366Zm3.193-4.371-3.193,3.2-3.2-3.2,3.2-3.191Z" transform="translate(-10493 -236)" fill="#e8380d"/><path d="M859.082,145.2l4.369-4.368-4.369-4.371-4.369,4.371Zm3.193-4.368-3.193,3.194-3.194-3.194,3.194-3.194Z" transform="translate(-10493 -236)" fill="#e8380d"/><path d="M855.3,141.422l4.366-4.37-4.366-4.37-4.371,4.37Zm3.193-4.37-3.193,3.195-3.2-3.195,3.2-3.2Z" transform="translate(-10493 -236)" fill="#e8380d"/><path d="M855.889,133.27l-.932-.933h-1.174l.93.933-3.193,3.193-3.2-3.193.931-.933h-1.175l-.9.906v.054l4.343,4.343Z" transform="translate(-10493 -236)" fill="#e8380d"/><path d="M847.736,132.682l-.342-.345h-.218v.961l.56.558,1.52-1.519h-1.175Z" transform="translate(-10493 -236)" fill="#e8380d"/><path d="M878.553,172.234v-2.3l-1.149,1.149Z" transform="translate(-10493 -236)" fill="#e8380d"/><path d="M873.623,167.306l4.366,4.37.564-.563V169.94l-.564.559-3.191-3.193,3.191-3.2.564.562V163.5l-.564-.561Z" transform="translate(-10493 -236)" fill="#e8380d"/><path d="M869.841,163.524l4.368,4.369,4.344-4.342V163.5l-4.344-4.344Zm4.368,3.194-3.193-3.194,3.193-3.193,3.194,3.193Z" transform="translate(-10493 -236)" fill="#e8380d"/><path d="M870.429,164.109l4.369-4.366-4.369-4.37-4.372,4.37Zm3.194-4.366-3.194,3.193-3.2-3.193,3.2-3.195Z" transform="translate(-10493 -236)" fill="#e8380d"/><path d="M866.646,160.331l4.37-4.37-4.37-4.371-4.37,4.371Zm3.2-4.37-3.2,3.193-3.2-3.193,3.2-3.195Z" transform="translate(-10493 -236)" fill="#e8380d"/><path d="M862.865,156.548l4.369-4.369-4.369-4.369-4.369,4.369Zm3.193-4.369-3.193,3.194-3.2-3.194,3.2-3.194Z" transform="translate(-10493 -236)" fill="#e8380d"/><path d="M859.082,152.766l4.369-4.37-4.369-4.367-4.369,4.367Zm3.193-4.37-3.193,3.194-3.194-3.194,3.194-3.193Z" transform="translate(-10493 -236)" fill="#e8380d"/><path d="M855.3,148.984l4.366-4.371-4.366-4.366-4.371,4.366Zm3.193-4.371-3.193,3.2-3.2-3.2,3.2-3.191Z" transform="translate(-10493 -236)" fill="#e8380d"/><path d="M855.888,140.834l-4.369-4.371-4.343,4.344v.053l4.343,4.342Zm-4.369-3.194,3.193,3.194-3.193,3.2-3.2-3.2Z" transform="translate(-10493 -236)" fill="#e8380d"/><path d="M852.106,137.052l-4.369-4.37-.56.56v1.177l.56-.563,3.194,3.2-3.194,3.195-.56-.561v1.174l.56.562Z" transform="translate(-10493 -236)" fill="#e8380d"/><path d="M847.394,132.337h-.218v2.081l1.148-1.148Z" transform="translate(-10493 -236)" fill="#e8380d"/><path d="M878.553,179.8v-2.3l-1.149,1.147Z" transform="translate(-10493 -236)" fill="#e8380d"/><path d="M873.623,174.868l4.366,4.37.564-.56V177.5l-.564.563-3.191-3.2,3.191-3.192.564.56v-1.174l-.564-.563Z" transform="translate(-10493 -236)" fill="#e8380d"/><path d="M869.841,171.088l4.368,4.371,4.344-4.347v-.052l-4.344-4.342Zm4.368,3.191-3.193-3.191,3.193-3.2,3.194,3.2Z" transform="translate(-10493 -236)" fill="#e8380d"/><path d="M870.429,171.676l4.369-4.37-4.369-4.369-4.372,4.369Zm3.194-4.37-3.194,3.193-3.2-3.193,3.2-3.2Z" transform="translate(-10493 -236)" fill="#e8380d"/><path d="M866.646,167.893l4.37-4.369-4.37-4.369-4.37,4.369Zm3.2-4.369-3.2,3.194-3.2-3.194,3.2-3.192Z" transform="translate(-10493 -236)" fill="#e8380d"/><path d="M862.865,164.109l4.369-4.366-4.369-4.37-4.369,4.37Zm3.193-4.366-3.193,3.193-3.2-3.193,3.2-3.195Z" transform="translate(-10493 -236)" fill="#e8380d"/><path d="M859.082,160.331l4.369-4.37-4.369-4.371-4.369,4.371Zm3.193-4.37-3.193,3.193-3.194-3.193,3.194-3.195Z" transform="translate(-10493 -236)" fill="#e8380d"/><path d="M855.3,156.548l4.366-4.369L855.3,147.81l-4.371,4.369Zm3.193-4.369-3.193,3.194-3.2-3.194,3.2-3.194Z" transform="translate(-10493 -236)" fill="#e8380d"/><path d="M855.888,148.4l-4.369-4.367-4.343,4.341v.053l4.343,4.343Zm-4.369-3.193,3.193,3.193-3.193,3.195-3.2-3.195Z" transform="translate(-10493 -236)" fill="#e8380d"/><path d="M852.106,144.613l-4.369-4.366-.56.559v1.174l.56-.558,3.194,3.191-3.194,3.2-.56-.562v1.177l.56.56Z" transform="translate(-10493 -236)" fill="#e8380d"/><path d="M847.177,139.686v2.295l1.147-1.147Z" transform="translate(-10493 -236)" fill="#e8380d"/><path d="M878.553,187.363v-2.3l-1.149,1.15Z" transform="translate(-10493 -236)" fill="#e8380d"/><path d="M873.623,182.434l4.366,4.368.564-.559v-1.177l-.564.561-3.191-3.193,3.191-3.195.564.563v-1.177l-.564-.56Z" transform="translate(-10493 -236)" fill="#e8380d"/><path d="M869.841,178.651l4.368,4.369,4.344-4.342v-.053l-4.344-4.345Zm4.368,3.2-3.193-3.2,3.193-3.192,3.194,3.192Z" transform="translate(-10493 -236)" fill="#e8380d"/><path d="M870.429,179.238l4.369-4.37-4.369-4.369-4.372,4.369Zm3.194-4.37-3.194,3.2-3.2-3.2,3.2-3.192Z" transform="translate(-10493 -236)" fill="#e8380d"/><path d="M866.646,175.459l4.37-4.371-4.37-4.37-4.37,4.37Zm3.2-4.371-3.2,3.191-3.2-3.191,3.2-3.195Z" transform="translate(-10493 -236)" fill="#e8380d"/><path d="M862.865,171.676l4.369-4.37-4.369-4.369-4.369,4.369Zm3.193-4.37-3.193,3.193-3.2-3.193,3.2-3.2Z" transform="translate(-10493 -236)" fill="#e8380d"/><path d="M859.082,167.893l4.369-4.369-4.369-4.369-4.369,4.369Zm3.193-4.369-3.193,3.194-3.194-3.194,3.194-3.192Z" transform="translate(-10493 -236)" fill="#e8380d"/><path d="M855.3,164.109l4.366-4.366-4.366-4.37-4.371,4.37Zm3.193-4.366-3.193,3.193-3.2-3.193,3.2-3.195Z" transform="translate(-10493 -236)" fill="#e8380d"/><path d="M855.888,155.961l-4.369-4.371-4.343,4.345v.053l4.343,4.344Zm-4.369-3.195,3.193,3.195-3.193,3.194-3.2-3.194Z" transform="translate(-10493 -236)" fill="#e8380d"/><path d="M852.106,152.179l-4.369-4.369-.56.56v1.175l.56-.56,3.194,3.194-3.194,3.194-.56-.561v1.175l.56.561Z" transform="translate(-10493 -236)" fill="#e8380d"/><path d="M847.177,147.247v2.3l1.147-1.15Z" transform="translate(-10493 -236)" fill="#e8380d"/><path d="M878.334,194.709h.219v-2.08l-1.15,1.149Z" transform="translate(-10493 -236)" fill="#e8380d"/><path d="M873.623,190l4.366,4.368.564-.561v-1.175l-.564.561L874.8,190l3.191-3.2.564.561v-1.174l-.564-.562Z" transform="translate(-10493 -236)" fill="#e8380d"/><path d="M869.841,186.215l4.368,4.368,4.344-4.341v-.053l-4.344-4.342Zm4.368,3.194-3.193-3.194,3.193-3.2,3.194,3.2Z" transform="translate(-10493 -236)" fill="#e8380d"/><path d="M870.429,186.8l4.369-4.368-4.369-4.369-4.372,4.369Zm3.194-4.368-3.194,3.193-3.2-3.193,3.2-3.2Z" transform="translate(-10493 -236)" fill="#e8380d"/><path d="M866.646,183.019l4.37-4.369-4.37-4.371-4.37,4.371Zm3.2-4.369-3.2,3.2-3.2-3.2,3.2-3.191Z" transform="translate(-10493 -236)" fill="#e8380d"/><path d="M862.865,179.238l4.369-4.37-4.369-4.369-4.369,4.369Zm3.193-4.37-3.193,3.2-3.2-3.2,3.2-3.192Z" transform="translate(-10493 -236)" fill="#e8380d"/><path d="M859.082,175.459l4.369-4.371-4.369-4.37-4.369,4.37Zm3.193-4.371-3.193,3.191-3.194-3.191,3.194-3.195Z" transform="translate(-10493 -236)" fill="#e8380d"/><path d="M855.3,171.676l4.366-4.37-4.366-4.369-4.371,4.369Zm3.193-4.37L855.3,170.5l-3.2-3.193,3.2-3.2Z" transform="translate(-10493 -236)" fill="#e8380d"/><path d="M855.888,163.523l-4.369-4.369-4.343,4.344v.053l4.343,4.341Zm-4.369-3.192,3.193,3.192-3.193,3.2-3.2-3.2Z" transform="translate(-10493 -236)" fill="#e8380d"/><path d="M852.106,159.743l-4.369-4.37-.56.561v1.175l.56-.561,3.194,3.195-3.194,3.193-.56-.559v1.173l.56.559Z" transform="translate(-10493 -236)" fill="#e8380d"/><path d="M847.177,154.811v2.3l1.147-1.148Z" transform="translate(-10493 -236)" fill="#e8380d"/><path d="M876.472,194.709h1.176l.342-.344.346.344h.217v-.957l-.563-.562Z" transform="translate(-10493 -236)" fill="#e8380d"/><path d="M869.841,193.778l.929.931h1.177l-.931-.931,3.193-3.2,3.194,3.2-.931.931h1.177l.9-.906v-.051l-4.344-4.343Z" transform="translate(-10493 -236)" fill="#e8380d"/><path d="M870.429,194.365,874.8,190l-4.369-4.37L866.057,190ZM873.623,190l-3.194,3.193-3.2-3.193,3.2-3.195Z" transform="translate(-10493 -236)" fill="#e8380d"/><path d="M866.646,190.583l4.37-4.368-4.37-4.368-4.37,4.368Zm3.2-4.368-3.2,3.194-3.2-3.194,3.2-3.195Z" transform="translate(-10493 -236)" fill="#e8380d"/><path d="M862.865,186.8l4.369-4.368-4.369-4.369-4.369,4.369Zm3.193-4.368-3.193,3.193-3.2-3.193,3.2-3.2Z" transform="translate(-10493 -236)" fill="#e8380d"/><path d="M859.082,183.019l4.369-4.369-4.369-4.371-4.369,4.371Zm3.193-4.369-3.193,3.2-3.194-3.2,3.194-3.191Z" transform="translate(-10493 -236)" fill="#e8380d"/><path d="M855.3,179.238l4.366-4.37L855.3,170.5l-4.371,4.369Zm3.193-4.37-3.193,3.2-3.2-3.2,3.2-3.192Z" transform="translate(-10493 -236)" fill="#e8380d"/><path d="M855.888,171.088l-4.369-4.37-4.343,4.343v.052l4.343,4.346Zm-4.369-3.195,3.193,3.195-3.193,3.192-3.2-3.192Z" transform="translate(-10493 -236)" fill="#e8380d"/><path d="M852.106,167.306l-4.369-4.369-.56.561v1.174l.56-.562,3.194,3.2-3.194,3.193-.56-.559v1.173l.56.563Z" transform="translate(-10493 -236)" fill="#e8380d"/><path d="M847.177,162.377v2.295l1.147-1.149Z" transform="translate(-10493 -236)" fill="#e8380d"/><path d="M868.908,194.709h1.177l.343-.344.343.344h1.175l-1.518-1.519Z" transform="translate(-10493 -236)" fill="#e8380d"/><path d="M866.646,189.409l-4.37,4.369.932.931h1.174l-.93-.931,3.194-3.195,3.195,3.195-.932.931h1.176l.931-.931Z" transform="translate(-10493 -236)" fill="#e8380d"/><path d="M862.865,194.365,867.234,190l-4.369-4.37L858.5,190ZM866.058,190l-3.193,3.193-3.2-3.193,3.2-3.195Z" transform="translate(-10493 -236)" fill="#e8380d"/><path d="M859.082,190.583l4.369-4.368-4.369-4.368-4.369,4.368Zm3.193-4.368-3.193,3.194-3.194-3.194,3.194-3.195Z" transform="translate(-10493 -236)" fill="#e8380d"/><path d="M855.3,186.8l4.366-4.368-4.366-4.369-4.371,4.369Zm3.193-4.368-3.193,3.193-3.2-3.193,3.2-3.2Z" transform="translate(-10493 -236)" fill="#e8380d"/><path d="M855.888,178.65l-4.369-4.371-4.343,4.346v.053l4.343,4.342Zm-4.369-3.191,3.193,3.191-3.193,3.2-3.2-3.2Z" transform="translate(-10493 -236)" fill="#e8380d"/><path d="M852.106,174.868l-4.369-4.369-.56.563v1.174l.56-.56,3.194,3.192-3.194,3.2-.56-.563v1.177l.56.56Z" transform="translate(-10493 -236)" fill="#e8380d"/><path d="M847.177,169.939v2.295l1.147-1.147Z" transform="translate(-10493 -236)" fill="#e8380d"/><path d="M861.347,194.709h1.173l.345-.344.343.344h1.174l-1.517-1.519Z" transform="translate(-10493 -236)" fill="#e8380d"/><path d="M859.082,189.409l-4.369,4.369.931.931h1.175l-.93-.931,3.193-3.195,3.193,3.195-.928.931h1.173l.931-.931Z" transform="translate(-10493 -236)" fill="#e8380d"/><path d="M855.3,194.365,859.668,190l-4.366-4.37L850.931,190ZM858.495,190,855.3,193.19,852.1,190l3.2-3.195Z" transform="translate(-10493 -236)" fill="#e8380d"/><path d="M855.888,186.215l-4.369-4.368-4.343,4.342v.054l4.343,4.339Zm-4.369-3.2,3.193,3.2-3.193,3.194-3.2-3.194Z" transform="translate(-10493 -236)" fill="#e8380d"/><path d="M852.106,182.434l-4.369-4.369-.56.56V179.8l.56-.563,3.194,3.195-3.194,3.193-.56-.561v1.177l.56.559Z" transform="translate(-10493 -236)" fill="#e8380d"/><path d="M847.177,177.5v2.3l1.147-1.152Z" transform="translate(-10493 -236)" fill="#e8380d"/><path d="M853.782,194.709h1.175l.345-.344.343.344h1.174L855.3,193.19Z" transform="translate(-10493 -236)" fill="#e8380d"/><path d="M851.519,189.409l-4.343,4.343v.052l.9.9h1.174l-.931-.931,3.2-3.195,3.193,3.195-.93.931h1.175l.931-.931Z" transform="translate(-10493 -236)" fill="#e8380d"/><path d="M852.106,190l-4.369-4.37-.56.562v1.174l.56-.561,3.194,3.2-3.194,3.193-.56-.561V193.8l.56.561Z" transform="translate(-10493 -236)" fill="#e8380d"/><path d="M847.177,185.065v2.3l1.147-1.148Z" transform="translate(-10493 -236)" fill="#e8380d"/><path d="M940.54,141.98v-2.295l1.148,1.149Z" transform="translate(-10493 -236)" fill="#e8380d"/><path d="M945.471,137.052l-4.368,4.37-.563-.562v-1.174l.563.561,3.2-3.195-3.2-3.2-.563.563v-1.177l.563-.56Z" transform="translate(-10493 -236)" fill="#e8380d"/><path d="M942.619,132.337l-.931.933,3.2,3.193,3.193-3.193-.931-.933h1.175l.932.933-4.369,4.37L940.54,133.3v-.055l.9-.9Z" transform="translate(-10493 -236)" fill="#e8380d"/><path d="M948.665,132.682l.344-.345h1.175l-1.519,1.519-1.518-1.519h1.175Z" transform="translate(-10493 -236)" fill="#e8380d"/><path d="M940.54,149.545v-2.3l1.148,1.149Z" transform="translate(-10493 -236)" fill="#e8380d"/><path d="M945.471,144.613l-4.368,4.371-.563-.562v-1.175l.563.562,3.2-3.2-3.2-3.191-.563.558v-1.174l.563-.559Z" transform="translate(-10493 -236)" fill="#e8380d"/><path d="M944.884,136.463l-4.344,4.344v.052l4.344,4.343,4.369-4.368Zm-3.2,4.371,3.2-3.194,3.194,3.194-3.194,3.194Z" transform="translate(-10493 -236)" fill="#e8380d"/><path d="M953.036,137.052l-4.371-4.371-4.367,4.371,4.367,4.37Zm-4.371-3.2,3.2,3.2-3.2,3.2-3.194-3.2Z" transform="translate(-10493 -236)" fill="#e8380d"/><path d="M952.447,137.64l-4.369-4.37.931-.933h1.175l-.93.933,3.193,3.193,3.195-3.193-.93-.933h1.174l.93.933Z" transform="translate(-10493 -236)" fill="#e8380d"/><path d="M956.229,132.682l.345-.345h1.174l-1.519,1.519-1.518-1.519h1.174Z" transform="translate(-10493 -236)" fill="#e8380d"/><path d="M940.54,157.109v-2.3l1.148,1.15Z" transform="translate(-10493 -236)" fill="#e8380d"/><path d="M945.471,152.179l-4.368,4.369-.563-.561v-1.175l.563.561,3.2-3.194-3.2-3.194-.563.56V148.37l.563-.56Z" transform="translate(-10493 -236)" fill="#e8380d"/><path d="M944.884,144.029l-4.344,4.341v.052l4.344,4.344,4.369-4.37Zm-3.2,4.367,3.2-3.193,3.194,3.193-3.194,3.194Z" transform="translate(-10493 -236)" fill="#e8380d"/><path d="M953.036,144.613l-4.371-4.366-4.367,4.366,4.367,4.371Zm-4.371-3.191,3.2,3.191-3.2,3.2-3.194-3.2Z" transform="translate(-10493 -236)" fill="#e8380d"/><path d="M956.816,140.834l-4.369-4.371-4.369,4.371,4.369,4.368Zm-4.369-3.194,3.2,3.194-3.2,3.2-3.193-3.2Z" transform="translate(-10493 -236)" fill="#e8380d"/><path d="M960.6,137.052l-4.369-4.371-4.369,4.371,4.369,4.37Zm-4.369-3.2,3.193,3.2-3.193,3.2-3.193-3.2Z" transform="translate(-10493 -236)" fill="#e8380d"/><path d="M960.012,137.64l-4.369-4.37.932-.933h1.174l-.932.933,3.2,3.193,3.2-3.193-.933-.933h1.176l.93.933Z" transform="translate(-10493 -236)" fill="#e8380d"/><path d="M963.792,132.682l.345-.345h1.174l-1.519,1.519-1.518-1.519h1.174Z" transform="translate(-10493 -236)" fill="#e8380d"/><path d="M940.54,164.672v-2.3l1.148,1.147Z" transform="translate(-10493 -236)" fill="#e8380d"/><path d="M945.471,159.743l-4.368,4.366-.563-.559v-1.173l.563.559,3.2-3.193-3.2-3.195-.563.561v-1.175l.563-.561Z" transform="translate(-10493 -236)" fill="#e8380d"/><path d="M944.884,151.59l-4.344,4.345v.052l4.344,4.344,4.369-4.37Zm-3.2,4.371,3.2-3.195,3.194,3.195-3.194,3.193Z" transform="translate(-10493 -236)" fill="#e8380d"/><path d="M953.036,152.178l-4.371-4.369-4.367,4.369,4.367,4.37Zm-4.371-3.194,3.2,3.194-3.2,3.2-3.194-3.2Z" transform="translate(-10493 -236)" fill="#e8380d"/><path d="M956.816,148.4l-4.369-4.367-4.369,4.367,4.369,4.37Zm-4.369-3.193,3.2,3.193-3.2,3.195-3.193-3.195Z" transform="translate(-10493 -236)" fill="#e8380d"/><path d="M960.6,144.613l-4.369-4.366-4.369,4.366,4.369,4.371Zm-4.369-3.191,3.193,3.191-3.193,3.2-3.193-3.2Z" transform="translate(-10493 -236)" fill="#e8380d"/><path d="M964.381,140.834l-4.369-4.371-4.369,4.371,4.369,4.368Zm-4.369-3.194,3.2,3.194-3.2,3.2-3.2-3.2Z" transform="translate(-10493 -236)" fill="#e8380d"/><path d="M968.161,137.052l-4.369-4.371-4.369,4.371,4.369,4.37Zm-4.369-3.2,3.2,3.2-3.2,3.2-3.193-3.2Z" transform="translate(-10493 -236)" fill="#e8380d"/><path d="M963.208,133.27l.929-.933h1.175l-.931.933,3.193,3.193,3.2-3.193-.93-.933h1.173l.9.906v.054l-4.343,4.343Z" transform="translate(-10493 -236)" fill="#e8380d"/><path d="M971.357,132.682l.344-.345h.216v.961l-.56.558-1.519-1.519h1.174Z" transform="translate(-10493 -236)" fill="#e8380d"/><path d="M940.54,172.234v-2.3l1.148,1.149Z" transform="translate(-10493 -236)" fill="#e8380d"/><path d="M945.471,167.306l-4.368,4.37-.563-.563V169.94l.563.559,3.2-3.193-3.2-3.2-.563.562V163.5l.563-.561Z" transform="translate(-10493 -236)" fill="#e8380d"/><path d="M944.884,159.155,940.54,163.5v.052l4.344,4.342,4.369-4.369Zm-3.2,4.369,3.2-3.192,3.194,3.192-3.194,3.194Z" transform="translate(-10493 -236)" fill="#e8380d"/><path d="M953.036,159.743l-4.371-4.37-4.367,4.37,4.367,4.367Zm-4.371-3.195,3.2,3.195-3.2,3.194-3.194-3.194Z" transform="translate(-10493 -236)" fill="#e8380d"/><path d="M956.816,155.961l-4.369-4.371-4.369,4.371,4.369,4.371Zm-4.369-3.195,3.2,3.195-3.2,3.194-3.193-3.194Z" transform="translate(-10493 -236)" fill="#e8380d"/><path d="M960.6,152.178l-4.369-4.369-4.369,4.369,4.369,4.37Zm-4.369-3.194,3.193,3.194-3.193,3.2-3.193-3.2Z" transform="translate(-10493 -236)" fill="#e8380d"/><path d="M964.381,148.4l-4.369-4.367-4.369,4.367,4.369,4.37Zm-4.369-3.193,3.2,3.193-3.2,3.195-3.2-3.195Z" transform="translate(-10493 -236)" fill="#e8380d"/><path d="M968.161,144.613l-4.369-4.366-4.369,4.366,4.369,4.371Zm-4.369-3.191,3.2,3.191-3.2,3.2-3.193-3.2Z" transform="translate(-10493 -236)" fill="#e8380d"/><path d="M967.574,145.2l4.343-4.343v-.052l-4.343-4.344-4.366,4.371Zm3.2-4.368-3.2,3.194-3.194-3.194,3.194-3.194Z" transform="translate(-10493 -236)" fill="#e8380d"/><path d="M966.988,137.052l4.369-4.37.56.56v1.177l-.56-.563-3.2,3.2,3.2,3.195.56-.561v1.174l-.56.562Z" transform="translate(-10493 -236)" fill="#e8380d"/><path d="M971.7,132.337h.216v2.081l-1.147-1.148Z" transform="translate(-10493 -236)" fill="#e8380d"/><path d="M940.54,179.8v-2.3l1.148,1.147Z" transform="translate(-10493 -236)" fill="#e8380d"/><path d="M945.471,174.868l-4.368,4.37-.563-.56V177.5l.563.563,3.2-3.2-3.2-3.192-.563.56v-1.174l.563-.563Z" transform="translate(-10493 -236)" fill="#e8380d"/><path d="M944.884,166.718l-4.344,4.343v.051l4.344,4.347,4.369-4.371Zm-3.2,4.37,3.2-3.195,3.194,3.195-3.194,3.191Z" transform="translate(-10493 -236)" fill="#e8380d"/><path d="M953.036,167.3l-4.371-4.369L944.3,167.3l4.367,4.37Zm-4.371-3.2,3.2,3.2-3.2,3.194-3.194-3.194Z" transform="translate(-10493 -236)" fill="#e8380d"/><path d="M956.816,163.523l-4.369-4.369-4.369,4.369,4.369,4.369Zm-4.369-3.192,3.2,3.192-3.2,3.2-3.193-3.2Z" transform="translate(-10493 -236)" fill="#e8380d"/><path d="M960.6,159.743l-4.369-4.37-4.369,4.37,4.369,4.367Zm-4.369-3.195,3.193,3.195-3.193,3.194-3.193-3.194Z" transform="translate(-10493 -236)" fill="#e8380d"/><path d="M964.381,155.961l-4.369-4.371-4.369,4.371,4.369,4.371Zm-4.369-3.195,3.2,3.195-3.2,3.194-3.2-3.194Z" transform="translate(-10493 -236)" fill="#e8380d"/><path d="M968.161,152.178l-4.369-4.369-4.369,4.369,4.369,4.37Zm-4.369-3.194,3.2,3.194-3.2,3.2-3.193-3.2Z" transform="translate(-10493 -236)" fill="#e8380d"/><path d="M967.574,152.766l4.343-4.344v-.052l-4.343-4.341-4.366,4.367Zm3.2-4.37-3.2,3.194L964.38,148.4l3.194-3.193Z" transform="translate(-10493 -236)" fill="#e8380d"/><path d="M966.988,144.613l4.369-4.366.56.559v1.174l-.56-.558-3.2,3.191,3.2,3.2.56-.562v1.177l-.56.56Z" transform="translate(-10493 -236)" fill="#e8380d"/><path d="M971.917,139.686v2.295l-1.147-1.147Z" transform="translate(-10493 -236)" fill="#e8380d"/><path d="M940.54,187.363v-2.3l1.148,1.15Z" transform="translate(-10493 -236)" fill="#e8380d"/><path d="M945.471,182.434,941.1,186.8l-.563-.559v-1.177l.563.561,3.2-3.193-3.2-3.195-.563.563v-1.177l.563-.56Z" transform="translate(-10493 -236)" fill="#e8380d"/><path d="M944.884,174.279l-4.344,4.346v.052l4.344,4.342,4.369-4.369Zm-3.2,4.371,3.2-3.191,3.194,3.191-3.194,3.2Z" transform="translate(-10493 -236)" fill="#e8380d"/><path d="M953.036,174.868l-4.371-4.369-4.367,4.369,4.367,4.37Zm-4.371-3.192,3.2,3.192-3.2,3.2-3.194-3.2Z" transform="translate(-10493 -236)" fill="#e8380d"/><path d="M956.816,171.088l-4.369-4.37-4.369,4.37,4.369,4.371Zm-4.369-3.195,3.2,3.195-3.2,3.192-3.193-3.192Z" transform="translate(-10493 -236)" fill="#e8380d"/><path d="M960.6,167.3l-4.369-4.369L951.86,167.3l4.369,4.37Zm-4.369-3.2,3.193,3.2-3.193,3.194-3.193-3.194Z" transform="translate(-10493 -236)" fill="#e8380d"/><path d="M964.381,163.523l-4.369-4.369-4.369,4.369,4.369,4.369Zm-4.369-3.192,3.2,3.192-3.2,3.2-3.2-3.2Z" transform="translate(-10493 -236)" fill="#e8380d"/><path d="M968.161,159.743l-4.369-4.37-4.369,4.37,4.369,4.367Zm-4.369-3.195,3.2,3.195-3.2,3.194-3.193-3.194Z" transform="translate(-10493 -236)" fill="#e8380d"/><path d="M967.574,160.331l4.343-4.344v-.052l-4.343-4.345-4.366,4.371Zm3.2-4.37-3.2,3.193-3.194-3.193,3.194-3.195Z" transform="translate(-10493 -236)" fill="#e8380d"/><path d="M966.988,152.179l4.369-4.369.56.56v1.175l-.56-.56-3.2,3.194,3.2,3.194.56-.561v1.175l-.56.561Z" transform="translate(-10493 -236)" fill="#e8380d"/><path d="M971.917,147.247v2.3l-1.147-1.15Z" transform="translate(-10493 -236)" fill="#e8380d"/><path d="M940.758,194.709h-.218v-2.08l1.149,1.149Z" transform="translate(-10493 -236)" fill="#e8380d"/><path d="M945.471,190l-4.368,4.368-.563-.561v-1.175l.563.561L944.3,190l-3.2-3.2-.563.561v-1.174l.563-.562Z" transform="translate(-10493 -236)" fill="#e8380d"/><path d="M944.884,181.847l-4.344,4.343v.052l4.344,4.341,4.369-4.368Zm-3.2,4.368,3.2-3.195,3.194,3.195-3.194,3.194Z" transform="translate(-10493 -236)" fill="#e8380d"/><path d="M953.036,182.433l-4.371-4.369-4.367,4.369,4.367,4.369Zm-4.371-3.195,3.2,3.195-3.2,3.194-3.194-3.194Z" transform="translate(-10493 -236)" fill="#e8380d"/><path d="M956.816,178.65l-4.369-4.371-4.369,4.371,4.369,4.37Zm-4.369-3.191,3.2,3.191-3.2,3.2-3.193-3.2Z" transform="translate(-10493 -236)" fill="#e8380d"/><path d="M960.6,174.868l-4.369-4.369-4.369,4.369,4.369,4.37Zm-4.369-3.192,3.193,3.192-3.193,3.2-3.193-3.2Z" transform="translate(-10493 -236)" fill="#e8380d"/><path d="M964.381,171.088l-4.369-4.37-4.369,4.37,4.369,4.371Zm-4.369-3.195,3.2,3.195-3.2,3.192-3.2-3.192Z" transform="translate(-10493 -236)" fill="#e8380d"/><path d="M968.161,167.3l-4.369-4.369-4.369,4.369,4.369,4.37Zm-4.369-3.2,3.2,3.2-3.2,3.194L960.6,167.3Z" transform="translate(-10493 -236)" fill="#e8380d"/><path d="M967.574,167.893l4.343-4.342V163.5l-4.343-4.344-4.366,4.369Zm3.2-4.369-3.2,3.194-3.194-3.194,3.194-3.192Z" transform="translate(-10493 -236)" fill="#e8380d"/><path d="M966.988,159.743l4.369-4.37.56.561v1.175l-.56-.561-3.2,3.195,3.2,3.193.56-.559v1.173l-.56.559Z" transform="translate(-10493 -236)" fill="#e8380d"/><path d="M971.917,154.811v2.3l-1.147-1.148Z" transform="translate(-10493 -236)" fill="#e8380d"/><path d="M942.619,194.709h-1.175l-.342-.344-.344.344h-.218v-.957l.562-.562Z" transform="translate(-10493 -236)" fill="#e8380d"/><path d="M949.254,193.778l-.932.931h-1.174l.93-.931-3.193-3.2-3.2,3.2.93.931h-1.175l-.9-.906v-.051l4.345-4.343Z" transform="translate(-10493 -236)" fill="#e8380d"/><path d="M953.036,190l-4.371-4.37L944.3,190l4.367,4.368Zm-4.371-3.195,3.2,3.195-3.2,3.194L945.471,190Z" transform="translate(-10493 -236)" fill="#e8380d"/><path d="M956.816,186.215l-4.369-4.368-4.369,4.368,4.369,4.367Zm-4.369-3.2,3.2,3.2-3.2,3.194-3.193-3.194Z" transform="translate(-10493 -236)" fill="#e8380d"/><path d="M960.6,182.433l-4.369-4.369-4.369,4.369,4.369,4.369Zm-4.369-3.195,3.193,3.195-3.193,3.194-3.193-3.194Z" transform="translate(-10493 -236)" fill="#e8380d"/><path d="M964.381,178.65l-4.369-4.371-4.369,4.371,4.369,4.37Zm-4.369-3.191,3.2,3.191-3.2,3.2-3.2-3.2Z" transform="translate(-10493 -236)" fill="#e8380d"/><path d="M968.161,174.868l-4.369-4.369-4.369,4.369,4.369,4.37Zm-4.369-3.192,3.2,3.192-3.2,3.2-3.193-3.2Z" transform="translate(-10493 -236)" fill="#e8380d"/><path d="M967.574,175.459l4.343-4.347v-.051l-4.343-4.343-4.366,4.37Zm3.2-4.371-3.2,3.191-3.194-3.191,3.194-3.195Z" transform="translate(-10493 -236)" fill="#e8380d"/><path d="M966.988,167.306l4.369-4.369.56.561v1.174l-.56-.562-3.2,3.2,3.2,3.193.56-.559v1.173l-.56.563Z" transform="translate(-10493 -236)" fill="#e8380d"/><path d="M971.917,162.377v2.295l-1.147-1.149Z" transform="translate(-10493 -236)" fill="#e8380d"/><path d="M950.185,194.709h-1.176l-.343-.344-.343.344h-1.175l1.518-1.519Z" transform="translate(-10493 -236)" fill="#e8380d"/><path d="M952.447,189.409l4.369,4.369-.93.931h-1.174l.93-.931-3.195-3.195-3.193,3.195.93.931h-1.175l-.931-.931Z" transform="translate(-10493 -236)" fill="#e8380d"/><path d="M960.6,190l-4.369-4.37L951.86,190l4.369,4.368Zm-4.369-3.195L959.422,190l-3.193,3.194L953.036,190Z" transform="translate(-10493 -236)" fill="#e8380d"/><path d="M964.381,186.215l-4.369-4.368-4.369,4.368,4.369,4.367Zm-4.369-3.2,3.2,3.2-3.2,3.194-3.2-3.194Z" transform="translate(-10493 -236)" fill="#e8380d"/><path d="M968.161,182.433l-4.369-4.369-4.369,4.369,4.369,4.369Zm-4.369-3.195,3.2,3.195-3.2,3.194-3.193-3.194Z" transform="translate(-10493 -236)" fill="#e8380d"/><path d="M967.574,183.019l4.343-4.342v-.052l-4.343-4.346-4.366,4.371Zm3.2-4.369-3.2,3.2-3.194-3.2,3.194-3.191Z" transform="translate(-10493 -236)" fill="#e8380d"/><path d="M966.988,174.868l4.369-4.369.56.563v1.174l-.56-.56-3.2,3.192,3.2,3.2.56-.563v1.177l-.56.56Z" transform="translate(-10493 -236)" fill="#e8380d"/><path d="M971.917,169.939v2.295l-1.147-1.147Z" transform="translate(-10493 -236)" fill="#e8380d"/><path d="M957.749,194.709h-1.175l-.344-.344-.344.344h-1.174l1.518-1.519Z" transform="translate(-10493 -236)" fill="#e8380d"/><path d="M960.012,189.409l4.369,4.369-.93.931h-1.176l.933-.931-3.2-3.195-3.2,3.195.932.931h-1.174l-.932-.931Z" transform="translate(-10493 -236)" fill="#e8380d"/><path d="M968.161,190l-4.369-4.37L959.423,190l4.369,4.368Zm-4.369-3.195,3.2,3.195-3.2,3.194L960.6,190Z" transform="translate(-10493 -236)" fill="#e8380d"/><path d="M967.574,190.583l4.343-4.341v-.052l-4.343-4.343-4.366,4.368Zm3.2-4.368-3.2,3.194-3.194-3.194,3.194-3.195Z" transform="translate(-10493 -236)" fill="#e8380d"/><path d="M966.988,182.434l4.369-4.369.56.56V179.8l-.56-.563-3.2,3.195,3.2,3.193.56-.561v1.177l-.56.559Z" transform="translate(-10493 -236)" fill="#e8380d"/><path d="M971.917,177.5v2.3l-1.147-1.152Z" transform="translate(-10493 -236)" fill="#e8380d"/><path d="M965.312,194.709h-1.175l-.344-.344-.344.344h-1.174l1.518-1.519Z" transform="translate(-10493 -236)" fill="#e8380d"/><path d="M967.574,189.409l4.343,4.343v.052l-.9.9H969.84l.93-.931-3.2-3.195-3.193,3.195.93.931h-1.175l-.928-.931Z" transform="translate(-10493 -236)" fill="#e8380d"/><path d="M966.988,190l4.369-4.37.56.562v1.174l-.56-.561-3.2,3.2,3.2,3.193.56-.561V193.8l-.56.561Z" transform="translate(-10493 -236)" fill="#e8380d"/><path d="M971.917,185.065v2.3l-1.147-1.148Z" transform="translate(-10493 -236)" fill="#e8380d"/><path d="M966.962,126.563H852.134l-11.442,12.011H978.4Z" transform="translate(-10493 -236)" fill="#e8380d"/><rect width="21.816" height="13.118" transform="translate(-9608.057 -92.373)" fill="#deb253"/><rect width="2.552" height="13.118" transform="translate(-9604.635 -92.373)" fill="#e8380d"/><rect width="2.555" height="13.118" transform="translate(-9598.433 -92.373)" fill="#e8380d"/><rect width="2.557" height="13.118" transform="translate(-9592.242 -92.373)" fill="#e8380d"/><rect width="21.814" height="13.118" transform="translate(-9580.664 -92.373)" fill="#deb253"/><rect width="2.553" height="13.118" transform="translate(-9577.242 -92.373)" fill="#e8380d"/><rect width="2.555" height="13.118" transform="translate(-9571.04 -92.373)" fill="#e8380d"/><rect width="2.554" height="13.118" transform="translate(-9564.846 -92.373)" fill="#e8380d"/><path d="M972.573,158.47H846.524l-12.56,12.011H985.13Z" transform="translate(-10493 -236)" fill="#e8380d"/><rect width="10.636" height="15.471" transform="translate(-9595.056 -65.52)" fill="#e8380d"/><rect width="10.636" height="15.471" transform="translate(-9582.487 -65.52)" fill="#e8380d"/></g><g transform="translate(11233.604 5538.092)"><path d="M707.879,160.05c-.018.2-5.673,19.214-15.005,24.223a10.959,10.959,0,0,1-6.307,1.144c-3.008-3.848-6.486-7.8-10.285-11.842l-.025.036c-1.028-1.148-1.981-2.28-2.9-3.393a8.986,8.986,0,0,0,3.435-1c7.685-4.607,8.237-10.3,8.259-10.745l-1.118-.1-.819-.2c-.013.075-2.777,7.295-8.011,8.881a9.058,9.058,0,0,1-4.13.112c-6.271-8.446-8.986-15.846-7.891-21.707,1.776-9.474,12.353-17.268,12.472-17.307l-.4-1.3-.283-1.823c-.668.217-9.184,3.636-15.252,18.55-1.41,3.474-1.717,10.041.24,17.633a8.148,8.148,0,0,1-3.94-.922c-7.1-3.814-11.407-18.285-11.421-18.43l-1.087.266-1.47.054c.065.868,1.292,12.03,11.915,22.1a13.264,13.264,0,0,0,8.007,3.011,51.919,51.919,0,0,0,10.381,16.148l.025-.035c9.985,11.148,10.032,19.505,8.659,26.811-1.78,9.478-18.544,11.292-18.662,11.329h32.67a27.938,27.938,0,0,0,2.7-7.609c1.289-6.753-1.273-14.057-6.288-21.838a13.312,13.312,0,0,0,4.223-2.582c13.968-13.221,15.577-27.887,15.66-29.033L709.3,160.4Z" transform="translate(-10489.189 -235.922)" fill="#deb253"/><path d="M636.982,178.9a51.317,51.317,0,0,1,7.814-31.872c5.891-8.951,14.2-14.475,23.393-15.548l.1,1.424c-8.892,1.037-16.926,6.379-22.626,15.036a49.655,49.655,0,0,0-7.558,30.831Z" transform="translate(-10491.158 -233.437)" fill="#deb253"/><path d="M658.884,139.183c2.191-3.348,3.54-6.543,3.01-7.134s-2.74,1.633-4.929,4.982a23.967,23.967,0,0,0-3.01,7.136,17.178,17.178,0,0,0,4.929-4.983" transform="translate(-10484.564 -233.255)" fill="#deb253"/><path d="M656.516,132.448c3.334,1.075,6.2,1.249,6.4.392s-2.342-2.427-5.674-3.5a13.477,13.477,0,0,0-6.395-.391,15.34,15.34,0,0,0,5.67,3.5" transform="translate(-10485.762 -234.494)" fill="#e8380d"/><path d="M649.127,144.951c.834-4.212.963-7.828.283-8.073s-1.911,2.963-2.749,7.174a26.789,26.789,0,0,0-.281,8.073,22.689,22.689,0,0,0,2.748-7.174" transform="translate(-10487.552 -231.364)" fill="#e8380d"/><path d="M645.783,139.963c3.371-.841,6.022-2.237,5.907-3.123s-2.939-.917-6.317-.078a15.484,15.484,0,0,0-5.9,3.122,12.878,12.878,0,0,0,6.314.079" transform="translate(-10490.143 -231.637)" fill="#e8380d"/><path d="M644.461,152.78c-.7-4.251-1.828-7.577-2.526-7.425s-.7,3.715,0,7.969a24.393,24.393,0,0,0,2.526,7.425,25.553,25.553,0,0,0,0-7.969" transform="translate(-10489.396 -228.097)" fill="#e8380d"/><path d="M640.033,151.379c2.748-2.609,4.648-5.319,4.244-6.054s-2.963.787-5.713,3.4a20.875,20.875,0,0,0-4.242,6.054,14.743,14.743,0,0,0,5.712-3.4" transform="translate(-10492.124 -228.177)" fill="#e8380d"/><path d="M641.79,170.749c-1.686-3.785-3.565-6.519-4.2-6.111s.23,3.812,1.916,7.6a20.291,20.291,0,0,0,4.2,6.1,24.41,24.41,0,0,0-1.915-7.59" transform="translate(-10490.943 -220.686)" fill="#e8380d"/><path d="M636.673,172.074c1.99-3.537,3.15-6.849,2.589-7.393s-2.636,1.884-4.63,5.424a24.72,24.72,0,0,0-2.585,7.392,18.066,18.066,0,0,0,4.626-5.422" transform="translate(-10493 -220.683)" fill="#e8380d"/><path d="M640.841,160.751c-.734-3.4-1.78-6.026-2.342-5.859s-.422,3.054.312,6.46a19.189,19.189,0,0,0,2.342,5.859,20.752,20.752,0,0,0-.312-6.46" transform="translate(-10490.648 -224.425)" fill="#e8380d"/><path d="M637.111,160.052c2.127-2.288,3.558-4.6,3.2-5.173s-2.367.823-4.5,3.111a17.728,17.728,0,0,0-3.2,5.173,12.421,12.421,0,0,0,4.5-3.111" transform="translate(-10492.781 -224.477)" fill="#e8380d"/><path d="M676.276,194.406a60.291,60.291,0,0,0,6.144-37.382c-1.981-13.079-7.881-24.407-16.62-31.9l-.727,1.353c8.454,7.249,14.159,18.206,16.072,30.857a58.313,58.313,0,0,1-5.939,36.155Z" transform="translate(-10480.284 -235.885)" fill="#deb253"/><path d="M665.208,134.767c-.724-4.884-.68-9.022.112-9.248s2.026,3.546,2.752,8.432a30.68,30.68,0,0,1-.109,9.245,26.627,26.627,0,0,1-2.755-8.429" transform="translate(-10480.43 -235.736)" fill="#e8380d"/><path d="M672,129.531c-3.809-1.249-6.756-3.076-6.579-4.073s3.4-.8,7.217.452a18.393,18.393,0,0,1,6.575,4.072,14.711,14.711,0,0,1-7.213-.45" transform="translate(-10480.154 -236)" fill="#e8380d"/><path d="M672.017,146.458c1.007-4.8,2.465-8.512,3.256-8.282s.615,4.3-.391,9.107a27.163,27.163,0,0,1-3.255,8.282,29.247,29.247,0,0,1,.389-9.107" transform="translate(-10477.833 -230.863)" fill="#e8380d"/><path d="M679.1,145.408c-3.01-3.2-5.047-6.443-4.547-7.251s3.346,1.132,6.359,4.328a24.824,24.824,0,0,1,4.547,7.249,17.448,17.448,0,0,1-6.359-4.327" transform="translate(-10476.664 -230.937)" fill="#e8380d"/><path d="M674.025,157.065c2.562-3.776,5.155-6.314,5.789-5.677s-.928,4.212-3.493,7.985a20.387,20.387,0,0,1-5.788,5.673,25.981,25.981,0,0,1,3.492-7.98" transform="translate(-10478.182 -225.809)" fill="#e8380d"/><path d="M679.22,160.516c-1.609-4.53-2.324-8.572-1.6-9.028s2.626,2.859,4.23,7.392a30.036,30.036,0,0,1,1.6,9.025,23.516,23.516,0,0,1-4.238-7.389" transform="translate(-10475.562 -225.749)" fill="#e8380d"/><path d="M669.534,176.894c3.345-2.612,6.425-4.041,6.875-3.191s-1.9,3.661-5.245,6.273a16.875,16.875,0,0,1-6.877,3.187,21.505,21.505,0,0,1,5.246-6.269" transform="translate(-10480.586 -217.274)" fill="#deb253"/><path d="M672.9,183.081c-.447-4.935-.158-9.061.648-9.213s1.812,3.726,2.255,8.662a30.549,30.549,0,0,1-.648,9.212,27.48,27.48,0,0,1-2.255-8.661" transform="translate(-10477.351 -217.118)" fill="#deb253"/><path d="M673.765,167.538c2.226-2.895,4.429-4.789,4.921-4.234s-.92,3.353-3.15,6.255a15.872,15.872,0,0,1-4.91,4.231,20.482,20.482,0,0,1,3.138-6.252" transform="translate(-10478.146 -221.221)" fill="#e8380d"/><path d="M677.711,170.815c-1.129-3.776-1.551-7.1-.938-7.417s2.008,2.481,3.134,6.253a24.744,24.744,0,0,1,.943,7.421,19.849,19.849,0,0,1-3.14-6.258" transform="translate(-10475.888 -221.157)" fill="#e8380d"/><path d="M654.37,193.58a35.412,35.412,0,0,1-5.591-21.993,33.132,33.132,0,0,1,8.377-20.537l.5.753a32.066,32.066,0,0,0-8.1,19.863,34.268,34.268,0,0,0,5.413,21.274Z" transform="translate(-10486.59 -225.902)" fill="#deb253"/><path d="M655.983,156.8c.19-3-.051-5.483-.539-5.554s-1.039,2.295-1.226,5.295a18.416,18.416,0,0,0,.535,5.554,16.908,16.908,0,0,0,1.23-5.295" transform="translate(-10484.476 -225.825)" fill="#e8380d"/><path d="M653.414,154.187c2.227-1.061,3.906-2.395,3.752-2.982s-2.091-.2-4.321.855a11.9,11.9,0,0,0-3.748,2.985,9.039,9.039,0,0,0,4.317-.857" transform="translate(-10486.436 -225.948)" fill="#e8380d"/><path d="M652.727,164.322c-.85-2.806-1.917-4.922-2.382-4.719s-.151,2.637.7,5.443a15.517,15.517,0,0,0,2.382,4.722,17.5,17.5,0,0,0-.7-5.446" transform="translate(-10486.037 -222.614)" fill="#e8380d"/><path d="M649.38,164.336c1.65-2.169,2.715-4.285,2.371-4.731s-1.957.952-3.607,3.12a15.918,15.918,0,0,0-2.37,4.727,11.288,11.288,0,0,0,3.605-3.116" transform="translate(-10487.714 -222.64)" fill="#e8380d"/><path d="M652.925,170.743c-1.735-2.058-3.422-3.378-3.769-2.942s.769,2.457,2.5,4.519a11.473,11.473,0,0,0,3.769,2.946,14.773,14.773,0,0,0-2.5-4.523" transform="translate(-10486.438 -219.484)" fill="#e8380d"/><path d="M649.2,173.437c.74-2.857.965-5.349.5-5.561s-1.431,1.931-2.173,4.787a18.589,18.589,0,0,0-.5,5.561,15.151,15.151,0,0,0,2.17-4.787" transform="translate(-10487.243 -219.429)" fill="#e8380d"/><path d="M657.1,182.259c-2.148-1.3-4.076-1.913-4.3-1.366s1.327,2.048,3.472,3.352a9.719,9.719,0,0,0,4.3,1.36,12.084,12.084,0,0,0-3.471-3.346" transform="translate(-10485.02 -214.489)" fill="#e8380d"/><path d="M653.751,186.491c.019-3.007-.366-5.464-.859-5.49s-.9,2.388-.916,5.392a18.093,18.093,0,0,0,.855,5.493,17.1,17.1,0,0,0,.92-5.395" transform="translate(-10485.326 -214.37)" fill="#e8380d"/><path d="M653.4,177.055c-1.486-1.562-2.907-2.525-3.172-2.15s.723,1.945,2.209,3.505a8.938,8.938,0,0,0,3.173,2.151,11.653,11.653,0,0,0-2.211-3.507" transform="translate(-10486.017 -216.748)" fill="#e8380d"/><path d="M650.395,179.511c.488-2.36.575-4.395.191-4.537s-1.086,1.655-1.573,4.017a15.11,15.11,0,0,0-.184,4.537,12.634,12.634,0,0,0,1.566-4.017" transform="translate(-10486.574 -216.694)" fill="#e8380d"/><path d="M692.561,198.288a40.216,40.216,0,0,0,6.356-24.984c-.6-9.123-3.981-17.407-9.515-23.332l-.582.857c5.36,5.73,8.626,13.744,9.208,22.565a38.937,38.937,0,0,1-6.147,24.169Z" transform="translate(-10471.141 -226.317)" fill="#deb253"/><path d="M688.487,156.512c-.216-3.4.057-6.231.611-6.312s1.176,2.611,1.395,6.015a20.9,20.9,0,0,1-.611,6.312,19.08,19.08,0,0,1-1.395-6.015" transform="translate(-10471.298 -226.23)" fill="#e8380d"/><path d="M693.371,153.539c-2.536-1.2-4.443-2.722-4.266-3.386s2.373-.231,4.909.97a13.614,13.614,0,0,1,4.26,3.388,10.237,10.237,0,0,1-4.9-.971" transform="translate(-10471.035 -226.368)" fill="#e8380d"/><path d="M692.639,165.051c.967-3.191,2.177-5.591,2.708-5.363s.172,3-.795,6.187a17.71,17.71,0,0,1-2.7,5.363,19.8,19.8,0,0,1,.789-6.187" transform="translate(-10469.979 -222.582)" fill="#e8380d"/><path d="M697.3,165.065c-1.875-2.46-3.077-4.867-2.691-5.371s2.223,1.079,4.1,3.543a18.148,18.148,0,0,1,2.69,5.374,12.815,12.815,0,0,1-4.1-3.546" transform="translate(-10468.938 -222.61)" fill="#e8380d"/><path d="M693.371,172.349c1.971-2.341,3.891-3.842,4.285-3.346s-.878,2.794-2.845,5.137a13.092,13.092,0,0,1-4.282,3.346,16.752,16.752,0,0,1,2.842-5.137" transform="translate(-10470.483 -219.026)" fill="#e8380d"/><path d="M696.531,175.4c-.841-3.248-1.094-6.075-.573-6.317s1.629,2.191,2.471,5.439a21.073,21.073,0,0,1,.568,6.317,17.153,17.153,0,0,1-2.465-5.439" transform="translate(-10468.497 -218.963)" fill="#e8380d"/><path d="M689.1,185.426c2.438-1.478,4.623-2.169,4.879-1.546s-1.506,2.324-3.943,3.8a11.046,11.046,0,0,1-4.884,1.546,13.732,13.732,0,0,1,3.947-3.8" transform="translate(-10472.554 -213.35)" fill="#e8380d"/><path d="M690.994,190.235c-.021-3.414.417-6.206.972-6.238s1.024,2.715,1.044,6.127a20.465,20.465,0,0,1-.976,6.238,19.591,19.591,0,0,1-1.04-6.127" transform="translate(-10470.304 -213.217)" fill="#e8380d"/><path d="M692.546,179.515c1.687-1.773,3.3-2.868,3.6-2.442s-.819,2.208-2.508,3.985a10.2,10.2,0,0,1-3.6,2.442,13.142,13.142,0,0,1,2.511-3.985" transform="translate(-10470.673 -215.918)" fill="#e8380d"/><path d="M694.9,182.307c-.555-2.686-.652-4.992-.215-5.158s1.233,1.882,1.783,4.565a17.052,17.052,0,0,1,.215,5.156,14.462,14.462,0,0,1-1.783-4.564" transform="translate(-10468.986 -215.856)" fill="#e8380d"/></g></g></svg>