<svg xmlns="http://www.w3.org/2000/svg" width="593.354" height="169.328" viewBox="0 0 593.354 169.328"><g transform="translate(0 1.994)"><g transform="translate(-282.612 -912.494)"><g transform="translate(834.117 983.529)"><path d="M345.139,73.029a48.169,48.169,0,0,0,1.272,5.86,56.3,56.3,0,0,0,1.968,5.692c.751,1.868,1.613,3.7,2.533,5.509s1.916,3.589,2.954,5.353c2.072,3.531,4.339,6.983,6.628,10.455a106.715,106.715,0,0,1,6.469,10.985,46.3,46.3,0,0,1,4.242,12.371,37.645,37.645,0,0,1-.027,13.205,39.546,39.546,0,0,1-1.649,6.4,32.008,32.008,0,0,1-2.862,6.045,36.249,36.249,0,0,1-3.97,5.325c-.949,1.064-1.945,2.071-2.971,3.034a2.2,2.2,0,0,1-3.165-.158v0a2.194,2.194,0,0,1,.146-3.035,35.534,35.534,0,0,0,6.129-7.473,29.241,29.241,0,0,0,2.45-5.236,34.8,34.8,0,0,0,1.454-5.678,33.614,33.614,0,0,0,.033-11.649,41.875,41.875,0,0,0-3.794-11.194,102.637,102.637,0,0,0-6.155-10.556c-2.251-3.507-4.516-7.047-6.615-10.725a81.4,81.4,0,0,1-5.546-11.524c-.387-1-.734-2.023-1.068-3.047-.316-1.031-.623-2.066-.88-3.116a47.678,47.678,0,0,1-1.16-6.382Z" transform="translate(-329.927 -73.029)" fill="#1a1311"/><path d="M345.147,73.416a48.172,48.172,0,0,0,.027,6.47c.079,1.079.188,2.155.334,3.231s.309,2.146.514,3.215c.4,2.139.919,4.264,1.516,6.375s1.26,4.216,1.98,6.309,1.49,4.179,2.282,6.268l1.2,3.134c.4,1.05.808,2.128,1.19,3.2a80.944,80.944,0,0,1,3.654,13.349c.2,1.15.366,2.311.487,3.481s.2,2.349.241,3.534a36.664,36.664,0,0,1-.464,7.147,34.107,34.107,0,0,1-.807,3.537,32.106,32.106,0,0,1-1.234,3.431,35.318,35.318,0,0,1-3.563,6.248,50.123,50.123,0,0,1-4.483,5.448,58.666,58.666,0,0,1-14.859,11.276,2.2,2.2,0,0,1-2.087-3.866,53.406,53.406,0,0,0,8.968-6.073,50.2,50.2,0,0,0,8.78-9.378,30.942,30.942,0,0,0,3.1-5.438,27.615,27.615,0,0,0,1.043-2.907,29.739,29.739,0,0,0,.688-3.03,38.235,38.235,0,0,0-.21-12.661,76.708,76.708,0,0,0-3.4-12.631c-.364-1.044-.747-2.069-1.139-3.12l-1.172-3.172c-.776-2.122-1.535-4.26-2.251-6.423a88.006,88.006,0,0,1-3.418-13.342,51.8,51.8,0,0,1-.525-13.926Z" transform="translate(-329.927 -73.029)" fill="#1a1311"/></g><g transform="translate(282.612 925.135)"><path d="M559.874,142.646H3.8c-2.1,0-3.8-1.039-3.8-2.32V16.955c0-1.282,1.7-2.32,3.8-2.32h556.07c4.683,0,8.478,2.315,8.478,5.172V137.473c0,2.857-3.8,5.173-8.478,5.173" transform="translate(0 -14.635)" fill="#004a83"/><rect width="537.667" height="109.813" transform="translate(13.388 8.865)" fill="#fff"/></g><path d="M16.555,155.286H9.481a1.821,1.821,0,0,1-1.822-1.821V3.816A1.823,1.823,0,0,1,9.481,1.994h7.074a1.823,1.823,0,0,1,1.822,1.822V153.465a1.821,1.821,0,0,1-1.822,1.821" transform="translate(282.612 910.5)" fill="#fff"/><path d="M1.821,0H8.9a1.821,1.821,0,0,1,1.821,1.821V151.47A1.822,1.822,0,0,1,8.9,153.292H1.822A1.822,1.822,0,0,1,0,151.47V1.821A1.821,1.821,0,0,1,1.821,0Z" transform="translate(290.271 912.495)" fill="none" stroke="#1a1311" stroke-miterlimit="10" stroke-width="3.989"/><path d="M23.877,11.942c1.332.3,2.148.962,2.148,2.148v129.1c0,1.186-.928,1.769-2.148,2.148a41.8,41.8,0,0,1-21.729,0C.863,144.91,0,144.376,0,143.19V14.09c0-1.186.895-1.811,2.148-2.148a46.4,46.4,0,0,1,21.729,0" transform="translate(282.612 910.5)" fill="#004a83"/></g><path d="M-16.544,2.632A6.2,6.2,0,0,0-14.9,2.068,19.807,19.807,0,0,0-10.34-.564,3.252,3.252,0,0,0-9.259-3.149c0-2.632-.141-5.217-.188-7.849l3.29.141a18.908,18.908,0,0,0,2.538.188c.376,0,.47-.423.564-1.034.141-.893.282-2.115.423-3.008,0-.188.094-.564.094-.752a.4.4,0,0,0-.376-.376,11.642,11.642,0,0,0-1.269.141c-.705.047-1.363.141-2.068.141H-9.494c0-1.269.047-2.585,0-3.9l2.726.141c.94,0,2.585.188,3.1.188s.47-.235.517-.705c.141-.8.235-1.6.376-2.3.141-.8.282-1.41.282-1.692,0-.235,0-.376-.235-.423a4.215,4.215,0,0,0-.846.094,16.02,16.02,0,0,1-2.585.235c-2.35.094-4.606.094-6.862.141V-27.26h1.739c1.034,0,2.068,0,3.1.047a13.373,13.373,0,0,0,1.927.188c.423,0,.423-.282.517-.846.141-1.128.47-3.243.47-3.572,0-.423,0-.658-.47-.658a15.081,15.081,0,0,0-2.021.329c-1.692.141-3.478.141-5.217.141.047-.611.047-1.269.094-1.974.047-1.128.235-2.256.235-3.431,0-.47-.611-.47-1.081-.47h-3.713c-.376,0-.752.047-.752.564,0,.282.094.564.094.846.094.517.141,1.081.188,1.645,0,.94.047,1.88.047,2.82-.94.047-1.927.047-2.867.047s-1.88,0-2.82-.094a8.509,8.509,0,0,0-1.081-.141c-.47,0-.517.329-.517.752v3.431c0,.423,0,.8.517.8.188,0,.376-.047.611-.047a25.762,25.762,0,0,1,2.679-.235c1.175-.047,2.35-.094,3.478-.094.047,1.269.047,2.162.047,3.478-1.41,0-2.82-.047-4.23-.047-1.081,0-2.115.047-3.2,0a7.651,7.651,0,0,0-1.457-.141c-.329.047-.329.611-.329.987v2.491c0,.517-.235,1.6.517,1.6.8,0,2.256-.282,3.149-.376,2.867-.188,6.392-.282,9.353-.329v4.089H-25.051c-.376,0-.8-.141-1.175-.141-.423,0-.376.47-.376.987,0,1.034-.047,2.538-.047,2.82,0,.423-.047,1.081.517,1.081.47,0,1.034-.094,1.551-.094,1.88-.094,3.807-.235,5.734-.235,1.645,0,3.243.047,4.841.047v6.016a3.092,3.092,0,0,1-.188,1.316,3.316,3.316,0,0,1-1.128.752,38.588,38.588,0,0,1-5.17,1.5c-.329.094-.846.047-.846.517,0,.282.517.611,1.128,1.081.94.705,1.645,1.222,2.632,1.88A1.886,1.886,0,0,0-16.544,2.632ZM-36.19,1.739c1.316,0,2.632-.047,3.948-.047.47,0,1.034,0,1.034-.611,0-.47-.094-.94-.094-1.41,0-4.935-.047-9.588-.047-14.382a39.613,39.613,0,0,0,3.76-1.833c.235-.141.8-.282.846-.752,0-.329-.752-2.444-.893-2.914-.047-.235-.329-1.5-.611-1.5-.423,0-1.316.752-1.692.987-.423.235-.893.517-1.41.752l.047-5.5,1.692-.047c.752,0,1.551.141,2.3.188.376,0,.423-.282.47-.8.047-.94.376-3.1.376-3.948,0-.282-.094-.376-.376-.376a9.689,9.689,0,0,0-1.222.141l-3.243.141c.094-1.974.235-4,.329-6.016,0-.235.047-.423.047-.658,0-.658-.517-.658-1.222-.658h-3.29c-.47,0-.752,0-.752.564a7.012,7.012,0,0,0,.094.987c.094,1.833,0,4,0,5.875h-1.739c.047-.47.094-.987.094-1.457.047-.8.141-1.41.188-1.927.047-.564.141-.94,0-1.128-.188-.235-.423-.282-1.081-.376-.893-.141-1.551-.141-2.491-.282-.658-.094-1.128-.141-1.222.094a5.1,5.1,0,0,0,.047,1.128c0,.423-.047.94-.047,1.6a47,47,0,0,1-.376,5.029,31.066,31.066,0,0,1-1.034,4.183c-.188.517-.517,1.034-.329,1.457.094.141.564.141,1.034.282.752.188,1.645.376,2.491.564a3.765,3.765,0,0,0,1.222.141c.235,0,.376-.752.47-1.269q.353-1.833.564-3.384l2.209-.047q.071,3.878,0,7.755c-1.034.423-2.209.846-3.337,1.269-1.175.47-2.444.846-3.666,1.269-.752.235-2.115.564-2.115.987a3.728,3.728,0,0,0,.329,1.457c.282.8.611,1.645.8,2.021.094.329.376,1.128.846,1.128a10.171,10.171,0,0,0,2.115-.893c1.645-.7,3.337-1.363,4.982-2.068-.047,1.6-.047,3.337-.094,4.935C-36.331-4.841-36.472-2.3-36.66.47c0,.235-.047.47-.047.705C-36.707,1.551-36.519,1.739-36.19,1.739Zm12.408-3.9a2.364,2.364,0,0,0,1.269-.376,17.125,17.125,0,0,0,5.687-4.653,4.277,4.277,0,0,0,.987-2.115c0-.235-.094-.376-.517-.376-.47.047-1.5.376-2.444.611a46.745,46.745,0,0,1-5.734.8c-.611.047-1.363.094-1.316.658a7.706,7.706,0,0,0,.282,1.833,25.791,25.791,0,0,0,.94,2.679C-24.393-2.538-24.064-2.162-23.782-2.162Zm55.93,3.854c.423,0,.94-.611,1.222-.893a28.223,28.223,0,0,0,3.995-6.063c.94,1.41,1.88,2.773,2.726,4.23A17.478,17.478,0,0,0,41.125.517c.282.423.564.7.8.7.282,0,.8-.611,1.034-.846.752-.752,1.457-1.551,2.256-2.256.329-.282.752-.423.752-.893,0-.282-1.363-1.363-1.645-1.692-1.786-1.927-3.431-3.948-5.029-6.016l.423-2.068a63.524,63.524,0,0,0,.564-8.883c.846,0,1.645.047,2.491.094.47.047.94.094,1.316.094.423,0,.47-.47.517-.893.094-.752.141-1.269.329-2.209.094-.517.141-1.034.282-1.551a2,2,0,0,0,.094-.517c0-.282-.188-.376-.47-.376a7.84,7.84,0,0,0-1.457.235,43.637,43.637,0,0,1-4.982.282H35.532c.329-1.128.611-2.3.94-3.431.282-1.128.517-2.209.893-3.431a5.347,5.347,0,0,0,.329-1.551c0-.329-.423-.47-1.034-.658-1.034-.329-2.256-.611-2.961-.846a3.628,3.628,0,0,0-.705-.094c-.282,0-.329.423-.376.893-.094.564-.141,1.128-.188,1.363a60.122,60.122,0,0,1-1.316,6.439,30.751,30.751,0,0,1-1.128,3.525c0-.564-.047-1.175-.047-1.739,0-2.867.047-5.734.047-8.6,0-.282.047-.564.047-.846,0-.47-.235-.517-.705-.517-.94.047-1.645,0-2.585,0-.235,0-.611.047-.611.329,0,.376.094.8.094,1.175.094,2.35,0,4.935,0,7.285H24.487c0-1.551-.047-3.243-.047-4.747,0-1.457,0-3.055.094-4.512a7.524,7.524,0,0,0,.141-1.081c0-.423-.423-.517-.752-.517-.47,0-2.209,0-2.726-.047-.376,0-.94,0-.94.47a7.8,7.8,0,0,0,.141,1.034c.094.7.047,4.042.047,4.653,0,2.35-.047,2.867,0,4.7H18.659v-2.914c-.047-1.41,0-2.82.094-4.23,0-.282.047-.564.047-.893,0-.658-.329-.7-.94-.7-.94,0-2.162.047-2.4.047-.376,0-.752,0-.752.423,0,.47.047.658.094,1.269.094.94.094,1.88.094,2.82,0,2.444-.094,4.888-.094,7.332,0,.282,0,.752.329.752.423,0,.8-.047,1.175-.047.7,0,1.457-.094,2.162-.094h7.9c1.175-.047,2.256-.047,3.384-.047-.329.846-.7,1.739-1.128,2.632-3.525.141-7.1.047-10.622.047a17.247,17.247,0,0,1-3.1-.094.649.649,0,0,0,.282-.517,3.884,3.884,0,0,0-.47-1.034c-.329-.611-.705-1.081-1.222-1.927-.188-.282-.329-.7-.7-.752-.376,0-.94.7-1.269,1.034a43.69,43.69,0,0,1-6.627,4.747,24.222,24.222,0,0,1-2.867,1.551c-.376.141-.987.329-.987.658a3.193,3.193,0,0,0,.282.987c.282.8.564,1.457.846,2.115.141.423.188.94.611,1.034.282.047.893-.376,1.175-.47a38.471,38.471,0,0,0,4-2.491c-.047,3.008-.094,5.969-.188,8.977-.047,1.927-.235,3.76-.329,5.734A8.772,8.772,0,0,0,7.238.094c0,.329.423.47.752.47h3.243c.423,0,1.222-.047,1.269-.517a12.669,12.669,0,0,0-.188-1.316q-.141-3.948-.141-7.9v-9.588c.658-.47,1.269-.94,1.927-1.363-.047.987,0,1.974,0,2.914,0,.47.047.705.611.705.517,0,1.081-.094,1.645-.141q1.9-.071,3.807,0v2.914l-2.021.047c-.893,0-1.88-.141-2.444-.188-.376,0-.376.517-.376,1.081v2.4c0,.47.047.752.423.8.282,0,.752-.094,1.081-.094a9.39,9.39,0,0,1,1.6-.094l1.692-.047V-6.58c-1.363.094-2.679.094-4.089.141-.188.047-.94,0-1.457.047-.329,0-.658-.047-.7.282a3.063,3.063,0,0,0,.094.846c.141.94.188,1.692.282,2.4.047.329.188,1.128.517,1.175a6.918,6.918,0,0,0,.987,0c2.679-.282,5.405-.611,8.084-.846,1.551-.141,2.679-.282,4.183-.47.8-.094,1.6-.141,2.35-.282-.329.329-.611.611-.94.893-.188.141-1.081.7-1.081.94,0,.329.611.658.846.8.564.423,1.457,1.128,2.162,1.786C31.725,1.457,31.913,1.645,32.148,1.692ZM4.747-24.487a3.548,3.548,0,0,0,.7-.329A88.914,88.914,0,0,0,13.4-30.221c.423-.329.987-.47,1.034-1.081.047-.141-.188-.47-.47-.987-.517-.846-1.316-2.021-1.6-2.4a.858.858,0,0,0-.611-.376c-.329,0-.658.423-.893.658a42.4,42.4,0,0,1-7.473,5.358c-.235.141-1.081.423-1.081.752a1.837,1.837,0,0,0,.329.8c.423.658,1.128,1.692,1.457,2.256C4.324-24.816,4.559-24.487,4.747-24.487Zm26.7,20.116c-.141-.752-.141-1.5-.235-2.256-.047-.282-.047-.47-.094-.658-.047-.329-.094-.423-.376-.47a5.393,5.393,0,0,0-.658.094c-1.786.282-3.713.564-5.687.752V-9.823h2.068c.7,0,1.41.094,1.833.094.423-.047.658,0,.752-.7.141-1.175.376-2.632.376-3.055,0-.329-.047-.329-.47-.329s-.846.094-1.269.094c-.893.047-2.35.047-3.29.047v-2.961c1.269,0,2.538.047,3.76.094a10.181,10.181,0,0,0,1.692.047c.517-.047.47-.658.47-1.034l.8.376a4.591,4.591,0,0,0,.893.376c.517,0,.7-.8.846-1.175l1.269-3.525h1.833a49.513,49.513,0,0,1-.329,6.345l-.8-1.034c-.188-.235-.658-.94-.987-.94-.376,0-.987.611-1.316.846-.329.282-.987.8-1.5,1.269-.282.282-.423.47-.423.752,0,.141.564.658.658.8a37.989,37.989,0,0,1,3.2,4.042,11.427,11.427,0,0,1-1.034,2.3A23.192,23.192,0,0,1,31.443-4.371Z" transform="translate(281.888 92.006)"/></g></svg>