<svg xmlns="http://www.w3.org/2000/svg" width="85" height="85" viewBox="0 0 85 85"><g transform="translate(9458 -2243)"><circle cx="42.5" cy="42.5" r="42.5" transform="translate(-9458 2243)" fill="#eb3e2f"/><path d="M-1.37-11.422a11.237,11.237,0,0,1-.7,4.469A10.663,10.663,0,0,1-6.792-.187a7.165,7.165,0,0,1-3.8,1.156A7.747,7.747,0,0,1-15.651-.937a11.659,11.659,0,0,1-3.266-4.422,14.687,14.687,0,0,1-1.25-6.062,15.994,15.994,0,0,1,1.078-5.891,11.062,11.062,0,0,1,3.461-4.836,7.791,7.791,0,0,1,4.883-1.758q4.063,0,6.828,3.891A12.029,12.029,0,0,1-2.073-16,11.455,11.455,0,0,1-1.37-11.422Zm-5.2,0a21.176,21.176,0,0,0-1.141-7.422q-.984-2.609-2.938-2.609h-.062q-1.938,0-3,2.547a19.691,19.691,0,0,0-1.219,7.484q0,6.484,2.078,8.984a2.854,2.854,0,0,0,2.266,1.125q1.891,0,2.875-2.656A21.607,21.607,0,0,0-6.573-11.422Zm25.99,3.938a7.336,7.336,0,0,1-1.437,4.344,9.527,9.527,0,0,1-3.5,2.984A10.758,10.758,0,0,1,9.464,1.031,10.866,10.866,0,0,1,5.9.367,9.581,9.581,0,0,1,2.776-1.344,3.626,3.626,0,0,1,1.433-4.2a2.724,2.724,0,0,1,.781-2.062,2.9,2.9,0,0,1,2.094-.75,2.9,2.9,0,0,1,1.875.642,2.126,2.126,0,0,1,.875,1.739,2.989,2.989,0,0,1-.125.956,3.052,3.052,0,0,0-.125.971q0,.658.859,1.081A3.29,3.29,0,0,0,9.1-1.3,4.431,4.431,0,0,0,13.573-4.5a8.435,8.435,0,0,0,.578-2.91,5.253,5.253,0,0,0-2.125-4.647A4.381,4.381,0,0,0,9.5-12.719a5.86,5.86,0,0,0-4.484,2.344l-2.3-.859.859-12.3H18.1l-.859,3.578H6.776l-.484,5.594,1.531-.609a8.48,8.48,0,0,1,3.016-.422,8.752,8.752,0,0,1,4.438,1.078A7.478,7.478,0,0,1,19.417-7.484Z" transform="translate(-9414 2297)" fill="#fff"/></g></svg>