<svg xmlns="http://www.w3.org/2000/svg" width="85" height="85" viewBox="0 0 85 85"><g transform="translate(8340 -1615)"><path d="M42.5,0A42.5,42.5,0,1,1,0,42.5,42.5,42.5,0,0,1,42.5,0Z" transform="translate(-8340 1615)" fill="#eb3e2f"/><path d="M-1.175-11.422a11.237,11.237,0,0,1-.7,4.469A10.663,10.663,0,0,1-6.6-.187a7.165,7.165,0,0,1-3.8,1.156A7.747,7.747,0,0,1-15.456-.937a11.659,11.659,0,0,1-3.266-4.422,14.687,14.687,0,0,1-1.25-6.062,15.994,15.994,0,0,1,1.078-5.891,11.062,11.062,0,0,1,3.461-4.836,7.791,7.791,0,0,1,4.883-1.758q4.063,0,6.828,3.891A12.029,12.029,0,0,1-1.878-16,11.455,11.455,0,0,1-1.175-11.422Zm-5.2,0a21.176,21.176,0,0,0-1.141-7.422q-.984-2.609-2.938-2.609h-.062q-1.938,0-3,2.547a19.691,19.691,0,0,0-1.219,7.484q0,6.484,2.078,8.984a2.854,2.854,0,0,0,2.266,1.125q1.891,0,2.875-2.656A21.607,21.607,0,0,0-6.378-11.422ZM18.44.641H3.268V-1.687H4.706a11.2,11.2,0,0,0,1.672-.094,3.128,3.128,0,0,0,1.25-.344,1.314,1.314,0,0,0,.578-.844,4.605,4.605,0,0,0,.313-2.017V-15.932q0-2.486-1.219-2.658a35,35,0,0,0-4.281-.187v-2.377q5.516,0,8.031-2.752H13.44V-4.439a2.631,2.631,0,0,0,.719,2.08,3.58,3.58,0,0,0,2.172.641q.563.031,2.109.031Z" transform="translate(-8297 1669)" fill="#fff"/></g></svg>