<svg xmlns="http://www.w3.org/2000/svg" width="593.354" height="169.328" viewBox="0 0 593.354 169.328"><g transform="translate(0 1.994)"><g transform="translate(-282.612 -912.494)"><g transform="translate(834.117 983.529)"><path d="M345.139,73.029a48.169,48.169,0,0,0,1.272,5.86,56.3,56.3,0,0,0,1.968,5.692c.751,1.868,1.613,3.7,2.533,5.509s1.916,3.589,2.954,5.353c2.072,3.531,4.339,6.983,6.628,10.455a106.715,106.715,0,0,1,6.469,10.985,46.3,46.3,0,0,1,4.242,12.371,37.645,37.645,0,0,1-.027,13.205,39.546,39.546,0,0,1-1.649,6.4,32.008,32.008,0,0,1-2.862,6.045,36.249,36.249,0,0,1-3.97,5.325c-.949,1.064-1.945,2.071-2.971,3.034a2.2,2.2,0,0,1-3.165-.158v0a2.194,2.194,0,0,1,.146-3.035,35.534,35.534,0,0,0,6.129-7.473,29.241,29.241,0,0,0,2.45-5.236,34.8,34.8,0,0,0,1.454-5.678,33.614,33.614,0,0,0,.033-11.649,41.875,41.875,0,0,0-3.794-11.194,102.637,102.637,0,0,0-6.155-10.556c-2.251-3.507-4.516-7.047-6.615-10.725a81.4,81.4,0,0,1-5.546-11.524c-.387-1-.734-2.023-1.068-3.047-.316-1.031-.623-2.066-.88-3.116a47.678,47.678,0,0,1-1.16-6.382Z" transform="translate(-329.927 -73.029)" fill="#1a1311"/><path d="M345.147,73.416a48.172,48.172,0,0,0,.027,6.47c.079,1.079.188,2.155.334,3.231s.309,2.146.514,3.215c.4,2.139.919,4.264,1.516,6.375s1.26,4.216,1.98,6.309,1.49,4.179,2.282,6.268l1.2,3.134c.4,1.05.808,2.128,1.19,3.2a80.944,80.944,0,0,1,3.654,13.349c.2,1.15.366,2.311.487,3.481s.2,2.349.241,3.534a36.664,36.664,0,0,1-.464,7.147,34.107,34.107,0,0,1-.807,3.537,32.106,32.106,0,0,1-1.234,3.431,35.318,35.318,0,0,1-3.563,6.248,50.123,50.123,0,0,1-4.483,5.448,58.666,58.666,0,0,1-14.859,11.276,2.2,2.2,0,0,1-2.087-3.866,53.406,53.406,0,0,0,8.968-6.073,50.2,50.2,0,0,0,8.78-9.378,30.942,30.942,0,0,0,3.1-5.438,27.615,27.615,0,0,0,1.043-2.907,29.739,29.739,0,0,0,.688-3.03,38.235,38.235,0,0,0-.21-12.661,76.708,76.708,0,0,0-3.4-12.631c-.364-1.044-.747-2.069-1.139-3.12l-1.172-3.172c-.776-2.122-1.535-4.26-2.251-6.423a88.006,88.006,0,0,1-3.418-13.342,51.8,51.8,0,0,1-.525-13.926Z" transform="translate(-329.927 -73.029)" fill="#1a1311"/></g><g transform="translate(282.612 925.135)"><path d="M559.874,142.646H3.8c-2.1,0-3.8-1.039-3.8-2.32V16.955c0-1.282,1.7-2.32,3.8-2.32h556.07c4.683,0,8.478,2.315,8.478,5.172V137.473c0,2.857-3.8,5.173-8.478,5.173" transform="translate(0 -14.635)" fill="#004a83"/><rect width="537.667" height="109.813" transform="translate(13.388 8.865)" fill="#fff"/></g><path d="M16.555,155.286H9.481a1.821,1.821,0,0,1-1.822-1.821V3.816A1.823,1.823,0,0,1,9.481,1.994h7.074a1.823,1.823,0,0,1,1.822,1.822V153.465a1.821,1.821,0,0,1-1.822,1.821" transform="translate(282.612 910.5)" fill="#fff"/><path d="M1.821,0H8.9a1.821,1.821,0,0,1,1.821,1.821V151.47A1.822,1.822,0,0,1,8.9,153.292H1.822A1.822,1.822,0,0,1,0,151.47V1.821A1.821,1.821,0,0,1,1.821,0Z" transform="translate(290.271 912.495)" fill="none" stroke="#1a1311" stroke-miterlimit="10" stroke-width="3.989"/><path d="M23.877,11.942c1.332.3,2.148.962,2.148,2.148v129.1c0,1.186-.928,1.769-2.148,2.148a41.8,41.8,0,0,1-21.729,0C.863,144.91,0,144.376,0,143.19V14.09c0-1.186.895-1.811,2.148-2.148a46.4,46.4,0,0,1,21.729,0" transform="translate(282.612 910.5)" fill="#004a83"/></g><path d="M-163.325-2.35a98.564,98.564,0,0,0,11.374-1.222c.7-.141,1.081-.376,1.081-1.128,0-1.363-.094-2.726-.188-4.042-.047-.282-.094-1.034-.47-1.034a2.966,2.966,0,0,0-1.081.376,34.073,34.073,0,0,1-6.439,1.645,38.809,38.809,0,0,1-5.734.517,31.426,31.426,0,0,1-6.439-.7c-1.5-.376-2.632-1.034-2.632-2.115a5.319,5.319,0,0,1,1.833-3.619c.282-.282.846-.611.846-1.034,0-.188-.329-.423-.752-.752-.658-.423-1.41-.752-2.115-1.128a1.484,1.484,0,0,0-.705-.235c-.376,0-.611.329-.846.564a9.656,9.656,0,0,0-2.867,6.768A5.771,5.771,0,0,0-174.7-4a23.7,23.7,0,0,0,7.708,1.551C-165.769-2.35-164.547-2.35-163.325-2.35Zm9.259-21.667c.517-.047.564-.611.564-1.034a27.649,27.649,0,0,0,.282-3.2c0-.752-.141-.893-.893-1.034a52.32,52.32,0,0,0-5.452-.235c-1.645-.047-3.29-.047-4.935-.047a85.44,85.44,0,0,0-9.588.517c-.47.094-.846.188-.846.7,0,.47.235,2.35.329,3.478.047.47.188.705.658.705a11.642,11.642,0,0,0,1.269-.141,85.38,85.38,0,0,1,9.165-.376c1.551,0,3.1.141,4.606.235,1.222.094,2.35.141,3.619.282A12.208,12.208,0,0,0-154.066-24.017Zm5.593-3.713c.141,0,.329-.188.517-.376.329-.423.658-.8.94-1.128a.937.937,0,0,0,.329-.517c0-.329-.423-.658-.705-.987-.517-.517-1.081-.987-1.786-1.6a20.648,20.648,0,0,0-1.692-1.41c-.329-.235-.611-.47-.8-.47a1.345,1.345,0,0,0-.564.423l-.893.846c-.141.141-.282.282-.235.423,0,.188.329.282.7.611a21,21,0,0,1,1.645,1.5c.517.517,1.316,1.41,1.88,2.068C-148.849-28.012-148.661-27.73-148.473-27.73Zm4.089-2.914c.141,0,.329-.188.47-.376.376-.423.705-.8.987-1.081a1.208,1.208,0,0,0,.329-.564c0-.282-.423-.611-.658-.893a22.269,22.269,0,0,0-1.833-1.692c-.564-.517-1.175-.987-1.692-1.41-.329-.235-.517-.423-.8-.423-.188,0-.329.188-.564.376l-.893.846c-.188.141-.282.282-.235.423,0,.235.329.282.705.611a21,21,0,0,1,1.645,1.5c.517.517,1.316,1.41,1.88,2.068C-144.76-30.926-144.572-30.644-144.384-30.644ZM-115.62,1.739c.705,0,1.081,0,1.081-.705.094-.94.094-3.337.141-5.781.047-3.1,0-6.3,0-6.815.376.517.752,1.175,1.128,1.692.329.376.47.658.8.658.235,0,.517-.282.846-.7a26.078,26.078,0,0,0,2.867-4.841c.329.47,1.88,3.149,2.961,4.606.423.564.611.94.94.94.282,0,.47-.376.846-.752.47-.517.987-1.175,1.175-1.363l-.047,4.794c-.047,2.491,0,4.982,0,7.426,0,.658.047.846.8.846.987,0,2.068-.047,3.055-.047.752,0,.987.047,1.034-.376,0-.376-.047-1.034-.094-1.41-.094-.94-.094-1.927-.141-2.867-.141-2.538-.047-5.123-.094-7.661-.094-4.418-.141-8.883-.141-13.348,0-.893,0-1.786.047-2.679.047-.47.094-1.175.094-1.645,0-.564.047-.7-.611-.7-.752,0-1.551.047-2.3.094-1.6.094-3.2.047-4.841.047.094-1.833.094-3.713.188-5.546.047-.752.141-1.739.141-2.538,0-.47-.329-.517-.752-.517h-3.525c-.329,0-.517.282-.517.8,0,1.5.235,2.961.235,4.512,0,1.081.047,2.162,0,3.29h-2.115c-1.551,0-3.1,0-4.606-.141-.517-.047-.987-.094-1.5-.094-.47,0-.517.235-.517.611,0,.564.141,1.222.141,1.833.188,4.324.188,8.7.188,13.066,0,3.666-.282,7.285-.47,11-.094.846-.141,1.739-.235,2.632a9.925,9.925,0,0,0-.094,1.222c0,.376.376.376.705.376C-117.735,1.692-116,1.739-115.62,1.739Zm-17.672-4.747c.329,0,.611-.517.846-1.269a30.8,30.8,0,0,0,.893-6.392c0-.188.047-.94-.282-.94-.235,0-.846.564-1.081.752a47.8,47.8,0,0,1-4.136,2.679c-.329.141-1.034.329-1.034.8a2.576,2.576,0,0,0,.658,1.081,14.638,14.638,0,0,0,2.914,2.726A2.073,2.073,0,0,0-133.292-3.008ZM-122.9-4.7a1.667,1.667,0,0,0,.752-.282,15.173,15.173,0,0,0,2.773-2.35.642.642,0,0,0,.188-.517,2.5,2.5,0,0,0-.893-1.222,20.835,20.835,0,0,0-3.243-2.538,3.071,3.071,0,0,0-1.222-.564c-.188,0-.235.235-.235.376a9.156,9.156,0,0,0,.141,1.269,52.912,52.912,0,0,0,1.175,5.358C-123.375-4.935-123.234-4.7-122.9-4.7Zm-6.439,6.345h2.444c.846,0,1.316.141,1.316-.893,0-2.35-.188-4.794-.188-7.144,0-2.4-.047-4.653-.047-7.1,1.269,0,2.491.047,3.713.094h1.833c.47,0,.94-.141.94-.7a9.066,9.066,0,0,0-.376-1.5c-.705-2.209-1.927-6.063-2.162-6.345a.717.717,0,0,0-.564-.329,17.97,17.97,0,0,0-2.068.423c-.282.047-.987.141-.987.517,0,.094.188.47.329.94.329.94.846,2.3.94,2.773h-5.264c2.35-2.444,4.653-4.982,6.956-7.52.47-.517.987-.94,1.457-1.457.235-.235.752-.658.752-1.034,0-.141-.235-.423-.658-.893a17.675,17.675,0,0,0-1.927-1.786c-.423-.423-.658-.658-.846-.658-.282,0-.611.517-.752.752a20.9,20.9,0,0,1-1.5,2.256q-1.551,2.115-3.243,4.23c-.658-.705-1.269-1.41-1.974-2.115,2.068-2.35,4.559-4.747,6.815-7,.329-.329.846-.564.846-1.081,0-.423-.423-.658-.846-1.081-.376-.423-1.222-1.034-1.974-1.692-.376-.282-.658-.517-.893-.517-.376,0-.611.752-.752.987-.423.658-.893,1.316-1.363,1.927a48.6,48.6,0,0,1-5.969,6.486c-.423.376-1.222.846-1.222,1.5,0,.376.611.94.846,1.222,1.269,1.5,2.491,3.1,3.713,4.653-.846.987-1.692,1.927-2.585,2.914-.658.752-1.269,1.645-1.974,2.444-.282.376-.8.752-.705,1.41s.658.611,1.175.611c.329,0,.658-.047.987-.047,1.6-.141,3.243-.235,4.888-.282v2.115c0,1.6,0,3.243-.047,4.841-.047,2.115-.141,4.277-.235,6.392,0,.376-.094.752-.094,1.128C-130.519,1.739-129.908,1.645-129.344,1.645ZM-114.4-14.429v-9.917c1.363-.047,2.538,0,3.854,0a23.177,23.177,0,0,1-2.115,7.52A13.2,13.2,0,0,1-114.4-14.429Zm11.562.047a60.687,60.687,0,0,1-4.277-5.452,30.131,30.131,0,0,0,.752-4.512h3.525Zm45.355-6.2c.8,0,.752-1.081.8-1.786.047-1.034.282-3.1.47-5.452.188-2.209.235-3.29.47-5.5a12.148,12.148,0,0,0,.188-1.786c0-.846-.611-.8-1.363-.8-.658,0-1.316.047-1.974.094-3.9.141-7.332.047-11,.047-2.538,0-5.029-.047-7.52-.047-1.5-.047-3.008,0-4.512-.094-.517,0-1.034-.094-1.551-.094s-.94,0-.94.611c0,.564.235,1.128.282,1.739.188,1.739.47,4.465.611,6.2l.376,4.935c.094.705.094,1.6.329,1.786a1.6,1.6,0,0,0,.47.047c.705,0,1.41-.094,2.162-.141,1.457-.047,2.961-.188,4.465-.188,2.3-.047,4.606-.047,6.909-.047,2.021,0,4,.047,5.969.141,1.269.047,2.538.094,3.76.188C-58.609-20.68-58-20.586-57.481-20.586ZM-87.044-.094c.329,0,.846-.094,1.128-.094,2.256-.141,4.512-.235,6.768-.235,1.363,0,3.337.141,4.7.235.752.047,1.316.047,1.6.047.705,0,.8-.423.8-1.128,0-.752.141-2.162.188-2.867.188-3.2.141-5.076.423-8.272a32.364,32.364,0,0,0,.329-4.277c0-.611-.094-.94-.658-.987a9.759,9.759,0,0,0-1.645.047c-2.585.141-3.666.188-6.3.188-1.316,0-4.183-.094-5.5-.094-.893,0-1.786-.141-2.679-.141-.235,0-.376.376-.376.658,0,.846.141,1.88.188,2.726.188,2.679.423,4.042.517,6.674.047,1.739.188,3.525.188,5.217a8.544,8.544,0,0,0,0,1.551C-87.326-.423-87.373-.094-87.044-.094Zm4.089-5.029-.376-7.849c2.4-.047,4.794-.094,7.238,0-.141,2.867-.188,4.982-.329,7.849C-78.678-5.17-80.746-5.17-82.955-5.123ZM-67.586-.141c.329,0,.611-.094.94-.094,2.021-.141,4.042-.141,6.016-.141,1.927,0,3.807,0,5.734.141.423,0,.94.094,1.363.094.658,0,.705-.235.752-.893.047-.893.094-2.726.094-3.149.188-3.2.188-5.123.47-8.272.094-1.363.282-2.914.376-4.277,0-.658-.094-1.034-.564-1.128-.47-.047-1.175.141-1.692.141-2.538.141-3.619.235-6.251.235-1.316,0-4.277-.094-5.64-.141-.893-.047-1.786-.141-2.679-.141-.235,0-.329.47-.329.752,0,.846.188,1.786.235,2.679.141,2.632.376,3.995.423,6.674.094,1.739.188,3.478.188,5.217,0,.376-.047.987,0,1.551C-68.15-.423-67.962-.141-67.586-.141Zm3.9-5.076-.376-7.755c2.444,0,4.935-.141,7.332,0-.141,2.867-.282,4.888-.376,7.755C-59.314-5.311-61.476-5.264-63.685-5.217Zm2.35-20.163c-2.773,0-5.922-.047-8.7-.047h-8.46c-.094-1.457-.188-4.089-.329-5.64,4.888-.047,6.439-.094,8.789-.094,3.055,0,7.99,0,9.118.047C-61.1-29.281-61.288-26.837-61.335-25.38ZM-27.119-.047c3.666,0,7.379-1.175,7.755-5.358a41.028,41.028,0,0,1,7.1,3.76,3.145,3.145,0,0,0,1.128.564c.282,0,.423-.235.658-.611A18.249,18.249,0,0,0-9.212-4.23a3.84,3.84,0,0,0,.329-.987c0-.423-.94-.94-1.269-1.128A42.441,42.441,0,0,0-19.6-10.2c-.094-1.927-.141-3.854-.188-5.781A56.694,56.694,0,0,0-11.139-17.2c.564-.188.752-.282.7-.893-.047-.846,0-1.081-.047-1.974-.047-.517.047-1.081,0-1.457-.047-.329-.094-.564-.376-.564a3.769,3.769,0,0,0-.987.235,27.59,27.59,0,0,1-3.9.893c-1.363.235-2.773.423-4.136.564-.047-1.6.047-3.2-.047-4.747,1.222-.047,8.6-.329,10.669-.517.564-.047.8-.282.846-1.081.094-1.222.235-2.444.235-3.619,0-.376,0-.752-.47-.752a4.59,4.59,0,0,0-1.081.282,23.077,23.077,0,0,1-4.371.8c-1.927.188-3.807.282-5.734.376.094-1.645.329-3.337.517-5.076l.188-1.457c0-.564-.423-.564-.94-.611-1.175-.094-3.384-.141-3.9-.141s-.987.141-.987.705a5.109,5.109,0,0,0,.188,1.222,29.1,29.1,0,0,1,.188,4v1.5c-1.692.047-3.431.047-5.123.047a33.818,33.818,0,0,1-7.238-.8,7.3,7.3,0,0,0-.987-.188c-.564,0-.517.376-.564.752a29.6,29.6,0,0,0-.235,3.525c0,.893.235.846,1.034.893,2.538.141,9.87.282,11.233.282h2.021v4.794a51.126,51.126,0,0,1-7.567-.47c-.658-.094-2.256-.517-3.243-.752a2.64,2.64,0,0,0-.7-.188c-.329.047-.47.376-.564.752-.141.611-.282,1.222-.423,2.021a6.907,6.907,0,0,0-.235,1.222c0,.47.282.564.658.705a43.3,43.3,0,0,0,8.413,1.175c1.269,0,2.538,0,3.807-.047.047,1.5.047,3.008.094,4.559a21.768,21.768,0,0,0-3.055-.188c-2.068,0-4.7.235-6.486,1.363A4.377,4.377,0,0,0-35.908-6.11a5.078,5.078,0,0,0,1.645,3.854C-32.524-.564-29.563-.047-27.119-.047Zm0-4.183a9.509,9.509,0,0,1-3.337-.564c-.658-.282-1.128-.7-1.128-1.316,0-.47.47-.752,1.081-.94a9.535,9.535,0,0,1,2.35-.282,15.623,15.623,0,0,1,4.089.47C-24.064-4.747-25.192-4.23-27.119-4.23ZM33.746-2.209c.846,0,.846-.141,1.034-.846.282-1.034.517-2.35.8-3.384a6.7,6.7,0,0,0,.235-.94c0-.141-.094-.47-.235-.517-.423-.047-.611,0-1.269-.047-.846-.047-1.833-.094-2.115-.141-2.82-.282-6.392-1.034-8.789-2.632a5.264,5.264,0,0,1-2.632-4.7,7.858,7.858,0,0,1,3.2-6.251c3.008-2.491,7.191-4.747,11.045-5.217a20.5,20.5,0,0,1,2.4-.141c.329-.047,1.081-.047,1.692-.047.658.047,1.175-.141,1.175-.611a4.952,4.952,0,0,0-.235-1.222c-.329-1.034-.611-2.256-.8-2.961-.188-.564-.329-1.128-.8-1.128a9.245,9.245,0,0,0-1.128.141,29.23,29.23,0,0,1-3.384.47c-3.807.329-7.567.564-11.327.8-3.619.235-7.191.564-10.81.564-.752,0-1.457-.047-2.162-.047-.517-.047-1.034-.141-1.551-.141-.658,0-.705.564-.705,1.128v3.666c0,.47.141.8.658.8a6.747,6.747,0,0,0,1.692-.329A41.341,41.341,0,0,1,14.57-26.6c3.666-.329,7.332-.7,11-.987-.94.517-1.88,1.081-2.773,1.692-3.666,2.538-6.627,6.157-6.627,10.387,0,8.037,6.768,11.186,13.489,12.6A25.7,25.7,0,0,0,33.746-2.209ZM34.733-16.5c.141,0,.329-.188.517-.376a11.938,11.938,0,0,1,.94-1.081,1.208,1.208,0,0,0,.329-.564c0-.282-.423-.658-.7-.94A21.138,21.138,0,0,0,34.028-21.1c-.564-.517-1.175-.987-1.692-1.41-.329-.235-.611-.47-.752-.423-.235,0-.376.188-.611.376-.188.235-.611.564-.893.846-.141.141-.282.282-.235.423,0,.235.329.282.705.611a21.9,21.9,0,0,1,1.645,1.5c.517.517,1.316,1.41,1.88,2.068C34.357-16.779,34.545-16.5,34.733-16.5Zm4.089-2.914c.141,0,.329-.141.517-.376.329-.376.658-.8.94-1.081.188-.235.329-.376.329-.564,0-.282-.423-.611-.658-.893a22.268,22.268,0,0,0-1.833-1.692c-.564-.517-1.175-.987-1.692-1.41-.329-.235-.611-.47-.752-.423-.235,0-.376.188-.611.376-.188.235-.611.564-.893.846-.141.141-.282.282-.235.423,0,.235.329.282.705.611a21.905,21.905,0,0,1,1.645,1.5c.517.517,1.316,1.457,1.88,2.068C38.446-19.693,38.634-19.411,38.822-19.411ZM69.983-1.692A22.849,22.849,0,0,0,77.55-3.854c5.875-2.867,9.259-6.862,9.259-13.583a12.975,12.975,0,0,0-7.05-11.938,17,17,0,0,0-8.178-1.739c-6.11,0-11.985,2.021-15.651,7.144a16.731,16.731,0,0,0-2.867,9.118c0,3.9.94,8.084,4.606,10.152A5.1,5.1,0,0,0,60.16-4,6.276,6.276,0,0,0,64.3-6.063c4.089-3.948,5.875-11.374,7.05-16.779a20.357,20.357,0,0,0,.376-2.35c0-.517-.517-.7-1.222-.94-.893-.235-1.974-.423-2.773-.611a23.628,23.628,0,0,1,4.089-.376c6.11,0,10.058,3.619,10.058,9.776,0,4.559-2.115,6.721-5.969,8.648A26.578,26.578,0,0,1,68.2-6.721c-.376.047-1.222.047-1.222.564-.047.188.188.517.376.893.564,1.034.94,1.927,1.551,2.867C69.231-1.88,69.325-1.692,69.983-1.692ZM60.066-9.447a1.7,1.7,0,0,1-1.41-.893c-.752-1.081-.8-3.055-.8-4.371a11.938,11.938,0,0,1,8.836-11.7,19.223,19.223,0,0,1-.141,2.209c-.517,4.418-2.444,10.481-4.747,13.442C61.476-10.34,60.771-9.4,60.066-9.447Zm50.384-6.11c.987-.047,3.478-.329,5.217-.376,3.149-.141,6.58-.094,9.823-.094,2.632,0,5.264.329,7.849.329.611,0,1.457-.141,1.457-1.034,0-.658-.705-1.363-1.034-1.833-.611-.752-3.76-4.371-5.452-5.922-.517-.47-.8-.752-.94-.752a2.42,2.42,0,0,0-1.269.376l-1.551.8c-.282.141-.658.329-.611.658,0,.329.376.564.893,1.128.752.8,1.175,1.316,1.974,2.209h-4.7c-1.739,0-3.525,0-5.264.047,1.081-1.269,2.068-2.632,3.2-3.9.611-.705,1.269-1.41,1.927-2.115,2.82,0,5.358,0,8.507.141,1.316.047,3.149.282,4.042.282.564,0,.564-.8.658-1.645.094-1.175.329-2.256.329-3.243,0-.329-.047-.47-.376-.47-.423,0-.846.141-1.222.141-1.269.094-2.444.188-3.713.235-1.175.047-2.4.047-3.619.094-4.136.047-8.272,0-12.408.047a20.5,20.5,0,0,1-2.4-.141,8.227,8.227,0,0,0-1.5-.188c-.564,0-.517.7-.517,1.128v3.384c0,.564.141.7.658.7a12.207,12.207,0,0,0,1.222-.141c1.363-.141,3.2-.235,4.888-.282-.658.8-1.316,1.645-2.021,2.444-1.6,1.833-3.1,3.76-4.559,5.781a3.066,3.066,0,0,0-.658,1.551C109.275-15.557,110.027-15.557,110.45-15.557Zm-7.9,15.369c.329,0,.517-.329.705-.564a64.513,64.513,0,0,0,4.089-6.016,6.846,6.846,0,0,0,.987-3.2,9.511,9.511,0,0,0-.235-2.021c-.141-.564-.329-1.128-.611-1.128-.423,0-.658.517-1.034.94-.611.8-1.316,1.6-2.021,2.35a36.068,36.068,0,0,1-3.807,3.713c-.329.282-1.41.893-1.41,1.316a4.187,4.187,0,0,0,.564,1.316A18.7,18.7,0,0,0,101.8-.564.855.855,0,0,0,102.554-.188Zm9.588,2.256c.376,0,.987-.658,1.222-1.034a27.468,27.468,0,0,0,1.645-3.384,31.855,31.855,0,0,0,1.645-9.4c0-.517.094-1.034.094-1.5,0-.94-.47-.846-1.316-.94-1.081-.094-2.632-.188-2.961-.188-.564,0-.611.188-.611.752,0,.47.047.893.047,1.316a20.438,20.438,0,0,1-.893,6.58,10.605,10.605,0,0,1-2.3,4A9.9,9.9,0,0,0,107.536-.47c0,.329.517.517.752.658.423.188,1.645.846,2.726,1.41C111.531,1.833,111.766,2.068,112.142,2.068Zm6.956-.329h3.948c.423,0,.893,0,.893-.517,0-.564-.141-1.081-.188-1.6-.188-2.4-.282-4.841-.282-7.191,0-1.6.047-3.2.188-4.794,0-.376.094-.752.094-1.175,0-.611-.752-.564-1.222-.564h-3.055c-.376,0-.8-.047-.8.47,0,.329.094.658.094.987.094,1.457.094,2.867.094,4.324q0,3.031-.141,6.063c-.094,1.175-.423,2.961-.423,3.478C118.346,1.786,118.675,1.786,119.1,1.739ZM107.583-27.683c.188,0,.987,0,.987-.282a7.555,7.555,0,0,0-.893-1.974,21.686,21.686,0,0,0-3.29-4.371c-.564-.611-.987-1.034-1.222-1.034-.141,0-.517.423-.94,1.034a26.372,26.372,0,0,0-2.068,3.2,3.3,3.3,0,0,0-.423,1.081c0,.235.7.517.893.611A16.363,16.363,0,0,0,107.583-27.683ZM135.407,1.41a1.6,1.6,0,0,0,.94,0c.376-.141.423-.282.658-.846a25.866,25.866,0,0,1,1.269-2.585,3.259,3.259,0,0,0,.47-1.269c0-.376-.94-.282-1.316-.329-1.457-.141-4.042-.282-5.875-.611-.658-.141-.564-.658-.564-1.081,0-2.491-.047-4.371.047-6.768,0-.47.188-.94.188-1.41,0-.658-.376-.752-.893-.752-.423,0-2.115.047-3.243.047-.47-.047-.893,0-.893.564a9.157,9.157,0,0,0,.094,1.175c.094,2.773.047,4.042.094,6.862,0,1.081.047,2.068,0,3.2a14.439,14.439,0,0,0-.141,1.6c0,.329,1.034.47,1.457.564,1.927.47,3.149.752,4.7,1.081C133.386,1.034,134.42,1.269,135.407,1.41ZM120.931-32.806a34.708,34.708,0,0,0,6.2-.705c.94-.235,1.6-.564,1.6-.987,0-.282-.517-.7-1.316-1.222a46.157,46.157,0,0,0-5.828-3.1,5.581,5.581,0,0,0-1.551-.517c-.282,0-.564.517-.846,1.222a24.654,24.654,0,0,0-.893,3.431,6.669,6.669,0,0,0-.141.987c0,.47.423.658.987.8A13.308,13.308,0,0,0,120.931-32.806ZM99.123-16.121a6.713,6.713,0,0,0,1.551-.141,24.328,24.328,0,0,0,6.016-2.35c.282-.188,1.034-.564,1.034-.94,0-.235-.517-.517-1.316-.893a48.3,48.3,0,0,0-5.875-2.021,9.813,9.813,0,0,0-1.41-.329c-.329,0-.517.7-.611,1.5-.047.564-.094,1.269-.094,2.021,0,.7.047,1.41.047,2.021C98.512-16.45,98.465-16.121,99.123-16.121ZM155.335-.047c1.269,0,2.538-.047,3.807-.047.47,0,.846-.235.846-.705,0-1.457-.141-2.961-.235-4.418-.188-3.2-.188-6.345-.235-9.541,2.209-2.3,4.465-4.324,6.768-6.533a44.918,44.918,0,0,1,3.525-3.1c-.047,1.6-.235,3.149-.376,4.7-.282,3.055-.564,6.11-.564,9.165,0,3.948.658,8.037,5.546,8.037a9.876,9.876,0,0,0,5.969-2.162,9.631,9.631,0,0,0,2.914-3.2,2.821,2.821,0,0,0,.329-.94,3.227,3.227,0,0,0-.517-.94l-1.88-2.444c-.329-.376-.564-.752-.8-.752-.282,0-.376.282-.752,1.034a9.39,9.39,0,0,1-3.2,4,3.562,3.562,0,0,1-1.786.517,1.152,1.152,0,0,1-1.128-.94,7.964,7.964,0,0,1-.282-2.444c0-2.82.376-5.546.611-8.319a40.492,40.492,0,0,1,.8-6.3c.094-.517.8-2.209.8-2.538a1.189,1.189,0,0,0-.611-.987c-.611-.423-1.739-1.222-2.82-1.88a2.026,2.026,0,0,0-.94-.329c-.517,0-1.081.846-1.5,1.222-1.927,1.692-3.619,3.619-5.5,5.405-1.786,1.645-4.183,4-4.465,4.277,0-.611.047-1.175.047-1.786.987-.846,1.786-1.88,2.773-2.726.141-.141.705-.564.705-.846,0-.188-.141-.376-.423-.7a7.51,7.51,0,0,0-.987-1.081c-.235-.235-.423-.47-.564-.47-.188,0-.329.141-.517.188l-.517.141c.141-1.786.376-3.525.658-5.311a18.755,18.755,0,0,0,.282-2.209c0-.517-.188-.658-.752-.658a36.986,36.986,0,0,0-3.807.141c-.423.047-1.034,0-1.034.47,0,.611.141,1.034.188,1.739.047.517.094,1.363.094,1.88,0,1.692-.094,3.384-.235,5.076a37.324,37.324,0,0,1-7.238,1.034c-.282,0-.611-.047-.893-.047-.564,0-.611.282-.658.8,0,.7.188,2.444.235,3.619,0,.517,0,.94.47.94a6.454,6.454,0,0,0,1.316-.235c2.115-.611,4.23-1.222,6.392-1.645a12.292,12.292,0,0,0,0,1.316c-2.115,3.948-5.264,8.836-8.7,11.8-.329.282-1.081.94-1.128,1.269,0,.329.235.564.517.987.564.846,1.175,1.739,1.645,2.4.235.282.517.752.94.752.282,0,.752-.658.987-.987a76.948,76.948,0,0,1,5.546-6.862c-.094,3.29-.235,6.627-.611,9.87,0,.235-.047.423-.047.658C154.348-.047,154.818-.047,155.335-.047Z" transform="translate(281.888 92.006)"/></g></svg>