<svg xmlns="http://www.w3.org/2000/svg" xmlns:xlink="http://www.w3.org/1999/xlink" width="240" height="480" viewBox="0 0 240 480"><defs><clipPath id="a"><rect width="240" height="480" transform="translate(0 0)" fill="none"/></clipPath></defs><g transform="translate(-41.413 -3.487)" opacity="0.11"><g transform="translate(41.413 3.487)"><g clip-path="url(#a)"><path d="M71.413,41.843l33.913,18.543H37.5ZM97.5,58.386,71.413,44.123,45.327,58.386Z" transform="translate(-41.413 -11.386)" fill="#dcb964"/><path d="M38.54,54.2,72.413,0V35.677ZM70.413,6.974l-26.126,41.8L70.413,34.491Z" transform="translate(-41.413 -3.487)" fill="#dcb964"/><path d="M111.787,54.2,77.913,35.677V0ZM79.913,34.491,106.04,48.776,79.913,6.974Z" transform="translate(-48.913 -3.487)" fill="#dcb964"/></g></g><path d="M146.413,41.843l33.913,18.543H112.5ZM172.5,58.386,146.413,44.123,120.327,58.386Z" transform="translate(-15 -7.899)" fill="#dcb964"/><g transform="translate(41.413 3.487)"><g clip-path="url(#a)"><path d="M113.54,54.2,147.413,0V35.677ZM145.413,6.974l-26.126,41.8,26.126-14.285Z" transform="translate(-56.413 -3.487)" fill="#dcb964"/><path d="M186.787,54.2,152.913,35.677V0ZM154.913,34.491,181.04,48.776l-26.126-41.8Z" transform="translate(-63.913 -3.487)" fill="#dcb964"/></g></g><path d="M221.413,41.843l33.913,18.543H187.5ZM247.5,58.386,221.413,44.123,195.327,58.386Z" transform="translate(-30 -7.899)" fill="#dcb964"/><g transform="translate(41.413 3.487)"><g clip-path="url(#a)"><path d="M188.54,54.2,222.413,0V35.677ZM220.413,6.974l-26.126,41.8,26.126-14.285Z" transform="translate(-71.413 -3.487)" fill="#dcb964"/><path d="M261.787,54.2,227.913,35.677V0ZM229.913,34.491,256.04,48.776l-26.126-41.8Z" transform="translate(-78.913 -3.487)" fill="#dcb964"/><path d="M296.413,41.843l33.913,18.543H262.5ZM322.5,58.386,296.413,44.123,270.327,58.386Z" transform="translate(-86.413 -11.386)" fill="#dcb964"/><path d="M263.54,54.2,297.413,0V35.677ZM295.413,6.974l-26.126,41.8,26.126-14.285Z" transform="translate(-86.413 -3.487)" fill="#dcb964"/><path d="M336.787,54.2,302.913,35.677V0ZM304.913,34.491,331.04,48.776l-26.126-41.8Z" transform="translate(-93.913 -3.487)" fill="#dcb964"/><path d="M333.913,21.03,300,2.488h67.827ZM307.827,4.488l26.087,14.263L360,4.488Z" transform="translate(-93.913 -3.487)" fill="#dcb964"/><path d="M374.287.777l-33.874,54.2V19.3ZM342.413,48,368.54,6.2,342.413,20.484Z" transform="translate(-101.413 -3.487)" fill="#dcb964"/><path d="M301.04.777,334.913,19.3V54.974Zm31.874,19.707L306.787,6.2,332.913,48Z" transform="translate(-93.913 -3.487)" fill="#dcb964"/><path d="M258.913,21.03,225,2.488h67.827ZM232.827,4.488l26.087,14.263L285,4.488Z" transform="translate(-78.913 -3.487)" fill="#dcb964"/><path d="M299.287.777l-33.874,54.2V19.3ZM267.413,48,293.54,6.2,267.413,20.484Z" transform="translate(-86.413 -3.487)" fill="#dcb964"/><path d="M226.04.777,259.913,19.3V54.974Zm31.874,19.707L231.787,6.2,257.913,48Z" transform="translate(-78.913 -3.487)" fill="#dcb964"/><path d="M183.913,21.03,150,2.488h67.827ZM157.827,4.488l26.087,14.263L210,4.488Z" transform="translate(-63.913 -3.487)" fill="#dcb964"/><path d="M224.287.777l-33.874,54.2V19.3ZM192.413,48,218.54,6.2,192.413,20.484Z" transform="translate(-71.413 -3.487)" fill="#dcb964"/><path d="M151.04.777,184.913,19.3V54.974Zm31.874,19.707L156.787,6.2,182.913,48Z" transform="translate(-63.913 -3.487)" fill="#dcb964"/><path d="M108.913,21.03,75,2.488h67.827ZM82.827,4.488l26.087,14.263L135,4.488Z" transform="translate(-48.913 -3.487)" fill="#dcb964"/><path d="M149.287.777l-33.874,54.2V19.3ZM117.413,48,143.54,6.2,117.413,20.484Z" transform="translate(-56.413 -3.487)" fill="#dcb964"/><path d="M76.04.777,109.913,19.3V54.974Zm31.874,19.707L81.787,6.2,107.913,48Z" transform="translate(-48.913 -3.487)" fill="#dcb964"/><path d="M33.913,21.03,0,2.488H67.827ZM7.827,4.488,33.913,18.751,60,4.488Z" transform="translate(-33.913 -3.487)" fill="#dcb964"/><path d="M74.287.777l-33.874,54.2V19.3ZM42.413,48,68.54,6.2,42.413,20.484Z" transform="translate(-41.413 -3.487)" fill="#dcb964"/><path d="M1.04.777,34.913,19.3V54.974ZM32.913,20.484,6.787,6.2,32.913,48Z" transform="translate(-33.913 -3.487)" fill="#dcb964"/><path d="M296.413,81.03,262.5,62.488h67.827ZM270.327,64.488l26.087,14.263L322.5,64.488Z" transform="translate(-86.413 -15.487)" fill="#dcb964"/><path d="M336.787,60.777l-33.874,54.2V79.3ZM304.913,108,331.04,66.2,304.913,80.484Z" transform="translate(-93.913 -15.487)" fill="#dcb964"/></g></g><path d="M263.54,60.777,297.413,79.3v35.677Zm31.874,19.707L269.287,66.2,295.413,108Z" transform="translate(-45 -12)" fill="#dcb964"/><path d="M221.413,81.03,187.5,62.488h67.827ZM195.327,64.488l26.087,14.263L247.5,64.488Z" transform="translate(-30 -12)" fill="#dcb964"/><path d="M261.787,60.777l-33.874,54.2V79.3ZM229.913,108,256.04,66.2,229.913,80.484Z" transform="translate(-37.5 -12)" fill="#dcb964"/><path d="M188.54,60.777,222.413,79.3v35.677Zm31.874,19.707L194.287,66.2,220.413,108Z" transform="translate(-30 -12)" fill="#dcb964"/><path d="M146.413,81.03,112.5,62.488h67.827ZM120.327,64.488l26.087,14.263L172.5,64.488Z" transform="translate(-15 -12)" fill="#dcb964"/><path d="M186.787,60.777l-33.874,54.2V79.3ZM154.913,108,181.04,66.2,154.913,80.484Z" transform="translate(-22.5 -12)" fill="#dcb964"/><path d="M113.54,60.777,147.413,79.3v35.677Zm31.874,19.707L119.287,66.2,145.413,108Z" transform="translate(-15 -12)" fill="#dcb964"/><g transform="translate(41.413 3.487)"><g clip-path="url(#a)"><path d="M71.413,81.03,37.5,62.488h67.827ZM45.327,64.488,71.413,78.751,97.5,64.488Z" transform="translate(-41.413 -15.487)" fill="#dcb964"/></g></g><path d="M111.787,60.777l-33.874,54.2V79.3ZM79.913,108,106.04,66.2,79.913,80.484Z" transform="translate(-7.5 -12)" fill="#dcb964"/><g transform="translate(41.413 3.487)"><g clip-path="url(#a)"><path d="M38.54,60.777,72.413,79.3v35.677ZM70.413,80.484,44.287,66.2,70.413,108Z" transform="translate(-41.413 -15.487)" fill="#dcb964"/><path d="M33.913,101.843l33.913,18.543H0ZM60,118.386,33.913,104.123,7.827,118.386Z" transform="translate(-33.913 -23.386)" fill="#dcb964"/><path d="M1.04,114.2,34.913,60V95.677ZM32.913,66.974l-26.126,41.8L32.913,94.491Z" transform="translate(-33.913 -15.487)" fill="#dcb964"/><path d="M74.287,114.2,40.413,95.677V60ZM42.413,94.491,68.54,108.776l-26.126-41.8Z" transform="translate(-41.413 -15.487)" fill="#dcb964"/></g></g><path d="M108.913,101.843l33.913,18.543H75ZM135,118.386l-26.087-14.263L82.827,118.386Z" transform="translate(-7.5 -19.899)" fill="#dcb964"/><path d="M76.04,114.2,109.913,60V95.677Zm31.874-47.224-26.126,41.8,26.126-14.285Z" transform="translate(-7.5 -12)" fill="#dcb964"/><path d="M149.287,114.2,115.413,95.677V60ZM117.413,94.491l26.126,14.285-26.126-41.8Z" transform="translate(-15 -12)" fill="#dcb964"/><path d="M183.913,101.843l33.913,18.543H150ZM210,118.386l-26.087-14.263-26.087,14.263Z" transform="translate(-22.5 -19.899)" fill="#dcb964"/><path d="M151.04,114.2,184.913,60V95.677Zm31.874-47.224-26.126,41.8,26.126-14.285Z" transform="translate(-22.5 -12)" fill="#dcb964"/><path d="M224.287,114.2,190.413,95.677V60ZM192.413,94.491l26.126,14.285-26.126-41.8Z" transform="translate(-30 -12)" fill="#dcb964"/><path d="M258.913,101.843l33.913,18.543H225ZM285,118.386l-26.087-14.263-26.087,14.263Z" transform="translate(-37.5 -19.899)" fill="#dcb964"/><path d="M226.04,114.2,259.913,60V95.677Zm31.874-47.224-26.126,41.8,26.126-14.285Z" transform="translate(-37.5 -12)" fill="#dcb964"/><path d="M299.287,114.2,265.413,95.677V60ZM267.413,94.491l26.126,14.285-26.126-41.8Z" transform="translate(-45 -12)" fill="#dcb964"/><g transform="translate(41.413 3.487)"><g clip-path="url(#a)"><path d="M333.913,101.843l33.913,18.543H300ZM360,118.386l-26.087-14.263-26.087,14.263Z" transform="translate(-93.913 -23.386)" fill="#dcb964"/><path d="M301.04,114.2,334.913,60V95.677Zm31.874-47.224-26.126,41.8,26.126-14.285Z" transform="translate(-93.913 -15.487)" fill="#dcb964"/><path d="M374.287,114.2,340.413,95.677V60ZM342.413,94.491l26.126,14.285-26.126-41.8Z" transform="translate(-101.413 -15.487)" fill="#dcb964"/><path d="M71.413,161.843l33.913,18.543H37.5ZM97.5,178.386,71.413,164.123,45.327,178.386Z" transform="translate(-41.413 -35.386)" fill="#dcb964"/><path d="M38.54,174.2,72.413,120v35.677Zm31.874-47.224-26.126,41.8,26.126-14.285Z" transform="translate(-41.413 -27.487)" fill="#dcb964"/></g></g><path d="M111.787,174.2,77.913,155.677V120ZM79.913,154.491l26.126,14.285-26.126-41.8Z" transform="translate(-7.5 -24)" fill="#dcb964"/><path d="M146.413,161.843l33.913,18.543H112.5ZM172.5,178.386l-26.087-14.264-26.087,14.264Z" transform="translate(-15 -31.899)" fill="#dcb964"/><path d="M113.54,174.2,147.413,120v35.677Zm31.874-47.224-26.126,41.8,26.126-14.285Z" transform="translate(-15 -24)" fill="#dcb964"/><path d="M186.787,174.2l-33.874-18.521V120Zm-31.874-19.707,26.126,14.285-26.126-41.8Z" transform="translate(-22.5 -24)" fill="#dcb964"/><path d="M221.413,161.843l33.913,18.543H187.5ZM247.5,178.386l-26.087-14.264-26.087,14.264Z" transform="translate(-30 -31.899)" fill="#dcb964"/><path d="M188.54,174.2,222.413,120v35.677Zm31.874-47.224-26.126,41.8,26.126-14.285Z" transform="translate(-30 -24)" fill="#dcb964"/><path d="M261.787,174.2l-33.874-18.521V120Zm-31.874-19.707,26.126,14.285-26.126-41.8Z" transform="translate(-37.5 -24)" fill="#dcb964"/><g transform="translate(41.413 3.487)"><g clip-path="url(#a)"><path d="M296.413,161.843l33.913,18.543H262.5ZM322.5,178.386l-26.087-14.264-26.087,14.264Z" transform="translate(-86.413 -35.386)" fill="#dcb964"/></g></g><path d="M263.54,174.2,297.413,120v35.677Zm31.874-47.224-26.126,41.8,26.126-14.285Z" transform="translate(-45 -24)" fill="#dcb964"/><g transform="translate(41.413 3.487)"><g clip-path="url(#a)"><path d="M336.787,174.2l-33.874-18.521V120Zm-31.874-19.707,26.126,14.285-26.126-41.8Z" transform="translate(-93.913 -27.487)" fill="#dcb964"/><path d="M333.913,141.03,300,122.487h67.827Zm-26.087-16.543,26.087,14.263L360,124.487Z" transform="translate(-93.913 -27.487)" fill="#dcb964"/><path d="M374.287,120.777l-33.874,54.2V139.3ZM342.413,168l26.126-41.8-26.126,14.285Z" transform="translate(-101.413 -27.487)" fill="#dcb964"/><path d="M301.04,120.777,334.913,139.3v35.677Zm31.874,19.707L306.787,126.2,332.913,168Z" transform="translate(-93.913 -27.487)" fill="#dcb964"/></g></g><path d="M258.913,141.03,225,122.487h67.827Zm-26.087-16.543,26.087,14.263L285,124.487Z" transform="translate(-37.5 -24)" fill="#dcb964"/><path d="M299.287,120.777l-33.874,54.2V139.3ZM267.413,168l26.126-41.8-26.126,14.285Z" transform="translate(-45 -24)" fill="#dcb964"/><path d="M226.04,120.777,259.913,139.3v35.677Zm31.874,19.707L231.787,126.2,257.913,168Z" transform="translate(-37.5 -24)" fill="#dcb964"/><path d="M183.913,141.03,150,122.487h67.827Zm-26.087-16.543,26.087,14.263L210,124.487Z" transform="translate(-22.5 -24)" fill="#dcb964"/><path d="M224.287,120.777l-33.874,54.2V139.3ZM192.413,168l26.126-41.8-26.126,14.285Z" transform="translate(-30 -24)" fill="#dcb964"/><path d="M151.04,120.777,184.913,139.3v35.677Zm31.874,19.707L156.787,126.2,182.913,168Z" transform="translate(-22.5 -24)" fill="#dcb964"/><path d="M108.913,141.03,75,122.487h67.827ZM82.827,124.487l26.087,14.263L135,124.487Z" transform="translate(-7.5 -24)" fill="#dcb964"/><path d="M149.287,120.777l-33.874,54.2V139.3ZM117.413,168l26.126-41.8-26.126,14.285Z" transform="translate(-15 -24)" fill="#dcb964"/><path d="M76.04,120.777,109.913,139.3v35.677Zm31.874,19.707L81.787,126.2,107.913,168Z" transform="translate(-7.5 -24)" fill="#dcb964"/><g transform="translate(41.413 3.487)"><g clip-path="url(#a)"><path d="M33.913,141.03,0,122.487H67.827ZM7.827,124.487l26.087,14.263L60,124.487Z" transform="translate(-33.913 -27.487)" fill="#dcb964"/><path d="M74.287,120.777l-33.874,54.2V139.3ZM42.413,168,68.54,126.2,42.413,140.484Z" transform="translate(-41.413 -27.487)" fill="#dcb964"/><path d="M1.04,120.777,34.913,139.3v35.677Zm31.874,19.707L6.787,126.2,32.913,168Z" transform="translate(-33.913 -27.487)" fill="#dcb964"/><path d="M296.413,201.03,262.5,182.488h67.827Zm-26.087-16.543,26.087,14.263L322.5,184.488Z" transform="translate(-86.413 -39.487)" fill="#dcb964"/><path d="M336.787,180.777l-33.874,54.2V199.3ZM304.913,228l26.126-41.8-26.126,14.285Z" transform="translate(-93.913 -39.487)" fill="#dcb964"/></g></g><path d="M263.54,180.777,297.413,199.3v35.677Zm31.874,19.707L269.287,186.2,295.413,228Z" transform="translate(-45 -36)" fill="#dcb964"/><path d="M221.413,201.03,187.5,182.488h67.827Zm-26.087-16.543,26.087,14.263L247.5,184.488Z" transform="translate(-30 -36)" fill="#dcb964"/><path d="M261.787,180.777l-33.874,54.2V199.3ZM229.913,228l26.126-41.8-26.126,14.285Z" transform="translate(-37.5 -36)" fill="#dcb964"/><path d="M188.54,180.777,222.413,199.3v35.677Zm31.874,19.707L194.287,186.2,220.413,228Z" transform="translate(-30 -36)" fill="#dcb964"/><path d="M146.413,201.03,112.5,182.488h67.827Zm-26.087-16.543,26.087,14.263L172.5,184.488Z" transform="translate(-15 -36)" fill="#dcb964"/><path d="M186.787,180.777l-33.874,54.2V199.3ZM154.913,228l26.126-41.8-26.126,14.285Z" transform="translate(-22.5 -36)" fill="#dcb964"/><path d="M113.54,180.777,147.413,199.3v35.677Zm31.874,19.707L119.287,186.2,145.413,228Z" transform="translate(-15 -36)" fill="#dcb964"/><g transform="translate(41.413 3.487)"><g clip-path="url(#a)"><path d="M71.413,201.03,37.5,182.488h67.827ZM45.327,184.488l26.087,14.263L97.5,184.488Z" transform="translate(-41.413 -39.487)" fill="#dcb964"/></g></g><path d="M111.787,180.777l-33.874,54.2V199.3ZM79.913,228l26.126-41.8L79.913,200.484Z" transform="translate(-7.5 -36)" fill="#dcb964"/><g transform="translate(41.413 3.487)"><g clip-path="url(#a)"><path d="M38.54,180.777,72.413,199.3v35.677Zm31.874,19.707L44.287,186.2,70.413,228Z" transform="translate(-41.413 -39.487)" fill="#dcb964"/><path d="M33.913,221.843l33.913,18.543H0ZM60,238.386,33.913,224.123,7.827,238.386Z" transform="translate(-33.913 -47.386)" fill="#dcb964"/><path d="M1.04,234.2,34.913,180v35.677Zm31.874-47.224-26.126,41.8,26.126-14.285Z" transform="translate(-33.913 -39.487)" fill="#dcb964"/><path d="M74.287,234.2,40.413,215.677V180ZM42.413,214.491,68.54,228.776l-26.126-41.8Z" transform="translate(-41.413 -39.487)" fill="#dcb964"/></g></g><path d="M108.913,221.843l33.913,18.543H75ZM135,238.386l-26.087-14.264L82.827,238.386Z" transform="translate(-7.5 -43.899)" fill="#dcb964"/><path d="M76.04,234.2,109.913,180v35.677Zm31.874-47.224-26.126,41.8,26.126-14.285Z" transform="translate(-7.5 -36)" fill="#dcb964"/><path d="M149.287,234.2l-33.874-18.521V180Zm-31.874-19.707,26.126,14.285-26.126-41.8Z" transform="translate(-15 -36)" fill="#dcb964"/><path d="M183.913,221.843l33.913,18.543H150ZM210,238.386l-26.087-14.264-26.087,14.264Z" transform="translate(-22.5 -43.899)" fill="#dcb964"/><path d="M151.04,234.2,184.913,180v35.677Zm31.874-47.224-26.126,41.8,26.126-14.285Z" transform="translate(-22.5 -36)" fill="#dcb964"/><path d="M224.287,234.2l-33.874-18.521V180Zm-31.874-19.707,26.126,14.285-26.126-41.8Z" transform="translate(-30 -36)" fill="#dcb964"/><path d="M258.913,221.843l33.913,18.543H225ZM285,238.386l-26.087-14.264-26.087,14.264Z" transform="translate(-37.5 -43.899)" fill="#dcb964"/><path d="M226.04,234.2,259.913,180v35.677Zm31.874-47.224-26.126,41.8,26.126-14.285Z" transform="translate(-37.5 -36)" fill="#dcb964"/><path d="M299.287,234.2l-33.874-18.521V180Zm-31.874-19.707,26.126,14.285-26.126-41.8Z" transform="translate(-45 -36)" fill="#dcb964"/><g transform="translate(41.413 3.487)"><g clip-path="url(#a)"><path d="M333.913,221.843l33.913,18.543H300ZM360,238.386l-26.087-14.264-26.087,14.264Z" transform="translate(-93.913 -47.386)" fill="#dcb964"/><path d="M301.04,234.2,334.913,180v35.677Zm31.874-47.224-26.126,41.8,26.126-14.285Z" transform="translate(-93.913 -39.487)" fill="#dcb964"/><path d="M374.287,234.2l-33.874-18.521V180Zm-31.874-19.707,26.126,14.285-26.126-41.8Z" transform="translate(-101.413 -39.487)" fill="#dcb964"/><path d="M71.413,281.843l33.913,18.543H37.5ZM97.5,298.386,71.413,284.123,45.327,298.386Z" transform="translate(-41.413 -59.386)" fill="#dcb964"/><path d="M38.54,294.2,72.413,240v35.677Zm31.874-47.224-26.126,41.8,26.126-14.285Z" transform="translate(-41.413 -51.487)" fill="#dcb964"/></g></g><path d="M111.787,294.2,77.913,275.677V240ZM79.913,274.491l26.126,14.285-26.126-41.8Z" transform="translate(-7.5 -48)" fill="#dcb964"/><path d="M146.413,281.843l33.913,18.543H112.5ZM172.5,298.386l-26.087-14.264-26.087,14.264Z" transform="translate(-15 -55.899)" fill="#dcb964"/><path d="M113.54,294.2,147.413,240v35.677Zm31.874-47.224-26.126,41.8,26.126-14.285Z" transform="translate(-15 -48)" fill="#dcb964"/><path d="M186.787,294.2l-33.874-18.521V240Zm-31.874-19.707,26.126,14.285-26.126-41.8Z" transform="translate(-22.5 -48)" fill="#dcb964"/><path d="M221.413,281.843l33.913,18.543H187.5ZM247.5,298.386l-26.087-14.264-26.087,14.264Z" transform="translate(-30 -55.899)" fill="#dcb964"/><path d="M188.54,294.2,222.413,240v35.677Zm31.874-47.224-26.126,41.8,26.126-14.285Z" transform="translate(-30 -48)" fill="#dcb964"/><path d="M261.787,294.2l-33.874-18.521V240Zm-31.874-19.707,26.126,14.285-26.126-41.8Z" transform="translate(-37.5 -48)" fill="#dcb964"/><g transform="translate(41.413 3.487)"><g clip-path="url(#a)"><path d="M296.413,281.843l33.913,18.543H262.5ZM322.5,298.386l-26.087-14.264-26.087,14.264Z" transform="translate(-86.413 -59.386)" fill="#dcb964"/></g></g><path d="M263.54,294.2,297.413,240v35.677Zm31.874-47.224-26.126,41.8,26.126-14.285Z" transform="translate(-45 -48)" fill="#dcb964"/><g transform="translate(41.413 3.487)"><g clip-path="url(#a)"><path d="M336.787,294.2l-33.874-18.521V240Zm-31.874-19.707,26.126,14.285-26.126-41.8Z" transform="translate(-93.913 -51.487)" fill="#dcb964"/><path d="M333.913,261.03,300,242.487h67.827Zm-26.087-16.543,26.087,14.263L360,244.487Z" transform="translate(-93.913 -51.487)" fill="#dcb964"/><path d="M374.287,240.777l-33.874,54.2V259.3ZM342.413,288l26.126-41.8-26.126,14.285Z" transform="translate(-101.413 -51.487)" fill="#dcb964"/><path d="M301.04,240.777,334.913,259.3v35.677Zm31.874,19.707L306.787,246.2,332.913,288Z" transform="translate(-93.913 -51.487)" fill="#dcb964"/></g></g><path d="M258.913,261.03,225,242.487h67.827Zm-26.087-16.543,26.087,14.263L285,244.487Z" transform="translate(-37.5 -48)" fill="#dcb964"/><path d="M299.287,240.777l-33.874,54.2V259.3ZM267.413,288l26.126-41.8-26.126,14.285Z" transform="translate(-45 -48)" fill="#dcb964"/><path d="M226.04,240.777,259.913,259.3v35.677Zm31.874,19.707L231.787,246.2,257.913,288Z" transform="translate(-37.5 -48)" fill="#dcb964"/><path d="M183.913,261.03,150,242.487h67.827Zm-26.087-16.543,26.087,14.263L210,244.487Z" transform="translate(-22.5 -48)" fill="#dcb964"/><path d="M224.287,240.777l-33.874,54.2V259.3ZM192.413,288l26.126-41.8-26.126,14.285Z" transform="translate(-30 -48)" fill="#dcb964"/><path d="M151.04,240.777,184.913,259.3v35.677Zm31.874,19.707L156.787,246.2,182.913,288Z" transform="translate(-22.5 -48)" fill="#dcb964"/><path d="M108.913,261.03,75,242.487h67.827ZM82.827,244.487l26.087,14.263L135,244.487Z" transform="translate(-7.5 -48)" fill="#dcb964"/><path d="M149.287,240.777l-33.874,54.2V259.3ZM117.413,288l26.126-41.8-26.126,14.285Z" transform="translate(-15 -48)" fill="#dcb964"/><path d="M76.04,240.777,109.913,259.3v35.677Zm31.874,19.707L81.787,246.2,107.913,288Z" transform="translate(-7.5 -48)" fill="#dcb964"/><g transform="translate(41.413 3.487)"><g clip-path="url(#a)"><path d="M33.913,261.03,0,242.487H67.827ZM7.827,244.487l26.087,14.263L60,244.487Z" transform="translate(-33.913 -51.487)" fill="#dcb964"/><path d="M74.287,240.777l-33.874,54.2V259.3ZM42.413,288,68.54,246.2,42.413,260.484Z" transform="translate(-41.413 -51.487)" fill="#dcb964"/><path d="M1.04,240.777,34.913,259.3v35.677Zm31.874,19.707L6.787,246.2,32.913,288Z" transform="translate(-33.913 -51.487)" fill="#dcb964"/><path d="M296.413,321.03,262.5,302.487h67.827Zm-26.087-16.543,26.087,14.264L322.5,304.487Z" transform="translate(-86.413 -63.487)" fill="#dcb964"/><path d="M336.787,300.777l-33.874,54.2V319.3ZM304.913,348l26.126-41.8-26.126,14.285Z" transform="translate(-93.913 -63.487)" fill="#dcb964"/></g></g><path d="M263.54,300.777,297.413,319.3v35.677Zm31.874,19.707L269.287,306.2,295.413,348Z" transform="translate(-45 -60)" fill="#dcb964"/><path d="M221.413,321.03,187.5,302.487h67.827Zm-26.087-16.543,26.087,14.264L247.5,304.487Z" transform="translate(-30 -60)" fill="#dcb964"/><path d="M261.787,300.777l-33.874,54.2V319.3ZM229.913,348l26.126-41.8-26.126,14.285Z" transform="translate(-37.5 -60)" fill="#dcb964"/><path d="M188.54,300.777,222.413,319.3v35.677Zm31.874,19.707L194.287,306.2,220.413,348Z" transform="translate(-30 -60)" fill="#dcb964"/><path d="M146.413,321.03,112.5,302.487h67.827Zm-26.087-16.543,26.087,14.264L172.5,304.487Z" transform="translate(-15 -60)" fill="#dcb964"/><path d="M186.787,300.777l-33.874,54.2V319.3ZM154.913,348l26.126-41.8-26.126,14.285Z" transform="translate(-22.5 -60)" fill="#dcb964"/><path d="M113.54,300.777,147.413,319.3v35.677Zm31.874,19.707L119.287,306.2,145.413,348Z" transform="translate(-15 -60)" fill="#dcb964"/><g transform="translate(41.413 3.487)"><g clip-path="url(#a)"><path d="M71.413,321.03,37.5,302.487h67.827ZM45.327,304.487l26.087,14.264L97.5,304.487Z" transform="translate(-41.413 -63.487)" fill="#dcb964"/></g></g><path d="M111.787,300.777l-33.874,54.2V319.3ZM79.913,348l26.126-41.8L79.913,320.484Z" transform="translate(-7.5 -60)" fill="#dcb964"/><g transform="translate(41.413 3.487)"><g clip-path="url(#a)"><path d="M38.54,300.777,72.413,319.3v35.677Zm31.874,19.707L44.287,306.2,70.413,348Z" transform="translate(-41.413 -63.487)" fill="#dcb964"/><path d="M33.913,341.843l33.913,18.543H0ZM60,358.386,33.913,344.123,7.827,358.386Z" transform="translate(-33.913 -71.386)" fill="#dcb964"/><path d="M1.04,354.2,34.913,300v35.677Zm31.874-47.224-26.126,41.8,26.126-14.285Z" transform="translate(-33.913 -63.487)" fill="#dcb964"/><path d="M74.287,354.2,40.413,335.677V300ZM42.413,334.491,68.54,348.776l-26.126-41.8Z" transform="translate(-41.413 -63.487)" fill="#dcb964"/></g></g><path d="M108.913,341.843l33.913,18.543H75ZM135,358.386l-26.087-14.264L82.827,358.386Z" transform="translate(-7.5 -67.899)" fill="#dcb964"/><path d="M76.04,354.2,109.913,300v35.677Zm31.874-47.224-26.126,41.8,26.126-14.285Z" transform="translate(-7.5 -60)" fill="#dcb964"/><path d="M149.287,354.2l-33.874-18.521V300Zm-31.874-19.707,26.126,14.285-26.126-41.8Z" transform="translate(-15 -60)" fill="#dcb964"/><path d="M183.913,341.843l33.913,18.543H150ZM210,358.386l-26.087-14.264-26.087,14.264Z" transform="translate(-22.5 -67.899)" fill="#dcb964"/><path d="M151.04,354.2,184.913,300v35.677Zm31.874-47.224-26.126,41.8,26.126-14.285Z" transform="translate(-22.5 -60)" fill="#dcb964"/><path d="M224.287,354.2l-33.874-18.521V300Zm-31.874-19.707,26.126,14.285-26.126-41.8Z" transform="translate(-30 -60)" fill="#dcb964"/><path d="M258.913,341.843l33.913,18.543H225ZM285,358.386l-26.087-14.264-26.087,14.264Z" transform="translate(-37.5 -67.899)" fill="#dcb964"/><path d="M226.04,354.2,259.913,300v35.677Zm31.874-47.224-26.126,41.8,26.126-14.285Z" transform="translate(-37.5 -60)" fill="#dcb964"/><path d="M299.287,354.2l-33.874-18.521V300Zm-31.874-19.707,26.126,14.285-26.126-41.8Z" transform="translate(-45 -60)" fill="#dcb964"/><g transform="translate(41.413 3.487)"><g clip-path="url(#a)"><path d="M333.913,341.843l33.913,18.543H300ZM360,358.386l-26.087-14.264-26.087,14.264Z" transform="translate(-93.913 -71.386)" fill="#dcb964"/><path d="M301.04,354.2,334.913,300v35.677Zm31.874-47.224-26.126,41.8,26.126-14.285Z" transform="translate(-93.913 -63.487)" fill="#dcb964"/><path d="M374.287,354.2l-33.874-18.521V300Zm-31.874-19.707,26.126,14.285-26.126-41.8Z" transform="translate(-101.413 -63.487)" fill="#dcb964"/><path d="M71.413,401.843l33.913,18.543H37.5ZM97.5,418.386,71.413,404.123,45.327,418.386Z" transform="translate(-41.413 -83.386)" fill="#dcb964"/><path d="M38.54,414.2,72.413,360v35.677Zm31.874-47.224-26.126,41.8,26.126-14.285Z" transform="translate(-41.413 -75.487)" fill="#dcb964"/></g></g><path d="M111.787,414.2,77.913,395.677V360ZM79.913,394.491l26.126,14.285-26.126-41.8Z" transform="translate(-7.5 -72)" fill="#dcb964"/><path d="M146.413,401.843l33.913,18.543H112.5ZM172.5,418.386l-26.087-14.264-26.087,14.264Z" transform="translate(-15 -79.899)" fill="#dcb964"/><path d="M113.54,414.2,147.413,360v35.677Zm31.874-47.224-26.126,41.8,26.126-14.285Z" transform="translate(-15 -72)" fill="#dcb964"/><path d="M186.787,414.2l-33.874-18.521V360Zm-31.874-19.707,26.126,14.285-26.126-41.8Z" transform="translate(-22.5 -72)" fill="#dcb964"/><path d="M221.413,401.843l33.913,18.543H187.5ZM247.5,418.386l-26.087-14.264-26.087,14.264Z" transform="translate(-30 -79.899)" fill="#dcb964"/><path d="M188.54,414.2,222.413,360v35.677Zm31.874-47.224-26.126,41.8,26.126-14.285Z" transform="translate(-30 -72)" fill="#dcb964"/><path d="M261.787,414.2l-33.874-18.521V360Zm-31.874-19.707,26.126,14.285-26.126-41.8Z" transform="translate(-37.5 -72)" fill="#dcb964"/><g transform="translate(41.413 3.487)"><g clip-path="url(#a)"><path d="M296.413,401.843l33.913,18.543H262.5ZM322.5,418.386l-26.087-14.264-26.087,14.264Z" transform="translate(-86.413 -83.386)" fill="#dcb964"/></g></g><path d="M263.54,414.2,297.413,360v35.677Zm31.874-47.224-26.126,41.8,26.126-14.285Z" transform="translate(-45 -72)" fill="#dcb964"/><g transform="translate(41.413 3.487)"><g clip-path="url(#a)"><path d="M336.787,414.2l-33.874-18.521V360Zm-31.874-19.707,26.126,14.285-26.126-41.8Z" transform="translate(-93.913 -75.487)" fill="#dcb964"/><path d="M333.913,381.03,300,362.487h67.827Zm-26.087-16.543,26.087,14.264L360,364.487Z" transform="translate(-93.913 -75.487)" fill="#dcb964"/><path d="M374.287,360.777l-33.874,54.2V379.3ZM342.413,408l26.126-41.8-26.126,14.285Z" transform="translate(-101.413 -75.487)" fill="#dcb964"/><path d="M301.04,360.777,334.913,379.3v35.677Zm31.874,19.707L306.787,366.2,332.913,408Z" transform="translate(-93.913 -75.487)" fill="#dcb964"/></g></g><path d="M258.913,381.03,225,362.487h67.827Zm-26.087-16.543,26.087,14.264L285,364.487Z" transform="translate(-37.5 -72)" fill="#dcb964"/><path d="M299.287,360.777l-33.874,54.2V379.3ZM267.413,408l26.126-41.8-26.126,14.285Z" transform="translate(-45 -72)" fill="#dcb964"/><path d="M226.04,360.777,259.913,379.3v35.677Zm31.874,19.707L231.787,366.2,257.913,408Z" transform="translate(-37.5 -72)" fill="#dcb964"/><path d="M183.913,381.03,150,362.487h67.827Zm-26.087-16.543,26.087,14.264L210,364.487Z" transform="translate(-22.5 -72)" fill="#dcb964"/><path d="M224.287,360.777l-33.874,54.2V379.3ZM192.413,408l26.126-41.8-26.126,14.285Z" transform="translate(-30 -72)" fill="#dcb964"/><path d="M151.04,360.777,184.913,379.3v35.677Zm31.874,19.707L156.787,366.2,182.913,408Z" transform="translate(-22.5 -72)" fill="#dcb964"/><path d="M108.913,381.03,75,362.487h67.827ZM82.827,364.487l26.087,14.264L135,364.487Z" transform="translate(-7.5 -72)" fill="#dcb964"/><path d="M149.287,360.777l-33.874,54.2V379.3ZM117.413,408l26.126-41.8-26.126,14.285Z" transform="translate(-15 -72)" fill="#dcb964"/><path d="M76.04,360.777,109.913,379.3v35.677Zm31.874,19.707L81.787,366.2,107.913,408Z" transform="translate(-7.5 -72)" fill="#dcb964"/><g transform="translate(41.413 3.487)"><g clip-path="url(#a)"><path d="M33.913,381.03,0,362.487H67.827ZM7.827,364.487l26.087,14.264L60,364.487Z" transform="translate(-33.913 -75.487)" fill="#dcb964"/><path d="M74.287,360.777l-33.874,54.2V379.3ZM42.413,408,68.54,366.2,42.413,380.484Z" transform="translate(-41.413 -75.487)" fill="#dcb964"/><path d="M1.04,360.777,34.913,379.3v35.677Zm31.874,19.707L6.787,366.2,32.913,408Z" transform="translate(-33.913 -75.487)" fill="#dcb964"/><path d="M296.413,441.03,262.5,422.487h67.827Zm-26.087-16.543,26.087,14.264L322.5,424.487Z" transform="translate(-86.413 -87.487)" fill="#dcb964"/><path d="M336.787,420.777l-33.874,54.2V439.3ZM304.913,468l26.126-41.8-26.126,14.285Z" transform="translate(-93.913 -87.487)" fill="#dcb964"/></g></g><path d="M263.54,420.777,297.413,439.3v35.676Zm31.874,19.707L269.287,426.2,295.413,468Z" transform="translate(-45 -84)" fill="#dcb964"/><path d="M221.413,441.03,187.5,422.487h67.827Zm-26.087-16.543,26.087,14.264L247.5,424.487Z" transform="translate(-30 -84)" fill="#dcb964"/><path d="M261.787,420.777l-33.874,54.2V439.3ZM229.913,468l26.126-41.8-26.126,14.285Z" transform="translate(-37.5 -84)" fill="#dcb964"/><path d="M188.54,420.777,222.413,439.3v35.676Zm31.874,19.707L194.287,426.2,220.413,468Z" transform="translate(-30 -84)" fill="#dcb964"/><path d="M146.413,441.03,112.5,422.487h67.827Zm-26.087-16.543,26.087,14.264L172.5,424.487Z" transform="translate(-15 -84)" fill="#dcb964"/><path d="M186.787,420.777l-33.874,54.2V439.3ZM154.913,468l26.126-41.8-26.126,14.285Z" transform="translate(-22.5 -84)" fill="#dcb964"/><path d="M113.54,420.777,147.413,439.3v35.676Zm31.874,19.707L119.287,426.2,145.413,468Z" transform="translate(-15 -84)" fill="#dcb964"/><g transform="translate(41.413 3.487)"><g clip-path="url(#a)"><path d="M71.413,441.03,37.5,422.487h67.827ZM45.327,424.487l26.087,14.264L97.5,424.487Z" transform="translate(-41.413 -87.487)" fill="#dcb964"/></g></g><path d="M111.787,420.777l-33.874,54.2V439.3ZM79.913,468l26.126-41.8L79.913,440.484Z" transform="translate(-7.5 -84)" fill="#dcb964"/><g transform="translate(41.413 3.487)"><g clip-path="url(#a)"><path d="M38.54,420.777,72.413,439.3v35.676Zm31.874,19.707L44.287,426.2,70.413,468Z" transform="translate(-41.413 -87.487)" fill="#dcb964"/><path d="M33.913,461.843l33.913,18.543H0ZM60,478.386,33.913,464.123,7.827,478.386Z" transform="translate(-33.913 -95.386)" fill="#dcb964"/><path d="M1.04,474.2,34.913,420v35.677Zm31.874-47.224-26.126,41.8,26.126-14.285Z" transform="translate(-33.913 -87.487)" fill="#dcb964"/><path d="M74.287,474.2,40.413,455.677V420ZM42.413,454.491,68.54,468.776l-26.126-41.8Z" transform="translate(-41.413 -87.487)" fill="#dcb964"/></g></g><path d="M108.913,461.843l33.913,18.543H75ZM135,478.386l-26.087-14.263L82.827,478.386Z" transform="translate(-7.5 -91.899)" fill="#dcb964"/><path d="M76.04,474.2,109.913,420v35.677Zm31.874-47.224-26.126,41.8,26.126-14.285Z" transform="translate(-7.5 -84)" fill="#dcb964"/><path d="M149.287,474.2l-33.874-18.521V420Zm-31.874-19.707,26.126,14.285-26.126-41.8Z" transform="translate(-15 -84)" fill="#dcb964"/><path d="M183.913,461.843l33.913,18.543H150ZM210,478.386l-26.087-14.263-26.087,14.263Z" transform="translate(-22.5 -91.899)" fill="#dcb964"/><path d="M151.04,474.2,184.913,420v35.677Zm31.874-47.224-26.126,41.8,26.126-14.285Z" transform="translate(-22.5 -84)" fill="#dcb964"/><path d="M224.287,474.2l-33.874-18.521V420Zm-31.874-19.707,26.126,14.285-26.126-41.8Z" transform="translate(-30 -84)" fill="#dcb964"/><path d="M258.913,461.843l33.913,18.543H225ZM285,478.386l-26.087-14.263-26.087,14.263Z" transform="translate(-37.5 -91.899)" fill="#dcb964"/><path d="M226.04,474.2,259.913,420v35.677Zm31.874-47.224-26.126,41.8,26.126-14.285Z" transform="translate(-37.5 -84)" fill="#dcb964"/><path d="M299.287,474.2l-33.874-18.521V420Zm-31.874-19.707,26.126,14.285-26.126-41.8Z" transform="translate(-45 -84)" fill="#dcb964"/><g transform="translate(41.413 3.487)"><g clip-path="url(#a)"><path d="M333.913,461.843l33.913,18.543H300ZM360,478.386l-26.087-14.263-26.087,14.263Z" transform="translate(-93.913 -95.386)" fill="#dcb964"/><path d="M301.04,474.2,334.913,420v35.677Zm31.874-47.224-26.126,41.8,26.126-14.285Z" transform="translate(-93.913 -87.487)" fill="#dcb964"/><path d="M374.287,474.2l-33.874-18.521V420Zm-31.874-19.707,26.126,14.285-26.126-41.8Z" transform="translate(-101.413 -87.487)" fill="#dcb964"/><path d="M71.413,521.843l33.913,18.543H37.5ZM97.5,538.386,71.413,524.123,45.327,538.386Z" transform="translate(-41.413 -107.386)" fill="#dcb964"/><path d="M38.54,534.2,72.413,480v35.677Zm31.874-47.224-26.126,41.8,26.126-14.285Z" transform="translate(-41.413 -99.487)" fill="#dcb964"/></g></g><path d="M111.787,534.2,77.913,515.677V480ZM79.913,514.491l26.126,14.285-26.126-41.8Z" transform="translate(-7.5 -96)" fill="#dcb964"/><path d="M146.413,521.843l33.913,18.543H112.5ZM172.5,538.386l-26.087-14.263-26.087,14.263Z" transform="translate(-15 -103.899)" fill="#dcb964"/><path d="M113.54,534.2,147.413,480v35.677Zm31.874-47.224-26.126,41.8,26.126-14.285Z" transform="translate(-15 -96)" fill="#dcb964"/><path d="M186.787,534.2l-33.874-18.521V480Zm-31.874-19.707,26.126,14.285-26.126-41.8Z" transform="translate(-22.5 -96)" fill="#dcb964"/><path d="M221.413,521.843l33.913,18.543H187.5ZM247.5,538.386l-26.087-14.263-26.087,14.263Z" transform="translate(-30 -103.899)" fill="#dcb964"/><path d="M188.54,534.2,222.413,480v35.677Zm31.874-47.224-26.126,41.8,26.126-14.285Z" transform="translate(-30 -96)" fill="#dcb964"/><path d="M261.787,534.2l-33.874-18.521V480Zm-31.874-19.707,26.126,14.285-26.126-41.8Z" transform="translate(-37.5 -96)" fill="#dcb964"/><g transform="translate(41.413 3.487)"><g clip-path="url(#a)"><path d="M296.413,521.843l33.913,18.543H262.5ZM322.5,538.386l-26.087-14.263-26.087,14.263Z" transform="translate(-86.413 -107.386)" fill="#dcb964"/></g></g><path d="M263.54,534.2,297.413,480v35.677Zm31.874-47.224-26.126,41.8,26.126-14.285Z" transform="translate(-45 -96)" fill="#dcb964"/><g transform="translate(41.413 3.487)"><g clip-path="url(#a)"><path d="M336.787,534.2l-33.874-18.521V480Zm-31.874-19.707,26.126,14.285-26.126-41.8Z" transform="translate(-93.913 -99.487)" fill="#dcb964"/><path d="M333.913,501.03,300,482.487h67.827Zm-26.087-16.543,26.087,14.264L360,484.487Z" transform="translate(-93.913 -99.487)" fill="#dcb964"/><path d="M374.287,480.777l-33.874,54.2V499.3ZM342.413,528l26.126-41.8-26.126,14.285Z" transform="translate(-101.413 -99.487)" fill="#dcb964"/><path d="M301.04,480.777,334.913,499.3v35.677Zm31.874,19.707L306.787,486.2,332.913,528Z" transform="translate(-93.913 -99.487)" fill="#dcb964"/></g></g><path d="M258.913,501.03,225,482.487h67.827Zm-26.087-16.543,26.087,14.264L285,484.487Z" transform="translate(-37.5 -96)" fill="#dcb964"/><path d="M299.287,480.777l-33.874,54.2V499.3ZM267.413,528l26.126-41.8-26.126,14.285Z" transform="translate(-45 -96)" fill="#dcb964"/><path d="M226.04,480.777,259.913,499.3v35.677Zm31.874,19.707L231.787,486.2,257.913,528Z" transform="translate(-37.5 -96)" fill="#dcb964"/><path d="M183.913,501.03,150,482.487h67.827Zm-26.087-16.543,26.087,14.264L210,484.487Z" transform="translate(-22.5 -96)" fill="#dcb964"/><path d="M224.287,480.777l-33.874,54.2V499.3ZM192.413,528l26.126-41.8-26.126,14.285Z" transform="translate(-30 -96)" fill="#dcb964"/><path d="M151.04,480.777,184.913,499.3v35.677Zm31.874,19.707L156.787,486.2,182.913,528Z" transform="translate(-22.5 -96)" fill="#dcb964"/><path d="M108.913,501.03,75,482.487h67.827ZM82.827,484.487l26.087,14.264L135,484.487Z" transform="translate(-7.5 -96)" fill="#dcb964"/><path d="M149.287,480.777l-33.874,54.2V499.3ZM117.413,528l26.126-41.8-26.126,14.285Z" transform="translate(-15 -96)" fill="#dcb964"/><path d="M76.04,480.777,109.913,499.3v35.677Zm31.874,19.707L81.787,486.2,107.913,528Z" transform="translate(-7.5 -96)" fill="#dcb964"/><g transform="translate(41.413 3.487)"><g clip-path="url(#a)"><path d="M33.913,501.03,0,482.487H67.827ZM7.827,484.487l26.087,14.264L60,484.487Z" transform="translate(-33.913 -99.487)" fill="#dcb964"/><path d="M74.287,480.777l-33.874,54.2V499.3ZM42.413,528,68.54,486.2,42.413,500.484Z" transform="translate(-41.413 -99.487)" fill="#dcb964"/><path d="M1.04,480.777,34.913,499.3v35.677Zm31.874,19.707L6.787,486.2,32.913,528Z" transform="translate(-33.913 -99.487)" fill="#dcb964"/><path d="M296.413,561.03,262.5,542.487h67.827Zm-26.087-16.543,26.087,14.264L322.5,544.487Z" transform="translate(-86.413 -111.487)" fill="#dcb964"/><path d="M336.787,540.777l-33.874,54.2V559.3ZM304.913,588l26.126-41.8-26.126,14.285Z" transform="translate(-93.913 -111.487)" fill="#dcb964"/><path d="M263.54,540.777,297.413,559.3v35.677Zm31.874,19.707L269.287,546.2,295.413,588Z" transform="translate(-86.413 -111.487)" fill="#dcb964"/></g></g><path d="M221.413,561.03,187.5,542.487h67.827Zm-26.087-16.543,26.087,14.264L247.5,544.487Z" transform="translate(-30 -108)" fill="#dcb964"/><g transform="translate(41.413 3.487)"><g clip-path="url(#a)"><path d="M261.787,540.777l-33.874,54.2V559.3ZM229.913,588l26.126-41.8-26.126,14.285Z" transform="translate(-78.913 -111.487)" fill="#dcb964"/><path d="M188.54,540.777,222.413,559.3v35.677Zm31.874,19.707L194.287,546.2,220.413,588Z" transform="translate(-71.413 -111.487)" fill="#dcb964"/></g></g><path d="M146.413,561.03,112.5,542.487h67.827Zm-26.087-16.543,26.087,14.264L172.5,544.487Z" transform="translate(-15 -108)" fill="#dcb964"/><g transform="translate(41.413 3.487)"><g clip-path="url(#a)"><path d="M186.787,540.777l-33.874,54.2V559.3ZM154.913,588l26.126-41.8-26.126,14.285Z" transform="translate(-63.913 -111.487)" fill="#dcb964"/><path d="M113.54,540.777,147.413,559.3v35.677Zm31.874,19.707L119.287,546.2,145.413,588Z" transform="translate(-56.413 -111.487)" fill="#dcb964"/><path d="M71.413,561.03,37.5,542.487h67.827ZM45.327,544.487l26.087,14.264L97.5,544.487Z" transform="translate(-41.413 -111.487)" fill="#dcb964"/><path d="M111.787,540.777l-33.874,54.2V559.3ZM79.913,588l26.126-41.8L79.913,560.484Z" transform="translate(-48.913 -111.487)" fill="#dcb964"/><path d="M38.54,540.777,72.413,559.3v35.677Zm31.874,19.707L44.287,546.2,70.413,588Z" transform="translate(-41.413 -111.487)" fill="#dcb964"/><path d="M33.913,581.843l33.913,18.543H0ZM60,598.386,33.913,584.123,7.827,598.386Z" transform="translate(-33.913 -119.386)" fill="#dcb964"/><path d="M1.04,594.2,34.913,540v35.677Zm31.874-47.224-26.126,41.8,26.126-14.285Z" transform="translate(-33.913 -111.487)" fill="#dcb964"/><path d="M74.287,594.2,40.413,575.677V540ZM42.413,574.491,68.54,588.776l-26.126-41.8Z" transform="translate(-41.413 -111.487)" fill="#dcb964"/><path d="M108.913,581.843l33.913,18.543H75ZM135,598.386l-26.087-14.263L82.827,598.386Z" transform="translate(-48.913 -119.386)" fill="#dcb964"/><path d="M76.04,594.2,109.913,540v35.677Zm31.874-47.224-26.126,41.8,26.126-14.285Z" transform="translate(-48.913 -111.487)" fill="#dcb964"/><path d="M149.287,594.2l-33.874-18.521V540Zm-31.874-19.707,26.126,14.285-26.126-41.8Z" transform="translate(-56.413 -111.487)" fill="#dcb964"/><path d="M183.913,581.843l33.913,18.543H150ZM210,598.386l-26.087-14.263-26.087,14.263Z" transform="translate(-63.913 -119.386)" fill="#dcb964"/><path d="M151.04,594.2,184.913,540v35.677Zm31.874-47.224-26.126,41.8,26.126-14.285Z" transform="translate(-63.913 -111.487)" fill="#dcb964"/><path d="M224.287,594.2l-33.874-18.521V540Zm-31.874-19.707,26.126,14.285-26.126-41.8Z" transform="translate(-71.413 -111.487)" fill="#dcb964"/><path d="M258.913,581.843l33.913,18.543H225ZM285,598.386l-26.087-14.263-26.087,14.263Z" transform="translate(-78.913 -119.386)" fill="#dcb964"/><path d="M226.04,594.2,259.913,540v35.677Zm31.874-47.224-26.126,41.8,26.126-14.285Z" transform="translate(-78.913 -111.487)" fill="#dcb964"/><path d="M299.287,594.2l-33.874-18.521V540Zm-31.874-19.707,26.126,14.285-26.126-41.8Z" transform="translate(-86.413 -111.487)" fill="#dcb964"/><path d="M333.913,581.843l33.913,18.543H300ZM360,598.386l-26.087-14.263-26.087,14.263Z" transform="translate(-93.913 -119.386)" fill="#dcb964"/><path d="M301.04,594.2,334.913,540v35.677Zm31.874-47.224-26.126,41.8,26.126-14.285Z" transform="translate(-93.913 -111.487)" fill="#dcb964"/><path d="M374.287,594.2l-33.874-18.521V540Zm-31.874-19.707,26.126,14.285-26.126-41.8Z" transform="translate(-101.413 -111.487)" fill="#dcb964"/></g></g></g></svg>