<svg xmlns="http://www.w3.org/2000/svg" xmlns:xlink="http://www.w3.org/1999/xlink" width="50" height="106.44" viewBox="0 0 50 106.44"><defs><clipPath id="a"><rect width="50" height="106.44" transform="translate(69 9187)" fill="#fff" stroke="#707070" stroke-width="1"/></clipPath><clipPath id="b"><rect width="2087.242" height="406" fill="none"/></clipPath><clipPath id="c"><rect width="326.156" height="560.794" fill="none" stroke="#fff" stroke-width="1"/></clipPath></defs><g transform="translate(-69 -9187)" clip-path="url(#a)"><g transform="translate(-56.621 9133)" opacity="0.13" clip-path="url(#b)"><g clip-path="url(#c)"><path d="M101.319,1.462,76.371,28.074l49.9,53.224,24.949-26.612Z" transform="translate(-25.562 -0.489)" fill="none" stroke="#fff" stroke-miterlimit="10" stroke-width="2"/><path d="M26.319,1.462,1.371,28.074,51.268,81.3,76.217,54.685Z" transform="translate(-0.459 -0.489)" fill="none" stroke="#fff" stroke-miterlimit="10" stroke-width="2"/><path d="M176.319,1.462,151.371,28.074l49.9,53.224,24.949-26.612Z" transform="translate(-50.664 -0.489)" fill="none" stroke="#fff" stroke-miterlimit="10" stroke-width="2"/><path d="M251.319,1.462,226.371,28.074l49.9,53.224,24.949-26.612Z" transform="translate(-75.767 -0.489)" fill="none" stroke="#fff" stroke-miterlimit="10" stroke-width="2"/><path d="M326.319,1.462,301.371,28.074l49.9,53.224,24.949-26.612Z" transform="translate(-100.87 -0.489)" fill="none" stroke="#fff" stroke-miterlimit="10" stroke-width="2"/><path d="M401.319,1.462,376.371,28.074l49.9,53.224,24.949-26.612Z" transform="translate(-125.973 -0.489)" fill="none" stroke="#fff" stroke-miterlimit="10" stroke-width="2"/></g><path d="M388.768,81.462l24.949,26.612-49.9,53.224-24.949-26.612Z" transform="translate(-113.421 -27.266)" fill="none" stroke="#fff" stroke-miterlimit="10" stroke-width="2"/><path d="M313.768,81.462l24.949,26.612-49.9,53.224-24.949-26.612Z" transform="translate(-88.319 -27.266)" fill="none" stroke="#fff" stroke-miterlimit="10" stroke-width="2"/><path d="M238.768,81.462l24.949,26.612-49.9,53.224-24.949-26.612Z" transform="translate(-63.216 -27.266)" fill="none" stroke="#fff" stroke-miterlimit="10" stroke-width="2"/><path d="M163.768,81.462l24.949,26.612-49.9,53.224-24.949-26.612Z" transform="translate(-38.113 -27.266)" fill="none" stroke="#fff" stroke-miterlimit="10" stroke-width="2"/><path d="M88.768,81.462l24.949,26.612L63.819,161.3,38.871,134.685Z" transform="translate(-13.01 -27.266)" fill="none" stroke="#fff" stroke-miterlimit="10" stroke-width="2"/><path d="M101.319,161.462,76.371,188.074l49.9,53.224,24.949-26.612Z" transform="translate(-25.562 -54.042)" fill="none" stroke="#fff" stroke-miterlimit="10" stroke-width="2"/><g clip-path="url(#c)"><path d="M26.319,161.462,1.371,188.074l49.9,53.224,24.949-26.612Z" transform="translate(-0.459 -54.042)" fill="none" stroke="#fff" stroke-miterlimit="10" stroke-width="2"/></g><path d="M176.319,161.462l-24.949,26.612,49.9,53.224,24.949-26.612Z" transform="translate(-50.664 -54.042)" fill="none" stroke="#fff" stroke-miterlimit="10" stroke-width="2"/><path d="M251.319,161.462l-24.949,26.612,49.9,53.224,24.949-26.612Z" transform="translate(-75.767 -54.042)" fill="none" stroke="#fff" stroke-miterlimit="10" stroke-width="2"/><path d="M326.319,161.462l-24.949,26.612,49.9,53.224,24.949-26.612Z" transform="translate(-100.87 -54.042)" fill="none" stroke="#fff" stroke-miterlimit="10" stroke-width="2"/><g clip-path="url(#c)"><path d="M401.319,161.462l-24.949,26.612,49.9,53.224,24.949-26.612Z" transform="translate(-125.973 -54.042)" fill="none" stroke="#fff" stroke-miterlimit="10" stroke-width="2"/></g><path d="M388.768,241.462l24.949,26.612-49.9,53.224-24.949-26.612Z" transform="translate(-113.421 -80.818)" fill="none" stroke="#fff" stroke-miterlimit="10" stroke-width="2"/><path d="M313.768,241.462l24.949,26.612-49.9,53.224-24.949-26.612Z" transform="translate(-88.319 -80.818)" fill="none" stroke="#fff" stroke-miterlimit="10" stroke-width="2"/><path d="M238.768,241.462l24.949,26.612-49.9,53.224-24.949-26.612Z" transform="translate(-63.216 -80.818)" fill="none" stroke="#fff" stroke-miterlimit="10" stroke-width="2"/><path d="M163.768,241.462l24.949,26.612-49.9,53.224-24.949-26.612Z" transform="translate(-38.113 -80.818)" fill="none" stroke="#fff" stroke-miterlimit="10" stroke-width="2"/><path d="M88.768,241.462l24.949,26.612L63.819,321.3,38.871,294.685Z" transform="translate(-13.01 -80.818)" fill="none" stroke="#fff" stroke-miterlimit="10" stroke-width="2"/><path d="M101.319,321.462,76.371,348.074l49.9,53.224,24.949-26.612Z" transform="translate(-25.562 -107.595)" fill="none" stroke="#fff" stroke-miterlimit="10" stroke-width="2"/><g clip-path="url(#c)"><path d="M26.319,321.462,1.371,348.074l49.9,53.224,24.949-26.612Z" transform="translate(-0.459 -107.595)" fill="none" stroke="#fff" stroke-miterlimit="10" stroke-width="2"/></g><path d="M176.319,321.462l-24.949,26.612,49.9,53.224,24.949-26.612Z" transform="translate(-50.664 -107.595)" fill="none" stroke="#fff" stroke-miterlimit="10" stroke-width="2"/><path d="M251.319,321.462l-24.949,26.612,49.9,53.224,24.949-26.612Z" transform="translate(-75.767 -107.595)" fill="none" stroke="#fff" stroke-miterlimit="10" stroke-width="2"/><path d="M326.319,321.462l-24.949,26.612,49.9,53.224,24.949-26.612Z" transform="translate(-100.87 -107.595)" fill="none" stroke="#fff" stroke-miterlimit="10" stroke-width="2"/><g clip-path="url(#c)"><path d="M401.319,321.462l-24.949,26.612,49.9,53.224,24.949-26.612Z" transform="translate(-125.973 -107.595)" fill="none" stroke="#fff" stroke-miterlimit="10" stroke-width="2"/></g><path d="M388.768,401.462l24.949,26.612-49.9,53.224-24.949-26.612Z" transform="translate(-113.421 -134.371)" fill="none" stroke="#fff" stroke-miterlimit="10" stroke-width="2"/><path d="M313.768,401.462l24.949,26.612-49.9,53.224-24.949-26.612Z" transform="translate(-88.319 -134.371)" fill="none" stroke="#fff" stroke-miterlimit="10" stroke-width="2"/><path d="M238.768,401.462l24.949,26.612-49.9,53.224-24.949-26.612Z" transform="translate(-63.216 -134.371)" fill="none" stroke="#fff" stroke-miterlimit="10" stroke-width="2"/><path d="M163.768,401.462l24.949,26.612-49.9,53.224-24.949-26.612Z" transform="translate(-38.113 -134.371)" fill="none" stroke="#fff" stroke-miterlimit="10" stroke-width="2"/><path d="M88.768,401.462l24.949,26.612L63.819,481.3,38.871,454.686Z" transform="translate(-13.01 -134.371)" fill="none" stroke="#fff" stroke-miterlimit="10" stroke-width="2"/><path d="M101.319,481.462,76.371,508.074l49.9,53.224,24.949-26.612Z" transform="translate(-25.562 -161.147)" fill="none" stroke="#fff" stroke-miterlimit="10" stroke-width="2"/><g clip-path="url(#c)"><path d="M26.319,481.462,1.371,508.074l49.9,53.224,24.949-26.612Z" transform="translate(-0.459 -161.147)" fill="none" stroke="#fff" stroke-miterlimit="10" stroke-width="2"/></g><path d="M176.319,481.462l-24.949,26.612,49.9,53.224,24.949-26.612Z" transform="translate(-50.664 -161.147)" fill="none" stroke="#fff" stroke-miterlimit="10" stroke-width="2"/><path d="M251.319,481.462l-24.949,26.612,49.9,53.224,24.949-26.612Z" transform="translate(-75.767 -161.147)" fill="none" stroke="#fff" stroke-miterlimit="10" stroke-width="2"/><path d="M326.319,481.462l-24.949,26.612,49.9,53.224,24.949-26.612Z" transform="translate(-100.87 -161.147)" fill="none" stroke="#fff" stroke-miterlimit="10" stroke-width="2"/><g clip-path="url(#c)"><path d="M401.319,481.462l-24.949,26.612,49.9,53.224,24.949-26.612Z" transform="translate(-125.973 -161.147)" fill="none" stroke="#fff" stroke-miterlimit="10" stroke-width="2"/></g><path d="M388.768,561.462l24.949,26.612-49.9,53.224-24.949-26.612Z" transform="translate(-113.421 -187.923)" fill="none" stroke="#fff" stroke-miterlimit="10" stroke-width="2"/><path d="M313.768,561.462l24.949,26.612-49.9,53.224-24.949-26.612Z" transform="translate(-88.319 -187.923)" fill="none" stroke="#fff" stroke-miterlimit="10" stroke-width="2"/><path d="M238.768,561.462l24.949,26.612-49.9,53.224-24.949-26.612Z" transform="translate(-63.216 -187.923)" fill="none" stroke="#fff" stroke-miterlimit="10" stroke-width="2"/><path d="M163.768,561.462l24.949,26.612-49.9,53.224-24.949-26.612Z" transform="translate(-38.113 -187.923)" fill="none" stroke="#fff" stroke-miterlimit="10" stroke-width="2"/><path d="M88.768,561.462l24.949,26.612L63.819,641.3,38.871,614.686Z" transform="translate(-13.01 -187.923)" fill="none" stroke="#fff" stroke-miterlimit="10" stroke-width="2"/><path d="M101.319,641.462,76.371,668.074l49.9,53.224,24.949-26.612Z" transform="translate(-25.562 -214.7)" fill="none" stroke="#fff" stroke-miterlimit="10" stroke-width="2"/><g clip-path="url(#c)"><path d="M26.319,641.462,1.371,668.074l49.9,53.224,24.949-26.612Z" transform="translate(-0.459 -214.7)" fill="none" stroke="#fff" stroke-miterlimit="10" stroke-width="2"/></g><path d="M176.319,641.462l-24.949,26.612,49.9,53.224,24.949-26.612Z" transform="translate(-50.664 -214.7)" fill="none" stroke="#fff" stroke-miterlimit="10" stroke-width="2"/><path d="M251.319,641.462l-24.949,26.612,49.9,53.224,24.949-26.612Z" transform="translate(-75.767 -214.7)" fill="none" stroke="#fff" stroke-miterlimit="10" stroke-width="2"/><path d="M326.319,641.462l-24.949,26.612,49.9,53.224,24.949-26.612Z" transform="translate(-100.87 -214.7)" fill="none" stroke="#fff" stroke-miterlimit="10" stroke-width="2"/><g clip-path="url(#c)"><path d="M401.319,641.462l-24.949,26.612,49.9,53.224,24.949-26.612Z" transform="translate(-125.973 -214.7)" fill="none" stroke="#fff" stroke-miterlimit="10" stroke-width="2"/><path d="M388.768,721.462l24.949,26.612-49.9,53.224-24.949-26.612Z" transform="translate(-113.421 -241.476)" fill="none" stroke="#fff" stroke-miterlimit="10" stroke-width="2"/><path d="M313.768,721.462l24.949,26.612-49.9,53.224-24.949-26.612Z" transform="translate(-88.319 -241.476)" fill="none" stroke="#fff" stroke-miterlimit="10" stroke-width="2"/><path d="M238.768,721.462l24.949,26.612-49.9,53.224-24.949-26.612Z" transform="translate(-63.216 -241.476)" fill="none" stroke="#fff" stroke-miterlimit="10" stroke-width="2"/><path d="M163.768,721.462l24.949,26.612-49.9,53.224-24.949-26.612Z" transform="translate(-38.113 -241.476)" fill="none" stroke="#fff" stroke-miterlimit="10" stroke-width="2"/><path d="M88.768,721.462l24.949,26.612L63.819,801.3,38.871,774.686Z" transform="translate(-13.01 -241.476)" fill="none" stroke="#fff" stroke-miterlimit="10" stroke-width="2"/></g><g transform="translate(250)"><g clip-path="url(#c)"><path d="M101.319,1.462,76.371,28.074l49.9,53.224,24.949-26.612Z" transform="translate(-25.562 -0.489)" fill="none" stroke="#fff" stroke-miterlimit="10" stroke-width="2"/><path d="M26.319,1.462,1.371,28.074,51.268,81.3,76.217,54.685Z" transform="translate(-0.459 -0.489)" fill="none" stroke="#fff" stroke-miterlimit="10" stroke-width="2"/><path d="M176.319,1.462,151.371,28.074l49.9,53.224,24.949-26.612Z" transform="translate(-50.664 -0.489)" fill="none" stroke="#fff" stroke-miterlimit="10" stroke-width="2"/><path d="M251.319,1.462,226.371,28.074l49.9,53.224,24.949-26.612Z" transform="translate(-75.767 -0.489)" fill="none" stroke="#fff" stroke-miterlimit="10" stroke-width="2"/><path d="M326.319,1.462,301.371,28.074l49.9,53.224,24.949-26.612Z" transform="translate(-100.87 -0.489)" fill="none" stroke="#fff" stroke-miterlimit="10" stroke-width="2"/><path d="M401.319,1.462,376.371,28.074l49.9,53.224,24.949-26.612Z" transform="translate(-125.973 -0.489)" fill="none" stroke="#fff" stroke-miterlimit="10" stroke-width="2"/></g><path d="M388.768,81.462l24.949,26.612-49.9,53.224-24.949-26.612Z" transform="translate(-113.421 -27.266)" fill="none" stroke="#fff" stroke-miterlimit="10" stroke-width="2"/><path d="M313.768,81.462l24.949,26.612-49.9,53.224-24.949-26.612Z" transform="translate(-88.319 -27.266)" fill="none" stroke="#fff" stroke-miterlimit="10" stroke-width="2"/><path d="M238.768,81.462l24.949,26.612-49.9,53.224-24.949-26.612Z" transform="translate(-63.216 -27.266)" fill="none" stroke="#fff" stroke-miterlimit="10" stroke-width="2"/><path d="M163.768,81.462l24.949,26.612-49.9,53.224-24.949-26.612Z" transform="translate(-38.113 -27.266)" fill="none" stroke="#fff" stroke-miterlimit="10" stroke-width="2"/><path d="M88.768,81.462l24.949,26.612L63.819,161.3,38.871,134.685Z" transform="translate(-13.01 -27.266)" fill="none" stroke="#fff" stroke-miterlimit="10" stroke-width="2"/><path d="M101.319,161.462,76.371,188.074l49.9,53.224,24.949-26.612Z" transform="translate(-25.562 -54.042)" fill="none" stroke="#fff" stroke-miterlimit="10" stroke-width="2"/><g clip-path="url(#c)"><path d="M26.319,161.462,1.371,188.074l49.9,53.224,24.949-26.612Z" transform="translate(-0.459 -54.042)" fill="none" stroke="#fff" stroke-miterlimit="10" stroke-width="2"/></g><path d="M176.319,161.462l-24.949,26.612,49.9,53.224,24.949-26.612Z" transform="translate(-50.664 -54.042)" fill="none" stroke="#fff" stroke-miterlimit="10" stroke-width="2"/><path d="M251.319,161.462l-24.949,26.612,49.9,53.224,24.949-26.612Z" transform="translate(-75.767 -54.042)" fill="none" stroke="#fff" stroke-miterlimit="10" stroke-width="2"/><path d="M326.319,161.462l-24.949,26.612,49.9,53.224,24.949-26.612Z" transform="translate(-100.87 -54.042)" fill="none" stroke="#fff" stroke-miterlimit="10" stroke-width="2"/><g clip-path="url(#c)"><path d="M401.319,161.462l-24.949,26.612,49.9,53.224,24.949-26.612Z" transform="translate(-125.973 -54.042)" fill="none" stroke="#fff" stroke-miterlimit="10" stroke-width="2"/></g><path d="M388.768,241.462l24.949,26.612-49.9,53.224-24.949-26.612Z" transform="translate(-113.421 -80.818)" fill="none" stroke="#fff" stroke-miterlimit="10" stroke-width="2"/><path d="M313.768,241.462l24.949,26.612-49.9,53.224-24.949-26.612Z" transform="translate(-88.319 -80.818)" fill="none" stroke="#fff" stroke-miterlimit="10" stroke-width="2"/><path d="M238.768,241.462l24.949,26.612-49.9,53.224-24.949-26.612Z" transform="translate(-63.216 -80.818)" fill="none" stroke="#fff" stroke-miterlimit="10" stroke-width="2"/><path d="M163.768,241.462l24.949,26.612-49.9,53.224-24.949-26.612Z" transform="translate(-38.113 -80.818)" fill="none" stroke="#fff" stroke-miterlimit="10" stroke-width="2"/><path d="M88.768,241.462l24.949,26.612L63.819,321.3,38.871,294.685Z" transform="translate(-13.01 -80.818)" fill="none" stroke="#fff" stroke-miterlimit="10" stroke-width="2"/><path d="M101.319,321.462,76.371,348.074l49.9,53.224,24.949-26.612Z" transform="translate(-25.562 -107.595)" fill="none" stroke="#fff" stroke-miterlimit="10" stroke-width="2"/><g clip-path="url(#c)"><path d="M26.319,321.462,1.371,348.074l49.9,53.224,24.949-26.612Z" transform="translate(-0.459 -107.595)" fill="none" stroke="#fff" stroke-miterlimit="10" stroke-width="2"/></g><path d="M176.319,321.462l-24.949,26.612,49.9,53.224,24.949-26.612Z" transform="translate(-50.664 -107.595)" fill="none" stroke="#fff" stroke-miterlimit="10" stroke-width="2"/><path d="M251.319,321.462l-24.949,26.612,49.9,53.224,24.949-26.612Z" transform="translate(-75.767 -107.595)" fill="none" stroke="#fff" stroke-miterlimit="10" stroke-width="2"/><path d="M326.319,321.462l-24.949,26.612,49.9,53.224,24.949-26.612Z" transform="translate(-100.87 -107.595)" fill="none" stroke="#fff" stroke-miterlimit="10" stroke-width="2"/><g clip-path="url(#c)"><path d="M401.319,321.462l-24.949,26.612,49.9,53.224,24.949-26.612Z" transform="translate(-125.973 -107.595)" fill="none" stroke="#fff" stroke-miterlimit="10" stroke-width="2"/></g><path d="M388.768,401.462l24.949,26.612-49.9,53.224-24.949-26.612Z" transform="translate(-113.421 -134.371)" fill="none" stroke="#fff" stroke-miterlimit="10" stroke-width="2"/><path d="M313.768,401.462l24.949,26.612-49.9,53.224-24.949-26.612Z" transform="translate(-88.319 -134.371)" fill="none" stroke="#fff" stroke-miterlimit="10" stroke-width="2"/><path d="M238.768,401.462l24.949,26.612-49.9,53.224-24.949-26.612Z" transform="translate(-63.216 -134.371)" fill="none" stroke="#fff" stroke-miterlimit="10" stroke-width="2"/><path d="M163.768,401.462l24.949,26.612-49.9,53.224-24.949-26.612Z" transform="translate(-38.113 -134.371)" fill="none" stroke="#fff" stroke-miterlimit="10" stroke-width="2"/><path d="M88.768,401.462l24.949,26.612L63.819,481.3,38.871,454.686Z" transform="translate(-13.01 -134.371)" fill="none" stroke="#fff" stroke-miterlimit="10" stroke-width="2"/><path d="M101.319,481.462,76.371,508.074l49.9,53.224,24.949-26.612Z" transform="translate(-25.562 -161.147)" fill="none" stroke="#fff" stroke-miterlimit="10" stroke-width="2"/><g clip-path="url(#c)"><path d="M26.319,481.462,1.371,508.074l49.9,53.224,24.949-26.612Z" transform="translate(-0.459 -161.147)" fill="none" stroke="#fff" stroke-miterlimit="10" stroke-width="2"/></g><path d="M176.319,481.462l-24.949,26.612,49.9,53.224,24.949-26.612Z" transform="translate(-50.664 -161.147)" fill="none" stroke="#fff" stroke-miterlimit="10" stroke-width="2"/><path d="M251.319,481.462l-24.949,26.612,49.9,53.224,24.949-26.612Z" transform="translate(-75.767 -161.147)" fill="none" stroke="#fff" stroke-miterlimit="10" stroke-width="2"/><path d="M326.319,481.462l-24.949,26.612,49.9,53.224,24.949-26.612Z" transform="translate(-100.87 -161.147)" fill="none" stroke="#fff" stroke-miterlimit="10" stroke-width="2"/><g clip-path="url(#c)"><path d="M401.319,481.462l-24.949,26.612,49.9,53.224,24.949-26.612Z" transform="translate(-125.973 -161.147)" fill="none" stroke="#fff" stroke-miterlimit="10" stroke-width="2"/></g><path d="M388.768,561.462l24.949,26.612-49.9,53.224-24.949-26.612Z" transform="translate(-113.421 -187.923)" fill="none" stroke="#fff" stroke-miterlimit="10" stroke-width="2"/><path d="M313.768,561.462l24.949,26.612-49.9,53.224-24.949-26.612Z" transform="translate(-88.319 -187.923)" fill="none" stroke="#fff" stroke-miterlimit="10" stroke-width="2"/><path d="M238.768,561.462l24.949,26.612-49.9,53.224-24.949-26.612Z" transform="translate(-63.216 -187.923)" fill="none" stroke="#fff" stroke-miterlimit="10" stroke-width="2"/><path d="M163.768,561.462l24.949,26.612-49.9,53.224-24.949-26.612Z" transform="translate(-38.113 -187.923)" fill="none" stroke="#fff" stroke-miterlimit="10" stroke-width="2"/><path d="M88.768,561.462l24.949,26.612L63.819,641.3,38.871,614.686Z" transform="translate(-13.01 -187.923)" fill="none" stroke="#fff" stroke-miterlimit="10" stroke-width="2"/><path d="M101.319,641.462,76.371,668.074l49.9,53.224,24.949-26.612Z" transform="translate(-25.562 -214.7)" fill="none" stroke="#fff" stroke-miterlimit="10" stroke-width="2"/><g clip-path="url(#c)"><path d="M26.319,641.462,1.371,668.074l49.9,53.224,24.949-26.612Z" transform="translate(-0.459 -214.7)" fill="none" stroke="#fff" stroke-miterlimit="10" stroke-width="2"/></g><path d="M176.319,641.462l-24.949,26.612,49.9,53.224,24.949-26.612Z" transform="translate(-50.664 -214.7)" fill="none" stroke="#fff" stroke-miterlimit="10" stroke-width="2"/><path d="M251.319,641.462l-24.949,26.612,49.9,53.224,24.949-26.612Z" transform="translate(-75.767 -214.7)" fill="none" stroke="#fff" stroke-miterlimit="10" stroke-width="2"/><path d="M326.319,641.462l-24.949,26.612,49.9,53.224,24.949-26.612Z" transform="translate(-100.87 -214.7)" fill="none" stroke="#fff" stroke-miterlimit="10" stroke-width="2"/><g clip-path="url(#c)"><path d="M401.319,641.462l-24.949,26.612,49.9,53.224,24.949-26.612Z" transform="translate(-125.973 -214.7)" fill="none" stroke="#fff" stroke-miterlimit="10" stroke-width="2"/><path d="M388.768,721.462l24.949,26.612-49.9,53.224-24.949-26.612Z" transform="translate(-113.421 -241.476)" fill="none" stroke="#fff" stroke-miterlimit="10" stroke-width="2"/><path d="M313.768,721.462l24.949,26.612-49.9,53.224-24.949-26.612Z" transform="translate(-88.319 -241.476)" fill="none" stroke="#fff" stroke-miterlimit="10" stroke-width="2"/><path d="M238.768,721.462l24.949,26.612-49.9,53.224-24.949-26.612Z" transform="translate(-63.216 -241.476)" fill="none" stroke="#fff" stroke-miterlimit="10" stroke-width="2"/><path d="M163.768,721.462l24.949,26.612-49.9,53.224-24.949-26.612Z" transform="translate(-38.113 -241.476)" fill="none" stroke="#fff" stroke-miterlimit="10" stroke-width="2"/><path d="M88.768,721.462l24.949,26.612L63.819,801.3,38.871,774.686Z" transform="translate(-13.01 -241.476)" fill="none" stroke="#fff" stroke-miterlimit="10" stroke-width="2"/></g></g><g transform="translate(500)"><g clip-path="url(#c)"><path d="M101.319,1.462,76.371,28.074l49.9,53.224,24.949-26.612Z" transform="translate(-25.562 -0.489)" fill="none" stroke="#fff" stroke-miterlimit="10" stroke-width="2"/><path d="M26.319,1.462,1.371,28.074,51.268,81.3,76.217,54.685Z" transform="translate(-0.459 -0.489)" fill="none" stroke="#fff" stroke-miterlimit="10" stroke-width="2"/><path d="M176.319,1.462,151.371,28.074l49.9,53.224,24.949-26.612Z" transform="translate(-50.664 -0.489)" fill="none" stroke="#fff" stroke-miterlimit="10" stroke-width="2"/><path d="M251.319,1.462,226.371,28.074l49.9,53.224,24.949-26.612Z" transform="translate(-75.767 -0.489)" fill="none" stroke="#fff" stroke-miterlimit="10" stroke-width="2"/><path d="M326.319,1.462,301.371,28.074l49.9,53.224,24.949-26.612Z" transform="translate(-100.87 -0.489)" fill="none" stroke="#fff" stroke-miterlimit="10" stroke-width="2"/><path d="M401.319,1.462,376.371,28.074l49.9,53.224,24.949-26.612Z" transform="translate(-125.973 -0.489)" fill="none" stroke="#fff" stroke-miterlimit="10" stroke-width="2"/></g><path d="M388.768,81.462l24.949,26.612-49.9,53.224-24.949-26.612Z" transform="translate(-113.421 -27.266)" fill="none" stroke="#fff" stroke-miterlimit="10" stroke-width="2"/><path d="M313.768,81.462l24.949,26.612-49.9,53.224-24.949-26.612Z" transform="translate(-88.319 -27.266)" fill="none" stroke="#fff" stroke-miterlimit="10" stroke-width="2"/><path d="M238.768,81.462l24.949,26.612-49.9,53.224-24.949-26.612Z" transform="translate(-63.216 -27.266)" fill="none" stroke="#fff" stroke-miterlimit="10" stroke-width="2"/><path d="M163.768,81.462l24.949,26.612-49.9,53.224-24.949-26.612Z" transform="translate(-38.113 -27.266)" fill="none" stroke="#fff" stroke-miterlimit="10" stroke-width="2"/><path d="M88.768,81.462l24.949,26.612L63.819,161.3,38.871,134.685Z" transform="translate(-13.01 -27.266)" fill="none" stroke="#fff" stroke-miterlimit="10" stroke-width="2"/><path d="M101.319,161.462,76.371,188.074l49.9,53.224,24.949-26.612Z" transform="translate(-25.562 -54.042)" fill="none" stroke="#fff" stroke-miterlimit="10" stroke-width="2"/><g clip-path="url(#c)"><path d="M26.319,161.462,1.371,188.074l49.9,53.224,24.949-26.612Z" transform="translate(-0.459 -54.042)" fill="none" stroke="#fff" stroke-miterlimit="10" stroke-width="2"/></g><path d="M176.319,161.462l-24.949,26.612,49.9,53.224,24.949-26.612Z" transform="translate(-50.664 -54.042)" fill="none" stroke="#fff" stroke-miterlimit="10" stroke-width="2"/><path d="M251.319,161.462l-24.949,26.612,49.9,53.224,24.949-26.612Z" transform="translate(-75.767 -54.042)" fill="none" stroke="#fff" stroke-miterlimit="10" stroke-width="2"/><path d="M326.319,161.462l-24.949,26.612,49.9,53.224,24.949-26.612Z" transform="translate(-100.87 -54.042)" fill="none" stroke="#fff" stroke-miterlimit="10" stroke-width="2"/><g clip-path="url(#c)"><path d="M401.319,161.462l-24.949,26.612,49.9,53.224,24.949-26.612Z" transform="translate(-125.973 -54.042)" fill="none" stroke="#fff" stroke-miterlimit="10" stroke-width="2"/></g><path d="M388.768,241.462l24.949,26.612-49.9,53.224-24.949-26.612Z" transform="translate(-113.421 -80.818)" fill="none" stroke="#fff" stroke-miterlimit="10" stroke-width="2"/><path d="M313.768,241.462l24.949,26.612-49.9,53.224-24.949-26.612Z" transform="translate(-88.319 -80.818)" fill="none" stroke="#fff" stroke-miterlimit="10" stroke-width="2"/><path d="M238.768,241.462l24.949,26.612-49.9,53.224-24.949-26.612Z" transform="translate(-63.216 -80.818)" fill="none" stroke="#fff" stroke-miterlimit="10" stroke-width="2"/><path d="M163.768,241.462l24.949,26.612-49.9,53.224-24.949-26.612Z" transform="translate(-38.113 -80.818)" fill="none" stroke="#fff" stroke-miterlimit="10" stroke-width="2"/><path d="M88.768,241.462l24.949,26.612L63.819,321.3,38.871,294.685Z" transform="translate(-13.01 -80.818)" fill="none" stroke="#fff" stroke-miterlimit="10" stroke-width="2"/><path d="M101.319,321.462,76.371,348.074l49.9,53.224,24.949-26.612Z" transform="translate(-25.562 -107.595)" fill="none" stroke="#fff" stroke-miterlimit="10" stroke-width="2"/><g clip-path="url(#c)"><path d="M26.319,321.462,1.371,348.074l49.9,53.224,24.949-26.612Z" transform="translate(-0.459 -107.595)" fill="none" stroke="#fff" stroke-miterlimit="10" stroke-width="2"/></g><path d="M176.319,321.462l-24.949,26.612,49.9,53.224,24.949-26.612Z" transform="translate(-50.664 -107.595)" fill="none" stroke="#fff" stroke-miterlimit="10" stroke-width="2"/><path d="M251.319,321.462l-24.949,26.612,49.9,53.224,24.949-26.612Z" transform="translate(-75.767 -107.595)" fill="none" stroke="#fff" stroke-miterlimit="10" stroke-width="2"/><path d="M326.319,321.462l-24.949,26.612,49.9,53.224,24.949-26.612Z" transform="translate(-100.87 -107.595)" fill="none" stroke="#fff" stroke-miterlimit="10" stroke-width="2"/><g clip-path="url(#c)"><path d="M401.319,321.462l-24.949,26.612,49.9,53.224,24.949-26.612Z" transform="translate(-125.973 -107.595)" fill="none" stroke="#fff" stroke-miterlimit="10" stroke-width="2"/></g><path d="M388.768,401.462l24.949,26.612-49.9,53.224-24.949-26.612Z" transform="translate(-113.421 -134.371)" fill="none" stroke="#fff" stroke-miterlimit="10" stroke-width="2"/><path d="M313.768,401.462l24.949,26.612-49.9,53.224-24.949-26.612Z" transform="translate(-88.319 -134.371)" fill="none" stroke="#fff" stroke-miterlimit="10" stroke-width="2"/><path d="M238.768,401.462l24.949,26.612-49.9,53.224-24.949-26.612Z" transform="translate(-63.216 -134.371)" fill="none" stroke="#fff" stroke-miterlimit="10" stroke-width="2"/><path d="M163.768,401.462l24.949,26.612-49.9,53.224-24.949-26.612Z" transform="translate(-38.113 -134.371)" fill="none" stroke="#fff" stroke-miterlimit="10" stroke-width="2"/><path d="M88.768,401.462l24.949,26.612L63.819,481.3,38.871,454.686Z" transform="translate(-13.01 -134.371)" fill="none" stroke="#fff" stroke-miterlimit="10" stroke-width="2"/><path d="M101.319,481.462,76.371,508.074l49.9,53.224,24.949-26.612Z" transform="translate(-25.562 -161.147)" fill="none" stroke="#fff" stroke-miterlimit="10" stroke-width="2"/><g clip-path="url(#c)"><path d="M26.319,481.462,1.371,508.074l49.9,53.224,24.949-26.612Z" transform="translate(-0.459 -161.147)" fill="none" stroke="#fff" stroke-miterlimit="10" stroke-width="2"/></g><path d="M176.319,481.462l-24.949,26.612,49.9,53.224,24.949-26.612Z" transform="translate(-50.664 -161.147)" fill="none" stroke="#fff" stroke-miterlimit="10" stroke-width="2"/><path d="M251.319,481.462l-24.949,26.612,49.9,53.224,24.949-26.612Z" transform="translate(-75.767 -161.147)" fill="none" stroke="#fff" stroke-miterlimit="10" stroke-width="2"/><path d="M326.319,481.462l-24.949,26.612,49.9,53.224,24.949-26.612Z" transform="translate(-100.87 -161.147)" fill="none" stroke="#fff" stroke-miterlimit="10" stroke-width="2"/><g clip-path="url(#c)"><path d="M401.319,481.462l-24.949,26.612,49.9,53.224,24.949-26.612Z" transform="translate(-125.973 -161.147)" fill="none" stroke="#fff" stroke-miterlimit="10" stroke-width="2"/></g><path d="M388.768,561.462l24.949,26.612-49.9,53.224-24.949-26.612Z" transform="translate(-113.421 -187.923)" fill="none" stroke="#fff" stroke-miterlimit="10" stroke-width="2"/><path d="M313.768,561.462l24.949,26.612-49.9,53.224-24.949-26.612Z" transform="translate(-88.319 -187.923)" fill="none" stroke="#fff" stroke-miterlimit="10" stroke-width="2"/><path d="M238.768,561.462l24.949,26.612-49.9,53.224-24.949-26.612Z" transform="translate(-63.216 -187.923)" fill="none" stroke="#fff" stroke-miterlimit="10" stroke-width="2"/><path d="M163.768,561.462l24.949,26.612-49.9,53.224-24.949-26.612Z" transform="translate(-38.113 -187.923)" fill="none" stroke="#fff" stroke-miterlimit="10" stroke-width="2"/><path d="M88.768,561.462l24.949,26.612L63.819,641.3,38.871,614.686Z" transform="translate(-13.01 -187.923)" fill="none" stroke="#fff" stroke-miterlimit="10" stroke-width="2"/><path d="M101.319,641.462,76.371,668.074l49.9,53.224,24.949-26.612Z" transform="translate(-25.562 -214.7)" fill="none" stroke="#fff" stroke-miterlimit="10" stroke-width="2"/><g clip-path="url(#c)"><path d="M26.319,641.462,1.371,668.074l49.9,53.224,24.949-26.612Z" transform="translate(-0.459 -214.7)" fill="none" stroke="#fff" stroke-miterlimit="10" stroke-width="2"/></g><path d="M176.319,641.462l-24.949,26.612,49.9,53.224,24.949-26.612Z" transform="translate(-50.664 -214.7)" fill="none" stroke="#fff" stroke-miterlimit="10" stroke-width="2"/><path d="M251.319,641.462l-24.949,26.612,49.9,53.224,24.949-26.612Z" transform="translate(-75.767 -214.7)" fill="none" stroke="#fff" stroke-miterlimit="10" stroke-width="2"/><path d="M326.319,641.462l-24.949,26.612,49.9,53.224,24.949-26.612Z" transform="translate(-100.87 -214.7)" fill="none" stroke="#fff" stroke-miterlimit="10" stroke-width="2"/><g clip-path="url(#c)"><path d="M401.319,641.462l-24.949,26.612,49.9,53.224,24.949-26.612Z" transform="translate(-125.973 -214.7)" fill="none" stroke="#fff" stroke-miterlimit="10" stroke-width="2"/><path d="M388.768,721.462l24.949,26.612-49.9,53.224-24.949-26.612Z" transform="translate(-113.421 -241.476)" fill="none" stroke="#fff" stroke-miterlimit="10" stroke-width="2"/><path d="M313.768,721.462l24.949,26.612-49.9,53.224-24.949-26.612Z" transform="translate(-88.319 -241.476)" fill="none" stroke="#fff" stroke-miterlimit="10" stroke-width="2"/><path d="M238.768,721.462l24.949,26.612-49.9,53.224-24.949-26.612Z" transform="translate(-63.216 -241.476)" fill="none" stroke="#fff" stroke-miterlimit="10" stroke-width="2"/><path d="M163.768,721.462l24.949,26.612-49.9,53.224-24.949-26.612Z" transform="translate(-38.113 -241.476)" fill="none" stroke="#fff" stroke-miterlimit="10" stroke-width="2"/><path d="M88.768,721.462l24.949,26.612L63.819,801.3,38.871,774.686Z" transform="translate(-13.01 -241.476)" fill="none" stroke="#fff" stroke-miterlimit="10" stroke-width="2"/></g></g><g transform="translate(750)"><g clip-path="url(#c)"><path d="M101.319,1.462,76.371,28.074l49.9,53.224,24.949-26.612Z" transform="translate(-25.562 -0.489)" fill="none" stroke="#fff" stroke-miterlimit="10" stroke-width="2"/><path d="M26.319,1.462,1.371,28.074,51.268,81.3,76.217,54.685Z" transform="translate(-0.459 -0.489)" fill="none" stroke="#fff" stroke-miterlimit="10" stroke-width="2"/><path d="M176.319,1.462,151.371,28.074l49.9,53.224,24.949-26.612Z" transform="translate(-50.664 -0.489)" fill="none" stroke="#fff" stroke-miterlimit="10" stroke-width="2"/><path d="M251.319,1.462,226.371,28.074l49.9,53.224,24.949-26.612Z" transform="translate(-75.767 -0.489)" fill="none" stroke="#fff" stroke-miterlimit="10" stroke-width="2"/><path d="M326.319,1.462,301.371,28.074l49.9,53.224,24.949-26.612Z" transform="translate(-100.87 -0.489)" fill="none" stroke="#fff" stroke-miterlimit="10" stroke-width="2"/><path d="M401.319,1.462,376.371,28.074l49.9,53.224,24.949-26.612Z" transform="translate(-125.973 -0.489)" fill="none" stroke="#fff" stroke-miterlimit="10" stroke-width="2"/></g><path d="M388.768,81.462l24.949,26.612-49.9,53.224-24.949-26.612Z" transform="translate(-113.421 -27.266)" fill="none" stroke="#fff" stroke-miterlimit="10" stroke-width="2"/><path d="M313.768,81.462l24.949,26.612-49.9,53.224-24.949-26.612Z" transform="translate(-88.319 -27.266)" fill="none" stroke="#fff" stroke-miterlimit="10" stroke-width="2"/><path d="M238.768,81.462l24.949,26.612-49.9,53.224-24.949-26.612Z" transform="translate(-63.216 -27.266)" fill="none" stroke="#fff" stroke-miterlimit="10" stroke-width="2"/><path d="M163.768,81.462l24.949,26.612-49.9,53.224-24.949-26.612Z" transform="translate(-38.113 -27.266)" fill="none" stroke="#fff" stroke-miterlimit="10" stroke-width="2"/><path d="M88.768,81.462l24.949,26.612L63.819,161.3,38.871,134.685Z" transform="translate(-13.01 -27.266)" fill="none" stroke="#fff" stroke-miterlimit="10" stroke-width="2"/><path d="M101.319,161.462,76.371,188.074l49.9,53.224,24.949-26.612Z" transform="translate(-25.562 -54.042)" fill="none" stroke="#fff" stroke-miterlimit="10" stroke-width="2"/><g clip-path="url(#c)"><path d="M26.319,161.462,1.371,188.074l49.9,53.224,24.949-26.612Z" transform="translate(-0.459 -54.042)" fill="none" stroke="#fff" stroke-miterlimit="10" stroke-width="2"/></g><path d="M176.319,161.462l-24.949,26.612,49.9,53.224,24.949-26.612Z" transform="translate(-50.664 -54.042)" fill="none" stroke="#fff" stroke-miterlimit="10" stroke-width="2"/><path d="M251.319,161.462l-24.949,26.612,49.9,53.224,24.949-26.612Z" transform="translate(-75.767 -54.042)" fill="none" stroke="#fff" stroke-miterlimit="10" stroke-width="2"/><path d="M326.319,161.462l-24.949,26.612,49.9,53.224,24.949-26.612Z" transform="translate(-100.87 -54.042)" fill="none" stroke="#fff" stroke-miterlimit="10" stroke-width="2"/><g clip-path="url(#c)"><path d="M401.319,161.462l-24.949,26.612,49.9,53.224,24.949-26.612Z" transform="translate(-125.973 -54.042)" fill="none" stroke="#fff" stroke-miterlimit="10" stroke-width="2"/></g><path d="M388.768,241.462l24.949,26.612-49.9,53.224-24.949-26.612Z" transform="translate(-113.421 -80.818)" fill="none" stroke="#fff" stroke-miterlimit="10" stroke-width="2"/><path d="M313.768,241.462l24.949,26.612-49.9,53.224-24.949-26.612Z" transform="translate(-88.319 -80.818)" fill="none" stroke="#fff" stroke-miterlimit="10" stroke-width="2"/><path d="M238.768,241.462l24.949,26.612-49.9,53.224-24.949-26.612Z" transform="translate(-63.216 -80.818)" fill="none" stroke="#fff" stroke-miterlimit="10" stroke-width="2"/><path d="M163.768,241.462l24.949,26.612-49.9,53.224-24.949-26.612Z" transform="translate(-38.113 -80.818)" fill="none" stroke="#fff" stroke-miterlimit="10" stroke-width="2"/><path d="M88.768,241.462l24.949,26.612L63.819,321.3,38.871,294.685Z" transform="translate(-13.01 -80.818)" fill="none" stroke="#fff" stroke-miterlimit="10" stroke-width="2"/><path d="M101.319,321.462,76.371,348.074l49.9,53.224,24.949-26.612Z" transform="translate(-25.562 -107.595)" fill="none" stroke="#fff" stroke-miterlimit="10" stroke-width="2"/><g clip-path="url(#c)"><path d="M26.319,321.462,1.371,348.074l49.9,53.224,24.949-26.612Z" transform="translate(-0.459 -107.595)" fill="none" stroke="#fff" stroke-miterlimit="10" stroke-width="2"/></g><path d="M176.319,321.462l-24.949,26.612,49.9,53.224,24.949-26.612Z" transform="translate(-50.664 -107.595)" fill="none" stroke="#fff" stroke-miterlimit="10" stroke-width="2"/><path d="M251.319,321.462l-24.949,26.612,49.9,53.224,24.949-26.612Z" transform="translate(-75.767 -107.595)" fill="none" stroke="#fff" stroke-miterlimit="10" stroke-width="2"/><path d="M326.319,321.462l-24.949,26.612,49.9,53.224,24.949-26.612Z" transform="translate(-100.87 -107.595)" fill="none" stroke="#fff" stroke-miterlimit="10" stroke-width="2"/><g clip-path="url(#c)"><path d="M401.319,321.462l-24.949,26.612,49.9,53.224,24.949-26.612Z" transform="translate(-125.973 -107.595)" fill="none" stroke="#fff" stroke-miterlimit="10" stroke-width="2"/></g><path d="M388.768,401.462l24.949,26.612-49.9,53.224-24.949-26.612Z" transform="translate(-113.421 -134.371)" fill="none" stroke="#fff" stroke-miterlimit="10" stroke-width="2"/><path d="M313.768,401.462l24.949,26.612-49.9,53.224-24.949-26.612Z" transform="translate(-88.319 -134.371)" fill="none" stroke="#fff" stroke-miterlimit="10" stroke-width="2"/><path d="M238.768,401.462l24.949,26.612-49.9,53.224-24.949-26.612Z" transform="translate(-63.216 -134.371)" fill="none" stroke="#fff" stroke-miterlimit="10" stroke-width="2"/><path d="M163.768,401.462l24.949,26.612-49.9,53.224-24.949-26.612Z" transform="translate(-38.113 -134.371)" fill="none" stroke="#fff" stroke-miterlimit="10" stroke-width="2"/><path d="M88.768,401.462l24.949,26.612L63.819,481.3,38.871,454.686Z" transform="translate(-13.01 -134.371)" fill="none" stroke="#fff" stroke-miterlimit="10" stroke-width="2"/><path d="M101.319,481.462,76.371,508.074l49.9,53.224,24.949-26.612Z" transform="translate(-25.562 -161.147)" fill="none" stroke="#fff" stroke-miterlimit="10" stroke-width="2"/><g clip-path="url(#c)"><path d="M26.319,481.462,1.371,508.074l49.9,53.224,24.949-26.612Z" transform="translate(-0.459 -161.147)" fill="none" stroke="#fff" stroke-miterlimit="10" stroke-width="2"/></g><path d="M176.319,481.462l-24.949,26.612,49.9,53.224,24.949-26.612Z" transform="translate(-50.664 -161.147)" fill="none" stroke="#fff" stroke-miterlimit="10" stroke-width="2"/><path d="M251.319,481.462l-24.949,26.612,49.9,53.224,24.949-26.612Z" transform="translate(-75.767 -161.147)" fill="none" stroke="#fff" stroke-miterlimit="10" stroke-width="2"/><path d="M326.319,481.462l-24.949,26.612,49.9,53.224,24.949-26.612Z" transform="translate(-100.87 -161.147)" fill="none" stroke="#fff" stroke-miterlimit="10" stroke-width="2"/><g clip-path="url(#c)"><path d="M401.319,481.462l-24.949,26.612,49.9,53.224,24.949-26.612Z" transform="translate(-125.973 -161.147)" fill="none" stroke="#fff" stroke-miterlimit="10" stroke-width="2"/></g><path d="M388.768,561.462l24.949,26.612-49.9,53.224-24.949-26.612Z" transform="translate(-113.421 -187.923)" fill="none" stroke="#fff" stroke-miterlimit="10" stroke-width="2"/><path d="M313.768,561.462l24.949,26.612-49.9,53.224-24.949-26.612Z" transform="translate(-88.319 -187.923)" fill="none" stroke="#fff" stroke-miterlimit="10" stroke-width="2"/><path d="M238.768,561.462l24.949,26.612-49.9,53.224-24.949-26.612Z" transform="translate(-63.216 -187.923)" fill="none" stroke="#fff" stroke-miterlimit="10" stroke-width="2"/><path d="M163.768,561.462l24.949,26.612-49.9,53.224-24.949-26.612Z" transform="translate(-38.113 -187.923)" fill="none" stroke="#fff" stroke-miterlimit="10" stroke-width="2"/><path d="M88.768,561.462l24.949,26.612L63.819,641.3,38.871,614.686Z" transform="translate(-13.01 -187.923)" fill="none" stroke="#fff" stroke-miterlimit="10" stroke-width="2"/><path d="M101.319,641.462,76.371,668.074l49.9,53.224,24.949-26.612Z" transform="translate(-25.562 -214.7)" fill="none" stroke="#fff" stroke-miterlimit="10" stroke-width="2"/><g clip-path="url(#c)"><path d="M26.319,641.462,1.371,668.074l49.9,53.224,24.949-26.612Z" transform="translate(-0.459 -214.7)" fill="none" stroke="#fff" stroke-miterlimit="10" stroke-width="2"/></g><path d="M176.319,641.462l-24.949,26.612,49.9,53.224,24.949-26.612Z" transform="translate(-50.664 -214.7)" fill="none" stroke="#fff" stroke-miterlimit="10" stroke-width="2"/><path d="M251.319,641.462l-24.949,26.612,49.9,53.224,24.949-26.612Z" transform="translate(-75.767 -214.7)" fill="none" stroke="#fff" stroke-miterlimit="10" stroke-width="2"/><path d="M326.319,641.462l-24.949,26.612,49.9,53.224,24.949-26.612Z" transform="translate(-100.87 -214.7)" fill="none" stroke="#fff" stroke-miterlimit="10" stroke-width="2"/><g clip-path="url(#c)"><path d="M401.319,641.462l-24.949,26.612,49.9,53.224,24.949-26.612Z" transform="translate(-125.973 -214.7)" fill="none" stroke="#fff" stroke-miterlimit="10" stroke-width="2"/><path d="M388.768,721.462l24.949,26.612-49.9,53.224-24.949-26.612Z" transform="translate(-113.421 -241.476)" fill="none" stroke="#fff" stroke-miterlimit="10" stroke-width="2"/><path d="M313.768,721.462l24.949,26.612-49.9,53.224-24.949-26.612Z" transform="translate(-88.319 -241.476)" fill="none" stroke="#fff" stroke-miterlimit="10" stroke-width="2"/><path d="M238.768,721.462l24.949,26.612-49.9,53.224-24.949-26.612Z" transform="translate(-63.216 -241.476)" fill="none" stroke="#fff" stroke-miterlimit="10" stroke-width="2"/><path d="M163.768,721.462l24.949,26.612-49.9,53.224-24.949-26.612Z" transform="translate(-38.113 -241.476)" fill="none" stroke="#fff" stroke-miterlimit="10" stroke-width="2"/><path d="M88.768,721.462l24.949,26.612L63.819,801.3,38.871,774.686Z" transform="translate(-13.01 -241.476)" fill="none" stroke="#fff" stroke-miterlimit="10" stroke-width="2"/></g></g><g transform="translate(1000)"><g clip-path="url(#c)"><path d="M101.319,1.462,76.371,28.074l49.9,53.224,24.949-26.612Z" transform="translate(-25.562 -0.489)" fill="none" stroke="#fff" stroke-miterlimit="10" stroke-width="2"/><path d="M26.319,1.462,1.371,28.074,51.268,81.3,76.217,54.685Z" transform="translate(-0.459 -0.489)" fill="none" stroke="#fff" stroke-miterlimit="10" stroke-width="2"/><path d="M176.319,1.462,151.371,28.074l49.9,53.224,24.949-26.612Z" transform="translate(-50.664 -0.489)" fill="none" stroke="#fff" stroke-miterlimit="10" stroke-width="2"/><path d="M251.319,1.462,226.371,28.074l49.9,53.224,24.949-26.612Z" transform="translate(-75.767 -0.489)" fill="none" stroke="#fff" stroke-miterlimit="10" stroke-width="2"/><path d="M326.319,1.462,301.371,28.074l49.9,53.224,24.949-26.612Z" transform="translate(-100.87 -0.489)" fill="none" stroke="#fff" stroke-miterlimit="10" stroke-width="2"/><path d="M401.319,1.462,376.371,28.074l49.9,53.224,24.949-26.612Z" transform="translate(-125.973 -0.489)" fill="none" stroke="#fff" stroke-miterlimit="10" stroke-width="2"/></g><path d="M388.768,81.462l24.949,26.612-49.9,53.224-24.949-26.612Z" transform="translate(-113.421 -27.266)" fill="none" stroke="#fff" stroke-miterlimit="10" stroke-width="2"/><path d="M313.768,81.462l24.949,26.612-49.9,53.224-24.949-26.612Z" transform="translate(-88.319 -27.266)" fill="none" stroke="#fff" stroke-miterlimit="10" stroke-width="2"/><path d="M238.768,81.462l24.949,26.612-49.9,53.224-24.949-26.612Z" transform="translate(-63.216 -27.266)" fill="none" stroke="#fff" stroke-miterlimit="10" stroke-width="2"/><path d="M163.768,81.462l24.949,26.612-49.9,53.224-24.949-26.612Z" transform="translate(-38.113 -27.266)" fill="none" stroke="#fff" stroke-miterlimit="10" stroke-width="2"/><path d="M88.768,81.462l24.949,26.612L63.819,161.3,38.871,134.685Z" transform="translate(-13.01 -27.266)" fill="none" stroke="#fff" stroke-miterlimit="10" stroke-width="2"/><path d="M101.319,161.462,76.371,188.074l49.9,53.224,24.949-26.612Z" transform="translate(-25.562 -54.042)" fill="none" stroke="#fff" stroke-miterlimit="10" stroke-width="2"/><g clip-path="url(#c)"><path d="M26.319,161.462,1.371,188.074l49.9,53.224,24.949-26.612Z" transform="translate(-0.459 -54.042)" fill="none" stroke="#fff" stroke-miterlimit="10" stroke-width="2"/></g><path d="M176.319,161.462l-24.949,26.612,49.9,53.224,24.949-26.612Z" transform="translate(-50.664 -54.042)" fill="none" stroke="#fff" stroke-miterlimit="10" stroke-width="2"/><path d="M251.319,161.462l-24.949,26.612,49.9,53.224,24.949-26.612Z" transform="translate(-75.767 -54.042)" fill="none" stroke="#fff" stroke-miterlimit="10" stroke-width="2"/><path d="M326.319,161.462l-24.949,26.612,49.9,53.224,24.949-26.612Z" transform="translate(-100.87 -54.042)" fill="none" stroke="#fff" stroke-miterlimit="10" stroke-width="2"/><g clip-path="url(#c)"><path d="M401.319,161.462l-24.949,26.612,49.9,53.224,24.949-26.612Z" transform="translate(-125.973 -54.042)" fill="none" stroke="#fff" stroke-miterlimit="10" stroke-width="2"/></g><path d="M388.768,241.462l24.949,26.612-49.9,53.224-24.949-26.612Z" transform="translate(-113.421 -80.818)" fill="none" stroke="#fff" stroke-miterlimit="10" stroke-width="2"/><path d="M313.768,241.462l24.949,26.612-49.9,53.224-24.949-26.612Z" transform="translate(-88.319 -80.818)" fill="none" stroke="#fff" stroke-miterlimit="10" stroke-width="2"/><path d="M238.768,241.462l24.949,26.612-49.9,53.224-24.949-26.612Z" transform="translate(-63.216 -80.818)" fill="none" stroke="#fff" stroke-miterlimit="10" stroke-width="2"/><path d="M163.768,241.462l24.949,26.612-49.9,53.224-24.949-26.612Z" transform="translate(-38.113 -80.818)" fill="none" stroke="#fff" stroke-miterlimit="10" stroke-width="2"/><path d="M88.768,241.462l24.949,26.612L63.819,321.3,38.871,294.685Z" transform="translate(-13.01 -80.818)" fill="none" stroke="#fff" stroke-miterlimit="10" stroke-width="2"/><path d="M101.319,321.462,76.371,348.074l49.9,53.224,24.949-26.612Z" transform="translate(-25.562 -107.595)" fill="none" stroke="#fff" stroke-miterlimit="10" stroke-width="2"/><g clip-path="url(#c)"><path d="M26.319,321.462,1.371,348.074l49.9,53.224,24.949-26.612Z" transform="translate(-0.459 -107.595)" fill="none" stroke="#fff" stroke-miterlimit="10" stroke-width="2"/></g><path d="M176.319,321.462l-24.949,26.612,49.9,53.224,24.949-26.612Z" transform="translate(-50.664 -107.595)" fill="none" stroke="#fff" stroke-miterlimit="10" stroke-width="2"/><path d="M251.319,321.462l-24.949,26.612,49.9,53.224,24.949-26.612Z" transform="translate(-75.767 -107.595)" fill="none" stroke="#fff" stroke-miterlimit="10" stroke-width="2"/><path d="M326.319,321.462l-24.949,26.612,49.9,53.224,24.949-26.612Z" transform="translate(-100.87 -107.595)" fill="none" stroke="#fff" stroke-miterlimit="10" stroke-width="2"/><g clip-path="url(#c)"><path d="M401.319,321.462l-24.949,26.612,49.9,53.224,24.949-26.612Z" transform="translate(-125.973 -107.595)" fill="none" stroke="#fff" stroke-miterlimit="10" stroke-width="2"/></g><path d="M388.768,401.462l24.949,26.612-49.9,53.224-24.949-26.612Z" transform="translate(-113.421 -134.371)" fill="none" stroke="#fff" stroke-miterlimit="10" stroke-width="2"/><path d="M313.768,401.462l24.949,26.612-49.9,53.224-24.949-26.612Z" transform="translate(-88.319 -134.371)" fill="none" stroke="#fff" stroke-miterlimit="10" stroke-width="2"/><path d="M238.768,401.462l24.949,26.612-49.9,53.224-24.949-26.612Z" transform="translate(-63.216 -134.371)" fill="none" stroke="#fff" stroke-miterlimit="10" stroke-width="2"/><path d="M163.768,401.462l24.949,26.612-49.9,53.224-24.949-26.612Z" transform="translate(-38.113 -134.371)" fill="none" stroke="#fff" stroke-miterlimit="10" stroke-width="2"/><path d="M88.768,401.462l24.949,26.612L63.819,481.3,38.871,454.686Z" transform="translate(-13.01 -134.371)" fill="none" stroke="#fff" stroke-miterlimit="10" stroke-width="2"/><path d="M101.319,481.462,76.371,508.074l49.9,53.224,24.949-26.612Z" transform="translate(-25.562 -161.147)" fill="none" stroke="#fff" stroke-miterlimit="10" stroke-width="2"/><g clip-path="url(#c)"><path d="M26.319,481.462,1.371,508.074l49.9,53.224,24.949-26.612Z" transform="translate(-0.459 -161.147)" fill="none" stroke="#fff" stroke-miterlimit="10" stroke-width="2"/></g><path d="M176.319,481.462l-24.949,26.612,49.9,53.224,24.949-26.612Z" transform="translate(-50.664 -161.147)" fill="none" stroke="#fff" stroke-miterlimit="10" stroke-width="2"/><path d="M251.319,481.462l-24.949,26.612,49.9,53.224,24.949-26.612Z" transform="translate(-75.767 -161.147)" fill="none" stroke="#fff" stroke-miterlimit="10" stroke-width="2"/><path d="M326.319,481.462l-24.949,26.612,49.9,53.224,24.949-26.612Z" transform="translate(-100.87 -161.147)" fill="none" stroke="#fff" stroke-miterlimit="10" stroke-width="2"/><g clip-path="url(#c)"><path d="M401.319,481.462l-24.949,26.612,49.9,53.224,24.949-26.612Z" transform="translate(-125.973 -161.147)" fill="none" stroke="#fff" stroke-miterlimit="10" stroke-width="2"/></g><path d="M388.768,561.462l24.949,26.612-49.9,53.224-24.949-26.612Z" transform="translate(-113.421 -187.923)" fill="none" stroke="#fff" stroke-miterlimit="10" stroke-width="2"/><path d="M313.768,561.462l24.949,26.612-49.9,53.224-24.949-26.612Z" transform="translate(-88.319 -187.923)" fill="none" stroke="#fff" stroke-miterlimit="10" stroke-width="2"/><path d="M238.768,561.462l24.949,26.612-49.9,53.224-24.949-26.612Z" transform="translate(-63.216 -187.923)" fill="none" stroke="#fff" stroke-miterlimit="10" stroke-width="2"/><path d="M163.768,561.462l24.949,26.612-49.9,53.224-24.949-26.612Z" transform="translate(-38.113 -187.923)" fill="none" stroke="#fff" stroke-miterlimit="10" stroke-width="2"/><path d="M88.768,561.462l24.949,26.612L63.819,641.3,38.871,614.686Z" transform="translate(-13.01 -187.923)" fill="none" stroke="#fff" stroke-miterlimit="10" stroke-width="2"/><path d="M101.319,641.462,76.371,668.074l49.9,53.224,24.949-26.612Z" transform="translate(-25.562 -214.7)" fill="none" stroke="#fff" stroke-miterlimit="10" stroke-width="2"/><g clip-path="url(#c)"><path d="M26.319,641.462,1.371,668.074l49.9,53.224,24.949-26.612Z" transform="translate(-0.459 -214.7)" fill="none" stroke="#fff" stroke-miterlimit="10" stroke-width="2"/></g><path d="M176.319,641.462l-24.949,26.612,49.9,53.224,24.949-26.612Z" transform="translate(-50.664 -214.7)" fill="none" stroke="#fff" stroke-miterlimit="10" stroke-width="2"/><path d="M251.319,641.462l-24.949,26.612,49.9,53.224,24.949-26.612Z" transform="translate(-75.767 -214.7)" fill="none" stroke="#fff" stroke-miterlimit="10" stroke-width="2"/><path d="M326.319,641.462l-24.949,26.612,49.9,53.224,24.949-26.612Z" transform="translate(-100.87 -214.7)" fill="none" stroke="#fff" stroke-miterlimit="10" stroke-width="2"/><g clip-path="url(#c)"><path d="M401.319,641.462l-24.949,26.612,49.9,53.224,24.949-26.612Z" transform="translate(-125.973 -214.7)" fill="none" stroke="#fff" stroke-miterlimit="10" stroke-width="2"/><path d="M388.768,721.462l24.949,26.612-49.9,53.224-24.949-26.612Z" transform="translate(-113.421 -241.476)" fill="none" stroke="#fff" stroke-miterlimit="10" stroke-width="2"/><path d="M313.768,721.462l24.949,26.612-49.9,53.224-24.949-26.612Z" transform="translate(-88.319 -241.476)" fill="none" stroke="#fff" stroke-miterlimit="10" stroke-width="2"/><path d="M238.768,721.462l24.949,26.612-49.9,53.224-24.949-26.612Z" transform="translate(-63.216 -241.476)" fill="none" stroke="#fff" stroke-miterlimit="10" stroke-width="2"/><path d="M163.768,721.462l24.949,26.612-49.9,53.224-24.949-26.612Z" transform="translate(-38.113 -241.476)" fill="none" stroke="#fff" stroke-miterlimit="10" stroke-width="2"/><path d="M88.768,721.462l24.949,26.612L63.819,801.3,38.871,774.686Z" transform="translate(-13.01 -241.476)" fill="none" stroke="#fff" stroke-miterlimit="10" stroke-width="2"/></g></g><g transform="translate(1250)"><g clip-path="url(#c)"><path d="M101.319,1.462,76.371,28.074l49.9,53.224,24.949-26.612Z" transform="translate(-25.562 -0.489)" fill="none" stroke="#fff" stroke-miterlimit="10" stroke-width="2"/><path d="M26.319,1.462,1.371,28.074,51.268,81.3,76.217,54.685Z" transform="translate(-0.459 -0.489)" fill="none" stroke="#fff" stroke-miterlimit="10" stroke-width="2"/><path d="M176.319,1.462,151.371,28.074l49.9,53.224,24.949-26.612Z" transform="translate(-50.664 -0.489)" fill="none" stroke="#fff" stroke-miterlimit="10" stroke-width="2"/><path d="M251.319,1.462,226.371,28.074l49.9,53.224,24.949-26.612Z" transform="translate(-75.767 -0.489)" fill="none" stroke="#fff" stroke-miterlimit="10" stroke-width="2"/><path d="M326.319,1.462,301.371,28.074l49.9,53.224,24.949-26.612Z" transform="translate(-100.87 -0.489)" fill="none" stroke="#fff" stroke-miterlimit="10" stroke-width="2"/><path d="M401.319,1.462,376.371,28.074l49.9,53.224,24.949-26.612Z" transform="translate(-125.973 -0.489)" fill="none" stroke="#fff" stroke-miterlimit="10" stroke-width="2"/></g><path d="M388.768,81.462l24.949,26.612-49.9,53.224-24.949-26.612Z" transform="translate(-113.421 -27.266)" fill="none" stroke="#fff" stroke-miterlimit="10" stroke-width="2"/><path d="M313.768,81.462l24.949,26.612-49.9,53.224-24.949-26.612Z" transform="translate(-88.319 -27.266)" fill="none" stroke="#fff" stroke-miterlimit="10" stroke-width="2"/><path d="M238.768,81.462l24.949,26.612-49.9,53.224-24.949-26.612Z" transform="translate(-63.216 -27.266)" fill="none" stroke="#fff" stroke-miterlimit="10" stroke-width="2"/><path d="M163.768,81.462l24.949,26.612-49.9,53.224-24.949-26.612Z" transform="translate(-38.113 -27.266)" fill="none" stroke="#fff" stroke-miterlimit="10" stroke-width="2"/><path d="M88.768,81.462l24.949,26.612L63.819,161.3,38.871,134.685Z" transform="translate(-13.01 -27.266)" fill="none" stroke="#fff" stroke-miterlimit="10" stroke-width="2"/><path d="M101.319,161.462,76.371,188.074l49.9,53.224,24.949-26.612Z" transform="translate(-25.562 -54.042)" fill="none" stroke="#fff" stroke-miterlimit="10" stroke-width="2"/><g clip-path="url(#c)"><path d="M26.319,161.462,1.371,188.074l49.9,53.224,24.949-26.612Z" transform="translate(-0.459 -54.042)" fill="none" stroke="#fff" stroke-miterlimit="10" stroke-width="2"/></g><path d="M176.319,161.462l-24.949,26.612,49.9,53.224,24.949-26.612Z" transform="translate(-50.664 -54.042)" fill="none" stroke="#fff" stroke-miterlimit="10" stroke-width="2"/><path d="M251.319,161.462l-24.949,26.612,49.9,53.224,24.949-26.612Z" transform="translate(-75.767 -54.042)" fill="none" stroke="#fff" stroke-miterlimit="10" stroke-width="2"/><path d="M326.319,161.462l-24.949,26.612,49.9,53.224,24.949-26.612Z" transform="translate(-100.87 -54.042)" fill="none" stroke="#fff" stroke-miterlimit="10" stroke-width="2"/><g clip-path="url(#c)"><path d="M401.319,161.462l-24.949,26.612,49.9,53.224,24.949-26.612Z" transform="translate(-125.973 -54.042)" fill="none" stroke="#fff" stroke-miterlimit="10" stroke-width="2"/></g><path d="M388.768,241.462l24.949,26.612-49.9,53.224-24.949-26.612Z" transform="translate(-113.421 -80.818)" fill="none" stroke="#fff" stroke-miterlimit="10" stroke-width="2"/><path d="M313.768,241.462l24.949,26.612-49.9,53.224-24.949-26.612Z" transform="translate(-88.319 -80.818)" fill="none" stroke="#fff" stroke-miterlimit="10" stroke-width="2"/><path d="M238.768,241.462l24.949,26.612-49.9,53.224-24.949-26.612Z" transform="translate(-63.216 -80.818)" fill="none" stroke="#fff" stroke-miterlimit="10" stroke-width="2"/><path d="M163.768,241.462l24.949,26.612-49.9,53.224-24.949-26.612Z" transform="translate(-38.113 -80.818)" fill="none" stroke="#fff" stroke-miterlimit="10" stroke-width="2"/><path d="M88.768,241.462l24.949,26.612L63.819,321.3,38.871,294.685Z" transform="translate(-13.01 -80.818)" fill="none" stroke="#fff" stroke-miterlimit="10" stroke-width="2"/><path d="M101.319,321.462,76.371,348.074l49.9,53.224,24.949-26.612Z" transform="translate(-25.562 -107.595)" fill="none" stroke="#fff" stroke-miterlimit="10" stroke-width="2"/><g clip-path="url(#c)"><path d="M26.319,321.462,1.371,348.074l49.9,53.224,24.949-26.612Z" transform="translate(-0.459 -107.595)" fill="none" stroke="#fff" stroke-miterlimit="10" stroke-width="2"/></g><path d="M176.319,321.462l-24.949,26.612,49.9,53.224,24.949-26.612Z" transform="translate(-50.664 -107.595)" fill="none" stroke="#fff" stroke-miterlimit="10" stroke-width="2"/><path d="M251.319,321.462l-24.949,26.612,49.9,53.224,24.949-26.612Z" transform="translate(-75.767 -107.595)" fill="none" stroke="#fff" stroke-miterlimit="10" stroke-width="2"/><path d="M326.319,321.462l-24.949,26.612,49.9,53.224,24.949-26.612Z" transform="translate(-100.87 -107.595)" fill="none" stroke="#fff" stroke-miterlimit="10" stroke-width="2"/><g clip-path="url(#c)"><path d="M401.319,321.462l-24.949,26.612,49.9,53.224,24.949-26.612Z" transform="translate(-125.973 -107.595)" fill="none" stroke="#fff" stroke-miterlimit="10" stroke-width="2"/></g><path d="M388.768,401.462l24.949,26.612-49.9,53.224-24.949-26.612Z" transform="translate(-113.421 -134.371)" fill="none" stroke="#fff" stroke-miterlimit="10" stroke-width="2"/><path d="M313.768,401.462l24.949,26.612-49.9,53.224-24.949-26.612Z" transform="translate(-88.319 -134.371)" fill="none" stroke="#fff" stroke-miterlimit="10" stroke-width="2"/><path d="M238.768,401.462l24.949,26.612-49.9,53.224-24.949-26.612Z" transform="translate(-63.216 -134.371)" fill="none" stroke="#fff" stroke-miterlimit="10" stroke-width="2"/><path d="M163.768,401.462l24.949,26.612-49.9,53.224-24.949-26.612Z" transform="translate(-38.113 -134.371)" fill="none" stroke="#fff" stroke-miterlimit="10" stroke-width="2"/><path d="M88.768,401.462l24.949,26.612L63.819,481.3,38.871,454.686Z" transform="translate(-13.01 -134.371)" fill="none" stroke="#fff" stroke-miterlimit="10" stroke-width="2"/><path d="M101.319,481.462,76.371,508.074l49.9,53.224,24.949-26.612Z" transform="translate(-25.562 -161.147)" fill="none" stroke="#fff" stroke-miterlimit="10" stroke-width="2"/><g clip-path="url(#c)"><path d="M26.319,481.462,1.371,508.074l49.9,53.224,24.949-26.612Z" transform="translate(-0.459 -161.147)" fill="none" stroke="#fff" stroke-miterlimit="10" stroke-width="2"/></g><path d="M176.319,481.462l-24.949,26.612,49.9,53.224,24.949-26.612Z" transform="translate(-50.664 -161.147)" fill="none" stroke="#fff" stroke-miterlimit="10" stroke-width="2"/><path d="M251.319,481.462l-24.949,26.612,49.9,53.224,24.949-26.612Z" transform="translate(-75.767 -161.147)" fill="none" stroke="#fff" stroke-miterlimit="10" stroke-width="2"/><path d="M326.319,481.462l-24.949,26.612,49.9,53.224,24.949-26.612Z" transform="translate(-100.87 -161.147)" fill="none" stroke="#fff" stroke-miterlimit="10" stroke-width="2"/><g clip-path="url(#c)"><path d="M401.319,481.462l-24.949,26.612,49.9,53.224,24.949-26.612Z" transform="translate(-125.973 -161.147)" fill="none" stroke="#fff" stroke-miterlimit="10" stroke-width="2"/></g><path d="M388.768,561.462l24.949,26.612-49.9,53.224-24.949-26.612Z" transform="translate(-113.421 -187.923)" fill="none" stroke="#fff" stroke-miterlimit="10" stroke-width="2"/><path d="M313.768,561.462l24.949,26.612-49.9,53.224-24.949-26.612Z" transform="translate(-88.319 -187.923)" fill="none" stroke="#fff" stroke-miterlimit="10" stroke-width="2"/><path d="M238.768,561.462l24.949,26.612-49.9,53.224-24.949-26.612Z" transform="translate(-63.216 -187.923)" fill="none" stroke="#fff" stroke-miterlimit="10" stroke-width="2"/><path d="M163.768,561.462l24.949,26.612-49.9,53.224-24.949-26.612Z" transform="translate(-38.113 -187.923)" fill="none" stroke="#fff" stroke-miterlimit="10" stroke-width="2"/><path d="M88.768,561.462l24.949,26.612L63.819,641.3,38.871,614.686Z" transform="translate(-13.01 -187.923)" fill="none" stroke="#fff" stroke-miterlimit="10" stroke-width="2"/><path d="M101.319,641.462,76.371,668.074l49.9,53.224,24.949-26.612Z" transform="translate(-25.562 -214.7)" fill="none" stroke="#fff" stroke-miterlimit="10" stroke-width="2"/><g clip-path="url(#c)"><path d="M26.319,641.462,1.371,668.074l49.9,53.224,24.949-26.612Z" transform="translate(-0.459 -214.7)" fill="none" stroke="#fff" stroke-miterlimit="10" stroke-width="2"/></g><path d="M176.319,641.462l-24.949,26.612,49.9,53.224,24.949-26.612Z" transform="translate(-50.664 -214.7)" fill="none" stroke="#fff" stroke-miterlimit="10" stroke-width="2"/><path d="M251.319,641.462l-24.949,26.612,49.9,53.224,24.949-26.612Z" transform="translate(-75.767 -214.7)" fill="none" stroke="#fff" stroke-miterlimit="10" stroke-width="2"/><path d="M326.319,641.462l-24.949,26.612,49.9,53.224,24.949-26.612Z" transform="translate(-100.87 -214.7)" fill="none" stroke="#fff" stroke-miterlimit="10" stroke-width="2"/><g clip-path="url(#c)"><path d="M401.319,641.462l-24.949,26.612,49.9,53.224,24.949-26.612Z" transform="translate(-125.973 -214.7)" fill="none" stroke="#fff" stroke-miterlimit="10" stroke-width="2"/><path d="M388.768,721.462l24.949,26.612-49.9,53.224-24.949-26.612Z" transform="translate(-113.421 -241.476)" fill="none" stroke="#fff" stroke-miterlimit="10" stroke-width="2"/><path d="M313.768,721.462l24.949,26.612-49.9,53.224-24.949-26.612Z" transform="translate(-88.319 -241.476)" fill="none" stroke="#fff" stroke-miterlimit="10" stroke-width="2"/><path d="M238.768,721.462l24.949,26.612-49.9,53.224-24.949-26.612Z" transform="translate(-63.216 -241.476)" fill="none" stroke="#fff" stroke-miterlimit="10" stroke-width="2"/><path d="M163.768,721.462l24.949,26.612-49.9,53.224-24.949-26.612Z" transform="translate(-38.113 -241.476)" fill="none" stroke="#fff" stroke-miterlimit="10" stroke-width="2"/><path d="M88.768,721.462l24.949,26.612L63.819,801.3,38.871,774.686Z" transform="translate(-13.01 -241.476)" fill="none" stroke="#fff" stroke-miterlimit="10" stroke-width="2"/></g></g><g transform="translate(1500)"><g clip-path="url(#c)"><path d="M101.319,1.462,76.371,28.074l49.9,53.224,24.949-26.612Z" transform="translate(-25.562 -0.489)" fill="none" stroke="#fff" stroke-miterlimit="10" stroke-width="2"/><path d="M26.319,1.462,1.371,28.074,51.268,81.3,76.217,54.685Z" transform="translate(-0.459 -0.489)" fill="none" stroke="#fff" stroke-miterlimit="10" stroke-width="2"/><path d="M176.319,1.462,151.371,28.074l49.9,53.224,24.949-26.612Z" transform="translate(-50.664 -0.489)" fill="none" stroke="#fff" stroke-miterlimit="10" stroke-width="2"/><path d="M251.319,1.462,226.371,28.074l49.9,53.224,24.949-26.612Z" transform="translate(-75.767 -0.489)" fill="none" stroke="#fff" stroke-miterlimit="10" stroke-width="2"/><path d="M326.319,1.462,301.371,28.074l49.9,53.224,24.949-26.612Z" transform="translate(-100.87 -0.489)" fill="none" stroke="#fff" stroke-miterlimit="10" stroke-width="2"/><path d="M401.319,1.462,376.371,28.074l49.9,53.224,24.949-26.612Z" transform="translate(-125.973 -0.489)" fill="none" stroke="#fff" stroke-miterlimit="10" stroke-width="2"/></g><path d="M388.768,81.462l24.949,26.612-49.9,53.224-24.949-26.612Z" transform="translate(-113.421 -27.266)" fill="none" stroke="#fff" stroke-miterlimit="10" stroke-width="2"/><path d="M313.768,81.462l24.949,26.612-49.9,53.224-24.949-26.612Z" transform="translate(-88.319 -27.266)" fill="none" stroke="#fff" stroke-miterlimit="10" stroke-width="2"/><path d="M238.768,81.462l24.949,26.612-49.9,53.224-24.949-26.612Z" transform="translate(-63.216 -27.266)" fill="none" stroke="#fff" stroke-miterlimit="10" stroke-width="2"/><path d="M163.768,81.462l24.949,26.612-49.9,53.224-24.949-26.612Z" transform="translate(-38.113 -27.266)" fill="none" stroke="#fff" stroke-miterlimit="10" stroke-width="2"/><path d="M88.768,81.462l24.949,26.612L63.819,161.3,38.871,134.685Z" transform="translate(-13.01 -27.266)" fill="none" stroke="#fff" stroke-miterlimit="10" stroke-width="2"/><path d="M101.319,161.462,76.371,188.074l49.9,53.224,24.949-26.612Z" transform="translate(-25.562 -54.042)" fill="none" stroke="#fff" stroke-miterlimit="10" stroke-width="2"/><g clip-path="url(#c)"><path d="M26.319,161.462,1.371,188.074l49.9,53.224,24.949-26.612Z" transform="translate(-0.459 -54.042)" fill="none" stroke="#fff" stroke-miterlimit="10" stroke-width="2"/></g><path d="M176.319,161.462l-24.949,26.612,49.9,53.224,24.949-26.612Z" transform="translate(-50.664 -54.042)" fill="none" stroke="#fff" stroke-miterlimit="10" stroke-width="2"/><path d="M251.319,161.462l-24.949,26.612,49.9,53.224,24.949-26.612Z" transform="translate(-75.767 -54.042)" fill="none" stroke="#fff" stroke-miterlimit="10" stroke-width="2"/><path d="M326.319,161.462l-24.949,26.612,49.9,53.224,24.949-26.612Z" transform="translate(-100.87 -54.042)" fill="none" stroke="#fff" stroke-miterlimit="10" stroke-width="2"/><g clip-path="url(#c)"><path d="M401.319,161.462l-24.949,26.612,49.9,53.224,24.949-26.612Z" transform="translate(-125.973 -54.042)" fill="none" stroke="#fff" stroke-miterlimit="10" stroke-width="2"/></g><path d="M388.768,241.462l24.949,26.612-49.9,53.224-24.949-26.612Z" transform="translate(-113.421 -80.818)" fill="none" stroke="#fff" stroke-miterlimit="10" stroke-width="2"/><path d="M313.768,241.462l24.949,26.612-49.9,53.224-24.949-26.612Z" transform="translate(-88.319 -80.818)" fill="none" stroke="#fff" stroke-miterlimit="10" stroke-width="2"/><path d="M238.768,241.462l24.949,26.612-49.9,53.224-24.949-26.612Z" transform="translate(-63.216 -80.818)" fill="none" stroke="#fff" stroke-miterlimit="10" stroke-width="2"/><path d="M163.768,241.462l24.949,26.612-49.9,53.224-24.949-26.612Z" transform="translate(-38.113 -80.818)" fill="none" stroke="#fff" stroke-miterlimit="10" stroke-width="2"/><path d="M88.768,241.462l24.949,26.612L63.819,321.3,38.871,294.685Z" transform="translate(-13.01 -80.818)" fill="none" stroke="#fff" stroke-miterlimit="10" stroke-width="2"/><path d="M101.319,321.462,76.371,348.074l49.9,53.224,24.949-26.612Z" transform="translate(-25.562 -107.595)" fill="none" stroke="#fff" stroke-miterlimit="10" stroke-width="2"/><g clip-path="url(#c)"><path d="M26.319,321.462,1.371,348.074l49.9,53.224,24.949-26.612Z" transform="translate(-0.459 -107.595)" fill="none" stroke="#fff" stroke-miterlimit="10" stroke-width="2"/></g><path d="M176.319,321.462l-24.949,26.612,49.9,53.224,24.949-26.612Z" transform="translate(-50.664 -107.595)" fill="none" stroke="#fff" stroke-miterlimit="10" stroke-width="2"/><path d="M251.319,321.462l-24.949,26.612,49.9,53.224,24.949-26.612Z" transform="translate(-75.767 -107.595)" fill="none" stroke="#fff" stroke-miterlimit="10" stroke-width="2"/><path d="M326.319,321.462l-24.949,26.612,49.9,53.224,24.949-26.612Z" transform="translate(-100.87 -107.595)" fill="none" stroke="#fff" stroke-miterlimit="10" stroke-width="2"/><g clip-path="url(#c)"><path d="M401.319,321.462l-24.949,26.612,49.9,53.224,24.949-26.612Z" transform="translate(-125.973 -107.595)" fill="none" stroke="#fff" stroke-miterlimit="10" stroke-width="2"/></g><path d="M388.768,401.462l24.949,26.612-49.9,53.224-24.949-26.612Z" transform="translate(-113.421 -134.371)" fill="none" stroke="#fff" stroke-miterlimit="10" stroke-width="2"/><path d="M313.768,401.462l24.949,26.612-49.9,53.224-24.949-26.612Z" transform="translate(-88.319 -134.371)" fill="none" stroke="#fff" stroke-miterlimit="10" stroke-width="2"/><path d="M238.768,401.462l24.949,26.612-49.9,53.224-24.949-26.612Z" transform="translate(-63.216 -134.371)" fill="none" stroke="#fff" stroke-miterlimit="10" stroke-width="2"/><path d="M163.768,401.462l24.949,26.612-49.9,53.224-24.949-26.612Z" transform="translate(-38.113 -134.371)" fill="none" stroke="#fff" stroke-miterlimit="10" stroke-width="2"/><path d="M88.768,401.462l24.949,26.612L63.819,481.3,38.871,454.686Z" transform="translate(-13.01 -134.371)" fill="none" stroke="#fff" stroke-miterlimit="10" stroke-width="2"/><path d="M101.319,481.462,76.371,508.074l49.9,53.224,24.949-26.612Z" transform="translate(-25.562 -161.147)" fill="none" stroke="#fff" stroke-miterlimit="10" stroke-width="2"/><g clip-path="url(#c)"><path d="M26.319,481.462,1.371,508.074l49.9,53.224,24.949-26.612Z" transform="translate(-0.459 -161.147)" fill="none" stroke="#fff" stroke-miterlimit="10" stroke-width="2"/></g><path d="M176.319,481.462l-24.949,26.612,49.9,53.224,24.949-26.612Z" transform="translate(-50.664 -161.147)" fill="none" stroke="#fff" stroke-miterlimit="10" stroke-width="2"/><path d="M251.319,481.462l-24.949,26.612,49.9,53.224,24.949-26.612Z" transform="translate(-75.767 -161.147)" fill="none" stroke="#fff" stroke-miterlimit="10" stroke-width="2"/><path d="M326.319,481.462l-24.949,26.612,49.9,53.224,24.949-26.612Z" transform="translate(-100.87 -161.147)" fill="none" stroke="#fff" stroke-miterlimit="10" stroke-width="2"/><g clip-path="url(#c)"><path d="M401.319,481.462l-24.949,26.612,49.9,53.224,24.949-26.612Z" transform="translate(-125.973 -161.147)" fill="none" stroke="#fff" stroke-miterlimit="10" stroke-width="2"/></g><path d="M388.768,561.462l24.949,26.612-49.9,53.224-24.949-26.612Z" transform="translate(-113.421 -187.923)" fill="none" stroke="#fff" stroke-miterlimit="10" stroke-width="2"/><path d="M313.768,561.462l24.949,26.612-49.9,53.224-24.949-26.612Z" transform="translate(-88.319 -187.923)" fill="none" stroke="#fff" stroke-miterlimit="10" stroke-width="2"/><path d="M238.768,561.462l24.949,26.612-49.9,53.224-24.949-26.612Z" transform="translate(-63.216 -187.923)" fill="none" stroke="#fff" stroke-miterlimit="10" stroke-width="2"/><path d="M163.768,561.462l24.949,26.612-49.9,53.224-24.949-26.612Z" transform="translate(-38.113 -187.923)" fill="none" stroke="#fff" stroke-miterlimit="10" stroke-width="2"/><path d="M88.768,561.462l24.949,26.612L63.819,641.3,38.871,614.686Z" transform="translate(-13.01 -187.923)" fill="none" stroke="#fff" stroke-miterlimit="10" stroke-width="2"/><path d="M101.319,641.462,76.371,668.074l49.9,53.224,24.949-26.612Z" transform="translate(-25.562 -214.7)" fill="none" stroke="#fff" stroke-miterlimit="10" stroke-width="2"/><g clip-path="url(#c)"><path d="M26.319,641.462,1.371,668.074l49.9,53.224,24.949-26.612Z" transform="translate(-0.459 -214.7)" fill="none" stroke="#fff" stroke-miterlimit="10" stroke-width="2"/></g><path d="M176.319,641.462l-24.949,26.612,49.9,53.224,24.949-26.612Z" transform="translate(-50.664 -214.7)" fill="none" stroke="#fff" stroke-miterlimit="10" stroke-width="2"/><path d="M251.319,641.462l-24.949,26.612,49.9,53.224,24.949-26.612Z" transform="translate(-75.767 -214.7)" fill="none" stroke="#fff" stroke-miterlimit="10" stroke-width="2"/><path d="M326.319,641.462l-24.949,26.612,49.9,53.224,24.949-26.612Z" transform="translate(-100.87 -214.7)" fill="none" stroke="#fff" stroke-miterlimit="10" stroke-width="2"/><g clip-path="url(#c)"><path d="M401.319,641.462l-24.949,26.612,49.9,53.224,24.949-26.612Z" transform="translate(-125.973 -214.7)" fill="none" stroke="#fff" stroke-miterlimit="10" stroke-width="2"/><path d="M388.768,721.462l24.949,26.612-49.9,53.224-24.949-26.612Z" transform="translate(-113.421 -241.476)" fill="none" stroke="#fff" stroke-miterlimit="10" stroke-width="2"/><path d="M313.768,721.462l24.949,26.612-49.9,53.224-24.949-26.612Z" transform="translate(-88.319 -241.476)" fill="none" stroke="#fff" stroke-miterlimit="10" stroke-width="2"/><path d="M238.768,721.462l24.949,26.612-49.9,53.224-24.949-26.612Z" transform="translate(-63.216 -241.476)" fill="none" stroke="#fff" stroke-miterlimit="10" stroke-width="2"/><path d="M163.768,721.462l24.949,26.612-49.9,53.224-24.949-26.612Z" transform="translate(-38.113 -241.476)" fill="none" stroke="#fff" stroke-miterlimit="10" stroke-width="2"/><path d="M88.768,721.462l24.949,26.612L63.819,801.3,38.871,774.686Z" transform="translate(-13.01 -241.476)" fill="none" stroke="#fff" stroke-miterlimit="10" stroke-width="2"/></g></g><g transform="translate(1750)"><g clip-path="url(#c)"><path d="M101.319,1.462,76.371,28.074l49.9,53.224,24.949-26.612Z" transform="translate(-25.562 -0.489)" fill="none" stroke="#fff" stroke-miterlimit="10" stroke-width="2"/><path d="M26.319,1.462,1.371,28.074,51.268,81.3,76.217,54.685Z" transform="translate(-0.459 -0.489)" fill="none" stroke="#fff" stroke-miterlimit="10" stroke-width="2"/><path d="M176.319,1.462,151.371,28.074l49.9,53.224,24.949-26.612Z" transform="translate(-50.664 -0.489)" fill="none" stroke="#fff" stroke-miterlimit="10" stroke-width="2"/><path d="M251.319,1.462,226.371,28.074l49.9,53.224,24.949-26.612Z" transform="translate(-75.767 -0.489)" fill="none" stroke="#fff" stroke-miterlimit="10" stroke-width="2"/><path d="M326.319,1.462,301.371,28.074l49.9,53.224,24.949-26.612Z" transform="translate(-100.87 -0.489)" fill="none" stroke="#fff" stroke-miterlimit="10" stroke-width="2"/><path d="M401.319,1.462,376.371,28.074l49.9,53.224,24.949-26.612Z" transform="translate(-125.973 -0.489)" fill="none" stroke="#fff" stroke-miterlimit="10" stroke-width="2"/></g><path d="M388.768,81.462l24.949,26.612-49.9,53.224-24.949-26.612Z" transform="translate(-113.421 -27.266)" fill="none" stroke="#fff" stroke-miterlimit="10" stroke-width="2"/><path d="M313.768,81.462l24.949,26.612-49.9,53.224-24.949-26.612Z" transform="translate(-88.319 -27.266)" fill="none" stroke="#fff" stroke-miterlimit="10" stroke-width="2"/><path d="M238.768,81.462l24.949,26.612-49.9,53.224-24.949-26.612Z" transform="translate(-63.216 -27.266)" fill="none" stroke="#fff" stroke-miterlimit="10" stroke-width="2"/><path d="M163.768,81.462l24.949,26.612-49.9,53.224-24.949-26.612Z" transform="translate(-38.113 -27.266)" fill="none" stroke="#fff" stroke-miterlimit="10" stroke-width="2"/><path d="M88.768,81.462l24.949,26.612L63.819,161.3,38.871,134.685Z" transform="translate(-13.01 -27.266)" fill="none" stroke="#fff" stroke-miterlimit="10" stroke-width="2"/><path d="M101.319,161.462,76.371,188.074l49.9,53.224,24.949-26.612Z" transform="translate(-25.562 -54.042)" fill="none" stroke="#fff" stroke-miterlimit="10" stroke-width="2"/><g clip-path="url(#c)"><path d="M26.319,161.462,1.371,188.074l49.9,53.224,24.949-26.612Z" transform="translate(-0.459 -54.042)" fill="none" stroke="#fff" stroke-miterlimit="10" stroke-width="2"/></g><path d="M176.319,161.462l-24.949,26.612,49.9,53.224,24.949-26.612Z" transform="translate(-50.664 -54.042)" fill="none" stroke="#fff" stroke-miterlimit="10" stroke-width="2"/><path d="M251.319,161.462l-24.949,26.612,49.9,53.224,24.949-26.612Z" transform="translate(-75.767 -54.042)" fill="none" stroke="#fff" stroke-miterlimit="10" stroke-width="2"/><path d="M326.319,161.462l-24.949,26.612,49.9,53.224,24.949-26.612Z" transform="translate(-100.87 -54.042)" fill="none" stroke="#fff" stroke-miterlimit="10" stroke-width="2"/><g clip-path="url(#c)"><path d="M401.319,161.462l-24.949,26.612,49.9,53.224,24.949-26.612Z" transform="translate(-125.973 -54.042)" fill="none" stroke="#fff" stroke-miterlimit="10" stroke-width="2"/></g><path d="M388.768,241.462l24.949,26.612-49.9,53.224-24.949-26.612Z" transform="translate(-113.421 -80.818)" fill="none" stroke="#fff" stroke-miterlimit="10" stroke-width="2"/><path d="M313.768,241.462l24.949,26.612-49.9,53.224-24.949-26.612Z" transform="translate(-88.319 -80.818)" fill="none" stroke="#fff" stroke-miterlimit="10" stroke-width="2"/><path d="M238.768,241.462l24.949,26.612-49.9,53.224-24.949-26.612Z" transform="translate(-63.216 -80.818)" fill="none" stroke="#fff" stroke-miterlimit="10" stroke-width="2"/><path d="M163.768,241.462l24.949,26.612-49.9,53.224-24.949-26.612Z" transform="translate(-38.113 -80.818)" fill="none" stroke="#fff" stroke-miterlimit="10" stroke-width="2"/><path d="M88.768,241.462l24.949,26.612L63.819,321.3,38.871,294.685Z" transform="translate(-13.01 -80.818)" fill="none" stroke="#fff" stroke-miterlimit="10" stroke-width="2"/><path d="M101.319,321.462,76.371,348.074l49.9,53.224,24.949-26.612Z" transform="translate(-25.562 -107.595)" fill="none" stroke="#fff" stroke-miterlimit="10" stroke-width="2"/><g clip-path="url(#c)"><path d="M26.319,321.462,1.371,348.074l49.9,53.224,24.949-26.612Z" transform="translate(-0.459 -107.595)" fill="none" stroke="#fff" stroke-miterlimit="10" stroke-width="2"/></g><path d="M176.319,321.462l-24.949,26.612,49.9,53.224,24.949-26.612Z" transform="translate(-50.664 -107.595)" fill="none" stroke="#fff" stroke-miterlimit="10" stroke-width="2"/><path d="M251.319,321.462l-24.949,26.612,49.9,53.224,24.949-26.612Z" transform="translate(-75.767 -107.595)" fill="none" stroke="#fff" stroke-miterlimit="10" stroke-width="2"/><path d="M326.319,321.462l-24.949,26.612,49.9,53.224,24.949-26.612Z" transform="translate(-100.87 -107.595)" fill="none" stroke="#fff" stroke-miterlimit="10" stroke-width="2"/><g clip-path="url(#c)"><path d="M401.319,321.462l-24.949,26.612,49.9,53.224,24.949-26.612Z" transform="translate(-125.973 -107.595)" fill="none" stroke="#fff" stroke-miterlimit="10" stroke-width="2"/></g><path d="M388.768,401.462l24.949,26.612-49.9,53.224-24.949-26.612Z" transform="translate(-113.421 -134.371)" fill="none" stroke="#fff" stroke-miterlimit="10" stroke-width="2"/><path d="M313.768,401.462l24.949,26.612-49.9,53.224-24.949-26.612Z" transform="translate(-88.319 -134.371)" fill="none" stroke="#fff" stroke-miterlimit="10" stroke-width="2"/><path d="M238.768,401.462l24.949,26.612-49.9,53.224-24.949-26.612Z" transform="translate(-63.216 -134.371)" fill="none" stroke="#fff" stroke-miterlimit="10" stroke-width="2"/><path d="M163.768,401.462l24.949,26.612-49.9,53.224-24.949-26.612Z" transform="translate(-38.113 -134.371)" fill="none" stroke="#fff" stroke-miterlimit="10" stroke-width="2"/><path d="M88.768,401.462l24.949,26.612L63.819,481.3,38.871,454.686Z" transform="translate(-13.01 -134.371)" fill="none" stroke="#fff" stroke-miterlimit="10" stroke-width="2"/><path d="M101.319,481.462,76.371,508.074l49.9,53.224,24.949-26.612Z" transform="translate(-25.562 -161.147)" fill="none" stroke="#fff" stroke-miterlimit="10" stroke-width="2"/><g clip-path="url(#c)"><path d="M26.319,481.462,1.371,508.074l49.9,53.224,24.949-26.612Z" transform="translate(-0.459 -161.147)" fill="none" stroke="#fff" stroke-miterlimit="10" stroke-width="2"/></g><path d="M176.319,481.462l-24.949,26.612,49.9,53.224,24.949-26.612Z" transform="translate(-50.664 -161.147)" fill="none" stroke="#fff" stroke-miterlimit="10" stroke-width="2"/><path d="M251.319,481.462l-24.949,26.612,49.9,53.224,24.949-26.612Z" transform="translate(-75.767 -161.147)" fill="none" stroke="#fff" stroke-miterlimit="10" stroke-width="2"/><path d="M326.319,481.462l-24.949,26.612,49.9,53.224,24.949-26.612Z" transform="translate(-100.87 -161.147)" fill="none" stroke="#fff" stroke-miterlimit="10" stroke-width="2"/><g clip-path="url(#c)"><path d="M401.319,481.462l-24.949,26.612,49.9,53.224,24.949-26.612Z" transform="translate(-125.973 -161.147)" fill="none" stroke="#fff" stroke-miterlimit="10" stroke-width="2"/></g><path d="M388.768,561.462l24.949,26.612-49.9,53.224-24.949-26.612Z" transform="translate(-113.421 -187.923)" fill="none" stroke="#fff" stroke-miterlimit="10" stroke-width="2"/><path d="M313.768,561.462l24.949,26.612-49.9,53.224-24.949-26.612Z" transform="translate(-88.319 -187.923)" fill="none" stroke="#fff" stroke-miterlimit="10" stroke-width="2"/><path d="M238.768,561.462l24.949,26.612-49.9,53.224-24.949-26.612Z" transform="translate(-63.216 -187.923)" fill="none" stroke="#fff" stroke-miterlimit="10" stroke-width="2"/><path d="M163.768,561.462l24.949,26.612-49.9,53.224-24.949-26.612Z" transform="translate(-38.113 -187.923)" fill="none" stroke="#fff" stroke-miterlimit="10" stroke-width="2"/><path d="M88.768,561.462l24.949,26.612L63.819,641.3,38.871,614.686Z" transform="translate(-13.01 -187.923)" fill="none" stroke="#fff" stroke-miterlimit="10" stroke-width="2"/><path d="M101.319,641.462,76.371,668.074l49.9,53.224,24.949-26.612Z" transform="translate(-25.562 -214.7)" fill="none" stroke="#fff" stroke-miterlimit="10" stroke-width="2"/><g clip-path="url(#c)"><path d="M26.319,641.462,1.371,668.074l49.9,53.224,24.949-26.612Z" transform="translate(-0.459 -214.7)" fill="none" stroke="#fff" stroke-miterlimit="10" stroke-width="2"/></g><path d="M176.319,641.462l-24.949,26.612,49.9,53.224,24.949-26.612Z" transform="translate(-50.664 -214.7)" fill="none" stroke="#fff" stroke-miterlimit="10" stroke-width="2"/><path d="M251.319,641.462l-24.949,26.612,49.9,53.224,24.949-26.612Z" transform="translate(-75.767 -214.7)" fill="none" stroke="#fff" stroke-miterlimit="10" stroke-width="2"/><path d="M326.319,641.462l-24.949,26.612,49.9,53.224,24.949-26.612Z" transform="translate(-100.87 -214.7)" fill="none" stroke="#fff" stroke-miterlimit="10" stroke-width="2"/><g clip-path="url(#c)"><path d="M401.319,641.462l-24.949,26.612,49.9,53.224,24.949-26.612Z" transform="translate(-125.973 -214.7)" fill="none" stroke="#fff" stroke-miterlimit="10" stroke-width="2"/><path d="M388.768,721.462l24.949,26.612-49.9,53.224-24.949-26.612Z" transform="translate(-113.421 -241.476)" fill="none" stroke="#fff" stroke-miterlimit="10" stroke-width="2"/><path d="M313.768,721.462l24.949,26.612-49.9,53.224-24.949-26.612Z" transform="translate(-88.319 -241.476)" fill="none" stroke="#fff" stroke-miterlimit="10" stroke-width="2"/><path d="M238.768,721.462l24.949,26.612-49.9,53.224-24.949-26.612Z" transform="translate(-63.216 -241.476)" fill="none" stroke="#fff" stroke-miterlimit="10" stroke-width="2"/><path d="M163.768,721.462l24.949,26.612-49.9,53.224-24.949-26.612Z" transform="translate(-38.113 -241.476)" fill="none" stroke="#fff" stroke-miterlimit="10" stroke-width="2"/><path d="M88.768,721.462l24.949,26.612L63.819,801.3,38.871,774.686Z" transform="translate(-13.01 -241.476)" fill="none" stroke="#fff" stroke-miterlimit="10" stroke-width="2"/></g></g><g transform="translate(2000)"><g clip-path="url(#c)"><path d="M101.319,1.462,76.371,28.074l49.9,53.224,24.949-26.612Z" transform="translate(-25.562 -0.489)" fill="none" stroke="#fff" stroke-miterlimit="10" stroke-width="2"/><path d="M26.319,1.462,1.371,28.074,51.268,81.3,76.217,54.685Z" transform="translate(-0.459 -0.489)" fill="none" stroke="#fff" stroke-miterlimit="10" stroke-width="2"/><path d="M176.319,1.462,151.371,28.074l49.9,53.224,24.949-26.612Z" transform="translate(-50.664 -0.489)" fill="none" stroke="#fff" stroke-miterlimit="10" stroke-width="2"/><path d="M251.319,1.462,226.371,28.074l49.9,53.224,24.949-26.612Z" transform="translate(-75.767 -0.489)" fill="none" stroke="#fff" stroke-miterlimit="10" stroke-width="2"/><path d="M326.319,1.462,301.371,28.074l49.9,53.224,24.949-26.612Z" transform="translate(-100.87 -0.489)" fill="none" stroke="#fff" stroke-miterlimit="10" stroke-width="2"/><path d="M401.319,1.462,376.371,28.074l49.9,53.224,24.949-26.612Z" transform="translate(-125.973 -0.489)" fill="none" stroke="#fff" stroke-miterlimit="10" stroke-width="2"/></g><path d="M388.768,81.462l24.949,26.612-49.9,53.224-24.949-26.612Z" transform="translate(-113.421 -27.266)" fill="none" stroke="#fff" stroke-miterlimit="10" stroke-width="2"/><path d="M313.768,81.462l24.949,26.612-49.9,53.224-24.949-26.612Z" transform="translate(-88.319 -27.266)" fill="none" stroke="#fff" stroke-miterlimit="10" stroke-width="2"/><path d="M238.768,81.462l24.949,26.612-49.9,53.224-24.949-26.612Z" transform="translate(-63.216 -27.266)" fill="none" stroke="#fff" stroke-miterlimit="10" stroke-width="2"/><path d="M163.768,81.462l24.949,26.612-49.9,53.224-24.949-26.612Z" transform="translate(-38.113 -27.266)" fill="none" stroke="#fff" stroke-miterlimit="10" stroke-width="2"/><path d="M88.768,81.462l24.949,26.612L63.819,161.3,38.871,134.685Z" transform="translate(-13.01 -27.266)" fill="none" stroke="#fff" stroke-miterlimit="10" stroke-width="2"/><path d="M101.319,161.462,76.371,188.074l49.9,53.224,24.949-26.612Z" transform="translate(-25.562 -54.042)" fill="none" stroke="#fff" stroke-miterlimit="10" stroke-width="2"/><g clip-path="url(#c)"><path d="M26.319,161.462,1.371,188.074l49.9,53.224,24.949-26.612Z" transform="translate(-0.459 -54.042)" fill="none" stroke="#fff" stroke-miterlimit="10" stroke-width="2"/></g><path d="M176.319,161.462l-24.949,26.612,49.9,53.224,24.949-26.612Z" transform="translate(-50.664 -54.042)" fill="none" stroke="#fff" stroke-miterlimit="10" stroke-width="2"/><path d="M251.319,161.462l-24.949,26.612,49.9,53.224,24.949-26.612Z" transform="translate(-75.767 -54.042)" fill="none" stroke="#fff" stroke-miterlimit="10" stroke-width="2"/><path d="M326.319,161.462l-24.949,26.612,49.9,53.224,24.949-26.612Z" transform="translate(-100.87 -54.042)" fill="none" stroke="#fff" stroke-miterlimit="10" stroke-width="2"/><g clip-path="url(#c)"><path d="M401.319,161.462l-24.949,26.612,49.9,53.224,24.949-26.612Z" transform="translate(-125.973 -54.042)" fill="none" stroke="#fff" stroke-miterlimit="10" stroke-width="2"/></g><path d="M388.768,241.462l24.949,26.612-49.9,53.224-24.949-26.612Z" transform="translate(-113.421 -80.818)" fill="none" stroke="#fff" stroke-miterlimit="10" stroke-width="2"/><path d="M313.768,241.462l24.949,26.612-49.9,53.224-24.949-26.612Z" transform="translate(-88.319 -80.818)" fill="none" stroke="#fff" stroke-miterlimit="10" stroke-width="2"/><path d="M238.768,241.462l24.949,26.612-49.9,53.224-24.949-26.612Z" transform="translate(-63.216 -80.818)" fill="none" stroke="#fff" stroke-miterlimit="10" stroke-width="2"/><path d="M163.768,241.462l24.949,26.612-49.9,53.224-24.949-26.612Z" transform="translate(-38.113 -80.818)" fill="none" stroke="#fff" stroke-miterlimit="10" stroke-width="2"/><path d="M88.768,241.462l24.949,26.612L63.819,321.3,38.871,294.685Z" transform="translate(-13.01 -80.818)" fill="none" stroke="#fff" stroke-miterlimit="10" stroke-width="2"/><path d="M101.319,321.462,76.371,348.074l49.9,53.224,24.949-26.612Z" transform="translate(-25.562 -107.595)" fill="none" stroke="#fff" stroke-miterlimit="10" stroke-width="2"/><g clip-path="url(#c)"><path d="M26.319,321.462,1.371,348.074l49.9,53.224,24.949-26.612Z" transform="translate(-0.459 -107.595)" fill="none" stroke="#fff" stroke-miterlimit="10" stroke-width="2"/></g><path d="M176.319,321.462l-24.949,26.612,49.9,53.224,24.949-26.612Z" transform="translate(-50.664 -107.595)" fill="none" stroke="#fff" stroke-miterlimit="10" stroke-width="2"/><path d="M251.319,321.462l-24.949,26.612,49.9,53.224,24.949-26.612Z" transform="translate(-75.767 -107.595)" fill="none" stroke="#fff" stroke-miterlimit="10" stroke-width="2"/><path d="M326.319,321.462l-24.949,26.612,49.9,53.224,24.949-26.612Z" transform="translate(-100.87 -107.595)" fill="none" stroke="#fff" stroke-miterlimit="10" stroke-width="2"/><g clip-path="url(#c)"><path d="M401.319,321.462l-24.949,26.612,49.9,53.224,24.949-26.612Z" transform="translate(-125.973 -107.595)" fill="none" stroke="#fff" stroke-miterlimit="10" stroke-width="2"/></g><path d="M388.768,401.462l24.949,26.612-49.9,53.224-24.949-26.612Z" transform="translate(-113.421 -134.371)" fill="none" stroke="#fff" stroke-miterlimit="10" stroke-width="2"/><path d="M313.768,401.462l24.949,26.612-49.9,53.224-24.949-26.612Z" transform="translate(-88.319 -134.371)" fill="none" stroke="#fff" stroke-miterlimit="10" stroke-width="2"/><path d="M238.768,401.462l24.949,26.612-49.9,53.224-24.949-26.612Z" transform="translate(-63.216 -134.371)" fill="none" stroke="#fff" stroke-miterlimit="10" stroke-width="2"/><path d="M163.768,401.462l24.949,26.612-49.9,53.224-24.949-26.612Z" transform="translate(-38.113 -134.371)" fill="none" stroke="#fff" stroke-miterlimit="10" stroke-width="2"/><path d="M88.768,401.462l24.949,26.612L63.819,481.3,38.871,454.686Z" transform="translate(-13.01 -134.371)" fill="none" stroke="#fff" stroke-miterlimit="10" stroke-width="2"/><path d="M101.319,481.462,76.371,508.074l49.9,53.224,24.949-26.612Z" transform="translate(-25.562 -161.147)" fill="none" stroke="#fff" stroke-miterlimit="10" stroke-width="2"/><g clip-path="url(#c)"><path d="M26.319,481.462,1.371,508.074l49.9,53.224,24.949-26.612Z" transform="translate(-0.459 -161.147)" fill="none" stroke="#fff" stroke-miterlimit="10" stroke-width="2"/></g><path d="M176.319,481.462l-24.949,26.612,49.9,53.224,24.949-26.612Z" transform="translate(-50.664 -161.147)" fill="none" stroke="#fff" stroke-miterlimit="10" stroke-width="2"/><path d="M251.319,481.462l-24.949,26.612,49.9,53.224,24.949-26.612Z" transform="translate(-75.767 -161.147)" fill="none" stroke="#fff" stroke-miterlimit="10" stroke-width="2"/><path d="M326.319,481.462l-24.949,26.612,49.9,53.224,24.949-26.612Z" transform="translate(-100.87 -161.147)" fill="none" stroke="#fff" stroke-miterlimit="10" stroke-width="2"/><g clip-path="url(#c)"><path d="M401.319,481.462l-24.949,26.612,49.9,53.224,24.949-26.612Z" transform="translate(-125.973 -161.147)" fill="none" stroke="#fff" stroke-miterlimit="10" stroke-width="2"/></g><path d="M388.768,561.462l24.949,26.612-49.9,53.224-24.949-26.612Z" transform="translate(-113.421 -187.923)" fill="none" stroke="#fff" stroke-miterlimit="10" stroke-width="2"/><path d="M313.768,561.462l24.949,26.612-49.9,53.224-24.949-26.612Z" transform="translate(-88.319 -187.923)" fill="none" stroke="#fff" stroke-miterlimit="10" stroke-width="2"/><path d="M238.768,561.462l24.949,26.612-49.9,53.224-24.949-26.612Z" transform="translate(-63.216 -187.923)" fill="none" stroke="#fff" stroke-miterlimit="10" stroke-width="2"/><path d="M163.768,561.462l24.949,26.612-49.9,53.224-24.949-26.612Z" transform="translate(-38.113 -187.923)" fill="none" stroke="#fff" stroke-miterlimit="10" stroke-width="2"/><path d="M88.768,561.462l24.949,26.612L63.819,641.3,38.871,614.686Z" transform="translate(-13.01 -187.923)" fill="none" stroke="#fff" stroke-miterlimit="10" stroke-width="2"/><path d="M101.319,641.462,76.371,668.074l49.9,53.224,24.949-26.612Z" transform="translate(-25.562 -214.7)" fill="none" stroke="#fff" stroke-miterlimit="10" stroke-width="2"/><g clip-path="url(#c)"><path d="M26.319,641.462,1.371,668.074l49.9,53.224,24.949-26.612Z" transform="translate(-0.459 -214.7)" fill="none" stroke="#fff" stroke-miterlimit="10" stroke-width="2"/></g><path d="M176.319,641.462l-24.949,26.612,49.9,53.224,24.949-26.612Z" transform="translate(-50.664 -214.7)" fill="none" stroke="#fff" stroke-miterlimit="10" stroke-width="2"/><path d="M251.319,641.462l-24.949,26.612,49.9,53.224,24.949-26.612Z" transform="translate(-75.767 -214.7)" fill="none" stroke="#fff" stroke-miterlimit="10" stroke-width="2"/><path d="M326.319,641.462l-24.949,26.612,49.9,53.224,24.949-26.612Z" transform="translate(-100.87 -214.7)" fill="none" stroke="#fff" stroke-miterlimit="10" stroke-width="2"/><g clip-path="url(#c)"><path d="M401.319,641.462l-24.949,26.612,49.9,53.224,24.949-26.612Z" transform="translate(-125.973 -214.7)" fill="none" stroke="#fff" stroke-miterlimit="10" stroke-width="2"/><path d="M388.768,721.462l24.949,26.612-49.9,53.224-24.949-26.612Z" transform="translate(-113.421 -241.476)" fill="none" stroke="#fff" stroke-miterlimit="10" stroke-width="2"/><path d="M313.768,721.462l24.949,26.612-49.9,53.224-24.949-26.612Z" transform="translate(-88.319 -241.476)" fill="none" stroke="#fff" stroke-miterlimit="10" stroke-width="2"/><path d="M238.768,721.462l24.949,26.612-49.9,53.224-24.949-26.612Z" transform="translate(-63.216 -241.476)" fill="none" stroke="#fff" stroke-miterlimit="10" stroke-width="2"/><path d="M163.768,721.462l24.949,26.612-49.9,53.224-24.949-26.612Z" transform="translate(-38.113 -241.476)" fill="none" stroke="#fff" stroke-miterlimit="10" stroke-width="2"/><path d="M88.768,721.462l24.949,26.612L63.819,801.3,38.871,774.686Z" transform="translate(-13.01 -241.476)" fill="none" stroke="#fff" stroke-miterlimit="10" stroke-width="2"/></g></g></g></g></svg>