<svg xmlns="http://www.w3.org/2000/svg" xmlns:xlink="http://www.w3.org/1999/xlink" width="574" height="215" viewBox="0 0 574 215"><defs><clipPath id="a"><rect width="574" height="215" transform="translate(0 1011)" fill="#fff" stroke="#707070" stroke-width="1"/></clipPath></defs><g transform="translate(0 -1011)" clip-path="url(#a)"><g transform="translate(1.469 -28.25)"><path d="M324.136,229.895H42.167C18.975,229.895,0,209.322,0,184.176s18.975-45.717,42.167-45.717H324.136c23.192,0,42.167,20.573,42.167,45.717s-18.975,45.718-42.167,45.718" transform="translate(-32.565 1019.269)" fill="#f5e16e"/><path d="M176.092,229.742a10.522,10.522,0,0,0,10.523-10.523h0a10.523,10.523,0,0,0-10.523-10.523H151.086a10.522,10.522,0,0,1-10.523-10.523h0a10.522,10.522,0,0,1,10.523-10.523h78.188A10.523,10.523,0,0,0,239.8,177.126v0A10.523,10.523,0,0,0,229.274,166.6H101.935a10.522,10.522,0,0,0-10.523,10.523v0a10.523,10.523,0,0,0,10.523,10.523h9.931a10.522,10.522,0,0,1,10.523,10.523h0a10.522,10.522,0,0,1-10.523,10.523H54.725A10.524,10.524,0,0,0,44.2,219.218h0a10.523,10.523,0,0,0,10.523,10.523Z" transform="translate(-16.578 1025.1)" fill="#fffabe"/><rect width="448" height="105" rx="52.5" transform="translate(125 1053.25)" fill="#f5e16e"/><path d="M289.42,26.8h46.847a13.375,13.375,0,0,0,13.352-13.4v0A13.375,13.375,0,0,0,336.267,0h-127.2a13.374,13.374,0,0,0-13.352,13.4v0a13.374,13.374,0,0,0,13.352,13.4h30.584a13.374,13.374,0,0,1,13.352,13.4v0a13.375,13.375,0,0,1-13.352,13.4H185.272a13.374,13.374,0,0,0-13.352,13.4v0a13.374,13.374,0,0,0,13.352,13.4H321.031a13.375,13.375,0,0,1,13.352,13.4h0a13.374,13.374,0,0,1-13.352,13.4H270.512a13.375,13.375,0,0,0-13.352,13.4v0a13.374,13.374,0,0,0,13.352,13.4H393.16a13.374,13.374,0,0,0,13.352-13.4v0a13.375,13.375,0,0,0-13.352-13.4H376.688a13.374,13.374,0,0,1-13.352-13.4h0a13.375,13.375,0,0,1,13.352-13.4H447.52a13.374,13.374,0,0,0,13.352-13.4v0a13.374,13.374,0,0,0-13.352-13.4H289.42a13.375,13.375,0,0,1-13.352-13.4v0A13.374,13.374,0,0,1,289.42,26.8" transform="translate(0.601 1038.763)" fill="#fffabe"/></g></g></svg>