<svg xmlns="http://www.w3.org/2000/svg" xmlns:xlink="http://www.w3.org/1999/xlink" width="132" height="34" viewBox="0 0 132 34"><defs><clipPath id="a"><rect width="132" height="34" transform="translate(0 46)" fill="#fff" stroke="#707070" stroke-width="1"/></clipPath><clipPath id="b"><rect width="230" height="34" rx="17" transform="translate(-98 46)" fill="#004a83"/></clipPath><clipPath id="c"><rect width="158.639" height="272.764" fill="none" stroke="#fff" stroke-width="1"/></clipPath></defs><g transform="translate(0 -46)" clip-path="url(#a)"><rect width="230" height="34" rx="17" transform="translate(-98 46)" fill="#004a83"/><g opacity="0.13" clip-path="url(#b)"><g transform="translate(5494.511 262.63)"><g transform="translate(-5705.621 -237)"><g clip-path="url(#c)"><path d="M88.505.731,113.46,27.349,100.64,41.024,75.685,14.405Zm23.584,26.618L88.505,2.193,77.056,14.405,100.64,39.562Z" transform="translate(-51.658 -0.989)" fill="#fff"/><path d="M13.505.731,38.46,27.349,25.64,41.024.685,14.405ZM37.089,27.349,13.505,2.193,2.056,14.405,25.64,39.562Z" transform="translate(-0.927 -0.989)" fill="#fff"/><path d="M163.505.731,188.46,27.349,175.64,41.024,150.685,14.405ZM187.09,27.349,163.505,2.193,152.056,14.405,175.64,39.562Z" transform="translate(-102.388 -0.989)" fill="#fff"/><path d="M238.506.731,263.46,27.349,250.64,41.024,225.685,14.405ZM262.09,27.349,238.506,2.193,227.056,14.405,250.64,39.562Z" transform="translate(-153.119 -0.989)" fill="#fff"/><path d="M313.506.731,338.46,27.349,325.64,41.024,300.685,14.405ZM337.09,27.349,313.506,2.193,302.056,14.405,325.64,39.562Z" transform="translate(-203.849 -0.989)" fill="#fff"/><path d="M388.506.731,413.46,27.349,400.64,41.024,375.685,14.405ZM412.09,27.349,388.506,2.193,377.056,14.405,400.64,39.562Z" transform="translate(-254.58 -0.989)" fill="#fff"/></g><path d="M363.14,80.731l12.82,13.675-24.955,26.618-12.82-13.675ZM374.59,94.405,363.14,82.193l-23.584,25.156,11.449,12.213Z" transform="translate(-229.215 -55.101)" fill="#fff"/><path d="M288.14,80.731l12.82,13.675-24.955,26.618-12.82-13.675ZM299.59,94.405,288.14,82.193l-23.584,25.156,11.449,12.213Z" transform="translate(-178.484 -55.101)" fill="#fff"/><path d="M213.14,80.731l12.82,13.675-24.955,26.618-12.82-13.675ZM224.59,94.405,213.14,82.193l-23.584,25.156,11.449,12.213Z" transform="translate(-127.754 -55.101)" fill="#fff"/><path d="M138.14,80.731l12.82,13.675-24.955,26.618-12.82-13.675Zm11.449,13.675L138.14,82.193l-23.584,25.156,11.449,12.213Z" transform="translate(-77.023 -55.101)" fill="#fff"/><path d="M63.14,80.731,75.96,94.405,51.005,121.024l-12.82-13.675ZM74.589,94.405,63.14,82.193,39.556,107.349l11.449,12.213Z" transform="translate(-26.292 -55.101)" fill="#fff"/><path d="M88.505,160.731l24.955,26.618-12.82,13.675L75.685,174.406Zm23.584,26.618L88.505,162.193,77.056,174.406l23.584,25.156Z" transform="translate(-51.658 -109.214)" fill="#fff"/><g clip-path="url(#c)"><path d="M13.505,160.731,38.46,187.349,25.64,201.024.685,174.406Zm23.584,26.618L13.505,162.193,2.056,174.406,25.64,199.562Z" transform="translate(-0.927 -109.214)" fill="#fff"/></g><path d="M163.505,160.731l24.955,26.618-12.82,13.675-24.955-26.618Zm23.584,26.618-23.584-25.156-11.449,12.213,23.584,25.156Z" transform="translate(-102.388 -109.214)" fill="#fff"/><path d="M238.506,160.731l24.955,26.618-12.82,13.675-24.955-26.618Zm23.584,26.618-23.584-25.156-11.449,12.213,23.584,25.156Z" transform="translate(-153.119 -109.214)" fill="#fff"/><path d="M313.506,160.731l24.955,26.618-12.82,13.675-24.955-26.618Zm23.584,26.618-23.584-25.156-11.449,12.213,23.584,25.156Z" transform="translate(-203.849 -109.214)" fill="#fff"/><g clip-path="url(#c)"><path d="M388.506,160.731l24.955,26.618-12.82,13.675-24.955-26.618Zm23.584,26.618-23.584-25.156-11.449,12.213,23.584,25.156Z" transform="translate(-254.58 -109.214)" fill="#fff"/></g><path d="M363.14,240.731l12.82,13.675-24.955,26.618-12.82-13.675Zm11.449,13.675L363.14,242.193l-23.584,25.156,11.449,12.213Z" transform="translate(-229.215 -163.327)" fill="#fff"/><path d="M288.14,240.731l12.82,13.675-24.955,26.618-12.82-13.675Zm11.449,13.675L288.14,242.193l-23.584,25.156,11.449,12.213Z" transform="translate(-178.484 -163.327)" fill="#fff"/><path d="M213.14,240.731l12.82,13.675-24.955,26.618-12.82-13.675Zm11.449,13.675L213.14,242.193l-23.584,25.156,11.449,12.213Z" transform="translate(-127.754 -163.327)" fill="#fff"/><path d="M138.14,240.731l12.82,13.675-24.955,26.618-12.82-13.675Zm11.449,13.675L138.14,242.193l-23.584,25.156,11.449,12.213Z" transform="translate(-77.023 -163.327)" fill="#fff"/><path d="M63.14,240.731l12.82,13.675L51.005,281.024l-12.82-13.675Zm11.449,13.675L63.14,242.193,39.556,267.349l11.449,12.213Z" transform="translate(-26.292 -163.327)" fill="#fff"/><path d="M88.505,320.731l24.955,26.618-12.82,13.675L75.685,334.405Zm23.584,26.618L88.505,322.193,77.056,334.405l23.584,25.156Z" transform="translate(-51.658 -217.439)" fill="#fff"/><g clip-path="url(#c)"><path d="M13.505,320.731,38.46,347.349,25.64,361.024.685,334.405Zm23.584,26.618L13.505,322.193,2.056,334.405,25.64,359.562Z" transform="translate(-0.927 -217.439)" fill="#fff"/></g><path d="M163.505,320.731l24.955,26.618-12.82,13.675-24.955-26.618Zm23.584,26.618-23.584-25.156-11.449,12.213,23.584,25.156Z" transform="translate(-102.388 -217.439)" fill="#fff"/><path d="M238.506,320.731l24.955,26.618-12.82,13.675-24.955-26.618Zm23.584,26.618-23.584-25.156-11.449,12.213,23.584,25.156Z" transform="translate(-153.119 -217.439)" fill="#fff"/><path d="M313.506,320.731l24.955,26.618-12.82,13.675-24.955-26.618Zm23.584,26.618-23.584-25.156-11.449,12.213,23.584,25.156Z" transform="translate(-203.849 -217.439)" fill="#fff"/><g clip-path="url(#c)"><path d="M388.506,320.731l24.955,26.618-12.82,13.675-24.955-26.618Zm23.584,26.618-23.584-25.156-11.449,12.213,23.584,25.156Z" transform="translate(-254.58 -217.439)" fill="#fff"/></g><path d="M363.14,400.731l12.82,13.675-24.955,26.618-12.82-13.675Zm11.449,13.675L363.14,402.193l-23.584,25.156,11.449,12.213Z" transform="translate(-229.215 -271.552)" fill="#fff"/><path d="M288.14,400.731l12.82,13.675-24.955,26.618-12.82-13.675Zm11.449,13.675L288.14,402.193l-23.584,25.156,11.449,12.213Z" transform="translate(-178.484 -271.552)" fill="#fff"/><path d="M213.14,400.731l12.82,13.675-24.955,26.618-12.82-13.675Zm11.449,13.675L213.14,402.193l-23.584,25.156,11.449,12.213Z" transform="translate(-127.754 -271.552)" fill="#fff"/><path d="M138.14,400.731l12.82,13.675-24.955,26.618-12.82-13.675Zm11.449,13.675L138.14,402.193l-23.584,25.156,11.449,12.213Z" transform="translate(-77.023 -271.552)" fill="#fff"/><path d="M63.14,400.731l12.82,13.675L51.005,441.024l-12.82-13.675Zm11.449,13.675L63.14,402.193,39.556,427.349l11.449,12.213Z" transform="translate(-26.292 -271.552)" fill="#fff"/><path d="M88.505,480.731l24.955,26.618-12.82,13.675L75.685,494.406Zm23.584,26.618L88.505,482.193,77.056,494.406l23.584,25.156Z" transform="translate(-51.658 -325.665)" fill="#fff"/><g clip-path="url(#c)"><path d="M13.505,480.731,38.46,507.349,25.64,521.024.685,494.406Zm23.584,26.618L13.505,482.193,2.056,494.406,25.64,519.562Z" transform="translate(-0.927 -325.665)" fill="#fff"/></g><path d="M163.505,480.731l24.955,26.618-12.82,13.675-24.955-26.619Zm23.584,26.618-23.584-25.156-11.449,12.213,23.584,25.156Z" transform="translate(-102.388 -325.665)" fill="#fff"/><path d="M238.506,480.731l24.955,26.618-12.82,13.675-24.955-26.619Zm23.584,26.618-23.584-25.156-11.449,12.213,23.584,25.156Z" transform="translate(-153.119 -325.665)" fill="#fff"/><path d="M313.506,480.731l24.955,26.618-12.82,13.675-24.955-26.619Zm23.584,26.618-23.584-25.156-11.449,12.213,23.584,25.156Z" transform="translate(-203.849 -325.665)" fill="#fff"/><g clip-path="url(#c)"><path d="M388.506,480.731l24.955,26.618-12.82,13.675-24.955-26.619Zm23.584,26.618-23.584-25.156-11.449,12.213,23.584,25.156Z" transform="translate(-254.58 -325.665)" fill="#fff"/></g><path d="M363.14,560.731l12.82,13.675-24.955,26.619-12.82-13.675Zm11.449,13.675L363.14,562.193l-23.584,25.156,11.449,12.213Z" transform="translate(-229.215 -379.777)" fill="#fff"/><path d="M288.14,560.731l12.82,13.675-24.955,26.619-12.82-13.675Zm11.449,13.675L288.14,562.193l-23.584,25.156,11.449,12.213Z" transform="translate(-178.484 -379.777)" fill="#fff"/><path d="M213.14,560.731l12.82,13.675-24.955,26.619-12.82-13.675Zm11.449,13.675L213.14,562.193l-23.584,25.156,11.449,12.213Z" transform="translate(-127.754 -379.777)" fill="#fff"/><path d="M138.14,560.731l12.82,13.675-24.955,26.619-12.82-13.675Zm11.449,13.675L138.14,562.193l-23.584,25.156,11.449,12.213Z" transform="translate(-77.023 -379.777)" fill="#fff"/><path d="M63.14,560.731l12.82,13.675L51.005,601.024l-12.82-13.675Zm11.449,13.675L63.14,562.193,39.556,587.349l11.449,12.213Z" transform="translate(-26.292 -379.777)" fill="#fff"/><path d="M88.505,640.731l24.955,26.618-12.82,13.675L75.685,654.406Zm23.584,26.618L88.505,642.193,77.056,654.406l23.584,25.156Z" transform="translate(-51.658 -433.89)" fill="#fff"/><g clip-path="url(#c)"><path d="M13.505,640.731,38.46,667.349,25.64,681.024.685,654.406Zm23.584,26.618L13.505,642.193,2.056,654.406,25.64,679.562Z" transform="translate(-0.927 -433.89)" fill="#fff"/></g><path d="M163.505,640.731l24.955,26.618-12.82,13.675-24.955-26.619Zm23.584,26.618-23.584-25.156-11.449,12.213,23.584,25.156Z" transform="translate(-102.388 -433.89)" fill="#fff"/><path d="M238.506,640.731l24.955,26.618-12.82,13.675-24.955-26.619Zm23.584,26.618-23.584-25.156-11.449,12.213,23.584,25.156Z" transform="translate(-153.119 -433.89)" fill="#fff"/><path d="M313.506,640.731l24.955,26.618-12.82,13.675-24.955-26.619Zm23.584,26.618-23.584-25.156-11.449,12.213,23.584,25.156Z" transform="translate(-203.849 -433.89)" fill="#fff"/><g clip-path="url(#c)"><path d="M388.506,640.731l24.955,26.618-12.82,13.675-24.955-26.619Zm23.584,26.618-23.584-25.156-11.449,12.213,23.584,25.156Z" transform="translate(-254.58 -433.89)" fill="#fff"/><path d="M363.14,720.731l12.82,13.675-24.955,26.619-12.82-13.675Zm11.449,13.675L363.14,722.193l-23.584,25.156,11.449,12.213Z" transform="translate(-229.215 -488.002)" fill="#fff"/><path d="M288.14,720.731l12.82,13.675-24.955,26.619-12.82-13.675Zm11.449,13.675L288.14,722.193l-23.584,25.156,11.449,12.213Z" transform="translate(-178.484 -488.002)" fill="#fff"/><path d="M213.14,720.731l12.82,13.675-24.955,26.619-12.82-13.675Zm11.449,13.675L213.14,722.193l-23.584,25.156,11.449,12.213Z" transform="translate(-127.754 -488.002)" fill="#fff"/><path d="M138.14,720.731l12.82,13.675-24.955,26.619-12.82-13.675Zm11.449,13.675L138.14,722.193l-23.584,25.156,11.449,12.213Z" transform="translate(-77.023 -488.002)" fill="#fff"/><path d="M63.14,720.731l12.82,13.675L51.005,761.024l-12.82-13.675Zm11.449,13.675L63.14,722.193,39.556,747.349l11.449,12.213Z" transform="translate(-26.292 -488.002)" fill="#fff"/></g></g><g transform="translate(-5584.024 -237)"><g clip-path="url(#c)"><path d="M88.505.731,113.46,27.349,100.64,41.024,75.685,14.405Zm23.584,26.618L88.505,2.193,77.056,14.405,100.64,39.562Z" transform="translate(-51.658 -0.989)" fill="#fff"/><path d="M13.505.731,38.46,27.349,25.64,41.024.685,14.405ZM37.089,27.349,13.505,2.193,2.056,14.405,25.64,39.562Z" transform="translate(-0.927 -0.989)" fill="#fff"/><path d="M163.505.731,188.46,27.349,175.64,41.024,150.685,14.405ZM187.09,27.349,163.505,2.193,152.056,14.405,175.64,39.562Z" transform="translate(-102.388 -0.989)" fill="#fff"/><path d="M238.506.731,263.46,27.349,250.64,41.024,225.685,14.405ZM262.09,27.349,238.506,2.193,227.056,14.405,250.64,39.562Z" transform="translate(-153.119 -0.989)" fill="#fff"/><path d="M313.506.731,338.46,27.349,325.64,41.024,300.685,14.405ZM337.09,27.349,313.506,2.193,302.056,14.405,325.64,39.562Z" transform="translate(-203.849 -0.989)" fill="#fff"/><path d="M388.506.731,413.46,27.349,400.64,41.024,375.685,14.405ZM412.09,27.349,388.506,2.193,377.056,14.405,400.64,39.562Z" transform="translate(-254.58 -0.989)" fill="#fff"/></g><path d="M363.14,80.731l12.82,13.675-24.955,26.618-12.82-13.675ZM374.59,94.405,363.14,82.193l-23.584,25.156,11.449,12.213Z" transform="translate(-229.215 -55.101)" fill="#fff"/><path d="M288.14,80.731l12.82,13.675-24.955,26.618-12.82-13.675ZM299.59,94.405,288.14,82.193l-23.584,25.156,11.449,12.213Z" transform="translate(-178.484 -55.101)" fill="#fff"/><path d="M213.14,80.731l12.82,13.675-24.955,26.618-12.82-13.675ZM224.59,94.405,213.14,82.193l-23.584,25.156,11.449,12.213Z" transform="translate(-127.754 -55.101)" fill="#fff"/><path d="M138.14,80.731l12.82,13.675-24.955,26.618-12.82-13.675Zm11.449,13.675L138.14,82.193l-23.584,25.156,11.449,12.213Z" transform="translate(-77.023 -55.101)" fill="#fff"/><path d="M63.14,80.731,75.96,94.405,51.005,121.024l-12.82-13.675ZM74.589,94.405,63.14,82.193,39.556,107.349l11.449,12.213Z" transform="translate(-26.292 -55.101)" fill="#fff"/><path d="M88.505,160.731l24.955,26.618-12.82,13.675L75.685,174.406Zm23.584,26.618L88.505,162.193,77.056,174.406l23.584,25.156Z" transform="translate(-51.658 -109.214)" fill="#fff"/><g clip-path="url(#c)"><path d="M13.505,160.731,38.46,187.349,25.64,201.024.685,174.406Zm23.584,26.618L13.505,162.193,2.056,174.406,25.64,199.562Z" transform="translate(-0.927 -109.214)" fill="#fff"/></g><path d="M163.505,160.731l24.955,26.618-12.82,13.675-24.955-26.618Zm23.584,26.618-23.584-25.156-11.449,12.213,23.584,25.156Z" transform="translate(-102.388 -109.214)" fill="#fff"/><path d="M238.506,160.731l24.955,26.618-12.82,13.675-24.955-26.618Zm23.584,26.618-23.584-25.156-11.449,12.213,23.584,25.156Z" transform="translate(-153.119 -109.214)" fill="#fff"/><path d="M313.506,160.731l24.955,26.618-12.82,13.675-24.955-26.618Zm23.584,26.618-23.584-25.156-11.449,12.213,23.584,25.156Z" transform="translate(-203.849 -109.214)" fill="#fff"/><g clip-path="url(#c)"><path d="M388.506,160.731l24.955,26.618-12.82,13.675-24.955-26.618Zm23.584,26.618-23.584-25.156-11.449,12.213,23.584,25.156Z" transform="translate(-254.58 -109.214)" fill="#fff"/></g><path d="M363.14,240.731l12.82,13.675-24.955,26.618-12.82-13.675Zm11.449,13.675L363.14,242.193l-23.584,25.156,11.449,12.213Z" transform="translate(-229.215 -163.327)" fill="#fff"/><path d="M288.14,240.731l12.82,13.675-24.955,26.618-12.82-13.675Zm11.449,13.675L288.14,242.193l-23.584,25.156,11.449,12.213Z" transform="translate(-178.484 -163.327)" fill="#fff"/><path d="M213.14,240.731l12.82,13.675-24.955,26.618-12.82-13.675Zm11.449,13.675L213.14,242.193l-23.584,25.156,11.449,12.213Z" transform="translate(-127.754 -163.327)" fill="#fff"/><path d="M138.14,240.731l12.82,13.675-24.955,26.618-12.82-13.675Zm11.449,13.675L138.14,242.193l-23.584,25.156,11.449,12.213Z" transform="translate(-77.023 -163.327)" fill="#fff"/><path d="M63.14,240.731l12.82,13.675L51.005,281.024l-12.82-13.675Zm11.449,13.675L63.14,242.193,39.556,267.349l11.449,12.213Z" transform="translate(-26.292 -163.327)" fill="#fff"/><path d="M88.505,320.731l24.955,26.618-12.82,13.675L75.685,334.405Zm23.584,26.618L88.505,322.193,77.056,334.405l23.584,25.156Z" transform="translate(-51.658 -217.439)" fill="#fff"/><g clip-path="url(#c)"><path d="M13.505,320.731,38.46,347.349,25.64,361.024.685,334.405Zm23.584,26.618L13.505,322.193,2.056,334.405,25.64,359.562Z" transform="translate(-0.927 -217.439)" fill="#fff"/></g><path d="M163.505,320.731l24.955,26.618-12.82,13.675-24.955-26.618Zm23.584,26.618-23.584-25.156-11.449,12.213,23.584,25.156Z" transform="translate(-102.388 -217.439)" fill="#fff"/><path d="M238.506,320.731l24.955,26.618-12.82,13.675-24.955-26.618Zm23.584,26.618-23.584-25.156-11.449,12.213,23.584,25.156Z" transform="translate(-153.119 -217.439)" fill="#fff"/><path d="M313.506,320.731l24.955,26.618-12.82,13.675-24.955-26.618Zm23.584,26.618-23.584-25.156-11.449,12.213,23.584,25.156Z" transform="translate(-203.849 -217.439)" fill="#fff"/><g clip-path="url(#c)"><path d="M388.506,320.731l24.955,26.618-12.82,13.675-24.955-26.618Zm23.584,26.618-23.584-25.156-11.449,12.213,23.584,25.156Z" transform="translate(-254.58 -217.439)" fill="#fff"/></g><path d="M363.14,400.731l12.82,13.675-24.955,26.618-12.82-13.675Zm11.449,13.675L363.14,402.193l-23.584,25.156,11.449,12.213Z" transform="translate(-229.215 -271.552)" fill="#fff"/><path d="M288.14,400.731l12.82,13.675-24.955,26.618-12.82-13.675Zm11.449,13.675L288.14,402.193l-23.584,25.156,11.449,12.213Z" transform="translate(-178.484 -271.552)" fill="#fff"/><path d="M213.14,400.731l12.82,13.675-24.955,26.618-12.82-13.675Zm11.449,13.675L213.14,402.193l-23.584,25.156,11.449,12.213Z" transform="translate(-127.754 -271.552)" fill="#fff"/><path d="M138.14,400.731l12.82,13.675-24.955,26.618-12.82-13.675Zm11.449,13.675L138.14,402.193l-23.584,25.156,11.449,12.213Z" transform="translate(-77.023 -271.552)" fill="#fff"/><path d="M63.14,400.731l12.82,13.675L51.005,441.024l-12.82-13.675Zm11.449,13.675L63.14,402.193,39.556,427.349l11.449,12.213Z" transform="translate(-26.292 -271.552)" fill="#fff"/><path d="M88.505,480.731l24.955,26.618-12.82,13.675L75.685,494.406Zm23.584,26.618L88.505,482.193,77.056,494.406l23.584,25.156Z" transform="translate(-51.658 -325.665)" fill="#fff"/><g clip-path="url(#c)"><path d="M13.505,480.731,38.46,507.349,25.64,521.024.685,494.406Zm23.584,26.618L13.505,482.193,2.056,494.406,25.64,519.562Z" transform="translate(-0.927 -325.665)" fill="#fff"/></g><path d="M163.505,480.731l24.955,26.618-12.82,13.675-24.955-26.619Zm23.584,26.618-23.584-25.156-11.449,12.213,23.584,25.156Z" transform="translate(-102.388 -325.665)" fill="#fff"/><path d="M238.506,480.731l24.955,26.618-12.82,13.675-24.955-26.619Zm23.584,26.618-23.584-25.156-11.449,12.213,23.584,25.156Z" transform="translate(-153.119 -325.665)" fill="#fff"/><path d="M313.506,480.731l24.955,26.618-12.82,13.675-24.955-26.619Zm23.584,26.618-23.584-25.156-11.449,12.213,23.584,25.156Z" transform="translate(-203.849 -325.665)" fill="#fff"/><g clip-path="url(#c)"><path d="M388.506,480.731l24.955,26.618-12.82,13.675-24.955-26.619Zm23.584,26.618-23.584-25.156-11.449,12.213,23.584,25.156Z" transform="translate(-254.58 -325.665)" fill="#fff"/></g><path d="M363.14,560.731l12.82,13.675-24.955,26.619-12.82-13.675Zm11.449,13.675L363.14,562.193l-23.584,25.156,11.449,12.213Z" transform="translate(-229.215 -379.777)" fill="#fff"/><path d="M288.14,560.731l12.82,13.675-24.955,26.619-12.82-13.675Zm11.449,13.675L288.14,562.193l-23.584,25.156,11.449,12.213Z" transform="translate(-178.484 -379.777)" fill="#fff"/><path d="M213.14,560.731l12.82,13.675-24.955,26.619-12.82-13.675Zm11.449,13.675L213.14,562.193l-23.584,25.156,11.449,12.213Z" transform="translate(-127.754 -379.777)" fill="#fff"/><path d="M138.14,560.731l12.82,13.675-24.955,26.619-12.82-13.675Zm11.449,13.675L138.14,562.193l-23.584,25.156,11.449,12.213Z" transform="translate(-77.023 -379.777)" fill="#fff"/><path d="M63.14,560.731l12.82,13.675L51.005,601.024l-12.82-13.675Zm11.449,13.675L63.14,562.193,39.556,587.349l11.449,12.213Z" transform="translate(-26.292 -379.777)" fill="#fff"/><path d="M88.505,640.731l24.955,26.618-12.82,13.675L75.685,654.406Zm23.584,26.618L88.505,642.193,77.056,654.406l23.584,25.156Z" transform="translate(-51.658 -433.89)" fill="#fff"/><g clip-path="url(#c)"><path d="M13.505,640.731,38.46,667.349,25.64,681.024.685,654.406Zm23.584,26.618L13.505,642.193,2.056,654.406,25.64,679.562Z" transform="translate(-0.927 -433.89)" fill="#fff"/></g><path d="M163.505,640.731l24.955,26.618-12.82,13.675-24.955-26.619Zm23.584,26.618-23.584-25.156-11.449,12.213,23.584,25.156Z" transform="translate(-102.388 -433.89)" fill="#fff"/><path d="M238.506,640.731l24.955,26.618-12.82,13.675-24.955-26.619Zm23.584,26.618-23.584-25.156-11.449,12.213,23.584,25.156Z" transform="translate(-153.119 -433.89)" fill="#fff"/><path d="M313.506,640.731l24.955,26.618-12.82,13.675-24.955-26.619Zm23.584,26.618-23.584-25.156-11.449,12.213,23.584,25.156Z" transform="translate(-203.849 -433.89)" fill="#fff"/><g clip-path="url(#c)"><path d="M388.506,640.731l24.955,26.618-12.82,13.675-24.955-26.619Zm23.584,26.618-23.584-25.156-11.449,12.213,23.584,25.156Z" transform="translate(-254.58 -433.89)" fill="#fff"/><path d="M363.14,720.731l12.82,13.675-24.955,26.619-12.82-13.675Zm11.449,13.675L363.14,722.193l-23.584,25.156,11.449,12.213Z" transform="translate(-229.215 -488.002)" fill="#fff"/><path d="M288.14,720.731l12.82,13.675-24.955,26.619-12.82-13.675Zm11.449,13.675L288.14,722.193l-23.584,25.156,11.449,12.213Z" transform="translate(-178.484 -488.002)" fill="#fff"/><path d="M213.14,720.731l12.82,13.675-24.955,26.619-12.82-13.675Zm11.449,13.675L213.14,722.193l-23.584,25.156,11.449,12.213Z" transform="translate(-127.754 -488.002)" fill="#fff"/><path d="M138.14,720.731l12.82,13.675-24.955,26.619-12.82-13.675Zm11.449,13.675L138.14,722.193l-23.584,25.156,11.449,12.213Z" transform="translate(-77.023 -488.002)" fill="#fff"/><path d="M63.14,720.731l12.82,13.675L51.005,761.024l-12.82-13.675Zm11.449,13.675L63.14,722.193,39.556,747.349l11.449,12.213Z" transform="translate(-26.292 -488.002)" fill="#fff"/></g></g><g transform="translate(-5462.427 -237)"><g clip-path="url(#c)"><path d="M88.505.731,113.46,27.349,100.64,41.024,75.685,14.405Zm23.584,26.618L88.505,2.193,77.056,14.405,100.64,39.562Z" transform="translate(-51.658 -0.989)" fill="#fff"/><path d="M13.505.731,38.46,27.349,25.64,41.024.685,14.405ZM37.089,27.349,13.505,2.193,2.056,14.405,25.64,39.562Z" transform="translate(-0.927 -0.989)" fill="#fff"/><path d="M163.505.731,188.46,27.349,175.64,41.024,150.685,14.405ZM187.09,27.349,163.505,2.193,152.056,14.405,175.64,39.562Z" transform="translate(-102.388 -0.989)" fill="#fff"/><path d="M238.506.731,263.46,27.349,250.64,41.024,225.685,14.405ZM262.09,27.349,238.506,2.193,227.056,14.405,250.64,39.562Z" transform="translate(-153.119 -0.989)" fill="#fff"/><path d="M313.506.731,338.46,27.349,325.64,41.024,300.685,14.405ZM337.09,27.349,313.506,2.193,302.056,14.405,325.64,39.562Z" transform="translate(-203.849 -0.989)" fill="#fff"/><path d="M388.506.731,413.46,27.349,400.64,41.024,375.685,14.405ZM412.09,27.349,388.506,2.193,377.056,14.405,400.64,39.562Z" transform="translate(-254.58 -0.989)" fill="#fff"/></g><path d="M363.14,80.731l12.82,13.675-24.955,26.618-12.82-13.675ZM374.59,94.405,363.14,82.193l-23.584,25.156,11.449,12.213Z" transform="translate(-229.215 -55.101)" fill="#fff"/><path d="M288.14,80.731l12.82,13.675-24.955,26.618-12.82-13.675ZM299.59,94.405,288.14,82.193l-23.584,25.156,11.449,12.213Z" transform="translate(-178.484 -55.101)" fill="#fff"/><path d="M213.14,80.731l12.82,13.675-24.955,26.618-12.82-13.675ZM224.59,94.405,213.14,82.193l-23.584,25.156,11.449,12.213Z" transform="translate(-127.754 -55.101)" fill="#fff"/><path d="M138.14,80.731l12.82,13.675-24.955,26.618-12.82-13.675Zm11.449,13.675L138.14,82.193l-23.584,25.156,11.449,12.213Z" transform="translate(-77.023 -55.101)" fill="#fff"/><path d="M63.14,80.731,75.96,94.405,51.005,121.024l-12.82-13.675ZM74.589,94.405,63.14,82.193,39.556,107.349l11.449,12.213Z" transform="translate(-26.292 -55.101)" fill="#fff"/><path d="M88.505,160.731l24.955,26.618-12.82,13.675L75.685,174.406Zm23.584,26.618L88.505,162.193,77.056,174.406l23.584,25.156Z" transform="translate(-51.658 -109.214)" fill="#fff"/><g clip-path="url(#c)"><path d="M13.505,160.731,38.46,187.349,25.64,201.024.685,174.406Zm23.584,26.618L13.505,162.193,2.056,174.406,25.64,199.562Z" transform="translate(-0.927 -109.214)" fill="#fff"/></g><path d="M163.505,160.731l24.955,26.618-12.82,13.675-24.955-26.618Zm23.584,26.618-23.584-25.156-11.449,12.213,23.584,25.156Z" transform="translate(-102.388 -109.214)" fill="#fff"/><path d="M238.506,160.731l24.955,26.618-12.82,13.675-24.955-26.618Zm23.584,26.618-23.584-25.156-11.449,12.213,23.584,25.156Z" transform="translate(-153.119 -109.214)" fill="#fff"/><path d="M313.506,160.731l24.955,26.618-12.82,13.675-24.955-26.618Zm23.584,26.618-23.584-25.156-11.449,12.213,23.584,25.156Z" transform="translate(-203.849 -109.214)" fill="#fff"/><g clip-path="url(#c)"><path d="M388.506,160.731l24.955,26.618-12.82,13.675-24.955-26.618Zm23.584,26.618-23.584-25.156-11.449,12.213,23.584,25.156Z" transform="translate(-254.58 -109.214)" fill="#fff"/></g><path d="M363.14,240.731l12.82,13.675-24.955,26.618-12.82-13.675Zm11.449,13.675L363.14,242.193l-23.584,25.156,11.449,12.213Z" transform="translate(-229.215 -163.327)" fill="#fff"/><path d="M288.14,240.731l12.82,13.675-24.955,26.618-12.82-13.675Zm11.449,13.675L288.14,242.193l-23.584,25.156,11.449,12.213Z" transform="translate(-178.484 -163.327)" fill="#fff"/><path d="M213.14,240.731l12.82,13.675-24.955,26.618-12.82-13.675Zm11.449,13.675L213.14,242.193l-23.584,25.156,11.449,12.213Z" transform="translate(-127.754 -163.327)" fill="#fff"/><path d="M138.14,240.731l12.82,13.675-24.955,26.618-12.82-13.675Zm11.449,13.675L138.14,242.193l-23.584,25.156,11.449,12.213Z" transform="translate(-77.023 -163.327)" fill="#fff"/><path d="M63.14,240.731l12.82,13.675L51.005,281.024l-12.82-13.675Zm11.449,13.675L63.14,242.193,39.556,267.349l11.449,12.213Z" transform="translate(-26.292 -163.327)" fill="#fff"/><path d="M88.505,320.731l24.955,26.618-12.82,13.675L75.685,334.405Zm23.584,26.618L88.505,322.193,77.056,334.405l23.584,25.156Z" transform="translate(-51.658 -217.439)" fill="#fff"/><g clip-path="url(#c)"><path d="M13.505,320.731,38.46,347.349,25.64,361.024.685,334.405Zm23.584,26.618L13.505,322.193,2.056,334.405,25.64,359.562Z" transform="translate(-0.927 -217.439)" fill="#fff"/></g><path d="M163.505,320.731l24.955,26.618-12.82,13.675-24.955-26.618Zm23.584,26.618-23.584-25.156-11.449,12.213,23.584,25.156Z" transform="translate(-102.388 -217.439)" fill="#fff"/><path d="M238.506,320.731l24.955,26.618-12.82,13.675-24.955-26.618Zm23.584,26.618-23.584-25.156-11.449,12.213,23.584,25.156Z" transform="translate(-153.119 -217.439)" fill="#fff"/><path d="M313.506,320.731l24.955,26.618-12.82,13.675-24.955-26.618Zm23.584,26.618-23.584-25.156-11.449,12.213,23.584,25.156Z" transform="translate(-203.849 -217.439)" fill="#fff"/><g clip-path="url(#c)"><path d="M388.506,320.731l24.955,26.618-12.82,13.675-24.955-26.618Zm23.584,26.618-23.584-25.156-11.449,12.213,23.584,25.156Z" transform="translate(-254.58 -217.439)" fill="#fff"/></g><path d="M363.14,400.731l12.82,13.675-24.955,26.618-12.82-13.675Zm11.449,13.675L363.14,402.193l-23.584,25.156,11.449,12.213Z" transform="translate(-229.215 -271.552)" fill="#fff"/><path d="M288.14,400.731l12.82,13.675-24.955,26.618-12.82-13.675Zm11.449,13.675L288.14,402.193l-23.584,25.156,11.449,12.213Z" transform="translate(-178.484 -271.552)" fill="#fff"/><path d="M213.14,400.731l12.82,13.675-24.955,26.618-12.82-13.675Zm11.449,13.675L213.14,402.193l-23.584,25.156,11.449,12.213Z" transform="translate(-127.754 -271.552)" fill="#fff"/><path d="M138.14,400.731l12.82,13.675-24.955,26.618-12.82-13.675Zm11.449,13.675L138.14,402.193l-23.584,25.156,11.449,12.213Z" transform="translate(-77.023 -271.552)" fill="#fff"/><path d="M63.14,400.731l12.82,13.675L51.005,441.024l-12.82-13.675Zm11.449,13.675L63.14,402.193,39.556,427.349l11.449,12.213Z" transform="translate(-26.292 -271.552)" fill="#fff"/><path d="M88.505,480.731l24.955,26.618-12.82,13.675L75.685,494.406Zm23.584,26.618L88.505,482.193,77.056,494.406l23.584,25.156Z" transform="translate(-51.658 -325.665)" fill="#fff"/><g clip-path="url(#c)"><path d="M13.505,480.731,38.46,507.349,25.64,521.024.685,494.406Zm23.584,26.618L13.505,482.193,2.056,494.406,25.64,519.562Z" transform="translate(-0.927 -325.665)" fill="#fff"/></g><path d="M163.505,480.731l24.955,26.618-12.82,13.675-24.955-26.619Zm23.584,26.618-23.584-25.156-11.449,12.213,23.584,25.156Z" transform="translate(-102.388 -325.665)" fill="#fff"/><path d="M238.506,480.731l24.955,26.618-12.82,13.675-24.955-26.619Zm23.584,26.618-23.584-25.156-11.449,12.213,23.584,25.156Z" transform="translate(-153.119 -325.665)" fill="#fff"/><path d="M313.506,480.731l24.955,26.618-12.82,13.675-24.955-26.619Zm23.584,26.618-23.584-25.156-11.449,12.213,23.584,25.156Z" transform="translate(-203.849 -325.665)" fill="#fff"/><g clip-path="url(#c)"><path d="M388.506,480.731l24.955,26.618-12.82,13.675-24.955-26.619Zm23.584,26.618-23.584-25.156-11.449,12.213,23.584,25.156Z" transform="translate(-254.58 -325.665)" fill="#fff"/></g><path d="M363.14,560.731l12.82,13.675-24.955,26.619-12.82-13.675Zm11.449,13.675L363.14,562.193l-23.584,25.156,11.449,12.213Z" transform="translate(-229.215 -379.777)" fill="#fff"/><path d="M288.14,560.731l12.82,13.675-24.955,26.619-12.82-13.675Zm11.449,13.675L288.14,562.193l-23.584,25.156,11.449,12.213Z" transform="translate(-178.484 -379.777)" fill="#fff"/><path d="M213.14,560.731l12.82,13.675-24.955,26.619-12.82-13.675Zm11.449,13.675L213.14,562.193l-23.584,25.156,11.449,12.213Z" transform="translate(-127.754 -379.777)" fill="#fff"/><path d="M138.14,560.731l12.82,13.675-24.955,26.619-12.82-13.675Zm11.449,13.675L138.14,562.193l-23.584,25.156,11.449,12.213Z" transform="translate(-77.023 -379.777)" fill="#fff"/><path d="M63.14,560.731l12.82,13.675L51.005,601.024l-12.82-13.675Zm11.449,13.675L63.14,562.193,39.556,587.349l11.449,12.213Z" transform="translate(-26.292 -379.777)" fill="#fff"/><path d="M88.505,640.731l24.955,26.618-12.82,13.675L75.685,654.406Zm23.584,26.618L88.505,642.193,77.056,654.406l23.584,25.156Z" transform="translate(-51.658 -433.89)" fill="#fff"/><g clip-path="url(#c)"><path d="M13.505,640.731,38.46,667.349,25.64,681.024.685,654.406Zm23.584,26.618L13.505,642.193,2.056,654.406,25.64,679.562Z" transform="translate(-0.927 -433.89)" fill="#fff"/></g><path d="M163.505,640.731l24.955,26.618-12.82,13.675-24.955-26.619Zm23.584,26.618-23.584-25.156-11.449,12.213,23.584,25.156Z" transform="translate(-102.388 -433.89)" fill="#fff"/><path d="M238.506,640.731l24.955,26.618-12.82,13.675-24.955-26.619Zm23.584,26.618-23.584-25.156-11.449,12.213,23.584,25.156Z" transform="translate(-153.119 -433.89)" fill="#fff"/><path d="M313.506,640.731l24.955,26.618-12.82,13.675-24.955-26.619Zm23.584,26.618-23.584-25.156-11.449,12.213,23.584,25.156Z" transform="translate(-203.849 -433.89)" fill="#fff"/><g clip-path="url(#c)"><path d="M388.506,640.731l24.955,26.618-12.82,13.675-24.955-26.619Zm23.584,26.618-23.584-25.156-11.449,12.213,23.584,25.156Z" transform="translate(-254.58 -433.89)" fill="#fff"/><path d="M363.14,720.731l12.82,13.675-24.955,26.619-12.82-13.675Zm11.449,13.675L363.14,722.193l-23.584,25.156,11.449,12.213Z" transform="translate(-229.215 -488.002)" fill="#fff"/><path d="M288.14,720.731l12.82,13.675-24.955,26.619-12.82-13.675Zm11.449,13.675L288.14,722.193l-23.584,25.156,11.449,12.213Z" transform="translate(-178.484 -488.002)" fill="#fff"/><path d="M213.14,720.731l12.82,13.675-24.955,26.619-12.82-13.675Zm11.449,13.675L213.14,722.193l-23.584,25.156,11.449,12.213Z" transform="translate(-127.754 -488.002)" fill="#fff"/><path d="M138.14,720.731l12.82,13.675-24.955,26.619-12.82-13.675Zm11.449,13.675L138.14,722.193l-23.584,25.156,11.449,12.213Z" transform="translate(-77.023 -488.002)" fill="#fff"/><path d="M63.14,720.731l12.82,13.675L51.005,761.024l-12.82-13.675Zm11.449,13.675L63.14,722.193,39.556,747.349l11.449,12.213Z" transform="translate(-26.292 -488.002)" fill="#fff"/></g></g><g transform="translate(-5340.83 -237)"><g clip-path="url(#c)"><path d="M88.505.731,113.46,27.349,100.64,41.024,75.685,14.405Zm23.584,26.618L88.505,2.193,77.056,14.405,100.64,39.562Z" transform="translate(-51.658 -0.989)" fill="#fff"/><path d="M13.505.731,38.46,27.349,25.64,41.024.685,14.405ZM37.089,27.349,13.505,2.193,2.056,14.405,25.64,39.562Z" transform="translate(-0.927 -0.989)" fill="#fff"/><path d="M163.505.731,188.46,27.349,175.64,41.024,150.685,14.405ZM187.09,27.349,163.505,2.193,152.056,14.405,175.64,39.562Z" transform="translate(-102.388 -0.989)" fill="#fff"/><path d="M238.506.731,263.46,27.349,250.64,41.024,225.685,14.405ZM262.09,27.349,238.506,2.193,227.056,14.405,250.64,39.562Z" transform="translate(-153.119 -0.989)" fill="#fff"/><path d="M313.506.731,338.46,27.349,325.64,41.024,300.685,14.405ZM337.09,27.349,313.506,2.193,302.056,14.405,325.64,39.562Z" transform="translate(-203.849 -0.989)" fill="#fff"/><path d="M388.506.731,413.46,27.349,400.64,41.024,375.685,14.405ZM412.09,27.349,388.506,2.193,377.056,14.405,400.64,39.562Z" transform="translate(-254.58 -0.989)" fill="#fff"/></g><path d="M363.14,80.731l12.82,13.675-24.955,26.618-12.82-13.675ZM374.59,94.405,363.14,82.193l-23.584,25.156,11.449,12.213Z" transform="translate(-229.215 -55.101)" fill="#fff"/><path d="M288.14,80.731l12.82,13.675-24.955,26.618-12.82-13.675ZM299.59,94.405,288.14,82.193l-23.584,25.156,11.449,12.213Z" transform="translate(-178.484 -55.101)" fill="#fff"/><path d="M213.14,80.731l12.82,13.675-24.955,26.618-12.82-13.675ZM224.59,94.405,213.14,82.193l-23.584,25.156,11.449,12.213Z" transform="translate(-127.754 -55.101)" fill="#fff"/><path d="M138.14,80.731l12.82,13.675-24.955,26.618-12.82-13.675Zm11.449,13.675L138.14,82.193l-23.584,25.156,11.449,12.213Z" transform="translate(-77.023 -55.101)" fill="#fff"/><path d="M63.14,80.731,75.96,94.405,51.005,121.024l-12.82-13.675ZM74.589,94.405,63.14,82.193,39.556,107.349l11.449,12.213Z" transform="translate(-26.292 -55.101)" fill="#fff"/><path d="M88.505,160.731l24.955,26.618-12.82,13.675L75.685,174.406Zm23.584,26.618L88.505,162.193,77.056,174.406l23.584,25.156Z" transform="translate(-51.658 -109.214)" fill="#fff"/><g clip-path="url(#c)"><path d="M13.505,160.731,38.46,187.349,25.64,201.024.685,174.406Zm23.584,26.618L13.505,162.193,2.056,174.406,25.64,199.562Z" transform="translate(-0.927 -109.214)" fill="#fff"/></g><path d="M163.505,160.731l24.955,26.618-12.82,13.675-24.955-26.618Zm23.584,26.618-23.584-25.156-11.449,12.213,23.584,25.156Z" transform="translate(-102.388 -109.214)" fill="#fff"/><path d="M238.506,160.731l24.955,26.618-12.82,13.675-24.955-26.618Zm23.584,26.618-23.584-25.156-11.449,12.213,23.584,25.156Z" transform="translate(-153.119 -109.214)" fill="#fff"/><path d="M313.506,160.731l24.955,26.618-12.82,13.675-24.955-26.618Zm23.584,26.618-23.584-25.156-11.449,12.213,23.584,25.156Z" transform="translate(-203.849 -109.214)" fill="#fff"/><g clip-path="url(#c)"><path d="M388.506,160.731l24.955,26.618-12.82,13.675-24.955-26.618Zm23.584,26.618-23.584-25.156-11.449,12.213,23.584,25.156Z" transform="translate(-254.58 -109.214)" fill="#fff"/></g><path d="M363.14,240.731l12.82,13.675-24.955,26.618-12.82-13.675Zm11.449,13.675L363.14,242.193l-23.584,25.156,11.449,12.213Z" transform="translate(-229.215 -163.327)" fill="#fff"/><path d="M288.14,240.731l12.82,13.675-24.955,26.618-12.82-13.675Zm11.449,13.675L288.14,242.193l-23.584,25.156,11.449,12.213Z" transform="translate(-178.484 -163.327)" fill="#fff"/><path d="M213.14,240.731l12.82,13.675-24.955,26.618-12.82-13.675Zm11.449,13.675L213.14,242.193l-23.584,25.156,11.449,12.213Z" transform="translate(-127.754 -163.327)" fill="#fff"/><path d="M138.14,240.731l12.82,13.675-24.955,26.618-12.82-13.675Zm11.449,13.675L138.14,242.193l-23.584,25.156,11.449,12.213Z" transform="translate(-77.023 -163.327)" fill="#fff"/><path d="M63.14,240.731l12.82,13.675L51.005,281.024l-12.82-13.675Zm11.449,13.675L63.14,242.193,39.556,267.349l11.449,12.213Z" transform="translate(-26.292 -163.327)" fill="#fff"/><path d="M88.505,320.731l24.955,26.618-12.82,13.675L75.685,334.405Zm23.584,26.618L88.505,322.193,77.056,334.405l23.584,25.156Z" transform="translate(-51.658 -217.439)" fill="#fff"/><g clip-path="url(#c)"><path d="M13.505,320.731,38.46,347.349,25.64,361.024.685,334.405Zm23.584,26.618L13.505,322.193,2.056,334.405,25.64,359.562Z" transform="translate(-0.927 -217.439)" fill="#fff"/></g><path d="M163.505,320.731l24.955,26.618-12.82,13.675-24.955-26.618Zm23.584,26.618-23.584-25.156-11.449,12.213,23.584,25.156Z" transform="translate(-102.388 -217.439)" fill="#fff"/><path d="M238.506,320.731l24.955,26.618-12.82,13.675-24.955-26.618Zm23.584,26.618-23.584-25.156-11.449,12.213,23.584,25.156Z" transform="translate(-153.119 -217.439)" fill="#fff"/><path d="M313.506,320.731l24.955,26.618-12.82,13.675-24.955-26.618Zm23.584,26.618-23.584-25.156-11.449,12.213,23.584,25.156Z" transform="translate(-203.849 -217.439)" fill="#fff"/><g clip-path="url(#c)"><path d="M388.506,320.731l24.955,26.618-12.82,13.675-24.955-26.618Zm23.584,26.618-23.584-25.156-11.449,12.213,23.584,25.156Z" transform="translate(-254.58 -217.439)" fill="#fff"/></g><path d="M363.14,400.731l12.82,13.675-24.955,26.618-12.82-13.675Zm11.449,13.675L363.14,402.193l-23.584,25.156,11.449,12.213Z" transform="translate(-229.215 -271.552)" fill="#fff"/><path d="M288.14,400.731l12.82,13.675-24.955,26.618-12.82-13.675Zm11.449,13.675L288.14,402.193l-23.584,25.156,11.449,12.213Z" transform="translate(-178.484 -271.552)" fill="#fff"/><path d="M213.14,400.731l12.82,13.675-24.955,26.618-12.82-13.675Zm11.449,13.675L213.14,402.193l-23.584,25.156,11.449,12.213Z" transform="translate(-127.754 -271.552)" fill="#fff"/><path d="M138.14,400.731l12.82,13.675-24.955,26.618-12.82-13.675Zm11.449,13.675L138.14,402.193l-23.584,25.156,11.449,12.213Z" transform="translate(-77.023 -271.552)" fill="#fff"/><path d="M63.14,400.731l12.82,13.675L51.005,441.024l-12.82-13.675Zm11.449,13.675L63.14,402.193,39.556,427.349l11.449,12.213Z" transform="translate(-26.292 -271.552)" fill="#fff"/><path d="M88.505,480.731l24.955,26.618-12.82,13.675L75.685,494.406Zm23.584,26.618L88.505,482.193,77.056,494.406l23.584,25.156Z" transform="translate(-51.658 -325.665)" fill="#fff"/><g clip-path="url(#c)"><path d="M13.505,480.731,38.46,507.349,25.64,521.024.685,494.406Zm23.584,26.618L13.505,482.193,2.056,494.406,25.64,519.562Z" transform="translate(-0.927 -325.665)" fill="#fff"/></g><path d="M163.505,480.731l24.955,26.618-12.82,13.675-24.955-26.619Zm23.584,26.618-23.584-25.156-11.449,12.213,23.584,25.156Z" transform="translate(-102.388 -325.665)" fill="#fff"/><path d="M238.506,480.731l24.955,26.618-12.82,13.675-24.955-26.619Zm23.584,26.618-23.584-25.156-11.449,12.213,23.584,25.156Z" transform="translate(-153.119 -325.665)" fill="#fff"/><path d="M313.506,480.731l24.955,26.618-12.82,13.675-24.955-26.619Zm23.584,26.618-23.584-25.156-11.449,12.213,23.584,25.156Z" transform="translate(-203.849 -325.665)" fill="#fff"/><g clip-path="url(#c)"><path d="M388.506,480.731l24.955,26.618-12.82,13.675-24.955-26.619Zm23.584,26.618-23.584-25.156-11.449,12.213,23.584,25.156Z" transform="translate(-254.58 -325.665)" fill="#fff"/></g><path d="M363.14,560.731l12.82,13.675-24.955,26.619-12.82-13.675Zm11.449,13.675L363.14,562.193l-23.584,25.156,11.449,12.213Z" transform="translate(-229.215 -379.777)" fill="#fff"/><path d="M288.14,560.731l12.82,13.675-24.955,26.619-12.82-13.675Zm11.449,13.675L288.14,562.193l-23.584,25.156,11.449,12.213Z" transform="translate(-178.484 -379.777)" fill="#fff"/><path d="M213.14,560.731l12.82,13.675-24.955,26.619-12.82-13.675Zm11.449,13.675L213.14,562.193l-23.584,25.156,11.449,12.213Z" transform="translate(-127.754 -379.777)" fill="#fff"/><path d="M138.14,560.731l12.82,13.675-24.955,26.619-12.82-13.675Zm11.449,13.675L138.14,562.193l-23.584,25.156,11.449,12.213Z" transform="translate(-77.023 -379.777)" fill="#fff"/><path d="M63.14,560.731l12.82,13.675L51.005,601.024l-12.82-13.675Zm11.449,13.675L63.14,562.193,39.556,587.349l11.449,12.213Z" transform="translate(-26.292 -379.777)" fill="#fff"/><path d="M88.505,640.731l24.955,26.618-12.82,13.675L75.685,654.406Zm23.584,26.618L88.505,642.193,77.056,654.406l23.584,25.156Z" transform="translate(-51.658 -433.89)" fill="#fff"/><g clip-path="url(#c)"><path d="M13.505,640.731,38.46,667.349,25.64,681.024.685,654.406Zm23.584,26.618L13.505,642.193,2.056,654.406,25.64,679.562Z" transform="translate(-0.927 -433.89)" fill="#fff"/></g><path d="M163.505,640.731l24.955,26.618-12.82,13.675-24.955-26.619Zm23.584,26.618-23.584-25.156-11.449,12.213,23.584,25.156Z" transform="translate(-102.388 -433.89)" fill="#fff"/><path d="M238.506,640.731l24.955,26.618-12.82,13.675-24.955-26.619Zm23.584,26.618-23.584-25.156-11.449,12.213,23.584,25.156Z" transform="translate(-153.119 -433.89)" fill="#fff"/><path d="M313.506,640.731l24.955,26.618-12.82,13.675-24.955-26.619Zm23.584,26.618-23.584-25.156-11.449,12.213,23.584,25.156Z" transform="translate(-203.849 -433.89)" fill="#fff"/><g clip-path="url(#c)"><path d="M388.506,640.731l24.955,26.618-12.82,13.675-24.955-26.619Zm23.584,26.618-23.584-25.156-11.449,12.213,23.584,25.156Z" transform="translate(-254.58 -433.89)" fill="#fff"/><path d="M363.14,720.731l12.82,13.675-24.955,26.619-12.82-13.675Zm11.449,13.675L363.14,722.193l-23.584,25.156,11.449,12.213Z" transform="translate(-229.215 -488.002)" fill="#fff"/><path d="M288.14,720.731l12.82,13.675-24.955,26.619-12.82-13.675Zm11.449,13.675L288.14,722.193l-23.584,25.156,11.449,12.213Z" transform="translate(-178.484 -488.002)" fill="#fff"/><path d="M213.14,720.731l12.82,13.675-24.955,26.619-12.82-13.675Zm11.449,13.675L213.14,722.193l-23.584,25.156,11.449,12.213Z" transform="translate(-127.754 -488.002)" fill="#fff"/><path d="M138.14,720.731l12.82,13.675-24.955,26.619-12.82-13.675Zm11.449,13.675L138.14,722.193l-23.584,25.156,11.449,12.213Z" transform="translate(-77.023 -488.002)" fill="#fff"/><path d="M63.14,720.731l12.82,13.675L51.005,761.024l-12.82-13.675Zm11.449,13.675L63.14,722.193,39.556,747.349l11.449,12.213Z" transform="translate(-26.292 -488.002)" fill="#fff"/></g></g><g transform="translate(-5219.232 -237)"><g clip-path="url(#c)"><path d="M88.505.731,113.46,27.349,100.64,41.024,75.685,14.405Zm23.584,26.618L88.505,2.193,77.056,14.405,100.64,39.562Z" transform="translate(-51.658 -0.989)" fill="#fff"/><path d="M13.505.731,38.46,27.349,25.64,41.024.685,14.405ZM37.089,27.349,13.505,2.193,2.056,14.405,25.64,39.562Z" transform="translate(-0.927 -0.989)" fill="#fff"/><path d="M163.505.731,188.46,27.349,175.64,41.024,150.685,14.405ZM187.09,27.349,163.505,2.193,152.056,14.405,175.64,39.562Z" transform="translate(-102.388 -0.989)" fill="#fff"/><path d="M238.506.731,263.46,27.349,250.64,41.024,225.685,14.405ZM262.09,27.349,238.506,2.193,227.056,14.405,250.64,39.562Z" transform="translate(-153.119 -0.989)" fill="#fff"/><path d="M313.506.731,338.46,27.349,325.64,41.024,300.685,14.405ZM337.09,27.349,313.506,2.193,302.056,14.405,325.64,39.562Z" transform="translate(-203.849 -0.989)" fill="#fff"/><path d="M388.506.731,413.46,27.349,400.64,41.024,375.685,14.405ZM412.09,27.349,388.506,2.193,377.056,14.405,400.64,39.562Z" transform="translate(-254.58 -0.989)" fill="#fff"/></g><path d="M363.14,80.731l12.82,13.675-24.955,26.618-12.82-13.675ZM374.59,94.405,363.14,82.193l-23.584,25.156,11.449,12.213Z" transform="translate(-229.215 -55.101)" fill="#fff"/><path d="M288.14,80.731l12.82,13.675-24.955,26.618-12.82-13.675ZM299.59,94.405,288.14,82.193l-23.584,25.156,11.449,12.213Z" transform="translate(-178.484 -55.101)" fill="#fff"/><path d="M213.14,80.731l12.82,13.675-24.955,26.618-12.82-13.675ZM224.59,94.405,213.14,82.193l-23.584,25.156,11.449,12.213Z" transform="translate(-127.754 -55.101)" fill="#fff"/><path d="M138.14,80.731l12.82,13.675-24.955,26.618-12.82-13.675Zm11.449,13.675L138.14,82.193l-23.584,25.156,11.449,12.213Z" transform="translate(-77.023 -55.101)" fill="#fff"/><path d="M63.14,80.731,75.96,94.405,51.005,121.024l-12.82-13.675ZM74.589,94.405,63.14,82.193,39.556,107.349l11.449,12.213Z" transform="translate(-26.292 -55.101)" fill="#fff"/><path d="M88.505,160.731l24.955,26.618-12.82,13.675L75.685,174.406Zm23.584,26.618L88.505,162.193,77.056,174.406l23.584,25.156Z" transform="translate(-51.658 -109.214)" fill="#fff"/><g clip-path="url(#c)"><path d="M13.505,160.731,38.46,187.349,25.64,201.024.685,174.406Zm23.584,26.618L13.505,162.193,2.056,174.406,25.64,199.562Z" transform="translate(-0.927 -109.214)" fill="#fff"/></g><path d="M163.505,160.731l24.955,26.618-12.82,13.675-24.955-26.618Zm23.584,26.618-23.584-25.156-11.449,12.213,23.584,25.156Z" transform="translate(-102.388 -109.214)" fill="#fff"/><path d="M238.506,160.731l24.955,26.618-12.82,13.675-24.955-26.618Zm23.584,26.618-23.584-25.156-11.449,12.213,23.584,25.156Z" transform="translate(-153.119 -109.214)" fill="#fff"/><path d="M313.506,160.731l24.955,26.618-12.82,13.675-24.955-26.618Zm23.584,26.618-23.584-25.156-11.449,12.213,23.584,25.156Z" transform="translate(-203.849 -109.214)" fill="#fff"/><g clip-path="url(#c)"><path d="M388.506,160.731l24.955,26.618-12.82,13.675-24.955-26.618Zm23.584,26.618-23.584-25.156-11.449,12.213,23.584,25.156Z" transform="translate(-254.58 -109.214)" fill="#fff"/></g><path d="M363.14,240.731l12.82,13.675-24.955,26.618-12.82-13.675Zm11.449,13.675L363.14,242.193l-23.584,25.156,11.449,12.213Z" transform="translate(-229.215 -163.327)" fill="#fff"/><path d="M288.14,240.731l12.82,13.675-24.955,26.618-12.82-13.675Zm11.449,13.675L288.14,242.193l-23.584,25.156,11.449,12.213Z" transform="translate(-178.484 -163.327)" fill="#fff"/><path d="M213.14,240.731l12.82,13.675-24.955,26.618-12.82-13.675Zm11.449,13.675L213.14,242.193l-23.584,25.156,11.449,12.213Z" transform="translate(-127.754 -163.327)" fill="#fff"/><path d="M138.14,240.731l12.82,13.675-24.955,26.618-12.82-13.675Zm11.449,13.675L138.14,242.193l-23.584,25.156,11.449,12.213Z" transform="translate(-77.023 -163.327)" fill="#fff"/><path d="M63.14,240.731l12.82,13.675L51.005,281.024l-12.82-13.675Zm11.449,13.675L63.14,242.193,39.556,267.349l11.449,12.213Z" transform="translate(-26.292 -163.327)" fill="#fff"/><path d="M88.505,320.731l24.955,26.618-12.82,13.675L75.685,334.405Zm23.584,26.618L88.505,322.193,77.056,334.405l23.584,25.156Z" transform="translate(-51.658 -217.439)" fill="#fff"/><g clip-path="url(#c)"><path d="M13.505,320.731,38.46,347.349,25.64,361.024.685,334.405Zm23.584,26.618L13.505,322.193,2.056,334.405,25.64,359.562Z" transform="translate(-0.927 -217.439)" fill="#fff"/></g><path d="M163.505,320.731l24.955,26.618-12.82,13.675-24.955-26.618Zm23.584,26.618-23.584-25.156-11.449,12.213,23.584,25.156Z" transform="translate(-102.388 -217.439)" fill="#fff"/><path d="M238.506,320.731l24.955,26.618-12.82,13.675-24.955-26.618Zm23.584,26.618-23.584-25.156-11.449,12.213,23.584,25.156Z" transform="translate(-153.119 -217.439)" fill="#fff"/><path d="M313.506,320.731l24.955,26.618-12.82,13.675-24.955-26.618Zm23.584,26.618-23.584-25.156-11.449,12.213,23.584,25.156Z" transform="translate(-203.849 -217.439)" fill="#fff"/><g clip-path="url(#c)"><path d="M388.506,320.731l24.955,26.618-12.82,13.675-24.955-26.618Zm23.584,26.618-23.584-25.156-11.449,12.213,23.584,25.156Z" transform="translate(-254.58 -217.439)" fill="#fff"/></g><path d="M363.14,400.731l12.82,13.675-24.955,26.618-12.82-13.675Zm11.449,13.675L363.14,402.193l-23.584,25.156,11.449,12.213Z" transform="translate(-229.215 -271.552)" fill="#fff"/><path d="M288.14,400.731l12.82,13.675-24.955,26.618-12.82-13.675Zm11.449,13.675L288.14,402.193l-23.584,25.156,11.449,12.213Z" transform="translate(-178.484 -271.552)" fill="#fff"/><path d="M213.14,400.731l12.82,13.675-24.955,26.618-12.82-13.675Zm11.449,13.675L213.14,402.193l-23.584,25.156,11.449,12.213Z" transform="translate(-127.754 -271.552)" fill="#fff"/><path d="M138.14,400.731l12.82,13.675-24.955,26.618-12.82-13.675Zm11.449,13.675L138.14,402.193l-23.584,25.156,11.449,12.213Z" transform="translate(-77.023 -271.552)" fill="#fff"/><path d="M63.14,400.731l12.82,13.675L51.005,441.024l-12.82-13.675Zm11.449,13.675L63.14,402.193,39.556,427.349l11.449,12.213Z" transform="translate(-26.292 -271.552)" fill="#fff"/><path d="M88.505,480.731l24.955,26.618-12.82,13.675L75.685,494.406Zm23.584,26.618L88.505,482.193,77.056,494.406l23.584,25.156Z" transform="translate(-51.658 -325.665)" fill="#fff"/><g clip-path="url(#c)"><path d="M13.505,480.731,38.46,507.349,25.64,521.024.685,494.406Zm23.584,26.618L13.505,482.193,2.056,494.406,25.64,519.562Z" transform="translate(-0.927 -325.665)" fill="#fff"/></g><path d="M163.505,480.731l24.955,26.618-12.82,13.675-24.955-26.619Zm23.584,26.618-23.584-25.156-11.449,12.213,23.584,25.156Z" transform="translate(-102.388 -325.665)" fill="#fff"/><path d="M238.506,480.731l24.955,26.618-12.82,13.675-24.955-26.619Zm23.584,26.618-23.584-25.156-11.449,12.213,23.584,25.156Z" transform="translate(-153.119 -325.665)" fill="#fff"/><path d="M313.506,480.731l24.955,26.618-12.82,13.675-24.955-26.619Zm23.584,26.618-23.584-25.156-11.449,12.213,23.584,25.156Z" transform="translate(-203.849 -325.665)" fill="#fff"/><g clip-path="url(#c)"><path d="M388.506,480.731l24.955,26.618-12.82,13.675-24.955-26.619Zm23.584,26.618-23.584-25.156-11.449,12.213,23.584,25.156Z" transform="translate(-254.58 -325.665)" fill="#fff"/></g><path d="M363.14,560.731l12.82,13.675-24.955,26.619-12.82-13.675Zm11.449,13.675L363.14,562.193l-23.584,25.156,11.449,12.213Z" transform="translate(-229.215 -379.777)" fill="#fff"/><path d="M288.14,560.731l12.82,13.675-24.955,26.619-12.82-13.675Zm11.449,13.675L288.14,562.193l-23.584,25.156,11.449,12.213Z" transform="translate(-178.484 -379.777)" fill="#fff"/><path d="M213.14,560.731l12.82,13.675-24.955,26.619-12.82-13.675Zm11.449,13.675L213.14,562.193l-23.584,25.156,11.449,12.213Z" transform="translate(-127.754 -379.777)" fill="#fff"/><path d="M138.14,560.731l12.82,13.675-24.955,26.619-12.82-13.675Zm11.449,13.675L138.14,562.193l-23.584,25.156,11.449,12.213Z" transform="translate(-77.023 -379.777)" fill="#fff"/><path d="M63.14,560.731l12.82,13.675L51.005,601.024l-12.82-13.675Zm11.449,13.675L63.14,562.193,39.556,587.349l11.449,12.213Z" transform="translate(-26.292 -379.777)" fill="#fff"/><path d="M88.505,640.731l24.955,26.618-12.82,13.675L75.685,654.406Zm23.584,26.618L88.505,642.193,77.056,654.406l23.584,25.156Z" transform="translate(-51.658 -433.89)" fill="#fff"/><g clip-path="url(#c)"><path d="M13.505,640.731,38.46,667.349,25.64,681.024.685,654.406Zm23.584,26.618L13.505,642.193,2.056,654.406,25.64,679.562Z" transform="translate(-0.927 -433.89)" fill="#fff"/></g><path d="M163.505,640.731l24.955,26.618-12.82,13.675-24.955-26.619Zm23.584,26.618-23.584-25.156-11.449,12.213,23.584,25.156Z" transform="translate(-102.388 -433.89)" fill="#fff"/><path d="M238.506,640.731l24.955,26.618-12.82,13.675-24.955-26.619Zm23.584,26.618-23.584-25.156-11.449,12.213,23.584,25.156Z" transform="translate(-153.119 -433.89)" fill="#fff"/><path d="M313.506,640.731l24.955,26.618-12.82,13.675-24.955-26.619Zm23.584,26.618-23.584-25.156-11.449,12.213,23.584,25.156Z" transform="translate(-203.849 -433.89)" fill="#fff"/><g clip-path="url(#c)"><path d="M388.506,640.731l24.955,26.618-12.82,13.675-24.955-26.619Zm23.584,26.618-23.584-25.156-11.449,12.213,23.584,25.156Z" transform="translate(-254.58 -433.89)" fill="#fff"/><path d="M363.14,720.731l12.82,13.675-24.955,26.619-12.82-13.675Zm11.449,13.675L363.14,722.193l-23.584,25.156,11.449,12.213Z" transform="translate(-229.215 -488.002)" fill="#fff"/><path d="M288.14,720.731l12.82,13.675-24.955,26.619-12.82-13.675Zm11.449,13.675L288.14,722.193l-23.584,25.156,11.449,12.213Z" transform="translate(-178.484 -488.002)" fill="#fff"/><path d="M213.14,720.731l12.82,13.675-24.955,26.619-12.82-13.675Zm11.449,13.675L213.14,722.193l-23.584,25.156,11.449,12.213Z" transform="translate(-127.754 -488.002)" fill="#fff"/><path d="M138.14,720.731l12.82,13.675-24.955,26.619-12.82-13.675Zm11.449,13.675L138.14,722.193l-23.584,25.156,11.449,12.213Z" transform="translate(-77.023 -488.002)" fill="#fff"/><path d="M63.14,720.731l12.82,13.675L51.005,761.024l-12.82-13.675Zm11.449,13.675L63.14,722.193,39.556,747.349l11.449,12.213Z" transform="translate(-26.292 -488.002)" fill="#fff"/></g></g><g transform="translate(-5097.635 -237)"><g clip-path="url(#c)"><path d="M88.505.731,113.46,27.349,100.64,41.024,75.685,14.405Zm23.584,26.618L88.505,2.193,77.056,14.405,100.64,39.562Z" transform="translate(-51.658 -0.989)" fill="#fff"/><path d="M13.505.731,38.46,27.349,25.64,41.024.685,14.405ZM37.089,27.349,13.505,2.193,2.056,14.405,25.64,39.562Z" transform="translate(-0.927 -0.989)" fill="#fff"/><path d="M163.505.731,188.46,27.349,175.64,41.024,150.685,14.405ZM187.09,27.349,163.505,2.193,152.056,14.405,175.64,39.562Z" transform="translate(-102.388 -0.989)" fill="#fff"/><path d="M238.506.731,263.46,27.349,250.64,41.024,225.685,14.405ZM262.09,27.349,238.506,2.193,227.056,14.405,250.64,39.562Z" transform="translate(-153.119 -0.989)" fill="#fff"/><path d="M313.506.731,338.46,27.349,325.64,41.024,300.685,14.405ZM337.09,27.349,313.506,2.193,302.056,14.405,325.64,39.562Z" transform="translate(-203.849 -0.989)" fill="#fff"/><path d="M388.506.731,413.46,27.349,400.64,41.024,375.685,14.405ZM412.09,27.349,388.506,2.193,377.056,14.405,400.64,39.562Z" transform="translate(-254.58 -0.989)" fill="#fff"/></g><path d="M363.14,80.731l12.82,13.675-24.955,26.618-12.82-13.675ZM374.59,94.405,363.14,82.193l-23.584,25.156,11.449,12.213Z" transform="translate(-229.215 -55.101)" fill="#fff"/><path d="M288.14,80.731l12.82,13.675-24.955,26.618-12.82-13.675ZM299.59,94.405,288.14,82.193l-23.584,25.156,11.449,12.213Z" transform="translate(-178.484 -55.101)" fill="#fff"/><path d="M213.14,80.731l12.82,13.675-24.955,26.618-12.82-13.675ZM224.59,94.405,213.14,82.193l-23.584,25.156,11.449,12.213Z" transform="translate(-127.754 -55.101)" fill="#fff"/><path d="M138.14,80.731l12.82,13.675-24.955,26.618-12.82-13.675Zm11.449,13.675L138.14,82.193l-23.584,25.156,11.449,12.213Z" transform="translate(-77.023 -55.101)" fill="#fff"/><path d="M63.14,80.731,75.96,94.405,51.005,121.024l-12.82-13.675ZM74.589,94.405,63.14,82.193,39.556,107.349l11.449,12.213Z" transform="translate(-26.292 -55.101)" fill="#fff"/><path d="M88.505,160.731l24.955,26.618-12.82,13.675L75.685,174.406Zm23.584,26.618L88.505,162.193,77.056,174.406l23.584,25.156Z" transform="translate(-51.658 -109.214)" fill="#fff"/><g clip-path="url(#c)"><path d="M13.505,160.731,38.46,187.349,25.64,201.024.685,174.406Zm23.584,26.618L13.505,162.193,2.056,174.406,25.64,199.562Z" transform="translate(-0.927 -109.214)" fill="#fff"/></g><path d="M163.505,160.731l24.955,26.618-12.82,13.675-24.955-26.618Zm23.584,26.618-23.584-25.156-11.449,12.213,23.584,25.156Z" transform="translate(-102.388 -109.214)" fill="#fff"/><path d="M238.506,160.731l24.955,26.618-12.82,13.675-24.955-26.618Zm23.584,26.618-23.584-25.156-11.449,12.213,23.584,25.156Z" transform="translate(-153.119 -109.214)" fill="#fff"/><path d="M313.506,160.731l24.955,26.618-12.82,13.675-24.955-26.618Zm23.584,26.618-23.584-25.156-11.449,12.213,23.584,25.156Z" transform="translate(-203.849 -109.214)" fill="#fff"/><g clip-path="url(#c)"><path d="M388.506,160.731l24.955,26.618-12.82,13.675-24.955-26.618Zm23.584,26.618-23.584-25.156-11.449,12.213,23.584,25.156Z" transform="translate(-254.58 -109.214)" fill="#fff"/></g><path d="M363.14,240.731l12.82,13.675-24.955,26.618-12.82-13.675Zm11.449,13.675L363.14,242.193l-23.584,25.156,11.449,12.213Z" transform="translate(-229.215 -163.327)" fill="#fff"/><path d="M288.14,240.731l12.82,13.675-24.955,26.618-12.82-13.675Zm11.449,13.675L288.14,242.193l-23.584,25.156,11.449,12.213Z" transform="translate(-178.484 -163.327)" fill="#fff"/><path d="M213.14,240.731l12.82,13.675-24.955,26.618-12.82-13.675Zm11.449,13.675L213.14,242.193l-23.584,25.156,11.449,12.213Z" transform="translate(-127.754 -163.327)" fill="#fff"/><path d="M138.14,240.731l12.82,13.675-24.955,26.618-12.82-13.675Zm11.449,13.675L138.14,242.193l-23.584,25.156,11.449,12.213Z" transform="translate(-77.023 -163.327)" fill="#fff"/><path d="M63.14,240.731l12.82,13.675L51.005,281.024l-12.82-13.675Zm11.449,13.675L63.14,242.193,39.556,267.349l11.449,12.213Z" transform="translate(-26.292 -163.327)" fill="#fff"/><path d="M88.505,320.731l24.955,26.618-12.82,13.675L75.685,334.405Zm23.584,26.618L88.505,322.193,77.056,334.405l23.584,25.156Z" transform="translate(-51.658 -217.439)" fill="#fff"/><g clip-path="url(#c)"><path d="M13.505,320.731,38.46,347.349,25.64,361.024.685,334.405Zm23.584,26.618L13.505,322.193,2.056,334.405,25.64,359.562Z" transform="translate(-0.927 -217.439)" fill="#fff"/></g><path d="M163.505,320.731l24.955,26.618-12.82,13.675-24.955-26.618Zm23.584,26.618-23.584-25.156-11.449,12.213,23.584,25.156Z" transform="translate(-102.388 -217.439)" fill="#fff"/><path d="M238.506,320.731l24.955,26.618-12.82,13.675-24.955-26.618Zm23.584,26.618-23.584-25.156-11.449,12.213,23.584,25.156Z" transform="translate(-153.119 -217.439)" fill="#fff"/><path d="M313.506,320.731l24.955,26.618-12.82,13.675-24.955-26.618Zm23.584,26.618-23.584-25.156-11.449,12.213,23.584,25.156Z" transform="translate(-203.849 -217.439)" fill="#fff"/><g clip-path="url(#c)"><path d="M388.506,320.731l24.955,26.618-12.82,13.675-24.955-26.618Zm23.584,26.618-23.584-25.156-11.449,12.213,23.584,25.156Z" transform="translate(-254.58 -217.439)" fill="#fff"/></g><path d="M363.14,400.731l12.82,13.675-24.955,26.618-12.82-13.675Zm11.449,13.675L363.14,402.193l-23.584,25.156,11.449,12.213Z" transform="translate(-229.215 -271.552)" fill="#fff"/><path d="M288.14,400.731l12.82,13.675-24.955,26.618-12.82-13.675Zm11.449,13.675L288.14,402.193l-23.584,25.156,11.449,12.213Z" transform="translate(-178.484 -271.552)" fill="#fff"/><path d="M213.14,400.731l12.82,13.675-24.955,26.618-12.82-13.675Zm11.449,13.675L213.14,402.193l-23.584,25.156,11.449,12.213Z" transform="translate(-127.754 -271.552)" fill="#fff"/><path d="M138.14,400.731l12.82,13.675-24.955,26.618-12.82-13.675Zm11.449,13.675L138.14,402.193l-23.584,25.156,11.449,12.213Z" transform="translate(-77.023 -271.552)" fill="#fff"/><path d="M63.14,400.731l12.82,13.675L51.005,441.024l-12.82-13.675Zm11.449,13.675L63.14,402.193,39.556,427.349l11.449,12.213Z" transform="translate(-26.292 -271.552)" fill="#fff"/><path d="M88.505,480.731l24.955,26.618-12.82,13.675L75.685,494.406Zm23.584,26.618L88.505,482.193,77.056,494.406l23.584,25.156Z" transform="translate(-51.658 -325.665)" fill="#fff"/><g clip-path="url(#c)"><path d="M13.505,480.731,38.46,507.349,25.64,521.024.685,494.406Zm23.584,26.618L13.505,482.193,2.056,494.406,25.64,519.562Z" transform="translate(-0.927 -325.665)" fill="#fff"/></g><path d="M163.505,480.731l24.955,26.618-12.82,13.675-24.955-26.619Zm23.584,26.618-23.584-25.156-11.449,12.213,23.584,25.156Z" transform="translate(-102.388 -325.665)" fill="#fff"/><path d="M238.506,480.731l24.955,26.618-12.82,13.675-24.955-26.619Zm23.584,26.618-23.584-25.156-11.449,12.213,23.584,25.156Z" transform="translate(-153.119 -325.665)" fill="#fff"/><path d="M313.506,480.731l24.955,26.618-12.82,13.675-24.955-26.619Zm23.584,26.618-23.584-25.156-11.449,12.213,23.584,25.156Z" transform="translate(-203.849 -325.665)" fill="#fff"/><g clip-path="url(#c)"><path d="M388.506,480.731l24.955,26.618-12.82,13.675-24.955-26.619Zm23.584,26.618-23.584-25.156-11.449,12.213,23.584,25.156Z" transform="translate(-254.58 -325.665)" fill="#fff"/></g><path d="M363.14,560.731l12.82,13.675-24.955,26.619-12.82-13.675Zm11.449,13.675L363.14,562.193l-23.584,25.156,11.449,12.213Z" transform="translate(-229.215 -379.777)" fill="#fff"/><path d="M288.14,560.731l12.82,13.675-24.955,26.619-12.82-13.675Zm11.449,13.675L288.14,562.193l-23.584,25.156,11.449,12.213Z" transform="translate(-178.484 -379.777)" fill="#fff"/><path d="M213.14,560.731l12.82,13.675-24.955,26.619-12.82-13.675Zm11.449,13.675L213.14,562.193l-23.584,25.156,11.449,12.213Z" transform="translate(-127.754 -379.777)" fill="#fff"/><path d="M138.14,560.731l12.82,13.675-24.955,26.619-12.82-13.675Zm11.449,13.675L138.14,562.193l-23.584,25.156,11.449,12.213Z" transform="translate(-77.023 -379.777)" fill="#fff"/><path d="M63.14,560.731l12.82,13.675L51.005,601.024l-12.82-13.675Zm11.449,13.675L63.14,562.193,39.556,587.349l11.449,12.213Z" transform="translate(-26.292 -379.777)" fill="#fff"/><path d="M88.505,640.731l24.955,26.618-12.82,13.675L75.685,654.406Zm23.584,26.618L88.505,642.193,77.056,654.406l23.584,25.156Z" transform="translate(-51.658 -433.89)" fill="#fff"/><g clip-path="url(#c)"><path d="M13.505,640.731,38.46,667.349,25.64,681.024.685,654.406Zm23.584,26.618L13.505,642.193,2.056,654.406,25.64,679.562Z" transform="translate(-0.927 -433.89)" fill="#fff"/></g><path d="M163.505,640.731l24.955,26.618-12.82,13.675-24.955-26.619Zm23.584,26.618-23.584-25.156-11.449,12.213,23.584,25.156Z" transform="translate(-102.388 -433.89)" fill="#fff"/><path d="M238.506,640.731l24.955,26.618-12.82,13.675-24.955-26.619Zm23.584,26.618-23.584-25.156-11.449,12.213,23.584,25.156Z" transform="translate(-153.119 -433.89)" fill="#fff"/><path d="M313.506,640.731l24.955,26.618-12.82,13.675-24.955-26.619Zm23.584,26.618-23.584-25.156-11.449,12.213,23.584,25.156Z" transform="translate(-203.849 -433.89)" fill="#fff"/><g clip-path="url(#c)"><path d="M388.506,640.731l24.955,26.618-12.82,13.675-24.955-26.619Zm23.584,26.618-23.584-25.156-11.449,12.213,23.584,25.156Z" transform="translate(-254.58 -433.89)" fill="#fff"/><path d="M363.14,720.731l12.82,13.675-24.955,26.619-12.82-13.675Zm11.449,13.675L363.14,722.193l-23.584,25.156,11.449,12.213Z" transform="translate(-229.215 -488.002)" fill="#fff"/><path d="M288.14,720.731l12.82,13.675-24.955,26.619-12.82-13.675Zm11.449,13.675L288.14,722.193l-23.584,25.156,11.449,12.213Z" transform="translate(-178.484 -488.002)" fill="#fff"/><path d="M213.14,720.731l12.82,13.675-24.955,26.619-12.82-13.675Zm11.449,13.675L213.14,722.193l-23.584,25.156,11.449,12.213Z" transform="translate(-127.754 -488.002)" fill="#fff"/><path d="M138.14,720.731l12.82,13.675-24.955,26.619-12.82-13.675Zm11.449,13.675L138.14,722.193l-23.584,25.156,11.449,12.213Z" transform="translate(-77.023 -488.002)" fill="#fff"/><path d="M63.14,720.731l12.82,13.675L51.005,761.024l-12.82-13.675Zm11.449,13.675L63.14,722.193,39.556,747.349l11.449,12.213Z" transform="translate(-26.292 -488.002)" fill="#fff"/></g></g><g transform="translate(-4976.039 -237)"><g clip-path="url(#c)"><path d="M88.505.731,113.46,27.349,100.64,41.024,75.685,14.405Zm23.584,26.618L88.505,2.193,77.056,14.405,100.64,39.562Z" transform="translate(-51.658 -0.989)" fill="#fff"/><path d="M13.505.731,38.46,27.349,25.64,41.024.685,14.405ZM37.089,27.349,13.505,2.193,2.056,14.405,25.64,39.562Z" transform="translate(-0.927 -0.989)" fill="#fff"/><path d="M163.505.731,188.46,27.349,175.64,41.024,150.685,14.405ZM187.09,27.349,163.505,2.193,152.056,14.405,175.64,39.562Z" transform="translate(-102.388 -0.989)" fill="#fff"/><path d="M238.506.731,263.46,27.349,250.64,41.024,225.685,14.405ZM262.09,27.349,238.506,2.193,227.056,14.405,250.64,39.562Z" transform="translate(-153.119 -0.989)" fill="#fff"/><path d="M313.506.731,338.46,27.349,325.64,41.024,300.685,14.405ZM337.09,27.349,313.506,2.193,302.056,14.405,325.64,39.562Z" transform="translate(-203.849 -0.989)" fill="#fff"/><path d="M388.506.731,413.46,27.349,400.64,41.024,375.685,14.405ZM412.09,27.349,388.506,2.193,377.056,14.405,400.64,39.562Z" transform="translate(-254.58 -0.989)" fill="#fff"/></g><path d="M363.14,80.731l12.82,13.675-24.955,26.618-12.82-13.675ZM374.59,94.405,363.14,82.193l-23.584,25.156,11.449,12.213Z" transform="translate(-229.215 -55.101)" fill="#fff"/><path d="M288.14,80.731l12.82,13.675-24.955,26.618-12.82-13.675ZM299.59,94.405,288.14,82.193l-23.584,25.156,11.449,12.213Z" transform="translate(-178.484 -55.101)" fill="#fff"/><path d="M213.14,80.731l12.82,13.675-24.955,26.618-12.82-13.675ZM224.59,94.405,213.14,82.193l-23.584,25.156,11.449,12.213Z" transform="translate(-127.754 -55.101)" fill="#fff"/><path d="M138.14,80.731l12.82,13.675-24.955,26.618-12.82-13.675Zm11.449,13.675L138.14,82.193l-23.584,25.156,11.449,12.213Z" transform="translate(-77.023 -55.101)" fill="#fff"/><path d="M63.14,80.731,75.96,94.405,51.005,121.024l-12.82-13.675ZM74.589,94.405,63.14,82.193,39.556,107.349l11.449,12.213Z" transform="translate(-26.292 -55.101)" fill="#fff"/><path d="M88.505,160.731l24.955,26.618-12.82,13.675L75.685,174.406Zm23.584,26.618L88.505,162.193,77.056,174.406l23.584,25.156Z" transform="translate(-51.658 -109.214)" fill="#fff"/><g clip-path="url(#c)"><path d="M13.505,160.731,38.46,187.349,25.64,201.024.685,174.406Zm23.584,26.618L13.505,162.193,2.056,174.406,25.64,199.562Z" transform="translate(-0.927 -109.214)" fill="#fff"/></g><path d="M163.505,160.731l24.955,26.618-12.82,13.675-24.955-26.618Zm23.584,26.618-23.584-25.156-11.449,12.213,23.584,25.156Z" transform="translate(-102.388 -109.214)" fill="#fff"/><path d="M238.506,160.731l24.955,26.618-12.82,13.675-24.955-26.618Zm23.584,26.618-23.584-25.156-11.449,12.213,23.584,25.156Z" transform="translate(-153.119 -109.214)" fill="#fff"/><path d="M313.506,160.731l24.955,26.618-12.82,13.675-24.955-26.618Zm23.584,26.618-23.584-25.156-11.449,12.213,23.584,25.156Z" transform="translate(-203.849 -109.214)" fill="#fff"/><g clip-path="url(#c)"><path d="M388.506,160.731l24.955,26.618-12.82,13.675-24.955-26.618Zm23.584,26.618-23.584-25.156-11.449,12.213,23.584,25.156Z" transform="translate(-254.58 -109.214)" fill="#fff"/></g><path d="M363.14,240.731l12.82,13.675-24.955,26.618-12.82-13.675Zm11.449,13.675L363.14,242.193l-23.584,25.156,11.449,12.213Z" transform="translate(-229.215 -163.327)" fill="#fff"/><path d="M288.14,240.731l12.82,13.675-24.955,26.618-12.82-13.675Zm11.449,13.675L288.14,242.193l-23.584,25.156,11.449,12.213Z" transform="translate(-178.484 -163.327)" fill="#fff"/><path d="M213.14,240.731l12.82,13.675-24.955,26.618-12.82-13.675Zm11.449,13.675L213.14,242.193l-23.584,25.156,11.449,12.213Z" transform="translate(-127.754 -163.327)" fill="#fff"/><path d="M138.14,240.731l12.82,13.675-24.955,26.618-12.82-13.675Zm11.449,13.675L138.14,242.193l-23.584,25.156,11.449,12.213Z" transform="translate(-77.023 -163.327)" fill="#fff"/><path d="M63.14,240.731l12.82,13.675L51.005,281.024l-12.82-13.675Zm11.449,13.675L63.14,242.193,39.556,267.349l11.449,12.213Z" transform="translate(-26.292 -163.327)" fill="#fff"/><path d="M88.505,320.731l24.955,26.618-12.82,13.675L75.685,334.405Zm23.584,26.618L88.505,322.193,77.056,334.405l23.584,25.156Z" transform="translate(-51.658 -217.439)" fill="#fff"/><g clip-path="url(#c)"><path d="M13.505,320.731,38.46,347.349,25.64,361.024.685,334.405Zm23.584,26.618L13.505,322.193,2.056,334.405,25.64,359.562Z" transform="translate(-0.927 -217.439)" fill="#fff"/></g><path d="M163.505,320.731l24.955,26.618-12.82,13.675-24.955-26.618Zm23.584,26.618-23.584-25.156-11.449,12.213,23.584,25.156Z" transform="translate(-102.388 -217.439)" fill="#fff"/><path d="M238.506,320.731l24.955,26.618-12.82,13.675-24.955-26.618Zm23.584,26.618-23.584-25.156-11.449,12.213,23.584,25.156Z" transform="translate(-153.119 -217.439)" fill="#fff"/><path d="M313.506,320.731l24.955,26.618-12.82,13.675-24.955-26.618Zm23.584,26.618-23.584-25.156-11.449,12.213,23.584,25.156Z" transform="translate(-203.849 -217.439)" fill="#fff"/><g clip-path="url(#c)"><path d="M388.506,320.731l24.955,26.618-12.82,13.675-24.955-26.618Zm23.584,26.618-23.584-25.156-11.449,12.213,23.584,25.156Z" transform="translate(-254.58 -217.439)" fill="#fff"/></g><path d="M363.14,400.731l12.82,13.675-24.955,26.618-12.82-13.675Zm11.449,13.675L363.14,402.193l-23.584,25.156,11.449,12.213Z" transform="translate(-229.215 -271.552)" fill="#fff"/><path d="M288.14,400.731l12.82,13.675-24.955,26.618-12.82-13.675Zm11.449,13.675L288.14,402.193l-23.584,25.156,11.449,12.213Z" transform="translate(-178.484 -271.552)" fill="#fff"/><path d="M213.14,400.731l12.82,13.675-24.955,26.618-12.82-13.675Zm11.449,13.675L213.14,402.193l-23.584,25.156,11.449,12.213Z" transform="translate(-127.754 -271.552)" fill="#fff"/><path d="M138.14,400.731l12.82,13.675-24.955,26.618-12.82-13.675Zm11.449,13.675L138.14,402.193l-23.584,25.156,11.449,12.213Z" transform="translate(-77.023 -271.552)" fill="#fff"/><path d="M63.14,400.731l12.82,13.675L51.005,441.024l-12.82-13.675Zm11.449,13.675L63.14,402.193,39.556,427.349l11.449,12.213Z" transform="translate(-26.292 -271.552)" fill="#fff"/><path d="M88.505,480.731l24.955,26.618-12.82,13.675L75.685,494.406Zm23.584,26.618L88.505,482.193,77.056,494.406l23.584,25.156Z" transform="translate(-51.658 -325.665)" fill="#fff"/><g clip-path="url(#c)"><path d="M13.505,480.731,38.46,507.349,25.64,521.024.685,494.406Zm23.584,26.618L13.505,482.193,2.056,494.406,25.64,519.562Z" transform="translate(-0.927 -325.665)" fill="#fff"/></g><path d="M163.505,480.731l24.955,26.618-12.82,13.675-24.955-26.619Zm23.584,26.618-23.584-25.156-11.449,12.213,23.584,25.156Z" transform="translate(-102.388 -325.665)" fill="#fff"/><path d="M238.506,480.731l24.955,26.618-12.82,13.675-24.955-26.619Zm23.584,26.618-23.584-25.156-11.449,12.213,23.584,25.156Z" transform="translate(-153.119 -325.665)" fill="#fff"/><path d="M313.506,480.731l24.955,26.618-12.82,13.675-24.955-26.619Zm23.584,26.618-23.584-25.156-11.449,12.213,23.584,25.156Z" transform="translate(-203.849 -325.665)" fill="#fff"/><g clip-path="url(#c)"><path d="M388.506,480.731l24.955,26.618-12.82,13.675-24.955-26.619Zm23.584,26.618-23.584-25.156-11.449,12.213,23.584,25.156Z" transform="translate(-254.58 -325.665)" fill="#fff"/></g><path d="M363.14,560.731l12.82,13.675-24.955,26.619-12.82-13.675Zm11.449,13.675L363.14,562.193l-23.584,25.156,11.449,12.213Z" transform="translate(-229.215 -379.777)" fill="#fff"/><path d="M288.14,560.731l12.82,13.675-24.955,26.619-12.82-13.675Zm11.449,13.675L288.14,562.193l-23.584,25.156,11.449,12.213Z" transform="translate(-178.484 -379.777)" fill="#fff"/><path d="M213.14,560.731l12.82,13.675-24.955,26.619-12.82-13.675Zm11.449,13.675L213.14,562.193l-23.584,25.156,11.449,12.213Z" transform="translate(-127.754 -379.777)" fill="#fff"/><path d="M138.14,560.731l12.82,13.675-24.955,26.619-12.82-13.675Zm11.449,13.675L138.14,562.193l-23.584,25.156,11.449,12.213Z" transform="translate(-77.023 -379.777)" fill="#fff"/><path d="M63.14,560.731l12.82,13.675L51.005,601.024l-12.82-13.675Zm11.449,13.675L63.14,562.193,39.556,587.349l11.449,12.213Z" transform="translate(-26.292 -379.777)" fill="#fff"/><path d="M88.505,640.731l24.955,26.618-12.82,13.675L75.685,654.406Zm23.584,26.618L88.505,642.193,77.056,654.406l23.584,25.156Z" transform="translate(-51.658 -433.89)" fill="#fff"/><g clip-path="url(#c)"><path d="M13.505,640.731,38.46,667.349,25.64,681.024.685,654.406Zm23.584,26.618L13.505,642.193,2.056,654.406,25.64,679.562Z" transform="translate(-0.927 -433.89)" fill="#fff"/></g><path d="M163.505,640.731l24.955,26.618-12.82,13.675-24.955-26.619Zm23.584,26.618-23.584-25.156-11.449,12.213,23.584,25.156Z" transform="translate(-102.388 -433.89)" fill="#fff"/><path d="M238.506,640.731l24.955,26.618-12.82,13.675-24.955-26.619Zm23.584,26.618-23.584-25.156-11.449,12.213,23.584,25.156Z" transform="translate(-153.119 -433.89)" fill="#fff"/><path d="M313.506,640.731l24.955,26.618-12.82,13.675-24.955-26.619Zm23.584,26.618-23.584-25.156-11.449,12.213,23.584,25.156Z" transform="translate(-203.849 -433.89)" fill="#fff"/><g clip-path="url(#c)"><path d="M388.506,640.731l24.955,26.618-12.82,13.675-24.955-26.619Zm23.584,26.618-23.584-25.156-11.449,12.213,23.584,25.156Z" transform="translate(-254.58 -433.89)" fill="#fff"/><path d="M363.14,720.731l12.82,13.675-24.955,26.619-12.82-13.675Zm11.449,13.675L363.14,722.193l-23.584,25.156,11.449,12.213Z" transform="translate(-229.215 -488.002)" fill="#fff"/><path d="M288.14,720.731l12.82,13.675-24.955,26.619-12.82-13.675Zm11.449,13.675L288.14,722.193l-23.584,25.156,11.449,12.213Z" transform="translate(-178.484 -488.002)" fill="#fff"/><path d="M213.14,720.731l12.82,13.675-24.955,26.619-12.82-13.675Zm11.449,13.675L213.14,722.193l-23.584,25.156,11.449,12.213Z" transform="translate(-127.754 -488.002)" fill="#fff"/><path d="M138.14,720.731l12.82,13.675-24.955,26.619-12.82-13.675Zm11.449,13.675L138.14,722.193l-23.584,25.156,11.449,12.213Z" transform="translate(-77.023 -488.002)" fill="#fff"/><path d="M63.14,720.731l12.82,13.675L51.005,761.024l-12.82-13.675Zm11.449,13.675L63.14,722.193,39.556,747.349l11.449,12.213Z" transform="translate(-26.292 -488.002)" fill="#fff"/></g></g><g transform="translate(-4854.441 -237)"><g clip-path="url(#c)"><path d="M88.505.731,113.46,27.349,100.64,41.024,75.685,14.405Zm23.584,26.618L88.505,2.193,77.056,14.405,100.64,39.562Z" transform="translate(-51.658 -0.989)" fill="#fff"/><path d="M13.505.731,38.46,27.349,25.64,41.024.685,14.405ZM37.089,27.349,13.505,2.193,2.056,14.405,25.64,39.562Z" transform="translate(-0.927 -0.989)" fill="#fff"/><path d="M163.505.731,188.46,27.349,175.64,41.024,150.685,14.405ZM187.09,27.349,163.505,2.193,152.056,14.405,175.64,39.562Z" transform="translate(-102.388 -0.989)" fill="#fff"/><path d="M238.506.731,263.46,27.349,250.64,41.024,225.685,14.405ZM262.09,27.349,238.506,2.193,227.056,14.405,250.64,39.562Z" transform="translate(-153.119 -0.989)" fill="#fff"/><path d="M313.506.731,338.46,27.349,325.64,41.024,300.685,14.405ZM337.09,27.349,313.506,2.193,302.056,14.405,325.64,39.562Z" transform="translate(-203.849 -0.989)" fill="#fff"/><path d="M388.506.731,413.46,27.349,400.64,41.024,375.685,14.405ZM412.09,27.349,388.506,2.193,377.056,14.405,400.64,39.562Z" transform="translate(-254.58 -0.989)" fill="#fff"/></g><path d="M363.14,80.731l12.82,13.675-24.955,26.618-12.82-13.675ZM374.59,94.405,363.14,82.193l-23.584,25.156,11.449,12.213Z" transform="translate(-229.215 -55.101)" fill="#fff"/><path d="M288.14,80.731l12.82,13.675-24.955,26.618-12.82-13.675ZM299.59,94.405,288.14,82.193l-23.584,25.156,11.449,12.213Z" transform="translate(-178.484 -55.101)" fill="#fff"/><path d="M213.14,80.731l12.82,13.675-24.955,26.618-12.82-13.675ZM224.59,94.405,213.14,82.193l-23.584,25.156,11.449,12.213Z" transform="translate(-127.754 -55.101)" fill="#fff"/><path d="M138.14,80.731l12.82,13.675-24.955,26.618-12.82-13.675Zm11.449,13.675L138.14,82.193l-23.584,25.156,11.449,12.213Z" transform="translate(-77.023 -55.101)" fill="#fff"/><path d="M63.14,80.731,75.96,94.405,51.005,121.024l-12.82-13.675ZM74.589,94.405,63.14,82.193,39.556,107.349l11.449,12.213Z" transform="translate(-26.292 -55.101)" fill="#fff"/><path d="M88.505,160.731l24.955,26.618-12.82,13.675L75.685,174.406Zm23.584,26.618L88.505,162.193,77.056,174.406l23.584,25.156Z" transform="translate(-51.658 -109.214)" fill="#fff"/><g clip-path="url(#c)"><path d="M13.505,160.731,38.46,187.349,25.64,201.024.685,174.406Zm23.584,26.618L13.505,162.193,2.056,174.406,25.64,199.562Z" transform="translate(-0.927 -109.214)" fill="#fff"/></g><path d="M163.505,160.731l24.955,26.618-12.82,13.675-24.955-26.618Zm23.584,26.618-23.584-25.156-11.449,12.213,23.584,25.156Z" transform="translate(-102.388 -109.214)" fill="#fff"/><path d="M238.506,160.731l24.955,26.618-12.82,13.675-24.955-26.618Zm23.584,26.618-23.584-25.156-11.449,12.213,23.584,25.156Z" transform="translate(-153.119 -109.214)" fill="#fff"/><path d="M313.506,160.731l24.955,26.618-12.82,13.675-24.955-26.618Zm23.584,26.618-23.584-25.156-11.449,12.213,23.584,25.156Z" transform="translate(-203.849 -109.214)" fill="#fff"/><g clip-path="url(#c)"><path d="M388.506,160.731l24.955,26.618-12.82,13.675-24.955-26.618Zm23.584,26.618-23.584-25.156-11.449,12.213,23.584,25.156Z" transform="translate(-254.58 -109.214)" fill="#fff"/></g><path d="M363.14,240.731l12.82,13.675-24.955,26.618-12.82-13.675Zm11.449,13.675L363.14,242.193l-23.584,25.156,11.449,12.213Z" transform="translate(-229.215 -163.327)" fill="#fff"/><path d="M288.14,240.731l12.82,13.675-24.955,26.618-12.82-13.675Zm11.449,13.675L288.14,242.193l-23.584,25.156,11.449,12.213Z" transform="translate(-178.484 -163.327)" fill="#fff"/><path d="M213.14,240.731l12.82,13.675-24.955,26.618-12.82-13.675Zm11.449,13.675L213.14,242.193l-23.584,25.156,11.449,12.213Z" transform="translate(-127.754 -163.327)" fill="#fff"/><path d="M138.14,240.731l12.82,13.675-24.955,26.618-12.82-13.675Zm11.449,13.675L138.14,242.193l-23.584,25.156,11.449,12.213Z" transform="translate(-77.023 -163.327)" fill="#fff"/><path d="M63.14,240.731l12.82,13.675L51.005,281.024l-12.82-13.675Zm11.449,13.675L63.14,242.193,39.556,267.349l11.449,12.213Z" transform="translate(-26.292 -163.327)" fill="#fff"/><path d="M88.505,320.731l24.955,26.618-12.82,13.675L75.685,334.405Zm23.584,26.618L88.505,322.193,77.056,334.405l23.584,25.156Z" transform="translate(-51.658 -217.439)" fill="#fff"/><g clip-path="url(#c)"><path d="M13.505,320.731,38.46,347.349,25.64,361.024.685,334.405Zm23.584,26.618L13.505,322.193,2.056,334.405,25.64,359.562Z" transform="translate(-0.927 -217.439)" fill="#fff"/></g><path d="M163.505,320.731l24.955,26.618-12.82,13.675-24.955-26.618Zm23.584,26.618-23.584-25.156-11.449,12.213,23.584,25.156Z" transform="translate(-102.388 -217.439)" fill="#fff"/><path d="M238.506,320.731l24.955,26.618-12.82,13.675-24.955-26.618Zm23.584,26.618-23.584-25.156-11.449,12.213,23.584,25.156Z" transform="translate(-153.119 -217.439)" fill="#fff"/><path d="M313.506,320.731l24.955,26.618-12.82,13.675-24.955-26.618Zm23.584,26.618-23.584-25.156-11.449,12.213,23.584,25.156Z" transform="translate(-203.849 -217.439)" fill="#fff"/><g clip-path="url(#c)"><path d="M388.506,320.731l24.955,26.618-12.82,13.675-24.955-26.618Zm23.584,26.618-23.584-25.156-11.449,12.213,23.584,25.156Z" transform="translate(-254.58 -217.439)" fill="#fff"/></g><path d="M363.14,400.731l12.82,13.675-24.955,26.618-12.82-13.675Zm11.449,13.675L363.14,402.193l-23.584,25.156,11.449,12.213Z" transform="translate(-229.215 -271.552)" fill="#fff"/><path d="M288.14,400.731l12.82,13.675-24.955,26.618-12.82-13.675Zm11.449,13.675L288.14,402.193l-23.584,25.156,11.449,12.213Z" transform="translate(-178.484 -271.552)" fill="#fff"/><path d="M213.14,400.731l12.82,13.675-24.955,26.618-12.82-13.675Zm11.449,13.675L213.14,402.193l-23.584,25.156,11.449,12.213Z" transform="translate(-127.754 -271.552)" fill="#fff"/><path d="M138.14,400.731l12.82,13.675-24.955,26.618-12.82-13.675Zm11.449,13.675L138.14,402.193l-23.584,25.156,11.449,12.213Z" transform="translate(-77.023 -271.552)" fill="#fff"/><path d="M63.14,400.731l12.82,13.675L51.005,441.024l-12.82-13.675Zm11.449,13.675L63.14,402.193,39.556,427.349l11.449,12.213Z" transform="translate(-26.292 -271.552)" fill="#fff"/><path d="M88.505,480.731l24.955,26.618-12.82,13.675L75.685,494.406Zm23.584,26.618L88.505,482.193,77.056,494.406l23.584,25.156Z" transform="translate(-51.658 -325.665)" fill="#fff"/><g clip-path="url(#c)"><path d="M13.505,480.731,38.46,507.349,25.64,521.024.685,494.406Zm23.584,26.618L13.505,482.193,2.056,494.406,25.64,519.562Z" transform="translate(-0.927 -325.665)" fill="#fff"/></g><path d="M163.505,480.731l24.955,26.618-12.82,13.675-24.955-26.619Zm23.584,26.618-23.584-25.156-11.449,12.213,23.584,25.156Z" transform="translate(-102.388 -325.665)" fill="#fff"/><path d="M238.506,480.731l24.955,26.618-12.82,13.675-24.955-26.619Zm23.584,26.618-23.584-25.156-11.449,12.213,23.584,25.156Z" transform="translate(-153.119 -325.665)" fill="#fff"/><path d="M313.506,480.731l24.955,26.618-12.82,13.675-24.955-26.619Zm23.584,26.618-23.584-25.156-11.449,12.213,23.584,25.156Z" transform="translate(-203.849 -325.665)" fill="#fff"/><g clip-path="url(#c)"><path d="M388.506,480.731l24.955,26.618-12.82,13.675-24.955-26.619Zm23.584,26.618-23.584-25.156-11.449,12.213,23.584,25.156Z" transform="translate(-254.58 -325.665)" fill="#fff"/></g><path d="M363.14,560.731l12.82,13.675-24.955,26.619-12.82-13.675Zm11.449,13.675L363.14,562.193l-23.584,25.156,11.449,12.213Z" transform="translate(-229.215 -379.777)" fill="#fff"/><path d="M288.14,560.731l12.82,13.675-24.955,26.619-12.82-13.675Zm11.449,13.675L288.14,562.193l-23.584,25.156,11.449,12.213Z" transform="translate(-178.484 -379.777)" fill="#fff"/><path d="M213.14,560.731l12.82,13.675-24.955,26.619-12.82-13.675Zm11.449,13.675L213.14,562.193l-23.584,25.156,11.449,12.213Z" transform="translate(-127.754 -379.777)" fill="#fff"/><path d="M138.14,560.731l12.82,13.675-24.955,26.619-12.82-13.675Zm11.449,13.675L138.14,562.193l-23.584,25.156,11.449,12.213Z" transform="translate(-77.023 -379.777)" fill="#fff"/><path d="M63.14,560.731l12.82,13.675L51.005,601.024l-12.82-13.675Zm11.449,13.675L63.14,562.193,39.556,587.349l11.449,12.213Z" transform="translate(-26.292 -379.777)" fill="#fff"/><path d="M88.505,640.731l24.955,26.618-12.82,13.675L75.685,654.406Zm23.584,26.618L88.505,642.193,77.056,654.406l23.584,25.156Z" transform="translate(-51.658 -433.89)" fill="#fff"/><g clip-path="url(#c)"><path d="M13.505,640.731,38.46,667.349,25.64,681.024.685,654.406Zm23.584,26.618L13.505,642.193,2.056,654.406,25.64,679.562Z" transform="translate(-0.927 -433.89)" fill="#fff"/></g><path d="M163.505,640.731l24.955,26.618-12.82,13.675-24.955-26.619Zm23.584,26.618-23.584-25.156-11.449,12.213,23.584,25.156Z" transform="translate(-102.388 -433.89)" fill="#fff"/><path d="M238.506,640.731l24.955,26.618-12.82,13.675-24.955-26.619Zm23.584,26.618-23.584-25.156-11.449,12.213,23.584,25.156Z" transform="translate(-153.119 -433.89)" fill="#fff"/><path d="M313.506,640.731l24.955,26.618-12.82,13.675-24.955-26.619Zm23.584,26.618-23.584-25.156-11.449,12.213,23.584,25.156Z" transform="translate(-203.849 -433.89)" fill="#fff"/><g clip-path="url(#c)"><path d="M388.506,640.731l24.955,26.618-12.82,13.675-24.955-26.619Zm23.584,26.618-23.584-25.156-11.449,12.213,23.584,25.156Z" transform="translate(-254.58 -433.89)" fill="#fff"/><path d="M363.14,720.731l12.82,13.675-24.955,26.619-12.82-13.675Zm11.449,13.675L363.14,722.193l-23.584,25.156,11.449,12.213Z" transform="translate(-229.215 -488.002)" fill="#fff"/><path d="M288.14,720.731l12.82,13.675-24.955,26.619-12.82-13.675Zm11.449,13.675L288.14,722.193l-23.584,25.156,11.449,12.213Z" transform="translate(-178.484 -488.002)" fill="#fff"/><path d="M213.14,720.731l12.82,13.675-24.955,26.619-12.82-13.675Zm11.449,13.675L213.14,722.193l-23.584,25.156,11.449,12.213Z" transform="translate(-127.754 -488.002)" fill="#fff"/><path d="M138.14,720.731l12.82,13.675-24.955,26.619-12.82-13.675Zm11.449,13.675L138.14,722.193l-23.584,25.156,11.449,12.213Z" transform="translate(-77.023 -488.002)" fill="#fff"/><path d="M63.14,720.731l12.82,13.675L51.005,761.024l-12.82-13.675Zm11.449,13.675L63.14,722.193,39.556,747.349l11.449,12.213Z" transform="translate(-26.292 -488.002)" fill="#fff"/></g></g><g transform="translate(-4732.844 -237)"><g clip-path="url(#c)"><path d="M88.505.731,113.46,27.349,100.64,41.024,75.685,14.405Zm23.584,26.618L88.505,2.193,77.056,14.405,100.64,39.562Z" transform="translate(-51.658 -0.989)" fill="#fff"/><path d="M13.505.731,38.46,27.349,25.64,41.024.685,14.405ZM37.089,27.349,13.505,2.193,2.056,14.405,25.64,39.562Z" transform="translate(-0.927 -0.989)" fill="#fff"/><path d="M163.505.731,188.46,27.349,175.64,41.024,150.685,14.405ZM187.09,27.349,163.505,2.193,152.056,14.405,175.64,39.562Z" transform="translate(-102.388 -0.989)" fill="#fff"/><path d="M238.506.731,263.46,27.349,250.64,41.024,225.685,14.405ZM262.09,27.349,238.506,2.193,227.056,14.405,250.64,39.562Z" transform="translate(-153.119 -0.989)" fill="#fff"/><path d="M313.506.731,338.46,27.349,325.64,41.024,300.685,14.405ZM337.09,27.349,313.506,2.193,302.056,14.405,325.64,39.562Z" transform="translate(-203.849 -0.989)" fill="#fff"/><path d="M388.506.731,413.46,27.349,400.64,41.024,375.685,14.405ZM412.09,27.349,388.506,2.193,377.056,14.405,400.64,39.562Z" transform="translate(-254.58 -0.989)" fill="#fff"/></g><path d="M363.14,80.731l12.82,13.675-24.955,26.618-12.82-13.675ZM374.59,94.405,363.14,82.193l-23.584,25.156,11.449,12.213Z" transform="translate(-229.215 -55.101)" fill="#fff"/><path d="M288.14,80.731l12.82,13.675-24.955,26.618-12.82-13.675ZM299.59,94.405,288.14,82.193l-23.584,25.156,11.449,12.213Z" transform="translate(-178.484 -55.101)" fill="#fff"/><path d="M213.14,80.731l12.82,13.675-24.955,26.618-12.82-13.675ZM224.59,94.405,213.14,82.193l-23.584,25.156,11.449,12.213Z" transform="translate(-127.754 -55.101)" fill="#fff"/><path d="M138.14,80.731l12.82,13.675-24.955,26.618-12.82-13.675Zm11.449,13.675L138.14,82.193l-23.584,25.156,11.449,12.213Z" transform="translate(-77.023 -55.101)" fill="#fff"/><path d="M63.14,80.731,75.96,94.405,51.005,121.024l-12.82-13.675ZM74.589,94.405,63.14,82.193,39.556,107.349l11.449,12.213Z" transform="translate(-26.292 -55.101)" fill="#fff"/><path d="M88.505,160.731l24.955,26.618-12.82,13.675L75.685,174.406Zm23.584,26.618L88.505,162.193,77.056,174.406l23.584,25.156Z" transform="translate(-51.658 -109.214)" fill="#fff"/><g clip-path="url(#c)"><path d="M13.505,160.731,38.46,187.349,25.64,201.024.685,174.406Zm23.584,26.618L13.505,162.193,2.056,174.406,25.64,199.562Z" transform="translate(-0.927 -109.214)" fill="#fff"/></g><path d="M163.505,160.731l24.955,26.618-12.82,13.675-24.955-26.618Zm23.584,26.618-23.584-25.156-11.449,12.213,23.584,25.156Z" transform="translate(-102.388 -109.214)" fill="#fff"/><path d="M238.506,160.731l24.955,26.618-12.82,13.675-24.955-26.618Zm23.584,26.618-23.584-25.156-11.449,12.213,23.584,25.156Z" transform="translate(-153.119 -109.214)" fill="#fff"/><path d="M313.506,160.731l24.955,26.618-12.82,13.675-24.955-26.618Zm23.584,26.618-23.584-25.156-11.449,12.213,23.584,25.156Z" transform="translate(-203.849 -109.214)" fill="#fff"/><g clip-path="url(#c)"><path d="M388.506,160.731l24.955,26.618-12.82,13.675-24.955-26.618Zm23.584,26.618-23.584-25.156-11.449,12.213,23.584,25.156Z" transform="translate(-254.58 -109.214)" fill="#fff"/></g><path d="M363.14,240.731l12.82,13.675-24.955,26.618-12.82-13.675Zm11.449,13.675L363.14,242.193l-23.584,25.156,11.449,12.213Z" transform="translate(-229.215 -163.327)" fill="#fff"/><path d="M288.14,240.731l12.82,13.675-24.955,26.618-12.82-13.675Zm11.449,13.675L288.14,242.193l-23.584,25.156,11.449,12.213Z" transform="translate(-178.484 -163.327)" fill="#fff"/><path d="M213.14,240.731l12.82,13.675-24.955,26.618-12.82-13.675Zm11.449,13.675L213.14,242.193l-23.584,25.156,11.449,12.213Z" transform="translate(-127.754 -163.327)" fill="#fff"/><path d="M138.14,240.731l12.82,13.675-24.955,26.618-12.82-13.675Zm11.449,13.675L138.14,242.193l-23.584,25.156,11.449,12.213Z" transform="translate(-77.023 -163.327)" fill="#fff"/><path d="M63.14,240.731l12.82,13.675L51.005,281.024l-12.82-13.675Zm11.449,13.675L63.14,242.193,39.556,267.349l11.449,12.213Z" transform="translate(-26.292 -163.327)" fill="#fff"/><path d="M88.505,320.731l24.955,26.618-12.82,13.675L75.685,334.405Zm23.584,26.618L88.505,322.193,77.056,334.405l23.584,25.156Z" transform="translate(-51.658 -217.439)" fill="#fff"/><g clip-path="url(#c)"><path d="M13.505,320.731,38.46,347.349,25.64,361.024.685,334.405Zm23.584,26.618L13.505,322.193,2.056,334.405,25.64,359.562Z" transform="translate(-0.927 -217.439)" fill="#fff"/></g><path d="M163.505,320.731l24.955,26.618-12.82,13.675-24.955-26.618Zm23.584,26.618-23.584-25.156-11.449,12.213,23.584,25.156Z" transform="translate(-102.388 -217.439)" fill="#fff"/><path d="M238.506,320.731l24.955,26.618-12.82,13.675-24.955-26.618Zm23.584,26.618-23.584-25.156-11.449,12.213,23.584,25.156Z" transform="translate(-153.119 -217.439)" fill="#fff"/><path d="M313.506,320.731l24.955,26.618-12.82,13.675-24.955-26.618Zm23.584,26.618-23.584-25.156-11.449,12.213,23.584,25.156Z" transform="translate(-203.849 -217.439)" fill="#fff"/><g clip-path="url(#c)"><path d="M388.506,320.731l24.955,26.618-12.82,13.675-24.955-26.618Zm23.584,26.618-23.584-25.156-11.449,12.213,23.584,25.156Z" transform="translate(-254.58 -217.439)" fill="#fff"/></g><path d="M363.14,400.731l12.82,13.675-24.955,26.618-12.82-13.675Zm11.449,13.675L363.14,402.193l-23.584,25.156,11.449,12.213Z" transform="translate(-229.215 -271.552)" fill="#fff"/><path d="M288.14,400.731l12.82,13.675-24.955,26.618-12.82-13.675Zm11.449,13.675L288.14,402.193l-23.584,25.156,11.449,12.213Z" transform="translate(-178.484 -271.552)" fill="#fff"/><path d="M213.14,400.731l12.82,13.675-24.955,26.618-12.82-13.675Zm11.449,13.675L213.14,402.193l-23.584,25.156,11.449,12.213Z" transform="translate(-127.754 -271.552)" fill="#fff"/><path d="M138.14,400.731l12.82,13.675-24.955,26.618-12.82-13.675Zm11.449,13.675L138.14,402.193l-23.584,25.156,11.449,12.213Z" transform="translate(-77.023 -271.552)" fill="#fff"/><path d="M63.14,400.731l12.82,13.675L51.005,441.024l-12.82-13.675Zm11.449,13.675L63.14,402.193,39.556,427.349l11.449,12.213Z" transform="translate(-26.292 -271.552)" fill="#fff"/><path d="M88.505,480.731l24.955,26.618-12.82,13.675L75.685,494.406Zm23.584,26.618L88.505,482.193,77.056,494.406l23.584,25.156Z" transform="translate(-51.658 -325.665)" fill="#fff"/><g clip-path="url(#c)"><path d="M13.505,480.731,38.46,507.349,25.64,521.024.685,494.406Zm23.584,26.618L13.505,482.193,2.056,494.406,25.64,519.562Z" transform="translate(-0.927 -325.665)" fill="#fff"/></g><path d="M163.505,480.731l24.955,26.618-12.82,13.675-24.955-26.619Zm23.584,26.618-23.584-25.156-11.449,12.213,23.584,25.156Z" transform="translate(-102.388 -325.665)" fill="#fff"/><path d="M238.506,480.731l24.955,26.618-12.82,13.675-24.955-26.619Zm23.584,26.618-23.584-25.156-11.449,12.213,23.584,25.156Z" transform="translate(-153.119 -325.665)" fill="#fff"/><path d="M313.506,480.731l24.955,26.618-12.82,13.675-24.955-26.619Zm23.584,26.618-23.584-25.156-11.449,12.213,23.584,25.156Z" transform="translate(-203.849 -325.665)" fill="#fff"/><g clip-path="url(#c)"><path d="M388.506,480.731l24.955,26.618-12.82,13.675-24.955-26.619Zm23.584,26.618-23.584-25.156-11.449,12.213,23.584,25.156Z" transform="translate(-254.58 -325.665)" fill="#fff"/></g><path d="M363.14,560.731l12.82,13.675-24.955,26.619-12.82-13.675Zm11.449,13.675L363.14,562.193l-23.584,25.156,11.449,12.213Z" transform="translate(-229.215 -379.777)" fill="#fff"/><path d="M288.14,560.731l12.82,13.675-24.955,26.619-12.82-13.675Zm11.449,13.675L288.14,562.193l-23.584,25.156,11.449,12.213Z" transform="translate(-178.484 -379.777)" fill="#fff"/><path d="M213.14,560.731l12.82,13.675-24.955,26.619-12.82-13.675Zm11.449,13.675L213.14,562.193l-23.584,25.156,11.449,12.213Z" transform="translate(-127.754 -379.777)" fill="#fff"/><path d="M138.14,560.731l12.82,13.675-24.955,26.619-12.82-13.675Zm11.449,13.675L138.14,562.193l-23.584,25.156,11.449,12.213Z" transform="translate(-77.023 -379.777)" fill="#fff"/><path d="M63.14,560.731l12.82,13.675L51.005,601.024l-12.82-13.675Zm11.449,13.675L63.14,562.193,39.556,587.349l11.449,12.213Z" transform="translate(-26.292 -379.777)" fill="#fff"/><path d="M88.505,640.731l24.955,26.618-12.82,13.675L75.685,654.406Zm23.584,26.618L88.505,642.193,77.056,654.406l23.584,25.156Z" transform="translate(-51.658 -433.89)" fill="#fff"/><g clip-path="url(#c)"><path d="M13.505,640.731,38.46,667.349,25.64,681.024.685,654.406Zm23.584,26.618L13.505,642.193,2.056,654.406,25.64,679.562Z" transform="translate(-0.927 -433.89)" fill="#fff"/></g><path d="M163.505,640.731l24.955,26.618-12.82,13.675-24.955-26.619Zm23.584,26.618-23.584-25.156-11.449,12.213,23.584,25.156Z" transform="translate(-102.388 -433.89)" fill="#fff"/><path d="M238.506,640.731l24.955,26.618-12.82,13.675-24.955-26.619Zm23.584,26.618-23.584-25.156-11.449,12.213,23.584,25.156Z" transform="translate(-153.119 -433.89)" fill="#fff"/><path d="M313.506,640.731l24.955,26.618-12.82,13.675-24.955-26.619Zm23.584,26.618-23.584-25.156-11.449,12.213,23.584,25.156Z" transform="translate(-203.849 -433.89)" fill="#fff"/><g clip-path="url(#c)"><path d="M388.506,640.731l24.955,26.618-12.82,13.675-24.955-26.619Zm23.584,26.618-23.584-25.156-11.449,12.213,23.584,25.156Z" transform="translate(-254.58 -433.89)" fill="#fff"/><path d="M363.14,720.731l12.82,13.675-24.955,26.619-12.82-13.675Zm11.449,13.675L363.14,722.193l-23.584,25.156,11.449,12.213Z" transform="translate(-229.215 -488.002)" fill="#fff"/><path d="M288.14,720.731l12.82,13.675-24.955,26.619-12.82-13.675Zm11.449,13.675L288.14,722.193l-23.584,25.156,11.449,12.213Z" transform="translate(-178.484 -488.002)" fill="#fff"/><path d="M213.14,720.731l12.82,13.675-24.955,26.619-12.82-13.675Zm11.449,13.675L213.14,722.193l-23.584,25.156,11.449,12.213Z" transform="translate(-127.754 -488.002)" fill="#fff"/><path d="M138.14,720.731l12.82,13.675-24.955,26.619-12.82-13.675Zm11.449,13.675L138.14,722.193l-23.584,25.156,11.449,12.213Z" transform="translate(-77.023 -488.002)" fill="#fff"/><path d="M63.14,720.731l12.82,13.675L51.005,761.024l-12.82-13.675Zm11.449,13.675L63.14,722.193,39.556,747.349l11.449,12.213Z" transform="translate(-26.292 -488.002)" fill="#fff"/></g></g></g></g></g></svg>