<svg xmlns="http://www.w3.org/2000/svg" width="24.639" height="21.489" viewBox="0 0 24.639 21.489"><path d="M14.253-5.566H5.317L3.311,0H.41L8.555-21.328h2.461L19.175,0H16.289ZM6.167-7.881h7.251L9.785-17.856ZM21.68-1.421A1.7,1.7,0,0,1,22.1-2.593a1.591,1.591,0,0,1,1.252-.469,1.638,1.638,0,0,1,1.267.469,1.663,1.663,0,0,1,.432,1.172,1.573,1.573,0,0,1-.432,1.128A1.668,1.668,0,0,1,23.35.161,1.619,1.619,0,0,1,22.1-.293,1.6,1.6,0,0,1,21.68-1.421Z" transform="translate(-0.41 21.328)" fill="#bcbcbc"/></svg>