<svg xmlns="http://www.w3.org/2000/svg" width="45.196" height="36.587" viewBox="0 0 45.196 36.587"><g transform="translate(-197.5 -2979)"><path d="M31.7,61.76a16.86,16.86,0,0,1,4.342.567c-1.486-6.754-8.914-11.892-17.875-11.892C8.132,50.435,0,56.868,0,64.8c0,5.06,3.31,9.506,8.307,12.065l-2.817,6.3A75.237,75.237,0,0,0,19.95,79.9a10.232,10.232,0,0,1-2.392-6.509C17.558,66.978,23.9,61.76,31.7,61.76Z" transform="translate(199 2930.065)" fill="none" stroke="#1d243e" stroke-width="3"/><path d="M254.817,217.71c0-5.242-5.372-9.491-12-9.491s-12,4.249-12,9.491c0,4,3.135,7.425,7.568,8.82a54.178,54.178,0,0,0,12.8,3.31l-1.861-4.16C252.631,223.99,254.817,221.053,254.817,217.71Z" transform="translate(-12.121 2785.747)" fill="#1d243e"/></g></svg>