<svg xmlns="http://www.w3.org/2000/svg" width="59.851" height="34.245" viewBox="0 0 59.851 34.245"><g transform="translate(0 0)"><g transform="translate(0)"><rect width="51.82" height="33.82" fill="#1b982a"/></g><g transform="translate(53.375 27.767)"><path d="M183.352,144.928a3.238,3.238,0,1,0,3.236-3.237,3.241,3.241,0,0,0-3.236,3.237m.375,0a2.862,2.862,0,1,1,2.861,2.861A2.867,2.867,0,0,1,183.727,144.93Z" transform="translate(-183.352 -141.691)" fill="#fff"/></g><path d="M190.673,148.427h-.621l-1.257-1.945h-.551v1.945h-.5v-4.278h1.211a1.449,1.449,0,0,1,.963.3,1.012,1.012,0,0,1,.354.823,1.054,1.054,0,0,1-.257.7,1.325,1.325,0,0,1-.711.413l1.368,2.05m-2.43-2.377h.627a.944.944,0,0,0,.642-.214.689.689,0,0,0,.245-.539q0-.716-.874-.715h-.641Z" transform="translate(-132.485 -115.327)" fill="#fff"/></g><g transform="translate(0.002 5.263)"><g transform="translate(0 0)"><path d="M72,110.218a6.416,6.416,0,0,1-6.371-6.655c0-3.479,3.445-6.258,6.371-7.92,2.925,1.662,6.37,4.441,6.37,7.92A6.415,6.415,0,0,1,72,110.218m19.524-6.73c0-3.48,3.444-6.261,6.37-7.922,2.927,1.661,6.37,4.441,6.37,7.922a6.376,6.376,0,1,1-12.74,0m19.268-14.239a29.2,29.2,0,0,0-13.1,2.96,29.2,29.2,0,0,0-25.62,0,29.166,29.166,0,0,0-13.091-2.96V92.21a26.174,26.174,0,0,1,9.852,1.87c-3.2,2.141-6.369,5.386-6.369,9.481a9.685,9.685,0,0,0,9.608,9.548,9.5,9.5,0,0,0,9.383-9.548c0-4.1-2.942-7.34-6.145-9.481a25.433,25.433,0,0,1,19.143,0c-3.2,2.141-6.145,5.386-6.145,9.481a9.5,9.5,0,0,0,9.383,9.548,9.624,9.624,0,0,0,9.537-9.548c0-4.1-3.1-7.34-6.3-9.481a26.224,26.224,0,0,1,9.862-1.87Z" transform="translate(-58.977 -89.249)" fill="#fff"/></g></g></svg>