<svg xmlns="http://www.w3.org/2000/svg" width="593.354" height="169.328" viewBox="0 0 593.354 169.328"><g transform="translate(0 1.994)"><g transform="translate(-282.612 -912.494)"><g transform="translate(834.117 983.529)"><path d="M345.139,73.029a48.169,48.169,0,0,0,1.272,5.86,56.3,56.3,0,0,0,1.968,5.692c.751,1.868,1.613,3.7,2.533,5.509s1.916,3.589,2.954,5.353c2.072,3.531,4.339,6.983,6.628,10.455a106.715,106.715,0,0,1,6.469,10.985,46.3,46.3,0,0,1,4.242,12.371,37.645,37.645,0,0,1-.027,13.205,39.546,39.546,0,0,1-1.649,6.4,32.008,32.008,0,0,1-2.862,6.045,36.249,36.249,0,0,1-3.97,5.325c-.949,1.064-1.945,2.071-2.971,3.034a2.2,2.2,0,0,1-3.165-.158v0a2.194,2.194,0,0,1,.146-3.035,35.534,35.534,0,0,0,6.129-7.473,29.241,29.241,0,0,0,2.45-5.236,34.8,34.8,0,0,0,1.454-5.678,33.614,33.614,0,0,0,.033-11.649,41.875,41.875,0,0,0-3.794-11.194,102.637,102.637,0,0,0-6.155-10.556c-2.251-3.507-4.516-7.047-6.615-10.725a81.4,81.4,0,0,1-5.546-11.524c-.387-1-.734-2.023-1.068-3.047-.316-1.031-.623-2.066-.88-3.116a47.678,47.678,0,0,1-1.16-6.382Z" transform="translate(-329.927 -73.029)" fill="#1a1311"/><path d="M345.147,73.416a48.172,48.172,0,0,0,.027,6.47c.079,1.079.188,2.155.334,3.231s.309,2.146.514,3.215c.4,2.139.919,4.264,1.516,6.375s1.26,4.216,1.98,6.309,1.49,4.179,2.282,6.268l1.2,3.134c.4,1.05.808,2.128,1.19,3.2a80.944,80.944,0,0,1,3.654,13.349c.2,1.15.366,2.311.487,3.481s.2,2.349.241,3.534a36.664,36.664,0,0,1-.464,7.147,34.107,34.107,0,0,1-.807,3.537,32.106,32.106,0,0,1-1.234,3.431,35.318,35.318,0,0,1-3.563,6.248,50.123,50.123,0,0,1-4.483,5.448,58.666,58.666,0,0,1-14.859,11.276,2.2,2.2,0,0,1-2.087-3.866,53.406,53.406,0,0,0,8.968-6.073,50.2,50.2,0,0,0,8.78-9.378,30.942,30.942,0,0,0,3.1-5.438,27.615,27.615,0,0,0,1.043-2.907,29.739,29.739,0,0,0,.688-3.03,38.235,38.235,0,0,0-.21-12.661,76.708,76.708,0,0,0-3.4-12.631c-.364-1.044-.747-2.069-1.139-3.12l-1.172-3.172c-.776-2.122-1.535-4.26-2.251-6.423a88.006,88.006,0,0,1-3.418-13.342,51.8,51.8,0,0,1-.525-13.926Z" transform="translate(-329.927 -73.029)" fill="#1a1311"/></g><g transform="translate(282.612 925.135)"><path d="M559.874,142.646H3.8c-2.1,0-3.8-1.039-3.8-2.32V16.955c0-1.282,1.7-2.32,3.8-2.32h556.07c4.683,0,8.478,2.315,8.478,5.172V137.473c0,2.857-3.8,5.173-8.478,5.173" transform="translate(0 -14.635)" fill="#004a83"/><rect width="537.667" height="109.813" transform="translate(13.388 8.865)" fill="#fff"/></g><path d="M16.555,155.286H9.481a1.821,1.821,0,0,1-1.822-1.821V3.816A1.823,1.823,0,0,1,9.481,1.994h7.074a1.823,1.823,0,0,1,1.822,1.822V153.465a1.821,1.821,0,0,1-1.822,1.821" transform="translate(282.612 910.5)" fill="#fff"/><path d="M1.821,0H8.9a1.821,1.821,0,0,1,1.821,1.821V151.47A1.822,1.822,0,0,1,8.9,153.292H1.822A1.822,1.822,0,0,1,0,151.47V1.821A1.821,1.821,0,0,1,1.821,0Z" transform="translate(290.271 912.495)" fill="none" stroke="#1a1311" stroke-miterlimit="10" stroke-width="3.989"/><path d="M23.877,11.942c1.332.3,2.148.962,2.148,2.148v129.1c0,1.186-.928,1.769-2.148,2.148a41.8,41.8,0,0,1-21.729,0C.863,144.91,0,144.376,0,143.19V14.09c0-1.186.895-1.811,2.148-2.148a46.4,46.4,0,0,1,21.729,0" transform="translate(282.612 910.5)" fill="#004a83"/></g><path d="M-123.14-.235c4.089,0,7.1-1.316,7.9-5.64a55.574,55.574,0,0,1,8.977,4.559,2.4,2.4,0,0,0,1.081.564c.235,0,.376-.329.611-.7a22.95,22.95,0,0,0,1.363-2.914,2.985,2.985,0,0,0,.235-1.081c0-.376-.47-.517-.846-.752a46.562,46.562,0,0,0-6.439-3.055,51.067,51.067,0,0,0-5.17-1.692q-.141-2.891-.141-5.781c0-1.786.047-3.525.047-5.311,3.29-.047,6.627-.047,9.87-.376l1.128-.141a.608.608,0,0,0,.564-.7c0-.893-.141-2.538-.188-3.713-.047-.329-.047-1.081-.47-1.081a13.3,13.3,0,0,0-1.551.329c-.8.141-1.6.282-2.4.376-1.363.141-2.679.329-4.042.376-.94.047-1.88.094-2.82.047.047-2.3.141-4.606.329-6.956.047-.564.188-1.175.188-1.786,0-.564-.47-.564-1.128-.564-1.457,0-2.867.047-3.807.094-.517,0-1.081.094-1.081.517a13.054,13.054,0,0,0,.235,1.833,54.362,54.362,0,0,1,.235,7.332c0,4.888,0,9.729.235,14.617a29.733,29.733,0,0,0-3.572-.235,11.359,11.359,0,0,0-6.3,1.6,4.459,4.459,0,0,0-2.021,3.9,5.672,5.672,0,0,0,3.478,5.264A11.644,11.644,0,0,0-123.14-.235Zm-.376-4.465a8.738,8.738,0,0,1-2.961-.611c-.611-.282-1.034-.658-1.034-1.175a1.317,1.317,0,0,1,.846-1.128,5.716,5.716,0,0,1,2.209-.423,13.5,13.5,0,0,1,4.371.658,9.69,9.69,0,0,1-.141,1.222C-120.649-5.029-122.435-4.7-123.516-4.7ZM-68.15,1.5A3.237,3.237,0,0,0-67.21.94a24.523,24.523,0,0,0,2.538-2.068c.611-.564,1.034-.893,1.034-1.128,0-.329-.611-1.034-.846-1.269-1.645-2.021-3.384-4-5.029-6.016-1.6-1.88-3.149-3.807-4.7-5.734-.47-.564-1.363-1.551-1.363-2.35a3.968,3.968,0,0,1,1.128-2.3q4.371-5.922,8.883-11.7a9.735,9.735,0,0,0,.846-1.081c.188-.282.376-.611.329-.8a1.038,1.038,0,0,0-.47-.8,12.9,12.9,0,0,0-1.128-.705c-.329-.188-1.363-.846-2.444-1.41a2.847,2.847,0,0,0-1.128-.47c-.235,0-.376.282-.517.564-.188.47-.282.987-.47,1.457-.376.8-.846,1.6-1.269,2.35-2.021,3.525-4.465,6.862-6.815,10.152a18.822,18.822,0,0,0-1.5,2.256,4.889,4.889,0,0,0-.752,2.585,5.335,5.335,0,0,0,.611,2.4,13.287,13.287,0,0,0,1.5,2.115c3.337,4.277,6.486,8.648,9.447,13.207C-69.043.611-68.714,1.5-68.15,1.5Zm48.6-.564A8.824,8.824,0,0,0-17.437.376c5.405-2.162,10.575-5.781,10.575-12.22,0-5.781-3.478-9.635-9.071-10.716a14.283,14.283,0,0,0,.47-1.363,3.441,3.441,0,0,0,.188-.752c0-.282-.376-.423-.752-.517-.564-.141-1.833-.423-2.538-.564a6.6,6.6,0,0,0-.846-.094.845.845,0,0,0-.423.188,3.993,3.993,0,0,0-.235.94c-.141.752-.376,1.739-.423,2.021a37.471,37.471,0,0,0-5.123.8c.094-1.222.235-2.491.329-3.713.611-.047,2.585-.282,4.606-.564a25.34,25.34,0,0,0,4.841-.987c.8-.282.752-.658.7-1.269,0-.94-.047-1.833-.094-2.82-.047-.517-.047-.846-.329-.893a2.96,2.96,0,0,0-.846.282c-.987.329-2.632.846-3.055.94a38.829,38.829,0,0,1-5.217.8c.141-1.081.282-2.115.517-3.149.094-.517.235-1.128.376-1.645a2.786,2.786,0,0,0,.188-.8c0-.423-.423-.517-.752-.564-1.175-.188-3.2-.47-3.713-.47s-.658.141-.658.705a10.623,10.623,0,0,1-.047,1.222c-.094,1.739-.282,3.384-.423,5.076A23.032,23.032,0,0,1-33.6-30.08a11.467,11.467,0,0,1-1.5-.376,3.34,3.34,0,0,0-.94-.188c-.376,0-.423.658-.47.94a22.593,22.593,0,0,0-.376,3.055c0,.517.376.564.8.658a32.376,32.376,0,0,0,6.392.611l-.282,4.935a20.86,20.86,0,0,0-6.956,4.418,10.515,10.515,0,0,0-3.29,7.285c0,2.914,1.6,6.063,4.888,6.063A11.908,11.908,0,0,0-29.61-4.465c.047.235.188,1.316.376,2.162.141.564.188.987.376.987a2.977,2.977,0,0,0,.987-.188c.8-.282,1.786-.611,2.632-.94.282-.141.7-.235.7-.611a8,8,0,0,0-.376-1.786c-.188-.893-.329-1.833-.517-2.726.8-.8,1.551-1.6,2.3-2.444a41.02,41.02,0,0,0,5.734-8.883,6.489,6.489,0,0,1,5.781,6.862c0,4.653-4.7,6.815-8.46,8.084-.282.094-1.175.235-1.833.376-.564.141-.94.235-.987.47-.047.329.329.658.7,1.222.658.94,1.6,2.068,1.833,2.4C-20.069.846-19.975.94-19.552.94ZM-34.545-7.332c-1.034,0-1.269-.611-1.269-1.551,0-3.2,3.1-5.828,5.734-7.191a26.874,26.874,0,0,0-.094,2.773c0,1.269.047,2.491.094,3.76a23.382,23.382,0,0,1-2.491,1.6A5.236,5.236,0,0,1-34.545-7.332Zm8.46-4.888c-.047-.752-.047-1.551-.047-2.35,0-1.128,0-2.256.094-3.384,1.41-.47,2.914-.8,4.371-1.128A28.529,28.529,0,0,1-26.085-12.22ZM23.923-.564c6.533,0,14.147-2.491,14.147-10.2,0-6.486-5.687-9.4-11.468-9.4a28.37,28.37,0,0,0-4.888.611c2.35-2.4,4.042-4.277,6.016-6.486A17.416,17.416,0,0,1,29-27.4a31.293,31.293,0,0,1,2.632-2.35c.235-.188.8-.564.8-.94.047-.423-.376-.846-.611-1.175-.564-.658-1.316-1.41-1.833-1.927-.376-.329-.658-.564-.893-.564a3.176,3.176,0,0,0-.94.376,4,4,0,0,1-1.034.376c-.8.094-2.021.141-3.008.235-2.021.188-4.089.235-6.157.235a23.616,23.616,0,0,1-2.538-.141,9.27,9.27,0,0,0-1.645-.329c-.517,0-.517.846-.517,1.269-.094,1.034-.141,2.867-.141,3.854,0,.376.141.564.517.564a10.464,10.464,0,0,0,1.692-.235c3.1-.329,5.922-.564,9.024-.752-2.961,3.76-6.2,7.191-9.494,10.622-1.128,1.175-2.256,2.35-3.431,3.478-.329.282-1.363,1.175-2.3,1.927-.282.235-.846.47-.846.8a1.933,1.933,0,0,0,.564.987A25.475,25.475,0,0,0,10.81-8.883c.329.282.47.517.893.517.282,0,.7-.517.94-.752a35.14,35.14,0,0,1,4.136-3.807,16.244,16.244,0,0,1,9.4-3.149c3.431,0,7,1.316,7,5.311,0,3.055-2.491,4.606-5.17,5.17-.141-3.713-3.008-6.016-6.627-6.016-3.008,0-6.11,1.927-6.11,5.217C15.275-1.739,20.163-.564,23.923-.564ZM22.8-5.217c-1.081,0-3.149-.235-3.149-1.645a1.575,1.575,0,0,1,1.692-1.41c1.081,0,2.4.658,2.4,1.927a4.577,4.577,0,0,1-.094,1.128Zm34.4,8.6a2.389,2.389,0,0,0,1.175-.517l7.614-5.452c.329-.235,1.457-.987,1.457-1.363,0-.188-.423-.564-.94-.987-.282-.235-.564-.47-.893-.7,1.128-.047,2.256-.047,3.384-.047,2.021,0,4.042.047,6.063.094l-.752.752c-.47.47-.752.846-.752,1.034,0,.376,1.41,1.081,1.692,1.269,2.491,1.833,4.841,3.525,7.332,5.17A2.51,2.51,0,0,0,83.9,3.2c.329,0,.517-.329.94-.7.8-.611,1.739-1.5,2.068-1.739S87.89,0,87.89-.47,86.339-1.316,85.963-1.5a41.719,41.719,0,0,1-7.567-4h.376c.846.047,1.645.141,2.444.141.47,0,.564-.094.564-.517,0-1.5-.047-3.008.047-4.559.141-2.679.282-5.4.47-8.131.094-.611.094-1.269.235-1.927a12.075,12.075,0,0,0,.329-1.88c0-.282-.188-.329-.47-.329-.705,0-1.363.141-2.068.141h-9.87c-2.867,0-6.58-.047-9.447-.047-.752,0-1.457-.141-2.209-.141-.235,0-.376.094-.376.329,0,.564.188,1.222.235,1.739.094.8.188,1.6.235,2.35.141,2.444.188,4.841.188,7.238,0,1.316-.047,2.632-.094,3.948,0,.47-.141.94-.141,1.41,0,.235.188.282.376.282,1.034,0,2.068-.141,3.1-.188h.564a28.389,28.389,0,0,1-5.029,3.478A28.576,28.576,0,0,1,54.191-.47c-.282.141-1.034.282-1.034.611,0,.376.376.705.658.893.329.282,1.222.893,2.021,1.457A4.859,4.859,0,0,0,57.2,3.384Zm5.452-12.22a12.315,12.315,0,0,0,.047-1.316H78.02l-.047,1.316C72.85-8.93,67.774-8.836,62.651-8.836Zm0-4.465L62.6-14.617H78.3L78.208-13.3Zm-.141-4.465-.047-1.457H78.584l-.094,1.457ZM55.178-22.7c.376,0,1.034-.8,1.269-1.081a9.373,9.373,0,0,0,1.927-3.948c1.128,0,2.209-.047,3.337-.047,0,.611,0,1.175-.047,1.786,0,.517-.094,1.034-.141,1.551a3.8,3.8,0,0,0-.047.752c0,.376.752.235,1.034.235l2.773.047c.282,0,1.128.047,1.128-.329a3.174,3.174,0,0,0-.094-.658c-.047-.658-.094-1.363-.094-2.021a13.209,13.209,0,0,0-.047-1.363c.94,0,1.88,0,2.82.047.611,0,1.175.094,1.786.094.564,0,.517-.235.611-.8.047-.376.094-1.128.188-1.88.047-.423.141-.893.141-1.081,0-.329-.141-.376-.423-.376-.8.094-3.2.376-4.794.376-2.726,0-5.17.047-7.708.047v-.893c3.1-.705,6.157-1.316,9.212-1.88.329-.047,1.081-.047,1.081-.517a2.3,2.3,0,0,0-.47-.893c-.376-.7-.987-1.833-1.175-2.115-.188-.188-.329-.376-.658-.376a4.183,4.183,0,0,0-.893.141c-.611.188-1.316.47-1.692.564-1.081.282-5.781,1.551-6.768,1.786l-2.209-.047c-.376,0-.658-.047-.658.423,0,.235.094.423.094.658a8.6,8.6,0,0,1,.094,1.551,13.909,13.909,0,0,1-.658,4.653,8.455,8.455,0,0,1-2.068,2.538c-.188.141-.517.329-.517.611,0,.235.47.47.611.564L54.1-23.359C54.614-22.983,54.8-22.7,55.178-22.7Zm25.9-.611h2.867c.235,0,.893.047.893-.329a2.87,2.87,0,0,0-.141-.611c-.047-.7-.094-1.363-.094-2.021,0-.47-.047-.893-.047-1.363,1.034,0,2.021.047,3.008.047.611,0,1.175.094,1.786.094.564,0,.517-.188.611-.8.047-.329.094-1.081.188-1.739.047-.517.141-1.034.141-1.269,0-.329-.141-.329-.423-.329-1.6.094-3.2.376-4.794.376-2.585,0-5.17.047-7.755.047,0-.329-.047-.611-.047-1.034,3.1-.705,6.016-1.175,9.212-1.833.329-.047,1.081-.094,1.081-.564a3.348,3.348,0,0,0-.47-.94c-.423-.658-.987-1.833-1.175-2.068-.188-.188-.329-.423-.658-.423a4.689,4.689,0,0,0-.94.188c-.611.188-1.269.423-1.645.564-1.269.282-5.358,1.5-6.674,1.786-.564,0-1.739-.094-2.3-.094-.376,0-.658,0-.658.423,0,.235.094.47.094.7a8.6,8.6,0,0,1,.094,1.551c0,2.679-.564,4.465-2.632,6.251-.188.141-.564.329-.564.611,0,.235.517.47.658.564.329.188,1.269.846,2.021,1.316.47.282.658.564,1.034.564s1.034-.8,1.269-1.081a9.42,9.42,0,0,0,1.551-2.867c1.175,0,2.35,0,3.525-.047,0,.611,0,1.175-.047,1.739,0,.517-.047,1.081-.094,1.6,0,.235-.141.47-.141.7C79.806-23.171,80.793-23.312,81.075-23.312ZM99.781,2.021c.376,0,.94-.987,1.128-1.269a33.418,33.418,0,0,0,3.713-13.771c.141-2.162.188-4.183.188-6.2h6.016c1.034,0,2.115.047,3.149.094,1.034,0,1.363-.47,1.316-1.551,0-.846.047-1.88.047-2.773.047-3.055.141-6.11.376-9.118.047-.752.188-1.5.188-2.256,0-.517-.141-.7-.658-.7-.752,0-1.645.141-2.35.188h-4.841c-1.739,0-3.478,0-5.217-.047-.705,0-1.457-.094-2.162-.094-.376,0-.705,0-.705.47,0,.564.141,1.128.141,1.692.141,2.726.376,5.5.376,8.225,0,2.3.047,4.606.047,6.909-.047,3.478-.329,9.024-2.726,13.583a17.694,17.694,0,0,1-1.5,2.162c-.188.235-.705.658-.705.893,0,.423.564.8.846,1.034.376.282,1.128.893,1.974,1.6C99.029,1.6,99.217,2.021,99.781,2.021Zm9.87-3.713c.658,0,1.41-.188,2.115-.235,1.6-.094,4.136-.141,5.781-.141,1.88,0,3.29.094,4.888.235.658.047,1.6.094,2.4.094.893.047.893-.376.987-1.222.282-3.055.47-5.593.94-8.6l.376-2.115a8.118,8.118,0,0,0,.094-1.41c0-.611-1.034-.47-1.6-.423-1.974,0-3.713.235-5.546.235-2.115,0-4.183,0-6.3-.047-1.269,0-2.491-.094-3.713-.141-.47,0-.94-.094-1.457-.094-.329,0-.658.047-.658.47a10.178,10.178,0,0,0,.188,1.175c.094,1.5.235,2.961.376,4.465.141,1.786.282,4.653.329,6.439C108.852-2.4,108.758-1.692,109.651-1.692ZM112.8-6.58l-.235-4.324c3.243,0,6.439-.047,9.823.047l-.423,4.23C118.91-6.768,115.855-6.627,112.8-6.58Zm-7.99-16.591v-2.3h6.439c0,.752-.047,1.551-.047,2.3Zm0-5.875v-2.115h6.58v2.115ZM131.647,1.833h3.384c.47,0,1.128,0,1.128-.611a6.8,6.8,0,0,0-.235-1.41,160.431,160.431,0,0,1-1.41-22.419c0-3.29.047-6.58.188-9.87,0-.846.094-1.692.094-2.538,0-.423-.094-.611-.517-.611-.705,0-1.41.141-2.115.141-1.6,0-3.149.047-4.747.047-2.256,0-4.512,0-6.721-.094-.47,0-.893-.047-1.363-.047-.376,0-.752,0-.752.517,0,.564.188,1.692.235,2.35.188,2.444.329,4.888.376,7.332.047,1.081.047,2.162.047,3.243,0,.752-.094,1.739-.047,2.35.047.47.141.611.893.611l2.35-.047h7.614c0,4.089.094,8.225.094,12.361,0,2.3.094,4.653.094,6.956,0,.376-.141,1.034-.094,1.363C130.284,2.021,130.9,1.833,131.647,1.833Zm-8.413-25.051v-2.256h6.815v2.256Zm-.094-5.828L123-31.161c2.35-.047,4.7,0,7.05,0v2.115Z" transform="translate(281.888 92.006)"/></g></svg>