<svg id="logomark" xmlns="http://www.w3.org/2000/svg" width="307.098" height="29.653" viewBox="0 0 307.098 29.653">
  <g id="グループ_9" data-name="グループ 9" transform="translate(38.411 8.225)">
    <g id="グループ_8" data-name="グループ 8">
      <path id="パス_25" data-name="パス 25" d="M593.58,354.584V336.693l2.46.654v13.522a20.479,20.479,0,0,0,9.7-8.1l.889.928C604.124,347.972,600.952,352.191,593.58,354.584Z" transform="translate(-445.247 -336.129)" fill="#1a1311"/>
      <path id="パス_26" data-name="パス 26" d="M567.612,338l-1.935-1.5c-3,5.032-6.794,7.936-11.89,10.407l.46.947a36.53,36.53,0,0,0,6.943-3.4v10.015h2.468v-11.72A19.332,19.332,0,0,0,567.612,338Z" transform="translate(-422.567 -336.025)" fill="#1a1311"/>
      <path id="パス_27" data-name="パス 27" d="M626.664,347.008l-.513-.867c2.459-2.035,4.426-6.405,5.206-9.445l2.284.75c-.138.5-.268.784-.547,1.585h8.192c-.541,7.563-3.7,12.8-11.15,15.569l-.35-.977c5.386-2.7,8.041-7.2,8.914-13.438h-6.041A13.8,13.8,0,0,1,626.664,347.008Z" transform="translate(-463.811 -336.13)" fill="#1a1311"/>
      <g id="グループ_1" data-name="グループ 1" transform="translate(82.085 1.176)">
        <path id="パス_28" data-name="パス 28" d="M439.533,357.284c6.948-.466,11.8-5.288,14.188-11.052l1.153.715c-2.283,6.511-6.8,11.99-14.6,12.9Z" transform="translate(-439.533 -342.663)" fill="#1a1311"/>
        <path id="パス_29" data-name="パス 29" d="M440.163,339.084l.6-1a30.3,30.3,0,0,1,7.124,2.611l-1.38,2.565A29.542,29.542,0,0,0,440.163,339.084Z" transform="translate(-439.892 -338.089)" fill="#1a1311"/>
      </g>
      <path id="パス_30" data-name="パス 30" d="M256,342.788a.85.85,0,0,0-.607-.4.661.661,0,0,0-.529.407c-1.2,2.412-3.108,7.519-4.345,10.423l-1.862-1.766c1.141-2.332,3.71-7.244,4.768-9.131a2.121,2.121,0,0,1,1.952-1.265,2.7,2.7,0,0,1,2.047,1.115c1.818,2.081,5.222,7.155,8.207,11.574l-2.056,2.231C261.31,351.827,257.593,344.853,256,342.788Z" transform="translate(-248.661 -338.578)" fill="#1a1311"/>
      <path id="パス_31" data-name="パス 31" d="M379.486,340.514H368.4v-1.148H382.01v1.756c0,6.745-2.86,12.762-11.288,14.963l-.415-1c6.639-2.437,9.179-8.057,9.179-13.824Z" transform="translate(-316.906 -337.631)" fill="#1a1311"/>
      <path id="パス_32" data-name="パス 32" d="M671.383,343.289v-5.942l-2.467-.654v17.891h2.467v-9.972a15.652,15.652,0,0,1,6.941,3.79l.138.118,1.967-1.962-.211-.137A19.624,19.624,0,0,0,671.383,343.289Z" transform="translate(-488.185 -336.129)" fill="#1a1311"/>
      <g id="グループ_2" data-name="グループ 2" transform="translate(100.184 0.564)">
        <path id="パス_33" data-name="パス 33" d="M484.087,343.289v-5.942l-2.467-.654v17.891h2.467v-9.972a15.65,15.65,0,0,1,6.941,3.79l.138.118,1.966-1.962-.21-.137A19.627,19.627,0,0,0,484.087,343.289Z" transform="translate(-481.62 -336.693)" fill="#1a1311"/>
        <rect id="長方形_37" data-name="長方形 37" width="1.064" height="3.437" transform="translate(8.766 0.53)" fill="#1a1311"/>
        <rect id="長方形_38" data-name="長方形 38" width="1.064" height="3.437" transform="translate(10.702 0.53)" fill="#1a1311"/>
      </g>
      <g id="グループ_3" data-name="グループ 3" transform="translate(114.322 0.565)">
        <path id="パス_34" data-name="パス 34" d="M521.439,339.03c.279-.8.409-1.08.547-1.585l-2.284-.75c-.78,3.04-2.747,7.41-5.206,9.445l.512.867A13.8,13.8,0,0,0,521,340.184h6.041a22.551,22.551,0,0,1-1.368,5.332,25.248,25.248,0,0,0-5.3-2.325l-.579.818a17.518,17.518,0,0,1,4.8,3.69,15.1,15.1,0,0,1-6.467,5.923l.35.977c7.452-2.768,10.609-8.006,11.15-15.569Z" transform="translate(-514.496 -336.695)" fill="#1a1311"/>
        <rect id="長方形_39" data-name="長方形 39" width="1.064" height="3.437" transform="translate(16.072 0.529)" fill="#1a1311"/>
        <rect id="長方形_40" data-name="長方形 40" width="1.064" height="3.437" transform="translate(18.007 0.529)" fill="#1a1311"/>
      </g>
      <g id="グループ_5" data-name="グループ 5" transform="translate(33.842 0.927)">
        <g id="グループ_4" data-name="グループ 4">
          <path id="パス_35" data-name="パス 35" d="M328.766,359.195c6.948-.466,12.044-4.508,13.944-9.562l1.153.716a16.431,16.431,0,0,1-14.353,11.413Z" transform="translate(-328.159 -344.325)" fill="#1a1311"/>
          <path id="パス_36" data-name="パス 36" d="M331.569,338.517l.6-1a26.835,26.835,0,0,1,6.721,2.488l-1.319,2.441A26.314,26.314,0,0,0,331.569,338.517Z" transform="translate(-329.757 -337.522)" fill="#1a1311"/>
          <path id="パス_37" data-name="パス 37" d="M327.355,349.6l.582-1.006a26.475,26.475,0,0,1,6.713,2.336l-1.277,2.464A25.85,25.85,0,0,0,327.355,349.6Z" transform="translate(-327.355 -343.739)" fill="#1a1311"/>
        </g>
        <rect id="長方形_41" data-name="長方形 41" width="1.064" height="3.437" transform="translate(12.736 0.166)" fill="#1a1311"/>
        <rect id="長方形_42" data-name="長方形 42" width="1.064" height="3.437" transform="translate(14.671 0.166)" fill="#1a1311"/>
      </g>
      <g id="グループ_7" data-name="グループ 7" transform="translate(193.35)">
        <g id="グループ_6" data-name="グループ 6" transform="translate(0)">
          <path id="パス_38" data-name="パス 38" d="M707.2,337.106a20.977,20.977,0,0,1-1.66,6.492l.718.575a17.026,17.026,0,0,0,1.7-2.844h1.983v3.231h-4.253v1.022h3.477a13.375,13.375,0,0,1-4.241,6.982l.471.707a16.348,16.348,0,0,0,4.546-4.154V354.8h2.3v-7.04c.636,1.846,1.783,4.413,3.264,5.659l1.158-2.03c-2.012-1.757-3.468-3.409-4-5.811h3.963V344.56h-4.382v-3.093h3.82v-1.022h-3.82v-3.264l-2.3-.664v3.928H708.4a17.78,17.78,0,0,0,.909-2.442Zm-8.36,13.421a18.517,18.517,0,0,0,2.5-2.923v7.2h2.29V345.64a18.587,18.587,0,0,0,1.145,2.242l.71-2.289a10.183,10.183,0,0,1-1.854-2.166v-1.664h1.981v-1.02h-1.981v-3.562l-2.29-.664v4.226h-2.652v1.02h2.546a18.789,18.789,0,0,1-2.97,8.089Z" transform="translate(-698.26 -336.031)" fill="#1a1311"/>
          <path id="パス_39" data-name="パス 39" d="M745.872,364.951c2.226-.638,7.395-2.647,8.961-3.327l-.157-.963c-1.2.323-2,.526-3.646.868v-5.568h2.783v-1h-8.136v1h2.988v6.015c-.946.205-2.743.539-3.551.71Z" transform="translate(-724.964 -346.388)" fill="#1a1311"/>
          <path id="パス_40" data-name="パス 40" d="M761.51,349.9c-.492,2.235-.868,2.456-1.489,2.456-1,0-3.175-2.663-3.213-10.839h5.467V340.5h-1.922l1.258-1.484-.163-.129a12,12,0,0,0-3.368-1.708l-.528.82a21.731,21.731,0,0,1,2.258,2.5h-3v-3.312l-2.354-.661V340.5h-8.949v1.022h8.976c.041,9.539,2.918,13.141,5.386,13.141,1.89,0,2.188-1.989,2.6-4.262Z" transform="translate(-725.189 -336.034)" fill="#1a1311"/>
          <path id="パス_41" data-name="パス 41" d="M804.406,365.958a28.34,28.34,0,0,0-4.924-5.017l-.645.69a21.424,21.424,0,0,1,2.157,3.212c-2.346.2-5.025.288-7.344.308a54.552,54.552,0,0,0,3.045-4.7h8.649v-1.02H788.92v1.02h4.973c-.564,1.6-1.267,3.348-1.861,4.7-.762.021-1.724.014-2.38.017l.678,2.379c2.027-.181,8.53-1.332,11.123-1.831.225.461.632,1.286.938,2.028Z" transform="translate(-749.932 -348.903)" fill="#1a1311"/>
          <path id="パス_42" data-name="パス 42" d="M840.331,340.4H837.8v-3.213l-2.357-.661V340.4h-3.1v1.015h5.2a13.861,13.861,0,0,1-5.428,7.342l.57.757a17.516,17.516,0,0,0,2.756-1.814v7.13H837.8v-8.32a10.415,10.415,0,0,1,1.8,2.324l1.182-1.9a7.635,7.635,0,0,0-2.739-1.766A19.671,19.671,0,0,0,840.331,340.4Z" transform="translate(-774.551 -336.034)" fill="#1a1311"/>
          <path id="パス_43" data-name="パス 43" d="M854.421,353.444V343.6h3.743v-1.013h-3.743v-5.4l-2.343-.661v6.063h-3.3V343.6h3.3v9.847h-4.6v1.014h11.165v-1.014Z" transform="translate(-783.308 -336.033)" fill="#1a1311"/>
          <path id="パス_44" data-name="パス 44" d="M805.315,342.914a13.557,13.557,0,0,1-7.774-6.6l-.036-.062-2.212-.843-.08.161a18.857,18.857,0,0,1-7.394,8.273l.512.858a25.613,25.613,0,0,0,3.826-2.319v.871h8.3v-.814a19.155,19.155,0,0,0,3.421,2.431Zm-12.917-.686a28.275,28.275,0,0,0,4.546-4.733,20.178,20.178,0,0,0,3.279,4.733Z" transform="translate(-749.304 -335.407)" fill="#1a1311"/>
        </g>
      </g>
    </g>
    <path id="パス_45" data-name="パス 45" d="M293.169,359.87l-.516-1.141c5.975-1.712,8.062-5.94,8.283-12.465l2.159.663C302.711,354.581,300.13,358.142,293.169,359.87Zm1.3-13.065,1.032-.492a14.655,14.655,0,0,1,2.622,4.7l-2.164.877A15.347,15.347,0,0,0,294.472,346.8Zm-3.878,1,1.032-.492a14.659,14.659,0,0,1,2.623,4.7l-2.164.877A15.348,15.348,0,0,0,290.594,347.805Z" transform="translate(-272.561 -341.505)" fill="#1a1311"/>
    <path id="パス_46" data-name="パス 46" d="M419.1,347.562c-.914,4.291-3.295,6.448-5.748,7.435l-.5-.949a7.607,7.607,0,0,0,3.566-5.344h-9.9v-1.142Zm-6.422,4.591c0,3.531-1.583,7.166-5.466,8.573l-.533-.93c3.18-1.829,3.866-4.678,3.866-8.118v-1.7h2.133Z" transform="translate(-338.633 -342.234)" fill="#1a1311"/>
  </g>
  <g id="グループ_11" data-name="グループ 11" transform="translate(0 0)">
    <g id="グループ_10" data-name="グループ 10">
      <path id="パス_47" data-name="パス 47" d="M159.344,327.967l5.842,18.328,9.452-29.653Z" transform="translate(-159.344 -316.642)" fill="#7d0024"/>
      <path id="パス_48" data-name="パス 48" d="M210.2,327.969v0l-15.3-11.325,5.059,15.869A45.172,45.172,0,0,1,210.2,327.969Z" transform="translate(-179.613 -316.642)" fill="#7d0024"/>
      <path id="パス_49" data-name="パス 49" d="M211.066,360.811l5.842-18.326a45.175,45.175,0,0,0-10.236,4.541Z" transform="translate(-186.318 -331.158)" fill="#927737"/>
      <path id="パス_50" data-name="パス 50" d="M187.44,352.846a46.462,46.462,0,0,0-14.511,13.784h18.905Z" transform="translate(-167.087 -336.977)" fill="#7d0024"/>
      <path id="パス_51" data-name="パス 51" d="M172.929,346.3l9.452-29.653,5.059,15.869A46.463,46.463,0,0,0,172.929,346.3" transform="translate(-167.087 -316.642)" fill="#fff"/>
    </g>
  </g>
</svg>
