<svg xmlns="http://www.w3.org/2000/svg" width="24.507" height="25.225" viewBox="0 0 24.507 25.225"><path d="M18.765-9.976a13.173,13.173,0,0,1-.981,5.325,8.228,8.228,0,0,1-2.754,3.494l3.809,2.988L16.919,3.6,12.422.029A9.151,9.151,0,0,1,10.2.293,8.152,8.152,0,0,1,5.728-.945,8.18,8.18,0,0,1,2.7-4.475,12.659,12.659,0,0,1,1.6-9.785v-1.538a13.037,13.037,0,0,1,1.069-5.435,8.151,8.151,0,0,1,3.025-3.611,8.117,8.117,0,0,1,4.475-1.252A8.258,8.258,0,0,1,14.7-20.376a8.032,8.032,0,0,1,3.01,3.582,13.155,13.155,0,0,1,1.055,5.457Zm-2.812-1.377a9.679,9.679,0,0,0-1.5-5.808A5,5,0,0,0,10.166-19.2a4.956,4.956,0,0,0-4.182,2.029,9.367,9.367,0,0,0-1.575,5.632v1.567A9.651,9.651,0,0,0,5.94-4.2,4.962,4.962,0,0,0,10.2-2.095,4.972,4.972,0,0,0,14.414-4.08a9.523,9.523,0,0,0,1.538-5.691Zm6.782,9.932a1.7,1.7,0,0,1,.417-1.172A1.591,1.591,0,0,1,24.4-3.062a1.638,1.638,0,0,1,1.267.469A1.663,1.663,0,0,1,26.1-1.421a1.573,1.573,0,0,1-.432,1.128A1.668,1.668,0,0,1,24.4.161a1.619,1.619,0,0,1-1.252-.454A1.6,1.6,0,0,1,22.734-1.421Z" transform="translate(-1.597 21.621)" fill="#1d243e"/></svg>