<svg xmlns="http://www.w3.org/2000/svg" width="35.036" height="20.046" viewBox="0 0 35.036 20.046"><g transform="translate(0)"><rect width="30.335" height="19.797" fill="#1d243e"/><g transform="translate(31.244 16.255)"><path d="M128.16,501.282a1.9,1.9,0,1,0,1.9-1.895,1.9,1.9,0,0,0-1.9,1.895m.219,0a1.676,1.676,0,1,1,1.677,1.675A1.679,1.679,0,0,1,128.379,501.282Z" transform="translate(-128.16 -499.387)" fill="#1a1311"/></g><path d="M131.893,503.022h-.364l-.735-1.138h-.322v1.138h-.292v-2.5h.709a.847.847,0,0,1,.563.173.593.593,0,0,1,.208.482.609.609,0,0,1-.151.407.765.765,0,0,1-.415.243l.8,1.2m-1.421-1.393h.367a.55.55,0,0,0,.374-.125.4.4,0,0,0,.145-.314c0-.281-.172-.42-.513-.42h-.374Z" transform="translate(-97.833 -483.646)" fill="#1a1311"/></g><g transform="translate(0.003 3.082)"><g transform="translate(0)"><path d="M78.593,487.549a3.755,3.755,0,0,1-3.728-3.9c0-2.037,2.017-3.663,3.728-4.637,1.713.974,3.729,2.6,3.729,4.637a3.755,3.755,0,0,1-3.729,3.9m11.429-3.939c0-2.038,2.016-3.664,3.728-4.638,1.712.974,3.728,2.6,3.728,4.638a3.732,3.732,0,1,1-7.457,0m11.279-8.334a17.093,17.093,0,0,0-7.669,1.733,17.089,17.089,0,0,0-15,0,17.07,17.07,0,0,0-7.662-1.733v1.733A15.3,15.3,0,0,1,76.74,478.1c-1.873,1.253-3.728,3.152-3.728,5.549a5.669,5.669,0,0,0,5.624,5.588,5.558,5.558,0,0,0,5.493-5.588c0-2.4-1.722-4.3-3.6-5.549a14.882,14.882,0,0,1,11.2,0c-1.874,1.253-3.6,3.152-3.6,5.549a5.556,5.556,0,0,0,5.492,5.588,5.634,5.634,0,0,0,5.584-5.588c0-2.4-1.813-4.3-3.689-5.549a15.321,15.321,0,0,1,5.774-1.095Z" transform="translate(-70.973 -475.275)" fill="#fff"/></g></g></svg>