<svg xmlns="http://www.w3.org/2000/svg" width="18.674" height="21.354" viewBox="0 0 18.674 21.354"><g transform="translate(-424.163 -3228.146)"><path d="M15.528,18.705l7.061-7.067a1.329,1.329,0,0,1,1.885,0,1.346,1.346,0,0,1,0,1.89l-8,8.006a1.332,1.332,0,0,1-1.84.039l-8.056-8.04a1.335,1.335,0,0,1,1.885-1.89Z" transform="translate(417.975 3216.899)" fill="#2a80b9"/><path d="M15.528,18.705l7.061-7.067a1.329,1.329,0,0,1,1.885,0,1.346,1.346,0,0,1,0,1.89l-8,8.006a1.332,1.332,0,0,1-1.84.039l-8.056-8.04a1.335,1.335,0,0,1,1.885-1.89Z" transform="translate(417.975 3227.576)" fill="#2a80b9"/></g></svg>